<svg class="hoja1" xmlns="http://www.w3.org/2000/svg" viewBox="0 0 286.35 92.18"><defs><style>.cls-1{fill:#b45927;}</style></defs><title>hoja</title><g id="Capa_2" data-name="Capa 2"><g id="Layer_1" data-name="Layer 1"><path class="cls-1" d="M154.68,82.09l.12-4.47c2-.08,4-.16,1.36-.06,2.45-1.07.69-.3-1.06.47l-13.2,2.81.42-.28-9.89-.14-.39,2L141.86,85l-.27-.33c-.93,1-1.71,2.51-2.79,2.76C93.73,97.62,51,91.44,11,68.36,7.24,66.22,4.53,62.36,0,58c4.6-1.89,6.9-3.17,9.37-3.81,30.12-7.85,60.32-15.42,90.4-23.43C147.88,18,196.51,7.68,245.9,1.41,258.41-.17,271.2.46,286.35,0c-6.56,14.43-15.06,23.12-24.88,30.37-28,20.64-58,37.56-90.89,49.15-5,1.77-10.69,1.61-16.07,2.34Zm68.49-37.25c.47-.1,1.12-.05,1.37-.34a6.31,6.31,0,0,0,.72-1.74l1.18-.52-.86.94ZM202,54.56l1.3-1.42,1.27-.58-1,1Zm59.32-32.9-4.53,3.75L243.5,32.33,239,36.08l-2.58,1.73c.5-.09,1.18,0,1.44-.29a6.89,6.89,0,0,0,.83-1.82L243.18,32q6.65-3.45,13.27-6.92L261,21.25l4.54-3.73,1.74-1.11-1.4,1.52ZM205.78,40.55l-.8.58-8.83,3.29-12.79,2.89-8.8,3.3L161.7,53.52c-5.75.36-12.18-4.05-17,2.46-17,1.34-34.08,2.53-51.1,4.06a256.71,256.71,0,0,0-26.35,3.89c26.24,2.58,52.19,2.12,77.19-8.34,5.7-.63,12.24,4.57,17-2.48l12.87-2.88,8.8-3.32L195.84,44l8.83-3.33Zm-38.84.61,12.85-2.91c8.29,1.77,15.61.25,21.45-6.3l6.77-.21c-.34-.89-.69-1.78-1-2.66q-2.74,1.62-5.47,3.26c-8-.8-15.52.08-21.5,6.24l-12.86,2.9L154.3,44.39l-12.93,2.9-10.32-.47c4.28,5.62,7.3,4.45,10,.06,4.62.39,9.83,3.52,13-2.82C158.74,44.79,163.82,47.35,166.94,41.16Zm-58.89,2.48,19.51-2.52c-7.72-4.84-14-3-19.25,2.9L95.42,46.89l-13,2.86c-10.48-1.32-20.59-.58-29.7,5.49l-10.1-.3L43,57.29l9.46-2.47c10.41.94,20.73,1.35,29.75-5.41l12.93-2.89ZM57.77,72.42c-.12,1.21-.24,2.41-.37,3.61,15.57,1.56,31.14,3.22,46.73,4.51,1.44.11,3.09-2.17,4.64-3.35l13.51,1.36L122,74.88l-13,2.67Zm-12-8.17c0,.35-.07.7-.11,1l7.21.72L53,65Zm92.18.67a9.75,9.75,0,0,0,1.94,1.82c.27.14,1-.66,1.58-1l-1.62-1.17ZM220,27.11a6.52,6.52,0,0,0-1.85-.55c0,.74,0,1.47,0,2.21l1.9-.36C220,28,220.19,27.23,220,27.11Z"/></g></g></svg>
