<svg class="hoja3" xmlns="http://www.w3.org/2000/svg" viewBox="0 0 202.59 258.06"><defs><style>.cls-1{fill:#b45927;}</style></defs><title>hojas3</title><g id="Capa_2" data-name="Capa 2"><g id="Layer_1" data-name="Layer 1"><path class="cls-1" d="M70.13,37.59l1.79.53c0-1.55,0-3.1,0-4.65,2.28,2.55,5.06,4.81,6.75,7.7,12,20.62,11.73,43.55,12.35,66.37.45,16.91,1.61,33.8,2.46,50.69,5.23-10.68,8.37-21.38,11-32.21a247.4,247.4,0,0,1,21.63-57c5.31-10.11,11.4-20.39,23.77-25,5.8,9.72,2.9,19.54,2.52,28.89-1.18,29.67-13.08,55.17-32.12,77.51-7.25,8.51-15.05,16.56-22.43,25-2,2.26-4.29,4.92-4.79,7.7-2.1,11.78-3.58,23.68-5.48,36.86,3.24-.8,5.18-1,6.85-1.76,9.9-4.63,14.46-14,19.67-22.72,18.55-31,43.5-54.95,76.88-69.5,3.41-1.49,7.27-1.9,11.63-3-7.57,47-31.85,71.72-71.2,87.72C116,217,99,219.46,85.76,228.63c-6.5,10.1-5.11,23.27-17.69,29.43,4-12.78,8.05-25.56,11.74-37.29-7.64-11.45-15-21.8-21.64-32.62-6.13-10-12.66-19.41-20.86-28C26,148.26,18.25,133.72,13.39,118,9.34,104.83,5.54,91.63,2.23,78.31.84,72.75-2.22,66.7,2.66,60.24,17.2,66.29,26.78,77,34.17,90c11.78,20.79,17,43.43,19,67,1.73,20.92,15.16,35.43,27.89,50.83,2.78-12.39,3.87-24.45,5.3-36.48,2.9-24.57-1.61-46-17.32-66.88-21.82-29-33-64-47.24-97.22-.67-1.57.17-3.8.42-7.31,7.54,3,14.63,4.69,20.45,8.38,11,7,23.53,12.46,29.58,25.31Q71.19,35.64,70.13,37.59Zm73.14,143.24,5.64-3.82,2.62-3.53,6.26-1,.52,3.36-1.09.93.75-1.15,2.61-3.55,5.59-3.85,2.56-3.5,2.58-3.48c2.62-1.35,2.17-2.24-.41-2.83q1.07-3.34,2.15-6.69l2.62-3.48L186,140.61c-5.78-.05-9.21,2.53-10.14,7.79l-2.55,3.53c-4.42.57-7.54,2.6-8.2,7.36l-2.55,3.55-6.32.95-.5-3.28c.85-1.17,1.71-2.33,2.56-3.49l2.55-3.51.73-.56-.42.8-2.55,3.5L156,160.74c-2.61,1.37-1.86,2.18.46,2.74l-4.71,10.2-2.56,3.55-5.65,3.82-2.6,3.57-1,1,.69-1.25Zm-8.48-2.62-.78,1.25L131.44,183l-2.6,3.47-1,1c.08-.15.38-.71.67-1.27l2.6-3.46,2.56-3.5Zm-11.51-64.37c.06-.13.34-.74.63-1.35l2-6.47,2-1.25-1.72,1.5-2,6.46Zm5.22-33q1-3.23,2.06-6.46c.47-.45.94-.9,1.09-1-.11.16-.44.71-.78,1.27l-2.07,6.45-2.65,3.51-2.1,6.49L119.3,101c-.69,2.21-1.37,4.42-2.06,6.64l-2.1,6.45-1,1,.67-1.28q1-3.21,2.09-6.42l2.07-6.62c4.29-2,5.45-5.5,4.81-9.88l2-6.56ZM69.27,55.64l4.41,8.65q.87,3.63,1.75,7.26l1.42-.62q-1.71-3.18-3.44-6.34l-4.35-8.7-4-5.56c-.46-1.5-.93-3-1.4-4.51L62.14,47l3.21,3.06ZM137.35,109c-.29.17-.72.27-.83.52a5.56,5.56,0,0,0-.25,1.43c-.7,2.15-1.39,4.31-2.09,6.46l-2.65,3.5-4.65,10-2.64,3.51-4.6,10-1.13.94.83-1.19,4.62-10,2.65-3.49c4-2.16,5.58-5.5,4.63-10l2.66-3.49,2.07-6.48ZM54.58,60.92,59,69.57c1,6.7,2.31,13.27,8.75,17.21L72,95.41l1,1-1.26-.74q-.68-4.68-1.36-9.36l6.67,4.3c-3.64-9.24-6.1-18-12.76-24.78L60,57.24l-1.74-1.49c.16.35.23.89.5,1a4.35,4.35,0,0,0,1.46.15c.67,3.29-.78,7.64,4.34,8.7L66.4,78l-7.69-8.17q-2.18-4.32-4.37-8.64T50,52.58c-.43-1.5-.86-3-1.3-4.5l-1.47,1,3,3.2Zm-17.45,66c1-7.23,1.63-11-2.91-13.12l-1-6.92-2.29,1,3.57,5.63ZM79.48,53l.09,5.18,2.06-.77Zm-3.23-7.79L74.78,45a5.82,5.82,0,0,0,.42,1.34c.12.18.58.14.88.2Zm-48.79,55.7.8-.12-.49-3.32-.8.12Zm-4.19-11.6a12.32,12.32,0,0,0-.65,1.88c0,.14.6.39.92.6.12-.43.25-.85.38-1.28Z"/></g></g></svg>
