<?xml version="1.0" encoding="utf-8"?>
<!-- Generator: Adobe Illustrator 19.2.0, SVG Export Plug-In . SVG Version: 6.00 Build 0)  -->
<svg version="1.1" id="Capa_1" xmlns="http://www.w3.org/2000/svg" xmlns:xlink="http://www.w3.org/1999/xlink" x="0px" y="0px"
	 viewBox="0 0 86 30" style="enable-background:new 0 0 86 30;" xml:space="preserve">
<g>
	<path d="M8.2,12.3c-0.9,0-2.5,0-2.7,0.4c-0.4,0.7-0.4,2.8-0.4,2.9c0,5.9,3.2,8.7,8,8.7c2.5,0,4.1-0.7,5.7-1.6
		c0.2-0.2,1.2-0.9,1.4-0.9c0.3,0,0.3,0.4,0.3,0.5c0,0-0.2,2.8-0.7,3.3c-0.6,0.6-4,2.4-7.7,2.4C6.7,28,0.9,24.4,0.9,16.1
		c0-5.9,2.8-13.9,11.7-13.9c3.7,0,5.3,1.4,6.1,2.5c1.5,1.9,1.9,4.2,1.9,5.5c0,2.2-0.8,2.1-2.7,2.1H8.2z M6.4,9.7
		c0,0.4,0,0.5,1.3,0.5c0.2,0,3.8-0.1,7.2-0.6c1.9-0.2,2.1-0.6,2.1-1.2c0-1.2-1.3-3.7-4.6-3.7C8.8,4.8,6.4,7.7,6.4,9.7z"/>
	<path d="M33.5,2.2c0.1,0,0.7-0.2,0.9-0.2c0.9,0,0.9,1.5,0.9,1.6v2.4c0,1.3,0,1.4,0.5,1.4c0.3,0,1.2-1,1.6-1.5
		c1.9-2.1,2.3-2.3,2.8-2.6c1.2-0.7,3-1.2,4.8-1.2c2.2,0,5.1,0.9,6.5,2.8c1.2,1.6,1.2,3.1,1.1,7.7v4.3c0,1.4,0,6.1,0.2,6.9
		c0.2,0.7,0.5,1.1,2.6,1.5c0.3,0,0.9,0.1,0.9,0.8v0.7c0,0.3-0.1,0.8-0.9,0.8c-0.4,0-1.3-0.2-5-0.2c-3.9,0-4.3,0.2-4.7,0.2
		c-0.7,0-0.7-0.4-0.7-0.8V26c0-0.6,0.2-0.6,1.5-1c1.1-0.3,1.8-0.5,2-1.4c0.3-1,0.3-5.5,0.3-6.9v-2.7c0-3.2-0.1-4.8-0.7-5.9
		c-0.7-1.3-2.1-2.4-4.5-2.4c-2.8,0-5,1.6-6.1,3.1c-1.3,1.7-1.3,3.7-1.3,6v4.7c0,0.8,0,3.6,0.1,4.2c0.2,1,1.4,1.3,2.3,1.4
		c0.6,0.1,1.3,0.2,1.3,0.9v0.7c0,0.2-0.1,0.8-0.8,0.8c-0.6,0-1.9-0.2-5-0.2c-3.1,0-4.2,0.2-4.7,0.2c-0.2,0-0.8,0-0.8-0.8V26
		c0-0.5,0.2-0.5,2.1-1.1c1.4-0.4,1.6-0.7,1.6-6v-5.2c0-1.8,0-6.7-1.2-7.7c-0.4-0.4-1.8-0.6-2.3-0.6c-0.3,0-0.8,0-0.8-0.8V3.8
		c0-0.5,0.3-0.6,0.9-0.7L33.5,2.2z"/>
	<path d="M72.9,28c-4,0-11.3-2.6-11.3-12.4c0-6.7,4.1-13.5,12.8-13.5c4.6,0,10.7,3.6,10.7,12.1C85.1,23.6,78.3,28,72.9,28z
		 M72.4,5.4c-3.8,0-6.7,3.9-6.7,9c0,6.9,4.6,10.4,8.2,10.4c3.1,0,7-2.3,7-8.7C80.9,10.9,78.2,5.4,72.4,5.4z"/>
</g>
</svg>
