<?xml version="1.0" encoding="utf-8"?>
<!-- Generator: Adobe Illustrator 19.2.0, SVG Export Plug-In . SVG Version: 6.00 Build 0)  -->
<svg version="1.1" id="Capa_1" xmlns="http://www.w3.org/2000/svg" xmlns:xlink="http://www.w3.org/1999/xlink" x="0px" y="0px"
	 viewBox="0 0 32 22" style="enable-background:new 0 0 32 22;" xml:space="preserve">
<path d="M27.7,3.9c-2.1-1.6-4.6-2.4-7.5-2.4c-3,0-5.5,0.8-7.6,2.4C10.4,5.6,9.2,7.6,9,10.1H0.8v1.3H9c0.1,2.7,1.3,5,3.5,6.7
	c2,1.6,4.6,2.3,7.6,2.3c3,0,5.5-0.8,7.6-2.3c2.4-1.8,3.5-4.2,3.5-7.1C31.2,8.1,30.1,5.8,27.7,3.9z M26.9,16.6
	c-1.7,1.4-4,2.1-6.8,2.1c-2.8,0-5.1-0.7-6.8-2.1c-1.6-1.3-2.5-3.1-2.6-5.2h4.8l0.1,0v3.8h9v-1.3H17v-2.5h5v-1.3h-5V7.9h7.2V6.6h-8.7
	v3.5l-0.1,0h-4.8c0.2-1.8,1.1-3.4,2.6-4.6c1.7-1.5,4-2.2,6.8-2.2c2.7,0,5,0.7,6.7,2.2c1.7,1.4,2.6,3.3,2.6,5.5
	C29.4,13.3,28.6,15.2,26.9,16.6z"/>
</svg>
