<?xml version="1.0" encoding="utf-8"?>
<!-- Generator: Adobe Illustrator 16.0.0, SVG Export Plug-In . SVG Version: 6.00 Build 0)  -->
<!DOCTYPE svg PUBLIC "-//W3C//DTD SVG 1.1//EN" "http://www.w3.org/Graphics/SVG/1.1/DTD/svg11.dtd">
<svg version="1.1" id="Capa_1" xmlns="http://www.w3.org/2000/svg" xmlns:xlink="http://www.w3.org/1999/xlink" x="0px" y="0px"
	 width="30.494px" height="19.75px" viewBox="0 0 30.494 19.75" enable-background="new 0 0 30.494 19.75" xml:space="preserve">
<path fill="#DEDACB" d="M26.917,2.812c-2.092-1.601-4.604-2.401-7.54-2.401c-2.953,0-5.476,0.801-7.567,2.401
	C9.672,4.439,8.492,6.5,8.271,8.995H0v1.281h8.24c0.104,2.748,1.285,4.987,3.542,6.717c2.036,1.564,4.568,2.344,7.595,2.344
	c3.028,0,5.549-0.779,7.567-2.344c2.366-1.832,3.55-4.207,3.55-7.12C30.494,7,29.302,4.644,26.917,2.812z M26.135,15.449
	c-1.706,1.42-3.959,2.13-6.767,2.13c-2.828,0-5.101-0.71-6.816-2.13c-1.611-1.334-2.467-3.059-2.562-5.173h4.794l0.065,0.003v3.818
	h8.991v-1.282h-7.571v-2.531h5.032V8.999h-5.032V6.791h7.24V5.51h-8.66v3.488l-0.065-0.004h-4.755
	c0.205-1.818,1.062-3.356,2.574-4.614c1.749-1.454,4.004-2.182,6.766-2.182c2.74,0,4.978,0.723,6.714,2.165
	c1.737,1.442,2.606,3.279,2.606,5.507C28.688,12.171,27.837,14.031,26.135,15.449z"/>
</svg>
