<?xml version="1.0" encoding="utf-8"?>
<!-- Generator: Adobe Illustrator 19.2.0, SVG Export Plug-In . SVG Version: 6.00 Build 0)  -->
<svg version="1.1" id="Capa_1" xmlns="http://www.w3.org/2000/svg" xmlns:xlink="http://www.w3.org/1999/xlink" x="0px" y="0px"
	 viewBox="0 0 22 22" style="enable-background:new 0 0 22 22;" xml:space="preserve">
<path d="M4.2,1.8h13.6c1.3,0,2.4,1.1,2.4,2.4v13.6c0,1.3-1.1,2.4-2.4,2.4H4.2c-1.3,0-2.4-1.1-2.4-2.4V4.2C1.8,2.9,2.9,1.8,4.2,1.8z
	 M15.2,3.9c-0.5,0-0.8,0.4-0.8,0.8v2c0,0.5,0.4,0.8,0.8,0.8h2.1c0.5,0,0.8-0.4,0.8-0.8v-2c0-0.5-0.4-0.8-0.8-0.8H15.2z M18.1,9.6
	h-1.6c0.2,0.5,0.2,1,0.2,1.6c0,3-2.6,5.5-5.7,5.5c-3.1,0-5.7-2.5-5.7-5.5c0-0.5,0.1-1.1,0.2-1.6H3.9v7.7c0,0.4,0.3,0.7,0.7,0.7h12.8
	c0.4,0,0.7-0.3,0.7-0.7V9.6z M11,7.4C9,7.4,7.3,9,7.3,11c0,2,1.6,3.6,3.7,3.6c2,0,3.7-1.6,3.7-3.6C14.7,9,13.1,7.4,11,7.4z"/>
</svg>
