<?xml version="1.0" encoding="utf-8"?>
<!-- Generator: Adobe Illustrator 16.0.0, SVG Export Plug-In . SVG Version: 6.00 Build 0)  -->
<!DOCTYPE svg PUBLIC "-//W3C//DTD SVG 1.1//EN" "http://www.w3.org/Graphics/SVG/1.1/DTD/svg11.dtd">
<svg version="1.1" id="Capa_1" xmlns="http://www.w3.org/2000/svg" xmlns:xlink="http://www.w3.org/1999/xlink" x="0px" y="0px"
	 width="18.332px" height="18.329px" viewBox="0 0 18.332 18.329" enable-background="new 0 0 18.332 18.329" xml:space="preserve">
<path fill="#DEDACB" d="M2.354,0h13.625c1.295,0,2.353,1.059,2.353,2.354v13.625c0,1.295-1.058,2.351-2.353,2.351H2.354
	C1.06,18.329,0,17.273,0,15.979V2.354C0,1.059,1.06,0,2.354,0z M13.354,2.037c-0.452,0-0.824,0.37-0.824,0.824v1.976
	c0,0.454,0.372,0.824,0.824,0.824h2.073c0.453,0,0.825-0.37,0.825-0.824V2.861c0-0.454-0.372-0.824-0.825-0.824H13.354z
	 M16.26,7.752h-1.612c0.152,0.499,0.235,1.025,0.235,1.574c0,3.047-2.554,5.52-5.701,5.52c-3.144,0-5.697-2.473-5.697-5.52
	c0-0.549,0.084-1.075,0.236-1.574H2.038v7.743c0,0.401,0.327,0.728,0.727,0.728H15.53c0.403,0,0.729-0.326,0.729-0.728V7.752z
	 M9.182,5.559c-2.031,0-3.68,1.596-3.68,3.567c0,1.97,1.648,3.565,3.68,3.565c2.035,0,3.684-1.596,3.684-3.565
	C12.865,7.154,11.217,5.559,9.182,5.559z"/>
</svg>
