<?xml version="1.0" encoding="utf-8"?>
<!-- Generator: Adobe Illustrator 19.2.0, SVG Export Plug-In . SVG Version: 6.00 Build 0)  -->
<svg version="1.1" id="Capa_1" xmlns="http://www.w3.org/2000/svg" xmlns:xlink="http://www.w3.org/1999/xlink" x="0px" y="0px"
	 viewBox="0 0 775.4 20.1" style="enable-background:new 0 0 775.4 20.1;" xml:space="preserve">
<style type="text/css">
	.st0{fill:#221F1F;}
</style>
<g>
	<g>
		<g>
			<polygon class="st0" points="0,20.1 -0.6,19.5 -0.6,20.1 			"/>
			<polygon class="st0" points="12.2,20.1 13.9,20.1 13.1,19.3 			"/>
			<polygon class="st0" points="81.9,20.1 83.6,20.1 82.7,19.3 			"/>
			<polygon class="st0" points="96.4,20.1 96.4,19.6 95.8,20.1 			"/>
			<polygon class="st0" points="26.1,20.1 27.9,20.1 27,19.3 			"/>
			<polygon class="st0" points="67.9,20.1 69.6,20.1 68.8,19.3 			"/>
			<polygon class="st0" points="40.1,20.1 41.8,20.1 40.9,19.3 			"/>
			<polygon class="st0" points="54,20.1 55.7,20.1 54.9,19.3 			"/>
			<polygon class="st0" points="82.7,16.3 86.9,20.1 88,20.1 82.7,15.3 77.4,20.1 78.5,20.1 			"/>
			<polygon class="st0" points="4.5,20.1 -0.6,15.5 -0.6,16.5 3.4,20.1 			"/>
			<polygon class="st0" points="92.4,20.1 96.4,16.5 96.4,15.5 91.3,20.1 			"/>
			<polygon class="st0" points="54.9,16.3 59.1,20.1 60.2,20.1 54.9,15.3 49.5,20.1 50.6,20.1 			"/>
			<polygon class="st0" points="40.9,16.3 45.2,20.1 46.3,20.1 40.9,15.3 35.6,20.1 36.7,20.1 			"/>
			<polygon class="st0" points="13.1,16.3 17.3,20.1 18.4,20.1 13.1,15.3 7.7,20.1 8.8,20.1 			"/>
			<polygon class="st0" points="27,16.3 31.2,20.1 32.3,20.1 27,15.3 21.7,20.1 22.8,20.1 			"/>
			<polygon class="st0" points="68.8,16.3 73,20.1 74.1,20.1 68.8,15.3 63.5,20.1 64.5,20.1 			"/>
			<polygon class="st0" points="13.1,12.3 20,18.5 27,12.3 34,18.5 40.9,12.3 47.9,18.5 54.9,12.3 61.8,18.5 68.8,12.3 75.7,18.5 
				82.7,12.3 89.7,18.5 96.4,12.5 96.4,11.5 89.7,17.6 82.7,11.3 75.7,17.6 68.8,11.3 61.8,17.6 54.9,11.3 47.9,17.6 40.9,11.3 
				34,17.6 27,11.3 20,17.6 13.1,11.3 6.1,17.6 -0.6,11.5 -0.6,12.5 6.1,18.5 			"/>
			<polygon class="st0" points="13.1,8.3 20,14.5 27,8.3 34,14.5 40.9,8.3 47.9,14.5 54.9,8.3 61.8,14.5 68.8,8.3 75.7,14.5 
				82.7,8.3 89.7,14.5 96.4,8.5 96.4,7.5 89.7,13.5 82.7,7.3 75.7,13.5 68.8,7.3 61.8,13.5 54.9,7.3 47.9,13.5 40.9,7.3 34,13.5 
				27,7.3 20,13.5 13.1,7.3 6.1,13.5 -0.6,7.5 -0.6,8.5 6.1,14.5 			"/>
			<polygon class="st0" points="13.1,4.2 20,10.5 27,4.2 34,10.5 40.9,4.2 47.9,10.5 54.9,4.2 61.8,10.5 68.8,4.2 75.7,10.5 
				82.7,4.2 89.7,10.5 96.4,4.5 96.4,3.5 89.7,9.5 82.7,3.3 75.7,9.5 68.8,3.3 61.8,9.5 54.9,3.3 47.9,9.5 40.9,3.3 34,9.5 27,3.3 
				20,9.5 13.1,3.3 6.1,9.5 -0.6,3.5 -0.6,4.5 6.1,10.5 			"/>
			<polygon class="st0" points="13.1,0.2 20,6.5 27,0.2 34,6.5 40.9,0.2 47.9,6.5 54.9,0.2 61.8,6.5 68.8,0.2 75.7,6.5 82.7,0.2 
				89.7,6.5 96.4,0.4 96.4,0 95.8,0 89.7,5.5 83.6,0 81.9,0 75.7,5.5 69.6,0 67.9,0 61.8,5.5 55.7,0 54,0 47.9,5.5 41.8,0 40.1,0 
				34,5.5 27.9,0 26.1,0 20,5.5 13.9,0 12.2,0 6.1,5.5 0,0 -0.6,0 -0.6,0.4 6.1,6.5 			"/>
			<polygon class="st0" points="20,2.4 22.7,0 21.6,0 20,1.5 18.4,0 17.3,0 			"/>
			<polygon class="st0" points="89.7,2.4 92.4,0 91.3,0 89.7,1.5 88.1,0 87,0 			"/>
			<polygon class="st0" points="75.7,2.4 78.5,0 77.4,0 75.7,1.5 74.1,0 73,0 			"/>
			<polygon class="st0" points="8.8,0 7.7,0 6.1,1.5 4.5,0 3.4,0 6.1,2.4 			"/>
			<polygon class="st0" points="47.9,2.4 50.6,0 49.5,0 47.9,1.5 46.3,0 45.2,0 			"/>
			<polygon class="st0" points="61.8,2.4 64.5,0 63.4,0 61.8,1.5 60.2,0 59.1,0 			"/>
			<polygon class="st0" points="34,2.4 36.7,0 35.6,0 34,1.5 32.3,0 31.3,0 			"/>
		</g>
	</g>
	<g>
		<g>
			<polygon class="st0" points="97,20.1 96.4,19.5 96.4,20.1 			"/>
			<polygon class="st0" points="109.2,20.1 110.9,20.1 110.1,19.3 			"/>
			<polygon class="st0" points="178.9,20.1 180.6,20.1 179.7,19.3 			"/>
			<polygon class="st0" points="193.4,20.1 193.4,19.6 192.8,20.1 			"/>
			<polygon class="st0" points="123.1,20.1 124.9,20.1 124,19.3 			"/>
			<polygon class="st0" points="164.9,20.1 166.6,20.1 165.8,19.3 			"/>
			<polygon class="st0" points="137.1,20.1 138.8,20.1 137.9,19.3 			"/>
			<polygon class="st0" points="151,20.1 152.7,20.1 151.9,19.3 			"/>
			<polygon class="st0" points="179.7,16.3 183.9,20.1 185,20.1 179.7,15.3 174.4,20.1 175.5,20.1 			"/>
			<polygon class="st0" points="101.5,20.1 96.4,15.5 96.4,16.5 100.4,20.1 			"/>
			<polygon class="st0" points="189.4,20.1 193.4,16.5 193.4,15.5 188.3,20.1 			"/>
			<polygon class="st0" points="151.9,16.3 156.1,20.1 157.2,20.1 151.9,15.3 146.5,20.1 147.6,20.1 			"/>
			<polygon class="st0" points="137.9,16.3 142.2,20.1 143.3,20.1 137.9,15.3 132.6,20.1 133.7,20.1 			"/>
			<polygon class="st0" points="110.1,16.3 114.3,20.1 115.4,20.1 110.1,15.3 104.7,20.1 105.8,20.1 			"/>
			<polygon class="st0" points="124,16.3 128.2,20.1 129.3,20.1 124,15.3 118.7,20.1 119.8,20.1 			"/>
			<polygon class="st0" points="165.8,16.3 170,20.1 171.1,20.1 165.8,15.3 160.5,20.1 161.5,20.1 			"/>
			<polygon class="st0" points="110.1,12.3 117,18.5 124,12.3 131,18.5 137.9,12.3 144.9,18.5 151.9,12.3 158.8,18.5 165.8,12.3 
				172.7,18.5 179.7,12.3 186.7,18.5 193.4,12.5 193.4,11.5 186.7,17.6 179.7,11.3 172.7,17.6 165.8,11.3 158.8,17.6 151.9,11.3 
				144.9,17.6 137.9,11.3 131,17.6 124,11.3 117,17.6 110.1,11.3 103.1,17.6 96.4,11.5 96.4,12.5 103.1,18.5 			"/>
			<polygon class="st0" points="110.1,8.3 117,14.5 124,8.3 131,14.5 137.9,8.3 144.9,14.5 151.9,8.3 158.8,14.5 165.8,8.3 
				172.7,14.5 179.7,8.3 186.7,14.5 193.4,8.5 193.4,7.5 186.7,13.5 179.7,7.3 172.7,13.5 165.8,7.3 158.8,13.5 151.9,7.3 
				144.9,13.5 137.9,7.3 131,13.5 124,7.3 117,13.5 110.1,7.3 103.1,13.5 96.4,7.5 96.4,8.5 103.1,14.5 			"/>
			<polygon class="st0" points="110.1,4.2 117,10.5 124,4.2 131,10.5 137.9,4.2 144.9,10.5 151.9,4.2 158.8,10.5 165.8,4.2 
				172.7,10.5 179.7,4.2 186.7,10.5 193.4,4.5 193.4,3.5 186.7,9.5 179.7,3.3 172.7,9.5 165.8,3.3 158.8,9.5 151.9,3.3 144.9,9.5 
				137.9,3.3 131,9.5 124,3.3 117,9.5 110.1,3.3 103.1,9.5 96.4,3.5 96.4,4.5 103.1,10.5 			"/>
			<polygon class="st0" points="110.1,0.2 117,6.5 124,0.2 131,6.5 137.9,0.2 144.9,6.5 151.9,0.2 158.8,6.5 165.8,0.2 172.7,6.5 
				179.7,0.2 186.7,6.5 193.4,0.4 193.4,0 192.8,0 186.7,5.5 180.6,0 178.9,0 172.7,5.5 166.6,0 164.9,0 158.8,5.5 152.7,0 151,0 
				144.9,5.5 138.8,0 137.1,0 131,5.5 124.9,0 123.1,0 117,5.5 110.9,0 109.2,0 103.1,5.5 97,0 96.4,0 96.4,0.4 103.1,6.5 			"/>
			<polygon class="st0" points="117,2.4 119.7,0 118.6,0 117,1.5 115.4,0 114.3,0 			"/>
			<polygon class="st0" points="186.7,2.4 189.4,0 188.3,0 186.7,1.5 185.1,0 184,0 			"/>
			<polygon class="st0" points="172.7,2.4 175.5,0 174.4,0 172.7,1.5 171.1,0 170,0 			"/>
			<polygon class="st0" points="105.8,0 104.7,0 103.1,1.5 101.5,0 100.4,0 103.1,2.4 			"/>
			<polygon class="st0" points="144.9,2.4 147.6,0 146.5,0 144.9,1.5 143.3,0 142.2,0 			"/>
			<polygon class="st0" points="158.8,2.4 161.5,0 160.4,0 158.8,1.5 157.2,0 156.1,0 			"/>
			<polygon class="st0" points="131,2.4 133.7,0 132.6,0 131,1.5 129.3,0 128.3,0 			"/>
		</g>
	</g>
	<g>
		<g>
			<polygon class="st0" points="194,20.1 193.4,19.5 193.4,20.1 			"/>
			<polygon class="st0" points="206.2,20.1 207.9,20.1 207.1,19.3 			"/>
			<polygon class="st0" points="275.9,20.1 277.6,20.1 276.7,19.3 			"/>
			<polygon class="st0" points="290.4,20.1 290.4,19.6 289.8,20.1 			"/>
			<polygon class="st0" points="220.1,20.1 221.9,20.1 221,19.3 			"/>
			<polygon class="st0" points="261.9,20.1 263.6,20.1 262.8,19.3 			"/>
			<polygon class="st0" points="234.1,20.1 235.8,20.1 234.9,19.3 			"/>
			<polygon class="st0" points="248,20.1 249.7,20.1 248.9,19.3 			"/>
			<polygon class="st0" points="276.7,16.3 280.9,20.1 282,20.1 276.7,15.3 271.4,20.1 272.5,20.1 			"/>
			<polygon class="st0" points="198.5,20.1 193.4,15.5 193.4,16.5 197.4,20.1 			"/>
			<polygon class="st0" points="286.4,20.1 290.4,16.5 290.4,15.5 285.3,20.1 			"/>
			<polygon class="st0" points="248.9,16.3 253.1,20.1 254.2,20.1 248.9,15.3 243.5,20.1 244.6,20.1 			"/>
			<polygon class="st0" points="234.9,16.3 239.2,20.1 240.3,20.1 234.9,15.3 229.6,20.1 230.7,20.1 			"/>
			<polygon class="st0" points="207.1,16.3 211.3,20.1 212.4,20.1 207.1,15.3 201.7,20.1 202.8,20.1 			"/>
			<polygon class="st0" points="221,16.3 225.2,20.1 226.3,20.1 221,15.3 215.7,20.1 216.8,20.1 			"/>
			<polygon class="st0" points="262.8,16.3 267,20.1 268.1,20.1 262.8,15.3 257.5,20.1 258.5,20.1 			"/>
			<polygon class="st0" points="207.1,12.3 214,18.5 221,12.3 228,18.5 234.9,12.3 241.9,18.5 248.9,12.3 255.8,18.5 262.8,12.3 
				269.7,18.5 276.7,12.3 283.7,18.5 290.4,12.5 290.4,11.5 283.7,17.6 276.7,11.3 269.7,17.6 262.8,11.3 255.8,17.6 248.9,11.3 
				241.9,17.6 234.9,11.3 228,17.6 221,11.3 214,17.6 207.1,11.3 200.1,17.6 193.4,11.5 193.4,12.5 200.1,18.5 			"/>
			<polygon class="st0" points="207.1,8.3 214,14.5 221,8.3 228,14.5 234.9,8.3 241.9,14.5 248.9,8.3 255.8,14.5 262.8,8.3 
				269.7,14.5 276.7,8.3 283.7,14.5 290.4,8.5 290.4,7.5 283.7,13.5 276.7,7.3 269.7,13.5 262.8,7.3 255.8,13.5 248.9,7.3 
				241.9,13.5 234.9,7.3 228,13.5 221,7.3 214,13.5 207.1,7.3 200.1,13.5 193.4,7.5 193.4,8.5 200.1,14.5 			"/>
			<polygon class="st0" points="207.1,4.2 214,10.5 221,4.2 228,10.5 234.9,4.2 241.9,10.5 248.9,4.2 255.8,10.5 262.8,4.2 
				269.7,10.5 276.7,4.2 283.7,10.5 290.4,4.5 290.4,3.5 283.7,9.5 276.7,3.3 269.7,9.5 262.8,3.3 255.8,9.5 248.9,3.3 241.9,9.5 
				234.9,3.3 228,9.5 221,3.3 214,9.5 207.1,3.3 200.1,9.5 193.4,3.5 193.4,4.5 200.1,10.5 			"/>
			<polygon class="st0" points="207.1,0.2 214,6.5 221,0.2 228,6.5 234.9,0.2 241.9,6.5 248.9,0.2 255.8,6.5 262.8,0.2 269.7,6.5 
				276.7,0.2 283.7,6.5 290.4,0.4 290.4,0 289.8,0 283.7,5.5 277.6,0 275.9,0 269.7,5.5 263.6,0 261.9,0 255.8,5.5 249.7,0 248,0 
				241.9,5.5 235.8,0 234.1,0 228,5.5 221.9,0 220.1,0 214,5.5 207.9,0 206.2,0 200.1,5.5 194,0 193.4,0 193.4,0.4 200.1,6.5 			"/>
			<polygon class="st0" points="214,2.4 216.7,0 215.6,0 214,1.5 212.4,0 211.3,0 			"/>
			<polygon class="st0" points="283.7,2.4 286.4,0 285.3,0 283.7,1.5 282.1,0 281,0 			"/>
			<polygon class="st0" points="269.7,2.4 272.5,0 271.4,0 269.7,1.5 268.1,0 267,0 			"/>
			<polygon class="st0" points="202.8,0 201.7,0 200.1,1.5 198.5,0 197.4,0 200.1,2.4 			"/>
			<polygon class="st0" points="241.9,2.4 244.6,0 243.5,0 241.9,1.5 240.3,0 239.2,0 			"/>
			<polygon class="st0" points="255.8,2.4 258.5,0 257.4,0 255.8,1.5 254.2,0 253.1,0 			"/>
			<polygon class="st0" points="228,2.4 230.7,0 229.6,0 228,1.5 226.3,0 225.3,0 			"/>
		</g>
	</g>
	<g>
		<g>
			<polygon class="st0" points="291,20.1 290.4,19.5 290.4,20.1 			"/>
			<polygon class="st0" points="303.2,20.1 304.9,20.1 304.1,19.3 			"/>
			<polygon class="st0" points="372.9,20.1 374.6,20.1 373.7,19.3 			"/>
			<polygon class="st0" points="387.4,20.1 387.4,19.6 386.8,20.1 			"/>
			<polygon class="st0" points="317.1,20.1 318.9,20.1 318,19.3 			"/>
			<polygon class="st0" points="358.9,20.1 360.6,20.1 359.8,19.3 			"/>
			<polygon class="st0" points="331.1,20.1 332.8,20.1 331.9,19.3 			"/>
			<polygon class="st0" points="345,20.1 346.7,20.1 345.9,19.3 			"/>
			<polygon class="st0" points="373.7,16.3 377.9,20.1 379,20.1 373.7,15.3 368.4,20.1 369.5,20.1 			"/>
			<polygon class="st0" points="295.5,20.1 290.4,15.5 290.4,16.5 294.4,20.1 			"/>
			<polygon class="st0" points="383.4,20.1 387.4,16.5 387.4,15.5 382.3,20.1 			"/>
			<polygon class="st0" points="345.9,16.3 350.1,20.1 351.2,20.1 345.9,15.3 340.5,20.1 341.6,20.1 			"/>
			<polygon class="st0" points="331.9,16.3 336.2,20.1 337.3,20.1 331.9,15.3 326.6,20.1 327.7,20.1 			"/>
			<polygon class="st0" points="304.1,16.3 308.3,20.1 309.4,20.1 304.1,15.3 298.7,20.1 299.8,20.1 			"/>
			<polygon class="st0" points="318,16.3 322.2,20.1 323.3,20.1 318,15.3 312.7,20.1 313.8,20.1 			"/>
			<polygon class="st0" points="359.8,16.3 364,20.1 365.1,20.1 359.8,15.3 354.5,20.1 355.5,20.1 			"/>
			<polygon class="st0" points="304.1,12.3 311,18.5 318,12.3 325,18.5 331.9,12.3 338.9,18.5 345.9,12.3 352.8,18.5 359.8,12.3 
				366.7,18.5 373.7,12.3 380.7,18.5 387.4,12.5 387.4,11.5 380.7,17.6 373.7,11.3 366.7,17.6 359.8,11.3 352.8,17.6 345.9,11.3 
				338.9,17.6 331.9,11.3 325,17.6 318,11.3 311,17.6 304.1,11.3 297.1,17.6 290.4,11.5 290.4,12.5 297.1,18.5 			"/>
			<polygon class="st0" points="304.1,8.3 311,14.5 318,8.3 325,14.5 331.9,8.3 338.9,14.5 345.9,8.3 352.8,14.5 359.8,8.3 
				366.7,14.5 373.7,8.3 380.7,14.5 387.4,8.5 387.4,7.5 380.7,13.5 373.7,7.3 366.7,13.5 359.8,7.3 352.8,13.5 345.9,7.3 
				338.9,13.5 331.9,7.3 325,13.5 318,7.3 311,13.5 304.1,7.3 297.1,13.5 290.4,7.5 290.4,8.5 297.1,14.5 			"/>
			<polygon class="st0" points="304.1,4.2 311,10.5 318,4.2 325,10.5 331.9,4.2 338.9,10.5 345.9,4.2 352.8,10.5 359.8,4.2 
				366.7,10.5 373.7,4.2 380.7,10.5 387.4,4.5 387.4,3.5 380.7,9.5 373.7,3.3 366.7,9.5 359.8,3.3 352.8,9.5 345.9,3.3 338.9,9.5 
				331.9,3.3 325,9.5 318,3.3 311,9.5 304.1,3.3 297.1,9.5 290.4,3.5 290.4,4.5 297.1,10.5 			"/>
			<polygon class="st0" points="304.1,0.2 311,6.5 318,0.2 325,6.5 331.9,0.2 338.9,6.5 345.9,0.2 352.8,6.5 359.8,0.2 366.7,6.5 
				373.7,0.2 380.7,6.5 387.4,0.4 387.4,0 386.8,0 380.7,5.5 374.6,0 372.9,0 366.7,5.5 360.6,0 358.9,0 352.8,5.5 346.7,0 345,0 
				338.9,5.5 332.8,0 331.1,0 325,5.5 318.9,0 317.1,0 311,5.5 304.9,0 303.2,0 297.1,5.5 291,0 290.4,0 290.4,0.4 297.1,6.5 			"/>
			<polygon class="st0" points="311,2.4 313.7,0 312.6,0 311,1.5 309.4,0 308.3,0 			"/>
			<polygon class="st0" points="380.7,2.4 383.4,0 382.3,0 380.7,1.5 379.1,0 378,0 			"/>
			<polygon class="st0" points="366.7,2.4 369.5,0 368.4,0 366.7,1.5 365.1,0 364,0 			"/>
			<polygon class="st0" points="299.8,0 298.7,0 297.1,1.5 295.5,0 294.4,0 297.1,2.4 			"/>
			<polygon class="st0" points="338.9,2.4 341.6,0 340.5,0 338.9,1.5 337.3,0 336.2,0 			"/>
			<polygon class="st0" points="352.8,2.4 355.5,0 354.4,0 352.8,1.5 351.2,0 350.1,0 			"/>
			<polygon class="st0" points="325,2.4 327.7,0 326.6,0 325,1.5 323.3,0 322.3,0 			"/>
		</g>
	</g>
	<g>
		<g>
			<polygon class="st0" points="388,20.1 387.4,19.5 387.4,20.1 			"/>
			<polygon class="st0" points="400.2,20.1 401.9,20.1 401.1,19.3 			"/>
			<polygon class="st0" points="469.9,20.1 471.6,20.1 470.7,19.3 			"/>
			<polygon class="st0" points="484.4,20.1 484.4,19.6 483.8,20.1 			"/>
			<polygon class="st0" points="414.1,20.1 415.9,20.1 415,19.3 			"/>
			<polygon class="st0" points="455.9,20.1 457.6,20.1 456.8,19.3 			"/>
			<polygon class="st0" points="428.1,20.1 429.8,20.1 428.9,19.3 			"/>
			<polygon class="st0" points="442,20.1 443.7,20.1 442.9,19.3 			"/>
			<polygon class="st0" points="470.7,16.3 474.9,20.1 476,20.1 470.7,15.3 465.4,20.1 466.5,20.1 			"/>
			<polygon class="st0" points="392.5,20.1 387.4,15.5 387.4,16.5 391.4,20.1 			"/>
			<polygon class="st0" points="480.4,20.1 484.4,16.5 484.4,15.5 479.3,20.1 			"/>
			<polygon class="st0" points="442.9,16.3 447.1,20.1 448.2,20.1 442.9,15.3 437.5,20.1 438.6,20.1 			"/>
			<polygon class="st0" points="428.9,16.3 433.2,20.1 434.3,20.1 428.9,15.3 423.6,20.1 424.7,20.1 			"/>
			<polygon class="st0" points="401.1,16.3 405.3,20.1 406.4,20.1 401.1,15.3 395.7,20.1 396.8,20.1 			"/>
			<polygon class="st0" points="415,16.3 419.2,20.1 420.3,20.1 415,15.3 409.7,20.1 410.8,20.1 			"/>
			<polygon class="st0" points="456.8,16.3 461,20.1 462.1,20.1 456.8,15.3 451.5,20.1 452.5,20.1 			"/>
			<polygon class="st0" points="401.1,12.3 408,18.5 415,12.3 422,18.5 428.9,12.3 435.9,18.5 442.9,12.3 449.8,18.5 456.8,12.3 
				463.7,18.5 470.7,12.3 477.7,18.5 484.4,12.5 484.4,11.5 477.7,17.6 470.7,11.3 463.7,17.6 456.8,11.3 449.8,17.6 442.9,11.3 
				435.9,17.6 428.9,11.3 422,17.6 415,11.3 408,17.6 401.1,11.3 394.1,17.6 387.4,11.5 387.4,12.5 394.1,18.5 			"/>
			<polygon class="st0" points="401.1,8.3 408,14.5 415,8.3 422,14.5 428.9,8.3 435.9,14.5 442.9,8.3 449.8,14.5 456.8,8.3 
				463.7,14.5 470.7,8.3 477.7,14.5 484.4,8.5 484.4,7.5 477.7,13.5 470.7,7.3 463.7,13.5 456.8,7.3 449.8,13.5 442.9,7.3 
				435.9,13.5 428.9,7.3 422,13.5 415,7.3 408,13.5 401.1,7.3 394.1,13.5 387.4,7.5 387.4,8.5 394.1,14.5 			"/>
			<polygon class="st0" points="401.1,4.2 408,10.5 415,4.2 422,10.5 428.9,4.2 435.9,10.5 442.9,4.2 449.8,10.5 456.8,4.2 
				463.7,10.5 470.7,4.2 477.7,10.5 484.4,4.5 484.4,3.5 477.7,9.5 470.7,3.3 463.7,9.5 456.8,3.3 449.8,9.5 442.9,3.3 435.9,9.5 
				428.9,3.3 422,9.5 415,3.3 408,9.5 401.1,3.3 394.1,9.5 387.4,3.5 387.4,4.5 394.1,10.5 			"/>
			<polygon class="st0" points="401.1,0.2 408,6.5 415,0.2 422,6.5 428.9,0.2 435.9,6.5 442.9,0.2 449.8,6.5 456.8,0.2 463.7,6.5 
				470.7,0.2 477.7,6.5 484.4,0.4 484.4,0 483.8,0 477.7,5.5 471.6,0 469.9,0 463.7,5.5 457.6,0 455.9,0 449.8,5.5 443.7,0 442,0 
				435.9,5.5 429.8,0 428.1,0 422,5.5 415.9,0 414.1,0 408,5.5 401.9,0 400.2,0 394.1,5.5 388,0 387.4,0 387.4,0.4 394.1,6.5 			"/>
			<polygon class="st0" points="408,2.4 410.7,0 409.6,0 408,1.5 406.4,0 405.3,0 			"/>
			<polygon class="st0" points="477.7,2.4 480.4,0 479.3,0 477.7,1.5 476.1,0 475,0 			"/>
			<polygon class="st0" points="463.7,2.4 466.5,0 465.4,0 463.7,1.5 462.1,0 461,0 			"/>
			<polygon class="st0" points="396.8,0 395.7,0 394.1,1.5 392.5,0 391.4,0 394.1,2.4 			"/>
			<polygon class="st0" points="435.9,2.4 438.6,0 437.5,0 435.9,1.5 434.3,0 433.2,0 			"/>
			<polygon class="st0" points="449.8,2.4 452.5,0 451.4,0 449.8,1.5 448.2,0 447.1,0 			"/>
			<polygon class="st0" points="422,2.4 424.7,0 423.6,0 422,1.5 420.3,0 419.3,0 			"/>
		</g>
	</g>
	<g>
		<g>
			<polygon class="st0" points="485,20.1 484.4,19.5 484.4,20.1 			"/>
			<polygon class="st0" points="497.2,20.1 498.9,20.1 498.1,19.3 			"/>
			<polygon class="st0" points="566.9,20.1 568.6,20.1 567.7,19.3 			"/>
			<polygon class="st0" points="581.4,20.1 581.4,19.6 580.8,20.1 			"/>
			<polygon class="st0" points="511.1,20.1 512.9,20.1 512,19.3 			"/>
			<polygon class="st0" points="552.9,20.1 554.6,20.1 553.8,19.3 			"/>
			<polygon class="st0" points="525.1,20.1 526.8,20.1 525.9,19.3 			"/>
			<polygon class="st0" points="539,20.1 540.7,20.1 539.9,19.3 			"/>
			<polygon class="st0" points="567.7,16.3 571.9,20.1 573,20.1 567.7,15.3 562.4,20.1 563.5,20.1 			"/>
			<polygon class="st0" points="489.5,20.1 484.4,15.5 484.4,16.5 488.4,20.1 			"/>
			<polygon class="st0" points="577.4,20.1 581.4,16.5 581.4,15.5 576.3,20.1 			"/>
			<polygon class="st0" points="539.9,16.3 544.1,20.1 545.2,20.1 539.9,15.3 534.5,20.1 535.6,20.1 			"/>
			<polygon class="st0" points="525.9,16.3 530.2,20.1 531.3,20.1 525.9,15.3 520.6,20.1 521.7,20.1 			"/>
			<polygon class="st0" points="498.1,16.3 502.3,20.1 503.4,20.1 498.1,15.3 492.7,20.1 493.8,20.1 			"/>
			<polygon class="st0" points="512,16.3 516.2,20.1 517.3,20.1 512,15.3 506.7,20.1 507.8,20.1 			"/>
			<polygon class="st0" points="553.8,16.3 558,20.1 559.1,20.1 553.8,15.3 548.5,20.1 549.5,20.1 			"/>
			<polygon class="st0" points="498.1,12.3 505,18.5 512,12.3 519,18.5 525.9,12.3 532.9,18.5 539.9,12.3 546.8,18.5 553.8,12.3 
				560.7,18.5 567.7,12.3 574.7,18.5 581.4,12.5 581.4,11.5 574.7,17.6 567.7,11.3 560.7,17.6 553.8,11.3 546.8,17.6 539.9,11.3 
				532.9,17.6 525.9,11.3 519,17.6 512,11.3 505,17.6 498.1,11.3 491.1,17.6 484.4,11.5 484.4,12.5 491.1,18.5 			"/>
			<polygon class="st0" points="498.1,8.3 505,14.5 512,8.3 519,14.5 525.9,8.3 532.9,14.5 539.9,8.3 546.8,14.5 553.8,8.3 
				560.7,14.5 567.7,8.3 574.7,14.5 581.4,8.5 581.4,7.5 574.7,13.5 567.7,7.3 560.7,13.5 553.8,7.3 546.8,13.5 539.9,7.3 
				532.9,13.5 525.9,7.3 519,13.5 512,7.3 505,13.5 498.1,7.3 491.1,13.5 484.4,7.5 484.4,8.5 491.1,14.5 			"/>
			<polygon class="st0" points="498.1,4.2 505,10.5 512,4.2 519,10.5 525.9,4.2 532.9,10.5 539.9,4.2 546.8,10.5 553.8,4.2 
				560.7,10.5 567.7,4.2 574.7,10.5 581.4,4.5 581.4,3.5 574.7,9.5 567.7,3.3 560.7,9.5 553.8,3.3 546.8,9.5 539.9,3.3 532.9,9.5 
				525.9,3.3 519,9.5 512,3.3 505,9.5 498.1,3.3 491.1,9.5 484.4,3.5 484.4,4.5 491.1,10.5 			"/>
			<polygon class="st0" points="498.1,0.2 505,6.5 512,0.2 519,6.5 525.9,0.2 532.9,6.5 539.9,0.2 546.8,6.5 553.8,0.2 560.7,6.5 
				567.7,0.2 574.7,6.5 581.4,0.4 581.4,0 580.8,0 574.7,5.5 568.6,0 566.9,0 560.7,5.5 554.6,0 552.9,0 546.8,5.5 540.7,0 539,0 
				532.9,5.5 526.8,0 525.1,0 519,5.5 512.9,0 511.1,0 505,5.5 498.9,0 497.2,0 491.1,5.5 485,0 484.4,0 484.4,0.4 491.1,6.5 			"/>
			<polygon class="st0" points="505,2.4 507.7,0 506.6,0 505,1.5 503.4,0 502.3,0 			"/>
			<polygon class="st0" points="574.7,2.4 577.4,0 576.3,0 574.7,1.5 573.1,0 572,0 			"/>
			<polygon class="st0" points="560.7,2.4 563.5,0 562.4,0 560.7,1.5 559.1,0 558,0 			"/>
			<polygon class="st0" points="493.8,0 492.7,0 491.1,1.5 489.5,0 488.4,0 491.1,2.4 			"/>
			<polygon class="st0" points="532.9,2.4 535.6,0 534.5,0 532.9,1.5 531.3,0 530.2,0 			"/>
			<polygon class="st0" points="546.8,2.4 549.5,0 548.4,0 546.8,1.5 545.2,0 544.1,0 			"/>
			<polygon class="st0" points="519,2.4 521.7,0 520.6,0 519,1.5 517.3,0 516.3,0 			"/>
		</g>
	</g>
	<g>
		<g>
			<polygon class="st0" points="582,20.1 581.4,19.5 581.4,20.1 			"/>
			<polygon class="st0" points="594.2,20.1 595.9,20.1 595.1,19.3 			"/>
			<polygon class="st0" points="663.9,20.1 665.6,20.1 664.7,19.3 			"/>
			<polygon class="st0" points="678.4,20.1 678.4,19.6 677.8,20.1 			"/>
			<polygon class="st0" points="608.1,20.1 609.9,20.1 609,19.3 			"/>
			<polygon class="st0" points="649.9,20.1 651.6,20.1 650.8,19.3 			"/>
			<polygon class="st0" points="622.1,20.1 623.8,20.1 622.9,19.3 			"/>
			<polygon class="st0" points="636,20.1 637.7,20.1 636.9,19.3 			"/>
			<polygon class="st0" points="664.7,16.3 668.9,20.1 670,20.1 664.7,15.3 659.4,20.1 660.5,20.1 			"/>
			<polygon class="st0" points="586.5,20.1 581.4,15.5 581.4,16.5 585.4,20.1 			"/>
			<polygon class="st0" points="674.4,20.1 678.4,16.5 678.4,15.5 673.3,20.1 			"/>
			<polygon class="st0" points="636.9,16.3 641.1,20.1 642.2,20.1 636.9,15.3 631.5,20.1 632.6,20.1 			"/>
			<polygon class="st0" points="622.9,16.3 627.2,20.1 628.3,20.1 622.9,15.3 617.6,20.1 618.7,20.1 			"/>
			<polygon class="st0" points="595.1,16.3 599.3,20.1 600.4,20.1 595.1,15.3 589.7,20.1 590.8,20.1 			"/>
			<polygon class="st0" points="609,16.3 613.2,20.1 614.3,20.1 609,15.3 603.7,20.1 604.8,20.1 			"/>
			<polygon class="st0" points="650.8,16.3 655,20.1 656.1,20.1 650.8,15.3 645.5,20.1 646.5,20.1 			"/>
			<polygon class="st0" points="595.1,12.3 602,18.5 609,12.3 616,18.5 622.9,12.3 629.9,18.5 636.9,12.3 643.8,18.5 650.8,12.3 
				657.7,18.5 664.7,12.3 671.7,18.5 678.4,12.5 678.4,11.5 671.7,17.6 664.7,11.3 657.7,17.6 650.8,11.3 643.8,17.6 636.9,11.3 
				629.9,17.6 622.9,11.3 616,17.6 609,11.3 602,17.6 595.1,11.3 588.1,17.6 581.4,11.5 581.4,12.5 588.1,18.5 			"/>
			<polygon class="st0" points="595.1,8.3 602,14.5 609,8.3 616,14.5 622.9,8.3 629.9,14.5 636.9,8.3 643.8,14.5 650.8,8.3 
				657.7,14.5 664.7,8.3 671.7,14.5 678.4,8.5 678.4,7.5 671.7,13.5 664.7,7.3 657.7,13.5 650.8,7.3 643.8,13.5 636.9,7.3 
				629.9,13.5 622.9,7.3 616,13.5 609,7.3 602,13.5 595.1,7.3 588.1,13.5 581.4,7.5 581.4,8.5 588.1,14.5 			"/>
			<polygon class="st0" points="595.1,4.2 602,10.5 609,4.2 616,10.5 622.9,4.2 629.9,10.5 636.9,4.2 643.8,10.5 650.8,4.2 
				657.7,10.5 664.7,4.2 671.7,10.5 678.4,4.5 678.4,3.5 671.7,9.5 664.7,3.3 657.7,9.5 650.8,3.3 643.8,9.5 636.9,3.3 629.9,9.5 
				622.9,3.3 616,9.5 609,3.3 602,9.5 595.1,3.3 588.1,9.5 581.4,3.5 581.4,4.5 588.1,10.5 			"/>
			<polygon class="st0" points="595.1,0.2 602,6.5 609,0.2 616,6.5 622.9,0.2 629.9,6.5 636.9,0.2 643.8,6.5 650.8,0.2 657.7,6.5 
				664.7,0.2 671.7,6.5 678.4,0.4 678.4,0 677.8,0 671.7,5.5 665.6,0 663.9,0 657.7,5.5 651.6,0 649.9,0 643.8,5.5 637.7,0 636,0 
				629.9,5.5 623.8,0 622.1,0 616,5.5 609.9,0 608.1,0 602,5.5 595.9,0 594.2,0 588.1,5.5 582,0 581.4,0 581.4,0.4 588.1,6.5 			"/>
			<polygon class="st0" points="602,2.4 604.7,0 603.6,0 602,1.5 600.4,0 599.3,0 			"/>
			<polygon class="st0" points="671.7,2.4 674.4,0 673.3,0 671.7,1.5 670.1,0 669,0 			"/>
			<polygon class="st0" points="657.7,2.4 660.5,0 659.4,0 657.7,1.5 656.1,0 655,0 			"/>
			<polygon class="st0" points="590.8,0 589.7,0 588.1,1.5 586.5,0 585.4,0 588.1,2.4 			"/>
			<polygon class="st0" points="629.9,2.4 632.6,0 631.5,0 629.9,1.5 628.3,0 627.2,0 			"/>
			<polygon class="st0" points="643.8,2.4 646.5,0 645.4,0 643.8,1.5 642.2,0 641.1,0 			"/>
			<polygon class="st0" points="616,2.4 618.7,0 617.6,0 616,1.5 614.3,0 613.3,0 			"/>
		</g>
	</g>
	<g>
		<g>
			<polygon class="st0" points="679,20.1 678.4,19.5 678.4,20.1 			"/>
			<polygon class="st0" points="691.2,20.1 692.9,20.1 692.1,19.3 			"/>
			<polygon class="st0" points="760.9,20.1 762.6,20.1 761.7,19.3 			"/>
			<polygon class="st0" points="775.4,20.1 775.4,19.6 774.8,20.1 			"/>
			<polygon class="st0" points="705.1,20.1 706.9,20.1 706,19.3 			"/>
			<polygon class="st0" points="746.9,20.1 748.6,20.1 747.8,19.3 			"/>
			<polygon class="st0" points="719.1,20.1 720.8,20.1 719.9,19.3 			"/>
			<polygon class="st0" points="733,20.1 734.7,20.1 733.9,19.3 			"/>
			<polygon class="st0" points="761.7,16.3 765.9,20.1 767,20.1 761.7,15.3 756.4,20.1 757.5,20.1 			"/>
			<polygon class="st0" points="683.5,20.1 678.4,15.5 678.4,16.5 682.4,20.1 			"/>
			<polygon class="st0" points="771.4,20.1 775.4,16.5 775.4,15.5 770.3,20.1 			"/>
			<polygon class="st0" points="733.9,16.3 738.1,20.1 739.2,20.1 733.9,15.3 728.5,20.1 729.6,20.1 			"/>
			<polygon class="st0" points="719.9,16.3 724.2,20.1 725.3,20.1 719.9,15.3 714.6,20.1 715.7,20.1 			"/>
			<polygon class="st0" points="692.1,16.3 696.3,20.1 697.4,20.1 692.1,15.3 686.7,20.1 687.8,20.1 			"/>
			<polygon class="st0" points="706,16.3 710.2,20.1 711.3,20.1 706,15.3 700.7,20.1 701.8,20.1 			"/>
			<polygon class="st0" points="747.8,16.3 752,20.1 753.1,20.1 747.8,15.3 742.5,20.1 743.5,20.1 			"/>
			<polygon class="st0" points="692.1,12.3 699,18.5 706,12.3 713,18.5 719.9,12.3 726.9,18.5 733.9,12.3 740.8,18.5 747.8,12.3 
				754.7,18.5 761.7,12.3 768.7,18.5 775.4,12.5 775.4,11.5 768.7,17.6 761.7,11.3 754.7,17.6 747.8,11.3 740.8,17.6 733.9,11.3 
				726.9,17.6 719.9,11.3 713,17.6 706,11.3 699,17.6 692.1,11.3 685.1,17.6 678.4,11.5 678.4,12.5 685.1,18.5 			"/>
			<polygon class="st0" points="692.1,8.3 699,14.5 706,8.3 713,14.5 719.9,8.3 726.9,14.5 733.9,8.3 740.8,14.5 747.8,8.3 
				754.7,14.5 761.7,8.3 768.7,14.5 775.4,8.5 775.4,7.5 768.7,13.5 761.7,7.3 754.7,13.5 747.8,7.3 740.8,13.5 733.9,7.3 
				726.9,13.5 719.9,7.3 713,13.5 706,7.3 699,13.5 692.1,7.3 685.1,13.5 678.4,7.5 678.4,8.5 685.1,14.5 			"/>
			<polygon class="st0" points="692.1,4.2 699,10.5 706,4.2 713,10.5 719.9,4.2 726.9,10.5 733.9,4.2 740.8,10.5 747.8,4.2 
				754.7,10.5 761.7,4.2 768.7,10.5 775.4,4.5 775.4,3.5 768.7,9.5 761.7,3.3 754.7,9.5 747.8,3.3 740.8,9.5 733.9,3.3 726.9,9.5 
				719.9,3.3 713,9.5 706,3.3 699,9.5 692.1,3.3 685.1,9.5 678.4,3.5 678.4,4.5 685.1,10.5 			"/>
			<polygon class="st0" points="692.1,0.2 699,6.5 706,0.2 713,6.5 719.9,0.2 726.9,6.5 733.9,0.2 740.8,6.5 747.8,0.2 754.7,6.5 
				761.7,0.2 768.7,6.5 775.4,0.4 775.4,0 774.8,0 768.7,5.5 762.6,0 760.9,0 754.7,5.5 748.6,0 746.9,0 740.8,5.5 734.7,0 733,0 
				726.9,5.5 720.8,0 719.1,0 713,5.5 706.9,0 705.1,0 699,5.5 692.9,0 691.2,0 685.1,5.5 679,0 678.4,0 678.4,0.4 685.1,6.5 			"/>
			<polygon class="st0" points="699,2.4 701.7,0 700.6,0 699,1.5 697.4,0 696.3,0 			"/>
			<polygon class="st0" points="768.7,2.4 771.4,0 770.3,0 768.7,1.5 767.1,0 766,0 			"/>
			<polygon class="st0" points="754.7,2.4 757.5,0 756.4,0 754.7,1.5 753.1,0 752,0 			"/>
			<polygon class="st0" points="687.8,0 686.7,0 685.1,1.5 683.5,0 682.4,0 685.1,2.4 			"/>
			<polygon class="st0" points="726.9,2.4 729.6,0 728.5,0 726.9,1.5 725.3,0 724.2,0 			"/>
			<polygon class="st0" points="740.8,2.4 743.5,0 742.4,0 740.8,1.5 739.2,0 738.1,0 			"/>
			<polygon class="st0" points="713,2.4 715.7,0 714.6,0 713,1.5 711.3,0 710.3,0 			"/>
		</g>
	</g>
</g>
</svg>
