<?xml version="1.0" encoding="utf-8"?>
<!-- Generator: Adobe Illustrator 19.2.0, SVG Export Plug-In . SVG Version: 6.00 Build 0)  -->
<svg version="1.1" id="Capa_1" xmlns="http://www.w3.org/2000/svg" xmlns:xlink="http://www.w3.org/1999/xlink" x="0px" y="0px"
	 viewBox="0 0 22 22" style="enable-background:new 0 0 22 22;" xml:space="preserve">
<path d="M11.7,1.8v4.6H16v2.9h-4.3V14c0,1.1,0.1,1.7,0.2,2c0.1,0.3,0.3,0.5,0.6,0.7c0.4,0.2,0.9,0.4,1.4,0.4c0.9,0,1.9-0.3,2.8-0.9
	v2.9c-0.8,0.4-1.5,0.6-2.1,0.8c-0.6,0.2-1.3,0.2-2.1,0.2c-0.8,0-1.6-0.1-2.2-0.3c-0.6-0.2-1.2-0.5-1.6-0.9c-0.5-0.4-0.8-0.8-0.9-1.3
	c-0.2-0.4-0.3-1.1-0.3-1.9V9.3h-2V6.7c0.7-0.2,1.3-0.6,1.8-1c0.5-0.4,0.9-1,1.2-1.6C8.8,3.6,9,2.8,9.1,1.8H11.7z"/>
</svg>
