<?xml version="1.0" encoding="utf-8"?>
<!-- Generator: Adobe Illustrator 16.0.0, SVG Export Plug-In . SVG Version: 6.00 Build 0)  -->
<!DOCTYPE svg PUBLIC "-//W3C//DTD SVG 1.1//EN" "http://www.w3.org/Graphics/SVG/1.1/DTD/svg11.dtd">
<svg version="1.1" id="Capa_1" xmlns="http://www.w3.org/2000/svg" xmlns:xlink="http://www.w3.org/1999/xlink" x="0px" y="0px"
	 width="11.29px" height="18.329px" viewBox="0 0 11.29 18.329" enable-background="new 0 0 11.29 18.329" xml:space="preserve">
<path fill="#DEDACB" d="M6.335,0v4.632h4.35V7.51h-4.35v4.7c0,1.062,0.057,1.744,0.168,2.046c0.114,0.301,0.32,0.542,0.629,0.724
	C7.538,15.223,8,15.345,8.523,15.345c0.928,0,1.851-0.304,2.767-0.906v2.89c-0.781,0.371-1.492,0.631-2.127,0.776
	c-0.633,0.15-1.32,0.225-2.06,0.225c-0.838,0-1.575-0.106-2.221-0.319c-0.643-0.212-1.194-0.512-1.647-0.902
	c-0.456-0.394-0.771-0.811-0.945-1.252c-0.177-0.439-0.264-1.079-0.264-1.917V7.51H0V4.914C0.72,4.682,1.338,4.346,1.849,3.91
	c0.516-0.437,0.926-0.961,1.235-1.574C3.396,1.724,3.611,0.946,3.728,0H6.335z"/>
</svg>
