<?xml version="1.0" encoding="utf-8"?>
<!-- Generator: Adobe Illustrator 16.0.0, SVG Export Plug-In . SVG Version: 6.00 Build 0)  -->
<!DOCTYPE svg PUBLIC "-//W3C//DTD SVG 1.1//EN" "http://www.w3.org/Graphics/SVG/1.1/DTD/svg11.dtd">
<svg version="1.1" id="Capa_1" xmlns="http://www.w3.org/2000/svg" xmlns:xlink="http://www.w3.org/1999/xlink" x="0px" y="0px"
	 width="21.684px" height="21.505px" viewBox="0 0 21.684 21.505" enable-background="new 0 0 21.684 21.505" xml:space="preserve">
<path fill="#DEDACB" stroke="#DEDACB" stroke-width="0.12" stroke-miterlimit="10" d="M21.366,7.76
	c-0.259-0.965-0.674-1.815-0.896-2.234c-0.042-0.078-0.573-1.15-1.364-1.995c-0.633-0.675-1.387-1.271-1.847-1.611
	c-0.116-0.086-0.957-0.752-1.972-1.146c-0.813-0.316-1.714-0.52-2.24-0.622c-0.126-0.025-1.433-0.235-2.616-0.113
	C9.492,0.133,8.592,0.375,8.079,0.532C7.953,0.571,6.85,0.928,5.876,1.562C5.14,2.042,4.45,2.64,4.046,3.01
	C3.929,3.118,2.88,4.131,2.177,5.489C1.808,6.201,1.542,7.018,1.376,7.612c-0.064,0.228-0.433,1.596-0.39,2.928
	c0.032,0.971,0.229,1.93,0.372,2.506c0.042,0.171,0.383,1.455,1.089,2.633c0.431,0.718,1.003,1.396,1.374,1.807
	c0.102,0.112,0.733,0.77,1.471,1.275c0.522,0.359,1.089,0.67,1.471,0.867c0.129,0.067,0.605,0.302,1.114,0.485
	c0.316,0.114,0.643,0.212,0.87,0.276c0.084,0.023,0.961,0.303,1.391,0.102c0.488-0.228,0.529-0.94,0.529-0.94l0.033-1.72
	c0,0,0.133-0.451,0.26-0.584c0.229-0.242,0.953-0.826,1.278-1.085c0.051-0.04,0.576-0.472,1.073-0.88
	c0.256-0.21,0.505-0.414,0.678-0.557c0.063-0.051,0.423-0.311,0.615-0.67c0.25-0.465,0.336-1.049,0.336-1.049L14.66,7.555
	l-0.304-4.338h-0.92c0,0-0.299,0.163-0.389,0.271c-0.137,0.163-0.205,0.356-0.205,0.356l-0.021,1.915l0.021,4.089
	c0,0,0.021,0.346-0.303,0.346c-0.325,0-0.319-0.324-0.319-0.324V5.743V3.844c0,0-0.12-0.627-0.86-0.627s-0.87,0.627-0.87,0.627
	v1.909L10.489,9.87c0,0-0.054,0.33-0.297,0.33S9.9,9.87,9.9,9.87V5.732V3.85c0,0-0.238-0.633-0.697-0.633c-0.46,0-0.871,0-0.871,0
	l-0.13,2.488L8.034,8.372L7.948,9.88l-0.092,1.758l-0.027,1.379c0,0,0.103,1.071,0.893,1.72c0.789,0.649,2.109,1.752,2.109,1.752
	s-0.628,0.52-0.692,1.125c-0.065,0.605-0.087,1.99-0.087,1.99s0.092,0.471-0.579,0.33c-0.326-0.068-1.43-0.322-2.59-0.946
	c-0.581-0.312-2.535-1.501-3.646-3.277c-0.538-0.861-1.606-2.764-1.633-4.737C1.589,9.939,1.712,7.47,2.772,5.749
	c0.62-1.008,1.957-3.024,3.84-3.905c0.57-0.267,2.284-1.241,4.315-1.232c1.04,0.004,2.963,0.079,4.63,0.974
	c0.767,0.411,2.264,1.27,3.19,2.487c0.604,0.792,1.53,1.958,1.904,3.516c0.185,0.77,0.554,2.347,0.4,3.623
	c-0.112,0.936-0.291,1.648-0.446,2.141c-0.078,0.245-0.541,1.658-1.371,2.728c-0.696,0.896-1.294,1.459-1.61,1.73
	c-0.078,0.067-0.944,0.743-1.84,1.211c-0.593,0.31-1.201,0.52-1.515,0.617c-0.061,0.02-0.499,0.14-0.887,0.216
	c-0.085,0.017-0.401,0.118-0.585,0.044c-0.119-0.049-0.139-0.255-0.151-0.325c-0.037-0.221-0.061-0.522-0.075-0.8
	c-0.008-0.162,0.02-0.866-0.043-1.212c-0.088-0.481-0.271-0.605-0.271-0.605L11.792,17.3c0,0,0.111,0.157,0.13,0.206
	c0.017,0.043,0.011,0.162,0.011,0.162s0.047,1.98,0.13,2.25c0.048,0.155,0.179,0.301,0.241,0.365c0.183,0.19,0.47,0.367,0.873,0.283
	c0.351-0.072,1.491-0.373,2.401-0.789c0.67-0.307,1.254-0.659,1.612-0.892c0.097-0.062,0.568-0.389,0.983-0.774
	c0.34-0.315,0.665-0.663,0.866-0.885c0.057-0.062,0.708-0.761,1.189-1.614c0.39-0.691,0.677-1.339,0.829-1.704
	c0.027-0.066,0.305-0.801,0.447-1.648c0.121-0.721,0.164-1.51,0.178-1.851C21.686,10.359,21.679,8.932,21.366,7.76z M9.5,14.575
	c-1.176-0.917-1.062-1.938-1.062-1.938L8.55,9.877l0.329-6.101c0.409,0,0.45,0.243,0.45,0.243L9.322,9.87
	c0,0-0.009,0.941,0.859,0.941s0.893-0.941,0.893-0.941l-0.017-5.857c0,0,0.122-0.235,0.325-0.235c0.202,0,0.268,0.243,0.268,0.243
	l-0.009,5.85c0,0,0.146,0.933,0.909,0.933c0.762,0,0.868-0.94,0.868-0.94s-0.024-5.606-0.033-5.857
	c-0.008-0.252,0.438-0.219,0.438-0.219s0.446,7.625,0.511,8.851c0.065,1.225-1.119,1.938-1.119,1.938L11.349,16.1
	C11.349,16.1,10.676,15.491,9.5,14.575z"/>
</svg>
