<?xml version="1.0" standalone="no"?>
<!DOCTYPE svg PUBLIC "-//W3C//DTD SVG 1.1//EN" "http://www.w3.org/Graphics/SVG/1.1/DTD/svg11.dtd" >
<svg xmlns="http://www.w3.org/2000/svg" xmlns:xlink="http://www.w3.org/1999/xlink" version="1.1">
<metadata>
Created by FontForge 20170731 at Fri Feb 14 00:57:55 2014
 By Aleksey,,,
Copyright (c) 2014 by Commercial Type, Inc.. All rights reserved.
</metadata>
<defs>
<font id="CaponiText-RegularNo" horiz-adv-x="630" >
  <font-face 
    font-family="CaponiText"
    font-weight="400"
    font-variant="small-caps"
    font-stretch="normal"
    units-per-em="1000"
    panose-1="0 0 0 0 0 0 0 0 0 0"
    ascent="764"
    descent="-236"
    x-height="466"
    cap-height="659"
    bbox="-180 -296 1083 1113"
    underline-thickness="47"
    underline-position="81"
    unicode-range="U+000D-FB04"
  />
<missing-glyph horiz-adv-x="220" 
 />
    <glyph glyph-name="f_b" unicode="fb" horiz-adv-x="830" 
d="M453 -7l-146 11v43l59 -2v512q-34 9 -34 46q0 18 12.5 32t12.5 18q0 19 -42 19q-61 0 -95 -40t-34 -117v-48h127v-48h-127l1 -372l58 -4v-43h-226v43l70 4v372h-66v36q45 7 66 21v2q0 109 64 175t159 66q63 0 99 -30l45 22l9 -4v-280q68 56 145 56q91 0 140.5 -67
t49.5 -192q0 -108 -59.5 -172.5t-142.5 -64.5q-79 0 -133 54v-9h-2v-39h-10zM572 423q-54 0 -107 -33v-305q44 -40 102 -40q129 0 129 186q0 192 -124 192z" />
    <glyph glyph-name="f_f_b" unicode="ffb" horiz-adv-x="1108" 
d="M23 419v36q45 7 66 21q2 99 68 161.5t156 62.5q83 0 115 -50q64 69 161 69q64 0 100 -30l45 22l9 -4v-280q68 56 146 56q90 0 139.5 -67t49.5 -192q0 -108 -59.5 -172.5t-142.5 -64.5q-79 0 -133 54v-9h-2v-39h-11l-145 11v43l59 -2v512q-35 9 -35 46q0 18 13 32t13 18
q0 19 -42 19q-61 0 -95 -40t-34 -117v-48h127v-48h-127l1 -372l58 -4v-43h-216v43l59 4v372h-179v-372l58 -4v-43h-226v43l70 4v372h-66zM850 423q-54 0 -107 -33v-305q43 -40 102 -40q128 0 128 186q0 192 -123 192zM187 500v-33h179v11q0 34 6 62q-39 7 -39 44
q0 18 13 31.5t13 17.5q0 21 -45 21q-58 0 -92.5 -38.5t-34.5 -115.5z" />
    <glyph glyph-name="f_f_h" unicode="ffh" horiz-adv-x="1100" 
d="M23 419v36q45 7 66 21q2 99 68 161.5t156 62.5q83 0 115 -50q64 69 161 69q64 0 100 -30l45 22l9 -4v-317q28 34 62 59q48 35 91 35q126 0 126 -135v-304l61 -2v-43h-221v43l62 3v296q0 65 -72 65q-52 0 -109 -44v-315l58 -5v-43h-216v43l59 4v510q-35 9 -35 46
q0 18 13 32t13 18q0 19 -42 19q-61 0 -95 -40t-34 -117v-48h127v-48h-127l1 -372l58 -4v-43h-216v43l59 4v372h-179v-372l58 -4v-43h-226v43l70 4v372h-66zM187 500v-33h179v11q0 34 6 62q-39 7 -39 44q0 18 13 31.5t13 17.5q0 21 -45 21q-58 0 -92.5 -38.5t-34.5 -115.5z
" />
    <glyph glyph-name="f_f_j" unicode="ffj" horiz-adv-x="822" 
d="M23 419v36q45 7 66 21q2 99 68 161.5t156 62.5q86 0 116 -52q68 71 163 71q66 0 103 -29t37 -73q0 -33 -18 -51t-45 -18q-24 0 -40.5 13t-16.5 36q0 19 14.5 33.5t14.5 18.5q0 23 -48 23q-60 0 -94.5 -41.5t-34.5 -120.5v-43h227l43 10l9 -5v-521q0 -97 -55.5 -172
t-136.5 -75q-27 0 -45 16t-18 38q0 50 41 50q38 0 69 -38q46 24 46 115v534h-180l1 -371l78 -5v-43h-236v43l59 4v372h-179v-372l58 -4v-43h-226v43l70 4v372h-66zM187 500v-33h179v6q0 40 7 67q-40 5 -40 44q0 18 13 31.5t13 17.5q0 21 -45 21q-58 0 -92.5 -38.5
t-34.5 -115.5z" />
    <glyph glyph-name="f_f_k" unicode="ffk" horiz-adv-x="1088" 
d="M23 419v36q45 7 66 21q2 99 68 161.5t156 62.5q83 0 115 -50q64 69 161 69q64 0 100 -30l45 22l9 -4v-660l57 -4v-43h-215v43l59 5v509q-35 9 -35 46q0 18 13 32t13 18q0 19 -42 19q-61 0 -95 -40t-34 -117v-48h127v-48h-127l1 -372l58 -4v-43h-216v43l59 4v372h-179
v-372l58 -4v-43h-226v43l70 4v372h-66zM867 0v43l46 3l-161 195v12l160 160l-62 13v41h193v-41l-71 -11l-134 -134l192 -235l48 -3v-43h-211zM187 500v-33h179v11q0 34 6 62q-39 7 -39 44q0 18 13 31.5t13 17.5q0 21 -45 21q-58 0 -92.5 -38.5t-34.5 -115.5z" />
    <glyph glyph-name="f_h" unicode="fh" horiz-adv-x="823" 
d="M307 0v43l59 4v510q-34 9 -34 46q0 18 12.5 32t12.5 18q0 19 -42 19q-61 0 -94.5 -40t-33.5 -117v-48h126v-48h-126v-372l58 -4v-43h-226v43l70 4v372h-66v36q45 7 66 21v2q0 109 64 175t159 66q63 0 99 -30l45 22l9 -4v-316q26 30 63 58q47 35 91 35q62 0 93.5 -32.5
t31.5 -102.5v-304l62 -2v-43h-222v43l63 3v296q0 65 -73 65q-50 0 -109 -44v-315l58 -5v-43h-216z" />
    <glyph glyph-name="f_j" unicode="fj" horiz-adv-x="544" 
d="M23 419v36q45 7 66 21q0 108 66.5 175.5t158.5 67.5q66 0 103.5 -29t37.5 -73q0 -34 -18.5 -51.5t-46.5 -17.5q-24 0 -40 13t-16 36q0 19 14.5 33.5t14.5 18.5q0 23 -47 23q-61 0 -95 -41.5t-34 -120.5v-43h226l43 10l9 -5v-477q0 -97 -55.5 -172t-136.5 -75
q-27 0 -45 16t-18 39q0 49 41 49q38 0 69 -38q47 26 47 116v489h-180v-371l79 -5v-43h-247v43l70 4v372h-66z" />
    <glyph glyph-name="f_k" unicode="fk" horiz-adv-x="810" 
d="M307 0v43l59 5v509q-34 9 -34 46q0 18 12.5 32t12.5 18q0 19 -42 19q-61 0 -94.5 -40t-33.5 -117v-48h126v-48h-126v-372l58 -4v-43h-226v43l70 4v372h-66v36q45 7 66 21v2q0 109 64 175t159 66q63 0 99 -30l45 22l9 -4v-660l57 -4v-43h-215zM589 0v43l47 3l-161 195v12
l159 160l-62 13v41h193v-41l-70 -11l-135 -134l192 -235l48 -3v-43h-211z" />
    <glyph glyph-name="f_f" unicode="ff" horiz-adv-x="612" 
d="M23 419v36q45 7 66 21q2 99 68 161.5t156 62.5q79 0 112 -46q59 65 146 65q55 0 88.5 -26t33.5 -68q0 -33 -17.5 -50.5t-42.5 -17.5q-22 0 -38.5 13t-16.5 35q0 20 14.5 34t14.5 18q0 15 -36 15q-51 0 -79 -40.5t-28 -115.5v-49h126v-48h-126l1 -371l78 -5v-43h-236v43
l59 4v372h-179v-372l58 -4v-43h-226v43l70 4v372h-66zM187 500v-33h179v14q0 28 5 60q-38 5 -38 43q0 18 13 31.5t13 17.5q0 21 -45 21q-58 0 -92.5 -38.5t-34.5 -115.5z" />
    <glyph glyph-name="f_i" unicode="fi" horiz-adv-x="548" 
d="M23 419v36q45 7 66 21q0 108 65 175.5t157 67.5q66 0 103.5 -29t37.5 -73q0 -33 -18.5 -51t-45.5 -18q-23 0 -40 13t-17 36q0 19 15 33.5t15 18.5q0 23 -47 23q-60 0 -93.5 -41.5t-33.5 -120.5v-43h226l43 10l9 -5v-425l66 -4v-43h-224v43l59 4v372h-179v-372l58 -4v-43
h-226v43l70 4v372h-66z" />
    <glyph glyph-name="f_l" unicode="fl" horiz-adv-x="553" 
d="M23 419v36q45 7 66 21v2q0 109 64 175t159 66q63 0 99 -30l45 22l9 -4v-660l70 -4v-43h-228v43l59 4v372h-179v-372l58 -4v-43h-226v43l70 4v372h-66zM187 515v-48h179v90q-34 9 -34 46q0 18 12.5 32t12.5 18q0 19 -42 19q-61 0 -94.5 -40t-33.5 -117z" />
    <glyph glyph-name="f_f_i" unicode="ffi" horiz-adv-x="826" 
d="M23 419v36q45 7 66 21q2 99 68 161.5t156 62.5q84 0 116 -51q64 70 160 70q66 0 103.5 -29t37.5 -73q0 -33 -19 -51t-45 -18q-25 0 -41.5 13t-16.5 36q0 19 15.5 33.5t15.5 18.5q0 23 -48 23q-60 0 -93.5 -41.5t-33.5 -120.5v-43h227l43 10l9 -5v-425l66 -4v-43h-224v43
l59 4v372h-180l1 -372l58 -4v-43h-216v43l59 4v372h-179v-372l58 -4v-43h-226v43l70 4v372h-66zM187 500v-33h179v6q0 40 7 67q-40 5 -40 44q0 18 13 31.5t13 17.5q0 21 -45 21q-58 0 -92.5 -38.5t-34.5 -115.5z" />
    <glyph glyph-name="f_f_l" unicode="ffl" horiz-adv-x="831" 
d="M23 419v36q45 7 66 21q2 99 68 161.5t156 62.5q83 0 115 -50q64 69 161 69q64 0 100 -30l45 22l9 -4v-660l70 -4v-43h-228v43l59 4v372h-180l1 -372l58 -4v-43h-216v43l59 4v372h-179v-372l58 -4v-43h-226v43l70 4v372h-66zM593 672q-61 0 -95 -40t-34 -117v-48h180v90
q-35 9 -35 46q0 18 13 32t13 18q0 19 -42 19zM187 500v-33h179v11q0 34 6 62q-39 7 -39 44q0 18 13 31.5t13 17.5q0 21 -45 21q-58 0 -92.5 -38.5t-34.5 -115.5z" />
    <glyph glyph-name=".notdef" horiz-adv-x="220" 
 />
    <glyph glyph-name=".null" horiz-adv-x="0" 
 />
    <glyph glyph-name="nonmarkingreturn" horiz-adv-x="333" 
 />
    <glyph glyph-name="NULL" horiz-adv-x="0" 
 />
    <glyph glyph-name="NULL" horiz-adv-x="0" 
 />
    <glyph glyph-name="CR" unicode="&#xd;" horiz-adv-x="220" 
 />
    <glyph glyph-name="space" unicode=" " horiz-adv-x="220" 
 />
    <glyph glyph-name="exclam" unicode="!" horiz-adv-x="237" 
d="M101 203l-47 389q-6 35 13.5 57.5t50.5 22.5q32 0 51.5 -22.5t12.5 -57.5l-46 -389h-35zM118 -17q-28 0 -46.5 19t-18.5 48t18.5 47.5t46.5 18.5q29 0 47.5 -18.5t18.5 -47.5t-18.5 -48t-47.5 -19z" />
    <glyph glyph-name="quotedbl" unicode="&#x22;" horiz-adv-x="347" 
d="M81 426l-38 170q-9 41 6.5 62t46.5 21q68 0 50 -83l-38 -170h-27zM239 426l-39 170q-8 42 7.5 62.5t45.5 20.5q32 0 46.5 -20t3.5 -63l-37 -170h-27z" />
    <glyph glyph-name="numbersign" unicode="#" horiz-adv-x="460" 
d="M60 372l14 77h86l34 170h51l-34 -170h94l34 170h50l-34 -170h84l-15 -77h-85l-22 -109h84l-14 -78h-85l-37 -185h-50l37 185h-94l-37 -185h-50l37 185h-87l17 78h85l22 109h-85zM195 372l-22 -109h94l22 109h-94z" />
    <glyph glyph-name="dollar" unicode="$" horiz-adv-x="505" 
d="M224 -110v99q-90 4 -140 43.5t-50 96.5q0 37 18 55t44 18q23 0 37.5 -13t14.5 -35q0 -15 -9 -27t-17.5 -19t-8.5 -11q0 -56 111 -61v245q-90 28 -133 69.5t-43 115.5q0 82 51.5 131t128.5 55v57h43v-57q70 -4 120 -37.5t50 -84.5q0 -32 -15.5 -50t-40.5 -18q-22 0 -38 14
t-16 34q0 19 13.5 33t13.5 18q0 18 -24.5 30t-62.5 14v-223q48 -18 76 -31.5t57 -36t42 -54.5t13 -75q0 -90 -55.5 -139.5t-137.5 -56.5v-99h-42zM379 146q0 45 -27.5 72t-85.5 49v-230q113 13 113 109zM125 500q0 -38 23 -60.5t80 -43.5v208q-47 -6 -75 -32t-28 -72z" />
    <glyph glyph-name="percent" unicode="%" horiz-adv-x="707" 
d="M76 -13l509 660l34 -26l-511 -658zM179 348q33 0 50 33.5t17 92.5q0 127 -67 127q-32 0 -49 -33.5t-17 -93.5q0 -58 17 -92t49 -34zM179 309q-62 0 -107 47t-45 118t45.5 119t106.5 48q64 0 107.5 -48.5t43.5 -118.5q0 -71 -43.5 -118t-107.5 -47zM528 27q66 0 66 127
q0 126 -66 126q-32 0 -49 -33t-17 -93t17 -93.5t49 -33.5zM528 -12q-62 0 -106.5 47t-44.5 119q0 70 45 118t106 48q64 0 107.5 -48t43.5 -118q0 -72 -43.5 -119t-107.5 -47z" />
    <glyph glyph-name="ampersand" unicode="&#x26;" horiz-adv-x="743" 
d="M233 -18q-91 0 -146 51.5t-55 127.5q0 71 43.5 124.5t122.5 84.5q-41 36 -59 68.5t-18 80.5q0 61 44.5 106t124.5 45q64 0 104 -35t40 -101q0 -85 -114 -140q84 -77 162 -175q41 73 82 160l-61 10v42h179v-42l-60 -8q-17 -28 -55 -94t-60 -101q29 -38 39.5 -51
t32.5 -38.5t37 -35t29 -9.5q53 0 77 18l11 -33q-49 -55 -134 -55q-26 0 -49.5 10t-44 29.5t-33.5 35t-30 39.5q-94 -114 -209 -114zM420 126q-118 153 -197 223q-95 -50 -95 -149q0 -58 41 -102.5t109 -46.5q78 -1 142 75zM212 545q0 -37 15.5 -61.5t56.5 -57.5q8 -8 13 -11
q71 46 71 123q0 37 -20.5 60t-56.5 23q-35 0 -57 -21.5t-22 -54.5z" />
    <glyph glyph-name="quotesingle" unicode="'" horiz-adv-x="189" 
d="M81 426l-38 170q-9 41 6.5 62t46.5 21q68 0 50 -83l-38 -170h-27z" />
    <glyph glyph-name="parenleft" unicode="(" horiz-adv-x="353" 
d="M326 -164l-30 -26q-50 54 -83.5 96.5t-69.5 102.5t-54 129.5t-18 147.5q0 77 18 146t54 129.5t69.5 103.5t83.5 96l30 -26q-81 -103 -124 -208t-43 -241t43 -241t124 -209z" />
    <glyph glyph-name="parenright" unicode=")" horiz-adv-x="353" 
d="M53 -190l-30 26q81 104 124 209t43 241t-43 241t-124 208l30 26q50 -53 83.5 -96t69.5 -103.5t54 -129.5t18 -146q0 -78 -18 -147.5t-54 -129.5t-69.5 -102.5t-83.5 -96.5z" />
    <glyph glyph-name="asterisk" unicode="*" horiz-adv-x="355" 
d="M91 378l-23 21l58 95l-93 56l13 29l98 -28l16 108h34l15 -108l99 28l14 -29l-94 -56l59 -96l-25 -20l-85 81z" />
    <glyph glyph-name="plus" unicode="+" horiz-adv-x="459" 
d="M39 262v53h164v171h55v-171h162v-53h-162v-169h-55v169h-164z" />
    <glyph glyph-name="comma" unicode="," horiz-adv-x="267" 
d="M78 -181l-18 31q95 52 95 128q0 31 -17 31q-3 0 -15 -9t-26 -9q-54 0 -54 58q0 28 22.5 48t55.5 20q46 0 72 -30.5t26 -86.5q0 -64 -39.5 -110.5t-101.5 -70.5z" />
    <glyph glyph-name="hyphen" unicode="-" horiz-adv-x="327" 
d="M62 215v82h202v-82h-202z" />
    <glyph glyph-name="period" unicode="." horiz-adv-x="217" 
d="M109 -17q-29 0 -47.5 19t-18.5 48t18.5 47.5t47.5 18.5t47.5 -18.5t18.5 -47.5t-18.5 -48t-47.5 -19z" />
    <glyph glyph-name="slash" unicode="/" horiz-adv-x="377" 
d="M-13 -181l315 932h56l-316 -932h-55z" />
    <glyph glyph-name="zero" unicode="0" horiz-adv-x="574" 
d="M287 30q143 0 143 254q0 255 -143 255q-142 0 -142 -255q0 -254 142 -254zM287 -19q-103 0 -179.5 85t-76.5 218t76.5 218.5t179.5 85.5t179.5 -86t76.5 -218q0 -133 -76.5 -218t-179.5 -85z" />
    <glyph glyph-name="one" unicode="1" horiz-adv-x="349" 
d="M23 432v50l172 105h38v-537l89 -7v-43h-288v43l93 8v430z" />
    <glyph glyph-name="two" unicode="2" horiz-adv-x="486" 
d="M33 0l-5 65q21 16 61.5 47t61.5 47t52.5 43.5t48 48t34.5 47.5t25.5 55.5t7.5 59.5q0 127 -103 127q-44 0 -68 -18.5t-24 -41.5q0 -16 18 -34t18 -39q0 -19 -16.5 -33.5t-39.5 -14.5q-31 0 -49 19t-18 55q0 64 55.5 109.5t138.5 45.5q101 0 152.5 -49.5t51.5 -125.5
q0 -143 -308 -327h201q37 0 50.5 7t19.5 26l17 55h38l-26 -174h-394z" />
    <glyph glyph-name="three" unicode="3" horiz-adv-x="483" 
d="M207 -88q-85 0 -138.5 38t-53.5 100q0 33 18.5 49.5t44.5 16.5q24 0 39.5 -13.5t15.5 -35.5q0 -17 -8.5 -29t-17.5 -18t-9 -11q0 -19 27 -34t65 -15q74 0 109.5 35.5t35.5 119.5q0 64 -39 96.5t-109 32.5h-54v48h53q56 0 89.5 37t33.5 105q0 53 -26 80t-74 27
q-30 0 -53 -10t-23 -22q0 -5 7.5 -10.5t15 -15.5t7.5 -27q0 -20 -16 -34t-38 -14q-25 0 -42 17t-17 44q0 54 54 86.5t120 32.5q90 0 142 -43t52 -107q0 -56 -44 -102.5t-104 -58.5v-5q89 -9 134 -53.5t45 -112.5q0 -86 -69 -140t-173 -54z" />
    <glyph glyph-name="four" unicode="4" horiz-adv-x="559" 
d="M308 -84v203h-282v25l267 459h62l-256 -436h209v257l103 10v-267h119v-48h-119v-203h-103z" />
    <glyph glyph-name="five" unicode="5" horiz-adv-x="477" 
d="M197 -88q-76 0 -128 35t-52 96q0 31 18 48.5t45 17.5q21 0 37 -13.5t16 -35.5q0 -17 -8.5 -28.5t-17.5 -18.5t-9 -12q0 -17 26 -29t58 -12q67 0 106 44t39 133q0 77 -32.5 106t-91.5 29q-60 0 -100 -33l-26 12v324h278l15 58h37l-17 -148h-259v-185q47 26 106 26
q97 0 150.5 -47t53.5 -138q0 -107 -73.5 -168t-170.5 -61z" />
    <glyph glyph-name="six" unicode="6" horiz-adv-x="539" 
d="M277 -18q-110 0 -175 78t-65 201q0 203 116.5 318.5t306.5 115.5v-50q-143 -10 -217.5 -80t-90.5 -208q73 48 154 48q89 0 146 -48t57 -150q0 -90 -62.5 -157.5t-169.5 -67.5zM273 352q-68 0 -124 -41q-1 -13 -1 -41q0 -240 129 -240q65 0 94 48t29 125q0 72 -33 110.5
t-94 38.5z" />
    <glyph glyph-name="seven" unicode="7" horiz-adv-x="472" 
d="M225 -99q-41 0 -63.5 22.5t-22.5 59.5q0 49 38 110l198 391h-189q-56 0 -71.5 -8.5t-25.5 -41.5l-19 -60h-39l29 201h403v-29l-239 -472q-22 -41 -22 -67q0 -24 27 -24q17 0 40 20q34 -9 34 -43q0 -26 -23 -42.5t-55 -16.5z" />
    <glyph glyph-name="eight" unicode="8" horiz-adv-x="524" 
d="M262 -18q-102 0 -165.5 54.5t-63.5 139.5q0 64 40.5 109t99.5 58q-54 20 -84 60.5t-30 94.5q0 72 56.5 124.5t146.5 52.5t144 -52t54 -124q0 -55 -32 -98t-76 -58q60 -12 99.5 -57.5t39.5 -109.5q0 -85 -64 -139.5t-165 -54.5zM262 28q61 0 90 40.5t29 107.5
q0 144 -119 144t-119 -144q0 -67 28.5 -107.5t90.5 -40.5zM262 362q97 0 97 136q0 61 -25 96t-72 35t-73.5 -35t-26.5 -96q0 -65 26.5 -100.5t73.5 -35.5z" />
    <glyph glyph-name="nine" unicode="9" horiz-adv-x="539" 
d="M75 -117v50q145 12 220.5 78t90.5 203q-71 -50 -153 -50q-88 0 -145.5 48.5t-57.5 149.5q0 90 63 158t169 68q110 0 175 -80t65 -209q0 -200 -117.5 -308t-309.5 -108zM267 218q69 0 123 39q0 6 0.5 19t0.5 21q0 243 -128 243q-65 0 -94 -48.5t-29 -125.5
q0 -148 127 -148z" />
    <glyph glyph-name="colon" unicode=":" horiz-adv-x="227" 
d="M115 -17q-29 0 -48 19t-19 48t19 47.5t48 18.5q27 0 46 -18.5t19 -47.5t-19 -48t-46 -19zM115 309q-29 0 -48 19t-19 48q0 27 19 46t48 19q27 0 46 -19t19 -46q0 -29 -19 -48t-46 -19z" />
    <glyph glyph-name="semicolon" unicode=";" horiz-adv-x="274" 
d="M133 309q-29 0 -47.5 19t-18.5 48q0 27 18.5 46t47.5 19t47 -18.5t18 -46.5q0 -29 -18 -48t-47 -19zM82 -181l-18 31q96 52 96 128q0 31 -17 31q-3 0 -15 -9t-26 -9q-54 0 -54 58q0 28 22.5 48t54.5 20q46 0 72.5 -30.5t26.5 -86.5q0 -64 -40 -110t-102 -71z" />
    <glyph glyph-name="less" unicode="&#x3c;" horiz-adv-x="427" 
d="M384 100l-348 160v45l348 161v-60l-274 -124l274 -123v-59z" />
    <glyph glyph-name="equal" unicode="=" horiz-adv-x="459" 
d="M39 322v53h381v-53h-381zM39 180v53h381v-53h-381z" />
    <glyph glyph-name="greater" unicode="&#x3e;" horiz-adv-x="427" 
d="M43 100v59l273 123l-273 124v60l348 -161v-45z" />
    <glyph glyph-name="question" unicode="?" horiz-adv-x="406" 
d="M166 -17q-29 0 -47.5 19t-18.5 48t18.5 47.5t47.5 18.5t47.5 -18.5t18.5 -47.5t-18.5 -48t-47.5 -19zM181 203h-45q-8 30 -6 54q3 38 26.5 76.5t50 65t48.5 63t22 72.5q0 43 -24.5 65.5t-69.5 22.5q-76 0 -76 -58q0 -28 30 -35q9 -21 9 -32q0 -18 -13 -31t-36 -13
q-31 0 -51.5 21.5t-20.5 58.5q0 60 49 99.5t122 39.5q78 0 129.5 -42t51.5 -116q0 -39 -17 -73.5t-34.5 -52.5t-52 -46t-45.5 -38q-55 -50 -47 -101z" />
    <glyph glyph-name="at" unicode="@" horiz-adv-x="901" 
d="M618 46q75 0 135 68.5t60 188.5q0 128 -77 204.5t-210 76.5q-122 0 -219 -59.5t-148.5 -156.5t-51.5 -210q0 -145 92.5 -236t241.5 -91q159 0 272 92l27 -33q-139 -108 -317 -108q-170 0 -281 100t-111 260q0 129 64 240.5t178.5 179.5t252.5 68q156 0 251.5 -91
t95.5 -232q0 -74 -24.5 -134.5t-65 -97.5t-88 -57t-96.5 -20q-103 0 -109 81h-2q-27 -34 -64 -57.5t-74 -23.5q-44 0 -74 32t-30 97q0 111 76.5 205t177.5 94q55 0 85 -42l10 29h93l-100 -308q-7 -20 -2 -39.5t32 -19.5zM397 63q51 0 96 62l68 213q-15 39 -59 39
q-42 0 -79 -40.5t-56 -95t-19 -102.5q0 -76 49 -76z" />
    <glyph glyph-name="A" unicode="A" horiz-adv-x="655" 
d="M384 0v44l78 5l-60 170h-213l-53 -154l98 -21v-44h-216v44l60 16l215 610h68l219 -623l57 -3v-44h-253zM294 521l-90 -258h182l-91 258h-1z" />
    <glyph glyph-name="B" unicode="B" horiz-adv-x="568" 
d="M31 0v44l67 7v558l-67 5v45h260q104 0 161 -41.5t57 -114.5q0 -120 -136 -159v-2q79 -16 120.5 -58t41.5 -105q0 -82 -59.5 -130.5t-166.5 -48.5h-278zM289 317h-80v-267h79q77 0 107 29.5t30 101.5q0 73 -34.5 104.5t-101.5 31.5zM280 609h-71v-247h74q63 0 90 31
t27 101q0 66 -29 90.5t-91 24.5z" />
    <glyph glyph-name="C" unicode="C" 
d="M340 -18q-138 0 -221.5 92.5t-83.5 247.5q0 152 93 250t219 98q109 0 181 -85l16 65h36v-202h-40q-24 87 -70 129t-122 42q-85 0 -139 -76t-54 -217q0 -286 206 -286q131 0 192 132l38 -17q-33 -82 -98 -127.5t-153 -45.5z" />
    <glyph glyph-name="D" unicode="D" horiz-adv-x="651" 
d="M31 0v44l67 6v559l-67 5v45h268q50 0 95 -10.5t86.5 -35t71 -62t47.5 -94t18 -127.5q0 -85 -26 -150t-71 -103.5t-99 -57.5t-115 -19h-275zM293 609h-84v-559h85q202 0 202 280q0 155 -52.5 217t-150.5 62z" />
    <glyph glyph-name="E" unicode="E" horiz-adv-x="597" 
d="M481 475l-16 89q-5 29 -17.5 37.5t-47.5 8.5h-191v-255h87q43 0 46 33l7 79h38v-267h-37l-8 76q-2 21 -12.5 27.5t-33.5 6.5h-87v-260h197q56 0 70.5 8t20.5 46l16 100h41v-204h-523v44l67 7v558l-67 5v45h489v-184h-39z" />
    <glyph glyph-name="F" unicode="F" horiz-adv-x="543" 
d="M479 455l-14 83q-6 46 -23 59t-74 13h-159v-248h82q25 0 31.5 6.5t10.5 38.5l8 67h39v-266h-38l-8 70q-4 25 -11.5 32t-32.5 7h-81v-267l86 -6v-44h-264v44l67 7v557l-67 6v45h487v-204h-39z" />
    <glyph glyph-name="G" unicode="G" horiz-adv-x="676" 
d="M348 -18q-142 0 -228 93.5t-86 246.5q0 151 95 249.5t220 98.5q118 0 180 -77l13 55h37v-186h-41q-21 82 -64 119.5t-117 37.5q-86 0 -144.5 -76.5t-58.5 -216.5q0 -150 49.5 -222t155.5 -72q87 0 123 58q15 24 15 90v36l-80 7v45h248v-45l-62 -5v-110
q-96 -126 -255 -126z" />
    <glyph glyph-name="H" unicode="H" horiz-adv-x="679" 
d="M396 0v44l74 6v270h-261v-270l74 -6v-44h-252v44l66 6v559l-66 5v45h252v-45l-74 -5v-244h261v242l-74 7v45h252v-45l-67 -6v-560l67 -4v-44h-252z" />
    <glyph glyph-name="I" unicode="I" horiz-adv-x="306" 
d="M31 0v44l66 7v556l-66 7v45h244v-45l-66 -6v-556l66 -8v-44h-244z" />
    <glyph glyph-name="J" unicode="J" horiz-adv-x="422" 
d="M142 -62q-58 0 -88 25.5t-30 67.5q0 32 17 50.5t44 18.5q22 0 37.5 -13.5t15.5 -34.5q0 -20 -14.5 -34.5t-14.5 -16.5q0 -17 29 -17q75 0 75 122v500l-77 8v45h259v-45l-71 -8v-436q0 -114 -49.5 -173t-132.5 -59z" />
    <glyph glyph-name="K" unicode="K" horiz-adv-x="643" 
d="M31 0v44l67 6v559l-67 5v45h254v-45l-76 -5v-558l74 -7v-44h-252zM379 0v44l64 5l-210 289v17l216 241l-65 18v45h210v-45l-84 -18l-183 -206l241 -342l51 -4v-44h-240z" />
    <glyph glyph-name="L" unicode="L" horiz-adv-x="565" 
d="M31 0v44l67 6v560l-67 4v45h263v-45l-85 -6v-558h178q49 0 65 17.5t24 88.5l11 69h42v-225h-498z" />
    <glyph glyph-name="M" unicode="M" horiz-adv-x="761" 
d="M368 0h-38l-177 558v-499l76 -15v-44h-198v44l67 15v547l-67 8v45h200l147 -467l154 467h197v-45l-66 -5v-561l66 -4v-44h-253v44l80 6v518z" />
    <glyph glyph-name="N" unicode="N" horiz-adv-x="656" 
d="M31 0v44l66 10v554l-66 6v45h196l286 -445v385l-78 15v45h191v-45l-57 -14v-600h-49l-367 571v-511l100 -16v-44h-222z" />
    <glyph glyph-name="O" unicode="O" horiz-adv-x="678" 
d="M339 32q184 0 184 293q0 295 -184 295q-89 0 -137 -75t-48 -220q0 -144 48 -218.5t137 -74.5zM339 -18q-123 0 -214 95.5t-91 247.5q0 151 91.5 248t213.5 97t213.5 -97t91.5 -248q0 -152 -91 -247.5t-214 -95.5z" />
    <glyph glyph-name="P" unicode="P" horiz-adv-x="548" 
d="M31 0v44l67 5v560l-67 5v45h253q116 0 180 -50t64 -137q0 -93 -65 -144t-173 -51q-41 0 -81 6v-233l80 -6v-44h-258zM276 610h-67v-284q32 -2 62 -2q78 0 109 31.5t31 111.5q0 75 -32.5 109t-102.5 34z" />
    <glyph glyph-name="Q" unicode="Q" horiz-adv-x="678" 
d="M493 -198q-84 0 -136.5 45.5t-81.5 142.5q-102 23 -171.5 114t-69.5 221q0 151 91.5 248t213.5 97t213.5 -97t91.5 -248q0 -132 -71 -223.5t-174 -112.5q34 -131 130 -131q45 0 79 14l12 -42q-54 -28 -127 -28zM339 32q184 0 184 293q0 295 -184 295q-89 0 -137 -75
t-48 -220q0 -144 48 -218.5t137 -74.5z" />
    <glyph glyph-name="R" unicode="R" horiz-adv-x="623" 
d="M31 0v44l67 6v559l-67 5v45h251q106 0 173 -43t67 -121q0 -65 -45.5 -108t-112.5 -59v-3q61 -9 92 -44.5t44 -98.5q18 -81 31 -108.5t44 -27.5q22 0 40 12l17 -34q-49 -33 -105 -33q-71 0 -100 46.5t-43 141.5q-12 77 -34 103.5t-75 26.5h-66v-258l75 -7v-44h-253z
M277 610h-68v-256h82q65 0 89.5 28t24.5 98q0 74 -35.5 102t-92.5 28z" />
    <glyph glyph-name="S" unicode="S" horiz-adv-x="522" 
d="M273 -18q-120 0 -178 81l-17 -50h-39v204l43 -2q9 -54 28 -92t44.5 -57t51.5 -27t56 -8q61 0 101 28.5t40 85.5q0 53 -39 84t-122 57q-98 33 -145 74t-47 122q0 88 56.5 138t138.5 50q103 0 151 -65l15 41h36v-168h-40q-16 68 -57.5 105.5t-103.5 37.5q-54 0 -86 -27
t-32 -72q0 -49 35 -73.5t122 -53.5q97 -33 150 -79.5t53 -131.5q0 -99 -62 -150.5t-153 -51.5z" />
    <glyph glyph-name="T" unicode="T" horiz-adv-x="591" 
d="M162 0v44l78 8v558h-62q-49 0 -67.5 -14.5t-26.5 -71.5l-11 -83h-42v218h529v-218h-42l-11 83q-8 57 -26.5 71.5t-67.5 14.5h-61v-558l78 -8v-44h-268z" />
    <glyph glyph-name="U" unicode="U" horiz-adv-x="641" 
d="M330 -13q-120 0 -181 59.5t-61 159.5v404l-59 4v45h252v-45l-84 -6v-388q0 -87 34.5 -131.5t116.5 -44.5q79 0 113.5 44t34.5 132v380l-78 14v45h194v-45l-60 -14v-389q0 -102 -53.5 -163t-168.5 -61z" />
    <glyph glyph-name="V" unicode="V" horiz-adv-x="631" 
d="M280 -11l-205 621l-55 4v45h243v-45l-72 -5l152 -484h2l148 470l-80 19v45h198v-45l-61 -17l-200 -608h-70z" />
    <glyph glyph-name="W" unicode="W" horiz-adv-x="884" 
d="M565 -11l-114 393l-130 -393h-72l-173 621l-50 4v45h225v-45l-58 -4l123 -475h1l108 331l-44 144l-49 4v45h205v-45l-47 -4l132 -474h1l123 459l-73 19v45h185v-45l-55 -16l-166 -609h-72z" />
    <glyph glyph-name="X" unicode="X" horiz-adv-x="633" 
d="M363 0v44l64 5l-139 236l-131 -225l79 -16v-44h-212v44l73 18l163 270l-163 277l-55 5v45h244v-45l-66 -4l122 -205l114 191l-70 18v45h197v-45l-70 -19l-144 -237l183 -309l57 -5v-44h-246z" />
    <glyph glyph-name="Y" unicode="Y" horiz-adv-x="589" 
d="M166 0v44l79 8v259l-180 299l-45 4v45h238v-45l-66 -4l142 -248l124 233l-68 19v45h179v-45l-56 -20l-156 -290v-253l78 -7v-44h-269z" />
    <glyph glyph-name="Z" unicode="Z" horiz-adv-x="577" 
d="M73 447v212h455v-31l-352 -578h162q82 0 105.5 12t29.5 56l19 112h41v-230h-490v29l351 581h-159q-62 0 -79.5 -12t-25.5 -59l-17 -92h-40z" />
    <glyph glyph-name="bracketleft" unicode="[" horiz-adv-x="344" 
d="M92 -181v932h225v-44l-137 -6v-831l137 -8v-43h-225z" />
    <glyph glyph-name="backslash" unicode="\" horiz-adv-x="377" 
d="M333 -181l-314 932h55l315 -932h-56z" />
    <glyph glyph-name="bracketright" unicode="]" horiz-adv-x="344" 
d="M252 751v-932h-225v43l137 8v831l-137 6v44h225z" />
    <glyph glyph-name="asciicircum" unicode="^" horiz-adv-x="397" 
d="M333 418l-135 150l-134 -150h-38l132 241h81l132 -241h-38z" />
    <glyph glyph-name="underscore" unicode="_" horiz-adv-x="387" 
d="M-2 -222v50h390v-50h-390z" />
    <glyph glyph-name="grave" unicode="`" horiz-adv-x="481" 
d="M277 538l-96 96q-23 23 -23 43t15 33t32 13q34 0 47 -39l53 -146h-28z" />
    <glyph glyph-name="a" unicode="a" horiz-adv-x="486" 
d="M160 -12q-57 0 -95.5 31.5t-38.5 91.5q0 68 51.5 105.5t130.5 37.5q42 0 82 -14v123q0 74 -78 74q-30 0 -56 -12q-17 -8 -17 -17q0 -4 7 -8.5t14 -14t7 -26.5q0 -21 -15.5 -34t-37.5 -13q-24 0 -39 16t-15 43q0 51 52.5 77.5t118.5 26.5q77 0 117 -26t40 -90v-270
q0 -36 32 -36q24 0 47 15l17 -23q-39 -54 -104 -54q-66 0 -86 66q-61 -69 -134 -69zM206 48q44 0 84 35v122q-41 9 -72 9q-39 0 -65 -21.5t-26 -64.5q0 -38 21.5 -59t57.5 -21z" />
    <glyph glyph-name="b" unicode="b" horiz-adv-x="557" 
d="M178 -7l-157 11v43l70 -2v592l-72 -6v45l161 35l9 -4v-281q67 57 147 57q91 0 141 -67t50 -192q0 -108 -60 -172.5t-143 -64.5q-46 0 -76 13.5t-59 42.5v-11h-2v-39h-9zM298 423q-56 0 -109 -35v-302q44 -41 104 -41q128 0 128 186q0 192 -123 192z" />
    <glyph glyph-name="c" unicode="c" horiz-adv-x="456" 
d="M249 -18q-100 0 -160 64.5t-60 171.5q0 118 72 191.5t170 73.5q65 0 108 -29t43 -76q0 -50 -57 -50q-40 0 -45 35q-1 5 -2.5 20.5t-3.5 21.5t-6.5 15t-14 12.5t-24.5 3.5q-64 0 -98.5 -54t-34.5 -147q0 -95 34 -142.5t96 -47.5q51 0 84 30t48 76l34 -10
q-17 -71 -62.5 -115t-120.5 -44z" />
    <glyph glyph-name="d" unicode="d" horiz-adv-x="553" 
d="M232 -18q-90 0 -146.5 69t-56.5 179q0 117 68 185t156 68q65 0 113 -31v185l-87 -6v46l175 34l10 -4v-648l73 2v-42l-160 -26l-10 4l2 49q-57 -64 -137 -64zM276 45q51 0 90 37v317q-43 32 -88 32q-65 0 -104 -51.5t-39 -149.5q0 -83 39 -134t102 -51z" />
    <glyph glyph-name="e" unicode="e" horiz-adv-x="475" 
d="M256 -18q-104 0 -165.5 70t-61.5 178q0 109 68.5 181t160.5 72q82 0 135 -53.5t51 -163.5l-5 -8h-304v-22q0 -86 38.5 -139t102.5 -53q103 0 140 101l33 -15q-46 -148 -193 -148zM253 438q-46 0 -75 -37t-39 -100h204q-2 72 -23 104.5t-67 32.5z" />
    <glyph glyph-name="f" unicode="f" horiz-adv-x="336" 
d="M23 419v36q45 7 66 21v5q0 109 59.5 173.5t144.5 64.5q56 0 90 -26t34 -70q0 -31 -18 -49t-43 -18q-23 0 -39 13t-16 35q0 20 14.5 34.5t14.5 18.5q0 15 -37 15q-51 0 -78.5 -40.5t-27.5 -115.5v-49h126v-48h-126v-371l79 -5v-43h-247v43l70 4v372h-66z" />
    <glyph glyph-name="g" unicode="g" horiz-adv-x="532" 
d="M240 143q-51 0 -96 20q-39 -15 -39 -53q0 -47 82 -47q35 0 82 1.5t55 1.5q81 0 126 -29t45 -100q0 -88 -74 -138t-193 -50q-107 0 -168.5 32t-61.5 86q0 37 30.5 64.5t81.5 40.5q-37 12 -57 37.5t-20 58.5q0 75 87 108q-74 48 -74 135q0 75 57.5 123.5t135.5 48.5
q58 0 103 -25t64 -79h3q2 50 24 74.5t53 24.5q24 0 38.5 -13t14.5 -37q0 -14 -8 -25.5t-11.5 -13.5t-15.5 -9q-10 19 -31 19q-17 0 -29.5 -16t-12.5 -45q0 -3 0.5 -14t0.5 -18q0 -72 -56 -117.5t-136 -45.5zM170 -36q-10 0 -28 2q-58 -27 -58 -83q0 -89 147 -89
q84 0 135.5 26.5t51.5 80.5q0 68 -99 68q-33 0 -84 -2.5t-65 -2.5zM240 182q51 0 74 31.5t23 97.5q0 128 -97 128q-96 0 -96 -128q0 -66 23 -97.5t73 -31.5z" />
    <glyph glyph-name="h" unicode="h" horiz-adv-x="545" 
d="M19 0v43l70 4v590l-73 -6v45l163 35l8 -4v-316q29 32 64 58q48 35 90 35q127 0 127 -135v-304l60 -2v-43h-221v43l62 3v296q0 65 -72 65q-50 0 -110 -45v-314l58 -5v-43h-226z" />
    <glyph glyph-name="i" unicode="i" horiz-adv-x="275" 
d="M19 0v43l73 4v354l-77 -10v46l166 40l9 -5v-424l68 -5v-43h-239zM140 568q-26 0 -43 17t-17 42q0 24 17 41t43 17t44 -17t18 -41q0 -25 -18 -42t-44 -17z" />
    <glyph glyph-name="j" unicode="j" horiz-adv-x="272" 
d="M2 -248q-29 0 -46 15.5t-17 39.5q0 22 10.5 35.5t29.5 13.5q36 0 69 -38q47 24 47 116v467l-77 -10v46l165 40l10 -5v-473q0 -97 -55 -172t-136 -75zM143 570q-24 0 -41.5 17t-17.5 42q0 24 17.5 41t41.5 17q26 0 44 -16.5t18 -41.5t-18 -42t-44 -17z" />
    <glyph glyph-name="k" unicode="k" horiz-adv-x="527" 
d="M19 0v43l70 5v588l-70 -11v46l159 40l9 -4v-660l58 -4v-43h-226zM312 0v43l46 3l-161 195v12l160 160l-63 13v41h194v-41l-71 -11l-135 -135l193 -234l42 -3v-43h-205z" />
    <glyph glyph-name="l" unicode="l" horiz-adv-x="281" 
d="M19 0v43l76 5v589l-81 -10v47l170 37l9 -4v-660l70 -4v-43h-244z" />
    <glyph glyph-name="m" unicode="m" horiz-adv-x="810" 
d="M19 0v43l73 5v357l-71 -8v47l160 33l9 -5v-76q29 34 61 57q46 31 89 31q93 0 114 -84q25 27 63 54q46 30 92 30q122 0 122 -135v-304l60 -2v-43h-210v43l52 2v297q0 65 -67 65q-54 0 -106 -36v-325l59 -3v-43h-208v43l51 2v297q0 65 -67 65q-56 0 -105 -38v-322l59 -4
v-43h-230z" />
    <glyph glyph-name="n" unicode="n" horiz-adv-x="550" 
d="M19 0v43l73 5v353l-71 -12v46l160 42l9 -5v-83q28 35 63 60q48 35 91 35q126 0 126 -135v-303l61 -3v-43h-215v43l57 2v297q0 65 -73 65q-48 0 -110 -45v-315l64 -4v-43h-235z" />
    <glyph glyph-name="o" unicode="o" horiz-adv-x="525" 
d="M263 28q65 0 96 55.5t31 148.5t-31 148.5t-96 55.5q-66 0 -97 -55.5t-31 -148.5q0 -94 31 -149t97 -55zM263 -18q-94 0 -164 70t-70 180t70 180.5t164 70.5t163.5 -70.5t69.5 -180.5t-69.5 -180t-163.5 -70z" />
    <glyph glyph-name="p" unicode="p" horiz-adv-x="559" 
d="M22 -235v41l70 5v590l-73 -13v45l162 44l9 -5v-61q67 72 152 72q82 0 133.5 -66t51.5 -175q0 -119 -65 -187t-148 -68q-67 0 -124 31v-207l79 -5v-41h-247zM295 419q-59 0 -105 -41v-308q46 -31 97 -31q63 0 98.5 49t35.5 148q0 85 -32.5 134t-93.5 49z" />
    <glyph glyph-name="q" unicode="q" horiz-adv-x="552" 
d="M289 -235v41l77 5v231q-61 -55 -132 -55q-91 0 -147.5 66t-56.5 176q0 121 59.5 187.5t146.5 66.5q79 0 133 -56v44l9 7l144 -14v-45l-58 3v-611l71 -5v-41h-246zM270 46q46 0 96 33v311q-43 35 -100 35t-93.5 -46.5t-36.5 -143.5q0 -88 35 -138.5t99 -50.5z" />
    <glyph glyph-name="r" unicode="r" horiz-adv-x="411" 
d="M19 0v43l73 5v352l-77 -14v46l166 45l9 -5v-87q87 98 145 98q30 0 47 -17.5t17 -49.5q0 -29 -17.5 -48t-46.5 -19q-22 0 -37 11q1 44 -23 44q-25 0 -85 -50v-307l83 -4v-43h-254z" />
    <glyph glyph-name="s" unicode="s" horiz-adv-x="392" 
d="M183 -14q-70 0 -113.5 29.5t-43.5 69.5q0 51 48 51q26 0 39 -10q-4 -47 16 -72.5t62 -25.5q33 0 58.5 18.5t25.5 50.5q0 35 -22 54.5t-76 42.5q-67 24 -99 55.5t-32 89.5q0 59 47 100t116 41q64 0 101.5 -26t37.5 -64q0 -42 -45 -42q-20 0 -36 10q-3 42 -18 60.5
t-51 18.5q-32 0 -53 -17t-21 -49q0 -28 21 -46.5t74 -40.5q75 -29 110 -62.5t35 -87.5q0 -69 -48 -108.5t-133 -39.5z" />
    <glyph glyph-name="t" unicode="t" horiz-adv-x="344" 
d="M195 -13q-60 0 -87 26t-27 80v328l-62 -2v38q47 10 74.5 35.5t48.5 77.5l37 -1v-102h133v-48h-133v-306q0 -34 14.5 -50t53.5 -16q28 0 77 17l8 -31q-57 -46 -137 -46z" />
    <glyph glyph-name="u" unicode="u" horiz-adv-x="543" 
d="M210 -16q-62 0 -97 32.5t-35 98.5v306l-60 3v42h158v-343q0 -71 69 -71q51 0 113 44v323l-58 5v42h156v-410l71 3v-41l-158 -26l-10 4l3 76q-31 -38 -60 -54q-47 -34 -92 -34z" />
    <glyph glyph-name="v" unicode="v" horiz-adv-x="487" 
d="M222 -10l-171 432l-41 3v42h220v-42l-66 -4l103 -293h3l109 280l-64 17v42h163v-42l-47 -16l-165 -419h-44z" />
    <glyph glyph-name="w" unicode="w" horiz-adv-x="720" 
d="M484 -10l-116 316h-2l-131 -316h-44l-140 432l-39 3v42h205v-42l-58 -4l86 -284h2l97 234l-18 49l-46 5v42h204v-42l-56 -4l98 -283h3l86 274l-62 13v42h155v-42l-41 -8l-138 -427h-45z" />
    <glyph glyph-name="x" unicode="x" horiz-adv-x="484" 
d="M259 0v41l58 4l-99 148l-95 -139l62 -13v-41h-172v43l53 10l126 178l-134 191l-40 3v42h210v-41l-52 -4l91 -137l86 128l-57 13v41h155v-42l-41 -9l-118 -168l142 -203l38 -2v-43h-213z" />
    <glyph glyph-name="y" unicode="y" horiz-adv-x="500" 
d="M113 -243q-36 0 -56.5 20t-20.5 44q0 23 14.5 37t34.5 14q18 0 28 -10q0 -42 31 -42q38 0 83 128l11 33l-188 441l-41 3v42h219v-42l-63 -4l120 -308h1l107 296l-62 16v42h160v-42l-45 -13l-173 -468q-37 -104 -71.5 -145.5t-88.5 -41.5z" />
    <glyph glyph-name="z" unicode="z" horiz-adv-x="452" 
d="M50 333v134h355v-32l-250 -392h93q64 0 86.5 14t26.5 63l3 27h38v-147h-366v32l258 395h-76q-74 0 -96.5 -11.5t-28.5 -54.5l-5 -28h-38z" />
    <glyph glyph-name="braceleft" unicode="{" horiz-adv-x="358" 
d="M332 -180h-61q-89 0 -128.5 40.5t-27.5 128.5l19 172q8 55 -16.5 74.5t-100.5 25.5v49q78 9 101.5 26.5t15.5 72.5l-19 173q-12 88 27.5 128.5t128.5 40.5h61v-43l-42 -2q-57 -4 -74 -24.5t-13 -93.5l6 -153q2 -72 -20.5 -102t-82.5 -45v-5q61 -15 83 -44.5t20 -102.5
l-6 -153q-4 -73 12.5 -93.5t74.5 -24.5l42 -2v-43z" />
    <glyph glyph-name="bar" unicode="|" horiz-adv-x="227" 
d="M87 -181v932h54v-932h-54z" />
    <glyph glyph-name="braceright" unicode="}" horiz-adv-x="358" 
d="M83 -180h-61v43l42 2q58 4 73.5 24t13.5 94l-6 153q-2 73 20 102.5t83 44.5v5q-60 15 -82.5 45t-20.5 102l6 153q2 52 -5.5 75.5t-24.5 31.5t-57 11l-42 2v43h61q89 0 128.5 -40.5t27.5 -128.5l-19 -173q-8 -55 15.5 -72.5t101.5 -26.5v-49q-76 -6 -100.5 -25.5
t-16.5 -74.5l19 -172q12 -88 -27.5 -128.5t-128.5 -40.5z" />
    <glyph glyph-name="asciitilde" unicode="~" horiz-adv-x="372" 
d="M70 183h-37q10 57 37 93t67 36q21 0 63 -8t56 -8q30 1 46 44h38q-10 -57 -36.5 -92.5t-64.5 -36.5q-22 0 -65 7.5t-57 7.5q-34 0 -47 -43z" />
    <glyph glyph-name="Zcaron" horiz-adv-x="577" 
d="M174 852h32l102 -70l103 70h31l-95 -136h-77zM73 447v212h455v-31l-352 -578h162q82 0 105.5 12t29.5 56l19 112h41v-230h-490v29l351 581h-159q-62 0 -79.5 -12t-25.5 -59l-17 -92h-40z" />
    <glyph glyph-name="Zcaron" unicode="&#x17d;" horiz-adv-x="577" 
d="M174 852h32l102 -70l103 70h31l-95 -136h-77zM73 447v212h455v-31l-352 -578h162q82 0 105.5 12t29.5 56l19 112h41v-230h-490v29l351 581h-159q-62 0 -79.5 -12t-25.5 -59l-17 -92h-40z" />
    <glyph glyph-name="zcaron" horiz-adv-x="452" 
d="M101 705h32l96 -87l95 87h32l-91 -158h-73zM50 333v134h355v-32l-250 -392h93q64 0 86.5 14t26.5 63l3 27h38v-147h-366v32l258 395h-76q-74 0 -96.5 -11.5t-28.5 -54.5l-5 -28h-38z" />
    <glyph glyph-name="zcaron" unicode="&#x17e;" horiz-adv-x="452" 
d="M101 705h32l96 -87l95 87h32l-91 -158h-73zM50 333v134h355v-32l-250 -392h93q64 0 86.5 14t26.5 63l3 27h38v-147h-366v32l258 395h-76q-74 0 -96.5 -11.5t-28.5 -54.5l-5 -28h-38z" />
    <glyph glyph-name="uni00A0" unicode="&#xa0;" horiz-adv-x="220" 
 />
    <glyph glyph-name="exclamdown" unicode="&#xa1;" horiz-adv-x="237" 
d="M136 278l47 -389q6 -35 -13.5 -57.5t-50.5 -22.5q-32 0 -51.5 22.5t-12.5 57.5l46 389h35zM119 498q28 0 46.5 -19t18.5 -48t-18.5 -47.5t-46.5 -18.5q-29 0 -47.5 18.5t-18.5 47.5t18.5 48t47.5 19z" />
    <glyph glyph-name="cent" unicode="&#xa2;" horiz-adv-x="455" 
d="M229 -113v96q-93 7 -146.5 69.5t-53.5 165.5q0 105 57 174.5t143 86.5v83h43v-79q64 0 107 -29t43 -76q0 -50 -55 -50q-38 0 -44 35q-1 5 -2 17t-2 17.5t-4 14.5t-8 13.5t-14 8t-21 4.5v-394q89 4 126 107l33 -10q-34 -143 -159 -158v-96h-43zM133 235q0 -163 96 -187
v383q-96 -32 -96 -196z" />
    <glyph glyph-name="sterling" unicode="&#xa3;" horiz-adv-x="524" 
d="M63 280v42h72q-28 75 -28 124q0 93 57 150t152 57q74 0 122 -39t48 -102q0 -37 -18 -57t-47 -20q-24 0 -41.5 14.5t-17.5 33.5q0 20 19 39t19 34q0 18 -22.5 34t-53.5 16q-45 0 -74 -34.5t-29 -93.5q0 -67 20 -156h159v-42h-151q11 -55 11 -104q0 -32 -7 -69
q77 -28 132 -28q43 0 61.5 19t27.5 63l33 -6q-7 -83 -35.5 -128t-93.5 -45q-30 0 -59 10t-46.5 21t-43.5 31q-38 -62 -114 -62q-44 0 -68 21.5t-24 57.5q0 40 26 61.5t68 21.5q32 0 77 -15q-5 45 -44 151h-87zM117 24q56 0 73 48q-42 28 -76 28q-43 0 -43 -39q0 -37 46 -37z
" />
    <glyph glyph-name="yen" unicode="&#xa5;" horiz-adv-x="529" 
d="M67 309v40h138l-142 246l-43 3v44h227v-44l-67 -5l121 -217l104 203l-68 19v44h171v-44l-50 -19l-119 -230h133v-40h-147v-68h147v-42h-147v-149l76 -7v-43h-260v43l78 8v148h-152v42h152v68h-152z" />
    <glyph glyph-name="brokenbar" unicode="&#xa6;" horiz-adv-x="227" 
d="M87 -181v431h53v-431h-53zM87 337v414h53v-414h-53z" />
    <glyph glyph-name="section" unicode="&#xa7;" horiz-adv-x="491" 
d="M230 -156q-86 0 -136 35.5t-50 84.5q0 30 15 45.5t40 15.5q34 0 45 -26q-23 -54 4 -82t87 -28q45 0 74 24t29 70q0 40 -29.5 62.5t-101.5 55.5q-8 3 -12 5q-90 39 -129 73.5t-39 97.5q0 85 91 129q-40 40 -40 107q0 75 50.5 117.5t126.5 42.5q72 0 120 -30.5t48 -78.5
q0 -26 -14 -40t-38 -14q-15 0 -27 8t-15 20q15 44 -6 67t-73 23q-43 0 -70 -22.5t-27 -61.5q0 -41 22.5 -61.5t95.5 -54.5q53 -23 81 -37.5t57.5 -37t41.5 -49.5t12 -63q0 -73 -91 -122q50 -44 50 -108q0 -81 -53.5 -124t-138.5 -43zM245 332q-71 31 -103 54
q-40 -29 -40 -76q0 -34 26 -55.5t104 -56.5q78 -36 113 -58q37 26 37 68t-29.5 65.5t-107.5 58.5z" />
    <glyph glyph-name="dieresis" unicode="&#xa8;" horiz-adv-x="481" 
d="M151 568q-23 0 -39 15.5t-16 39.5q0 23 16 38.5t39 15.5t39 -15.5t16 -38.5q0 -24 -16 -39.5t-39 -15.5zM332 568q-24 0 -40 15.5t-16 39.5q0 23 16.5 38.5t39.5 15.5t39.5 -15.5t16.5 -38.5q0 -24 -16 -39.5t-40 -15.5z" />
    <glyph glyph-name="copyright" unicode="&#xa9;" horiz-adv-x="734" 
d="M367 -19q-134 0 -234 95.5t-100 247.5t100 249t234 97t234.5 -97t100.5 -249t-100.5 -247.5t-234.5 -95.5zM367 23q116 0 200.5 83t84.5 218t-85 219.5t-200 84.5q-116 0 -200.5 -84.5t-84.5 -219.5q0 -136 84.5 -218.5t200.5 -82.5zM368 127q-85 0 -133 53t-48 145
q0 88 53.5 143.5t126.5 55.5q69 0 104 -47l10 37h30v-125h-39q-20 90 -95 90q-46 0 -72 -38.5t-26 -114.5q0 -77 25.5 -113t79.5 -36q67 0 98 71l37 -16q-44 -105 -151 -105z" />
    <glyph glyph-name="ordfeminine" unicode="&#xaa;" horiz-adv-x="429" 
d="M141 241q-49 0 -81.5 26.5t-32.5 79.5q0 59 43.5 91.5t113.5 32.5q41 0 70 -10v101q0 63 -66 63q-22 0 -46 -10q-14 -8 -14 -13q0 -2 11.5 -13t11.5 -29t-13.5 -30t-32.5 -12q-22 0 -36.5 14t-14.5 37q0 47 47.5 73t104.5 26q139 0 139 -108v-230q0 -18 6.5 -25t21.5 -7
q22 0 40 13l14 -20q-34 -49 -92 -49q-59 0 -77 58q-51 -59 -117 -59zM186 298q37 0 68 26v102q-38 8 -59 8q-33 0 -54.5 -17.5t-21.5 -53.5q0 -32 18.5 -48.5t48.5 -16.5z" />
    <glyph glyph-name="guillemotleft" unicode="&#xab;" horiz-adv-x="419" 
d="M195 411l20 -22l-101 -151l101 -149l-20 -22l-165 152v40zM360 411l20 -22l-101 -151l101 -149l-20 -22l-165 152v40z" />
    <glyph glyph-name="registered" unicode="&#xae;" horiz-adv-x="505" 
d="M253 221q-89 0 -156 64t-67 164q0 99 67 163.5t156 64.5q88 0 155 -65t67 -163q0 -100 -67 -164t-155 -64zM253 254q75 2 129.5 54.5t54.5 140.5q0 87 -55 141t-129 54q-75 0 -130 -54t-55 -141q0 -88 54.5 -140.5t130.5 -54.5zM149 336v30l21 2v169l-21 1v30h107
q40 0 65 -15.5t25 -45.5q0 -44 -57 -57v-1q22 -4 32.5 -14.5t17.5 -32.5q1 -4 3 -10.5t2.5 -9.5t2 -7t3 -6l3 -4t3.5 -2.5t5 -0.5q1 0 10 3l9 -19q-18 -14 -41 -14q-30 0 -42 15.5t-19 47.5q-4 27 -9 35t-22 8h-19v-69l24 -3v-30h-103zM249 539h-21v-76h24q19 0 26.5 9
t7.5 29q0 38 -37 38z" />
    <glyph glyph-name="overscore" unicode="&#xaf;" horiz-adv-x="481" 
d="M117 592v56h247v-56h-247z" />
    <glyph glyph-name="degree" unicode="&#xb0;" horiz-adv-x="363" 
d="M181 429q41 0 65.5 28t24.5 71q0 41 -25 70t-65 29t-64 -28.5t-24 -70.5q0 -43 23.5 -71t64.5 -28zM181 385q-62 0 -102 40.5t-40 102.5q0 59 40.5 100.5t101.5 41.5q60 0 101.5 -41.5t41.5 -100.5q0 -61 -41.5 -102t-101.5 -41z" />
    <glyph glyph-name="plusminus" unicode="&#xb1;" horiz-adv-x="459" 
d="M39 262v53h164v171h55v-171h162v-53h-162v-138h-55v138h-164zM39 0v53h381v-53h-381z" />
    <glyph glyph-name="acute" unicode="&#xb4;" horiz-adv-x="481" 
d="M176 538l54 146q13 39 47 39q16 0 31 -13t15 -33q0 -24 -22 -43l-96 -96h-29z" />
    <glyph glyph-name="paragraph" unicode="&#xb6;" horiz-adv-x="529" 
d="M499 614l-68 -7v-788h-55v791h-89v-791h-55v472h-12q-93 0 -147 50t-54 136q0 83 54 132.5t152 49.5h274v-45z" />
    <glyph glyph-name="middot" unicode="&#xb7;" horiz-adv-x="217" 
d="M109 203q-29 0 -47.5 19t-18.5 48q0 28 18.5 46.5t47.5 18.5t47.5 -18.5t18.5 -46.5q0 -29 -18.5 -48t-47.5 -19z" />
    <glyph glyph-name="cedilla" unicode="&#xb8;" horiz-adv-x="481" 
d="M215 -235q-50 0 -89 18l9 33q37 -10 60 -10q24 0 38.5 11t14.5 31q0 53 -74 39v133h44v-91q46 6 78.5 -15.5t32.5 -61.5t-31.5 -63.5t-82.5 -23.5z" />
    <glyph glyph-name="ordmasculine" unicode="&#xba;" horiz-adv-x="464" 
d="M233 282q104 0 104 170q0 79 -25.5 124.5t-78.5 45.5q-54 0 -80 -45.5t-26 -124.5t26 -124.5t80 -45.5zM233 236q-82 0 -143 60t-61 156t61 156t143 60q81 0 142 -60.5t61 -155.5q0 -96 -60.5 -156t-142.5 -60z" />
    <glyph glyph-name="guillemotright" unicode="&#xbb;" horiz-adv-x="419" 
d="M39 389l21 22l164 -152v-40l-164 -152l-21 22l101 150zM204 389l21 22l164 -152v-40l-164 -152l-21 22l101 150z" />
    <glyph glyph-name="onequarter" unicode="&#xbc;" horiz-adv-x="686" 
d="M49 -20l537 699l33 -26l-538 -699zM533 0v83h-148v21l134 245h50l-132 -231h96v122l78 7v-129h54v-35h-54v-83h-78zM17 558v43l106 64h41v-312l57 -4v-39h-198v39l60 4v233z" />
    <glyph glyph-name="onehalf" unicode="&#xbd;" horiz-adv-x="690" 
d="M39 -20l537 699l33 -26l-538 -699zM408 0l-2 47q38 30 55 43.5t44 38.5t39 41.5t21.5 38t9.5 43.5q0 65 -55 65q-20 0 -32.5 -8t-12.5 -20q0 -5 10 -16t10 -22q0 -15 -10.5 -25t-27.5 -10q-21 0 -33.5 13t-12.5 37q0 39 35 64t86 25q64 0 96 -30t32 -73
q0 -28 -14.5 -53.5t-47 -52t-57 -42.5t-70.5 -44h106q27 0 36 5t14 23l5 16h32l-11 -104h-245zM17 558v43l106 64h41v-312l57 -4v-39h-198v39l60 4v233z" />
    <glyph glyph-name="threequarters" unicode="&#xbe;" horiz-adv-x="703" 
d="M65 -23l537 699l33 -26l-538 -699zM550 -3v83h-148v21l134 245h50l-132 -231h96v122l78 7v-129h54v-35h-54v-83h-78zM133 300q-57 0 -88 23t-31 59q0 22 13.5 35.5t31.5 13.5q16 0 26.5 -10t10.5 -23t-10 -22.5t-10 -11.5q0 -26 46 -26q37 0 54.5 17.5t17.5 56.5
q0 61 -76 61h-29v35h28q66 0 66 71q0 48 -53 48q-15 0 -25.5 -5t-10.5 -12q0 -2 7 -10t7 -19q0 -14 -9.5 -22.5t-25.5 -8.5q-18 0 -28.5 11.5t-10.5 29.5q0 36 33.5 55t79.5 19q55 0 86.5 -23.5t31.5 -61.5q0 -30 -23 -53t-59 -31v-3q98 -12 98 -86q0 -48 -40.5 -77.5
t-107.5 -29.5z" />
    <glyph glyph-name="questiondown" unicode="&#xbf;" horiz-adv-x="406" 
d="M235 498q29 0 47.5 -19t18.5 -48t-18.5 -47.5t-47.5 -18.5t-47.5 18.5t-18.5 47.5t18.5 48t47.5 19zM220 278h45q7 -30 6 -54q-3 -38 -26.5 -76.5t-50 -65t-48.5 -63t-22 -72.5q0 -43 24.5 -65.5t69.5 -22.5q76 0 76 58q0 27 -30 35q-9 21 -9 32q0 18 13 31t36 13
q31 0 51.5 -21.5t20.5 -58.5q0 -60 -49 -99.5t-122 -39.5q-78 0 -129.5 42t-51.5 116q0 39 17 73.5t34.5 52.5t52 46t45.5 38q55 50 47 101z" />
    <glyph glyph-name="Agrave" unicode="&#xc0;" horiz-adv-x="655" 
d="M384 0v44l78 5l-60 170h-213l-53 -154l98 -21v-44h-216v44l60 16l215 610h68l219 -623l57 -3v-44h-253zM294 521l-90 -258h182l-91 258h-1zM385 716h-30l-89 59q-32 20 -32 47q0 23 15.5 37t34.5 14q32 0 49 -45z" />
    <glyph glyph-name="Aacute" unicode="&#xc1;" horiz-adv-x="655" 
d="M384 0v44l78 5l-60 170h-213l-53 -154l98 -21v-44h-216v44l60 16l215 610h68l219 -623l57 -3v-44h-253zM294 521l-90 -258h182l-91 258h-1zM323 716h-29l51 112q15 45 50 45q18 0 34 -14.5t16 -36.5q0 -28 -33 -47z" />
    <glyph glyph-name="Acircumflex" unicode="&#xc2;" horiz-adv-x="655" 
d="M384 0v44l78 5l-60 170h-213l-53 -154l98 -21v-44h-216v44l60 16l215 610h68l219 -623l57 -3v-44h-253zM294 521l-90 -258h182l-91 258h-1zM232 716h-32l96 136h77l95 -136h-31l-104 67z" />
    <glyph glyph-name="Atilde" unicode="&#xc3;" horiz-adv-x="655" 
d="M384 0v44l78 5l-60 170h-213l-53 -154l98 -21v-44h-216v44l60 16l215 610h68l219 -623l57 -3v-44h-253zM294 521l-90 -258h182l-91 258h-1zM401 738q-21 0 -67.5 14t-62.5 14q-32 -1 -46 -42h-37q11 51 36 85t64 34q20 0 66.5 -14t61.5 -14q32 2 44 42h39
q-11 -50 -36 -84.5t-62 -34.5z" />
    <glyph glyph-name="Adieresis" unicode="&#xc4;" horiz-adv-x="655" 
d="M384 0v44l78 5l-60 170h-213l-53 -154l98 -21v-44h-216v44l60 16l215 610h68l219 -623l57 -3v-44h-253zM294 521l-90 -258h182l-91 258h-1zM234 722q-23 0 -39.5 16.5t-16.5 39.5t16.5 39t39.5 16q24 0 40 -16t16 -39t-16 -39.5t-40 -16.5zM432 722q-23 0 -39 16.5
t-16 39.5t16 39t39 16q24 0 40.5 -16t16.5 -39t-16.5 -39.5t-40.5 -16.5z" />
    <glyph glyph-name="Aring" unicode="&#xc5;" horiz-adv-x="655" 
d="M384 0v44l78 5l-60 170h-213l-53 -154l98 -21v-44h-216v44l60 16l215 610h68l219 -623l57 -3v-44h-253zM294 521l-90 -258h182l-91 258h-1zM334 750q23 0 37.5 16t14.5 40t-14.5 40t-37.5 16t-37.5 -16t-14.5 -40t14.5 -40t37.5 -16zM334 716q-38 0 -64 26t-26 64t26 64
t64 26t64.5 -26t26.5 -64t-26.5 -64t-64.5 -26z" />
    <glyph glyph-name="AE" unicode="&#xc6;" horiz-adv-x="879" 
d="M16 0v44l70 19l270 544l-88 7v45h533v-184h-39l-15 89q-5 29 -18 37.5t-47 8.5h-166v-260h62q42 0 45 34l7 78h39v-266h-38l-8 76q-2 20 -12 26.5t-32 6.5h-63v-255h170q58 0 71.5 8t19.5 46l17 100h41v-204h-497v44l67 7v252h-145l-118 -240l93 -19v-44h-219zM403 592
l-121 -244h123v244h-2z" />
    <glyph glyph-name="Ccedilla" unicode="&#xc7;" 
d="M315 -235q-50 0 -89 18l9 33q37 -10 60 -10q24 0 38.5 11t14.5 31q0 53 -74 39v101q-32 6 -60 18q-84 36 -131.5 118t-47.5 198q0 152 93 250t219 98q109 0 181 -85l16 65h36v-202h-40q-24 87 -70 129t-122 42q-85 0 -139 -76t-54 -217q0 -286 206 -286q131 0 192 132
l38 -17q-33 -82 -98 -127.5t-153 -45.5q-15 0 -22 1v-54q46 6 78.5 -15.5t32.5 -61.5t-31.5 -63.5t-82.5 -23.5z" />
    <glyph glyph-name="Egrave" unicode="&#xc8;" horiz-adv-x="597" 
d="M354 716h-30l-89 59q-32 20 -32 47q0 23 15.5 37t34.5 14q32 0 49 -45zM481 475l-16 89q-5 29 -17.5 37.5t-47.5 8.5h-191v-255h87q43 0 46 33l7 79h38v-267h-37l-8 76q-2 21 -12.5 27.5t-33.5 6.5h-87v-260h197q56 0 70.5 8t20.5 46l16 100h41v-204h-523v44l67 7v558
l-67 5v45h489v-184h-39z" />
    <glyph glyph-name="Eacute" unicode="&#xc9;" horiz-adv-x="597" 
d="M294 716h-29l51 112q15 45 50 45q18 0 34 -14.5t16 -36.5q0 -28 -33 -47zM481 475l-16 89q-5 29 -17.5 37.5t-47.5 8.5h-191v-255h87q43 0 46 33l7 79h38v-267h-37l-8 76q-2 21 -12.5 27.5t-33.5 6.5h-87v-260h197q56 0 70.5 8t20.5 46l16 100h41v-204h-523v44l67 7v558
l-67 5v45h489v-184h-39z" />
    <glyph glyph-name="Ecircumflex" unicode="&#xca;" horiz-adv-x="597" 
d="M201 716h-32l96 136h77l95 -136h-31l-104 67zM481 475l-16 89q-5 29 -17.5 37.5t-47.5 8.5h-191v-255h87q43 0 46 33l7 79h38v-267h-37l-8 76q-2 21 -12.5 27.5t-33.5 6.5h-87v-260h197q56 0 70.5 8t20.5 46l16 100h41v-204h-523v44l67 7v558l-67 5v45h489v-184h-39z" />
    <glyph glyph-name="Edieresis" unicode="&#xcb;" horiz-adv-x="597" 
d="M481 475l-16 89q-5 29 -17.5 37.5t-47.5 8.5h-191v-255h87q43 0 46 33l7 79h38v-267h-37l-8 76q-2 21 -12.5 27.5t-33.5 6.5h-87v-260h197q56 0 70.5 8t20.5 46l16 100h41v-204h-523v44l67 7v558l-67 5v45h489v-184h-39zM204 722q-23 0 -39.5 16.5t-16.5 39.5t16.5 39
t39.5 16q24 0 40 -16t16 -39t-16 -39.5t-40 -16.5zM402 722q-23 0 -39 16.5t-16 39.5t16 39t39 16q24 0 40.5 -16t16.5 -39t-16.5 -39.5t-40.5 -16.5z" />
    <glyph glyph-name="Igrave" unicode="&#xcc;" horiz-adv-x="306" 
d="M31 0v44l66 7v556l-66 7v45h244v-45l-66 -6v-556l66 -8v-44h-244zM203 716h-30l-89 59q-32 20 -32 47q0 23 15.5 37t34.5 14q32 0 49 -45z" />
    <glyph glyph-name="Iacute" unicode="&#xcd;" horiz-adv-x="306" 
d="M31 0v44l66 7v556l-66 7v45h244v-45l-66 -6v-556l66 -8v-44h-244zM134 716h-29l51 112q15 45 50 45q18 0 34 -14.5t16 -36.5q0 -28 -33 -47z" />
    <glyph glyph-name="Icircumflex" unicode="&#xce;" horiz-adv-x="306" 
d="M31 0v44l66 7v556l-66 7v45h244v-45l-66 -6v-556l66 -8v-44h-244zM46 716h-32l96 136h77l95 -136h-31l-104 67z" />
    <glyph glyph-name="Idieresis" unicode="&#xcf;" horiz-adv-x="306" 
d="M31 0v44l66 7v556l-66 7v45h244v-45l-66 -6v-556l66 -8v-44h-244zM50 722q-23 0 -39.5 16.5t-16.5 39.5t16.5 39t39.5 16q24 0 40 -16t16 -39t-16 -39.5t-40 -16.5zM248 722q-23 0 -39 16.5t-16 39.5t16 39t39 16q24 0 40.5 -16t16.5 -39t-16.5 -39.5t-40.5 -16.5z" />
    <glyph glyph-name="Eth" unicode="&#xd0;" horiz-adv-x="651" 
d="M20 315v41h78v253l-67 5v45h268q50 0 95 -10.5t86.5 -35t71 -62t47.5 -94t18 -127.5q0 -85 -26 -150t-71 -103.5t-99 -57.5t-115 -19h-275v44l67 6v265h-78zM293 609h-84v-253h155v-41h-155v-265h85q202 0 202 280q0 155 -52.5 217t-150.5 62z" />
    <glyph glyph-name="Ntilde" unicode="&#xd1;" horiz-adv-x="656" 
d="M424 738q-21 0 -67.5 14t-62.5 14q-32 -1 -46 -42h-37q11 51 36 85t64 34q20 0 66.5 -14t61.5 -14q32 2 44 42h39q-11 -50 -36 -84.5t-62 -34.5zM31 0v44l66 10v554l-66 6v45h196l286 -445v385l-78 15v45h191v-45l-57 -14v-600h-49l-367 571v-511l100 -16v-44h-222z" />
    <glyph glyph-name="Ograve" unicode="&#xd2;" horiz-adv-x="678" 
d="M402 716h-30l-89 59q-32 20 -32 47q0 23 15.5 37t34.5 14q32 0 49 -45zM339 32q184 0 184 293q0 295 -184 295q-89 0 -137 -75t-48 -220q0 -144 48 -218.5t137 -74.5zM339 -18q-123 0 -214 95.5t-91 247.5q0 151 91.5 248t213.5 97t213.5 -97t91.5 -248
q0 -152 -91 -247.5t-214 -95.5z" />
    <glyph glyph-name="Oacute" unicode="&#xd3;" horiz-adv-x="678" 
d="M341 716h-29l51 112q15 45 50 45q18 0 34 -14.5t16 -36.5q0 -28 -33 -47zM339 32q184 0 184 293q0 295 -184 295q-89 0 -137 -75t-48 -220q0 -144 48 -218.5t137 -74.5zM339 -18q-123 0 -214 95.5t-91 247.5q0 151 91.5 248t213.5 97t213.5 -97t91.5 -248
q0 -152 -91 -247.5t-214 -95.5z" />
    <glyph glyph-name="Ocircumflex" unicode="&#xd4;" horiz-adv-x="678" 
d="M248 716h-32l96 136h77l95 -136h-31l-104 67zM339 32q184 0 184 293q0 295 -184 295q-89 0 -137 -75t-48 -220q0 -144 48 -218.5t137 -74.5zM339 -18q-123 0 -214 95.5t-91 247.5q0 151 91.5 248t213.5 97t213.5 -97t91.5 -248q0 -152 -91 -247.5t-214 -95.5z" />
    <glyph glyph-name="Otilde" unicode="&#xd5;" horiz-adv-x="678" 
d="M418 738q-21 0 -67.5 14t-62.5 14q-32 -1 -46 -42h-37q11 51 36 85t64 34q20 0 66.5 -14t61.5 -14q32 2 44 42h39q-11 -50 -36 -84.5t-62 -34.5zM339 32q184 0 184 293q0 295 -184 295q-89 0 -137 -75t-48 -220q0 -144 48 -218.5t137 -74.5zM339 -18q-123 0 -214 95.5
t-91 247.5q0 151 91.5 248t213.5 97t213.5 -97t91.5 -248q0 -152 -91 -247.5t-214 -95.5z" />
    <glyph glyph-name="Odieresis" unicode="&#xd6;" horiz-adv-x="678" 
d="M251 722q-23 0 -39.5 16.5t-16.5 39.5t16.5 39t39.5 16q24 0 40 -16t16 -39t-16 -39.5t-40 -16.5zM449 722q-23 0 -39 16.5t-16 39.5t16 39t39 16q24 0 40.5 -16t16.5 -39t-16.5 -39.5t-40.5 -16.5zM339 32q184 0 184 293q0 295 -184 295q-89 0 -137 -75t-48 -220
q0 -144 48 -218.5t137 -74.5zM339 -18q-123 0 -214 95.5t-91 247.5q0 151 91.5 248t213.5 97t213.5 -97t91.5 -248q0 -152 -91 -247.5t-214 -95.5z" />
    <glyph glyph-name="multiply" unicode="&#xd7;" horiz-adv-x="444" 
d="M86 105l-37 37l136 137l-136 138l37 36l136 -137l136 137l38 -36l-137 -138l137 -137l-38 -37l-136 137z" />
    <glyph glyph-name="Oslash" unicode="&#xd8;" horiz-adv-x="678" 
d="M84 -29l-36 26l68 89q-82 96 -82 238q0 153 91.5 249.5t213.5 96.5q97 0 178 -64l61 80l36 -28l-64 -83q94 -99 94 -251t-91 -247.5t-214 -95.5q-106 0 -191 73zM339 31q185 0 185 293q0 114 -26 184l-305 -396q44 -81 146 -81zM154 324q0 -96 19 -164l303 393
q-45 67 -137 67q-89 0 -137 -75.5t-48 -220.5z" />
    <glyph glyph-name="Ugrave" unicode="&#xd9;" horiz-adv-x="641" 
d="M413 716h-30l-89 59q-32 20 -32 47q0 23 15.5 37t34.5 14q32 0 49 -45zM330 -13q-120 0 -181 59.5t-61 159.5v404l-59 4v45h252v-45l-84 -6v-388q0 -87 34.5 -131.5t116.5 -44.5q79 0 113.5 44t34.5 132v380l-78 14v45h194v-45l-60 -14v-389q0 -102 -53.5 -163
t-168.5 -61z" />
    <glyph glyph-name="Uacute" unicode="&#xda;" horiz-adv-x="641" 
d="M350 716h-29l51 112q15 45 50 45q18 0 34 -14.5t16 -36.5q0 -28 -33 -47zM330 -13q-120 0 -181 59.5t-61 159.5v404l-59 4v45h252v-45l-84 -6v-388q0 -87 34.5 -131.5t116.5 -44.5q79 0 113.5 44t34.5 132v380l-78 14v45h194v-45l-60 -14v-389q0 -102 -53.5 -163
t-168.5 -61z" />
    <glyph glyph-name="Ucircumflex" unicode="&#xdb;" horiz-adv-x="641" 
d="M259 716h-32l96 136h77l95 -136h-31l-104 67zM330 -13q-120 0 -181 59.5t-61 159.5v404l-59 4v45h252v-45l-84 -6v-388q0 -87 34.5 -131.5t116.5 -44.5q79 0 113.5 44t34.5 132v380l-78 14v45h194v-45l-60 -14v-389q0 -102 -53.5 -163t-168.5 -61z" />
    <glyph glyph-name="Udieresis" unicode="&#xdc;" horiz-adv-x="641" 
d="M330 -13q-120 0 -181 59.5t-61 159.5v404l-59 4v45h252v-45l-84 -6v-388q0 -87 34.5 -131.5t116.5 -44.5q79 0 113.5 44t34.5 132v380l-78 14v45h194v-45l-60 -14v-389q0 -102 -53.5 -163t-168.5 -61zM262 722q-23 0 -39.5 16.5t-16.5 39.5t16.5 39t39.5 16q24 0 40 -16
t16 -39t-16 -39.5t-40 -16.5zM460 722q-23 0 -39 16.5t-16 39.5t16 39t39 16q24 0 40.5 -16t16.5 -39t-16.5 -39.5t-40.5 -16.5z" />
    <glyph glyph-name="Yacute" unicode="&#xdd;" horiz-adv-x="589" 
d="M166 0v44l79 8v259l-180 299l-45 4v45h238v-45l-66 -4l142 -248l124 233l-68 19v45h179v-45l-56 -20l-156 -290v-253l78 -7v-44h-269zM323 716h-29l51 112q15 45 50 45q18 0 34 -14.5t16 -36.5q0 -28 -33 -47z" />
    <glyph glyph-name="Thorn" unicode="&#xde;" horiz-adv-x="542" 
d="M31 0v44l66 7v556l-66 7v45h244v-45l-66 -6v-95h76q116 0 179.5 -46.5t63.5 -126.5q0 -86 -63.5 -133t-173.5 -47q-42 0 -82 6v-114l66 -8v-44h-244zM275 466h-66v-258q16 -3 62 -3q78 0 108.5 29.5t30.5 101.5q0 69 -32.5 99.5t-102.5 30.5z" />
    <glyph glyph-name="germandbls" unicode="&#xdf;" horiz-adv-x="550" 
d="M23 419v36q45 7 63 19v32q0 97 58.5 155t150.5 58q84 0 130.5 -43t46.5 -107q0 -48 -30.5 -82t-75.5 -47v-3q69 -23 111.5 -83t42.5 -153q0 -102 -49.5 -160.5t-126.5 -58.5q-55 0 -85 21t-30 51q0 49 43 49q19 0 32 -11q-2 -33 7.5 -47.5t32.5 -14.5q33 0 51.5 38.5
t18.5 138.5q0 111 -36 156t-103 45h-26v49h28q49 0 74.5 25t25.5 86q0 104 -83 104q-108 0 -108 -158v-514h-167v43l67 3v373h-63z" />
    <glyph glyph-name="agrave" unicode="&#xe0;" horiz-adv-x="486" 
d="M160 -12q-57 0 -95.5 31.5t-38.5 91.5q0 68 51.5 105.5t130.5 37.5q42 0 82 -14v123q0 74 -78 74q-30 0 -56 -12q-17 -8 -17 -17q0 -4 7 -8.5t14 -14t7 -26.5q0 -21 -15.5 -34t-37.5 -13q-24 0 -39 16t-15 43q0 51 52.5 77.5t118.5 26.5q77 0 117 -26t40 -90v-270
q0 -36 32 -36q24 0 47 15l17 -23q-39 -54 -104 -54q-66 0 -86 66q-61 -69 -134 -69zM206 48q44 0 84 35v122q-41 9 -72 9q-39 0 -65 -21.5t-26 -64.5q0 -38 21.5 -59t57.5 -21zM239 538l-96 96q-23 23 -23 43t15 33t32 13q34 0 47 -39l53 -146h-28z" />
    <glyph glyph-name="aacute" unicode="&#xe1;" horiz-adv-x="486" 
d="M160 -12q-57 0 -95.5 31.5t-38.5 91.5q0 68 51.5 105.5t130.5 37.5q42 0 82 -14v123q0 74 -78 74q-30 0 -56 -12q-17 -8 -17 -17q0 -4 7 -8.5t14 -14t7 -26.5q0 -21 -15.5 -34t-37.5 -13q-24 0 -39 16t-15 43q0 51 52.5 77.5t118.5 26.5q77 0 117 -26t40 -90v-270
q0 -36 32 -36q24 0 47 15l17 -23q-39 -54 -104 -54q-66 0 -86 66q-61 -69 -134 -69zM206 48q44 0 84 35v122q-41 9 -72 9q-39 0 -65 -21.5t-26 -64.5q0 -38 21.5 -59t57.5 -21zM194 538l54 146q13 39 47 39q16 0 31 -13t15 -33q0 -24 -22 -43l-96 -96h-29z" />
    <glyph glyph-name="acircumflex" unicode="&#xe2;" horiz-adv-x="486" 
d="M160 -12q-57 0 -95.5 31.5t-38.5 91.5q0 68 51.5 105.5t130.5 37.5q42 0 82 -14v123q0 74 -78 74q-30 0 -56 -12q-17 -8 -17 -17q0 -4 7 -8.5t14 -14t7 -26.5q0 -21 -15.5 -34t-37.5 -13q-24 0 -39 16t-15 43q0 51 52.5 77.5t118.5 26.5q77 0 117 -26t40 -90v-270
q0 -36 32 -36q24 0 47 15l17 -23q-39 -54 -104 -54q-66 0 -86 66q-61 -69 -134 -69zM206 48q44 0 84 35v122q-41 9 -72 9q-39 0 -65 -21.5t-26 -64.5q0 -38 21.5 -59t57.5 -21zM128 539h-31l91 158h71l92 -158h-31l-97 87z" />
    <glyph glyph-name="atilde" unicode="&#xe3;" horiz-adv-x="486" 
d="M160 -12q-57 0 -95.5 31.5t-38.5 91.5q0 68 51.5 105.5t130.5 37.5q42 0 82 -14v123q0 74 -78 74q-30 0 -56 -12q-17 -8 -17 -17q0 -4 7 -8.5t14 -14t7 -26.5q0 -21 -15.5 -34t-37.5 -13q-24 0 -39 16t-15 43q0 51 52.5 77.5t118.5 26.5q77 0 117 -26t40 -90v-270
q0 -36 32 -36q24 0 47 15l17 -23q-39 -54 -104 -54q-66 0 -86 66q-61 -69 -134 -69zM206 48q44 0 84 35v122q-41 9 -72 9q-39 0 -65 -21.5t-26 -64.5q0 -38 21.5 -59t57.5 -21zM287 568q-21 0 -62.5 15t-56.5 15q-31 -1 -46 -43h-37q12 50 37 84t62 34q21 0 62 -15t54 -15
q31 3 45 44h39q-11 -51 -36 -85t-61 -34z" />
    <glyph glyph-name="adieresis" unicode="&#xe4;" horiz-adv-x="486" 
d="M160 -12q-57 0 -95.5 31.5t-38.5 91.5q0 68 51.5 105.5t130.5 37.5q42 0 82 -14v123q0 74 -78 74q-30 0 -56 -12q-17 -8 -17 -17q0 -4 7 -8.5t14 -14t7 -26.5q0 -21 -15.5 -34t-37.5 -13q-24 0 -39 16t-15 43q0 51 52.5 77.5t118.5 26.5q77 0 117 -26t40 -90v-270
q0 -36 32 -36q24 0 47 15l17 -23q-39 -54 -104 -54q-66 0 -86 66q-61 -69 -134 -69zM206 48q44 0 84 35v122q-41 9 -72 9q-39 0 -65 -21.5t-26 -64.5q0 -38 21.5 -59t57.5 -21zM140 568q-23 0 -39 15.5t-16 39.5q0 23 16 38.5t39 15.5t39 -15.5t16 -38.5q0 -24 -16 -39.5
t-39 -15.5zM321 568q-24 0 -40 15.5t-16 39.5q0 23 16.5 38.5t39.5 15.5t39.5 -15.5t16.5 -38.5q0 -24 -16 -39.5t-40 -15.5z" />
    <glyph glyph-name="aring" unicode="&#xe5;" horiz-adv-x="486" 
d="M160 -12q-57 0 -95.5 31.5t-38.5 91.5q0 68 51.5 105.5t130.5 37.5q42 0 82 -14v123q0 74 -78 74q-30 0 -56 -12q-17 -8 -17 -17q0 -4 7 -8.5t14 -14t7 -26.5q0 -21 -15.5 -34t-37.5 -13q-24 0 -39 16t-15 43q0 51 52.5 77.5t118.5 26.5q77 0 117 -26t40 -90v-270
q0 -36 32 -36q24 0 47 15l17 -23q-39 -54 -104 -54q-66 0 -86 66q-61 -69 -134 -69zM206 48q44 0 84 35v122q-41 9 -72 9q-39 0 -65 -21.5t-26 -64.5q0 -38 21.5 -59t57.5 -21zM230 572q23 0 37.5 15.5t14.5 39.5t-14.5 39.5t-37.5 15.5t-37.5 -15.5t-14.5 -39.5t14.5 -39.5
t37.5 -15.5zM230 537q-38 0 -64 26t-26 64t26 64t64 26t64.5 -26t26.5 -64t-26.5 -64t-64.5 -26z" />
    <glyph glyph-name="ae" unicode="&#xe6;" horiz-adv-x="734" 
d="M174 -11q-64 0 -106.5 36t-42.5 98q0 70 51 108.5t146 38.5h70v93q0 74 -81 74q-30 0 -56 -12q-17 -9 -17 -17q0 -4 7 -8.5t14 -14t7 -26.5q0 -21 -15.5 -34t-37.5 -13t-38 16.5t-16 42.5q0 52 52.5 82.5t113.5 30.5q117 0 141 -79q59 78 152 78q40 0 72.5 -12t60 -39
t41.5 -76.5t11 -117.5l-5 -8h-300q1 -86 35.5 -136t98.5 -50q102 0 139 101l34 -15q-47 -148 -193 -148q-124 0 -182 96q-64 -89 -156 -89zM512 438q-51 0 -80 -46t-33 -121h205q0 94 -22 130.5t-70 36.5zM206 49q59 0 109 59q-23 55 -23 120h-64q-102 0 -102 -88
q0 -40 22.5 -65.5t57.5 -25.5z" />
    <glyph glyph-name="ccedilla" unicode="&#xe7;" horiz-adv-x="456" 
d="M217 -235q-50 0 -89 18l9 33q37 -10 60 -10q24 0 38.5 11t14.5 31q0 53 -74 39v106l-18 6q-62 26 -95.5 82t-33.5 137q0 118 72 191.5t170 73.5q65 0 108 -29t43 -76q0 -50 -57 -50q-40 0 -45 35q-1 5 -2.5 20.5t-3.5 21.5t-6.5 15t-14 12.5t-24.5 3.5q-64 0 -98.5 -54
t-34.5 -147q0 -95 34 -142.5t96 -47.5q51 0 84 30t48 76l34 -10q-17 -71 -62.5 -115t-120.5 -44q-11 0 -29 2v-55q46 6 78.5 -15.5t32.5 -61.5t-31.5 -63.5t-82.5 -23.5z" />
    <glyph glyph-name="egrave" unicode="&#xe8;" horiz-adv-x="475" 
d="M256 -18q-104 0 -165.5 70t-61.5 178q0 109 68.5 181t160.5 72q82 0 135 -53.5t51 -163.5l-5 -8h-304v-22q0 -86 38.5 -139t102.5 -53q103 0 140 101l33 -15q-46 -148 -193 -148zM253 438q-46 0 -75 -37t-39 -100h204q-2 72 -23 104.5t-67 32.5zM262 538l-96 96
q-23 23 -23 43t15 33t32 13q34 0 47 -39l53 -146h-28z" />
    <glyph glyph-name="eacute" unicode="&#xe9;" horiz-adv-x="475" 
d="M222 538l54 146q13 39 47 39q16 0 31 -13t15 -33q0 -24 -22 -43l-96 -96h-29zM256 -18q-104 0 -165.5 70t-61.5 178q0 109 68.5 181t160.5 72q82 0 135 -53.5t51 -163.5l-5 -8h-304v-22q0 -86 38.5 -139t102.5 -53q103 0 140 101l33 -15q-46 -148 -193 -148zM253 438
q-46 0 -75 -37t-39 -100h204q-2 72 -23 104.5t-67 32.5z" />
    <glyph glyph-name="ecircumflex" unicode="&#xea;" horiz-adv-x="475" 
d="M154 539h-31l91 158h71l92 -158h-31l-97 87zM256 -18q-104 0 -165.5 70t-61.5 178q0 109 68.5 181t160.5 72q82 0 135 -53.5t51 -163.5l-5 -8h-304v-22q0 -86 38.5 -139t102.5 -53q103 0 140 101l33 -15q-46 -148 -193 -148zM253 438q-46 0 -75 -37t-39 -100h204
q-2 72 -23 104.5t-67 32.5z" />
    <glyph glyph-name="edieresis" unicode="&#xeb;" horiz-adv-x="475" 
d="M165 568q-23 0 -39 15.5t-16 39.5q0 23 16 38.5t39 15.5t39 -15.5t16 -38.5q0 -24 -16 -39.5t-39 -15.5zM346 568q-24 0 -40 15.5t-16 39.5q0 23 16.5 38.5t39.5 15.5t39.5 -15.5t16.5 -38.5q0 -24 -16 -39.5t-40 -15.5zM256 -18q-104 0 -165.5 70t-61.5 178
q0 109 68.5 181t160.5 72q82 0 135 -53.5t51 -163.5l-5 -8h-304v-22q0 -86 38.5 -139t102.5 -53q103 0 140 101l33 -15q-46 -148 -193 -148zM253 438q-46 0 -75 -37t-39 -100h204q-2 72 -23 104.5t-67 32.5z" />
    <glyph glyph-name="igrave" unicode="&#xec;" horiz-adv-x="275" 
d="M19 0v43l73 4v354l-77 -10v46l167 40l9 -5v-425l67 -4v-43h-239zM135 538l-96 96q-23 23 -23 43t15 33t32 13q34 0 47 -39l53 -146h-28z" />
    <glyph glyph-name="iacute" unicode="&#xed;" horiz-adv-x="275" 
d="M94 538l54 146q13 39 47 39q16 0 31 -13t15 -33q0 -24 -22 -43l-96 -96h-29zM19 0v43l73 4v354l-77 -10v46l167 40l9 -5v-425l67 -4v-43h-239z" />
    <glyph glyph-name="icircumflex" unicode="&#xee;" horiz-adv-x="275" 
d="M24 539h-31l91 158h71l92 -158h-31l-97 87zM19 0v43l73 4v354l-77 -10v46l167 40l9 -5v-425l67 -4v-43h-239z" />
    <glyph glyph-name="idieresis" unicode="&#xef;" horiz-adv-x="275" 
d="M36 568q-23 0 -39 15.5t-16 39.5q0 23 16 38.5t39 15.5t39 -15.5t16 -38.5q0 -24 -16 -39.5t-39 -15.5zM217 568q-24 0 -40 15.5t-16 39.5q0 23 16.5 38.5t39.5 15.5t39.5 -15.5t16.5 -38.5q0 -24 -16 -39.5t-40 -15.5zM19 0v43l73 4v354l-77 -10v46l167 40l9 -5v-425
l67 -4v-43h-239z" />
    <glyph glyph-name="eth" unicode="&#xf0;" horiz-adv-x="525" 
d="M115 513l-20 33l116 71q-41 34 -94 70l23 31q69 -34 124 -69l105 64l22 -32l-92 -56q193 -143 193 -364q0 -123 -66.5 -201t-164.5 -78q-93 0 -162.5 69.5t-69.5 179.5q0 107 66.5 178.5t150.5 71.5q55 0 101 -28q-32 70 -105 137zM386 249q0 79 -16 139q-39 42 -110 42
q-63 0 -93.5 -55t-30.5 -143q0 -90 31 -147t96 -57q123 0 123 221z" />
    <glyph glyph-name="ntilde" unicode="&#xf1;" horiz-adv-x="550" 
d="M19 0v43l73 5v353l-71 -12v46l160 42l9 -5v-83q28 35 63 60q48 35 91 35q126 0 126 -135v-303l61 -3v-43h-215v43l57 2v297q0 65 -73 65q-48 0 -110 -45v-315l64 -4v-43h-235zM338 568q-21 0 -62.5 15t-56.5 15q-31 -1 -46 -43h-37q12 50 37 84t62 34q21 0 62 -15t54 -15
q31 3 45 44h39q-11 -51 -36 -85t-61 -34z" />
    <glyph glyph-name="ograve" unicode="&#xf2;" horiz-adv-x="525" 
d="M263 28q65 0 96 55.5t31 148.5t-31 148.5t-96 55.5q-66 0 -97 -55.5t-31 -148.5q0 -94 31 -149t97 -55zM263 -18q-94 0 -164 70t-70 180t70 180.5t164 70.5t163.5 -70.5t69.5 -180.5t-69.5 -180t-163.5 -70zM274 538l-96 96q-23 23 -23 43t15 33t32 13q34 0 47 -39
l53 -146h-28z" />
    <glyph glyph-name="oacute" unicode="&#xf3;" horiz-adv-x="525" 
d="M230 538l54 146q13 39 47 39q16 0 31 -13t15 -33q0 -24 -22 -43l-96 -96h-29zM263 28q65 0 96 55.5t31 148.5t-31 148.5t-96 55.5q-66 0 -97 -55.5t-31 -148.5q0 -94 31 -149t97 -55zM263 -18q-94 0 -164 70t-70 180t70 180.5t164 70.5t163.5 -70.5t69.5 -180.5
t-69.5 -180t-163.5 -70z" />
    <glyph glyph-name="ocircumflex" unicode="&#xf4;" horiz-adv-x="525" 
d="M163 539h-31l91 158h71l92 -158h-31l-97 87zM263 28q65 0 96 55.5t31 148.5t-31 148.5t-96 55.5q-66 0 -97 -55.5t-31 -148.5q0 -94 31 -149t97 -55zM263 -18q-94 0 -164 70t-70 180t70 180.5t164 70.5t163.5 -70.5t69.5 -180.5t-69.5 -180t-163.5 -70z" />
    <glyph glyph-name="otilde" unicode="&#xf5;" horiz-adv-x="525" 
d="M263 28q65 0 96 55.5t31 148.5t-31 148.5t-96 55.5q-66 0 -97 -55.5t-31 -148.5q0 -94 31 -149t97 -55zM263 -18q-94 0 -164 70t-70 180t70 180.5t164 70.5t163.5 -70.5t69.5 -180.5t-69.5 -180t-163.5 -70zM320 568q-21 0 -62.5 15t-56.5 15q-31 -1 -46 -43h-37
q12 50 37 84t62 34q21 0 62 -15t54 -15q31 3 45 44h39q-11 -51 -36 -85t-61 -34z" />
    <glyph glyph-name="odieresis" unicode="&#xf6;" horiz-adv-x="525" 
d="M172 568q-23 0 -39 15.5t-16 39.5q0 23 16 38.5t39 15.5t39 -15.5t16 -38.5q0 -24 -16 -39.5t-39 -15.5zM353 568q-24 0 -40 15.5t-16 39.5q0 23 16.5 38.5t39.5 15.5t39.5 -15.5t16.5 -38.5q0 -24 -16 -39.5t-40 -15.5zM263 28q65 0 96 55.5t31 148.5t-31 148.5
t-96 55.5q-66 0 -97 -55.5t-31 -148.5q0 -94 31 -149t97 -55zM263 -18q-94 0 -164 70t-70 180t70 180.5t164 70.5t163.5 -70.5t69.5 -180.5t-69.5 -180t-163.5 -70z" />
    <glyph glyph-name="divide" unicode="&#xf7;" horiz-adv-x="459" 
d="M39 262v52h381v-52h-381zM230 68q-28 0 -45.5 18t-17.5 45q0 28 17.5 45.5t45.5 17.5q27 0 45.5 -18t18.5 -45t-18.5 -45t-45.5 -18zM230 382q-28 0 -45.5 17.5t-17.5 45.5t17.5 46t45.5 18q27 0 45.5 -18t18.5 -46q0 -27 -18.5 -45t-45.5 -18z" />
    <glyph glyph-name="oslash" unicode="&#xf8;" horiz-adv-x="525" 
d="M66 -39l-34 26l59 73q-62 68 -62 172q0 110 70 180.5t164 70.5q72 0 134 -46l52 63l34 -26l-54 -66q67 -72 67 -176q0 -110 -69.5 -180t-163.5 -70q-78 0 -141 48zM263 28q65 0 96 55.5t31 148.5q0 67 -13 112l-214 -264q30 -52 100 -52zM134 232q0 -66 11 -106l214 263
q-31 49 -96 49t-97 -56.5t-32 -149.5z" />
    <glyph glyph-name="ugrave" unicode="&#xf9;" horiz-adv-x="543" 
d="M210 -16q-62 0 -97 32.5t-35 98.5v306l-60 3v42h158v-343q0 -71 69 -71q51 0 113 44v323l-58 5v42h156v-410l71 3v-41l-158 -26l-10 4l3 76q-31 -38 -60 -54q-47 -34 -92 -34zM273 538l-96 96q-23 23 -23 43t15 33t32 13q34 0 47 -39l53 -146h-28z" />
    <glyph glyph-name="uacute" unicode="&#xfa;" horiz-adv-x="543" 
d="M229 538l54 146q13 39 47 39q16 0 31 -13t15 -33q0 -24 -22 -43l-96 -96h-29zM210 -16q-62 0 -97 32.5t-35 98.5v306l-60 3v42h158v-343q0 -71 69 -71q51 0 113 44v323l-58 5v42h156v-410l71 3v-41l-158 -26l-10 4l3 76q-31 -38 -60 -54q-47 -34 -92 -34z" />
    <glyph glyph-name="ucircumflex" unicode="&#xfb;" horiz-adv-x="543" 
d="M162 539h-31l91 158h71l92 -158h-31l-97 87zM210 -16q-62 0 -97 32.5t-35 98.5v306l-60 3v42h158v-343q0 -71 69 -71q51 0 113 44v323l-58 5v42h156v-410l71 3v-41l-158 -26l-10 4l3 76q-31 -38 -60 -54q-47 -34 -92 -34z" />
    <glyph glyph-name="udieresis" unicode="&#xfc;" horiz-adv-x="543" 
d="M171 568q-23 0 -39 15.5t-16 39.5q0 23 16 38.5t39 15.5t39 -15.5t16 -38.5q0 -24 -16 -39.5t-39 -15.5zM352 568q-24 0 -40 15.5t-16 39.5q0 23 16.5 38.5t39.5 15.5t39.5 -15.5t16.5 -38.5q0 -24 -16 -39.5t-40 -15.5zM210 -16q-62 0 -97 32.5t-35 98.5v306l-60 3v42
h158v-343q0 -71 69 -71q51 0 113 44v323l-58 5v42h156v-410l71 3v-41l-158 -26l-10 4l3 76q-31 -38 -60 -54q-47 -34 -92 -34z" />
    <glyph glyph-name="yacute" unicode="&#xfd;" horiz-adv-x="500" 
d="M113 -243q-36 0 -56.5 20t-20.5 44q0 23 14.5 37t34.5 14q18 0 28 -10q0 -42 31 -42q38 0 83 128l11 33l-188 441l-41 3v42h219v-42l-63 -4l120 -308h1l107 296l-62 16v42h160v-42l-45 -13l-173 -468q-37 -104 -71.5 -145.5t-88.5 -41.5zM246 538l54 146q13 39 47 39
q16 0 31 -13t15 -33q0 -24 -22 -43l-96 -96h-29z" />
    <glyph glyph-name="thorn" unicode="&#xfe;" horiz-adv-x="551" 
d="M16 -235v41l69 5v826l-72 -6v45l161 35l9 -4v-295q66 71 153 71q82 0 132.5 -66t50.5 -175q0 -120 -64.5 -187.5t-147.5 -67.5q-70 0 -124 39v-215l79 -5v-41h-246zM289 419q-64 0 -106 -42v-306q40 -32 97 -32q63 0 98.5 49t35.5 148q0 84 -33 133.5t-92 49.5z" />
    <glyph glyph-name="ydieresis" unicode="&#xff;" horiz-adv-x="500" 
d="M113 -243q-36 0 -56.5 20t-20.5 44q0 23 14.5 37t34.5 14q18 0 28 -10q0 -42 31 -42q38 0 83 128l11 33l-188 441l-41 3v42h219v-42l-63 -4l120 -308h1l107 296l-62 16v42h160v-42l-45 -13l-173 -468q-37 -104 -71.5 -145.5t-88.5 -41.5zM186 568q-23 0 -39 15.5
t-16 39.5q0 23 16 38.5t39 15.5t39 -15.5t16 -38.5q0 -24 -16 -39.5t-39 -15.5zM367 568q-24 0 -40 15.5t-16 39.5q0 23 16.5 38.5t39.5 15.5t39.5 -15.5t16.5 -38.5q0 -24 -16 -39.5t-40 -15.5z" />
    <glyph glyph-name="Amacron" unicode="&#x100;" horiz-adv-x="655" 
d="M384 0v44l78 5l-60 170h-213l-53 -154l98 -21v-44h-216v44l60 16l215 610h68l219 -623l57 -3v-44h-253zM294 521l-90 -258h182l-91 258h-1zM199 745v57h271v-57h-271z" />
    <glyph glyph-name="amacron" unicode="&#x101;" horiz-adv-x="486" 
d="M160 -12q-57 0 -95.5 31.5t-38.5 91.5q0 68 51.5 105.5t130.5 37.5q42 0 82 -14v123q0 74 -78 74q-30 0 -56 -12q-17 -8 -17 -17q0 -4 7 -8.5t14 -14t7 -26.5q0 -21 -15.5 -34t-37.5 -13q-24 0 -39 16t-15 43q0 51 52.5 77.5t118.5 26.5q77 0 117 -26t40 -90v-270
q0 -36 32 -36q24 0 47 15l17 -23q-39 -54 -104 -54q-66 0 -86 66q-61 -69 -134 -69zM206 48q44 0 84 35v122q-41 9 -72 9q-39 0 -65 -21.5t-26 -64.5q0 -38 21.5 -59t57.5 -21zM107 592v56h247v-56h-247z" />
    <glyph glyph-name="Abreve" unicode="&#x102;" horiz-adv-x="655" 
d="M384 0v44l78 5l-60 170h-213l-53 -154l98 -21v-44h-216v44l60 16l215 610h68l219 -623l57 -3v-44h-253zM294 521l-90 -258h182l-91 258h-1zM334 713q-59 0 -91 41.5t-36 97.5h36q14 -68 91 -68q42 0 63 17t28 51h37q-4 -54 -37 -96.5t-91 -42.5z" />
    <glyph glyph-name="abreve" unicode="&#x103;" horiz-adv-x="486" 
d="M160 -12q-57 0 -95.5 31.5t-38.5 91.5q0 68 51.5 105.5t130.5 37.5q42 0 82 -14v123q0 74 -78 74q-30 0 -56 -12q-17 -8 -17 -17q0 -4 7 -8.5t14 -14t7 -26.5q0 -21 -15.5 -34t-37.5 -13q-24 0 -39 16t-15 43q0 51 52.5 77.5t118.5 26.5q77 0 117 -26t40 -90v-270
q0 -36 32 -36q24 0 47 15l17 -23q-39 -54 -104 -54q-66 0 -86 66q-61 -69 -134 -69zM206 48q44 0 84 35v122q-41 9 -72 9q-39 0 -65 -21.5t-26 -64.5q0 -38 21.5 -59t57.5 -21zM230 547q-57 0 -89 47.5t-36 115.5h35q7 -46 28 -68t62 -22q43 0 63.5 22t27.5 68h35
q-4 -68 -36.5 -115.5t-89.5 -47.5z" />
    <glyph glyph-name="Aogonek" unicode="&#x104;" horiz-adv-x="655" 
d="M12 0v44l64 17l211 609h67l221 -623l56 -3v-44h-141q-74 -88 -74 -148q0 -46 42 -46q26 0 47 23l23 -20q-12 -22 -38.5 -40t-63.5 -18q-46 0 -74.5 24t-28.5 65q0 38 35.5 80.5t106.5 100.5l-70 198h-209l-52 -155l94 -20v-44h-216zM288 521l-87 -258h179l-91 258h-1z
" />
    <glyph glyph-name="aogonek" unicode="&#x105;" horiz-adv-x="486" 
d="M384 -8q-70 0 -90 65q-62 -68 -134 -68q-57 0 -95.5 31t-38.5 91q0 68 51.5 105.5t130.5 37.5q39 0 82 -13v122q0 74 -78 74q-30 0 -57 -12q-16 -7 -16 -17q0 -4 7 -8.5t14 -14t7 -26.5q0 -21 -15.5 -34t-37.5 -13t-38 16.5t-16 42.5q0 52 53.5 82.5t117.5 30.5
q157 0 157 -125v-271q0 -36 32 -36q26 0 47 15l17 -22q-62 -62 -93 -105.5t-31 -87.5q0 -46 41 -46q25 0 48 23l21 -20q-33 -58 -101 -58q-46 0 -74.5 23.5t-28.5 63.5q0 25 19.5 54.5t36.5 45.5t54 47q5 5 8 7zM206 49q45 0 84 34v122q-41 9 -72 9q-39 0 -65 -21.5
t-26 -64.5q0 -38 21.5 -58.5t57.5 -20.5z" />
    <glyph glyph-name="Cacute" unicode="&#x106;" 
d="M340 -18q-138 0 -221.5 92.5t-83.5 247.5q0 152 93 250t219 98q109 0 181 -85l16 65h36v-202h-40q-24 87 -70 129t-122 42q-85 0 -139 -76t-54 -217q0 -286 206 -286q131 0 192 132l38 -17q-33 -82 -98 -127.5t-153 -45.5zM343 716h-29l51 112q15 45 50 45q18 0 34 -14.5
t16 -36.5q0 -28 -33 -47z" />
    <glyph glyph-name="cacute" unicode="&#x107;" horiz-adv-x="456" 
d="M220 538l54 146q13 39 47 39q16 0 31 -13t15 -33q0 -24 -22 -43l-96 -96h-29zM249 -18q-100 0 -160 64.5t-60 171.5q0 118 72 191.5t170 73.5q65 0 108 -29t43 -76q0 -50 -57 -50q-40 0 -45 35q-1 5 -2.5 20.5t-3.5 21.5t-6.5 15t-14 12.5t-24.5 3.5q-64 0 -98.5 -54
t-34.5 -147q0 -95 34 -142.5t96 -47.5q51 0 84 30t48 76l34 -10q-17 -71 -62.5 -115t-120.5 -44z" />
    <glyph glyph-name="Ccircumflex" unicode="&#x108;" 
d="M250 716h-32l96 136h77l95 -136h-31l-104 67zM340 -18q-138 0 -221.5 92.5t-83.5 247.5q0 152 93 250t219 98q109 0 181 -85l16 65h36v-202h-40q-24 87 -70 129t-122 42q-85 0 -139 -76t-54 -217q0 -286 206 -286q131 0 192 132l38 -17q-33 -82 -98 -127.5t-153 -45.5z
" />
    <glyph glyph-name="ccircumflex" unicode="&#x109;" horiz-adv-x="456" 
d="M153 539h-31l91 158h71l92 -158h-31l-97 87zM249 -18q-100 0 -160 64.5t-60 171.5q0 118 72 191.5t170 73.5q65 0 108 -29t43 -76q0 -50 -57 -50q-40 0 -45 35q-1 5 -2.5 20.5t-3.5 21.5t-6.5 15t-14 12.5t-24.5 3.5q-64 0 -98.5 -54t-34.5 -147q0 -95 34 -142.5
t96 -47.5q51 0 84 30t48 76l34 -10q-17 -71 -62.5 -115t-120.5 -44z" />
    <glyph glyph-name="Cdotaccent" unicode="&#x10a;" 
d="M340 -18q-138 0 -221.5 92.5t-83.5 247.5q0 152 93 250t219 98q109 0 181 -85l16 65h36v-202h-40q-24 87 -70 129t-122 42q-85 0 -139 -76t-54 -217q0 -286 206 -286q131 0 192 132l38 -17q-33 -82 -98 -127.5t-153 -45.5zM350 723q-24 0 -41.5 17t-17.5 41t17.5 41
t41.5 17q26 0 43 -16.5t17 -41.5q0 -24 -17 -41t-43 -17z" />
    <glyph glyph-name="cdotaccent" unicode="&#x10b;" horiz-adv-x="456" 
d="M249 -18q-100 0 -160 64.5t-60 171.5q0 118 72 191.5t170 73.5q65 0 108 -29t43 -76q0 -50 -57 -50q-40 0 -45 35q-1 5 -2.5 20.5t-3.5 21.5t-6.5 15t-14 12.5t-24.5 3.5q-64 0 -98.5 -54t-34.5 -147q0 -95 34 -142.5t96 -47.5q51 0 84 30t48 76l34 -10
q-17 -71 -62.5 -115t-120.5 -44zM253 569q-25 0 -42 17t-17 41q0 26 17 42t42 16q26 0 43 -16t17 -42q0 -24 -17 -41t-43 -17z" />
    <glyph glyph-name="Ccaron" unicode="&#x10c;" 
d="M218 852h32l102 -70l103 70h31l-95 -136h-77zM340 -18q-138 0 -221.5 92.5t-83.5 247.5q0 152 93 250t219 98q109 0 181 -85l16 65h36v-202h-40q-24 87 -70 129t-122 42q-85 0 -139 -76t-54 -217q0 -286 206 -286q131 0 192 132l38 -17q-33 -82 -98 -127.5t-153 -45.5z
" />
    <glyph glyph-name="ccaron" unicode="&#x10d;" horiz-adv-x="456" 
d="M126 705h32l96 -87l95 87h32l-91 -158h-73zM249 -18q-100 0 -160 64.5t-60 171.5q0 118 72 191.5t170 73.5q65 0 108 -29t43 -76q0 -50 -57 -50q-40 0 -45 35q-1 5 -2.5 20.5t-3.5 21.5t-6.5 15t-14 12.5t-24.5 3.5q-64 0 -98.5 -54t-34.5 -147q0 -95 34 -142.5t96 -47.5
q51 0 84 30t48 76l34 -10q-17 -71 -62.5 -115t-120.5 -44z" />
    <glyph glyph-name="Dcaron" unicode="&#x10e;" horiz-adv-x="651" 
d="M185 852h32l102 -70l103 70h31l-95 -136h-77zM31 0v44l67 6v559l-67 5v45h268q50 0 95 -10.5t86.5 -35t71 -62t47.5 -94t18 -127.5q0 -85 -26 -150t-71 -103.5t-99 -57.5t-115 -19h-275zM293 609h-84v-559h85q202 0 202 280q0 155 -52.5 217t-150.5 62z" />
    <glyph glyph-name="dcaron" unicode="&#x10f;" horiz-adv-x="553" 
d="M534 499l-21 18q29 47 29 87q0 35 -26 64q8 42 44 42q21 0 35.5 -18.5t14.5 -48.5q0 -74 -76 -144zM232 -18q-90 0 -146.5 69t-56.5 179q0 117 68 185t156 68q65 0 113 -31v185l-87 -6v46l175 34l10 -4v-648l73 2v-42l-160 -26l-10 4l2 49q-57 -64 -137 -64zM276 45
q51 0 90 37v317q-43 32 -88 32q-65 0 -104 -51.5t-39 -149.5q0 -83 39 -134t102 -51z" />
    <glyph glyph-name="Dcroat" unicode="&#x110;" horiz-adv-x="651" 
d="M20 315v41h78v253l-67 5v45h268q50 0 95 -10.5t86.5 -35t71 -62t47.5 -94t18 -127.5q0 -85 -26 -150t-71 -103.5t-99 -57.5t-115 -19h-275v44l67 6v265h-78zM293 609h-84v-253h155v-41h-155v-265h85q202 0 202 280q0 155 -52.5 217t-150.5 62z" />
    <glyph glyph-name="dslash" unicode="&#x111;" horiz-adv-x="553" 
d="M192 564v45h174v85l88 17l10 -4v-98h79v-45h-79v-505l73 2v-42l-160 -26l-10 4l2 49q-57 -64 -137 -64q-90 0 -146.5 69t-56.5 179q0 117 68 185t156 68q65 0 113 -31v112h-174zM276 45q51 0 90 37v317q-43 32 -88 32q-65 0 -104 -51.5t-39 -149.5q0 -83 39 -134t102 -51
z" />
    <glyph glyph-name="Emacron" unicode="&#x112;" horiz-adv-x="597" 
d="M481 475l-16 89q-5 29 -17.5 37.5t-47.5 8.5h-191v-255h87q43 0 46 33l7 79h38v-267h-37l-8 76q-2 21 -12.5 27.5t-33.5 6.5h-87v-260h197q56 0 70.5 8t20.5 46l16 100h41v-204h-523v44l67 7v558l-67 5v45h489v-184h-39zM168 745v57h271v-57h-271z" />
    <glyph glyph-name="emacron" unicode="&#x113;" horiz-adv-x="475" 
d="M256 -18q-104 0 -165.5 70t-61.5 178q0 109 68.5 181t160.5 72q82 0 135 -53.5t51 -163.5l-5 -8h-304v-22q0 -86 38.5 -139t102.5 -53q103 0 140 101l33 -15q-46 -148 -193 -148zM253 438q-46 0 -75 -37t-39 -100h204q-2 72 -23 104.5t-67 32.5zM132 592v56h247v-56h-247
z" />
    <glyph glyph-name="Ebreve" unicode="&#x114;" horiz-adv-x="597" 
d="M481 475l-16 89q-5 29 -17.5 37.5t-47.5 8.5h-191v-255h87q43 0 46 33l7 79h38v-267h-37l-8 76q-2 21 -12.5 27.5t-33.5 6.5h-87v-260h197q56 0 70.5 8t20.5 46l16 100h41v-204h-523v44l67 7v558l-67 5v45h489v-184h-39zM303 713q-59 0 -91 41.5t-36 97.5h36
q14 -68 91 -68q42 0 63 17t28 51h37q-4 -54 -37 -96.5t-91 -42.5z" />
    <glyph glyph-name="ebreve" unicode="&#x115;" horiz-adv-x="475" 
d="M256 -18q-104 0 -165.5 70t-61.5 178q0 109 68.5 181t160.5 72q82 0 135 -53.5t51 -163.5l-5 -8h-304v-22q0 -86 38.5 -139t102.5 -53q103 0 140 101l33 -15q-46 -148 -193 -148zM253 438q-46 0 -75 -37t-39 -100h204q-2 72 -23 104.5t-67 32.5zM255 547q-57 0 -89 47.5
t-36 115.5h35q7 -46 28 -68t62 -22q43 0 63.5 22t27.5 68h35q-4 -68 -36.5 -115.5t-89.5 -47.5z" />
    <glyph glyph-name="Edotaccent" unicode="&#x116;" horiz-adv-x="597" 
d="M303 723q-24 0 -41.5 17t-17.5 41t17.5 41t41.5 17q26 0 43 -16.5t17 -41.5q0 -24 -17 -41t-43 -17zM481 475l-16 89q-5 29 -17.5 37.5t-47.5 8.5h-191v-255h87q43 0 46 33l7 79h38v-267h-37l-8 76q-2 21 -12.5 27.5t-33.5 6.5h-87v-260h197q56 0 70.5 8t20.5 46l16 100
h41v-204h-523v44l67 7v558l-67 5v45h489v-184h-39z" />
    <glyph glyph-name="edotaccent" unicode="&#x117;" horiz-adv-x="475" 
d="M256 -18q-104 0 -165.5 70t-61.5 178q0 109 68.5 181t160.5 72q82 0 135 -53.5t51 -163.5l-5 -8h-304v-22q0 -86 38.5 -139t102.5 -53q103 0 140 101l33 -15q-46 -148 -193 -148zM253 438q-46 0 -75 -37t-39 -100h204q-2 72 -23 104.5t-67 32.5zM255 569q-25 0 -42 17
t-17 41q0 26 17 42t42 16q26 0 43 -16t17 -42q0 -24 -17 -41t-43 -17z" />
    <glyph glyph-name="Eogonek" unicode="&#x118;" horiz-adv-x="597" 
d="M481 475l-16 89q-5 29 -17.5 37.5t-47.5 8.5h-191v-255h87q43 0 46 33l7 79h38v-267h-37l-8 76q-2 21 -12.5 27.5t-33.5 6.5h-87v-260h197q56 0 70.5 8t20.5 46l16 100h41v-204h-80q-50 -78 -50 -139q0 -54 42 -54q23 0 47 24l21 -21q-13 -17 -21.5 -26.5t-30.5 -21
t-48 -11.5q-44 0 -74.5 25.5t-30.5 69.5q0 62 92 154h-390v44l67 7v558l-67 5v45h489v-184h-39z" />
    <glyph glyph-name="eogonek" unicode="&#x119;" horiz-adv-x="475" 
d="M416 145l33 -15q-15 -50 -49 -91q-5 -6 -26.5 -30t-28 -32t-21.5 -28.5t-20.5 -32.5t-11 -30t-5.5 -35q0 -45 41 -45q25 0 48 23l22 -21q-38 -57 -101 -57q-46 0 -74.5 23.5t-28.5 63.5q0 35 29 71t79 78q-19 -5 -46 -5q-104 0 -165.5 70t-61.5 178q0 109 68.5 181
t160.5 72q82 0 135 -53.5t51 -163.5l-5 -8h-303v-22q0 -87 38 -139.5t102 -52.5q103 0 140 101zM253 438q-46 0 -75 -37t-38 -100h203q-2 72 -23 104.5t-67 32.5z" />
    <glyph glyph-name="Ecaron" unicode="&#x11a;" horiz-adv-x="597" 
d="M169 852h32l102 -70l103 70h31l-95 -136h-77zM481 475l-16 89q-5 29 -17.5 37.5t-47.5 8.5h-191v-255h87q43 0 46 33l7 79h38v-267h-37l-8 76q-2 21 -12.5 27.5t-33.5 6.5h-87v-260h197q56 0 70.5 8t20.5 46l16 100h41v-204h-523v44l67 7v558l-67 5v45h489v-184h-39z" />
    <glyph glyph-name="ecaron" unicode="&#x11b;" horiz-adv-x="475" 
d="M127 705h32l96 -87l95 87h32l-91 -158h-73zM256 -18q-104 0 -165.5 70t-61.5 178q0 109 68.5 181t160.5 72q82 0 135 -53.5t51 -163.5l-5 -8h-304v-22q0 -86 38.5 -139t102.5 -53q103 0 140 101l33 -15q-46 -148 -193 -148zM253 438q-46 0 -75 -37t-39 -100h204
q-2 72 -23 104.5t-67 32.5z" />
    <glyph glyph-name="Gcircumflex" unicode="&#x11c;" horiz-adv-x="676" 
d="M257 716h-32l96 136h77l95 -136h-31l-104 67zM348 -18q-142 0 -228 93.5t-86 246.5q0 151 95 249.5t220 98.5q118 0 180 -77l13 55h37v-186h-41q-21 82 -64 119.5t-117 37.5q-86 0 -144.5 -76.5t-58.5 -216.5q0 -150 49.5 -222t155.5 -72q87 0 123 58q15 24 15 90v36
l-80 7v45h248v-45l-62 -5v-110q-96 -126 -255 -126z" />
    <glyph glyph-name="gcircumflex" unicode="&#x11d;" horiz-adv-x="532" 
d="M151 539h-31l91 158h71l92 -158h-31l-97 87zM240 143q-51 0 -96 20q-39 -15 -39 -53q0 -47 82 -47q35 0 82 1.5t55 1.5q81 0 126 -29t45 -100q0 -88 -74 -138t-193 -50q-107 0 -168.5 32t-61.5 86q0 37 30.5 64.5t81.5 40.5q-37 12 -57 37.5t-20 58.5q0 75 87 108
q-74 48 -74 135q0 75 57.5 123.5t135.5 48.5q58 0 103 -25t64 -79h3q2 50 24 74.5t53 24.5q24 0 38.5 -13t14.5 -37q0 -14 -8 -25.5t-11.5 -13.5t-15.5 -9q-10 19 -31 19q-17 0 -29.5 -16t-12.5 -45q0 -3 0.5 -14t0.5 -18q0 -72 -56 -117.5t-136 -45.5zM170 -36q-10 0 -28 2
q-58 -27 -58 -83q0 -89 147 -89q84 0 135.5 26.5t51.5 80.5q0 68 -99 68q-33 0 -84 -2.5t-65 -2.5zM240 182q51 0 74 31.5t23 97.5q0 128 -97 128q-96 0 -96 -128q0 -66 23 -97.5t73 -31.5z" />
    <glyph glyph-name="Gbreve" unicode="&#x11e;" horiz-adv-x="676" 
d="M359 713q-59 0 -91 41.5t-36 97.5h36q14 -68 91 -68q42 0 63 17t28 51h37q-4 -54 -37 -96.5t-91 -42.5zM348 -18q-142 0 -228 93.5t-86 246.5q0 151 95 249.5t220 98.5q118 0 180 -77l13 55h37v-186h-41q-21 82 -64 119.5t-117 37.5q-86 0 -144.5 -76.5t-58.5 -216.5
q0 -150 49.5 -222t155.5 -72q87 0 123 58q15 24 15 90v36l-80 7v45h248v-45l-62 -5v-110q-96 -126 -255 -126z" />
    <glyph glyph-name="gbreve" unicode="&#x11f;" horiz-adv-x="532" 
d="M240 143q-51 0 -96 20q-39 -15 -39 -53q0 -47 82 -47q35 0 82 1.5t55 1.5q81 0 126 -29t45 -100q0 -88 -74 -138t-193 -50q-107 0 -168.5 32t-61.5 86q0 37 30.5 64.5t81.5 40.5q-37 12 -57 37.5t-20 58.5q0 75 87 108q-74 48 -74 135q0 75 57.5 123.5t135.5 48.5
q58 0 103 -25t64 -79h3q2 50 24 74.5t53 24.5q24 0 38.5 -13t14.5 -37q0 -14 -8 -25.5t-11.5 -13.5t-15.5 -9q-10 19 -31 19q-17 0 -29.5 -16t-12.5 -45q0 -3 0.5 -14t0.5 -18q0 -72 -56 -117.5t-136 -45.5zM170 -36q-10 0 -28 2q-58 -27 -58 -83q0 -89 147 -89
q84 0 135.5 26.5t51.5 80.5q0 68 -99 68q-33 0 -84 -2.5t-65 -2.5zM240 182q51 0 74 31.5t23 97.5q0 128 -97 128q-96 0 -96 -128q0 -66 23 -97.5t73 -31.5zM249 547q-57 0 -89 47.5t-36 115.5h35q7 -46 28 -68t62 -22q43 0 63.5 22t27.5 68h35q-4 -68 -36.5 -115.5
t-89.5 -47.5z" />
    <glyph glyph-name="Gdotaccent" unicode="&#x120;" horiz-adv-x="676" 
d="M359 723q-24 0 -41.5 17t-17.5 41t17.5 41t41.5 17q26 0 43 -16.5t17 -41.5q0 -24 -17 -41t-43 -17zM348 -18q-142 0 -228 93.5t-86 246.5q0 151 95 249.5t220 98.5q118 0 180 -77l13 55h37v-186h-41q-21 82 -64 119.5t-117 37.5q-86 0 -144.5 -76.5t-58.5 -216.5
q0 -150 49.5 -222t155.5 -72q87 0 123 58q15 24 15 90v36l-80 7v45h248v-45l-62 -5v-110q-96 -126 -255 -126z" />
    <glyph glyph-name="gdotaccent" unicode="&#x121;" horiz-adv-x="532" 
d="M240 143q-51 0 -96 20q-39 -15 -39 -53q0 -47 82 -47q35 0 82 1.5t55 1.5q81 0 126 -29t45 -100q0 -88 -74 -138t-193 -50q-107 0 -168.5 32t-61.5 86q0 37 30.5 64.5t81.5 40.5q-37 12 -57 37.5t-20 58.5q0 75 87 108q-74 48 -74 135q0 75 57.5 123.5t135.5 48.5
q58 0 103 -25t64 -79h3q2 50 24 74.5t53 24.5q24 0 38.5 -13t14.5 -37q0 -14 -8 -25.5t-11.5 -13.5t-15.5 -9q-10 19 -31 19q-17 0 -29.5 -16t-12.5 -45q0 -3 0.5 -14t0.5 -18q0 -72 -56 -117.5t-136 -45.5zM170 -36q-10 0 -28 2q-58 -27 -58 -83q0 -89 147 -89
q84 0 135.5 26.5t51.5 80.5q0 68 -99 68q-33 0 -84 -2.5t-65 -2.5zM240 182q51 0 74 31.5t23 97.5q0 128 -97 128q-96 0 -96 -128q0 -66 23 -97.5t73 -31.5zM249 569q-25 0 -42 17t-17 41q0 26 17 42t42 16q26 0 43 -16t17 -42q0 -24 -17 -41t-43 -17z" />
    <glyph glyph-name="Gcommaaccent" unicode="&#x122;" horiz-adv-x="676" 
d="M304 -270l-11 33q81 26 81 78q0 19 -11 19q-3 0 -13 -6.5t-22 -6.5q-20 0 -31.5 13t-11.5 34q0 23 18.5 37.5t45.5 14.5q37 0 60 -23t23 -61q0 -52 -36 -85.5t-92 -46.5zM348 -18q-142 0 -228 93.5t-86 246.5q0 151 95 249.5t220 98.5q118 0 180 -77l13 55h37v-186h-41
q-21 82 -64 119.5t-117 37.5q-86 0 -144.5 -76.5t-58.5 -216.5q0 -150 49.5 -222t155.5 -72q87 0 123 58q15 24 15 90v36l-80 7v45h248v-45l-62 -5v-110q-96 -126 -255 -126z" />
    <glyph glyph-name="gcommaaccent" unicode="&#x123;" horiz-adv-x="532" 
d="M303 751l11 -33q-82 -28 -82 -78q0 -21 11 -21q4 0 14.5 7t21.5 7q44 0 44 -46q0 -22 -18.5 -36.5t-46.5 -14.5q-39 0 -62 22t-23 61q0 52 36.5 85.5t93.5 46.5zM240 143q-51 0 -96 20q-39 -15 -39 -53q0 -47 82 -47q35 0 82 1.5t55 1.5q81 0 126 -29t45 -100
q0 -88 -74 -138t-193 -50q-107 0 -168.5 32t-61.5 86q0 37 30.5 64.5t81.5 40.5q-37 12 -57 37.5t-20 58.5q0 75 87 108q-74 48 -74 135q0 75 57.5 123.5t135.5 48.5q58 0 103 -25t64 -79h3q2 50 24 74.5t53 24.5q24 0 38.5 -13t14.5 -37q0 -14 -8 -25.5t-11.5 -13.5
t-15.5 -9q-10 19 -31 19q-17 0 -29.5 -16t-12.5 -45q0 -3 0.5 -14t0.5 -18q0 -72 -56 -117.5t-136 -45.5zM170 -36q-10 0 -28 2q-58 -27 -58 -83q0 -89 147 -89q84 0 135.5 26.5t51.5 80.5q0 68 -99 68q-33 0 -84 -2.5t-65 -2.5zM240 182q51 0 74 31.5t23 97.5
q0 128 -97 128q-96 0 -96 -128q0 -66 23 -97.5t73 -31.5z" />
    <glyph glyph-name="Hcircumflex" unicode="&#x124;" horiz-adv-x="679" 
d="M396 0v44l74 6v270h-261v-270l74 -6v-44h-252v44l66 6v559l-66 5v45h252v-45l-74 -5v-244h261v242l-74 7v45h252v-45l-67 -6v-560l67 -4v-44h-252zM249 716h-32l96 136h77l95 -136h-31l-104 67z" />
    <glyph glyph-name="hcircumflex" unicode="&#x125;" horiz-adv-x="545" 
d="M19 0v43l70 4v590l-73 -6v45l163 35l8 -4v-316q29 32 64 58q48 35 90 35q127 0 127 -135v-304l60 -2v-43h-221v43l62 3v296q0 65 -72 65q-50 0 -110 -45v-314l58 -5v-43h-226zM174 755h-32l96 136h77l95 -136h-31l-104 67z" />
    <glyph glyph-name="Hbar" unicode="&#x126;" horiz-adv-x="679" 
d="M11 470v40h86v100l-66 5v44h252v-44l-74 -5v-100h263v97l-77 8v44h253v-44l-66 -5v-100h84v-40h-84v-422l66 -4v-44h-253v44l77 6v267h-263v-267l74 -6v-44h-252v44l66 7v419h-86zM209 470v-109h263v109h-263z" />
    <glyph glyph-name="hbar" unicode="&#x127;" horiz-adv-x="545" 
d="M5 564v45h84v83l90 19l8 -4v-98h169v-45h-169v-173q29 32 64 58q48 35 90 35q127 0 127 -135v-304l60 -2v-43h-221v43l62 3v296q0 65 -72 65q-50 0 -110 -45v-314l58 -5v-43h-226v43l70 4v517h-84z" />
    <glyph glyph-name="Itilde" unicode="&#x128;" horiz-adv-x="306" 
d="M31 0v44l66 7v556l-66 7v45h244v-45l-66 -6v-556l66 -8v-44h-244zM215 738q-21 0 -67.5 14t-62.5 14q-32 -1 -46 -42h-37q11 51 36 85t64 34q20 0 66.5 -14t61.5 -14q32 2 44 42h39q-11 -50 -36 -84.5t-62 -34.5z" />
    <glyph glyph-name="itilde" unicode="&#x129;" horiz-adv-x="275" 
d="M19 0v43l73 4v354l-77 -10v46l167 40l9 -5v-425l67 -4v-43h-239zM184 568q-21 0 -62.5 15t-56.5 15q-31 -1 -46 -43h-37q12 50 37 84t62 34q21 0 62 -15t54 -15q31 3 45 44h39q-11 -51 -36 -85t-61 -34z" />
    <glyph glyph-name="Imacron" unicode="&#x12a;" horiz-adv-x="306" 
d="M31 0v44l66 7v556l-66 7v45h244v-45l-66 -6v-556l66 -8v-44h-244zM13 745v57h271v-57h-271z" />
    <glyph glyph-name="imacron" unicode="&#x12b;" horiz-adv-x="275" 
d="M19 0v43l73 4v354l-77 -10v46l167 40l9 -5v-425l67 -4v-43h-239zM18 592v56h225v-56h-225z" />
    <glyph glyph-name="Ibreve" unicode="&#x12c;" horiz-adv-x="306" 
d="M31 0v44l66 7v556l-66 7v45h244v-45l-66 -6v-556l66 -8v-44h-244zM148 713q-59 0 -91 41.5t-36 97.5h36q14 -68 91 -68q42 0 63 17t28 51h37q-4 -54 -37 -96.5t-91 -42.5z" />
    <glyph glyph-name="ibreve" unicode="&#x12d;" horiz-adv-x="275" 
d="M19 0v43l73 4v354l-77 -10v46l167 40l9 -5v-425l67 -4v-43h-239zM126 547q-57 0 -89 47.5t-36 115.5h35q7 -46 28 -68t62 -22q43 0 63.5 22t27.5 68h35q-4 -68 -36.5 -115.5t-89.5 -47.5z" />
    <glyph glyph-name="Iogonek" unicode="&#x12e;" horiz-adv-x="306" 
d="M150 -246q-44 0 -74 25t-30 69q0 57 72 133l18 19h-105v44l66 7v556l-66 7v45h244v-45l-66 -6v-556l66 -8v-44h-85q-15 -23 -31 -56q-18 -40 -18 -81q0 -54 42 -54q25 0 47 25l20 -22q-36 -58 -100 -58z" />
    <glyph glyph-name="iogonek" unicode="&#x12f;" horiz-adv-x="275" 
d="M19 0v43l73 4v354l-77 -10v46l166 40l9 -5v-424l68 -5v-43h-77q-26 -39 -42 -73q-17 -42 -17 -75q0 -46 41 -46q27 0 48 23l22 -20q-38 -58 -101 -58q-46 0 -74 23t-28 64q0 56 78 134l29 28h-118zM140 568q-26 0 -43 17t-17 42q0 24 17 41t43 17t44 -17t18 -41
q0 -25 -18 -42t-44 -17z" />
    <glyph glyph-name="Idot" unicode="&#x130;" horiz-adv-x="306" 
d="M31 0v44l66 7v556l-66 7v45h244v-45l-66 -6v-556l66 -8v-44h-244zM148 723q-24 0 -41.5 17t-17.5 41t17.5 41t41.5 17q26 0 43 -16.5t17 -41.5q0 -24 -17 -41t-43 -17z" />
    <glyph glyph-name="dotlessi" unicode="&#x131;" horiz-adv-x="275" 
d="M19 0v43l73 4v354l-77 -10v46l167 40l9 -5v-425l67 -4v-43h-239z" />
    <glyph glyph-name="IJ" unicode="&#x132;" horiz-adv-x="716" 
d="M437 -17q-58 0 -88.5 25.5t-30.5 67.5q0 31 18 50t43 19q24 0 39 -12.5t15 -35.5q0 -20 -14.5 -34.5t-14.5 -17.5q0 -16 29 -16q76 0 76 121v456l-77 8v45h257v-45l-71 -8v-392q0 -113 -49.5 -172t-131.5 -59zM31 0v44l66 7v556l-66 7v45h244v-45l-66 -6v-556l66 -8v-44
h-244z" />
    <glyph glyph-name="ij" unicode="&#x133;" horiz-adv-x="535" 
d="M265 -248q-27 0 -45.5 16t-18.5 39q0 22 12 35.5t30 13.5q37 0 70 -38q46 24 46 116v467l-77 -10v46l166 40l8 -5v-473q0 -97 -55 -172t-136 -75zM19 0v43l73 4v354l-77 -10v46l167 40l9 -5v-425l67 -4v-43h-239zM140 568q-26 0 -43 17t-17 42q0 24 17 41t43 17t44 -17
t18 -41q0 -25 -18 -42t-44 -17zM408 568q-25 0 -42.5 17t-17.5 42q0 24 17.5 41t42.5 17q26 0 44 -17t18 -41q0 -25 -18 -42t-44 -17z" />
    <glyph glyph-name="Jcircumflex" unicode="&#x134;" horiz-adv-x="422" 
d="M171 716h-32l96 136h77l95 -136h-31l-104 67zM142 -62q-58 0 -88 25.5t-30 67.5q0 32 17 50.5t44 18.5q22 0 37.5 -13.5t15.5 -34.5q0 -20 -14.5 -34.5t-14.5 -16.5q0 -17 29 -17q75 0 75 122v500l-77 8v45h259v-45l-71 -8v-436q0 -114 -49.5 -173t-132.5 -59z" />
    <glyph glyph-name="jcircumflex" unicode="&#x135;" horiz-adv-x="272" 
d="M2 -248q-29 0 -46 15.5t-17 39.5q0 22 10.5 35.5t29.5 13.5q36 0 69 -38q47 24 47 116v467l-77 -10v46l166 40l10 -5v-473q0 -97 -55.5 -172t-136.5 -75zM17 539h-31l91 158h71l92 -158h-31l-97 87z" />
    <glyph glyph-name="Kcommaaccent" unicode="&#x136;" horiz-adv-x="643" 
d="M279 -270l-11 33q81 26 81 78q0 19 -11 19q-3 0 -13 -6.5t-22 -6.5q-20 0 -31.5 13t-11.5 34q0 23 18.5 37.5t45.5 14.5q37 0 60 -23t23 -61q0 -52 -36 -85.5t-92 -46.5zM31 0v44l67 6v559l-67 5v45h254v-45l-76 -5v-558l74 -7v-44h-252zM379 0v44l64 5l-210 289v17
l216 241l-65 18v45h210v-45l-84 -18l-183 -206l241 -342l51 -4v-44h-240z" />
    <glyph glyph-name="kcommaaccent" unicode="&#x137;" horiz-adv-x="527" 
d="M214 -270l-11 33q81 26 81 78q0 19 -11 19q-3 0 -13 -6.5t-22 -6.5q-20 0 -31.5 13t-11.5 34q0 23 18.5 37.5t45.5 14.5q37 0 60 -23t23 -61q0 -52 -36 -85.5t-92 -46.5zM19 0v43l70 5v588l-70 -11v46l159 40l9 -4v-660l58 -4v-43h-226zM312 0v43l46 3l-161 195v12
l160 160l-63 13v41h194v-41l-71 -11l-135 -135l193 -234l42 -3v-43h-205z" />
    <glyph glyph-name="Lacute" unicode="&#x139;" horiz-adv-x="565" 
d="M135 716h-29l51 112q15 45 50 45q18 0 34 -14.5t16 -36.5q0 -28 -33 -47zM31 0v44l67 6v560l-67 4v45h263v-45l-85 -6v-558h178q49 0 65 17.5t24 88.5l11 69h42v-225h-498z" />
    <glyph glyph-name="lacute" unicode="&#x13a;" horiz-adv-x="281" 
d="M120 755h-29l51 112q15 45 50 45q18 0 34 -14.5t16 -36.5q0 -27 -33 -47zM19 0v43l76 5v589l-81 -10v47l170 37l9 -4v-660l70 -4v-43h-244z" />
    <glyph glyph-name="Lcommaaccent" unicode="&#x13b;" horiz-adv-x="565" 
d="M243 -270l-11 33q81 26 81 78q0 19 -11 19q-3 0 -13 -6.5t-22 -6.5q-20 0 -31.5 13t-11.5 34q0 23 18.5 37.5t45.5 14.5q37 0 60 -23t23 -61q0 -52 -36 -85.5t-92 -46.5zM31 0v44l67 6v560l-67 4v45h263v-45l-85 -6v-558h178q49 0 65 17.5t24 88.5l11 69h42v-225h-498z
" />
    <glyph glyph-name="lcommaaccent" unicode="&#x13c;" horiz-adv-x="281" 
d="M75 -270l-11 33q81 26 81 78q0 19 -11 19q-3 0 -13 -6.5t-22 -6.5q-20 0 -31.5 13t-11.5 34q0 23 18.5 37.5t45.5 14.5q37 0 60 -23t23 -61q0 -52 -36 -85.5t-92 -46.5zM19 0v43l76 5v589l-81 -10v47l170 37l9 -4v-660l70 -4v-43h-244z" />
    <glyph glyph-name="Lcaron" unicode="&#x13d;" horiz-adv-x="565" 
d="M351 486l-21 18q29 47 29 87q0 35 -26 64q7 42 44 42q21 0 35.5 -18.5t14.5 -48.5q0 -74 -76 -144zM31 0v44l67 6v560l-67 4v45h263v-45l-85 -6v-558h178q49 0 65 17.5t24 88.5l11 69h42v-225h-498z" />
    <glyph glyph-name="lcaron" unicode="&#x13e;" horiz-adv-x="281" 
d="M263 499l-21 18q29 47 29 87q0 35 -26 64q8 42 44 42q21 0 35.5 -18.5t14.5 -48.5q0 -74 -76 -144zM19 0v43l76 5v589l-81 -10v47l170 37l9 -4v-660l70 -4v-43h-244z" />
    <glyph glyph-name="Ldot" unicode="&#x13f;" horiz-adv-x="566" 
d="M31 0v44l67 6v560l-67 4v45h263v-45l-85 -6v-558h180q47 0 63 16.5t26 78.5l9 55h42v-200h-498zM478 292q-29 0 -47 18.5t-18 47.5q0 27 18 45t47 18q28 0 46.5 -18t18.5 -45q0 -29 -18.5 -47.5t-46.5 -18.5z" />
    <glyph glyph-name="ldot" unicode="&#x140;" horiz-adv-x="342" 
d="M19 0v43l76 5v589l-81 -10v47l170 37l9 -4v-660l70 -4v-43h-244zM310 282q-28 0 -46 18.5t-18 46.5q0 27 18 45t46 18t46.5 -18t18.5 -45q0 -28 -18.5 -46.5t-46.5 -18.5z" />
    <glyph glyph-name="Lslash" unicode="&#x141;" horiz-adv-x="586" 
d="M51 0v44l67 6v186l-75 -35v44l75 35v330l-67 4v45h263v-45l-85 -6v-277l209 98v-44l-209 -98v-237h178q49 0 65 17.5t24 88.5l11 69h42v-225h-498z" />
    <glyph glyph-name="lslash" unicode="&#x142;" horiz-adv-x="281" 
d="M19 0v43l76 5v254l-78 -50v48l78 50v287l-81 -10v47l170 37l9 -4v-294l76 49v-48l-76 -49v-318l70 -4v-43h-244z" />
    <glyph glyph-name="Nacute" unicode="&#x143;" horiz-adv-x="656" 
d="M346 716h-29l51 112q15 45 50 45q18 0 34 -14.5t16 -36.5q0 -28 -33 -47zM31 0v44l66 10v554l-66 6v45h196l286 -445v385l-78 15v45h191v-45l-57 -14v-600h-49l-367 571v-511l100 -16v-44h-222z" />
    <glyph glyph-name="nacute" unicode="&#x144;" horiz-adv-x="550" 
d="M248 538l54 146q13 39 47 39q16 0 31 -13t15 -33q0 -24 -22 -43l-96 -96h-29zM19 0v43l73 5v353l-71 -12v46l160 42l9 -5v-83q28 35 63 60q48 35 91 35q126 0 126 -135v-303l61 -3v-43h-215v43l57 2v297q0 65 -73 65q-48 0 -110 -45v-315l64 -4v-43h-235z" />
    <glyph glyph-name="Ncommaaccent" unicode="&#x145;" horiz-adv-x="656" 
d="M306 -270l-11 33q81 26 81 78q0 19 -11 19q-3 0 -13 -6.5t-22 -6.5q-20 0 -31.5 13t-11.5 34q0 23 18.5 37.5t45.5 14.5q37 0 60 -23t23 -61q0 -52 -36 -85.5t-92 -46.5zM31 0v44l66 10v554l-66 6v45h196l286 -445v385l-78 15v45h191v-45l-57 -14v-600h-49l-367 571v-511
l100 -16v-44h-222z" />
    <glyph glyph-name="ncommaaccent" unicode="&#x146;" horiz-adv-x="550" 
d="M227 -270l-11 33q81 26 81 78q0 19 -11 19q-3 0 -13 -6.5t-22 -6.5q-20 0 -31.5 13t-11.5 34q0 23 18.5 37.5t45.5 14.5q37 0 60 -23t23 -61q0 -52 -36 -85.5t-92 -46.5zM19 0v43l73 5v353l-71 -12v46l160 42l9 -5v-83q28 35 63 60q48 35 91 35q126 0 126 -135v-303
l61 -3v-43h-215v43l57 2v297q0 65 -73 65q-48 0 -110 -45v-315l64 -4v-43h-235z" />
    <glyph glyph-name="Ncaron" unicode="&#x147;" horiz-adv-x="656" 
d="M221 852h32l102 -70l103 70h31l-95 -136h-77zM31 0v44l66 10v554l-66 6v45h196l286 -445v385l-78 15v45h191v-45l-57 -14v-600h-49l-367 571v-511l100 -16v-44h-222z" />
    <glyph glyph-name="ncaron" unicode="&#x148;" horiz-adv-x="550" 
d="M154 705h32l96 -87l95 87h32l-91 -158h-73zM19 0v43l73 5v353l-71 -12v46l160 42l9 -5v-83q28 35 63 60q48 35 91 35q126 0 126 -135v-303l61 -3v-43h-215v43l57 2v297q0 65 -73 65q-48 0 -110 -45v-315l64 -4v-43h-235z" />
    <glyph glyph-name="napostrophe" unicode="&#x149;" horiz-adv-x="562" 
d="M-31 419l-12 32q43 16 68.5 44t25.5 60q0 25 -14 25q-2 0 -13.5 -8.5t-25.5 -8.5q-22 0 -35 15t-13 38q0 26 20.5 43.5t50.5 17.5q44 0 66.5 -25.5t22.5 -71.5q0 -64 -39.5 -104t-101.5 -57zM106 0v43l73 5v353l-71 -12v46l160 42l9 -5v-83q29 35 63 60q48 35 91 35
q126 0 126 -135v-303l61 -3v-43h-215v43l57 2v297q0 65 -73 65q-48 0 -110 -45v-315l64 -4v-43h-235z" />
    <glyph glyph-name="Eng" unicode="&#x14a;" horiz-adv-x="656" 
d="M31 0v44l66 10v554l-66 6v45h199l283 -439v379l-78 15v45h191v-45l-57 -14v-609q0 -119 -48 -180.5t-130 -61.5q-48 0 -77.5 25.5t-29.5 67.5q0 34 18 53.5t45 19.5q22 0 36.5 -13t14.5 -36q0 -21 -14 -35.5t-14 -17.5q0 -17 26 -17q52 0 84.5 45.5t32.5 136.5v35
l-360 559v-512l100 -16v-44h-222z" />
    <glyph glyph-name="eng" unicode="&#x14b;" horiz-adv-x="542" 
d="M19 0v43l73 5v353l-71 -12v46l161 42l9 -5v-82q28 34 62 59q48 35 91 35q127 0 127 -135v-350q0 -97 -55 -172t-136 -75q-28 0 -46 16t-18 39q0 22 12 35.5t32 13.5q40 0 79 -43q34 18 34 121v408q0 65 -73 65q-49 0 -109 -44v-316l64 -4v-43h-236z" />
    <glyph glyph-name="Omacron" unicode="&#x14c;" horiz-adv-x="678" 
d="M215 745v57h271v-57h-271zM339 32q184 0 184 293q0 295 -184 295q-89 0 -137 -75t-48 -220q0 -144 48 -218.5t137 -74.5zM339 -18q-123 0 -214 95.5t-91 247.5q0 151 91.5 248t213.5 97t213.5 -97t91.5 -248q0 -152 -91 -247.5t-214 -95.5z" />
    <glyph glyph-name="omacron" unicode="&#x14d;" horiz-adv-x="525" 
d="M141 592v56h247v-56h-247zM263 28q65 0 96 55.5t31 148.5t-31 148.5t-96 55.5q-66 0 -97 -55.5t-31 -148.5q0 -94 31 -149t97 -55zM263 -18q-94 0 -164 70t-70 180t70 180.5t164 70.5t163.5 -70.5t69.5 -180.5t-69.5 -180t-163.5 -70z" />
    <glyph glyph-name="Obreve" unicode="&#x14e;" horiz-adv-x="678" 
d="M350 713q-59 0 -91 41.5t-36 97.5h36q14 -68 91 -68q42 0 63 17t28 51h37q-4 -54 -37 -96.5t-91 -42.5zM339 32q184 0 184 293q0 295 -184 295q-89 0 -137 -75t-48 -220q0 -144 48 -218.5t137 -74.5zM339 -18q-123 0 -214 95.5t-91 247.5q0 151 91.5 248t213.5 97
t213.5 -97t91.5 -248q0 -152 -91 -247.5t-214 -95.5z" />
    <glyph glyph-name="obreve" unicode="&#x14f;" horiz-adv-x="525" 
d="M263 28q65 0 96 55.5t31 148.5t-31 148.5t-96 55.5q-66 0 -97 -55.5t-31 -148.5q0 -94 31 -149t97 -55zM263 -18q-94 0 -164 70t-70 180t70 180.5t164 70.5t163.5 -70.5t69.5 -180.5t-69.5 -180t-163.5 -70zM264 547q-57 0 -89 47.5t-36 115.5h35q7 -46 28 -68t62 -22
q43 0 63.5 22t27.5 68h35q-4 -68 -36.5 -115.5t-89.5 -47.5z" />
    <glyph glyph-name="Ohungarumlaut" unicode="&#x150;" horiz-adv-x="678" 
d="M442 716h-28l22 117q9 40 45 40q17 0 31.5 -11.5t14.5 -31.5q0 -16 -22 -45zM290 716h-28l23 117q9 40 45 40q17 0 31 -11.5t14 -31.5t-22 -45zM339 32q184 0 184 293q0 295 -184 295q-89 0 -137 -75t-48 -220q0 -144 48 -218.5t137 -74.5zM339 -18q-123 0 -214 95.5
t-91 247.5q0 151 91.5 248t213.5 97t213.5 -97t91.5 -248q0 -152 -91 -247.5t-214 -95.5z" />
    <glyph glyph-name="ohungarumlaut" unicode="&#x151;" horiz-adv-x="525" 
d="M176 539l33 146q9 39 45 39q16 0 29.5 -11.5t13.5 -30.5q0 -20 -20 -43l-73 -100h-28zM326 539l33 146q9 39 45 39q16 0 29.5 -11.5t13.5 -30.5q0 -18 -20 -43l-73 -100h-28zM263 28q65 0 96 55.5t31 148.5t-31 148.5t-96 55.5q-66 0 -97 -55.5t-31 -148.5q0 -94 31 -149
t97 -55zM263 -18q-94 0 -164 70t-70 180t70 180.5t164 70.5t163.5 -70.5t69.5 -180.5t-69.5 -180t-163.5 -70z" />
    <glyph glyph-name="OE" unicode="&#x152;" horiz-adv-x="899" 
d="M651 200l-7 76q-4 21 -14 27.5t-32 6.5h-77v-260h176q57 0 71 8t20 46l16 100h41v-204h-494q-63 0 -117.5 17.5t-100.5 54.5t-72.5 103t-26.5 154q0 85 26.5 150t71 103.5t98.5 57.5t115 19h466v-184h-39l-17 89q-6 30 -18 38t-46 8h-170v-255h77q42 0 44 33l9 79h38
v-267h-38zM154 329q0 -155 52.5 -217t152.5 -62h52v560h-54q-203 0 -203 -281z" />
    <glyph glyph-name="oe" unicode="&#x153;" horiz-adv-x="835" 
d="M263 -18q-94 0 -164 70t-70 180t70 180.5t164 70.5q56 0 103 -29.5t76 -82.5q28 52 74.5 82t102.5 30q82 0 134.5 -53t50.5 -164l-5 -8h-304v-22q0 -87 38.5 -139.5t103.5 -52.5q102 0 139 101l33 -15q-46 -148 -193 -148q-123 0 -177 105q-29 -51 -75 -78t-101 -27z
M263 28q65 0 96 55.5t31 148.5t-31 148.5t-96 55.5t-96 -55.5t-31 -148.5t31 -148.5t96 -55.5zM612 438q-91 0 -113 -137h205q-1 72 -22.5 104.5t-69.5 32.5z" />
    <glyph glyph-name="Racute" unicode="&#x154;" horiz-adv-x="623" 
d="M281 716h-29l51 112q15 45 50 45q18 0 34 -14.5t16 -36.5q0 -28 -33 -47zM31 0v44l67 6v559l-67 5v45h251q106 0 173 -43t67 -121q0 -65 -45.5 -108t-112.5 -59v-3q61 -9 92 -44.5t44 -98.5q18 -81 31 -108.5t44 -27.5q22 0 40 12l17 -34q-49 -33 -105 -33
q-71 0 -100 46.5t-43 141.5q-12 77 -34 103.5t-75 26.5h-66v-258l75 -7v-44h-253zM277 610h-68v-256h82q65 0 89.5 28t24.5 98q0 74 -35.5 102t-92.5 28z" />
    <glyph glyph-name="racute" unicode="&#x155;" horiz-adv-x="411" 
d="M197 538l54 146q13 39 47 39q16 0 31 -13t15 -33q0 -24 -22 -43l-96 -96h-29zM19 0v43l73 5v352l-77 -14v46l166 45l9 -5v-87q87 98 145 98q30 0 47 -17.5t17 -49.5q0 -29 -17.5 -48t-46.5 -19q-22 0 -37 11q1 44 -23 44q-25 0 -85 -50v-307l83 -4v-43h-254z" />
    <glyph glyph-name="Rcommaaccent" unicode="&#x156;" horiz-adv-x="623" 
d="M285 -270l-11 33q81 26 81 78q0 19 -11 19q-3 0 -13 -6.5t-22 -6.5q-20 0 -31.5 13t-11.5 34q0 23 18.5 37.5t45.5 14.5q37 0 60 -23t23 -61q0 -52 -36 -85.5t-92 -46.5zM31 0v44l67 6v559l-67 5v45h251q106 0 173 -43t67 -121q0 -65 -45.5 -108t-112.5 -59v-3
q61 -9 92 -44.5t44 -98.5q18 -81 31 -108.5t44 -27.5q22 0 40 12l17 -34q-49 -33 -105 -33q-71 0 -100 46.5t-43 141.5q-12 77 -34 103.5t-75 26.5h-66v-258l75 -7v-44h-253zM277 610h-68v-256h82q65 0 89.5 28t24.5 98q0 74 -35.5 102t-92.5 28z" />
    <glyph glyph-name="rcommaaccent" unicode="&#x157;" horiz-adv-x="411" 
d="M71 -270l-11 33q81 26 81 78q0 19 -11 19q-3 0 -13 -6.5t-22 -6.5q-20 0 -31.5 13t-11.5 34q0 23 18.5 37.5t45.5 14.5q37 0 60 -23t23 -61q0 -52 -36 -85.5t-92 -46.5zM19 0v43l73 5v352l-77 -14v46l166 45l9 -5v-87q87 98 145 98q30 0 47 -17.5t17 -49.5
q0 -29 -17.5 -48t-46.5 -19q-22 0 -37 11q1 44 -23 44q-25 0 -85 -50v-307l83 -4v-43h-254z" />
    <glyph glyph-name="Rcaron" unicode="&#x158;" horiz-adv-x="623" 
d="M147 852h32l102 -70l103 70h31l-95 -136h-77zM31 0v44l67 6v559l-67 5v45h251q106 0 173 -43t67 -121q0 -65 -45.5 -108t-112.5 -59v-3q61 -9 92 -44.5t44 -98.5q18 -81 31 -108.5t44 -27.5q22 0 40 12l17 -34q-49 -33 -105 -33q-71 0 -100 46.5t-43 141.5
q-12 77 -34 103.5t-75 26.5h-66v-258l75 -7v-44h-253zM277 610h-68v-256h82q65 0 89.5 28t24.5 98q0 74 -35.5 102t-92.5 28z" />
    <glyph glyph-name="rcaron" unicode="&#x159;" horiz-adv-x="411" 
d="M106 705h32l96 -87l95 87h32l-91 -158h-73zM19 0v43l73 5v352l-77 -14v46l166 45l9 -5v-87q87 98 145 98q30 0 47 -17.5t17 -49.5q0 -29 -17.5 -48t-46.5 -19q-22 0 -37 11q1 44 -23 44q-25 0 -85 -50v-307l83 -4v-43h-254z" />
    <glyph glyph-name="Sacute" unicode="&#x15a;" horiz-adv-x="522" 
d="M273 -18q-120 0 -178 81l-17 -50h-39v204l43 -2q9 -54 28 -92t44.5 -57t51.5 -27t56 -8q61 0 101 28.5t40 85.5q0 53 -39 84t-122 57q-98 33 -145 74t-47 122q0 88 56.5 138t138.5 50q103 0 151 -65l15 41h36v-168h-40q-16 68 -57.5 105.5t-103.5 37.5q-54 0 -86 -27
t-32 -72q0 -49 35 -73.5t122 -53.5q97 -33 150 -79.5t53 -131.5q0 -99 -62 -150.5t-153 -51.5zM252 716h-29l51 112q15 45 50 45q18 0 34 -14.5t16 -36.5q0 -28 -33 -47z" />
    <glyph glyph-name="sacute" unicode="&#x15b;" horiz-adv-x="392" 
d="M169 538l54 146q13 39 47 39q16 0 31 -13t15 -33q0 -24 -22 -43l-96 -96h-29zM183 -14q-70 0 -113.5 29.5t-43.5 69.5q0 51 48 51q26 0 39 -10q-4 -47 16 -72.5t62 -25.5q33 0 58.5 18.5t25.5 50.5q0 35 -22 54.5t-76 42.5q-67 24 -99 55.5t-32 89.5q0 59 47 100t116 41
q64 0 101.5 -26t37.5 -64q0 -42 -45 -42q-20 0 -36 10q-3 42 -18 60.5t-51 18.5q-32 0 -53 -17t-21 -49q0 -28 21 -46.5t74 -40.5q75 -29 110 -62.5t35 -87.5q0 -69 -48 -108.5t-133 -39.5z" />
    <glyph glyph-name="Scircumflex" unicode="&#x15c;" horiz-adv-x="522" 
d="M159 716h-32l96 136h77l95 -136h-31l-104 67zM273 -18q-120 0 -178 81l-17 -50h-39v204l43 -2q9 -54 28 -92t44.5 -57t51.5 -27t56 -8q61 0 101 28.5t40 85.5q0 53 -39 84t-122 57q-98 33 -145 74t-47 122q0 88 56.5 138t138.5 50q103 0 151 -65l15 41h36v-168h-40
q-16 68 -57.5 105.5t-103.5 37.5q-54 0 -86 -27t-32 -72q0 -49 35 -73.5t122 -53.5q97 -33 150 -79.5t53 -131.5q0 -99 -62 -150.5t-153 -51.5z" />
    <glyph glyph-name="scircumflex" unicode="&#x15d;" horiz-adv-x="392" 
d="M99 539h-31l91 158h71l92 -158h-31l-97 87zM183 -14q-70 0 -113.5 29.5t-43.5 69.5q0 51 48 51q26 0 39 -10q-4 -47 16 -72.5t62 -25.5q33 0 58.5 18.5t25.5 50.5q0 35 -22 54.5t-76 42.5q-67 24 -99 55.5t-32 89.5q0 59 47 100t116 41q64 0 101.5 -26t37.5 -64
q0 -42 -45 -42q-20 0 -36 10q-3 42 -18 60.5t-51 18.5q-32 0 -53 -17t-21 -49q0 -28 21 -46.5t74 -40.5q75 -29 110 -62.5t35 -87.5q0 -69 -48 -108.5t-133 -39.5z" />
    <glyph glyph-name="Scedilla" unicode="&#x15e;" horiz-adv-x="522" 
d="M231 -235q-50 0 -89 18l9 33q37 -10 60 -10q24 0 38.5 11t14.5 31q0 53 -74 39v108l-19 6q-45 19 -76 62l-17 -50h-39v204l43 -2q9 -54 28 -92t44.5 -57t51.5 -27t56 -8q61 0 101 28.5t40 85.5q0 53 -39 84t-122 57q-98 33 -145 74t-47 122q0 88 56.5 138t138.5 50
q103 0 151 -65l15 41h36v-168h-40q-16 68 -57.5 105.5t-103.5 37.5q-54 0 -86 -27t-32 -72q0 -49 35 -73.5t122 -53.5q97 -33 150 -79.5t53 -131.5q0 -99 -62 -150.5t-153 -51.5q-19 0 -39 3v-56q46 6 78.5 -15.5t32.5 -61.5t-31.5 -63.5t-82.5 -23.5z" />
    <glyph glyph-name="scedilla" unicode="&#x15f;" horiz-adv-x="392" 
d="M181 -235q-50 0 -89 18l9 33q37 -10 60 -10q24 0 38.5 11t14.5 31q0 53 -74 39v103q-10 1 -23 5q-42 12 -66.5 37t-24.5 53q0 51 48 51q26 0 39 -10q-4 -47 16 -72.5t62 -25.5q33 0 58.5 18.5t25.5 50.5q0 35 -22 54.5t-76 42.5q-67 24 -99 55.5t-32 89.5q0 59 47 100
t116 41q64 0 101.5 -26t37.5 -64q0 -42 -45 -42q-20 0 -36 10q-3 42 -18 60.5t-51 18.5q-32 0 -53 -17t-21 -49q0 -28 21 -46.5t74 -40.5q75 -29 110 -62.5t35 -87.5q0 -69 -48 -108.5t-132 -39.5v-57q46 6 78.5 -15.5t32.5 -61.5t-31.5 -63.5t-82.5 -23.5z" />
    <glyph glyph-name="Scaron" unicode="&#x160;" horiz-adv-x="522" 
d="M127 852h32l102 -70l103 70h31l-95 -136h-77zM273 -18q-120 0 -178 81l-17 -50h-39v204l43 -2q9 -54 28 -92t44.5 -57t51.5 -27t56 -8q61 0 101 28.5t40 85.5q0 53 -39 84t-122 57q-98 33 -145 74t-47 122q0 88 56.5 138t138.5 50q103 0 151 -65l15 41h36v-168h-40
q-16 68 -57.5 105.5t-103.5 37.5q-54 0 -86 -27t-32 -72q0 -49 35 -73.5t122 -53.5q97 -33 150 -79.5t53 -131.5q0 -99 -62 -150.5t-153 -51.5z" />
    <glyph glyph-name="scaron" unicode="&#x161;" horiz-adv-x="392" 
d="M73 705h32l96 -87l95 87h32l-91 -158h-73zM183 -14q-70 0 -113.5 29.5t-43.5 69.5q0 51 48 51q26 0 39 -10q-4 -47 16 -72.5t62 -25.5q33 0 58.5 18.5t25.5 50.5q0 35 -22 54.5t-76 42.5q-67 24 -99 55.5t-32 89.5q0 59 47 100t116 41q64 0 101.5 -26t37.5 -64
q0 -42 -45 -42q-20 0 -36 10q-3 42 -18 60.5t-51 18.5q-32 0 -53 -17t-21 -49q0 -28 21 -46.5t74 -40.5q75 -29 110 -62.5t35 -87.5q0 -69 -48 -108.5t-133 -39.5z" />
    <glyph glyph-name="Tcommaaccent" unicode="&#x162;" horiz-adv-x="591" 
d="M248 -270l-11 33q81 26 81 78q0 19 -11 19q-3 0 -13 -6.5t-22 -6.5q-20 0 -31.5 13t-11.5 34q0 23 18.5 37.5t45.5 14.5q37 0 60 -23t23 -61q0 -52 -36 -85.5t-92 -46.5zM162 0v44l78 8v558h-62q-49 0 -67.5 -14.5t-26.5 -71.5l-11 -83h-42v218h529v-218h-42l-11 83
q-8 57 -26.5 71.5t-67.5 14.5h-61v-558l78 -8v-44h-268z" />
    <glyph glyph-name="tcommaaccent" unicode="&#x163;" horiz-adv-x="344" 
d="M121 -270l-11 33q81 26 81 78q0 19 -11 19q-3 0 -13 -6.5t-22 -6.5q-20 0 -31.5 13t-11.5 34q0 23 18.5 37.5t45.5 14.5q37 0 60 -23t23 -61q0 -52 -36 -85.5t-92 -46.5zM195 -13q-60 0 -87 26t-27 80v328l-62 -2v38q47 10 74.5 35.5t48.5 77.5l37 -1v-102h133v-48h-133
v-306q0 -34 14.5 -50t53.5 -16q28 0 77 17l8 -31q-57 -46 -137 -46z" />
    <glyph glyph-name="Tcaron" unicode="&#x164;" horiz-adv-x="591" 
d="M168 852h32l102 -70l103 70h31l-95 -136h-77zM162 0v44l78 8v558h-62q-49 0 -67.5 -14.5t-26.5 -71.5l-11 -83h-42v218h529v-218h-42l-11 83q-8 57 -26.5 71.5t-67.5 14.5h-61v-558l78 -8v-44h-268z" />
    <glyph glyph-name="tcaron" unicode="&#x165;" horiz-adv-x="344" 
d="M262 506l-21 18q29 47 29 87q0 35 -26 64q8 42 44 42q21 0 35.5 -18.5t14.5 -48.5q0 -74 -76 -144zM195 -13q-60 0 -87 26t-27 80v328l-62 -2v38q47 10 74.5 35.5t48.5 77.5l37 -1v-102h133v-48h-133v-306q0 -34 14.5 -50t53.5 -16q28 0 77 17l8 -31q-57 -46 -137 -46z
" />
    <glyph glyph-name="Tbar" unicode="&#x166;" horiz-adv-x="591" 
d="M102 324v41h385v-41h-385zM162 0v44l78 8v558h-62q-49 0 -67.5 -14.5t-26.5 -71.5l-11 -83h-42v218h529v-218h-42l-11 83q-8 57 -26.5 71.5t-67.5 14.5h-61v-558l78 -8v-44h-268z" />
    <glyph glyph-name="tbar" unicode="&#x167;" horiz-adv-x="344" 
d="M17 271v41h294v-41h-294zM195 -13q-60 0 -87 26t-27 80v328l-62 -2v38q47 10 74.5 35.5t48.5 77.5l37 -1v-102h133v-48h-133v-306q0 -34 14.5 -50t53.5 -16q28 0 77 17l8 -31q-57 -46 -137 -46z" />
    <glyph glyph-name="Utilde" unicode="&#x168;" horiz-adv-x="641" 
d="M330 -13q-120 0 -181 59.5t-61 159.5v404l-59 4v45h252v-45l-84 -6v-388q0 -87 34.5 -131.5t116.5 -44.5q79 0 113.5 44t34.5 132v380l-78 14v45h194v-45l-60 -14v-389q0 -102 -53.5 -163t-168.5 -61zM428 738q-21 0 -67.5 14t-62.5 14q-32 -1 -46 -42h-37q11 51 36 85
t64 34q20 0 66.5 -14t61.5 -14q32 2 44 42h39q-11 -50 -36 -84.5t-62 -34.5z" />
    <glyph glyph-name="utilde" unicode="&#x169;" horiz-adv-x="543" 
d="M210 -16q-62 0 -97 32.5t-35 98.5v306l-60 3v42h158v-343q0 -71 69 -71q51 0 113 44v323l-58 5v42h156v-410l71 3v-41l-158 -26l-10 4l3 76q-31 -38 -60 -54q-47 -34 -92 -34zM319 568q-21 0 -62.5 15t-56.5 15q-31 -1 -46 -43h-37q12 50 37 84t62 34q21 0 62 -15t54 -15
q31 3 45 44h39q-11 -51 -36 -85t-61 -34z" />
    <glyph glyph-name="Umacron" unicode="&#x16a;" horiz-adv-x="641" 
d="M330 -13q-120 0 -181 59.5t-61 159.5v404l-59 4v45h252v-45l-84 -6v-388q0 -87 34.5 -131.5t116.5 -44.5q79 0 113.5 44t34.5 132v380l-78 14v45h194v-45l-60 -14v-389q0 -102 -53.5 -163t-168.5 -61zM226 745v57h271v-57h-271z" />
    <glyph glyph-name="umacron" unicode="&#x16b;" horiz-adv-x="543" 
d="M210 -16q-62 0 -97 32.5t-35 98.5v306l-60 3v42h158v-343q0 -71 69 -71q51 0 113 44v323l-58 5v42h156v-410l71 3v-41l-158 -26l-10 4l3 76q-31 -38 -60 -54q-47 -34 -92 -34zM139 592v56h247v-56h-247z" />
    <glyph glyph-name="Ubreve" unicode="&#x16c;" horiz-adv-x="641" 
d="M330 -13q-120 0 -181 59.5t-61 159.5v404l-59 4v45h252v-45l-84 -6v-388q0 -87 34.5 -131.5t116.5 -44.5q79 0 113.5 44t34.5 132v380l-78 14v45h194v-45l-60 -14v-389q0 -102 -53.5 -163t-168.5 -61zM359 713q-59 0 -91 41.5t-36 97.5h36q14 -68 91 -68q42 0 63 17
t28 51h37q-4 -54 -37 -96.5t-91 -42.5z" />
    <glyph glyph-name="ubreve" unicode="&#x16d;" horiz-adv-x="543" 
d="M210 -16q-62 0 -97 32.5t-35 98.5v306l-60 3v42h158v-343q0 -71 69 -71q51 0 113 44v323l-58 5v42h156v-410l71 3v-41l-158 -26l-10 4l3 76q-31 -38 -60 -54q-47 -34 -92 -34zM262 547q-57 0 -89 47.5t-36 115.5h35q7 -46 28 -68t62 -22q43 0 63.5 22t27.5 68h35
q-4 -68 -36.5 -115.5t-89.5 -47.5z" />
    <glyph glyph-name="Uring" unicode="&#x16e;" horiz-adv-x="641" 
d="M330 -13q-120 0 -181 59.5t-61 159.5v404l-59 4v45h252v-45l-84 -6v-388q0 -87 34.5 -131.5t116.5 -44.5q79 0 113.5 44t34.5 132v380l-78 14v45h194v-45l-60 -14v-389q0 -102 -53.5 -163t-168.5 -61zM362 730q23 0 37.5 16t14.5 40t-14.5 40t-37.5 16t-37.5 -16
t-14.5 -40t14.5 -40t37.5 -16zM362 696q-38 0 -64 26t-26 64t26 64t64 26t64.5 -26t26.5 -64t-26.5 -64t-64.5 -26z" />
    <glyph glyph-name="uring" unicode="&#x16f;" horiz-adv-x="543" 
d="M262 572q23 0 37.5 15.5t14.5 39.5t-14.5 39.5t-37.5 15.5t-37.5 -15.5t-14.5 -39.5t14.5 -39.5t37.5 -15.5zM262 537q-38 0 -64 26t-26 64t26 64t64 26t64.5 -26t26.5 -64t-26.5 -64t-64.5 -26zM210 -16q-62 0 -97 32.5t-35 98.5v306l-60 3v42h158v-343q0 -71 69 -71
q51 0 113 44v323l-58 5v42h156v-410l71 3v-41l-158 -26l-10 4l3 76q-31 -38 -60 -54q-47 -34 -92 -34z" />
    <glyph glyph-name="Uhungarumlaut" unicode="&#x170;" horiz-adv-x="641" 
d="M451 716h-28l22 117q9 40 45 40q17 0 31.5 -11.5t14.5 -31.5q0 -16 -22 -45zM299 716h-28l23 117q9 40 45 40q17 0 31 -11.5t14 -31.5t-22 -45zM330 -13q-120 0 -181 59.5t-61 159.5v404l-59 4v45h252v-45l-84 -6v-388q0 -87 34.5 -131.5t116.5 -44.5q79 0 113.5 44
t34.5 132v380l-78 14v45h194v-45l-60 -14v-389q0 -102 -53.5 -163t-168.5 -61z" />
    <glyph glyph-name="uhungarumlaut" unicode="&#x171;" horiz-adv-x="543" 
d="M210 -16q-62 0 -97 32.5t-35 98.5v306l-60 3v42h158v-343q0 -71 69 -71q51 0 113 44v323l-58 5v42h156v-410l71 3v-41l-158 -26l-10 4l3 76q-31 -38 -60 -54q-47 -34 -92 -34zM175 539l33 146q9 39 45 39q16 0 29.5 -11.5t13.5 -30.5q0 -20 -20 -43l-73 -100h-28z
M325 539l33 146q9 39 45 39q16 0 29.5 -11.5t13.5 -30.5q0 -18 -20 -43l-73 -100h-28z" />
    <glyph glyph-name="Uogonek" unicode="&#x172;" horiz-adv-x="641" 
d="M440 -171l22 -20q-38 -58 -102 -58q-45 0 -73.5 23.5t-28.5 63.5q0 71 124 154q-23 -5 -52 -5q-120 0 -181 59.5t-61 159.5v404l-59 4v45h252v-45l-84 -6v-388q0 -87 34.5 -131.5t116.5 -44.5q79 0 113.5 44t34.5 132v380l-78 14v45h194v-45l-60 -14v-389
q0 -120 -69 -178q-44 -37 -65.5 -56.5t-44 -55t-22.5 -69.5q0 -46 41 -46q27 0 48 23z" />
    <glyph glyph-name="uogonek" unicode="&#x173;" horiz-adv-x="543" 
d="M208 -16q-61 0 -95.5 32.5t-34.5 98.5v303l-60 3v45h159v-343q0 -35 15.5 -53t52.5 -18q50 0 110 43v322l-60 4v45h159v-410l71 3v-41l-119 -19q-70 -85 -70 -147q0 -46 41 -46q26 0 47 23l22 -20q-33 -58 -101 -58q-46 0 -74.5 23.5t-28.5 63.5q0 64 115 157l3 76
q-35 -38 -63 -56q-44 -31 -89 -31z" />
    <glyph glyph-name="Wcircumflex" unicode="&#x174;" horiz-adv-x="884" 
d="M358 716h-32l96 136h77l95 -136h-31l-104 67zM565 -11l-114 393l-130 -393h-72l-173 621l-50 4v45h225v-45l-58 -4l123 -475h1l108 331l-44 144l-49 4v45h205v-45l-47 -4l132 -474h1l123 459l-73 19v45h185v-45l-55 -16l-166 -609h-72z" />
    <glyph glyph-name="wcircumflex" unicode="&#x175;" horiz-adv-x="720" 
d="M296 539h-31l91 158h71l92 -158h-31l-97 87zM484 -10l-116 316h-2l-131 -316h-44l-140 432l-39 3v42h205v-42l-58 -4l86 -284h2l97 234l-18 49l-46 5v42h204v-42l-56 -4l98 -283h3l86 274l-62 13v42h155v-42l-41 -8l-138 -427h-45z" />
    <glyph glyph-name="Ycircumflex" unicode="&#x176;" horiz-adv-x="589" 
d="M166 0v44l79 8v259l-180 299l-45 4v45h238v-45l-66 -4l142 -248l124 233l-68 19v45h179v-45l-56 -20l-156 -290v-253l78 -7v-44h-269zM230 716h-32l96 136h77l95 -136h-31l-104 67z" />
    <glyph glyph-name="ycircumflex" unicode="&#x177;" horiz-adv-x="500" 
d="M113 -243q-36 0 -56.5 20t-20.5 44q0 23 14.5 37t34.5 14q18 0 28 -10q0 -42 31 -42q38 0 83 128l11 33l-188 441l-41 3v42h219v-42l-63 -4l120 -308h1l107 296l-62 16v42h160v-42l-45 -13l-173 -468q-37 -104 -71.5 -145.5t-88.5 -41.5zM176 539h-31l91 158h71l92 -158
h-31l-97 87z" />
    <glyph glyph-name="Ydieresis" unicode="&#x178;" horiz-adv-x="589" 
d="M166 0v44l79 8v259l-180 299l-45 4v45h238v-45l-66 -4l142 -248l124 233l-68 19v45h179v-45l-56 -20l-156 -290v-253l78 -7v-44h-269zM234 722q-23 0 -39.5 16.5t-16.5 39.5t16.5 39t39.5 16q24 0 40 -16t16 -39t-16 -39.5t-40 -16.5zM432 722q-23 0 -39 16.5t-16 39.5
t16 39t39 16q24 0 40.5 -16t16.5 -39t-16.5 -39.5t-40.5 -16.5z" />
    <glyph glyph-name="Zacute" unicode="&#x179;" horiz-adv-x="577" 
d="M299 716h-29l51 112q15 45 50 45q18 0 34 -14.5t16 -36.5q0 -28 -33 -47zM73 447v212h455v-31l-352 -578h162q82 0 105.5 12t29.5 56l19 112h41v-230h-490v29l351 581h-159q-62 0 -79.5 -12t-25.5 -59l-17 -92h-40z" />
    <glyph glyph-name="zacute" unicode="&#x17a;" horiz-adv-x="452" 
d="M192 538l54 146q13 39 47 39q16 0 31 -13t15 -33q0 -24 -22 -43l-96 -96h-29zM50 333v134h355v-32l-250 -392h93q64 0 86.5 14t26.5 63l3 27h38v-147h-366v32l258 395h-76q-74 0 -96.5 -11.5t-28.5 -54.5l-5 -28h-38z" />
    <glyph glyph-name="Zdotaccent" unicode="&#x17b;" horiz-adv-x="577" 
d="M73 447v212h455v-31l-352 -578h162q82 0 105.5 12t29.5 56l19 112h41v-230h-490v29l351 581h-159q-62 0 -79.5 -12t-25.5 -59l-17 -92h-40zM308 723q-24 0 -41.5 17t-17.5 41t17.5 41t41.5 17q26 0 43 -16.5t17 -41.5q0 -24 -17 -41t-43 -17z" />
    <glyph glyph-name="zdotaccent" unicode="&#x17c;" horiz-adv-x="452" 
d="M50 333v134h355v-32l-250 -392h93q64 0 86.5 14t26.5 63l3 27h38v-147h-366v32l258 395h-76q-74 0 -96.5 -11.5t-28.5 -54.5l-5 -28h-38zM228 569q-25 0 -42 17t-17 41q0 26 17 42t42 16q26 0 43 -16t17 -42q0 -24 -17 -41t-43 -17z" />
    <glyph glyph-name="florin" unicode="&#x192;" horiz-adv-x="468" 
d="M38 323v48h98l5 52q13 124 71 186.5t152 62.5q58 0 93 -26t35 -68q0 -33 -18 -51t-44 -18q-23 0 -38.5 12t-15.5 35q0 20 13.5 34.5t13.5 18.5q0 17 -35 17q-47 0 -77 -36.5t-39 -128.5l-11 -90h144v-48h-149l-42 -362q-24 -203 -177 -203q-48 0 -77.5 25t-29.5 64
q0 31 16 47t41 16q21 0 35.5 -11.5t14.5 -33.5q0 -17 -13 -30.5t-13 -16.5q0 -14 26 -14q64 0 73 108l41 411h-93z" />
    <glyph glyph-name="Aringacute" unicode="&#x1fa;" horiz-adv-x="655" 
d="M384 0v44l78 5l-60 170h-213l-53 -154l98 -21v-44h-216v44l60 16l215 610h68l219 -623l57 -3v-44h-253zM294 521l-90 -258h182l-91 258h-1zM333 956h-29l51 112q15 45 50 45q18 0 34 -14.5t16 -36.5q0 -28 -33 -47zM334 750q23 0 37.5 16t14.5 40t-14.5 40t-37.5 16
t-37.5 -16t-14.5 -40t14.5 -40t37.5 -16zM334 716q-38 0 -64 26t-26 64t26 64t64 26t64.5 -26t26.5 -64t-26.5 -64t-64.5 -26z" />
    <glyph glyph-name="aringacute" unicode="&#x1fb;" horiz-adv-x="486" 
d="M160 -12q-57 0 -95.5 31.5t-38.5 91.5q0 68 51.5 105.5t130.5 37.5q42 0 82 -14v123q0 74 -78 74q-30 0 -56 -12q-17 -8 -17 -17q0 -4 7 -8.5t14 -14t7 -26.5q0 -21 -15.5 -34t-37.5 -13q-24 0 -39 16t-15 43q0 51 52.5 77.5t118.5 26.5q77 0 117 -26t40 -90v-270
q0 -36 32 -36q24 0 47 15l17 -23q-39 -54 -104 -54q-66 0 -86 66q-61 -69 -134 -69zM206 48q44 0 84 35v122q-41 9 -72 9q-39 0 -65 -21.5t-26 -64.5q0 -38 21.5 -59t57.5 -21zM230 563q23 0 37.5 15.5t14.5 39.5t-14.5 39.5t-37.5 15.5t-37.5 -15.5t-14.5 -39.5t14.5 -39.5
t37.5 -15.5zM230 528q-38 0 -64 26t-26 64t26 64t64 26t64.5 -26t26.5 -64t-26.5 -64t-64.5 -26zM231 776h-29l51 112q15 45 50 45q18 0 34 -14.5t16 -36.5q0 -28 -33 -47z" />
    <glyph glyph-name="AEacute" unicode="&#x1fc;" horiz-adv-x="879" 
d="M575 716h-29l51 112q15 45 50 45q18 0 34 -14.5t16 -36.5q0 -28 -33 -47zM16 0v44l70 19l270 544l-88 7v45h533v-184h-39l-15 89q-5 29 -18 37.5t-47 8.5h-166v-260h62q42 0 45 34l7 78h39v-266h-38l-8 76q-2 20 -12 26.5t-32 6.5h-63v-255h170q58 0 71.5 8t19.5 46
l17 100h41v-204h-497v44l67 7v252h-145l-118 -240l93 -19v-44h-219zM403 592l-121 -244h123v244h-2z" />
    <glyph glyph-name="aeacute" unicode="&#x1fd;" horiz-adv-x="734" 
d="M369 538l54 146q13 39 47 39q16 0 31 -13t15 -33q0 -24 -22 -43l-96 -96h-29zM174 -11q-64 0 -106.5 36t-42.5 98q0 70 51 108.5t146 38.5h70v93q0 74 -81 74q-30 0 -56 -12q-17 -9 -17 -17q0 -4 7 -8.5t14 -14t7 -26.5q0 -21 -15.5 -34t-37.5 -13t-38 16.5t-16 42.5
q0 52 52.5 82.5t113.5 30.5q117 0 141 -79q59 78 152 78q40 0 72.5 -12t60 -39t41.5 -76.5t11 -117.5l-5 -8h-300q1 -86 35.5 -136t98.5 -50q102 0 139 101l34 -15q-47 -148 -193 -148q-124 0 -182 96q-64 -89 -156 -89zM512 438q-51 0 -80 -46t-33 -121h205q0 94 -22 130.5
t-70 36.5zM206 49q59 0 109 59q-23 55 -23 120h-64q-102 0 -102 -88q0 -40 22.5 -65.5t57.5 -25.5z" />
    <glyph glyph-name="Oslashacute" unicode="&#x1fe;" horiz-adv-x="678" 
d="M84 -29l-36 26l68 89q-82 96 -82 238q0 153 91.5 249.5t213.5 96.5q97 0 178 -64l61 80l36 -28l-64 -83q94 -99 94 -251t-91 -247.5t-214 -95.5q-106 0 -191 73zM339 31q185 0 185 293q0 114 -26 184l-305 -396q44 -81 146 -81zM154 324q0 -96 19 -164l303 393
q-45 67 -137 67q-89 0 -137 -75.5t-48 -220.5zM341 716h-29l51 112q15 45 50 45q18 0 34 -14.5t16 -36.5q0 -28 -33 -47z" />
    <glyph glyph-name="oslashacute" unicode="&#x1ff;" horiz-adv-x="525" 
d="M66 -39l-34 26l59 73q-62 68 -62 172q0 110 70 180.5t164 70.5q72 0 134 -46l52 63l34 -26l-54 -66q67 -72 67 -176q0 -110 -69.5 -180t-163.5 -70q-78 0 -141 48zM263 28q65 0 96 55.5t31 148.5q0 67 -13 112l-214 -264q30 -52 100 -52zM134 232q0 -66 11 -106l214 263
q-31 49 -96 49t-97 -56.5t-32 -149.5zM230 538l54 146q13 39 47 39q16 0 31 -13t15 -33q0 -24 -22 -43l-96 -96h-29z" />
    <glyph glyph-name="Scommaaccent" unicode="&#x218;" horiz-adv-x="522" 
d="M204 -270l-11 33q81 26 81 78q0 19 -11 19q-3 0 -13 -6.5t-22 -6.5q-20 0 -31.5 13t-11.5 34q0 23 18.5 37.5t45.5 14.5q37 0 60 -23t23 -61q0 -52 -36 -85.5t-92 -46.5zM273 -18q-120 0 -178 81l-17 -50h-39v204l43 -2q9 -54 28 -92t44.5 -57t51.5 -27t56 -8
q61 0 101 28.5t40 85.5q0 53 -39 84t-122 57q-98 33 -145 74t-47 122q0 88 56.5 138t138.5 50q103 0 151 -65l15 41h36v-168h-40q-16 68 -57.5 105.5t-103.5 37.5q-54 0 -86 -27t-32 -72q0 -49 35 -73.5t122 -53.5q97 -33 150 -79.5t53 -131.5q0 -99 -62 -150.5t-153 -51.5z
" />
    <glyph glyph-name="scommaaccent" unicode="&#x219;" horiz-adv-x="392" 
d="M130 -270l-11 33q81 26 81 78q0 19 -11 19q-3 0 -13 -6.5t-22 -6.5q-20 0 -31.5 13t-11.5 34q0 23 18.5 37.5t45.5 14.5q37 0 60 -23t23 -61q0 -52 -36 -85.5t-92 -46.5zM183 -14q-70 0 -113.5 29.5t-43.5 69.5q0 51 48 51q26 0 39 -10q-4 -47 16 -72.5t62 -25.5
q33 0 58.5 18.5t25.5 50.5q0 35 -22 54.5t-76 42.5q-67 24 -99 55.5t-32 89.5q0 59 47 100t116 41q64 0 101.5 -26t37.5 -64q0 -42 -45 -42q-20 0 -36 10q-3 42 -18 60.5t-51 18.5q-32 0 -53 -17t-21 -49q0 -28 21 -46.5t74 -40.5q75 -29 110 -62.5t35 -87.5
q0 -69 -48 -108.5t-133 -39.5z" />
    <glyph glyph-name="uni021A" unicode="&#x21a;" horiz-adv-x="591" 
d="M248 -270l-11 33q81 26 81 78q0 19 -11 19q-3 0 -13 -6.5t-22 -6.5q-20 0 -31.5 13t-11.5 34q0 23 18.5 37.5t45.5 14.5q37 0 60 -23t23 -61q0 -52 -36 -85.5t-92 -46.5zM162 0v44l78 8v558h-62q-49 0 -67.5 -14.5t-26.5 -71.5l-11 -83h-42v218h529v-218h-42l-11 83
q-8 57 -26.5 71.5t-67.5 14.5h-61v-558l78 -8v-44h-268z" />
    <glyph glyph-name="uni021B" unicode="&#x21b;" horiz-adv-x="344" 
d="M121 -270l-11 33q81 26 81 78q0 19 -11 19q-3 0 -13 -6.5t-22 -6.5q-20 0 -31.5 13t-11.5 34q0 23 18.5 37.5t45.5 14.5q37 0 60 -23t23 -61q0 -52 -36 -85.5t-92 -46.5zM195 -13q-60 0 -87 26t-27 80v328l-62 -2v38q47 10 74.5 35.5t48.5 77.5l37 -1v-102h133v-48h-133
v-306q0 -34 14.5 -50t53.5 -16q28 0 77 17l8 -31q-57 -46 -137 -46z" />
    <glyph glyph-name="uni0237" unicode="&#x237;" horiz-adv-x="273" 
d="M2 -248q-29 0 -46 15.5t-17 39.5q0 22 10.5 35.5t29.5 13.5q36 0 69 -38q47 24 47 116v467l-77 -10v46l166 40l10 -5v-473q0 -97 -55.5 -172t-136.5 -75z" />
    <glyph glyph-name="circumflex" unicode="&#x2c6;" horiz-adv-x="481" 
d="M187 539h-31l91 158h71l92 -158h-31l-97 87z" />
    <glyph glyph-name="caron" unicode="&#x2c7;" horiz-adv-x="481" 
d="M113 705h32l96 -87l95 87h32l-91 -158h-73z" />
    <glyph glyph-name="breve" unicode="&#x2d8;" horiz-adv-x="481" 
d="M240 547q-57 0 -89 47.5t-36 115.5h35q7 -46 28 -68t62 -22q43 0 63.5 22t27.5 68h35q-4 -68 -36.5 -115.5t-89.5 -47.5z" />
    <glyph glyph-name="dotaccent" unicode="&#x2d9;" horiz-adv-x="481" 
d="M240 569q-25 0 -42 17t-17 41q0 26 17 42t42 16q26 0 43 -16t17 -42q0 -24 -17 -41t-43 -17z" />
    <glyph glyph-name="ring" unicode="&#x2da;" horiz-adv-x="481" 
d="M240 572q23 0 37.5 15.5t14.5 39.5t-14.5 39.5t-37.5 15.5t-37.5 -15.5t-14.5 -39.5t14.5 -39.5t37.5 -15.5zM240 537q-38 0 -64 26t-26 64t26 64t64 26t64.5 -26t26.5 -64t-26.5 -64t-64.5 -26z" />
    <glyph glyph-name="ogonek" unicode="&#x2db;" horiz-adv-x="481" 
d="M223 -246q-44 0 -74 25t-30 69q0 28 19 62t38.5 55.5t54.5 56.5h47q-64 -91 -64 -159q0 -54 42 -54q25 0 47 25l20 -22q-36 -58 -100 -58z" />
    <glyph glyph-name="tilde" unicode="&#x2dc;" horiz-adv-x="481" 
d="M293 568q-21 0 -62.5 15t-56.5 15q-31 -1 -46 -43h-37q12 50 37 84t62 34q21 0 62 -15t54 -15q31 3 45 44h39q-11 -51 -36 -85t-61 -34z" />
    <glyph glyph-name="hungarumlaut" unicode="&#x2dd;" horiz-adv-x="481" 
d="M116 539l33 146q9 39 45 39q16 0 29.5 -11.5t13.5 -30.5q0 -20 -20 -43l-73 -100h-28zM266 539l33 146q9 39 45 39q16 0 29.5 -11.5t13.5 -30.5q0 -18 -20 -43l-73 -100h-28z" />
    <glyph glyph-name="Wgrave" unicode="&#x1e80;" horiz-adv-x="884" 
d="M498 716h-30l-89 59q-32 20 -32 47q0 23 15.5 37t34.5 14q32 0 49 -45zM565 -11l-114 393l-130 -393h-72l-173 621l-50 4v45h225v-45l-58 -4l123 -475h1l108 331l-44 144l-49 4v45h205v-45l-47 -4l132 -474h1l123 459l-73 19v45h185v-45l-55 -16l-166 -609h-72z" />
    <glyph glyph-name="wgrave" unicode="&#x1e81;" horiz-adv-x="720" 
d="M484 -10l-116 316h-2l-131 -316h-44l-140 432l-39 3v42h205v-42l-58 -4l86 -284h2l97 234l-18 49l-46 5v42h204v-42l-56 -4l98 -283h3l86 274l-62 13v42h155v-42l-41 -8l-138 -427h-45zM401 538l-96 96q-23 23 -23 43t15 33t32 13q34 0 47 -39l53 -146h-28z" />
    <glyph glyph-name="Wacute" unicode="&#x1e82;" horiz-adv-x="884" 
d="M451 716h-29l51 112q15 45 50 45q18 0 34 -14.5t16 -36.5q0 -28 -33 -47zM565 -11l-114 393l-130 -393h-72l-173 621l-50 4v45h225v-45l-58 -4l123 -475h1l108 331l-44 144l-49 4v45h205v-45l-47 -4l132 -474h1l123 459l-73 19v45h185v-45l-55 -16l-166 -609h-72z" />
    <glyph glyph-name="wacute" unicode="&#x1e83;" horiz-adv-x="720" 
d="M365 538l54 146q13 39 47 39q16 0 31 -13t15 -33q0 -24 -22 -43l-96 -96h-29zM484 -10l-116 316h-2l-131 -316h-44l-140 432l-39 3v42h205v-42l-58 -4l86 -284h2l97 234l-18 49l-46 5v42h204v-42l-56 -4l98 -283h3l86 274l-62 13v42h155v-42l-41 -8l-138 -427h-45z" />
    <glyph glyph-name="Wdieresis" unicode="&#x1e84;" horiz-adv-x="884" 
d="M362 722q-23 0 -39.5 16.5t-16.5 39.5t16.5 39t39.5 16q24 0 40 -16t16 -39t-16 -39.5t-40 -16.5zM560 722q-23 0 -39 16.5t-16 39.5t16 39t39 16q24 0 40.5 -16t16.5 -39t-16.5 -39.5t-40.5 -16.5zM565 -11l-114 393l-130 -393h-72l-173 621l-50 4v45h225v-45l-58 -4
l123 -475h1l108 331l-44 144l-49 4v45h205v-45l-47 -4l132 -474h1l123 459l-73 19v45h185v-45l-55 -16l-166 -609h-72z" />
    <glyph glyph-name="wdieresis" unicode="&#x1e85;" horiz-adv-x="720" 
d="M306 568q-23 0 -39 15.5t-16 39.5q0 23 16 38.5t39 15.5t39 -15.5t16 -38.5q0 -24 -16 -39.5t-39 -15.5zM487 568q-24 0 -40 15.5t-16 39.5q0 23 16.5 38.5t39.5 15.5t39.5 -15.5t16.5 -38.5q0 -24 -16 -39.5t-40 -15.5zM484 -10l-116 316h-2l-131 -316h-44l-140 432
l-39 3v42h205v-42l-58 -4l86 -284h2l97 234l-18 49l-46 5v42h204v-42l-56 -4l98 -283h3l86 274l-62 13v42h155v-42l-41 -8l-138 -427h-45z" />
    <glyph glyph-name="Ygrave" unicode="&#x1ef2;" horiz-adv-x="589" 
d="M166 0v44l79 8v259l-180 299l-45 4v45h238v-45l-66 -4l142 -248l124 233l-68 19v45h179v-45l-56 -20l-156 -290v-253l78 -7v-44h-269zM385 716h-30l-89 59q-32 20 -32 47q0 23 15.5 37t34.5 14q32 0 49 -45z" />
    <glyph glyph-name="ygrave" unicode="&#x1ef3;" horiz-adv-x="500" 
d="M113 -243q-36 0 -56.5 20t-20.5 44q0 23 14.5 37t34.5 14q18 0 28 -10q0 -42 31 -42q38 0 83 128l11 33l-188 441l-41 3v42h219v-42l-63 -4l120 -308h1l107 296l-62 16v42h160v-42l-45 -13l-173 -468q-37 -104 -71.5 -145.5t-88.5 -41.5zM285 538l-96 96q-23 23 -23 43
t15 33t32 13q34 0 47 -39l53 -146h-28z" />
    <glyph glyph-name="uni2009" unicode="&#x2009;" horiz-adv-x="97" 
 />
    <glyph glyph-name="endash" unicode="&#x2013;" horiz-adv-x="474" 
d="M44 230v48h386v-48h-386z" />
    <glyph glyph-name="emdash" unicode="&#x2014;" horiz-adv-x="860" 
d="M44 230v48h772v-48h-772z" />
    <glyph glyph-name="quoteleft" unicode="&#x2018;" horiz-adv-x="262" 
d="M196 677l12 -32q-93 -38 -93 -104q0 -24 13 -24q1 0 12.5 8.5t25.5 8.5q22 0 35.5 -15.5t13.5 -38.5q0 -26 -20.5 -43t-50.5 -17q-44 0 -67.5 25t-23.5 71q0 64 40 103.5t103 57.5z" />
    <glyph glyph-name="quoteright" unicode="&#x2019;" horiz-adv-x="262" 
d="M67 419l-12 32q43 16 68.5 44t25.5 60q0 25 -14 25q-2 0 -13.5 -8.5t-25.5 -8.5q-22 0 -35 15t-13 38q0 26 20.5 43.5t50.5 17.5q44 0 66.5 -25.5t22.5 -71.5q0 -64 -39.5 -104t-101.5 -57z" />
    <glyph glyph-name="quotesinglbase" unicode="&#x201a;" horiz-adv-x="262" 
d="M67 -102l-12 32q94 38 94 104q0 24 -14 24q-2 0 -13.5 -8.5t-25.5 -8.5q-21 0 -34.5 15t-13.5 39q0 26 20.5 43.5t50.5 17.5q43 0 66 -25.5t23 -70.5q0 -64 -39.5 -104.5t-101.5 -57.5z" />
    <glyph glyph-name="quotedblleft" unicode="&#x201c;" horiz-adv-x="466" 
d="M399 677l11 -32q-93 -38 -93 -104q0 -24 13 -24q3 0 14 8.5t25 8.5q21 0 34.5 -15t13.5 -39q0 -26 -20.5 -43t-50.5 -17q-44 0 -67 25t-23 71q0 64 40 103.5t103 57.5zM196 677l12 -32q-93 -38 -93 -104q0 -24 13 -24q1 0 12.5 8.5t25.5 8.5q22 0 35.5 -15.5t13.5 -38.5
q0 -26 -20.5 -43t-50.5 -17q-44 0 -67.5 25t-23.5 71q0 64 40 103.5t103 57.5z" />
    <glyph glyph-name="quotedblright" unicode="&#x201d;" horiz-adv-x="466" 
d="M67 419l-12 32q43 16 68.5 44t25.5 60q0 25 -14 25q-2 0 -13.5 -8.5t-25.5 -8.5q-22 0 -35 15t-13 38q0 26 20.5 43.5t50.5 17.5q44 0 66.5 -25.5t22.5 -71.5q0 -64 -39.5 -104t-101.5 -57zM269 419l-12 32q43 16 68.5 44t25.5 60q0 25 -15 25q-1 0 -12 -8.5t-26 -8.5
q-21 0 -34.5 15t-13.5 38q0 26 21 43.5t51 17.5q44 0 66.5 -25.5t22.5 -71.5q0 -120 -142 -161z" />
    <glyph glyph-name="quotedblbase" unicode="&#x201e;" horiz-adv-x="466" 
d="M67 -102l-12 32q94 38 94 104q0 24 -14 24q-2 0 -13.5 -8.5t-25.5 -8.5q-21 0 -34.5 15t-13.5 39q0 26 20.5 43.5t50.5 17.5q43 0 66 -25.5t23 -70.5q0 -64 -39.5 -104.5t-101.5 -57.5zM269 -102l-12 32q94 39 94 104q0 24 -15 24q-1 0 -12 -8.5t-26 -8.5
q-21 0 -34.5 15.5t-13.5 38.5q0 26 21 43.5t51 17.5q43 0 66 -25.5t23 -70.5q0 -121 -142 -162z" />
    <glyph glyph-name="dagger" unicode="&#x2020;" horiz-adv-x="434" 
d="M267 663l-38 -141l117 33q26 9 44 -4.5t18 -40.5t-17.5 -40.5t-44.5 -5.5l-118 35q18 -89 49 -175q-37 -143 -37 -349v-168h-47v168q0 206 -37 349q33 94 48 175l-117 -35q-27 -8 -44.5 5.5t-17.5 40.5t18 40.5t44 4.5l116 -33l-38 141q-8 29 8 48.5t44 19.5t43.5 -19.5
t6.5 -48.5z" />
    <glyph glyph-name="daggerdbl" unicode="&#x2021;" horiz-adv-x="434" 
d="M276 368q-9 -3 -25.5 -36.5t-16.5 -66.5q0 -32 16.5 -65.5t25.5 -36.5q-33 -59 -48 -130l118 34q27 8 44.5 -5.5t17.5 -40.5t-17.5 -40t-44.5 -5l-117 34l38 -142q9 -29 -6.5 -48t-43.5 -19q-29 0 -44.5 19t-7.5 48l38 141l-116 -33q-27 -8 -44.5 5t-17.5 40t17.5 40.5
t44.5 5.5l117 -34q-15 74 -47 130q9 3 26 36.5t17 65.5q0 33 -17 66.5t-26 36.5q29 52 48 130l-118 -35q-27 -8 -44.5 5.5t-17.5 40.5t18 40.5t44 4.5l116 -34l-38 142q-8 29 8 48.5t44 19.5t43.5 -19.5t6.5 -48.5l-38 -142l117 34q26 9 44 -4.5t18 -40.5t-17.5 -40.5
t-44.5 -5.5l-118 35q18 -82 48 -130z" />
    <glyph glyph-name="bullet" unicode="&#x2022;" horiz-adv-x="289" 
d="M145 198q-46 0 -76 30t-30 76q0 45 30 74.5t76 29.5t75.5 -29.5t29.5 -74.5q0 -46 -29.5 -76t-75.5 -30z" />
    <glyph glyph-name="ellipsis" unicode="&#x2026;" horiz-adv-x="720" 
d="M109 -17q-29 0 -47.5 19t-18.5 48t18.5 47.5t47.5 18.5t47.5 -18.5t18.5 -47.5t-18.5 -48t-47.5 -19zM360 -17q-29 0 -47 19t-18 48t18 47.5t47 18.5t47.5 -18.5t18.5 -47.5t-18.5 -48t-47.5 -19zM610 -17q-28 0 -46.5 19t-18.5 48t18.5 47.5t46.5 18.5q29 0 47.5 -18.5
t18.5 -47.5t-18.5 -48t-47.5 -19z" />
    <glyph glyph-name="perthousand" unicode="&#x2030;" horiz-adv-x="1046" 
d="M179 348q33 0 50 33.5t17 92.5q0 127 -67 127q-32 0 -49 -33.5t-17 -93.5q0 -58 17 -92t49 -34zM179 309q-62 0 -107 47t-45 118t45.5 119t106.5 48q64 0 107.5 -48.5t43.5 -118.5q0 -71 -43.5 -118t-107.5 -47zM528 27q66 0 66 127q0 126 -66 126q-32 0 -49 -33t-17 -93
t17 -93.5t49 -33.5zM528 -12q-62 0 -106.5 47t-44.5 119q0 70 45 118t106 48q64 0 107.5 -48t43.5 -118q0 -72 -43.5 -119t-107.5 -47zM868 27q66 0 66 127q0 126 -66 126q-32 0 -49 -33t-17 -93t17 -93.5t49 -33.5zM868 -12q-62 0 -107 47t-45 119q0 70 45.5 118t106.5 48
q65 0 108.5 -48t43.5 -118q0 -72 -43.5 -119t-108.5 -47zM76 -13l509 660l34 -26l-511 -658z" />
    <glyph glyph-name="uni2032" unicode="&#x2032;" horiz-adv-x="194" 
d="M67 426h-27l15 192q3 61 53 61q22 0 36.5 -11.5t14.5 -34.5q0 -20 -14 -48z" />
    <glyph glyph-name="uni2033" unicode="&#x2033;" horiz-adv-x="353" 
d="M67 426h-27l15 192q3 61 53 61q22 0 36.5 -11.5t14.5 -34.5q0 -20 -14 -48zM226 426h-27l14 192q4 61 55 61q21 0 35 -11.5t14 -34.5q0 -24 -14 -48z" />
    <glyph glyph-name="guilsinglleft" unicode="&#x2039;" horiz-adv-x="254" 
d="M195 411l20 -22l-101 -151l101 -149l-20 -22l-165 152v40z" />
    <glyph glyph-name="guilsinglright" unicode="&#x203a;" horiz-adv-x="254" 
d="M39 389l21 22l164 -152v-40l-164 -152l-21 22l101 150z" />
    <glyph glyph-name="fraction" unicode="&#x2044;" horiz-adv-x="225" 
d="M-180 -20l537 699l33 -26l-538 -699z" />
    <glyph glyph-name="Euro" unicode="&#x20ac;" horiz-adv-x="568" 
d="M26 353v41h66q24 119 95.5 189t167.5 70q70 0 122.5 -41.5t52.5 -102.5q0 -32 -17 -50.5t-44 -18.5q-25 0 -42 14t-17 36t15.5 38t15.5 20q0 24 -23 40t-56 16q-141 0 -164 -210h184v-41h-187q-1 -15 -1 -42v-27h188v-40h-186q17 -203 155 -203q97 0 146 112l37 -16
q-25 -75 -78 -115t-128 -40q-101 0 -166 70.5t-77 191.5h-59v40h57v7q0 32 3 62h-60z" />
    <glyph glyph-name="trademark" unicode="&#x2122;" horiz-adv-x="732" 
d="M515 337h-24l-85 258v-220l36 -6v-32h-105v32l34 7v246l-34 4v33h112l70 -212l72 212h111v-33l-33 -2v-253l33 -2v-32h-136v32l40 3v231zM97 337v32l39 4v256h-36q-17 0 -23 -7t-12 -29l-9 -44h-25v110h276v-110h-27l-8 43q-5 24 -12.5 30.5t-28.5 6.5h-28v-257l39 -3
v-32h-145z" />
    <glyph glyph-name="onethird" unicode="&#x2153;" horiz-adv-x="700" 
d="M528 -10q-57 0 -88 23t-31 59q0 22 13.5 35.5t31.5 13.5q16 0 26.5 -10t10.5 -23t-10 -22.5t-10 -11.5q0 -26 46 -26q37 0 54.5 17.5t17.5 56.5q0 61 -76 61h-29v35h28q66 0 66 71q0 48 -53 48q-15 0 -25.5 -5t-10.5 -12q0 -2 7 -10t7 -19q0 -14 -9.5 -22.5t-25.5 -8.5
q-18 0 -28.5 11.5t-10.5 29.5q0 36 33.5 55t79.5 19q55 0 86.5 -23.5t31.5 -61.5q0 -30 -23 -53t-59 -31v-3q98 -12 98 -86q0 -48 -40.5 -77.5t-107.5 -29.5zM47 -20l537 699l33 -26l-538 -699zM17 558v43l106 64h41v-312l57 -4v-39h-198v39l60 4v233z" />
    <glyph glyph-name="twothirds" unicode="&#x2154;" horiz-adv-x="741" 
d="M569 -10q-57 0 -88 23t-31 59q0 22 13.5 35.5t31.5 13.5q16 0 26.5 -10t10.5 -23t-10 -22.5t-10 -11.5q0 -26 46 -26q37 0 54.5 17.5t17.5 56.5q0 61 -76 61h-29v35h28q66 0 66 71q0 48 -53 48q-15 0 -25.5 -5t-10.5 -12q0 -2 7 -10t7 -19q0 -14 -9.5 -22.5t-25.5 -8.5
q-18 0 -28.5 11.5t-10.5 29.5q0 36 33.5 55t79.5 19q55 0 86.5 -23.5t31.5 -61.5q0 -30 -23 -53t-59 -31v-3q98 -12 98 -86q0 -48 -40.5 -77.5t-107.5 -29.5zM86 -20l537 699l33 -26l-538 -699zM25 310l-2 47q38 30 55 43.5t44 38.5t39 41.5t21.5 38t9.5 43.5q0 65 -55 65
q-20 0 -32.5 -8t-12.5 -20q0 -5 10 -16t10 -22q0 -15 -10.5 -25t-27.5 -10q-21 0 -33.5 13t-12.5 37q0 39 35 64t86 25q64 0 96 -30t32 -73q0 -28 -14.5 -53.5t-47 -52t-57 -42.5t-70.5 -44h106q27 0 36 5t14 23l5 16h32l-11 -104h-245z" />
    <glyph glyph-name="oneeighth" unicode="&#x215b;" horiz-adv-x="720" 
d="M555 -10q-60 0 -100 28t-40 75q0 34 22 56.5t57 31.5q-27 9 -44.5 30t-17.5 50q0 39 34.5 66.5t88.5 27.5t88.5 -27.5t34.5 -66.5q0 -29 -17.5 -50t-44.5 -30q36 -9 57.5 -31.5t21.5 -56.5q0 -47 -40 -75t-100 -28zM555 26q29 0 44.5 19.5t15.5 50.5q0 68 -60 68t-60 -68
q0 -31 15.5 -50.5t44.5 -19.5zM555 195q48 0 48 63q0 29 -13 44.5t-35 15.5t-35 -15.5t-13 -44.5q0 -63 48 -63zM50 -20l537 699l33 -26l-538 -699zM17 558v43l106 64h41v-312l57 -4v-39h-198v39l60 4v233z" />
    <glyph glyph-name="threeeighths" unicode="&#x215c;" horiz-adv-x="744" 
d="M579 -10q-60 0 -100 28t-40 75q0 34 22 56.5t57 31.5q-27 9 -44.5 30t-17.5 50q0 39 34.5 66.5t88.5 27.5t88.5 -27.5t34.5 -66.5q0 -29 -17.5 -50t-44.5 -30q36 -9 57.5 -31.5t21.5 -56.5q0 -47 -40 -75t-100 -28zM579 26q29 0 44.5 19.5t15.5 50.5q0 68 -60 68t-60 -68
q0 -31 15.5 -50.5t44.5 -19.5zM579 195q48 0 48 63q0 29 -13 44.5t-35 15.5t-35 -15.5t-13 -44.5q0 -63 48 -63zM72 -20l537 699l33 -26l-538 -699zM133 300q-57 0 -88 23t-31 59q0 22 13.5 35.5t31.5 13.5q16 0 26.5 -10t10.5 -23t-10 -22.5t-10 -11.5q0 -26 46 -26
q37 0 54.5 17.5t17.5 56.5q0 61 -76 61h-29v35h28q66 0 66 71q0 48 -53 48q-15 0 -25.5 -5t-10.5 -12q0 -2 7 -10t7 -19q0 -14 -9.5 -22.5t-25.5 -8.5q-18 0 -28.5 11.5t-10.5 29.5q0 36 33.5 55t79.5 19q55 0 86.5 -23.5t31.5 -61.5q0 -30 -23 -53t-59 -31v-3
q98 -12 98 -86q0 -48 -40.5 -77.5t-107.5 -29.5z" />
    <glyph glyph-name="fiveeighths" unicode="&#x215d;" horiz-adv-x="727" 
d="M562 -10q-60 0 -100 28t-40 75q0 34 22 56.5t57 31.5q-27 9 -44.5 30t-17.5 50q0 39 34.5 66.5t88.5 27.5t88.5 -27.5t34.5 -66.5q0 -29 -17.5 -50t-44.5 -30q36 -9 57.5 -31.5t21.5 -56.5q0 -47 -40 -75t-100 -28zM562 26q29 0 44.5 19.5t15.5 50.5q0 68 -60 68t-60 -68
q0 -31 15.5 -50.5t44.5 -19.5zM562 195q48 0 48 63q0 29 -13 44.5t-35 15.5t-35 -15.5t-13 -44.5q0 -63 48 -63zM56 -20l537 699l33 -26l-538 -699zM127 300q-50 0 -80.5 22t-30.5 56q0 21 12 33t30 12q15 0 25 -8.5t10 -22.5q0 -12 -9 -21.5t-9 -12.5q0 -8 13 -14.5
t28 -6.5q71 0 71 88q0 66 -62 66q-37 0 -58 -19l-21 12v175h163l11 32h31l-11 -93h-154v-84q28 15 69 15q53 0 85 -27t32 -79q0 -60 -42 -91.5t-103 -31.5z" />
    <glyph glyph-name="seveneighths" unicode="&#x215e;" horiz-adv-x="706" 
d="M541 -10q-60 0 -100 28t-40 75q0 34 22 56.5t57 31.5q-27 9 -44.5 30t-17.5 50q0 39 34.5 66.5t88.5 27.5t88.5 -27.5t34.5 -66.5q0 -29 -17.5 -50t-44.5 -30q36 -9 57.5 -31.5t21.5 -56.5q0 -47 -40 -75t-100 -28zM541 26q29 0 44.5 19.5t15.5 50.5q0 68 -60 68t-60 -68
q0 -31 15.5 -50.5t44.5 -19.5zM541 195q48 0 48 63q0 29 -13 44.5t-35 15.5t-35 -15.5t-13 -44.5q0 -63 48 -63zM26 -20l537 699l33 -26l-538 -699zM88 310l124 286h-84q-35 0 -47.5 -6t-19.5 -26l-10 -30h-35l20 125h240v-33l-133 -316h-55z" />
    <glyph glyph-name="minus" unicode="&#x2212;" horiz-adv-x="459" 
d="M39 262v52h381v-52h-381z" />
    <glyph glyph-name="approxequal" unicode="&#x2248;" horiz-adv-x="469" 
d="M149 210q-23 0 -35 -9.5t-21 -32.5h-54q14 96 105 96q40 0 98.5 -16t82.5 -16t35.5 9.5t16.5 33.5h53q-9 -97 -95 -97q-36 0 -98.5 16t-87.5 16zM149 362q-24 0 -36 -9t-20 -33h-54q14 96 105 96q40 0 98.5 -15t82.5 -15t35.5 9.5t16.5 32.5h53q-9 -96 -95 -96
q-36 0 -98.5 15t-87.5 15z" />
    <glyph glyph-name="notequal" unicode="&#x2260;" horiz-adv-x="459" 
d="M39 322v53h219l68 115h56l-67 -115h105v-53h-136l-52 -89h188v-53h-219l-69 -118h-57l69 118h-105v53h136l52 89h-188z" />
    <glyph glyph-name="lessequal" unicode="&#x2264;" horiz-adv-x="428" 
d="M389 102l-349 158v45l349 160v-60l-275 -122l275 -122v-59zM40 0v53h349v-53h-349z" />
    <glyph glyph-name="greaterequal" unicode="&#x2265;" horiz-adv-x="428" 
d="M40 102v59l274 122l-274 122v60l349 -160v-45zM389 0h-349v53h349v-53z" />
    <glyph glyph-name="uni24C5" unicode="&#x24c5;" horiz-adv-x="734" 
d="M367 -19q-134 0 -234 95.5t-100 247.5t100 249t234 97t234.5 -97t100.5 -249t-100.5 -247.5t-234.5 -95.5zM367 23q116 0 200.5 83t84.5 218t-85 219.5t-200 84.5q-116 0 -200.5 -84.5t-84.5 -219.5q0 -136 84.5 -218.5t200.5 -82.5zM233 138v39l35 3v290l-35 2v39h161
q68 0 104 -28.5t36 -79.5q0 -55 -37.5 -83.5t-99.5 -28.5q-22 0 -44 2v-112l45 -4v-39h-165zM383 471h-30v-141q8 -1 29 -1q38 0 52.5 15t14.5 54q0 38 -15.5 55.5t-50.5 17.5z" />
    <glyph glyph-name="zero.tab" unicode="&#xe44f;" 
d="M316 30q152 0 152 254q0 255 -152 255t-152 -255q0 -254 152 -254zM316 -19q-108 0 -186.5 84.5t-78.5 218.5q0 132 78.5 218t186.5 86q107 0 185.5 -86t78.5 -218q0 -134 -78 -218.5t-186 -84.5z" />
    <glyph glyph-name="one.tab" unicode="&#xe450;" 
d="M115 432v50l221 105h38v-536l139 -8v-43h-387v43l142 9v435z" />
    <glyph glyph-name="two.tab" unicode="&#xe451;" 
d="M102 0l-6 65q34 26 88 62t88.5 60.5t70.5 58.5t53.5 74.5t17.5 89.5q0 130 -117 130q-46 0 -75.5 -19t-29.5 -45q0 -12 18.5 -30t18.5 -39q0 -19 -17.5 -33.5t-43.5 -14.5q-28 0 -45.5 19t-17.5 54q0 65 60 110.5t154 45.5q100 0 155.5 -50t55.5 -125q0 -32 -10 -61.5
t-33 -56.5t-44 -48t-59 -46.5t-60.5 -39.5t-67.5 -39.5t-61 -35.5h228q37 0 51 7t20 26l16 55h38l-26 -174h-420z" />
    <glyph glyph-name="three.tab" unicode="&#xe452;" 
d="M287 -88q-91 0 -145.5 37t-54.5 98q0 34 18 51.5t44 17.5q24 0 39.5 -13.5t15.5 -35.5q0 -17 -9 -29t-17.5 -18t-8.5 -11q0 -19 29.5 -34t78.5 -15q146 0 146 149q0 74 -37.5 104.5t-110.5 30.5h-72v48h72q56 0 89.5 37t33.5 105q0 107 -109 107q-36 0 -60.5 -10
t-24.5 -22q0 -5 7 -10.5t14.5 -15.5t7.5 -27q0 -20 -15.5 -34t-37.5 -14q-26 0 -42.5 17t-16.5 47q0 54 53 85t132 31q95 0 147.5 -42.5t52.5 -107.5q0 -59 -43 -103.5t-104 -57.5v-5q88 -9 133.5 -53.5t45.5 -112.5q0 -86 -71 -140t-180 -54z" />
    <glyph glyph-name="four.tab" unicode="&#xe453;" 
d="M456 -84h-103v203h-299v25l284 459h63l-273 -436h225v257l103 10v-267h119v-48h-119v-203z" />
    <glyph glyph-name="five.tab" unicode="&#xe454;" 
d="M267 -88q-84 0 -142 34.5t-58 94.5q0 33 17.5 50.5t45.5 17.5q21 0 37 -13.5t16 -35.5q0 -17 -8.5 -28.5t-17 -18.5t-8.5 -12q0 -17 33.5 -29t76.5 -12q145 0 145 157q0 81 -39.5 117t-98.5 36q-65 0 -113 -31l-26 12v324h305l16 58h36l-17 -148h-286v-185q59 27 132 27
q87 0 146.5 -45.5t59.5 -143.5q0 -108 -72.5 -167t-179.5 -59z" />
    <glyph glyph-name="six.tab" unicode="&#xe455;" 
d="M328 -18q-116 0 -184.5 73t-68.5 213q0 193 122 310t317 117v-50q-151 -11 -229.5 -84.5t-93.5 -215.5q76 62 179 62q88 0 146 -48t58 -148q0 -101 -66.5 -165t-179.5 -64zM327 354q-74 0 -140 -55v-30q0 -130 35.5 -184.5t102.5 -54.5q70 0 105 49t35 123
q0 73 -35.5 112.5t-102.5 39.5z" />
    <glyph glyph-name="seven.tab" unicode="&#xe456;" 
d="M307 -99q-41 0 -64.5 22.5t-23.5 59.5q0 46 39 110l226 391h-235q-54 0 -71 -9t-25 -41l-20 -60h-39l29 201h448v-29l-266 -472q-21 -36 -22 -61q-2 -30 28 -30q17 0 39 20q34 -9 34 -43q0 -26 -22.5 -42.5t-54.5 -16.5z" />
    <glyph glyph-name="eight.tab" unicode="&#xe457;" 
d="M315 -18q-111 0 -178 51.5t-67 142.5q0 68 42 111t108 56q-120 43 -120 155q0 77 59.5 127t155.5 50q97 0 156.5 -50t59.5 -126q0 -113 -119 -156q66 -13 107.5 -55.5t41.5 -111.5q0 -91 -67.5 -142.5t-178.5 -51.5zM315 32q135 0 135 144q0 140 -135 140t-135 -140
q0 -65 32.5 -104.5t102.5 -39.5zM315 362q54 0 83.5 35.5t29.5 100.5q0 60 -30.5 95.5t-82.5 35.5q-51 0 -81.5 -35.5t-30.5 -95.5q0 -65 29.5 -100.5t82.5 -35.5z" />
    <glyph glyph-name="nine.tab" unicode="&#xe458;" 
d="M303 588q117 0 185 -74t68 -214q0 -196 -122.5 -306.5t-345.5 -110.5v50q174 10 255 79t97 211q-81 -62 -179 -62q-87 0 -145.5 49t-58.5 148q0 101 66.5 165.5t179.5 64.5zM304 215q78 0 139 54q1 11 1 30q0 131 -35.5 185.5t-102.5 54.5q-70 0 -105 -49t-35 -123
t35.5 -113t102.5 -39z" />
    <glyph glyph-name="cent.tab" unicode="&#xe459;" 
d="M326 -113v96q-93 7 -146.5 69.5t-53.5 165.5q0 104 57.5 174t142.5 87v83h43v-79q65 0 107.5 -29t42.5 -76q0 -50 -55 -50q-38 0 -44 35q-1 5 -2 17t-2 17.5t-4 14.5t-8 13.5t-14 8t-21 4.5v-394q90 4 126 107l34 -10q-15 -65 -55 -107.5t-105 -50.5v-96h-43zM230 235
q0 -161 96 -187v383q-96 -32 -96 -196z" />
    <glyph glyph-name="dollar.tab" unicode="&#xe45a;" 
d="M293 -110v99q-90 4 -140 43.5t-50 96.5q0 37 17.5 55t43.5 18q23 0 38 -13t15 -35q0 -20 -18 -37t-18 -20q0 -56 112 -61v245q-90 28 -133 69.5t-43 115.5q0 82 51.5 131t128.5 55v57h43v-57q70 -4 120 -37.5t50 -84.5q0 -31 -16 -49.5t-40 -18.5q-23 0 -38.5 14
t-15.5 34q0 19 13.5 33t13.5 18q0 18 -24.5 30t-62.5 14v-224q95 -33 141 -74t46 -122q0 -90 -55.5 -139.5t-136.5 -56.5v-99h-42zM447 146q0 45 -27.5 71.5t-84.5 48.5v-229q112 14 112 109zM194 500q0 -38 23 -60.5t80 -43.5v208q-47 -6 -75 -32t-28 -72z" />
    <glyph glyph-name="Euro.tab" unicode="&#xe45b;" 
d="M70 353v41h66q24 119 95.5 189t167.5 70q70 0 122.5 -41.5t52.5 -102.5q0 -32 -17 -50.5t-44 -18.5q-25 0 -42 14t-17 36t15.5 38t15.5 20q0 24 -23 40t-56 16q-141 0 -164 -210h184v-41h-187q-1 -15 -1 -42v-27h188v-40h-186q17 -203 155 -203q97 0 146 112l37 -16
q-25 -75 -78 -115t-128 -40q-101 0 -166 70.5t-77 191.5h-59v40h57v7q0 32 3 62h-60z" />
    <glyph glyph-name="s.alt" unicode="&#xe4d2;" horiz-adv-x="403" 
d="M203 -14q-81 0 -120 50l-13 -34h-39v148h47q10 -56 40.5 -88t77.5 -32q81 0 81 67q0 35 -22 55t-79 41q-67 26 -100 60.5t-33 91.5q0 58 40.5 97.5t105.5 39.5q69 0 102 -44l11 34h37v-130h-43q-20 47 -43 71.5t-62 24.5q-30 0 -47.5 -16.5t-17.5 -46.5q0 -29 22 -48
t77 -40q75 -29 110 -63t35 -94q0 -65 -43 -104.5t-124 -39.5z" />
    <glyph glyph-name="at.sc" unicode="&#xf60b;" horiz-adv-x="725" 
d="M316 167q38 0 72 40l52 160q-12 26 -43 26q-48 0 -83 -58.5t-35 -113.5q0 -54 37 -54zM347 -49q-138 0 -226 72t-88 210q0 155 106.5 256.5t266.5 101.5q129 0 207.5 -65.5t78.5 -182.5q0 -111 -66 -171.5t-152 -60.5q-82 0 -88 60h-2q-18 -25 -48 -42.5t-59 -17.5
q-35 0 -58.5 24.5t-23.5 75.5q0 84 59.5 154.5t134.5 70.5q48 0 71 -32l8 21h75l-76 -230q-11 -40 28 -40q50 0 96 49.5t46 137.5q0 101 -64 153t-173 52q-137 0 -220.5 -86.5t-83.5 -220.5q0 -122 70.5 -184t187.5 -62t204 63l24 -33q-92 -73 -235 -73z" />
    <glyph glyph-name="braceleft.sc" unicode="&#xf60c;" horiz-adv-x="330" 
d="M294 -10h-55q-77 0 -114 26.5t-26 81.5l17 98q6 33 -15 45t-85 16v44q65 4 85.5 15t14.5 45l-17 97q-11 55 26 82t114 27h56v-43l-38 -2q-48 -2 -62 -14t-12 -51l5 -86q2 -45 -17 -64t-72 -27v-3q54 -9 72.5 -26.5t16.5 -63.5l-5 -88q-2 -40 12 -51.5t62 -13.5l37 -1v-43
z" />
    <glyph glyph-name="braceright.sc" unicode="&#xf60d;" horiz-adv-x="330" 
d="M91 -10h-55v43l38 1q48 2 62 13.5t12 51.5l-6 88q-4 46 16 64t73 26v3q-53 8 -72 27t-17 64l6 86q2 39 -12.5 51t-61.5 14l-38 2v43h55q78 0 114.5 -26.5t25.5 -82.5l-16 -97q-6 -33 14.5 -44.5t84.5 -15.5v-44q-63 -4 -84 -16.5t-15 -44.5l16 -98q11 -55 -25.5 -81.5
t-114.5 -26.5z" />
    <glyph glyph-name="bracketleft.sc" unicode="&#xf60e;" horiz-adv-x="317" 
d="M75 0v557h199v-38l-118 -4v-472l118 -4v-39h-199z" />
    <glyph glyph-name="bracketright.sc" unicode="&#xf60f;" horiz-adv-x="319" 
d="M247 0h-199v39l118 4v472l-118 4v38h199v-557z" />
    <glyph glyph-name="plus.sc" unicode="&#xf615;" horiz-adv-x="420" 
d="M44 218v49h142v144h49v-144h141v-49h-141v-141h-49v141h-142z" />
    <glyph glyph-name="minus.sc" unicode="&#xf616;" horiz-adv-x="420" 
d="M44 218v48h332v-48h-332z" />
    <glyph glyph-name="equal.sc" unicode="&#xf617;" horiz-adv-x="420" 
d="M44 271v49h332v-49h-332zM44 148v48h332v-48h-332z" />
    <glyph glyph-name="parenleft.sc" unicode="&#xf618;" horiz-adv-x="325" 
d="M284 4l-41 -21q-38 23 -67 47.5t-57 60t-43 83.5t-15 105q0 58 15 105.5t43.5 83t56.5 59.5t67 48l41 -21q-70 -56 -105.5 -115.5t-35.5 -159.5q0 -180 141 -275z" />
    <glyph glyph-name="parenright.sc" unicode="&#xf619;" horiz-adv-x="326" 
d="M83 -17l-40 21q141 95 141 275q0 100 -35.5 159.5t-105.5 115.5l40 21q38 -23 67 -47.5t57.5 -60t43.5 -83.5t15 -105q0 -188 -183 -296z" />
    <glyph glyph-name="quotedblleft.sc" unicode="&#xf61c;" horiz-adv-x="467" 
d="M400 566l11 -32q-93 -38 -93 -104q0 -24 13 -24q3 0 14 8.5t25 8.5q21 0 34.5 -15t13.5 -39q0 -26 -20.5 -43t-50.5 -17q-44 0 -67 25t-23 71q0 64 40 103.5t103 57.5zM197 566l12 -32q-93 -38 -93 -104q0 -24 13 -24q1 0 12.5 8.5t25.5 8.5q22 0 35.5 -15.5t13.5 -38.5
q0 -26 -20.5 -43t-50.5 -17q-44 0 -67.5 25t-23.5 71q0 64 40 103.5t103 57.5z" />
    <glyph glyph-name="quotedblright.sc" unicode="&#xf61d;" horiz-adv-x="465" 
d="M67 308l-12 32q43 16 68.5 44t25.5 60q0 25 -14 25q-2 0 -13.5 -8.5t-25.5 -8.5q-22 0 -35 15t-13 38q0 26 20.5 43.5t50.5 17.5q44 0 66.5 -25.5t22.5 -71.5q0 -64 -39.5 -104t-101.5 -57zM269 308l-12 32q43 16 68.5 44t25.5 60q0 25 -15 25q-1 0 -12 -8.5t-26 -8.5
q-21 0 -34.5 15t-13.5 38q0 26 21 43.5t51 17.5q44 0 66.5 -25.5t22.5 -71.5q0 -120 -142 -161z" />
    <glyph glyph-name="quoteleft.sc" unicode="&#xf61f;" horiz-adv-x="263" 
d="M197 566l12 -32q-93 -38 -93 -104q0 -24 13 -24q1 0 12.5 8.5t25.5 8.5q22 0 35.5 -15.5t13.5 -38.5q0 -26 -20.5 -43t-50.5 -17q-44 0 -67.5 25t-23.5 71q0 64 40 103.5t103 57.5z" />
    <glyph glyph-name="quoteright.sc" unicode="&#xf620;" horiz-adv-x="262" 
d="M67 308l-12 32q43 16 68.5 44t25.5 60q0 25 -14 25q-2 0 -13.5 -8.5t-25.5 -8.5q-22 0 -35 15t-13 38q0 26 20.5 43.5t50.5 17.5q44 0 66.5 -25.5t22.5 -71.5q0 -64 -39.5 -104t-101.5 -57z" />
    <glyph glyph-name="AEacute.sc" unicode="&#xf624;" horiz-adv-x="793" 
d="M486 616l54 146q13 39 47 39q16 0 31 -13t15 -33q0 -24 -22 -43l-96 -96h-29zM28 0v43l59 19l228 437l-72 5v45h470v-161h-35l-15 72q-5 26 -16 33.5t-42 7.5h-139v-208h52q35 0 39 28l7 60h34v-220h-33l-8 59q-2 19 -10 24t-29 5h-52v-201h145q49 0 61 7t18 40l15 85h37
v-180h-436v43l58 6v197h-130l-96 -185l78 -18v-43h-188zM362 490l-105 -201h107v201h-2z" />
    <glyph glyph-name="Oslashacute.sc" unicode="&#xf627;" horiz-adv-x="618" 
d="M266 616l54 146q13 39 47 39q16 0 31 -13t15 -33q0 -24 -22 -43l-96 -96h-29zM85 -20l-32 26l57 68q-68 77 -68 195q0 127 80 208t187 81q88 0 157 -54l53 63l32 -26l-54 -65q79 -84 79 -207q0 -129 -79 -208t-188 -79q-98 0 -170 63zM309 31q157 0 157 238q0 86 -22 143
l-258 -310q38 -71 123 -71zM152 269q0 -77 16 -125l255 308q-39 57 -114 57q-76 0 -116.5 -61t-40.5 -179z" />
    <glyph glyph-name="Ccircumflex.sc" unicode="&#xf628;" horiz-adv-x="572" 
d="M223 617h-31l91 158h71l92 -158h-31l-97 87zM306 -18q-120 0 -192 78t-72 209q0 127 80.5 208t190.5 81q96 0 157 -73l14 57h33v-174h-38q-38 141 -162 141q-73 0 -119 -61t-46 -176q0 -233 176 -233q113 0 164 109l35 -16q-27 -71 -84.5 -110.5t-136.5 -39.5z" />
    <glyph glyph-name="Cdotaccent.sc" unicode="&#xf629;" horiz-adv-x="572" 
d="M306 -18q-120 0 -192 78t-72 209q0 127 80.5 208t190.5 81q96 0 157 -73l14 57h33v-174h-38q-38 141 -162 141q-73 0 -119 -61t-46 -176q0 -233 176 -233q113 0 164 109l35 -16q-27 -71 -84.5 -110.5t-136.5 -39.5zM324 626q-25 0 -42 17t-17 41q0 26 17 42t42 16
q26 0 43 -16t17 -42q0 -24 -17 -41t-43 -17z" />
    <glyph glyph-name="Ebreve.sc" unicode="&#xf62a;" horiz-adv-x="547" 
d="M433 388l-15 72q-6 27 -16.5 34t-41.5 7h-160v-200h73q36 0 39 28l7 60h33v-219h-33l-7 58q-2 19 -10.5 24.5t-28.5 5.5h-73v-210h166q48 0 60.5 7t18.5 40l14 85h38v-180h-457v43l58 6v450l-58 5v45h427v-161h-34zM284 625q-57 0 -89 47.5t-36 115.5h35q7 -46 28 -68
t62 -22q43 0 63.5 22t27.5 68h35q-4 -68 -36.5 -115.5t-89.5 -47.5z" />
    <glyph glyph-name="Eng.sc" unicode="&#xf62b;" horiz-adv-x="594" 
d="M40 0v43l57 8v447l-57 6v45h168l250 -364v307l-68 12v45h167v-45l-49 -11v-534q0 -97 -41.5 -148t-112.5 -51q-44 0 -70 24t-26 63q0 30 16 49t41 19q21 0 34 -13t13 -34q0 -19 -13 -33t-13 -16q0 -6 6.5 -10.5t15.5 -4.5q45 0 72.5 34t27.5 106v67l-311 454v-410l85 -12
v-43h-192z" />
    <glyph glyph-name="Gcircumflex.sc" unicode="&#xf62c;" horiz-adv-x="614" 
d="M223 617h-31l91 158h71l92 -158h-31l-97 87zM317 -18q-125 0 -200 78.5t-75 207.5q0 127 82 208.5t191 81.5q103 0 157 -67l12 50h33v-164h-37q-19 68 -55.5 100t-98.5 32q-75 0 -124.5 -61.5t-49.5 -178.5q0 -122 42 -180.5t131 -58.5q73 0 103 43q13 17 13 68v37l-68 6
v44h218v-44l-52 -5v-96q-88 -101 -222 -101z" />
    <glyph glyph-name="Gdotaccent.sc" unicode="&#xf62d;" horiz-adv-x="614" 
d="M317 -18q-125 0 -200 78.5t-75 207.5q0 127 82 208.5t191 81.5q103 0 157 -67l12 50h33v-164h-37q-19 68 -55.5 100t-98.5 32q-75 0 -124.5 -61.5t-49.5 -178.5q0 -122 42 -180.5t131 -58.5q73 0 103 43q13 17 13 68v37l-68 6v44h218v-44l-52 -5v-96q-88 -101 -222 -101z
M324 626q-25 0 -42 17t-17 41q0 26 17 42t42 16q26 0 43 -16t17 -42q0 -24 -17 -41t-43 -17z" />
    <glyph glyph-name="Hbar.sc" unicode="&#xf62e;" horiz-adv-x="619" 
d="M24 388v39h74v73l-58 4v45h223v-45l-63 -5v-72h220v71l-63 6v45h223v-45l-58 -4v-73h70v-39h-70v-341l58 -4v-43h-223v43l63 5v214h-220v-213l63 -6v-43h-223v43l58 6v339h-74zM200 388v-83h220v83h-220z" />
    <glyph glyph-name="Hcircumflex.sc" unicode="&#xf62f;" horiz-adv-x="619" 
d="M218 617h-31l91 158h71l92 -158h-31l-97 87zM357 0v43l63 5v214h-220v-213l63 -6v-43h-223v43l58 6v451l-58 4v45h223v-45l-63 -5v-194h220v193l-63 6v45h223v-45l-58 -4v-453l58 -4v-43h-223z" />
    <glyph glyph-name="Ibreve.sc" unicode="&#xf630;" horiz-adv-x="297" 
d="M40 0v43l58 7v448l-58 6v45h218v-45l-58 -5v-448l58 -8v-43h-218zM143 625q-57 0 -89 47.5t-36 115.5h35q7 -46 28 -68t62 -22q43 0 63.5 22t27.5 68h35q-4 -68 -36.5 -115.5t-89.5 -47.5z" />
    <glyph glyph-name="IJ.sc" unicode="&#xf631;" horiz-adv-x="662" 
d="M402 -14q-53 0 -80.5 24.5t-27.5 62.5q0 29 16 47.5t40 18.5q20 0 34 -13t14 -33q0 -19 -13 -33t-13 -16q0 -15 25 -15q65 0 65 91v377l-66 7v45h229v-45l-60 -6v-315q0 -96 -45 -146.5t-118 -50.5zM40 0v43l58 7v448l-58 6v45h218v-45l-58 -5v-448l58 -8v-43h-218z" />
    <glyph glyph-name="Itilde.sc" unicode="&#xf632;" horiz-adv-x="297" 
d="M40 0v43l58 7v448l-58 6v45h218v-45l-58 -5v-448l58 -8v-43h-218zM202 625q-21 0 -62.5 15t-56.5 15q-31 -1 -46 -43h-37q12 50 37 84t62 34q21 0 62 -15t54 -15q31 3 45 44h39q-11 -51 -36 -85t-61 -34z" />
    <glyph glyph-name="Jcircumflex.sc" unicode="&#xf633;" horiz-adv-x="401" 
d="M147 617h-31l91 158h71l92 -158h-31l-97 87zM141 -51q-54 0 -81.5 25t-27.5 63q0 29 16 47.5t40 18.5q21 0 35 -13t14 -34q0 -19 -13 -33t-13 -16q0 -14 25 -14q64 0 64 90v414l-66 7v45h229v-45l-60 -6v-352q0 -96 -45 -146.5t-117 -50.5z" />
    <glyph glyph-name="Ldot.sc" unicode="&#xf634;" horiz-adv-x="520" 
d="M40 0v43l58 5v452l-58 4v45h233v-45l-73 -5v-451h148q41 0 54.5 14t25.5 68l10 44h36v-174h-434zM428 224q-29 0 -47 18.5t-18 47.5q0 28 18 46t47 18q28 0 46.5 -18t18.5 -46q0 -29 -18.5 -47.5t-46.5 -18.5z" />
    <glyph glyph-name="Obreve.sc" unicode="&#xf635;" horiz-adv-x="618" 
d="M309 31q157 0 157 238q0 240 -157 240q-76 0 -116.5 -61t-40.5 -179t40.5 -178t116.5 -60zM309 -18q-108 0 -187.5 79.5t-79.5 207.5q0 127 80 208t187 81q108 0 187.5 -80.5t79.5 -208.5q0 -129 -79 -208t-188 -79zM318 625q-57 0 -89 47.5t-36 115.5h35q7 -46 28 -68
t62 -22q43 0 63.5 22t27.5 68h35q-4 -68 -36.5 -115.5t-89.5 -47.5z" />
    <glyph glyph-name="Scircumflex.sc" unicode="&#xf636;" horiz-adv-x="480" 
d="M142 617h-31l91 158h71l92 -158h-31l-97 87zM246 -18q-98 0 -150 70l-14 -42h-35v171l38 -1q27 -150 159 -150q50 0 79.5 21.5t29.5 61.5q0 43 -31.5 69.5t-100.5 47.5q-82 26 -124 64.5t-42 103.5q0 74 51 117t121 43q88 0 129 -57l14 38h34v-144h-38q-27 116 -137 116
q-45 0 -70.5 -21t-25.5 -57t28.5 -56.5t102.5 -43.5q83 -25 128.5 -64.5t45.5 -113.5q0 -81 -55.5 -127t-136.5 -46z" />
    <glyph glyph-name="Tbar.sc" unicode="&#xf637;" horiz-adv-x="543" 
d="M41 361v188h461v-188h-36l-12 71q-8 46 -23 57.5t-58 11.5h-50v-200h118v-40h-118v-211l67 -7v-43h-237v43l67 7v211h-118v40h118v200h-64q-38 0 -49.5 -12t-17.5 -56l-11 -72h-37z" />
    <glyph glyph-name="Ubreve.sc" unicode="&#xf638;" horiz-adv-x="584" 
d="M301 -11q-104 0 -158 49.5t-54 133.5v328l-51 4v45h224v-45l-72 -5v-315q0 -71 29 -105t99 -34q67 0 96.5 34t29.5 105v308l-66 12v45h168v-45l-52 -12v-316q0 -85 -46.5 -136t-146.5 -51zM330 625q-57 0 -89 47.5t-36 115.5h35q7 -46 28 -68t62 -22q43 0 63.5 22
t27.5 68h35q-4 -68 -36.5 -115.5t-89.5 -47.5z" />
    <glyph glyph-name="Utilde.sc" unicode="&#xf639;" horiz-adv-x="584" 
d="M301 -11q-104 0 -158 49.5t-54 133.5v328l-51 4v45h224v-45l-72 -5v-315q0 -71 29 -105t99 -34q67 0 96.5 34t29.5 105v308l-66 12v45h168v-45l-52 -12v-316q0 -85 -46.5 -136t-146.5 -51zM388 625q-21 0 -62.5 15t-56.5 15q-31 -1 -46 -43h-37q12 50 37 84t62 34
q21 0 62 -15t54 -15q31 3 45 44h39q-11 -51 -36 -85t-61 -34z" />
    <glyph glyph-name="Wacute.sc" unicode="&#xf63a;" horiz-adv-x="782" 
d="M483 -7l-85 275l-102 -275h-69l-157 507l-42 4v45h199v-45l-49 -4l111 -377h1l86 217l-50 160l-43 4v45h206v-45l-56 -4l109 -377h1l113 362l-62 19v45h161v-45l-47 -16l-152 -495h-73zM367 616l54 146q13 39 47 39q16 0 31 -13t15 -33q0 -24 -22 -43l-96 -96h-29z" />
    <glyph glyph-name="Wcircumflex.sc" unicode="&#xf63b;" horiz-adv-x="782" 
d="M319 617h-31l91 158h71l92 -158h-31l-97 87zM483 -7l-85 275l-102 -275h-69l-157 507l-42 4v45h199v-45l-49 -4l111 -377h1l86 217l-50 160l-43 4v45h206v-45l-56 -4l109 -377h1l113 362l-62 19v45h161v-45l-47 -16l-152 -495h-73z" />
    <glyph glyph-name="Wdieresis.sc" unicode="&#xf63c;" horiz-adv-x="782" 
d="M329 625q-23 0 -39 15.5t-16 39.5q0 23 16 38.5t39 15.5t39 -15.5t16 -38.5q0 -24 -16 -39.5t-39 -15.5zM510 625q-24 0 -40 15.5t-16 39.5q0 23 16.5 38.5t39.5 15.5t39.5 -15.5t16.5 -38.5q0 -24 -16 -39.5t-40 -15.5zM483 -7l-85 275l-102 -275h-69l-157 507l-42 4v45
h199v-45l-49 -4l111 -377h1l86 217l-50 160l-43 4v45h206v-45l-56 -4l109 -377h1l113 362l-62 19v45h161v-45l-47 -16l-152 -495h-73z" />
    <glyph glyph-name="Wgrave.sc" unicode="&#xf63d;" horiz-adv-x="782" 
d="M483 -7l-85 275l-102 -275h-69l-157 507l-42 4v45h199v-45l-49 -4l111 -377h1l86 217l-50 160l-43 4v45h206v-45l-56 -4l109 -377h1l113 362l-62 19v45h161v-45l-47 -16l-152 -495h-73zM438 616l-96 96q-23 23 -23 43t15 33t32 13q34 0 47 -39l53 -146h-28z" />
    <glyph glyph-name="Ycircumflex.sc" unicode="&#xf63e;" horiz-adv-x="534" 
d="M199 617h-31l91 158h71l92 -158h-31l-97 87zM153 0v43l68 7v211l-156 240l-37 3v45h211v-45l-59 -4l122 -197l106 183l-58 18v45h156v-45l-49 -19l-134 -230v-206l67 -6v-43h-237z" />
    <glyph glyph-name="Ygrave.sc" unicode="&#xf63f;" horiz-adv-x="534" 
d="M153 0v43l68 7v211l-156 240l-37 3v45h211v-45l-59 -4l122 -197l106 183l-58 18v45h156v-45l-49 -19l-134 -230v-206l67 -6v-43h-237zM321 616l-96 96q-23 23 -23 43t15 33t32 13q34 0 47 -39l53 -146h-28z" />
    <glyph glyph-name="Abreve.sc" unicode="&#xf640;" horiz-adv-x="581" 
d="M337 0v43l65 5l-48 129h-185l-41 -114l81 -20v-43h-186v43l51 16l184 496h65l188 -509l47 -3v-43h-221zM260 423l-75 -203h153l-74 203h-4zM298 625q-57 0 -89 47.5t-36 115.5h35q7 -46 28 -68t62 -22q43 0 63.5 22t27.5 68h35q-4 -68 -36.5 -115.5t-89.5 -47.5z" />
    <glyph glyph-name="Amacron.sc" unicode="&#xf641;" horiz-adv-x="581" 
d="M337 0v43l65 5l-48 129h-185l-41 -114l81 -20v-43h-186v43l51 16l184 496h65l188 -509l47 -3v-43h-221zM260 423l-75 -203h153l-74 203h-4zM175 631v56h247v-56h-247z" />
    <glyph glyph-name="Aogonek.sc" unicode="&#xf642;" horiz-adv-x="581" 
d="M380 -287q-44 0 -74.5 25.5t-30.5 69.5q0 30 22 67t46.5 64t71.5 74l-60 164h-186l-41 -114l81 -20v-43h-186v43l51 16l184 496h65l188 -509l47 -3v-43h-109q-79 -107 -79 -177q0 -54 42 -54q23 0 47 24l20 -21q-38 -59 -99 -59zM260 423l-75 -203h154l-75 203h-4z" />
    <glyph glyph-name="Cacute.sc" unicode="&#xf643;" horiz-adv-x="572" 
d="M272 616l54 146q13 39 47 39q16 0 31 -13t15 -33q0 -24 -22 -43l-96 -96h-29zM306 -18q-120 0 -192 78t-72 209q0 127 80.5 208t190.5 81q96 0 157 -73l14 57h33v-174h-38q-38 141 -162 141q-73 0 -119 -61t-46 -176q0 -233 176 -233q113 0 164 109l35 -16
q-27 -71 -84.5 -110.5t-136.5 -39.5z" />
    <glyph glyph-name="Ccaron.sc" unicode="&#xf644;" horiz-adv-x="572" 
d="M197 783h32l96 -87l95 87h32l-91 -158h-73zM306 -18q-120 0 -192 78t-72 209q0 127 80.5 208t190.5 81q96 0 157 -73l14 57h33v-174h-38q-38 141 -162 141q-73 0 -119 -61t-46 -176q0 -233 176 -233q113 0 164 109l35 -16q-27 -71 -84.5 -110.5t-136.5 -39.5z" />
    <glyph glyph-name="Dcaron.sc" unicode="&#xf645;" horiz-adv-x="594" 
d="M40 0v43l58 5v451l-58 5v45h235q55 0 102.5 -15t88 -45.5t63.5 -85.5t23 -128q0 -71 -23 -126t-62 -86.5t-86.5 -47t-101.5 -15.5h-239zM269 501h-69v-453h70q172 0 172 227q0 127 -44.5 176.5t-128.5 49.5zM181 783h32l96 -87l95 87h32l-91 -158h-73z" />
    <glyph glyph-name="Dcroat.sc" unicode="&#xf646;" horiz-adv-x="594" 
d="M39 504v45h236q55 0 102.5 -15t88 -45.5t63.5 -85.5t23 -128q0 -71 -23 -126t-62 -86.5t-86.5 -47t-101.5 -15.5h-240v43l58 5v212h-66v40h66v199zM269 501h-69v-201h128v-40h-128v-212h69q172 0 172 227q0 127 -44 176.5t-128 49.5z" />
    <glyph glyph-name="Ecaron.sc" unicode="&#xf647;" horiz-adv-x="547" 
d="M157 783h32l96 -87l95 87h32l-91 -158h-73zM433 388l-15 72q-6 27 -16.5 34t-41.5 7h-160v-200h73q36 0 39 28l7 60h33v-219h-33l-7 58q-2 19 -10.5 24.5t-28.5 5.5h-73v-210h166q48 0 60.5 7t18.5 40l14 85h38v-180h-457v43l58 6v450l-58 5v45h427v-161h-34z" />
    <glyph glyph-name="Edotaccent.sc" unicode="&#xf648;" horiz-adv-x="547" 
d="M284 626q-25 0 -42 17t-17 41q0 26 17 42t42 16q26 0 43 -16t17 -42q0 -24 -17 -41t-43 -17zM433 388l-15 72q-6 27 -16.5 34t-41.5 7h-160v-200h73q36 0 39 28l7 60h33v-219h-33l-7 58q-2 19 -10.5 24.5t-28.5 5.5h-73v-210h166q48 0 60.5 7t18.5 40l14 85h38v-180h-457
v43l58 6v450l-58 5v45h427v-161h-34z" />
    <glyph glyph-name="Emacron.sc" unicode="&#xf649;" horiz-adv-x="547" 
d="M161 631v56h247v-56h-247zM433 388l-15 72q-6 27 -16.5 34t-41.5 7h-160v-200h73q36 0 39 28l7 60h33v-219h-33l-7 58q-2 19 -10.5 24.5t-28.5 5.5h-73v-210h166q48 0 60.5 7t18.5 40l14 85h38v-180h-457v43l58 6v450l-58 5v45h427v-161h-34z" />
    <glyph glyph-name="Eogonek.sc" unicode="&#xf64a;" horiz-adv-x="547" 
d="M385 -246q-44 0 -74 25t-30 69q0 28 19 62t38.5 55.5t54.5 56.5h47q-64 -91 -64 -159q0 -54 42 -54q25 0 47 25l20 -22q-36 -58 -100 -58zM433 388l-15 72q-6 27 -16.5 34t-41.5 7h-160v-200h73q36 0 39 28l7 60h33v-219h-33l-7 58q-2 19 -10.5 24.5t-28.5 5.5h-73v-210
h166q48 0 60.5 7t18.5 40l14 85h38v-180h-457v43l58 6v450l-58 5v45h427v-161h-34z" />
    <glyph glyph-name="Gbreve.sc" unicode="&#xf64b;" horiz-adv-x="614" 
d="M317 -18q-125 0 -200 78.5t-75 207.5q0 127 82 208.5t191 81.5q103 0 157 -67l12 50h33v-164h-37q-19 68 -55.5 100t-98.5 32q-75 0 -124.5 -61.5t-49.5 -178.5q0 -122 42 -180.5t131 -58.5q73 0 103 43q13 17 13 68v37l-68 6v44h218v-44l-52 -5v-96q-88 -101 -222 -101z
M324 625q-57 0 -89 47.5t-36 115.5h35q7 -46 28 -68t62 -22q43 0 63.5 22t27.5 68h35q-4 -68 -36.5 -115.5t-89.5 -47.5z" />
    <glyph glyph-name="Gcommaaccent.sc" unicode="&#xf64c;" horiz-adv-x="614" 
d="M270 -270l-11 33q81 26 81 78q0 19 -11 19q-3 0 -13 -6.5t-22 -6.5q-20 0 -31.5 13t-11.5 34q0 23 18.5 37.5t45.5 14.5q37 0 60 -23t23 -61q0 -52 -36 -85.5t-92 -46.5zM317 -18q-125 0 -200 78.5t-75 207.5q0 127 82 208.5t191 81.5q103 0 157 -67l12 50h33v-164h-37
q-19 68 -55.5 100t-98.5 32q-75 0 -124.5 -61.5t-49.5 -178.5q0 -122 42 -180.5t131 -58.5q73 0 103 43q13 17 13 68v37l-68 6v44h218v-44l-52 -5v-96q-88 -101 -222 -101z" />
    <glyph glyph-name="Imacron.sc" unicode="&#xf64d;" horiz-adv-x="297" 
d="M40 0v43l58 7v448l-58 6v45h218v-45l-58 -5v-448l58 -8v-43h-218zM20 631v56h247v-56h-247z" />
    <glyph glyph-name="Iogonek.sc" unicode="&#xf64e;" horiz-adv-x="297" 
d="M40 0v43l58 7v448l-58 6v45h218v-45l-58 -5v-448l58 -8v-43h-218zM131 -246q-44 0 -74 25t-30 69q0 28 19 62t38.5 55.5t54.5 56.5h47q-64 -91 -64 -159q0 -54 42 -54q25 0 47 25l20 -22q-36 -58 -100 -58z" />
    <glyph glyph-name="Kcommaaccent.sc" unicode="&#xf64f;" horiz-adv-x="588" 
d="M255 -270l-11 33q81 26 81 78q0 19 -11 19q-3 0 -13 -6.5t-22 -6.5q-20 0 -31.5 13t-11.5 34q0 23 18.5 37.5t45.5 14.5q37 0 60 -23t23 -61q0 -52 -36 -85.5t-92 -46.5zM40 0v43l58 6v450l-58 5v45h224v-45l-64 -5v-450l62 -6v-43h-222zM343 0v43l53 5l-176 229v18
l186 196l-56 13v45h184v-45l-72 -13l-152 -163l204 -281l42 -4v-43h-213z" />
    <glyph glyph-name="Lacute.sc" unicode="&#xf650;" horiz-adv-x="520" 
d="M40 0v43l58 5v452l-58 4v45h233v-45l-73 -5v-451h148q43 0 57.5 14.5t20.5 67.5l12 67h36v-197h-434zM85 614l54 146q13 39 47 39q16 0 31 -13t15 -33q0 -24 -22 -43l-96 -96h-29z" />
    <glyph glyph-name="Lcaron.sc" unicode="&#xf651;" horiz-adv-x="520" 
d="M40 0v43l58 5v452l-58 4v45h233v-45l-73 -5v-451h148q43 0 57.5 14.5t20.5 67.5l12 67h36v-197h-434zM333 376l-21 18q29 47 29 87q0 35 -26 64q7 42 44 42q21 0 35.5 -18.5t14.5 -48.5q0 -74 -76 -144z" />
    <glyph glyph-name="Lcommaaccent.sc" unicode="&#xf652;" horiz-adv-x="520" 
d="M40 0v43l58 5v452l-58 4v45h233v-45l-73 -5v-451h148q43 0 57.5 14.5t20.5 67.5l12 67h36v-197h-434zM223 -270l-11 33q81 26 81 78q0 19 -11 19q-3 0 -13 -6.5t-22 -6.5q-20 0 -31.5 13t-11.5 34q0 23 18.5 37.5t45.5 14.5q37 0 60 -23t23 -61q0 -52 -36 -85.5
t-92 -46.5z" />
    <glyph glyph-name="Nacute.sc" unicode="&#xf653;" horiz-adv-x="594" 
d="M289 595l54 146q13 39 47 39q16 0 31 -13t15 -33q0 -24 -22 -43l-96 -96h-29zM40 0v43l57 8v447l-57 6v45h168l250 -364v307l-68 12v45h167v-45l-49 -11v-493h-42l-319 465v-410l85 -12v-43h-192z" />
    <glyph glyph-name="Ncaron.sc" unicode="&#xf654;" horiz-adv-x="594" 
d="M197 783h32l96 -87l95 87h32l-91 -158h-73zM40 0v43l57 8v447l-57 6v45h168l250 -364v307l-68 12v45h167v-45l-49 -11v-493h-42l-319 465v-410l85 -12v-43h-192z" />
    <glyph glyph-name="Ncommaaccent.sc" unicode="&#xf655;" horiz-adv-x="594" 
d="M280 -270l-11 33q81 26 81 78q0 19 -11 19q-3 0 -13 -6.5t-22 -6.5q-20 0 -31.5 13t-11.5 34q0 23 18.5 37.5t45.5 14.5q37 0 60 -23t23 -61q0 -52 -36 -85.5t-92 -46.5zM40 0v43l57 8v447l-57 6v45h168l250 -364v307l-68 12v45h167v-45l-49 -11v-493h-42l-319 465v-410
l85 -12v-43h-192z" />
    <glyph glyph-name="Ohungarumlaut.sc" unicode="&#xf656;" horiz-adv-x="618" 
d="M309 31q157 0 157 238q0 240 -157 240q-76 0 -116.5 -61t-40.5 -179t40.5 -178t116.5 -60zM309 -18q-108 0 -187.5 79.5t-79.5 207.5q0 127 80 208t187 81q108 0 187.5 -80.5t79.5 -208.5q0 -129 -79 -208t-188 -79zM227 617l33 146q9 39 45 39q16 0 29.5 -11.5
t13.5 -30.5q0 -20 -20 -43l-73 -100h-28zM377 617l33 146q9 39 45 39q16 0 29.5 -11.5t13.5 -30.5q0 -18 -20 -43l-73 -100h-28z" />
    <glyph glyph-name="Omacron.sc" unicode="&#xf657;" horiz-adv-x="618" 
d="M309 31q157 0 157 238q0 240 -157 240q-76 0 -116.5 -61t-40.5 -179t40.5 -178t116.5 -60zM309 -18q-108 0 -187.5 79.5t-79.5 207.5q0 127 80 208t187 81q108 0 187.5 -80.5t79.5 -208.5q0 -129 -79 -208t-188 -79zM195 631v56h247v-56h-247z" />
    <glyph glyph-name="Racute.sc" unicode="&#xf658;" horiz-adv-x="570" 
d="M227 616l54 146q13 39 47 39q16 0 31 -13t15 -33q0 -24 -22 -43l-96 -96h-29zM551 54l16 -31q-40 -32 -94 -32q-62 0 -87.5 38.5t-39.5 120.5q-10 64 -27.5 85t-63.5 21h-55v-206l64 -7v-43h-224v43l58 6v451l-58 4v45h223q93 0 151.5 -36t58.5 -102q0 -55 -39.5 -89.5
t-98.5 -47.5v-2q55 -8 81.5 -37t39.5 -88q13 -58 25 -79t38 -21q19 0 32 7zM258 501h-58v-203h68q55 0 76 22.5t21 78.5q0 102 -107 102z" />
    <glyph glyph-name="Rcaron.sc" unicode="&#xf659;" horiz-adv-x="570" 
d="M151 783h32l96 -87l95 87h32l-91 -158h-73zM551 54l16 -31q-40 -32 -94 -32q-62 0 -87.5 38.5t-39.5 120.5q-10 64 -27.5 85t-63.5 21h-55v-206l64 -7v-43h-224v43l58 6v451l-58 4v45h223q93 0 151.5 -36t58.5 -102q0 -55 -39.5 -89.5t-98.5 -47.5v-2q55 -8 81.5 -37
t39.5 -88q13 -58 25 -79t38 -21q19 0 32 7zM258 501h-58v-203h68q55 0 76 22.5t21 78.5q0 102 -107 102z" />
    <glyph glyph-name="Rcommaaccent.sc" unicode="&#xf65a;" horiz-adv-x="570" 
d="M246 -270l-11 33q81 26 81 78q0 19 -11 19q-3 0 -13 -6.5t-22 -6.5q-20 0 -31.5 13t-11.5 34q0 23 18.5 37.5t45.5 14.5q37 0 60 -23t23 -61q0 -52 -36 -85.5t-92 -46.5zM551 54l16 -31q-40 -32 -94 -32q-62 0 -87.5 38.5t-39.5 120.5q-10 64 -27.5 85t-63.5 21h-55v-206
l64 -7v-43h-224v43l58 6v451l-58 4v45h223q93 0 151.5 -36t58.5 -102q0 -55 -39.5 -89.5t-98.5 -47.5v-2q55 -8 81.5 -37t39.5 -88q13 -58 25 -79t38 -21q19 0 32 7zM258 501h-58v-203h68q55 0 76 22.5t21 78.5q0 102 -107 102z" />
    <glyph glyph-name="Sacute.sc" unicode="&#xf65b;" horiz-adv-x="480" 
d="M190 616l54 146q13 39 47 39q16 0 31 -13t15 -33q0 -24 -22 -43l-96 -96h-29zM246 -18q-98 0 -150 70l-14 -42h-35v171l38 -1q27 -150 159 -150q50 0 79.5 21.5t29.5 61.5q0 43 -31.5 69.5t-100.5 47.5q-82 26 -124 64.5t-42 103.5q0 74 51 117t121 43q88 0 129 -57
l14 38h34v-144h-38q-27 116 -137 116q-45 0 -70.5 -21t-25.5 -57t28.5 -56.5t102.5 -43.5q83 -25 128.5 -64.5t45.5 -113.5q0 -81 -55.5 -127t-136.5 -46z" />
    <glyph glyph-name="Scedilla.sc" unicode="&#xf65c;" horiz-adv-x="480" 
d="M246 -18q-98 0 -150 70l-14 -42h-35v171l38 -1q27 -150 159 -150q50 0 79.5 21.5t29.5 61.5q0 43 -31.5 69.5t-100.5 47.5q-82 26 -124 64.5t-42 103.5q0 74 51 117t121 43q88 0 129 -57l14 38h34v-144h-38q-27 116 -137 116q-45 0 -70.5 -21t-25.5 -57t28.5 -56.5
t102.5 -43.5q83 -25 128.5 -64.5t45.5 -113.5q0 -81 -55.5 -127t-136.5 -46zM210 -235q-50 0 -89 18l9 33q37 -10 60 -10q24 0 38.5 11t14.5 31q0 53 -74 39v133h44v-91q46 6 78.5 -15.5t32.5 -61.5t-31.5 -63.5t-82.5 -23.5z" />
    <glyph glyph-name="Scommaaccent.sc" unicode="&#xf65d;" horiz-adv-x="480" 
d="M187 -270l-11 33q81 26 81 78q0 19 -11 19q-3 0 -13 -6.5t-22 -6.5q-20 0 -31.5 13t-11.5 34q0 23 18.5 37.5t45.5 14.5q37 0 60 -23t23 -61q0 -52 -36 -85.5t-92 -46.5zM246 -18q-98 0 -150 70l-14 -42h-35v171l38 -1q27 -150 159 -150q50 0 79.5 21.5t29.5 61.5
q0 43 -31.5 69.5t-100.5 47.5q-82 26 -124 64.5t-42 103.5q0 74 51 117t121 43q88 0 129 -57l14 38h34v-144h-38q-27 116 -137 116q-45 0 -70.5 -21t-25.5 -57t28.5 -56.5t102.5 -43.5q83 -25 128.5 -64.5t45.5 -113.5q0 -81 -55.5 -127t-136.5 -46z" />
    <glyph glyph-name="Tcaron.sc" unicode="&#xf65e;" horiz-adv-x="543" 
d="M153 0v43l67 7v451h-64q-38 0 -49.5 -12t-17.5 -56l-11 -72h-37v188h461v-188h-36l-12 71q-8 46 -23 57.5t-58 11.5h-50v-451l67 -7v-43h-237zM149 783h32l96 -87l95 87h32l-91 -158h-73z" />
    <glyph glyph-name="Tcommaaccent.sc" unicode="&#xf65f;" horiz-adv-x="543" 
d="M153 0v43l67 7v451h-64q-38 0 -49.5 -12t-17.5 -56l-11 -72h-37v188h461v-188h-36l-12 71q-8 46 -23 57.5t-58 11.5h-50v-451l67 -7v-43h-237zM222 -270l-11 33q81 26 81 78q0 19 -11 19q-3 0 -13 -6.5t-22 -6.5q-20 0 -31.5 13t-11.5 34q0 23 18.5 37.5t45.5 14.5
q37 0 60 -23t23 -61q0 -52 -36 -85.5t-92 -46.5z" />
    <glyph glyph-name="Uhungarumlaut.sc" unicode="&#xf660;" horiz-adv-x="584" 
d="M228 617l33 146q9 39 45 39q16 0 29.5 -11.5t13.5 -30.5q0 -20 -20 -43l-73 -100h-28zM378 617l33 146q9 39 45 39q16 0 29.5 -11.5t13.5 -30.5q0 -18 -20 -43l-73 -100h-28zM301 -11q-104 0 -158 49.5t-54 133.5v328l-51 4v45h224v-45l-72 -5v-315q0 -71 29 -105t99 -34
q67 0 96.5 34t29.5 105v308l-66 12v45h168v-45l-52 -12v-316q0 -85 -46.5 -136t-146.5 -51z" />
    <glyph glyph-name="Umacron.sc" unicode="&#xf661;" horiz-adv-x="584" 
d="M207 631v56h247v-56h-247zM301 -11q-104 0 -158 49.5t-54 133.5v328l-51 4v45h224v-45l-72 -5v-315q0 -71 29 -105t99 -34q67 0 96.5 34t29.5 105v308l-66 12v45h168v-45l-52 -12v-316q0 -85 -46.5 -136t-146.5 -51z" />
    <glyph glyph-name="Uogonek.sc" unicode="&#xf662;" horiz-adv-x="584" 
d="M403 -206l20 -21q-33 -59 -101 -59q-45 0 -73.5 25t-28.5 68q0 77 128 186q-17 -4 -47 -4q-104 0 -158 49.5t-54 133.5v328l-51 4v45h224v-45l-72 -5v-315q0 -71 29 -105t99 -34q67 0 96.5 34t29.5 105v308l-66 12v45h168v-45l-52 -12v-316q0 -53 -19 -93.5t-65 -81.5
q-97 -90 -97 -174q0 -58 43 -58q22 0 47 25z" />
    <glyph glyph-name="Uring.sc" unicode="&#xf663;" horiz-adv-x="584" 
d="M330 647q23 0 37.5 15.5t14.5 39.5t-14.5 39.5t-37.5 15.5t-37.5 -15.5t-14.5 -39.5t14.5 -39.5t37.5 -15.5zM330 612q-38 0 -64 26t-26 64t26 64t64 26t64.5 -26t26.5 -64t-26.5 -64t-64.5 -26zM301 -11q-104 0 -158 49.5t-54 133.5v328l-51 4v45h224v-45l-72 -5v-315
q0 -71 29 -105t99 -34q67 0 96.5 34t29.5 105v308l-66 12v45h168v-45l-52 -12v-316q0 -85 -46.5 -136t-146.5 -51z" />
    <glyph glyph-name="Zacute.sc" unicode="&#xf664;" horiz-adv-x="500" 
d="M209 616l54 146q13 39 47 39q16 0 31 -13t15 -33q0 -24 -22 -43l-96 -96h-29zM60 366v183h400v-30l-302 -471h138q68 0 87.5 10t25.5 47l18 93h37v-198h-430v30l302 471h-132q-55 0 -70 -10t-23 -51l-15 -74h-36z" />
    <glyph glyph-name="Zdotaccent.sc" unicode="&#xf665;" horiz-adv-x="500" 
d="M60 366v183h400v-30l-302 -471h138q68 0 87.5 10t25.5 47l18 93h37v-198h-430v30l302 471h-132q-55 0 -70 -10t-23 -51l-15 -74h-36zM262 626q-25 0 -42 17t-17 41q0 26 17 42t42 16q26 0 43 -16t17 -42q0 -24 -17 -41t-43 -17z" />
    <glyph glyph-name="Idotaccent.sc" unicode="&#xf666;" horiz-adv-x="297" 
d="M40 0v43l58 7v448l-58 6v45h218v-45l-58 -5v-448l58 -8v-43h-218zM143 626q-25 0 -42 17t-17 41q0 26 17 42t42 16q26 0 43 -16t17 -42q0 -24 -17 -41t-43 -17z" />
    <glyph glyph-name="germandbls.sc" unicode="&#xf667;" horiz-adv-x="932" 
d="M698 -18q-98 0 -150 70l-14 -42h-35v171l38 -1q27 -150 159 -150q50 0 79.5 21.5t29.5 61.5q0 43 -31.5 69.5t-100.5 47.5q-82 26 -124 64.5t-42 103.5q0 74 51 117t121 43q88 0 129 -57l14 38h34v-144h-38q-27 116 -137 116q-45 0 -70.5 -21t-25.5 -57t28.5 -56.5
t102.5 -43.5q83 -25 128.5 -64.5t45.5 -113.5q0 -81 -55.5 -127t-136.5 -46zM246 -18q-98 0 -150 70l-14 -42h-35v171l38 -1q27 -150 159 -150q50 0 79.5 21.5t29.5 61.5q0 43 -31.5 69.5t-100.5 47.5q-82 26 -124 64.5t-42 103.5q0 74 51 117t121 43q88 0 129 -57l14 38h34
v-144h-38q-27 116 -137 116q-45 0 -70.5 -21t-25.5 -57t28.5 -56.5t102.5 -43.5q83 -25 128.5 -64.5t45.5 -113.5q0 -81 -55.5 -127t-136.5 -46z" />
    <glyph glyph-name="Lslash.sc" unicode="&#xf6f9;" horiz-adv-x="520" 
d="M40 161v45l331 154v-46zM40 0v43l58 5v452l-58 4v45h233v-45l-73 -5v-451h148q43 0 57.5 14.5t20.5 67.5l12 67h36v-197h-434z" />
    <glyph glyph-name="OE.sc" unicode="&#xf6fa;" horiz-adv-x="801" 
d="M750 0h-431q-56 0 -103.5 14.5t-87.5 45.5t-63 85.5t-23 128.5q0 71 23 126t62 86.5t86.5 47t100.5 15.5h407v-161h-36l-14 72q-5 26 -16 33.5t-42 7.5h-142v-200h63q35 0 39 28l7 60h34v-219h-34l-7 58q-2 19 -10.5 24.5t-28.5 5.5h-63v-210h148q48 0 60 7t18 40l15 85
h38v-180zM152 274q0 -127 44.5 -176.5t128.5 -49.5h44v453h-45q-172 0 -172 -227z" />
    <glyph glyph-name="Scaron.sc" unicode="&#xf6fd;" horiz-adv-x="480" 
d="M106 783h32l96 -87l95 87h32l-91 -158h-73zM246 -18q-98 0 -150 70l-14 -42h-35v171l38 -1q27 -150 159 -150q50 0 79.5 21.5t29.5 61.5q0 43 -31.5 69.5t-100.5 47.5q-82 26 -124 64.5t-42 103.5q0 74 51 117t121 43q88 0 129 -57l14 38h34v-144h-38q-27 116 -137 116
q-45 0 -70.5 -21t-25.5 -57t28.5 -56.5t102.5 -43.5q83 -25 128.5 -64.5t45.5 -113.5q0 -81 -55.5 -127t-136.5 -46z" />
    <glyph glyph-name="Zcaron.sc" unicode="&#xf6ff;" horiz-adv-x="500" 
d="M135 783h32l96 -87l95 87h32l-91 -158h-73zM60 366v183h400v-30l-302 -471h138q68 0 87.5 10t25.5 47l18 93h37v-198h-430v30l302 471h-132q-55 0 -70 -10t-23 -51l-15 -74h-36z" />
    <glyph glyph-name="exclam.sc" unicode="&#xf721;" horiz-adv-x="229" 
d="M99 176l-43 302q-6 37 12 60.5t47 23.5t46.5 -23.5t11.5 -60.5l-43 -302h-31zM115 -13q-26 0 -43 18t-17 45t17 45t43 18t42.5 -18t16.5 -45t-16.5 -45t-42.5 -18z" />
    <glyph glyph-name="ampersand.sc" unicode="&#xf726;" horiz-adv-x="654" 
d="M636 61l10 -30q-49 -49 -108 -49q-33 0 -63.5 16.5t-44.5 31.5t-37 44q-83 -92 -186 -92q-77 0 -123 40.5t-46 107.5q0 121 143 168q-35 33 -50.5 60t-15.5 67q0 54 40 93.5t110 39.5q57 0 92 -29.5t35 -84.5q0 -74 -100 -117q81 -77 141 -144q21 35 66 122l-52 8v44h157
v-44l-54 -7q-13 -20 -44 -72t-49 -78q6 -7 21 -26.5t21 -27t19 -21t22 -18.5t21 -10t25 -5q16 0 31.5 5t18.5 8zM249 45q67 0 122 55q-98 113 -171 181q-75 -41 -75 -112q0 -51 32 -87.5t92 -36.5zM200 452q0 -27 13.5 -46.5t49.5 -52.5l7 -7q61 38 61 100q0 31 -17 49
t-46 18q-30 0 -49 -17t-19 -44z" />
    <glyph glyph-name="question.sc" unicode="&#xf73f;" horiz-adv-x="377" 
d="M158 -13q-26 0 -43 17.5t-17 45.5q0 27 17 44.5t43 17.5t42 -17.5t16 -44.5q0 -28 -16 -45.5t-42 -17.5zM172 176h-42q-9 41 -1 67.5t28 52.5t40.5 45t36.5 46t16 54q0 69 -80 69q-64 0 -64 -43q0 -22 26 -27q9 -16 9 -27q0 -18 -12 -30.5t-33 -12.5q-28 0 -45.5 19.5
t-17.5 51.5q0 52 43 85t107 33q70 0 114.5 -36t44.5 -100q0 -39 -19 -70t-45.5 -50.5t-52.5 -37t-41.5 -40t-11.5 -49.5z" />
    <glyph glyph-name="A.sc" unicode="&#xf761;" horiz-adv-x="581" 
d="M337 0v43l65 5l-48 129h-185l-41 -114l81 -20v-43h-186v43l51 16l184 496h65l188 -509l47 -3v-43h-221zM260 423l-75 -203h153l-74 203h-4z" />
    <glyph glyph-name="B.sc" unicode="&#xf762;" horiz-adv-x="524" 
d="M40 0v43l58 6v450l-58 5v45h230q90 0 140 -34.5t50 -95.5q0 -103 -118 -132v-2q69 -11 105 -46t36 -89q0 -69 -51.5 -109.5t-145.5 -40.5h-246zM266 263h-66v-215h66q66 0 91 24t25 83q0 60 -29 84t-87 24zM258 501h-58v-196h61q54 0 77 23.5t23 80.5q0 53 -25 72.5
t-78 19.5z" />
    <glyph glyph-name="C.sc" unicode="&#xf763;" horiz-adv-x="572" 
d="M306 -18q-120 0 -192 78t-72 209q0 127 80.5 208t190.5 81q96 0 157 -73l14 57h33v-174h-38q-38 141 -162 141q-73 0 -119 -61t-46 -176q0 -233 176 -233q113 0 164 109l35 -16q-27 -71 -84.5 -110.5t-136.5 -39.5z" />
    <glyph glyph-name="D.sc" unicode="&#xf764;" horiz-adv-x="594" 
d="M40 0v43l58 5v451l-58 5v45h235q55 0 102.5 -15t88 -45.5t63.5 -85.5t23 -128q0 -71 -23 -126t-62 -86.5t-86.5 -47t-101.5 -15.5h-239zM269 501h-69v-453h70q172 0 172 227q0 127 -44.5 176.5t-128.5 49.5z" />
    <glyph glyph-name="E.sc" unicode="&#xf765;" horiz-adv-x="547" 
d="M433 388l-15 72q-6 27 -16.5 34t-41.5 7h-160v-200h73q36 0 39 28l7 60h33v-219h-33l-7 58q-2 19 -10.5 24.5t-28.5 5.5h-73v-210h166q48 0 60.5 7t18.5 40l14 85h38v-180h-457v43l58 6v450l-58 5v45h427v-161h-34z" />
    <glyph glyph-name="F.sc" unicode="&#xf766;" horiz-adv-x="498" 
d="M430 373l-13 71q-6 37 -20.5 47t-62.5 10h-134v-200h68q21 0 27 5.5t10 30.5l7 55h33v-221h-33l-7 55q-3 22 -9 27.5t-29 5.5h-67v-210l72 -6v-43h-232v43l58 6v449l-58 6v45h425v-176h-35z" />
    <glyph glyph-name="G.sc" unicode="&#xf767;" horiz-adv-x="614" 
d="M317 -18q-125 0 -200 78.5t-75 207.5q0 127 82 208.5t191 81.5q103 0 157 -67l12 50h33v-164h-37q-19 68 -55.5 100t-98.5 32q-75 0 -124.5 -61.5t-49.5 -178.5q0 -122 42 -180.5t131 -58.5q73 0 103 43q13 17 13 68v37l-68 6v44h218v-44l-52 -5v-96q-88 -101 -222 -101z
" />
    <glyph glyph-name="H.sc" unicode="&#xf768;" horiz-adv-x="619" 
d="M357 0v43l63 5v214h-220v-213l63 -6v-43h-223v43l58 6v451l-58 4v45h223v-45l-63 -5v-194h220v193l-63 6v45h223v-45l-58 -4v-453l58 -4v-43h-223z" />
    <glyph glyph-name="I.sc" unicode="&#xf769;" horiz-adv-x="297" 
d="M40 0v43l58 7v448l-58 6v45h218v-45l-58 -5v-448l58 -8v-43h-218z" />
    <glyph glyph-name="J.sc" unicode="&#xf76a;" horiz-adv-x="401" 
d="M141 -51q-54 0 -81.5 25t-27.5 63q0 29 16 47.5t40 18.5q21 0 35 -13t14 -34q0 -19 -13 -33t-13 -16q0 -14 25 -14q64 0 64 90v414l-66 7v45h229v-45l-60 -6v-352q0 -96 -45 -146.5t-117 -50.5z" />
    <glyph glyph-name="K.sc" unicode="&#xf76b;" horiz-adv-x="588" 
d="M40 0v43l58 6v450l-58 5v45h224v-45l-64 -5v-450l62 -6v-43h-222zM343 0v43l53 5l-176 229v18l186 196l-56 13v45h184v-45l-72 -13l-152 -163l204 -281l42 -4v-43h-213z" />
    <glyph glyph-name="L.sc" unicode="&#xf76c;" horiz-adv-x="520" 
d="M40 0v43l58 5v452l-58 4v45h233v-45l-73 -5v-451h148q43 0 57.5 14.5t20.5 67.5l12 67h36v-197h-434z" />
    <glyph glyph-name="M.sc" unicode="&#xf76d;" horiz-adv-x="690" 
d="M334 0h-23l-165 454v-397l65 -14v-43h-171v43l58 14v440l-58 7v45h170l133 -368l131 368h176v-45l-56 -4v-453l56 -4v-43h-223v43l67 6v418z" />
    <glyph glyph-name="N.sc" unicode="&#xf76e;" horiz-adv-x="594" 
d="M40 0v43l57 8v447l-57 6v45h168l250 -364v307l-68 12v45h167v-45l-49 -11v-493h-42l-319 465v-410l85 -12v-43h-192z" />
    <glyph glyph-name="O.sc" unicode="&#xf76f;" horiz-adv-x="618" 
d="M309 31q157 0 157 238q0 240 -157 240q-76 0 -116.5 -61t-40.5 -179t40.5 -178t116.5 -60zM309 -18q-108 0 -187.5 79.5t-79.5 207.5q0 127 80 208t187 81q108 0 187.5 -80.5t79.5 -208.5q0 -129 -79 -208t-188 -79z" />
    <glyph glyph-name="P.sc" unicode="&#xf770;" horiz-adv-x="505" 
d="M40 0v43l58 5v452l-58 4v45h225q103 0 158 -41t55 -116q0 -81 -56.5 -122t-152.5 -41q-37 0 -69 5v-185l70 -6v-43h-230zM256 501h-56v-225q30 -2 53 -2q66 0 91.5 24.5t25.5 89.5q0 62 -26.5 87.5t-87.5 25.5z" />
    <glyph glyph-name="Q.sc" unicode="&#xf771;" horiz-adv-x="616" 
d="M439 -165q-73 0 -118.5 37t-70.5 117q-89 19 -148.5 94.5t-59.5 185.5q0 127 80 208t187 81q108 0 187.5 -80.5t79.5 -208.5q0 -111 -61 -186.5t-151 -94.5q31 -99 110 -99q31 0 68 13l11 -40q-56 -27 -114 -27zM309 31q157 0 157 238q0 240 -157 240q-76 0 -116.5 -61
t-40.5 -179t40.5 -178t116.5 -60z" />
    <glyph glyph-name="R.sc" unicode="&#xf772;" horiz-adv-x="570" 
d="M551 54l16 -31q-40 -32 -94 -32q-62 0 -87.5 38.5t-39.5 120.5q-10 64 -27.5 85t-63.5 21h-55v-206l64 -7v-43h-224v43l58 6v451l-58 4v45h223q93 0 151.5 -36t58.5 -102q0 -55 -39.5 -89.5t-98.5 -47.5v-2q55 -8 81.5 -37t39.5 -88q13 -58 25 -79t38 -21q19 0 32 7z
M258 501h-58v-203h68q55 0 76 22.5t21 78.5q0 102 -107 102z" />
    <glyph glyph-name="S.sc" unicode="&#xf773;" horiz-adv-x="480" 
d="M246 -18q-98 0 -150 70l-14 -42h-35v171l38 -1q27 -150 159 -150q50 0 79.5 21.5t29.5 61.5q0 43 -31.5 69.5t-100.5 47.5q-82 26 -124 64.5t-42 103.5q0 74 51 117t121 43q88 0 129 -57l14 38h34v-144h-38q-27 116 -137 116q-45 0 -70.5 -21t-25.5 -57t28.5 -56.5
t102.5 -43.5q83 -25 128.5 -64.5t45.5 -113.5q0 -81 -55.5 -127t-136.5 -46z" />
    <glyph glyph-name="T.sc" unicode="&#xf774;" horiz-adv-x="543" 
d="M153 0v43l67 7v451h-64q-38 0 -49.5 -12t-17.5 -56l-11 -72h-37v188h461v-188h-36l-12 71q-8 46 -23 57.5t-58 11.5h-50v-451l67 -7v-43h-237z" />
    <glyph glyph-name="U.sc" unicode="&#xf775;" horiz-adv-x="584" 
d="M301 -11q-104 0 -158 49.5t-54 133.5v328l-51 4v45h224v-45l-72 -5v-315q0 -71 29 -105t99 -34q67 0 96.5 34t29.5 105v308l-66 12v45h168v-45l-52 -12v-316q0 -85 -46.5 -136t-146.5 -51z" />
    <glyph glyph-name="V.sc" unicode="&#xf776;" horiz-adv-x="570" 
d="M251 -7l-177 507l-46 4v45h215v-45l-62 -5l131 -376h1l126 363l-69 18v45h173v-45l-51 -15l-173 -496h-68z" />
    <glyph glyph-name="W.sc" unicode="&#xf777;" horiz-adv-x="782" 
d="M483 -7l-85 275l-102 -275h-69l-157 507l-42 4v45h199v-45l-49 -4l111 -377h1l86 217l-50 160l-43 4v45h206v-45l-56 -4l109 -377h1l113 362l-62 19v45h161v-45l-47 -16l-152 -495h-73z" />
    <glyph glyph-name="X.sc" unicode="&#xf778;" horiz-adv-x="572" 
d="M322 0v43l52 4l-117 187l-108 -174l65 -17v-43h-183v43l64 20l136 212l-141 225l-44 4v45h217v-45l-54 -4l101 -161l95 148l-59 17v45h172v-45l-61 -18l-122 -188l157 -250l49 -5v-43h-219z" />
    <glyph glyph-name="Y.sc" unicode="&#xf779;" horiz-adv-x="534" 
d="M153 0v43l68 7v211l-156 240l-37 3v45h211v-45l-59 -4l122 -197l106 183l-58 18v45h156v-45l-49 -19l-134 -230v-206l67 -6v-43h-237z" />
    <glyph glyph-name="Z.sc" unicode="&#xf77a;" horiz-adv-x="500" 
d="M60 366v183h400v-30l-302 -471h138q68 0 87.5 10t25.5 47l18 93h37v-198h-430v30l302 471h-132q-55 0 -70 -10t-23 -51l-15 -74h-36z" />
    <glyph glyph-name="exclamdown.sc" unicode="&#xf7a1;" horiz-adv-x="228" 
d="M83 374l34 -302q6 -37 -9 -60.5t-38 -23.5t-37.5 23.5t-8.5 60.5l34 302h25zM70 563q21 0 34.5 -18t13.5 -45t-13.5 -45t-34.5 -18t-34 18t-13 45t13 45t34 18z" />
    <glyph glyph-name="questiondown.sc" unicode="&#xf7bf;" horiz-adv-x="377" 
d="M217 559q26 0 43 -17.5t17 -45.5q0 -27 -17 -44.5t-43 -17.5t-42 17.5t-16 44.5q0 28 16 45.5t42 17.5zM203 370h42q9 -41 1 -67.5t-28 -52.5t-40.5 -45t-36.5 -46t-16 -54q0 -69 80 -69q64 0 64 43q0 22 -26 27q-9 16 -9 27q0 18 12 30.5t33 12.5q28 0 45.5 -19.5
t17.5 -51.5q0 -52 -43 -85t-107 -33q-70 0 -114.5 36t-44.5 100q0 39 19 70t45.5 50.5t52.5 37t41.5 40t11.5 49.5z" />
    <glyph glyph-name="Agrave.sc" unicode="&#xf7e0;" horiz-adv-x="581" 
d="M337 0v43l65 5l-48 129h-185l-41 -114l81 -20v-43h-186v43l51 16l184 496h65l188 -509l47 -3v-43h-221zM260 423l-75 -203h153l-74 203h-4zM316 616l-96 96q-23 23 -23 43t15 33t32 13q34 0 47 -39l53 -146h-28z" />
    <glyph glyph-name="Aacute.sc" unicode="&#xf7e1;" horiz-adv-x="581" 
d="M246 616l54 146q13 39 47 39q16 0 31 -13t15 -33q0 -24 -22 -43l-96 -96h-29zM337 0v43l65 5l-48 129h-185l-41 -114l81 -20v-43h-186v43l51 16l184 496h65l188 -509l47 -3v-43h-221zM260 423l-75 -203h153l-74 203h-4z" />
    <glyph glyph-name="Acircumflex.sc" unicode="&#xf7e2;" horiz-adv-x="581" 
d="M197 617h-31l91 158h71l92 -158h-31l-97 87zM337 0v43l65 5l-48 129h-185l-41 -114l81 -20v-43h-186v43l51 16l184 496h65l188 -509l47 -3v-43h-221zM260 423l-75 -203h153l-74 203h-4z" />
    <glyph glyph-name="Atilde.sc" unicode="&#xf7e3;" horiz-adv-x="581" 
d="M337 0v43l65 5l-48 129h-185l-41 -114l81 -20v-43h-186v43l51 16l184 496h65l188 -509l47 -3v-43h-221zM260 423l-75 -203h153l-74 203h-4zM356 625q-21 0 -62.5 15t-56.5 15q-31 -1 -46 -43h-37q12 50 37 84t62 34q21 0 62 -15t54 -15q31 3 45 44h39q-11 -51 -36 -85
t-61 -34z" />
    <glyph glyph-name="Adieresis.sc" unicode="&#xf7e4;" horiz-adv-x="581" 
d="M208 625q-23 0 -39 15.5t-16 39.5q0 23 16 38.5t39 15.5t39 -15.5t16 -38.5q0 -24 -16 -39.5t-39 -15.5zM389 625q-24 0 -40 15.5t-16 39.5q0 23 16.5 38.5t39.5 15.5t39.5 -15.5t16.5 -38.5q0 -24 -16 -39.5t-40 -15.5zM337 0v43l65 5l-48 129h-185l-41 -114l81 -20v-43
h-186v43l51 16l184 496h65l188 -509l47 -3v-43h-221zM260 423l-75 -203h153l-74 203h-4z" />
    <glyph glyph-name="Aring.sc" unicode="&#xf7e5;" horiz-adv-x="581" 
d="M297 647q23 0 37.5 15.5t14.5 39.5t-14.5 39.5t-37.5 15.5t-37.5 -15.5t-14.5 -39.5t14.5 -39.5t37.5 -15.5zM297 612q-38 0 -64 26t-26 64t26 64t64 26t64.5 -26t26.5 -64t-26.5 -64t-64.5 -26zM337 0v43l65 5l-48 129h-185l-41 -114l81 -20v-43h-186v43l51 16l184 496
h65l188 -509l47 -3v-43h-221zM260 423l-75 -203h153l-74 203h-4z" />
    <glyph glyph-name="AE.sc" unicode="&#xf7e6;" horiz-adv-x="793" 
d="M28 0v43l59 19l228 437l-72 5v45h470v-161h-35l-15 72q-5 26 -16 33.5t-42 7.5h-139v-208h52q35 0 39 28l7 60h34v-220h-33l-8 59q-2 19 -10 24t-29 5h-52v-201h145q49 0 61 7t18 40l15 85h37v-180h-436v43l58 6v197h-130l-96 -185l78 -18v-43h-188zM362 490l-105 -201
h107v201h-2z" />
    <glyph glyph-name="Ccedilla.sc" unicode="&#xf7e7;" horiz-adv-x="572" 
d="M306 -18q-120 0 -192 78t-72 209q0 127 80.5 208t190.5 81q96 0 157 -73l14 57h33v-174h-38q-38 141 -162 141q-73 0 -119 -61t-46 -176q0 -233 176 -233q113 0 164 109l35 -16q-27 -71 -84.5 -110.5t-136.5 -39.5zM301 -235q-50 0 -89 18l9 33q37 -10 60 -10
q24 0 38.5 11t14.5 31q0 53 -74 39v133h44v-91q46 6 78.5 -15.5t32.5 -61.5t-31.5 -63.5t-82.5 -23.5z" />
    <glyph glyph-name="Egrave.sc" unicode="&#xf7e8;" horiz-adv-x="547" 
d="M302 616l-96 96q-23 23 -23 43t15 33t32 13q34 0 47 -39l53 -146h-28zM433 388l-15 72q-6 27 -16.5 34t-41.5 7h-160v-200h73q36 0 39 28l7 60h33v-219h-33l-7 58q-2 19 -10.5 24.5t-28.5 5.5h-73v-210h166q48 0 60.5 7t18.5 40l14 85h38v-180h-457v43l58 6v450l-58 5v45
h427v-161h-34z" />
    <glyph glyph-name="Eacute.sc" unicode="&#xf7e9;" horiz-adv-x="547" 
d="M231 616l54 146q13 39 47 39q16 0 31 -13t15 -33q0 -24 -22 -43l-96 -96h-29zM433 388l-15 72q-6 27 -16.5 34t-41.5 7h-160v-200h73q36 0 39 28l7 60h33v-219h-33l-7 58q-2 19 -10.5 24.5t-28.5 5.5h-73v-210h166q48 0 60.5 7t18.5 40l14 85h38v-180h-457v43l58 6v450
l-58 5v45h427v-161h-34z" />
    <glyph glyph-name="Ecircumflex.sc" unicode="&#xf7ea;" horiz-adv-x="547" 
d="M184 617h-31l91 158h71l92 -158h-31l-97 87zM433 388l-15 72q-6 27 -16.5 34t-41.5 7h-160v-200h73q36 0 39 28l7 60h33v-219h-33l-7 58q-2 19 -10.5 24.5t-28.5 5.5h-73v-210h166q48 0 60.5 7t18.5 40l14 85h38v-180h-457v43l58 6v450l-58 5v45h427v-161h-34z" />
    <glyph glyph-name="Edieresis.sc" unicode="&#xf7eb;" horiz-adv-x="547" 
d="M193 625q-23 0 -39 15.5t-16 39.5q0 23 16 38.5t39 15.5t39 -15.5t16 -38.5q0 -24 -16 -39.5t-39 -15.5zM374 625q-24 0 -40 15.5t-16 39.5q0 23 16.5 38.5t39.5 15.5t39.5 -15.5t16.5 -38.5q0 -24 -16 -39.5t-40 -15.5zM433 388l-15 72q-6 27 -16.5 34t-41.5 7h-160
v-200h73q36 0 39 28l7 60h33v-219h-33l-7 58q-2 19 -10.5 24.5t-28.5 5.5h-73v-210h166q48 0 60.5 7t18.5 40l14 85h38v-180h-457v43l58 6v450l-58 5v45h427v-161h-34z" />
    <glyph glyph-name="Igrave.sc" unicode="&#xf7ec;" horiz-adv-x="297" 
d="M40 0v43l58 7v448l-58 6v45h218v-45l-58 -5v-448l58 -8v-43h-218zM164 616l-96 96q-23 23 -23 43t15 33t32 13q34 0 47 -39l53 -146h-28z" />
    <glyph glyph-name="Iacute.sc" unicode="&#xf7ed;" horiz-adv-x="297" 
d="M91 616l54 146q13 39 47 39q16 0 31 -13t15 -33q0 -24 -22 -43l-96 -96h-29zM40 0v43l58 7v448l-58 6v45h218v-45l-58 -5v-448l58 -8v-43h-218z" />
    <glyph glyph-name="Icircumflex.sc" unicode="&#xf7ee;" horiz-adv-x="297" 
d="M42 617h-31l91 158h71l92 -158h-31l-97 87zM40 0v43l58 7v448l-58 6v45h218v-45l-58 -5v-448l58 -8v-43h-218z" />
    <glyph glyph-name="Idieresis.sc" unicode="&#xf7ef;" horiz-adv-x="297" 
d="M53 625q-23 0 -39 15.5t-16 39.5q0 23 16 38.5t39 15.5t39 -15.5t16 -38.5q0 -24 -16 -39.5t-39 -15.5zM234 625q-24 0 -40 15.5t-16 39.5q0 23 16.5 38.5t39.5 15.5t39.5 -15.5t16.5 -38.5q0 -24 -16 -39.5t-40 -15.5zM40 0v43l58 7v448l-58 6v45h218v-45l-58 -5v-448
l58 -8v-43h-218z" />
    <glyph glyph-name="Eth.sc" unicode="&#xf7f0;" horiz-adv-x="594" 
d="M39 504v45h236q55 0 102.5 -15t88 -45.5t63.5 -85.5t23 -128q0 -71 -23 -126t-62 -86.5t-86.5 -47t-101.5 -15.5h-240v43l58 5v212h-66v40h66v199zM269 501h-69v-201h128v-40h-128v-212h69q172 0 172 227q0 127 -44 176.5t-128 49.5z" />
    <glyph glyph-name="Ntilde.sc" unicode="&#xf7f1;" horiz-adv-x="594" 
d="M40 0v43l57 8v447l-57 6v45h168l250 -364v307l-68 12v45h167v-45l-49 -11v-493h-42l-319 465v-410l85 -12v-43h-192zM383 625q-21 0 -62.5 15t-56.5 15q-31 -1 -46 -43h-37q12 50 37 84t62 34q21 0 62 -15t54 -15q31 3 45 44h39q-11 -51 -36 -85t-61 -34z" />
    <glyph glyph-name="Ograve.sc" unicode="&#xf7f2;" horiz-adv-x="618" 
d="M309 31q157 0 157 238q0 240 -157 240q-76 0 -116.5 -61t-40.5 -179t40.5 -178t116.5 -60zM309 -18q-108 0 -187.5 79.5t-79.5 207.5q0 127 80 208t187 81q108 0 187.5 -80.5t79.5 -208.5q0 -129 -79 -208t-188 -79zM336 616l-96 96q-23 23 -23 43t15 33t32 13
q34 0 47 -39l53 -146h-28z" />
    <glyph glyph-name="Oacute.sc" unicode="&#xf7f3;" horiz-adv-x="618" 
d="M309 31q157 0 157 238q0 240 -157 240q-76 0 -116.5 -61t-40.5 -179t40.5 -178t116.5 -60zM309 -18q-108 0 -187.5 79.5t-79.5 207.5q0 127 80 208t187 81q108 0 187.5 -80.5t79.5 -208.5q0 -129 -79 -208t-188 -79zM255 616l54 146q13 39 47 39q16 0 31 -13t15 -33
q0 -24 -22 -43l-96 -96h-29z" />
    <glyph glyph-name="Ocircumflex.sc" unicode="&#xf7f4;" horiz-adv-x="618" 
d="M217 617h-31l91 158h71l92 -158h-31l-97 87zM309 31q157 0 157 238q0 240 -157 240q-76 0 -116.5 -61t-40.5 -179t40.5 -178t116.5 -60zM309 -18q-108 0 -187.5 79.5t-79.5 207.5q0 127 80 208t187 81q108 0 187.5 -80.5t79.5 -208.5q0 -129 -79 -208t-188 -79z" />
    <glyph glyph-name="Otilde.sc" unicode="&#xf7f5;" horiz-adv-x="618" 
d="M309 31q157 0 157 238q0 240 -157 240q-76 0 -116.5 -61t-40.5 -179t40.5 -178t116.5 -60zM309 -18q-108 0 -187.5 79.5t-79.5 207.5q0 127 80 208t187 81q108 0 187.5 -80.5t79.5 -208.5q0 -129 -79 -208t-188 -79zM376 625q-21 0 -62.5 15t-56.5 15q-31 -1 -46 -43h-37
q12 50 37 84t62 34q21 0 62 -15t54 -15q31 3 45 44h39q-11 -51 -36 -85t-61 -34z" />
    <glyph glyph-name="Odieresis.sc" unicode="&#xf7f6;" horiz-adv-x="618" 
d="M228 625q-23 0 -39 15.5t-16 39.5q0 23 16 38.5t39 15.5t39 -15.5t16 -38.5q0 -24 -16 -39.5t-39 -15.5zM409 625q-24 0 -40 15.5t-16 39.5q0 23 16.5 38.5t39.5 15.5t39.5 -15.5t16.5 -38.5q0 -24 -16 -39.5t-40 -15.5zM309 31q157 0 157 238q0 240 -157 240
q-76 0 -116.5 -61t-40.5 -179t40.5 -178t116.5 -60zM309 -18q-108 0 -187.5 79.5t-79.5 207.5q0 127 80 208t187 81q108 0 187.5 -80.5t79.5 -208.5q0 -129 -79 -208t-188 -79z" />
    <glyph glyph-name="Oslash.sc" unicode="&#xf7f8;" horiz-adv-x="618" 
d="M85 -20l-32 26l57 68q-68 77 -68 195q0 127 80 208t187 81q88 0 157 -54l53 63l32 -26l-54 -65q79 -84 79 -207q0 -129 -79 -208t-188 -79q-98 0 -170 63zM309 31q157 0 157 238q0 86 -22 143l-258 -310q38 -71 123 -71zM152 269q0 -77 16 -125l255 308q-39 57 -114 57
q-76 0 -116.5 -61t-40.5 -179z" />
    <glyph glyph-name="Ugrave.sc" unicode="&#xf7f9;" horiz-adv-x="584" 
d="M347 616l-96 96q-23 23 -23 43t15 33t32 13q34 0 47 -39l53 -146h-28zM301 -11q-104 0 -158 49.5t-54 133.5v328l-51 4v45h224v-45l-72 -5v-315q0 -71 29 -105t99 -34q67 0 96.5 34t29.5 105v308l-66 12v45h168v-45l-52 -12v-316q0 -85 -46.5 -136t-146.5 -51z" />
    <glyph glyph-name="Uacute.sc" unicode="&#xf7fa;" horiz-adv-x="584" 
d="M289 616l54 146q13 39 47 39q16 0 31 -13t15 -33q0 -24 -22 -43l-96 -96h-29zM301 -11q-104 0 -158 49.5t-54 133.5v328l-51 4v45h224v-45l-72 -5v-315q0 -71 29 -105t99 -34q67 0 96.5 34t29.5 105v308l-66 12v45h168v-45l-52 -12v-316q0 -85 -46.5 -136t-146.5 -51z
" />
    <glyph glyph-name="Ucircumflex.sc" unicode="&#xf7fb;" horiz-adv-x="584" 
d="M228 617h-31l91 158h71l92 -158h-31l-97 87zM301 -11q-104 0 -158 49.5t-54 133.5v328l-51 4v45h224v-45l-72 -5v-315q0 -71 29 -105t99 -34q67 0 96.5 34t29.5 105v308l-66 12v45h168v-45l-52 -12v-316q0 -85 -46.5 -136t-146.5 -51z" />
    <glyph glyph-name="Udieresis.sc" unicode="&#xf7fc;" horiz-adv-x="584" 
d="M239 625q-23 0 -39 15.5t-16 39.5q0 23 16 38.5t39 15.5t39 -15.5t16 -38.5q0 -24 -16 -39.5t-39 -15.5zM420 625q-24 0 -40 15.5t-16 39.5q0 23 16.5 38.5t39.5 15.5t39.5 -15.5t16.5 -38.5q0 -24 -16 -39.5t-40 -15.5zM301 -11q-104 0 -158 49.5t-54 133.5v328l-51 4
v45h224v-45l-72 -5v-315q0 -71 29 -105t99 -34q67 0 96.5 34t29.5 105v308l-66 12v45h168v-45l-52 -12v-316q0 -85 -46.5 -136t-146.5 -51z" />
    <glyph glyph-name="Yacute.sc" unicode="&#xf7fd;" horiz-adv-x="534" 
d="M249 616l54 146q13 39 47 39q16 0 31 -13t15 -33q0 -24 -22 -43l-96 -96h-29zM153 0v43l68 7v211l-156 240l-37 3v45h211v-45l-59 -4l122 -197l106 183l-58 18v45h156v-45l-49 -19l-134 -230v-206l67 -6v-43h-237z" />
    <glyph glyph-name="Thorn.sc" unicode="&#xf7fe;" horiz-adv-x="497" 
d="M272 133q-40 0 -72 6v-88l58 -8v-43h-218v43l58 7v448l-58 6v45h218v-45l-58 -5v-74h67q101 0 155.5 -37.5t54.5 -106.5q0 -71 -55 -109.5t-150 -38.5zM256 380h-56v-201q30 -2 52 -2q65 0 91.5 23t26.5 77q0 56 -27 79.5t-87 23.5z" />
    <glyph glyph-name="Ydieresis.sc" unicode="&#xf7ff;" horiz-adv-x="534" 
d="M210 625q-23 0 -39 15.5t-16 39.5q0 23 16 38.5t39 15.5t39 -15.5t16 -38.5q0 -24 -16 -39.5t-39 -15.5zM391 625q-24 0 -40 15.5t-16 39.5q0 23 16.5 38.5t39.5 15.5t39.5 -15.5t16.5 -38.5q0 -24 -16 -39.5t-40 -15.5zM153 0v43l68 7v211l-156 240l-37 3v45h211v-45
l-59 -4l122 -197l106 183l-58 18v45h156v-45l-49 -19l-134 -230v-206l67 -6v-43h-237z" />
    <glyph glyph-name="_1" horiz-adv-x="0" 
 />
    <glyph glyph-name="caron.uc" horiz-adv-x="481" 
d="M106 852h32l102 -70l103 70h31l-95 -136h-77z" />
    <glyph glyph-name="acute.uc" horiz-adv-x="481" 
d="M203 716h-29l51 112q15 45 50 45q18 0 34 -14.5t16 -36.5q0 -28 -33 -47z" />
    <glyph glyph-name="one.num" horiz-adv-x="228" 
d="M12 558v43l106 64h41v-312l57 -4v-39h-198v39l60 4v233z" />
    <glyph glyph-name="two.den" horiz-adv-x="298" 
d="M20 0l-2 47q38 30 55 43.5t44 38.5t39 41.5t21.5 38t9.5 43.5q0 65 -55 65q-20 0 -32.5 -8t-12.5 -20q0 -5 10 -16t10 -22q0 -15 -10.5 -25t-27.5 -10q-21 0 -33.5 13t-12.5 37q0 39 35 64t86 25q64 0 96 -30t32 -73q0 -28 -14.5 -53.5t-47 -52t-57 -42.5t-70.5 -44h106
q27 0 36 5t14 23l5 16h32l-11 -104h-245z" />
    <glyph glyph-name="four.den" horiz-adv-x="310" 
d="M162 0v83h-148v21l134 245h50l-132 -231h96v122l78 7v-129h54v-35h-54v-83h-78z" />
    <glyph glyph-name="three.num" horiz-adv-x="296" 
d="M128 300q-57 0 -88 23t-31 59q0 22 13.5 35.5t31.5 13.5q16 0 26.5 -10t10.5 -23t-10 -22.5t-10 -11.5q0 -26 46 -26q37 0 54.5 17.5t17.5 56.5q0 61 -76 61h-29v35h28q66 0 66 71q0 48 -53 48q-15 0 -25.5 -5t-10.5 -12q0 -2 7 -10t7 -19q0 -14 -9.5 -22.5t-25.5 -8.5
q-18 0 -28.5 11.5t-10.5 29.5q0 36 33.5 55t79.5 19q55 0 86.5 -23.5t31.5 -61.5q0 -30 -23 -53t-59 -31v-3q98 -12 98 -86q0 -48 -40.5 -77.5t-107.5 -29.5z" />
    <glyph glyph-name="dieresis.uc" horiz-adv-x="481" 
d="M142 722q-23 0 -39.5 16.5t-16.5 39.5t16.5 39t39.5 16q24 0 40 -16t16 -39t-16 -39.5t-40 -16.5zM340 722q-23 0 -39 16.5t-16 39.5t16 39t39 16q24 0 40.5 -16t16.5 -39t-16.5 -39.5t-40.5 -16.5z" />
    <glyph glyph-name="ring.uc" horiz-adv-x="481" 
d="M240 750q23 0 37.5 16t14.5 40t-14.5 40t-37.5 16t-37.5 -16t-14.5 -40t14.5 -40t37.5 -16zM240 716q-38 0 -64 26t-26 64t26 64t64 26t64.5 -26t26.5 -64t-26.5 -64t-64.5 -26z" />
    <glyph glyph-name="tilde.uc" horiz-adv-x="481" 
d="M298 738q-21 0 -67.5 14t-62.5 14q-32 -1 -46 -42h-37q11 51 36 85t64 34q20 0 66.5 -14t61.5 -14q32 2 44 42h39q-11 -50 -36 -84.5t-62 -34.5z" />
    <glyph glyph-name="grave.uc" horiz-adv-x="481" 
d="M305 716h-30l-89 59q-32 20 -32 47q0 23 15.5 37t34.5 14q32 0 49 -45z" />
    <glyph glyph-name="circumflex.uc" horiz-adv-x="481" 
d="M138 716h-32l96 136h77l95 -136h-31l-104 67z" />
    <glyph glyph-name="space_uni0326" horiz-adv-x="484" 
d="M186 -270l-11 33q81 26 81 78q0 19 -11 19q-3 0 -13 -6.5t-22 -6.5q-20 0 -31.5 13t-11.5 34q0 23 18.5 37.5t45.5 14.5q37 0 60 -23t23 -61q0 -52 -36 -85.5t-92 -46.5z" />
    <glyph glyph-name="caron.alt" horiz-adv-x="481" 
d="M183 499l-21 18q29 47 29 87q0 35 -26 64q7 42 44 42q21 0 35.5 -18.5t14.5 -48.5q0 -74 -76 -144z" />
    <glyph glyph-name="space_uni0326.alt" horiz-adv-x="484" 
d="M298 751l11 -33q-82 -28 -82 -78q0 -21 11 -21q4 0 14.5 7t21.5 7q44 0 44 -46q0 -22 -18.5 -36.5t-46.5 -14.5q-39 0 -62 22t-23 61q0 52 36.5 85.5t93.5 46.5z" />
    <glyph glyph-name="macron.uc" horiz-adv-x="481" 
d="M105 745v57h271v-57h-271z" />
    <glyph glyph-name="breve.uc" horiz-adv-x="481" 
d="M240 713q-59 0 -91 41.5t-36 97.5h36q14 -68 91 -68q42 0 63 17t28 51h37q-4 -54 -37 -96.5t-91 -42.5z" />
    <glyph glyph-name="dotaccent.uc" horiz-adv-x="481" 
d="M240 723q-24 0 -41.5 17t-17.5 41t17.5 41t41.5 17q26 0 43 -16.5t17 -41.5q0 -24 -17 -41t-43 -17z" />
    <glyph glyph-name="hungarumlaut.uc" horiz-adv-x="481" 
d="M306 716h-28l22 117q9 40 45 40q17 0 31.5 -11.5t14.5 -31.5q0 -16 -22 -45zM154 716h-28l23 117q9 40 45 40q17 0 31 -11.5t14 -31.5t-22 -45z" />
    <glyph glyph-name="idotaccent" horiz-adv-x="275" 
d="M19 0v43l73 4v354l-77 -10v46l166 40l9 -5v-424l68 -5v-43h-239zM140 568q-26 0 -43 17t-17 42q0 24 17 41t43 17t44 -17t18 -41q0 -25 -18 -42t-44 -17z" />
    <glyph glyph-name="eight.den" horiz-adv-x="320" 
d="M160 -10q-60 0 -100 28t-40 75q0 34 22 56.5t57 31.5q-27 9 -44.5 30t-17.5 50q0 39 34.5 66.5t88.5 27.5t88.5 -27.5t34.5 -66.5q0 -29 -17.5 -50t-44.5 -30q36 -9 57.5 -31.5t21.5 -56.5q0 -47 -40 -75t-100 -28zM160 26q29 0 44.5 19.5t15.5 50.5q0 68 -60 68t-60 -68
q0 -31 15.5 -50.5t44.5 -19.5zM160 195q48 0 48 63q0 29 -13 44.5t-35 15.5t-35 -15.5t-13 -44.5q0 -63 48 -63z" />
    <glyph glyph-name="three.den" horiz-adv-x="296" 
d="M128 -10q-57 0 -88 23t-31 59q0 22 13.5 35.5t31.5 13.5q16 0 26.5 -10t10.5 -23t-10 -22.5t-10 -11.5q0 -26 46 -26q37 0 54.5 17.5t17.5 56.5q0 61 -76 61h-29v35h28q66 0 66 71q0 48 -53 48q-15 0 -25.5 -5t-10.5 -12q0 -2 7 -10t7 -19q0 -14 -9.5 -22.5t-25.5 -8.5
q-18 0 -28.5 11.5t-10.5 29.5q0 36 33.5 55t79.5 19q55 0 86.5 -23.5t31.5 -61.5q0 -30 -23 -53t-59 -31v-3q98 -12 98 -86q0 -48 -40.5 -77.5t-107.5 -29.5z" />
    <glyph glyph-name="five.num" horiz-adv-x="286" 
d="M122 300q-50 0 -80.5 22t-30.5 56q0 21 12 33t30 12q15 0 25 -8.5t10 -22.5q0 -12 -9 -21.5t-9 -12.5q0 -8 13 -14.5t28 -6.5q71 0 71 88q0 66 -62 66q-37 0 -58 -19l-21 12v175h163l11 32h31l-11 -93h-154v-84q28 15 69 15q53 0 85 -27t32 -79q0 -60 -42 -91.5
t-103 -31.5z" />
    <glyph glyph-name="two.num" horiz-adv-x="298" 
d="M20 310l-2 47q38 30 55 43.5t44 38.5t39 41.5t21.5 38t9.5 43.5q0 65 -55 65q-20 0 -32.5 -8t-12.5 -20q0 -5 10 -16t10 -22q0 -15 -10.5 -25t-27.5 -10q-21 0 -33.5 13t-12.5 37q0 39 35 64t86 25q64 0 96 -30t32 -73q0 -28 -14.5 -53.5t-47 -52t-57 -42.5t-70.5 -44
h106q27 0 36 5t14 23l5 16h32l-11 -104h-245z" />
    <glyph glyph-name="seven.num" horiz-adv-x="268" 
d="M83 310l124 286h-84q-35 0 -47.5 -6t-19.5 -26l-10 -30h-35l20 125h240v-33l-133 -316h-55z" />
    <glyph glyph-name="registered.alt" horiz-adv-x="734" 
d="M367 -19q-134 0 -234 95.5t-100 247.5t100 249t234 97t234.5 -97t100.5 -249t-100.5 -247.5t-234.5 -95.5zM367 23q116 0 200.5 83t84.5 218t-85 219.5t-200 84.5q-116 0 -200.5 -84.5t-84.5 -219.5q0 -136 84.5 -218.5t200.5 -82.5zM208 143v38l36 4v290l-36 3v38h159
q64 0 102 -24.5t38 -72.5q0 -36 -24.5 -59t-61.5 -32v-3q34 -5 51 -23.5t24 -52.5q14 -54 23 -63q6 -5 16 -5q12 0 19 4l11 -26q-23 -21 -65 -21q-43 0 -61 25t-28 78q-6 43 -16.5 57t-37.5 14h-32v-126l41 -5v-38h-158zM359 477h-34v-130h40q33 0 45 14t12 50q0 66 -63 66z
" />
    <glyph glyph-name="dollar.old" horiz-adv-x="490" 
d="M219 -106v96q-89 4 -137 42t-48 94q0 35 17 52t42 17q23 0 37 -12.5t14 -33.5q0 -20 -17 -36.5t-17 -18.5q0 -56 109 -60v238q-87 28 -127 68t-40 116q0 78 48.5 123.5t122.5 51.5v55h40v-55q68 -4 116.5 -36t48.5 -81q0 -30 -15 -48t-39 -18q-21 0 -36.5 13t-15.5 33
q0 18 12.5 31.5t12.5 17.5q0 18 -23.5 30t-60.5 14v-218q93 -33 137 -72t44 -118q0 -88 -54 -135t-131 -54v-96h-40zM368 143q0 42 -26.5 67.5t-82.5 47.5v-223q48 6 78.5 33t30.5 75zM122 493q0 -45 22 -68t79 -43v205q-46 -5 -73.5 -30.5t-27.5 -63.5z" />
    <glyph glyph-name="Euro.old" horiz-adv-x="549" 
d="M25 342v40h64q22 115 91.5 182.5t162.5 67.5q68 0 119 -39.5t51 -99.5q0 -31 -16.5 -49t-42.5 -18q-23 0 -39.5 14t-16.5 34q0 21 15 38t15 19q0 23 -23 39t-55 16q-136 0 -159 -204h180v-40h-183q-1 -13 -1 -41v-25h184v-41h-181q16 -196 150 -196q94 0 141 109l37 -17
q-52 -149 -200 -149q-97 0 -160.5 68t-75.5 185h-57v41h55v7q0 31 3 59h-58z" />
    <glyph glyph-name="sterling.old" horiz-adv-x="508" 
d="M61 270v40h71q-27 77 -27 122q0 90 54.5 145t146.5 55q72 0 119 -37.5t47 -98.5q0 -36 -18 -55.5t-46 -19.5q-24 0 -40.5 14.5t-16.5 32.5q0 20 18.5 37.5t18.5 32.5q0 17 -22 32.5t-51 15.5q-44 0 -73 -33t-29 -91q0 -60 21 -152h154v-40h-146q11 -50 11 -99
q0 -41 -7 -68q75 -28 128 -28q40 0 58 19t27 63l33 -6q-7 -80 -35.5 -124t-90.5 -44q-64 0 -143 59q-37 -60 -110 -60q-43 0 -66.5 20.5t-23.5 55.5q0 40 25.5 60.5t65.5 20.5q27 0 75 -16q-5 48 -42 147h-86zM114 22q55 0 72 47q-40 27 -74 27q-42 0 -42 -38q0 -36 44 -36z
" />
    <glyph glyph-name="yen.old" horiz-adv-x="513" 
d="M65 299v39h135l-138 238l-43 4v41h219v-41l-65 -5l119 -212l101 198l-66 19v41h166v-41l-49 -19l-116 -223h129v-39h-142v-66h142v-39h-142v-146l73 -7v-41h-251v41l74 8v145h-146v39h146v66h-146z" />
    <glyph glyph-name="zero.old" horiz-adv-x="529" 
d="M284 34q74 0 114.5 53t40.5 149q0 94 -40.5 147t-114.5 53t-111 -52t-37 -148q0 -202 148 -202zM270 -18q-103 0 -172 73t-69 181q0 107 69.5 180t171.5 73q109 0 169 -71.5t60 -181.5q0 -112 -60 -183t-169 -71z" />
    <glyph glyph-name="one.old" horiz-adv-x="331" 
d="M30 0v43l85 5v377l-85 5v43h271v-43l-87 -5v-377l87 -5v-43h-271z" />
    <glyph glyph-name="two.old" horiz-adv-x="483" 
d="M41 0l-4 63q126 66 172 102q97 76 97 169q0 55 -25.5 81.5t-69.5 26.5q-42 0 -65 -18.5t-23 -41.5q0 -15 16.5 -33t16.5 -38q0 -19 -16 -33.5t-39 -14.5q-29 0 -46 18t-17 54q0 64 53.5 109t135.5 45q95 0 142 -41.5t47 -114.5q0 -70 -83.5 -141.5t-182.5 -110.5h170
q37 0 50 7t22 28l22 53h38l-32 -169h-379z" />
    <glyph glyph-name="three.old" horiz-adv-x="463" 
d="M191 -176q-77 0 -129.5 34.5t-52.5 93.5q0 31 18 48.5t43 17.5q24 0 39 -14t15 -35q0 -17 -8 -29t-16.5 -18t-8.5 -10q0 -17 26 -29.5t57 -12.5q74 0 109.5 34.5t35.5 116.5q0 65 -39.5 97.5t-108.5 32.5h-55v47h54q54 0 86.5 38.5t32.5 100.5q0 106 -95 106
q-28 0 -50 -10.5t-22 -22.5q0 -2 13.5 -16t13.5 -35t-15 -34.5t-37 -13.5q-25 0 -41.5 16.5t-16.5 43.5q0 53 53 85.5t118 32.5q88 0 137 -43t49 -106q0 -51 -43 -98t-100 -59v-5q85 -9 130.5 -53t45.5 -109q0 -86 -68 -139t-170 -53z" />
    <glyph glyph-name="four.old" horiz-adv-x="576" 
d="M313 -186v218h-286v24l273 477l59 3l-257 -456h211v288l101 7v-295h138v-48h-138v-218h-101z" />
    <glyph glyph-name="five.old" horiz-adv-x="464" 
d="M187 -176q-74 0 -126 34t-52 93q0 31 17.5 47.5t43.5 16.5q21 0 36.5 -13.5t15.5 -34.5t-16 -37t-16 -19q0 -17 25.5 -29t56.5 -12q66 0 104.5 42.5t38.5 128.5q0 70 -31.5 97.5t-89.5 27.5q-62 0 -96 -31l-26 11v327h268l16 69h38l-19 -157h-249v-191q43 25 102 25
q95 0 146.5 -44.5t51.5 -128.5q0 -72 -36.5 -124t-89.5 -75t-113 -23z" />
    <glyph glyph-name="six.old" horiz-adv-x="543" 
d="M277 -18q-111 0 -174 79t-63 206q0 214 118.5 339t303.5 125v-49q-139 -10 -214 -83.5t-94 -216.5q73 46 156 46q89 0 145.5 -49.5t56.5 -156.5q0 -94 -63 -167t-172 -73zM274 375q-69 0 -124 -40q-2 -13 -2 -60q0 -246 128 -246q68 0 98.5 52.5t30.5 135.5q0 78 -34 118
t-97 40z" />
    <glyph glyph-name="seven.old" horiz-adv-x="469" 
d="M225 -206q-40 0 -63.5 22.5t-23.5 59.5q0 44 39 109l199 398h-202q-45 0 -59 -8.5t-22 -40.5l-22 -62h-38l28 201h400v-27l-240 -483q-22 -42 -22 -70q0 -24 27 -24q7 0 14 2.5t10.5 5.5t9.5 8t7 6q35 -8 35 -40q0 -26 -22 -41.5t-55 -15.5z" />
    <glyph glyph-name="eight.old" horiz-adv-x="515" 
d="M258 -18q-100 0 -162 54t-62 139q0 65 39 109.5t99 59.5q-52 21 -82 62.5t-30 94.5q0 73 54 125.5t144 52.5q87 0 139.5 -52.5t52.5 -125.5q0 -55 -31 -98.5t-75 -58.5q60 -15 98.5 -59.5t38.5 -109.5q0 -84 -62 -138.5t-161 -54.5zM258 27q60 0 88.5 41t28.5 108
q0 145 -117 145t-117 -145q0 -149 117 -149zM258 363q95 0 95 138q0 62 -25 97.5t-70 35.5q-47 0 -72.5 -35.5t-25.5 -97.5q0 -66 25 -102t73 -36z" />
    <glyph glyph-name="nine.old" horiz-adv-x="542" 
d="M79 -247v47q142 11 216 78.5t93 203.5q-72 -45 -155 -45q-89 0 -146 50.5t-57 157.5q0 94 63.5 169t171.5 75q112 0 175 -81t63 -218q0 -207 -117.5 -322t-306.5 -115zM270 90q67 0 123 39q2 40 2 64q0 248 -128 248q-129 0 -129 -191q0 -78 34 -119t98 -41z" />
    <glyph glyph-name="percent.old" horiz-adv-x="674" 
d="M68 -1l498 606l32 -25l-498 -605zM173 341q32 0 49 30.5t17 81.5q0 53 -17 83t-49 30q-30 0 -47 -30.5t-17 -82.5q0 -50 17 -81t47 -31zM173 305q-59 0 -103 42.5t-44 105.5q0 64 44 107.5t103 43.5q62 0 104.5 -43.5t42.5 -107.5q0 -63 -42 -105.5t-105 -42.5zM501 26
q31 0 47.5 30.5t16.5 80.5q0 53 -16.5 83.5t-47.5 30.5q-32 0 -49 -31t-17 -83q0 -50 17.5 -80.5t48.5 -30.5zM501 -11q-60 0 -103.5 42.5t-43.5 105.5q0 64 43.5 107.5t103.5 43.5q62 0 104 -43.5t42 -107.5q0 -63 -42 -105.5t-104 -42.5z" />
    <glyph glyph-name="perthousand.old" horiz-adv-x="1006" 
d="M173 341q32 0 49 30.5t17 81.5q0 53 -17 83t-49 30q-30 0 -47 -30.5t-17 -82.5q0 -50 17 -81t47 -31zM173 305q-59 0 -103 42.5t-44 105.5q0 64 44 107.5t103 43.5q62 0 104.5 -43.5t42.5 -107.5q0 -63 -42 -105.5t-105 -42.5zM501 26q31 0 47.5 30.5t16.5 80.5
q0 53 -16.5 83.5t-47.5 30.5q-32 0 -49 -31t-17 -83q0 -50 17.5 -80.5t48.5 -30.5zM501 -11q-60 0 -103.5 42.5t-43.5 105.5q0 64 43.5 107.5t103.5 43.5q62 0 104 -43.5t42 -107.5q0 -63 -42 -105.5t-104 -42.5zM833 26q32 0 48 30.5t16 80.5q0 114 -64 114
q-30 0 -47.5 -31t-17.5 -83q0 -49 17.5 -80t47.5 -31zM833 -11q-59 0 -103 42.5t-44 105.5q0 64 44 107.5t103 43.5q62 0 104.5 -43.5t42.5 -107.5q0 -63 -42 -105.5t-105 -42.5zM68 -1l498 606l32 -25l-498 -605z" />
    <glyph glyph-name="plus.old" horiz-adv-x="460" 
d="M39 217v53h164v171h55v-171h162v-53h-162v-169h-55v169h-164z" />
    <glyph glyph-name="minus.old" horiz-adv-x="460" 
d="M39 217v52h381v-52h-381z" />
    <glyph glyph-name="multiply.old" horiz-adv-x="435" 
d="M81 60l-37 37l136 137l-136 138l37 36l136 -137l136 137l38 -36l-137 -138l137 -137l-38 -37l-136 137z" />
    <glyph glyph-name="divide.old" horiz-adv-x="460" 
d="M39 217v52h381v-52h-381zM230 23q-28 0 -45.5 18t-17.5 45q0 28 17.5 45.5t45.5 17.5q27 0 45.5 -18t18.5 -45t-18.5 -45t-45.5 -18zM230 337q-28 0 -45.5 17.5t-17.5 45.5t17.5 46t45.5 18q27 0 45.5 -18t18.5 -46q0 -27 -18.5 -45t-45.5 -18z" />
    <glyph glyph-name="equal.old" horiz-adv-x="460" 
d="M39 277v53h381v-53h-381zM39 135v53h381v-53h-381z" />
    <glyph glyph-name="less.old" horiz-adv-x="428" 
d="M384 55l-348 160v45l348 161v-60l-274 -124l274 -123v-59z" />
    <glyph glyph-name="greater.old" horiz-adv-x="428" 
d="M43 55v59l273 123l-273 124v60l348 -161v-45z" />
    <glyph glyph-name="numbersign.old" horiz-adv-x="458" 
d="M219 0l32 161h-94l-32 -161h-50l32 161h-86l17 77h84l22 108h-84l14 78h85l30 147h50l-30 -147h94l30 147h50l-30 -147h85l-14 -78h-86l-22 -108h85l-14 -77h-86l-32 -161h-50zM194 346l-22 -108h94l22 108h-94z" />
    <glyph glyph-name="dollar.lin" horiz-adv-x="518" 
d="M232 -113v102q-92 4 -143.5 45t-51.5 98q0 37 18 56t45 19q24 0 39 -13.5t15 -35.5t-18.5 -38.5t-18.5 -19.5q0 -57 115 -63v250q-91 30 -133.5 73t-42.5 124t51.5 130t128.5 55v58h43v-58q72 -4 123.5 -38t51.5 -87q0 -32 -15.5 -50.5t-40.5 -18.5q-23 0 -39.5 14
t-16.5 34t14 34t14 19q0 18 -26 30.5t-65 14.5v-229q49 -18 78.5 -32t59 -37t43 -55.5t13.5 -77.5q0 -93 -57.5 -143.5t-140.5 -57.5v-102h-43zM390 153q0 43 -28.5 70t-86.5 49v-234q51 6 83 34.5t32 80.5zM133 523q0 -47 22 -70t81 -46v213q-47 -6 -75 -32t-28 -65z" />
    <glyph glyph-name="Euro.lin" horiz-adv-x="582" 
d="M36 362v41h68q24 123 97 195t173 72q72 0 125.5 -42.5t53.5 -105.5q0 -33 -17.5 -52.5t-45.5 -19.5q-25 0 -42 15t-17 37t15.5 39.5t16.5 21.5q0 25 -24 41t-58 16q-145 0 -168 -217h188v-41h-190q-1 -15 -1 -42v-29h191v-40h-189q9 -108 47.5 -158.5t109.5 -50.5
q102 0 150 113l39 -15q-27 -77 -81 -118t-131 -41q-103 0 -170 73t-79 197h-61v40h59v8q0 33 3 63h-62z" />
    <glyph glyph-name="sterling.lin" horiz-adv-x="537" 
d="M57 288v43h74q-28 77 -28 127q0 95 58.5 153.5t155.5 58.5q76 0 125 -39.5t49 -105.5q0 -37 -18 -58t-48 -21q-26 0 -43.5 14.5t-17.5 35.5t20 40t20 34q0 17 -23.5 34t-54.5 17q-46 0 -75 -35.5t-29 -95.5q0 -51 19 -159h162v-43h-154q11 -55 11 -108q0 -33 -7 -70
q80 -28 135 -28q43 0 62.5 19t28.5 64l34 -6q-7 -84 -37 -130.5t-95 -46.5q-69 0 -152 63q-40 -64 -117 -64q-46 0 -71 22t-25 59q0 41 27 63t70 22q34 0 79 -15q-5 50 -45 156h-90zM114 24q57 0 74 50q-42 28 -77 28q-46 0 -46 -40q0 -38 49 -38z" />
    <glyph glyph-name="yen.lin" horiz-adv-x="542" 
d="M68 316v43h140l-144 251l-44 4v45h234v-45l-69 -5l125 -223l107 208l-71 20v45h175v-45l-52 -20l-122 -235h138v-43h-151v-69h151v-43h-151v-153l78 -7v-44h-268v44l80 8v152h-156v43h156v69h-156z" />
    <glyph glyph-name="zero.lin" horiz-adv-x="592" 
d="M296 31q143 0 143 293q0 296 -143 296t-143 -296q0 -293 143 -293zM296 -19q-106 0 -184.5 95.5t-78.5 247.5q0 153 78.5 249.5t184.5 96.5q105 0 183.5 -96.5t78.5 -249.5q0 -152 -78.5 -247.5t-183.5 -95.5z" />
    <glyph glyph-name="one.lin" horiz-adv-x="362" 
d="M24 499v49l183 122h39v-618l92 -8v-44h-302v44l99 9v501z" />
    <glyph glyph-name="two.lin" horiz-adv-x="487" 
d="M26 0l-6 66q25 23 70 63t67 60.5t55.5 54t50 56.5t35 53.5t25.5 61t7 63.5q0 71 -29 106.5t-81 35.5q-45 0 -70.5 -18t-25.5 -42q0 -15 19.5 -34t19.5 -39t-18 -35t-41 -15q-69 0 -69 77q0 64 58 110t140 46q105 0 161 -56.5t56 -136.5q0 -27 -7 -52.5t-25.5 -54
t-32.5 -48.5t-48 -51t-49.5 -45.5t-60.5 -48t-58 -43t-62 -44.5h228q36 0 48.5 7t18.5 25l13 55h38l-21 -177h-406z" />
    <glyph glyph-name="three.lin" horiz-adv-x="498" 
d="M220 -19q-91 0 -145 41.5t-54 107.5q0 32 18.5 49.5t43.5 17.5t40.5 -13.5t15.5 -36.5t-18 -39t-18 -19q0 -20 28 -39t71 -19q74 0 109.5 36.5t35.5 121.5q0 65 -39 97.5t-110 32.5h-52v49h51q59 0 93 36t34 109q0 53 -27.5 80t-76.5 27q-31 0 -54.5 -10t-23.5 -20
q0 -3 15 -18.5t15 -35.5t-15.5 -34.5t-38.5 -14.5q-26 0 -43 17t-17 45q0 55 55 88t122 33q93 0 146 -43t53 -109q0 -59 -44 -104.5t-106 -60.5v-4q91 -11 136.5 -55.5t45.5 -113.5q0 -87 -71 -143t-175 -56z" />
    <glyph glyph-name="four.lin" horiz-adv-x="535" 
d="M221 0v44l81 8v142h-275v26l163 290q23 38 23 62q0 26 -21 26q-22 0 -28 -25q-36 7 -36 48q0 23 21.5 39.5t49.5 16.5q36 0 54.5 -20t18.5 -51q0 -41 -46 -120l-131 -244h207v222l109 13v-235h100v-48h-100v-142l77 -8v-44h-267z" />
    <glyph glyph-name="five.lin" horiz-adv-x="486" 
d="M205 -19q-80 0 -131 36t-51 101q0 31 18.5 49t45.5 18q21 0 37.5 -14t16.5 -36q0 -23 -18.5 -40.5t-18.5 -21.5q0 -18 24 -30t62 -12q68 0 107.5 46.5t39.5 137.5q0 82 -34 113t-94 31q-58 0 -103 -36l-26 13v323h286l15 48h36l-17 -140h-266v-181q51 28 109 28
q99 0 155.5 -49.5t56.5 -145.5q0 -111 -75 -174.5t-175 -63.5z" />
    </font>
</defs>
</svg>
