<?xml version="1.0" standalone="no"?>
<!DOCTYPE svg PUBLIC "-//W3C//DTD SVG 1.1//EN" "http://www.w3.org/Graphics/SVG/1.1/DTD/svg11.dtd" >
<svg xmlns="http://www.w3.org/2000/svg" xmlns:xlink="http://www.w3.org/1999/xlink" version="1.1">
<metadata>
Created by FontForge 20170731 at Fri Feb 14 00:57:50 2014
 By Aleksey,,,
Copyright (c) 2014 by Commercial Type, Inc.. All rights reserved.
</metadata>
<defs>
<font id="CaponiText-Italic" horiz-adv-x="630" >
  <font-face 
    font-family="CaponiText"
    font-weight="400"
    font-style="italic"
    font-variant="small-caps"
    font-stretch="normal"
    units-per-em="1000"
    panose-1="0 0 0 0 0 0 0 0 0 0"
    ascent="764"
    descent="-236"
    x-height="473"
    cap-height="659"
    bbox="-227 -266 1049 1108"
    underline-thickness="47"
    underline-position="81"
    unicode-range="U+000D-FB04"
  />
<missing-glyph horiz-adv-x="200" 
 />
    <glyph glyph-name="f_b" unicode="fb" horiz-adv-x="787" 
d="M64 464h104q90 254 260 254q66 0 95 -29l59 20l6 -2l-106 -328h1q96 101 174 101q50 0 78.5 -37t28.5 -100q0 -81 -39.5 -163.5t-113 -140t-158.5 -57.5q-61 0 -96.5 33t-35.5 83q0 53 21 114l122 378q10 29 10 48q0 36 -57 36q-61 0 -99 -58q-31 -47 -63 -152h115
l-12 -44h-115q-1 -4 -5 -19t-6 -23q-76 -273 -106 -357q-79 -215 -177 -257q-28 -12 -59 -12q-37 0 -64.5 19.5t-27.5 56.5q0 24 16.5 40.5t39.5 16.5q25 0 38 -13q-12 -29 -12 -54q0 -23 20 -23q33 0 56 29q19 22 38.5 61t33 75.5t31.5 99.5t27 97t26 105.5t22 90.5l19 67
h-99zM603 416q-29 0 -66.5 -23t-67.5 -57l-52 -155q-15 -51 -15 -84t15.5 -52.5t45.5 -19.5q59 0 108.5 52t75 121.5t25.5 132.5q0 45 -16.5 65t-52.5 20z" />
    <glyph glyph-name="f_f_b" unicode="ffb" horiz-adv-x="1040" 
d="M64 464h105q89 231 242 231q84 0 111 -50q67 73 159 73q64 0 96 -29l58 20l6 -2l-105 -328h2q94 101 172 101q50 0 78.5 -37t28.5 -100q0 -81 -39.5 -163.5t-113 -140t-158.5 -57.5q-61 0 -95.5 33t-34.5 83q0 56 20 114l122 378q9 26 9 48q0 36 -55 36q-62 0 -101 -58
q-34 -52 -61 -152h115l-13 -44h-114q-1 -4 -5 -19t-6 -23q-11 -40 -30 -109.5t-30 -110t-30 -99t-34.5 -93t-39.5 -75t-49 -62t-59 -36.5t-73 -15q-44 0 -72 17.5t-30 49.5q-65 -93 -150 -93q-37 0 -64.5 19.5t-27.5 56.5q0 24 16.5 40.5t39.5 16.5q25 0 38 -13
q-12 -29 -12 -54q0 -23 20 -23q30 0 56 30q23 26 44 68t41 106.5t32 109t33 130t28 114.5l19 67h-99zM387 353q6 27 18 67h-162q-1 -4 -5 -19t-6 -23q-4 -14 -17 -61t-17.5 -63t-16.5 -56.5t-17.5 -58.5t-16 -52t-18 -53.5t-17 -45.5t-19 -46.5t-19.5 -39.5q10 2 16 2
q24 0 37 -13q-10 -13 -10 -31q0 -39 45 -39q66 0 109 113q11 30 22.5 65.5t24.5 84t21.5 81t24.5 97t23 91.5zM858 416q-29 0 -67 -23t-69 -57l-50 -155q-16 -39 -16 -84q0 -72 60 -72q59 0 108.5 52t75 121.5t25.5 132.5q0 85 -67 85zM256 464h164q19 52 35 84
q-17 5 -26 15q17 39 17 60q0 29 -44 29q-52 0 -89 -52q-29 -40 -57 -136z" />
    <glyph glyph-name="f_f_h" unicode="ffh" horiz-adv-x="1062" 
d="M64 464h105q89 231 242 231q84 0 111 -50q70 73 159 73q64 0 96 -29l58 20l6 -2l-106 -334h2q31 32 77 72q42 35 93 35q47 0 68.5 -25.5t21.5 -64.5q0 -22 -15 -70l-79 -230q-9 -23 -9 -38q0 -18 18 -18q39 0 96 57l24 -19q-31 -40 -72 -65t-84 -25q-34 0 -52.5 15.5
t-18.5 40.5q0 29 25 93l67 195q10 32 10 50q0 39 -43 39q-59 0 -142 -83l-106 -332h-87l189 590q9 26 9 48q0 36 -55 36q-62 0 -101 -58q-34 -52 -61 -152h115l-13 -44h-114q-1 -4 -5 -19t-6 -23q-11 -40 -30 -109.5t-30 -110t-30 -99t-34.5 -93t-39.5 -75t-49 -62
t-59 -36.5t-73 -15q-44 0 -72 17.5t-30 49.5q-65 -93 -150 -93q-37 0 -64.5 19.5t-27.5 56.5q0 24 16.5 40.5t39.5 16.5q25 0 38 -13q-12 -29 -12 -54q0 -23 20 -23q30 0 56 30q23 26 44 68t41 106.5t32 109t33 130t28 114.5l19 67h-99zM387 353q6 27 18 67h-162
q-1 -4 -5 -19t-6 -23q-80 -288 -118 -385q-20 -52 -41 -92q9 3 18 3q23 0 36 -13q-10 -13 -10 -31q0 -39 45 -39q66 0 109 113q11 30 22.5 65.5t24.5 84t21.5 81t24.5 97t23 91.5zM256 464h164q23 61 36 84q-16 3 -27 15q17 39 17 60q0 29 -44 29q-52 0 -89 -52
q-29 -40 -57 -136z" />
    <glyph glyph-name="f_f_j" unicode="ffj" horiz-adv-x="777" 
d="M64 464h105q89 231 242 231q77 0 108 -46q62 65 145 65q53 0 85 -25t32 -65q0 -24 -16 -42t-44 -18q-30 0 -45 17q17 39 17 60q0 30 -41 30q-44 0 -73 -37q-36 -47 -69 -170h111q88 0 139 9l8 -4l-142 -431q-15 -44 -29 -79.5t-36 -76t-44.5 -67.5t-54 -45t-65.5 -18
q-39 0 -66 19.5t-27 53.5q0 23 17 41t40 18q24 0 39 -15q-12 -36 -12 -54q0 -20 21 -20q33 0 60.5 45.5t61.5 154.5l133 425h-166l-11 -42q-11 -40 -30 -109.5t-30 -110t-30 -99t-34.5 -93t-39.5 -75t-49 -62t-59 -36.5t-73 -15q-44 0 -72 17.5t-30 49.5q-65 -93 -150 -93
q-37 0 -64.5 19.5t-27.5 56.5q0 24 16.5 40.5t39.5 16.5q25 0 38 -13q-12 -29 -12 -54q0 -23 20 -23q30 0 56 30q23 26 44 68t41 106.5t32 109t33 130t28 114.5l19 67h-99zM387 353q6 27 18 67h-162q-1 -4 -5 -19t-6 -23q-80 -288 -118 -385q-20 -52 -41 -92q9 3 18 3
q23 0 36 -13q-10 -13 -10 -31q0 -39 45 -39q66 0 109 113q11 30 22.5 65.5t24.5 84t21.5 81t24.5 97t23 91.5zM313 600q-29 -40 -57 -136h163q25 67 33 84q-15 4 -23 15q17 39 17 60q0 29 -44 29q-52 0 -89 -52z" />
    <glyph glyph-name="f_f_k" unicode="ffk" horiz-adv-x="1030" 
d="M64 464h105q89 231 242 231q84 0 111 -50q70 73 159 73q64 0 96 -29l58 20l6 -2l-134 -421h27q40 0 63.5 19.5t52.5 73.5q28 53 55 77t67 24q31 0 50.5 -16.5t19.5 -41.5q0 -19 -14 -31t-30 -12t-21.5 4.5t-8.5 16.5q0 1 -2.5 8t-3.5 9.5t-5 5.5t-9 3q-15 0 -28.5 -16
t-33.5 -52q-22 -40 -41.5 -59.5t-55.5 -30.5v-4q67 -23 67 -86q1 -7 1 -16v-17.5v-16.5t-0.5 -15t-1 -12t-0.5 -9v-3q0 -54 36 -54q39 0 82 65l27 -17q-61 -101 -140 -101q-43 0 -66 29t-23 78q0 28 2 62.5t2 48.5q0 25 -10.5 33.5t-34.5 8.5h-37l-77 -242h-87l189 590
q9 26 9 48q0 36 -55 36q-62 0 -101 -58q-34 -52 -61 -152h115l-13 -44h-114q-1 -4 -5 -19t-6 -23q-11 -40 -30 -109.5t-30 -110t-30 -99t-34.5 -93t-39.5 -75t-49 -62t-59 -36.5t-73 -15q-44 0 -72 17.5t-30 49.5q-65 -93 -150 -93q-37 0 -64.5 19.5t-27.5 56.5
q0 24 16.5 40.5t39.5 16.5q25 0 38 -13q-12 -29 -12 -54q0 -23 20 -23q30 0 56 30q23 26 44 68t41 106.5t32 109t33 130t28 114.5l19 67h-99zM387 353q6 27 18 67h-162q-1 -4 -5 -19t-6 -23q-4 -14 -17 -61t-17.5 -63t-16.5 -56.5t-17.5 -58.5t-16 -52t-18 -53.5t-17 -45.5
t-19 -46.5t-19.5 -39.5q10 2 16 2q24 0 37 -13q-10 -13 -10 -31q0 -39 45 -39q66 0 109 113q11 30 22.5 65.5t24.5 84t21.5 81t24.5 97t23 91.5zM256 464h164q15 45 36 84q-16 3 -27 15q17 39 17 60q0 29 -44 29q-52 0 -89 -52q-29 -40 -57 -136z" />
    <glyph glyph-name="f_h" unicode="fh" horiz-adv-x="807" 
d="M64 464h104q90 254 260 254q66 0 95 -29l59 20l6 -2l-107 -334h3q29 32 77 72q42 35 91 35q48 0 70 -25.5t22 -64.5q0 -33 -16 -70l-78 -230q-11 -29 -11 -38q0 -18 19 -18q42 0 95 57l24 -19q-69 -90 -155 -90q-34 0 -52 15.5t-18 40.5q0 27 24 93l67 195q11 25 11 50
q0 39 -44 39q-60 0 -141 -83l-106 -332h-87l188 590q10 29 10 48q0 36 -57 36q-61 0 -99 -58q-31 -47 -63 -152h115l-12 -44h-115q-1 -4 -5 -19t-6 -23q-76 -273 -106 -357q-79 -215 -177 -257q-28 -12 -59 -12q-37 0 -64.5 19.5t-27.5 56.5q0 24 16.5 40.5t39.5 16.5
q25 0 38 -13q-12 -29 -12 -54q0 -23 20 -23q33 0 56 29q19 22 38.5 61t33 75.5t31.5 99.5t27 97t26 105.5t22 90.5l19 67h-99z" />
    <glyph glyph-name="f_j" unicode="fj" horiz-adv-x="522" 
d="M156 -205q32 0 59.5 45.5t61.5 154.5l133 425h-167l-11 -42q-76 -276 -109 -365q-80 -213 -180 -251q-26 -10 -53 -10q-37 0 -64.5 19.5t-27.5 56.5q0 24 16.5 40.5t39.5 16.5q25 0 38 -13q-12 -29 -12 -54q0 -23 20 -23q33 0 56 29q19 22 38.5 61t33 75.5t31.5 99.5
t27 97t26 105.5t22 90.5q6 27 18 67h-98l10 44h102q41 117 98.5 183.5t146.5 66.5q53 0 85 -25t32 -65q0 -24 -17 -42t-45 -18q-27 0 -44 17q18 41 18 60q0 30 -42 30q-46 0 -73 -37q-37 -46 -70 -170h112q87 0 140 9l7 -4l-141 -431q-95 -286 -229 -286q-40 0 -66 19
t-26 54q0 24 16 40.5t40 16.5q25 0 39 -14q-13 -29 -13 -53q0 -20 22 -20z" />
    <glyph glyph-name="f_k" unicode="fk" horiz-adv-x="777" 
d="M64 464h104q90 254 260 254q66 0 95 -29l59 20l6 -2l-134 -421h27q40 0 63.5 20t52.5 73q28 53 55 77t66 24q32 0 51.5 -16.5t19.5 -41.5q0 -19 -14 -31t-30 -12t-22 4.5t-9 16.5q0 1 -2.5 8t-3.5 9.5t-5 5.5t-9 3q-15 0 -28 -15.5t-33 -52.5q-23 -40 -42.5 -60
t-54.5 -30v-4q67 -23 67 -86q0 -15 -0.5 -37.5t-0.5 -36.5v-15q0 -28 8 -41t28 -13q39 0 82 65l27 -17q-61 -101 -141 -101q-42 0 -65 29t-23 78q0 28 2 62.5t2 48.5q0 25 -11 33.5t-34 8.5h-37l-77 -242h-87l188 590q10 29 10 48q0 36 -57 36q-61 0 -99 -58
q-31 -47 -63 -152h115l-12 -44h-115q-1 -4 -5 -19t-6 -23q-76 -273 -106 -357q-79 -215 -177 -257q-28 -12 -59 -12q-37 0 -64.5 19.5t-27.5 56.5q0 24 16.5 40.5t39.5 16.5q25 0 38 -13q-12 -29 -12 -54q0 -23 20 -23q33 0 56 29q19 22 38.5 61t33 75.5t31.5 99.5t27 97
t26 105.5t22 90.5l19 67h-99z" />
    <glyph glyph-name="f_f" unicode="ff" horiz-adv-x="599" 
d="M64 464h105q89 231 242 231q77 0 108 -46q63 65 144 65q53 0 85 -25t32 -65q0 -24 -17 -42t-45 -18q-27 0 -44 17q18 41 18 60q0 30 -41 30q-44 0 -72 -36q-37 -47 -69 -171h134l-13 -44h-133l-11 -42q-11 -40 -30 -109.5t-30 -110t-30 -99t-34.5 -93t-39.5 -75t-49 -62
t-59 -36.5t-73 -15q-44 0 -72 17.5t-30 49.5q-65 -93 -150 -93q-37 0 -64.5 19.5t-27.5 56.5q0 24 16.5 40.5t39.5 16.5q25 0 38 -13q-12 -29 -12 -54q0 -23 20 -23q30 0 56 30q23 26 44 68t41 106.5t32 109t33 130t28 114.5l19 67h-99zM387 353q6 27 18 67h-162
q-1 -4 -5 -19t-6 -23q-80 -288 -118 -385q-20 -52 -41 -92q9 3 18 3q23 0 36 -13q-10 -13 -10 -31q0 -39 45 -39q66 0 109 113q11 30 22.5 65.5t24.5 84t21.5 81t24.5 97t23 91.5zM313 600q-29 -40 -57 -136h163q24 63 34 84q-17 4 -24 15q17 39 17 60q0 29 -44 29
q-52 0 -89 -52z" />
    <glyph glyph-name="f_i" unicode="fi" horiz-adv-x="557" 
d="M64 464h102q41 117 98.5 183.5t146.5 66.5q53 0 85 -25t32 -65q0 -24 -17 -42t-45 -18q-27 0 -44 17q18 41 18 60q0 30 -42 30q-46 0 -73 -37q-37 -46 -70 -170h111q88 0 141 9l7 -4l-122 -379q-11 -29 -11 -38q0 -18 19 -18q41 0 99 58l23 -20q-74 -90 -158 -90
q-34 0 -52 15.5t-18 40.5q0 29 24 95l92 287h-167l-11 -42q-76 -276 -109 -365q-80 -213 -180 -251q-26 -10 -53 -10q-37 0 -64.5 19.5t-27.5 56.5q0 24 16.5 40.5t39.5 16.5q25 0 38 -13q-12 -29 -12 -54q0 -23 20 -23q33 0 56 29q19 22 38.5 61t33 75.5t31.5 99.5t27 97
t26 105.5t22 90.5q6 27 18 67h-98z" />
    <glyph glyph-name="f_l" unicode="fl" horiz-adv-x="558" 
d="M64 464h104q90 254 260 254q66 0 95 -29l59 20l6 -2l-196 -617q-10 -26 -10 -38q0 -18 18 -18q42 0 100 60l23 -21q-74 -91 -159 -91q-34 0 -52 15.5t-18 40.5q0 17 24 95l91 287h-166q-1 -4 -5 -19t-6 -23q-76 -273 -106 -357q-79 -215 -177 -257q-28 -12 -59 -12
q-37 0 -64.5 19.5t-27.5 56.5q0 24 16.5 40.5t39.5 16.5q25 0 38 -13q-12 -29 -12 -54q0 -23 20 -23q33 0 56 29q19 22 38.5 61t33 75.5t31.5 99.5t27 97t26 105.5t22 90.5l19 67h-99zM318 616q-31 -47 -63 -152h168l41 126q10 33 10 48q0 36 -57 36q-61 0 -99 -58z" />
    <glyph glyph-name="f_f_i" unicode="ffi" horiz-adv-x="812" 
d="M64 464h105q89 231 242 231q77 0 108 -46q63 65 145 65q53 0 85 -25t32 -65q0 -24 -16 -42t-44 -18q-30 0 -45 17q17 39 17 60q0 30 -41 30q-44 0 -73 -37q-36 -47 -69 -170h110q89 0 140 9l8 -4l-123 -379q-1 -5 -3.5 -13.5t-4 -15t-1.5 -9.5q0 -18 18 -18q44 0 98 58
l23 -20q-74 -90 -157 -90q-34 0 -52.5 15.5t-18.5 40.5q0 29 24 95l93 287h-166l-11 -42q-11 -40 -30 -109.5t-30 -110t-30 -99t-34.5 -93t-39.5 -75t-49 -62t-59 -36.5t-73 -15q-44 0 -72 17.5t-30 49.5q-65 -93 -150 -93q-37 0 -64.5 19.5t-27.5 56.5q0 24 16.5 40.5
t39.5 16.5q25 0 38 -13q-12 -29 -12 -54q0 -23 20 -23q30 0 56 30q23 26 44 68t41 106.5t32 109t33 130t28 114.5l19 67h-99zM387 353q6 27 18 67h-162q-1 -4 -5 -19t-6 -23q-4 -14 -17 -61t-17.5 -63t-16.5 -56.5t-17.5 -58.5t-16 -52t-18 -53.5t-17 -45.5t-19 -46.5
t-19.5 -39.5q10 2 16 2q24 0 37 -13q-10 -13 -10 -31q0 -39 45 -39q66 0 109 113q11 30 22.5 65.5t24.5 84t21.5 81t24.5 97t23 91.5zM313 600q-29 -40 -57 -136h163q24 63 34 84q-17 4 -24 15q17 39 17 60q0 29 -44 29q-52 0 -89 -52z" />
    <glyph glyph-name="f_f_l" unicode="ffl" horiz-adv-x="811" 
d="M64 464h105q89 231 242 231q84 0 111 -50q70 73 159 73q64 0 96 -29l58 20l6 -2l-196 -617q-1 -5 -3.5 -13.5t-4 -15t-1.5 -9.5q0 -18 18 -18q43 0 99 60l23 -21q-74 -91 -158 -91q-34 0 -52.5 15.5t-18.5 40.5q0 17 24 95l92 287h-165q-1 -4 -5 -19t-6 -23
q-11 -40 -30 -109.5t-30 -110t-30 -99t-34.5 -93t-39.5 -75t-49 -62t-59 -36.5t-73 -15q-44 0 -72 17.5t-30 49.5q-65 -93 -150 -93q-37 0 -64.5 19.5t-27.5 56.5q0 24 16.5 40.5t39.5 16.5q25 0 38 -13q-12 -29 -12 -54q0 -23 20 -23q30 0 56 30q23 26 44 68t41 106.5
t32 109t33 130t28 114.5l19 67h-99zM387 353q6 27 18 67h-162q-1 -4 -5 -19t-6 -23q-80 -288 -118 -385q-20 -52 -41 -92q9 3 18 3q23 0 36 -13q-10 -13 -10 -31q0 -39 45 -39q66 0 109 113q11 30 22.5 65.5t24.5 84t21.5 81t24.5 97t23 91.5zM571 616q-34 -52 -61 -152h167
l41 126q9 26 9 48q0 36 -55 36q-62 0 -101 -58zM256 464h164q15 45 36 84q-16 3 -27 15q17 39 17 60q0 29 -44 29q-52 0 -89 -52q-29 -40 -57 -136z" />
    <glyph glyph-name=".notdef" horiz-adv-x="200" 
 />
    <glyph glyph-name=".null" horiz-adv-x="0" 
 />
    <glyph glyph-name="nonmarkingreturn" horiz-adv-x="333" 
 />
    <glyph glyph-name="NULL" horiz-adv-x="0" 
 />
    <glyph glyph-name="NULL" horiz-adv-x="0" 
 />
    <glyph glyph-name="CR" unicode="&#xd;" horiz-adv-x="200" 
 />
    <glyph glyph-name="space" unicode=" " horiz-adv-x="200" 
 />
    <glyph glyph-name="exclam" unicode="!" horiz-adv-x="233" 
d="M111 200h-32l86 407q5 31 22 47.5t42 16.5q35 0 48 -26.5t-4 -61.5zM63 -17q-26 0 -43.5 18t-17.5 45q0 26 17 43.5t43 17.5q28 0 46 -17.5t18 -43.5q0 -27 -18 -45t-45 -18z" />
    <glyph glyph-name="quotedbl" unicode="&#x22;" horiz-adv-x="332" 
d="M166 431h-24l18 180q7 68 59 68q33 0 43 -26.5t-9 -58.5zM316 431h-25l18 180q7 68 60 68q33 0 42.5 -26t-9.5 -59z" />
    <glyph glyph-name="numbersign" unicode="#" horiz-adv-x="461" 
d="M172 0l73 189h-94l-72 -189h-49l73 189h-86l25 71h88l44 113h-88l27 71h88l67 174h48l-67 -174h94l68 174h48l-67 -174h85l-27 -71h-85l-44 -113h86l-27 -71h-86l-72 -189h-50zM222 373l-44 -113h94l44 113h-94z" />
    <glyph glyph-name="dollar" unicode="$" horiz-adv-x="488" 
d="M301 652q18 0 36 -3l18 59h40l-21 -68q50 -16 80 -49.5t30 -77.5q0 -31 -15 -48t-38 -17q-21 0 -35.5 12.5t-14.5 32.5q0 19 14.5 33t14.5 17q0 37 -49 54l-70 -231q67 -54 96 -95t29 -101q0 -74 -56 -128t-151 -54q-15 0 -39 2l-30 -100h-41l33 108q-62 17 -95 57.5
t-33 94.5q0 36 18 54.5t43 18.5q23 0 36 -13t13 -35q0 -21 -20 -39t-20 -20q0 -59 71 -76l79 258q-63 50 -89 90t-26 93q0 74 56.5 122.5t135.5 48.5zM333 140q0 39 -17.5 67.5t-58.5 63.5l-73 -237q8 -1 25 -1q57 0 90.5 32.5t33.5 74.5zM188 514q0 -34 16 -60.5t54 -60.5
l66 213q-14 2 -20 2q-51 0 -83.5 -26t-32.5 -68z" />
    <glyph glyph-name="percent" unicode="%" horiz-adv-x="695" 
d="M205 348q33 0 59.5 33t39 75t12.5 79q0 66 -47 66q-48 0 -80 -64t-32 -124q0 -65 48 -65zM204 311q-54 0 -85.5 35.5t-31.5 93.5q0 76 57.5 137.5t126.5 61.5q52 0 83 -36.5t31 -93.5q0 -75 -55.5 -136.5t-125.5 -61.5zM74 -37l-27 26l604 658l29 -27zM476 29q33 0 60 33
t39.5 75t12.5 79q0 66 -47 66q-33 0 -60 -33.5t-39.5 -75.5t-12.5 -79q0 -65 47 -65zM474 -8q-53 0 -84 35.5t-31 93.5q0 76 57 137.5t126 61.5q52 0 83 -36.5t31 -92.5q0 -75 -56 -137t-126 -62z" />
    <glyph glyph-name="ampersand" unicode="&#x26;" horiz-adv-x="694" 
d="M585 347q-12 0 -23.5 -8.5t-24.5 -27.5t-24.5 -38.5t-31 -51.5t-34.5 -56q29 -72 51 -98t61 -26q14 0 28.5 4t22 8t9.5 6l11 -29q-57 -42 -110 -46q-50 0 -79.5 22.5t-56.5 76.5q-95 -100 -196 -100q-80 0 -132 52t-50 123q0 45 19 81.5t55.5 63.5t70.5 44.5t82 36.5
q-39 65 -39 127q0 69 50 114t116 45q60 0 96.5 -31.5t36.5 -85.5q0 -101 -160 -161q48 -74 99 -190q17 28 37.5 66.5t33.5 62.5t30 47.5t37 35t46 11.5q27 0 45 -15.5t18 -41.5q0 -25 -18.5 -41t-47.5 -14q-3 12 -5.5 18t-8 11t-14.5 5zM368 117q-80 178 -121 245
q-69 -34 -106.5 -77t-37.5 -110q0 -55 34.5 -93.5t85.5 -38.5q81 0 145 74zM276 536q0 -50 43 -122q109 55 109 138q0 73 -67 73q-36 0 -60.5 -25t-24.5 -64z" />
    <glyph glyph-name="quotesingle" unicode="'" horiz-adv-x="182" 
d="M166 431h-24l18 180q7 68 59 68q33 0 43 -26.5t-9 -58.5z" />
    <glyph glyph-name="parenleft" unicode="(" horiz-adv-x="350" 
d="M435 761l21 -27q-63 -51 -118.5 -114t-104.5 -141t-77.5 -172t-28.5 -190q0 -155 61 -289l-34 -16q-102 175 -102 332q0 97 32.5 190t89 170.5t120.5 139.5t141 117z" />
    <glyph glyph-name="parenright" unicode=")" horiz-adv-x="350" 
d="M-67 -188l-21 27q63 51 118.5 114t104.5 141t77.5 172t28.5 190q0 155 -61 289l34 16q102 -173 102 -332q0 -97 -32.5 -190t-89.5 -170.5t-120.5 -139t-140.5 -117.5z" />
    <glyph glyph-name="asterisk" unicode="*" horiz-adv-x="354" 
d="M146 606l88 -47l37 100h31l-8 -112l103 7l6 -31l-105 -33l40 -105l-28 -14l-66 96l-99 -65l-18 24l79 83l-79 72z" />
    <glyph glyph-name="plus" unicode="+" horiz-adv-x="459" 
d="M49 262v51h164v170h52v-170h163v-51h-163v-169h-52v169h-164z" />
    <glyph glyph-name="comma" unicode="," horiz-adv-x="282" 
d="M-15 -185l-7 29q166 40 166 137q0 26 -15 26q-2 0 -15.5 -9.5t-29.5 -9.5q-24 0 -37 15.5t-13 40.5q0 27 21 46t53 19q43 0 67.5 -28t24.5 -76q0 -76 -58 -123.5t-157 -66.5z" />
    <glyph glyph-name="hyphen" unicode="-" horiz-adv-x="318" 
d="M61 217l23 72h194l-24 -72h-193z" />
    <glyph glyph-name="period" unicode="." horiz-adv-x="232" 
d="M88 -17q-27 0 -44.5 18t-17.5 45q0 26 17 43.5t43 17.5q28 0 46 -17.5t18 -43.5q0 -27 -18 -45t-44 -18z" />
    <glyph glyph-name="slash" unicode="/" horiz-adv-x="335" 
d="M-125 -181l528 902h55l-528 -902h-55z" />
    <glyph glyph-name="zero" unicode="0" horiz-adv-x="551" 
d="M222 26q62 0 114.5 61t80 148t27.5 172q0 63 -25.5 98t-75.5 36q-61 0 -113.5 -63t-80 -151t-27.5 -170q0 -131 100 -131zM220 -18q-85 0 -136.5 63.5t-51.5 157.5q0 86 39 173t113 148t162 61q86 0 137 -62t51 -162q0 -63 -24 -130t-64.5 -122.5t-100.5 -91t-125 -35.5z
" />
    <glyph glyph-name="one" unicode="1" horiz-adv-x="337" 
d="M84 436l-11 34l219 115h38l-166 -538l91 -7l-12 -40h-275l12 40l93 7l134 440z" />
    <glyph glyph-name="two" unicode="2" horiz-adv-x="460" 
d="M-36 0l16 59q22 14 65 41t67 42.5t61.5 41.5t59 45t47.5 46t40 51.5t23.5 54.5t9.5 61q0 99 -99 99q-35 0 -66.5 -19t-31.5 -51q0 -9 13 -28.5t13 -32.5q0 -21 -15.5 -35t-39.5 -14t-39.5 17.5t-15.5 46.5q0 64 58 112t137 48q82 0 132 -41.5t50 -114.5q0 -52 -36 -105
t-99.5 -100.5t-116 -79t-120.5 -66.5h161q56 0 75 7.5t36 31.5l33 51h35l-72 -168h-381z" />
    <glyph glyph-name="three" unicode="3" horiz-adv-x="454" 
d="M122 -88q-72 0 -117 34t-45 86q0 34 18.5 56t48.5 22q22 0 35.5 -12.5t13.5 -31.5q0 -16 -11 -28t-22.5 -21t-11.5 -16q0 -18 24 -31t62 -13q79 0 126.5 53t47.5 132q0 103 -112 103h-58l14 46h44q66 0 113.5 46.5t47.5 119.5q0 40 -22.5 62t-64.5 22q-29 0 -54 -12
t-25 -25q1 -2 11.5 -16t10.5 -28q0 -21 -13 -34.5t-36 -13.5t-37.5 14.5t-14.5 37.5q0 51 50.5 86.5t116.5 35.5q81 0 124 -38.5t43 -98.5q0 -65 -50 -112t-120 -64v-3q59 -12 93.5 -48.5t34.5 -91.5q0 -90 -79.5 -154t-185.5 -64z" />
    <glyph glyph-name="four" unicode="4" horiz-adv-x="525" 
d="M200 -84l63 204h-270l6 22l379 459l58 1l-365 -439h205l80 265l94 9l-84 -274h116l-13 -43h-116l-63 -204h-90z" />
    <glyph glyph-name="five" unicode="5" horiz-adv-x="450" 
d="M108 -79q-65 0 -104 31.5t-39 80.5q0 34 20 57t50 23q20 0 33 -12.5t13 -31.5q0 -16 -10.5 -28.5t-21.5 -21.5t-12 -16q0 -15 18.5 -26t49.5 -11q82 0 136 63t54 157q0 98 -93 98q-63 0 -112 -37l-18 14l95 312h195q30 0 42.5 6.5t24.5 24.5l12 21l31 -2l-21 -58
q-16 -42 -39.5 -57.5t-74.5 -15.5h-146l-56 -184q46 25 101 25q73 0 115.5 -38.5t42.5 -108.5q0 -106 -86.5 -185.5t-199.5 -79.5z" />
    <glyph glyph-name="six" unicode="6" horiz-adv-x="504" 
d="M225 -18q-87 0 -138 58t-51 152q0 204 150.5 348.5t389.5 154.5l-13 -47q-160 -9 -264.5 -96t-145.5 -218q80 65 158 65q74 0 117.5 -41t43.5 -114q0 -102 -72 -182t-175 -80zM285 349q-70 0 -143 -56q-14 -52 -14 -125q0 -141 101 -141q65 0 107 65.5t42 148.5
q0 50 -23 79t-70 29z" />
    <glyph glyph-name="seven" unicode="7" horiz-adv-x="450" 
d="M156 -98q-35 0 -56 18.5t-21 51.5q0 20 10.5 43.5t18.5 35t32 44.5l288 398h-183q-57 0 -75.5 -7.5t-36.5 -38.5l-34 -61h-34l73 191h388l-7 -24l-341 -479q-38 -51 -38 -76q0 -22 25 -22q15 0 36 17q24 -8 24 -34t-19.5 -41t-49.5 -16z" />
    <glyph glyph-name="eight" unicode="8" horiz-adv-x="514" 
d="M111 133q0 -53 27.5 -80.5t76.5 -27.5q69 0 109.5 60.5t40.5 134.5q0 51 -28 76.5t-73 25.5q-69 0 -111 -57t-42 -132zM215 449q0 -87 82 -87q60 0 94 54t34 125q0 39 -20 64t-60 25q-59 0 -94.5 -57t-35.5 -124zM18 151q0 70 52.5 126t134.5 74q-76 40 -76 117
q0 83 64.5 144.5t154.5 61.5q66 0 115 -40.5t49 -112.5q0 -64 -44.5 -116t-112.5 -70q44 -20 73 -55t29 -82q0 -87 -72.5 -151.5t-171.5 -64.5q-75 0 -135 45.5t-60 123.5z" />
    <glyph glyph-name="nine" unicode="9" horiz-adv-x="504" 
d="M301 585q86 0 137 -58.5t51 -150.5q0 -211 -144.5 -348.5t-390.5 -143.5l13 46q168 9 270 91.5t138 213.5q-80 -67 -161 -67q-73 0 -116 41.5t-44 115.5q0 102 72 181t175 79zM240 218q73 0 144 58q12 58 12 120q0 75 -23 110t-74 35q-67 0 -109.5 -65.5t-42.5 -148.5
q0 -50 23 -79.5t70 -29.5z" />
    <glyph glyph-name="colon" unicode=":" horiz-adv-x="242" 
d="M60 -17q-27 0 -44.5 18t-17.5 45q0 26 17.5 43.5t44.5 17.5t44 -17.5t17 -43.5q0 -27 -17 -45t-44 -18zM160 314q-26 0 -43.5 17.5t-17.5 44.5q0 26 17.5 43.5t43.5 17.5q27 0 44.5 -17.5t17.5 -43.5q0 -27 -17.5 -44.5t-44.5 -17.5z" />
    <glyph glyph-name="semicolon" unicode=";" horiz-adv-x="275" 
d="M162 314q-27 0 -45 17.5t-18 44.5q0 26 18 43.5t45 17.5q26 0 43.5 -17.5t17.5 -43.5q0 -27 -17.5 -44.5t-43.5 -17.5zM-53 -185l-7 29q165 40 165 137q0 26 -14 26q-2 0 -16 -9.5t-29 -9.5q-24 0 -37 15.5t-13 40.5q0 27 21.5 46t51.5 19q44 0 68.5 -28t24.5 -76
q0 -76 -58 -123.5t-157 -66.5z" />
    <glyph glyph-name="less" unicode="&#x3c;" horiz-adv-x="428" 
d="M393 100l-348 161v42l348 161v-57l-276 -125l276 -125v-57z" />
    <glyph glyph-name="equal" unicode="=" horiz-adv-x="459" 
d="M49 321v49h380v-49h-380zM49 181v50h380v-50h-380z" />
    <glyph glyph-name="greater" unicode="&#x3e;" horiz-adv-x="428" 
d="M46 100v57l274 125l-274 125v57l347 -161v-42z" />
    <glyph glyph-name="question" unicode="?" horiz-adv-x="389" 
d="M170 200h-42q-2 42 14.5 77.5t42.5 58.5t57 47.5t57.5 44.5t44.5 50t18 64q0 38 -24.5 61t-64.5 23q-28 0 -51.5 -13t-23.5 -42q0 -22 25 -29q7 -26 -5.5 -47t-42.5 -21q-26 0 -42 17t-16 48q0 56 49 94t114 38q69 0 118 -38t49 -106q0 -52 -28 -91.5t-68.5 -64.5
t-81 -48t-69.5 -53.5t-30 -69.5zM128 -17q-26 0 -43.5 18t-17.5 45q0 26 17.5 43.5t43.5 17.5q27 0 44.5 -17.5t17.5 -43.5q0 -27 -17.5 -45t-44.5 -18z" />
    <glyph glyph-name="at" unicode="@" horiz-adv-x="893" 
d="M604 43q77 0 140 69.5t63 189.5q0 129 -77 205.5t-208 76.5q-122 0 -218.5 -60t-147.5 -157t-51 -210q0 -142 93.5 -234t240.5 -92q157 0 269 91l25 -31q-134 -107 -313 -107q-168 0 -278 100t-110 258q0 95 37.5 183.5t102 155.5t156.5 107t194 40q154 0 248 -90
t94 -232q0 -74 -25 -134.5t-65.5 -97t-88 -56t-95.5 -19.5q-100 0 -104 81h-3q-27 -33 -64.5 -57t-73.5 -24q-42 0 -70.5 31.5t-28.5 96.5q0 70 34 139t92 114t122 45q59 0 85 -42l11 29h80l-98 -308q-9 -20 -2 -40.5t34 -20.5zM387 59q54 0 102 66l69 213q-20 41 -64 41
t-81.5 -41t-57 -96t-19.5 -103q0 -42 14.5 -61t36.5 -19z" />
    <glyph glyph-name="A" unicode="A" horiz-adv-x="596" 
d="M-46 0l12 40l56 17l402 613h56l-15 -626l57 -4l-12 -40h-236l12 40l86 6l4 175h-193l-106 -164l80 -17l-11 -40h-192zM382 528l-172 -265h167l7 265h-2z" />
    <glyph glyph-name="B" unicode="B" horiz-adv-x="551" 
d="M-41 0l12 40l74 7l174 566l-72 5l12 41h215q89 0 134.5 -39t45.5 -105q0 -71 -49.5 -118.5t-116.5 -58.5v-2q54 -12 86 -49t32 -87q0 -92 -77 -146t-187 -54h-283zM310 318h-86l-83 -272h94q177 0 177 170q0 50 -26.5 76t-75.5 26zM368 613h-53l-78 -253h73
q155 0 155 168q0 85 -97 85z" />
    <glyph glyph-name="C" unicode="C" horiz-adv-x="579" 
d="M271 -18q-99 0 -163.5 70.5t-64.5 186.5q0 104 49 203.5t134.5 163.5t183.5 64q101 0 156 -83l36 63h32l-61 -199h-36q-5 172 -122 172q-64 0 -118 -41t-87 -104t-51 -132.5t-18 -131.5q0 -86 39.5 -132t108.5 -46q63 0 109.5 27.5t91.5 92.5l29 -18q-42 -71 -106 -113.5
t-142 -42.5z" />
    <glyph glyph-name="D" unicode="D" horiz-adv-x="632" 
d="M-41 0l12 40l74 6l174 567l-72 5l12 41h215q110 0 183 -64.5t73 -178.5q0 -79 -29.5 -154t-80 -133t-125 -93.5t-158.5 -35.5h-278zM372 613h-58l-174 -567h95q90 0 159.5 57t103.5 146t34 193q0 85 -42 128t-118 43z" />
    <glyph glyph-name="E" unicode="E" horiz-adv-x="578" 
d="M534 479l13 77q6 36 -3.5 46.5t-45.5 10.5h-183l-79 -254h83q27 0 38 8t21 32l28 70h36l-81 -267h-35l14 68q7 30 1 38.5t-32 8.5h-86l-83 -271h190q65 0 83 10t39 54l40 89h36l-59 -199h-510l12 40l75 7l173 566l-71 5l11 41h465l-54 -180h-36z" />
    <glyph glyph-name="F" unicode="F" horiz-adv-x="522" 
d="M528 458l13 82q8 48 -2.5 60.5t-57.5 12.5h-166l-77 -252h90q27 0 37 8.5t23 37.5l27 63h32l-80 -267h-32l14 66q7 29 1 39.5t-33 10.5h-92l-83 -272l89 -7l-11 -40h-261l12 40l76 8l172 564l-71 6l12 41h461l-61 -201h-32z" />
    <glyph glyph-name="G" unicode="G" 
d="M285 -19q-110 0 -176 72t-66 187q0 102 48.5 201t134.5 164t184 65q105 0 155 -82l35 62h33l-56 -186h-37q-7 159 -126 159q-64 0 -117.5 -41t-86.5 -104t-51 -135t-18 -139q0 -83 39 -129.5t109 -46.5q80 0 116 46q21 26 37 87l17 58l-78 7l13 39h234l-12 -39l-62 -6
l-42 -137q-96 -102 -227 -102z" />
    <glyph glyph-name="H" unicode="H" horiz-adv-x="669" 
d="M326 0l11 40l76 6l85 276h-273l-84 -275l70 -7l-11 -40h-241l12 40l75 7l174 566l-72 5l12 41h242l-12 -41l-75 -5l-77 -249h273l76 249l-71 5l10 41h242l-12 -41l-74 -5l-174 -567l72 -6l-12 -40h-242z" />
    <glyph glyph-name="I" unicode="I" horiz-adv-x="315" 
d="M-41 0l12 40l81 8l174 564l-78 6l12 41h254l-12 -41l-82 -5l-172 -566l80 -7l-12 -40h-257z" />
    <glyph glyph-name="J" unicode="J" horiz-adv-x="402" 
d="M74 -62q-50 0 -79.5 24t-29.5 63q0 30 17 47.5t40 17.5q21 0 35.5 -12t14.5 -32t-14 -33.5t-14 -16.5q0 -15 30 -15q69 0 107 128l150 501l-75 8l12 41h239l-12 -41l-67 -8l-143 -466q-31 -104 -86 -155t-125 -51z" />
    <glyph glyph-name="K" unicode="K" horiz-adv-x="614" 
d="M-41 0l12 40l76 7l174 566l-73 5l12 41h242l-11 -41l-76 -5l-174 -566l70 -7l-11 -40h-241zM306 0l12 40l64 5l-123 295l3 14l277 246l-65 18l13 41h189l-12 -41l-64 -18l-255 -227l136 -329l50 -4l-11 -40h-214z" />
    <glyph glyph-name="L" unicode="L" horiz-adv-x="532" 
d="M-41 0l12 40l75 6l174 567l-72 5l12 41h251l-11 -41l-86 -6l-173 -566h161q53 0 74.5 18.5t53.5 91.5l30 64h39l-67 -220h-473z" />
    <glyph glyph-name="M" unicode="M" horiz-adv-x="736" 
d="M283 0h-31v564l-157 -510l71 -14l-10 -40h-197l12 40l74 15l171 555l-68 8l12 41h179v-488l301 488h195l-12 -41l-73 -6l-174 -567l71 -5l-10 -40h-237l11 40l70 7l164 533z" />
    <glyph glyph-name="N" unicode="N" horiz-adv-x="641" 
d="M435 0l-180 563l-156 -509l97 -14l-10 -40h-227l12 40l77 16l170 556l-70 6l12 41h165l153 -479l132 423l-75 15l12 41h193l-12 -41l-69 -16l-184 -602h-40z" />
    <glyph glyph-name="O" unicode="O" horiz-adv-x="638" 
d="M411 670q96 0 160.5 -68t64.5 -177q0 -102 -46 -203t-132.5 -170.5t-189.5 -69.5q-96 0 -160.5 68t-64.5 177q0 102 46 203t132.5 170.5t189.5 69.5zM268 29q66 0 120.5 44.5t85.5 112.5t47.5 140.5t16.5 138.5q0 74 -33.5 116t-93.5 42q-66 0 -120 -44.5t-85.5 -112.5
t-48 -141t-16.5 -138q0 -74 33.5 -116t93.5 -42z" />
    <glyph glyph-name="P" unicode="P" horiz-adv-x="521" 
d="M-41 0l12 40l75 6l174 567l-72 5l12 41h213q98 0 149 -47.5t51 -119.5q0 -96 -73.5 -155t-184.5 -59q-60 0 -99 13l-75 -245l79 -6l-12 -40h-249zM366 613h-52l-87 -284q30 -7 80 -7q79 0 125 51t46 144q0 49 -26.5 72.5t-85.5 23.5z" />
    <glyph glyph-name="Q" unicode="Q" horiz-adv-x="638" 
d="M411 670q96 0 160.5 -68t64.5 -177q0 -95 -41.5 -192t-120.5 -168t-174 -81q27 -130 122 -130q47 0 79 14l12 -37q-65 -29 -121 -29q-79 0 -123.5 45t-71.5 146q-70 22 -112 84t-42 150q0 102 46 203t132.5 170.5t189.5 69.5zM268 29q66 0 120.5 44.5t85.5 112.5
t47.5 140.5t16.5 138.5q0 74 -33.5 116t-93.5 42q-66 0 -120 -44.5t-85.5 -112.5t-48 -141t-16.5 -138q0 -74 33.5 -116t93.5 -42z" />
    <glyph glyph-name="R" unicode="R" horiz-adv-x="616" 
d="M-41 0l12 40l75 7l174 566l-72 5l12 41h212q88 0 137 -38t49 -107t-54.5 -120t-141.5 -65v-3q60 -16 83 -52t25 -101q2 -70 14.5 -100.5t46.5 -30.5q21 0 47 12l13 -31q-34 -31 -93 -31q-75 0 -100.5 47t-19.5 148q4 74 -18 98.5t-87 24.5h-51l-81 -263l72 -7l-11 -40
h-243zM362 613h-46l-81 -261h65q77 0 121 46.5t44 129.5q0 85 -103 85z" />
    <glyph glyph-name="S" unicode="S" horiz-adv-x="509" 
d="M214 521q0 -35 20.5 -64.5t71.5 -71.5q74 -63 107.5 -107.5t33.5 -101.5q0 -82 -52.5 -135t-145.5 -53q-128 0 -184 97l-43 -71h-34l61 203h36q0 -86 45 -134.5t108 -48.5q56 0 89 29.5t33 75.5q0 42 -25.5 76.5t-92.5 89.5q-57 46 -82.5 90.5t-25.5 100.5q0 78 55 126
t129 48q53 0 92.5 -21t57.5 -56l36 53h33l-51 -168h-38q-4 64 -35 105t-92 41q-47 0 -77 -28t-30 -75z" />
    <glyph glyph-name="T" unicode="T" horiz-adv-x="560" 
d="M80 0l11 40l83 9l174 564h-63q-50 0 -70 -14t-46 -71l-37 -84h-38l66 215h497l-66 -215h-38l16 79q12 61 0.5 75.5t-63.5 14.5h-62l-173 -565l79 -8l-12 -40h-258z" />
    <glyph glyph-name="U" unicode="U" horiz-adv-x="622" 
d="M283 -13q-118 0 -172.5 68t-20.5 177l116 382l-59 4l12 41h237l-12 -41l-83 -6l-117 -378q-29 -90 -0.5 -143t111.5 -53q75 0 113.5 40.5t65.5 124.5l124 401l-74 14l12 41h188l-12 -41l-64 -14l-126 -413q-61 -204 -239 -204z" />
    <glyph glyph-name="V" unicode="V" horiz-adv-x="602" 
d="M198 -12l2 625l-60 5l11 41h229l-11 -41l-73 -5l-6 -489h1l299 478l-77 16l11 41h184l-11 -41l-52 -17l-389 -613h-58z" />
    <glyph glyph-name="W" unicode="W" horiz-adv-x="830" 
d="M189 -12l4 626l-53 4l11 41h207l-12 -41l-60 -5l-3 -485h1l198 352v134l-50 4l12 41h194l-12 -41l-55 -5l-2 -483h2l250 472l-69 16l9 41h171l-11 -41l-46 -15l-333 -615h-60v407l-233 -407h-60z" />
    <glyph glyph-name="X" unicode="X" horiz-adv-x="593" 
d="M276 0l12 40l66 7l-59 244l-198 -237l71 -14l-11 -40h-201l11 40l73 17l243 283l-69 272l-58 6l12 41h222l-11 -41l-65 -6l51 -211l171 200l-66 17l11 41h194l-12 -41l-72 -18l-213 -248l77 -306l58 -6l-11 -40h-226z" />
    <glyph glyph-name="Y" unicode="Y" horiz-adv-x="558" 
d="M94 0l12 40l82 8l80 258l-80 308l-46 4l11 41h214l-11 -41l-70 -5l68 -263l188 249l-66 19l12 41h178l-11 -41l-59 -18l-236 -307l-75 -246l75 -7l-11 -40h-255z" />
    <glyph glyph-name="Z" unicode="Z" horiz-adv-x="530" 
d="M112 450l64 209h431l-9 -28l-502 -585h158q56 0 82.5 7.5t38.5 22.5t30 55l47 96h37l-68 -227h-456l7 26l501 587h-157q-61 0 -80 -13.5t-44 -64.5l-42 -85h-38z" />
    <glyph glyph-name="bracketleft" unicode="[" horiz-adv-x="333" 
d="M-33 -181l286 932h215l-12 -41l-141 -6l-257 -838l137 -8l-12 -39h-216z" />
    <glyph glyph-name="backslash" unicode="\" horiz-adv-x="458" 
d="M193 709l213 -890h-51l-214 890h52z" />
    <glyph glyph-name="bracketright" unicode="]" horiz-adv-x="344" 
d="M392 751l-286 -932h-215l12 41l140 6l257 838l-136 8l12 39h216z" />
    <glyph glyph-name="asciicircum" unicode="^" horiz-adv-x="388" 
d="M123 419h-38l185 240h75l75 -240h-35l-93 157z" />
    <glyph glyph-name="underscore" unicode="_" horiz-adv-x="377" 
d="M-122 -223l15 47h379l-14 -47h-380z" />
    <glyph glyph-name="grave" unicode="`" horiz-adv-x="480" 
d="M396 538h-25l-76 93q-21 26 -21 47q0 18 13 31t33 13q36 0 42 -43z" />
    <glyph glyph-name="a" unicode="a" horiz-adv-x="545" 
d="M145 -18q-50 0 -82.5 37.5t-32.5 113.5q0 80 39.5 160.5t106.5 133.5t139 53q65 0 103 -46h3l11 30h80l-118 -363q-12 -39 -12 -49q0 -18 18 -18q40 0 98 58l24 -20q-31 -40 -73 -65t-83 -25q-34 0 -51 16.5t-17 43.5q0 13 6 35q-32 -39 -75 -67t-84 -28zM186 43
q66 0 127 78l83 259q-29 56 -80 56q-53 0 -99 -50t-70.5 -117t-24.5 -125q0 -53 19 -77t45 -24z" />
    <glyph glyph-name="b" unicode="b" horiz-adv-x="506" 
d="M62 212l144 444l-94 -3l14 43l175 13l7 -3l-106 -327h2q76 101 163 101q56 0 86 -38.5t30 -108.5q0 -81 -37 -161t-108 -135t-157 -55q-67 0 -103 32.5t-36 83.5q0 56 20 114zM324 416q-63 0 -136 -80l-50 -155q-16 -39 -16 -84q0 -72 67 -72q60 0 108 49.5t71 116
t23 131.5q0 94 -67 94z" />
    <glyph glyph-name="c" unicode="c" horiz-adv-x="429" 
d="M372 329q-20 0 -33.5 9t-13.5 23t11.5 35t12.5 23q-8 18 -35 18q-56 0 -102 -47t-69 -111t-23 -124q0 -114 91 -114q80 0 156 110l25 -18q-35 -67 -89 -109t-121 -42q-75 0 -116 42t-41 122q0 127 91 230.5t202 103.5q58 0 86 -24t28 -64q0 -28 -16 -45.5t-44 -17.5z" />
    <glyph glyph-name="d" unicode="d" horiz-adv-x="550" 
d="M177 43q67 0 136 83l86 268q-23 42 -74 42q-59 0 -109 -52.5t-75.5 -123t-25.5 -134.5q0 -83 62 -83zM366 -18q-34 0 -51.5 16.5t-17.5 45.5q0 15 6 33h-1q-90 -95 -164 -95q-51 0 -83.5 35t-32.5 103q0 83 41.5 166.5t113 138.5t148.5 55q53 0 92 -30l66 206l-95 -2
l14 42l176 13l6 -2l-191 -606q-11 -36 -11 -49q0 -18 17 -18q42 0 99 61l24 -19q-74 -94 -156 -94z" />
    <glyph glyph-name="e" unicode="e" horiz-adv-x="435" 
d="M336 275q-76 -40 -211 -53q-5 -26 -5 -61q0 -118 92 -118q89 0 155 75l24 -24q-93 -112 -213 -112q-70 0 -111.5 45t-41.5 125q0 119 91 223.5t203 104.5q53 0 82 -22.5t29 -60.5q0 -73 -94 -122zM307 437q-60 0 -105.5 -51t-66.5 -125q108 13 149 34q61 30 61 96
q0 46 -38 46z" />
    <glyph glyph-name="f" unicode="f" horiz-adv-x="344" 
d="M-43 -177q23 26 43.5 68t42 113t32 108.5t33.5 133t26 107.5q6 27 18 67h-98l10 44h103q40 117 98 183.5t145 66.5q53 0 84 -24t31 -63q0 -27 -16 -45t-45 -18q-31 0 -43 17q17 39 17 60q0 30 -41 30q-44 0 -71 -36q-39 -49 -71 -171h135l-12 -44h-135l-11 -42
q-76 -273 -107 -358q-78 -214 -178 -256q-28 -12 -59 -12q-40 0 -65 19t-25 53q0 27 16 44t42 17q23 0 36 -13q-14 -31 -14 -50q0 -27 23 -27q31 0 56 28z" />
    <glyph glyph-name="g" unicode="g" horiz-adv-x="501" 
d="M185 52q63 0 131 85l80 243q-29 56 -81 56q-56 0 -102.5 -52t-69.5 -118.5t-23 -124.5q0 -89 65 -89zM273 -4l28 84h-3q-82 -88 -157 -88q-50 0 -82 35t-32 103q0 79 40 160t107.5 135.5t139.5 54.5q66 0 104 -46h3l11 30h76l-141 -442q-87 -272 -287 -272
q-73 0 -107.5 32t-34.5 81q0 33 18 51.5t44 18.5q19 0 32.5 -11.5t13.5 -33.5q0 -18 -18.5 -31t-18.5 -30q0 -37 69 -37q63 0 110 47t85 159z" />
    <glyph glyph-name="h" unicode="h" horiz-adv-x="549" 
d="M328 707l-105 -334h1q35 36 78 72q44 35 92 35q47 0 68.5 -25.5t21.5 -64.5q0 -25 -14 -70l-79 -230q-10 -33 -10 -38q0 -18 18 -18q43 0 96 57l24 -19q-69 -90 -156 -90q-33 0 -51 15.5t-18 40.5q0 27 24 93l67 195q9 29 9 50q0 39 -43 39q-28 0 -66.5 -23t-76.5 -63
l-104 -329h-88l212 656l-94 -3l13 43l174 13z" />
    <glyph glyph-name="i" unicode="i" horiz-adv-x="306" 
d="M211 626q0 22 15.5 37t37.5 15q23 0 38.5 -15t15.5 -37q0 -23 -15.5 -37.5t-38.5 -14.5q-22 0 -37.5 14.5t-15.5 37.5zM67 133l92 286h-92l14 41h31q71 0 144 13l8 -4l-123 -379q-9 -23 -9 -38q0 -18 18 -18q40 0 98 58l23 -20q-74 -90 -157 -90q-34 0 -52.5 15.5
t-18.5 40.5q0 29 24 95z" />
    <glyph glyph-name="j" unicode="j" horiz-adv-x="273" 
d="M214 626q0 22 15 36.5t37 14.5t37 -14.5t15 -36.5q0 -21 -15 -35.5t-37 -14.5t-37 14.5t-15 35.5zM-120 -205q43 0 78.5 47.5t68.5 152.5l132 424h-92l14 41h34q67 0 143 13l6 -4l-142 -431q-17 -52 -38.5 -97.5t-52 -90.5t-72.5 -71.5t-90 -26.5q-41 0 -68.5 19
t-27.5 54q0 24 16.5 41.5t40.5 17.5q25 0 40 -15q-13 -31 -13 -54q0 -20 23 -20z" />
    <glyph glyph-name="k" unicode="k" horiz-adv-x="518" 
d="M328 707l-134 -421h28q40 0 63.5 19.5t52.5 73.5q28 52 55.5 76.5t66.5 24.5q31 0 50.5 -16.5t19.5 -41.5q0 -19 -14 -31t-30 -12t-21.5 4.5t-8.5 16.5q0 1 -2.5 8t-3.5 9.5t-5 5.5t-9 3q-15 0 -28.5 -16t-33.5 -52q-23 -40 -42 -59.5t-55 -30.5l-1 -4q67 -22 67 -86
q0 -14 -0.5 -37.5t-0.5 -37.5l-1 -14q0 -54 37 -54q41 0 84 65l26 -17q-61 -101 -139 -101q-44 0 -66.5 28.5t-22.5 78.5q0 28 1 62.5t1 48.5q0 25 -10 33.5t-34 8.5h-38l-76 -242h-88l213 658l-95 -5l13 43l174 13z" />
    <glyph glyph-name="l" unicode="l" horiz-adv-x="297" 
d="M57 133l169 523l-98 -3l13 42l180 14l6 -2l-195 -617q-10 -32 -10 -38q0 -18 18 -18q44 0 100 60l22 -21q-74 -91 -158 -91q-34 0 -52.5 15.5t-18.5 40.5q0 17 24 95z" />
    <glyph glyph-name="m" unicode="m" horiz-adv-x="789" 
d="M222 366h3q37 42 78 77q45 37 95 37q80 0 80 -89q0 -13 -3 -25q39 43 79 77q47 37 96 37q80 0 80 -86q0 -40 -15 -74l-78 -230q-11 -25 -11 -38q0 -18 18 -18q43 0 96 57l24 -19q-69 -90 -155 -90q-34 0 -52.5 15.5t-18.5 40.5q0 27 24 93l68 195q12 27 12 53
q0 36 -35 36q-57 0 -139 -85l-113 -330h-90l113 326q13 30 13 52q0 37 -35 37q-56 0 -140 -84l-107 -331h-88l135 419h-92l14 41h31q63 0 139 13l7 -4z" />
    <glyph glyph-name="n" unicode="n" horiz-adv-x="548" 
d="M222 366h1q34 37 84 79q42 35 92 35q47 0 68.5 -25.5t21.5 -64.5q0 -25 -14 -70l-79 -230q-10 -26 -10 -38q0 -18 18 -18q22 0 49 17t47 40l24 -19q-69 -90 -156 -90q-34 0 -52.5 15.5t-18.5 40.5t25 93l68 195q9 36 9 50q0 39 -43 39q-57 0 -140 -85l-107 -330h-88
l135 419h-92l14 41h31q63 0 139 13l7 -4z" />
    <glyph glyph-name="o" unicode="o" horiz-adv-x="484" 
d="M291 480q78 0 121.5 -51.5t43.5 -142.5q0 -70 -35.5 -140t-97 -117t-128.5 -47q-78 0 -121.5 51t-43.5 142q0 108 79.5 206.5t181.5 98.5zM289 437q-51 0 -92 -53.5t-60.5 -122t-19.5 -130.5q0 -51 20.5 -78.5t58.5 -27.5q51 0 92 52.5t60.5 121t19.5 132.5
q0 51 -20.5 78.5t-58.5 27.5z" />
    <glyph glyph-name="p" unicode="p" horiz-adv-x="524" 
d="M105 11l-62 -204l91 -5l-12 -38h-244l12 38l71 5l186 611h-92l14 42h31q64 0 137 13l7 -4l-27 -91h2q100 102 172 102q54 0 82 -39t28 -98q0 -82 -37 -164t-108.5 -139.5t-157.5 -57.5q-59 0 -93 29zM342 415q-30 0 -68.5 -23t-68.5 -55l-79 -260q7 -22 28 -37t50 -15
q58 0 107 51.5t74 122t25 135.5q0 81 -68 81z" />
    <glyph glyph-name="q" unicode="q" horiz-adv-x="503" 
d="M508 464l-209 -658l76 -4l-12 -38h-246l12 38l83 5l85 264h-2q-85 -89 -160 -89q-48 0 -80.5 35t-32.5 103q0 129 91.5 244.5t201.5 115.5q65 0 103 -46h3l11 30h76zM178 43q64 0 136 84l80 252q-22 57 -79 57q-56 0 -103.5 -52t-72 -122.5t-24.5 -134.5q0 -84 63 -84z
" />
    <glyph glyph-name="r" unicode="r" horiz-adv-x="424" 
d="M254 469l-36 -109h4q32 50 63 78q49 42 97 42q30 0 47.5 -17.5t17.5 -46.5q0 -25 -16.5 -43.5t-42.5 -18.5q-27 0 -40 18q7 19 2 32.5t-20 13.5q-47 0 -122 -111l-100 -307h-88l136 419h-92l14 41h31q65 0 138 13z" />
    <glyph glyph-name="s" unicode="s" horiz-adv-x="407" 
d="M262 442q-76 0 -76 -63q0 -6 2 -13t6.5 -15t9 -14.5t12 -16t12.5 -15.5t14.5 -17t13.5 -16q3 -4 21.5 -25t23 -28t15 -23.5t13.5 -31t3 -31.5q0 -66 -49 -108.5t-132 -42.5q-70 0 -109.5 34.5t-39.5 78.5q0 36 18 55.5t43 19.5q19 0 33.5 -11t14.5 -33q0 -19 -19 -32.5
t-20 -29.5q1 -18 22 -31t54 -13q43 0 71.5 22t28.5 65q0 40 -72 117q-67 74 -67 128q0 53 42 90.5t111 37.5q67 0 104 -32t37 -75q0 -61 -53 -61q-19 0 -31.5 10t-12.5 27q0 12 6 22.5t14.5 19t9.5 11.5q0 15 -20.5 27.5t-53.5 12.5z" />
    <glyph glyph-name="t" unicode="t" horiz-adv-x="358" 
d="M381 464l-14 -44h-125l-104 -330q-10 -24 -10 -36q0 -14 19 -14q59 0 135 90l24 -20q-97 -128 -197 -128q-34 0 -52.5 15.5t-18.5 40.5t24 93l92 289h-103l16 44h101l33 104h88l-34 -104h126z" />
    <glyph glyph-name="u" unicode="u" horiz-adv-x="545" 
d="M256 469l-114 -332q-10 -27 -10 -49q0 -41 39 -41q31 0 71 25.5t74 64.5l107 327h88l-121 -372q-11 -36 -11 -40q0 -18 19 -18q42 0 95 57l24 -19q-30 -39 -73 -64.5t-84 -25.5q-33 0 -49.5 15.5t-16.5 40.5q0 21 16 58h-3q-32 -40 -81 -76q-51 -38 -99 -38
q-42 0 -63.5 22t-21.5 60q0 30 15 78l94 277h-91l14 41h37q65 0 138 13z" />
    <glyph glyph-name="v" unicode="v" horiz-adv-x="480" 
d="M212 306l-59 -173q-12 -26 -12 -59q0 -36 39 -36q55 0 108 54.5t84 129t31 137.5q0 54 -33 90q17 30 54 30q50 0 50 -70q0 -51 -26 -123t-68 -140t-104 -116t-126 -48q-50 0 -74 25.5t-24 63.5q0 33 16 72l67 200q15 40 12.5 59t-23.5 19q-28 0 -74 -50l-24 20
q72 89 134 89q76 0 76 -77q0 -27 -24 -97z" />
    <glyph glyph-name="w" unicode="w" horiz-adv-x="714" 
d="M212 306l-59 -172q-12 -27 -12 -58q0 -38 33 -38q56 0 97.5 53t76.5 161l66 212h87l-93 -309q-17 -48 -5.5 -83t49.5 -35q48 0 92 51.5t68.5 126t24.5 144.5q0 57 -33 90q17 30 56 30q49 0 49 -71q0 -41 -13 -95t-38.5 -112t-59 -107t-80 -80.5t-95.5 -31.5
q-55 0 -82 30.5t-22 79.5h-3q-25 -49 -71 -79.5t-97 -30.5q-48 0 -72 26t-24 63q0 33 16 72l67 200q29 78 -11 78q-28 0 -74 -50l-24 20q72 89 134 89q76 0 76 -77q0 -27 -24 -97z" />
    <glyph glyph-name="x" unicode="x" horiz-adv-x="546" 
d="M307 383q1 -6 4.5 -38t5.5 -50h3q40 94 83 142q40 43 85 43q33 0 53.5 -19t20.5 -55q0 -28 -16 -42.5t-38 -14.5q-16 0 -26 10.5t-10 24.5q0 9 10 25t11 19q-7 6 -19 6q-34 0 -78 -67.5t-71 -145.5q8 -89 14 -115q7 -39 16 -53.5t29 -14.5q37 0 81 72l29 -18
q-64 -110 -149 -110q-43 0 -62 26t-29 87q-5 32 -10 90h-1q-52 -113 -83 -153q-39 -50 -93 -50q-34 0 -54.5 19t-20.5 51q0 28 16.5 45.5t37.5 17.5q18 0 29.5 -10.5t11.5 -25.5q0 -10 -11 -28t-12 -20q6 -3 14 -3q25 0 56 34q59 80 103 191q-8 75 -15 120q-7 48 -36 48
t-77 -68l-25 18q23 45 58.5 77t77.5 32q71 0 87 -97z" />
    <glyph glyph-name="y" unicode="y" horiz-adv-x="508" 
d="M512 464l-144 -445q-82 -269 -286 -269q-67 0 -104 32t-37 75q0 37 18 56.5t43 19.5q19 0 33 -12t14 -34q0 -18 -18.5 -30.5t-18.5 -29.5q0 -37 68 -37q126 0 196 206l37 108h-4q-33 -41 -80 -76q-51 -38 -100 -38q-40 0 -62.5 26t-22.5 62q0 37 16 71l91 270h-93l15 41
h39q64 0 137 13l7 -4l-111 -324q-10 -34 -10 -54q0 -36 39 -36q63 0 146 90l104 319h88z" />
    <glyph glyph-name="z" unicode="z" horiz-adv-x="446" 
d="M292 -18q-53 0 -97 29q-22 13 -32 18.5t-29 11.5t-37 6q-39 -1 -89 -51l-31 33l365 359l-3 2q-38 -20 -89 -20q-50 0 -118 17l-44 -100l-31 12l69 180l8 3q95 -37 179 -37q70 1 129 30l21 -23l-370 -362l1 -2q36 16 62 16q44 0 105 -33q60 -37 79 -37q24 0 24 31
q0 30 -40 41q0 48 45 48q22 0 35 -16t13 -38q0 -49 -38 -83.5t-87 -34.5z" />
    <glyph glyph-name="braceleft" unicode="{" horiz-adv-x="350" 
d="M124 299v-5q49 -13 62.5 -41.5t-7.5 -102.5l-57 -167q-23 -74 -13.5 -96t56.5 -24l48 -3l-13 -40h-36q-192 0 -119 175l76 181q21 56 1.5 76t-88.5 26l13 44q78 6 109 24.5t40 71.5l32 190q13 74 55.5 108.5t123.5 34.5h78l-12 -41l-53 -1q-55 -2 -75.5 -22t-38.5 -89
l-37 -152q-17 -73 -49 -102.5t-96 -44.5z" />
    <glyph glyph-name="bar" unicode="|" horiz-adv-x="263" 
d="M181 721v-902h-48v902h48z" />
    <glyph glyph-name="braceright" unicode="}" horiz-adv-x="350" 
d="M246 272v5q-49 13 -62.5 41.5t7.5 102.5l57 167q17 49 16.5 74.5t-14 34t-45.5 11.5l-48 3l13 40h36q192 0 119 -175l-76 -181q-12 -28 -12.5 -46.5t11.5 -30t32.5 -17t55.5 -8.5l-13 -44q-78 -6 -109.5 -24.5t-39.5 -71.5l-32 -190q-13 -74 -55.5 -108.5t-123.5 -34.5
h-78l12 41l53 1q55 2 75.5 22t38.5 89l37 152q17 73 49 102.5t96 44.5z" />
    <glyph glyph-name="asciitilde" unicode="~" horiz-adv-x="357" 
d="M63 186h-33q16 55 44 89.5t65 34.5q20 0 61.5 -11.5t57.5 -11.5q30 1 50 48h36q-40 -123 -108 -124q-22 0 -64 11.5t-57 11.5q-31 -1 -52 -48z" />
    <glyph glyph-name="Zcaron" horiz-adv-x="530" 
d="M294 852h28l74 -73l125 73h31l-133 -134h-68zM112 450l64 209h431l-9 -28l-502 -585h158q56 0 82.5 7.5t38.5 22.5t30 55l47 96h37l-68 -227h-456l7 26l501 587h-157q-61 0 -80 -13.5t-44 -64.5l-42 -85h-38z" />
    <glyph glyph-name="Zcaron" unicode="&#x17d;" horiz-adv-x="530" 
d="M294 852h28l74 -73l125 73h31l-133 -134h-68zM112 450l64 209h431l-9 -28l-502 -585h158q56 0 82.5 7.5t38.5 22.5t30 55l47 96h37l-68 -227h-456l7 26l501 587h-157q-61 0 -80 -13.5t-44 -64.5l-42 -85h-38z" />
    <glyph glyph-name="zcaron" horiz-adv-x="446" 
d="M216 704h25l69 -88l116 88h32l-129 -157h-64zM292 -18q-53 0 -97 29q-22 13 -32 18.5t-29 11.5t-37 6q-39 -1 -89 -51l-31 33l365 359l-3 2q-38 -20 -89 -20q-50 0 -118 17l-44 -100l-31 12l69 180l8 3q95 -37 179 -37q70 1 129 30l21 -23l-370 -362l1 -2q36 16 62 16
q44 0 105 -33q60 -37 79 -37q24 0 24 31q0 30 -40 41q0 48 45 48q22 0 35 -16t13 -38q0 -49 -38 -83.5t-87 -34.5z" />
    <glyph glyph-name="zcaron" unicode="&#x17e;" horiz-adv-x="446" 
d="M216 704h25l69 -88l116 88h32l-129 -157h-64zM292 -18q-53 0 -97 29q-22 13 -32 18.5t-29 11.5t-37 6q-39 -1 -89 -51l-31 33l365 359l-3 2q-38 -20 -89 -20q-50 0 -118 17l-44 -100l-31 12l69 180l8 3q95 -37 179 -37q70 1 129 30l21 -23l-370 -362l1 -2q36 16 62 16
q44 0 105 -33q60 -37 79 -37q24 0 24 31q0 30 -40 41q0 48 45 48q22 0 35 -16t13 -38q0 -49 -38 -83.5t-87 -34.5z" />
    <glyph glyph-name="uni00A0" unicode="&#xa0;" horiz-adv-x="2" 
 />
    <glyph glyph-name="exclamdown" unicode="&#xa1;" horiz-adv-x="233" 
d="M124 282h32l-86 -407q-5 -31 -22 -47.5t-42 -16.5q-35 0 -48 26.5t4 61.5zM172 499q26 0 43.5 -18t17.5 -45q0 -26 -17 -43.5t-43 -17.5q-28 0 -46 17.5t-18 43.5q0 27 18 45t45 18z" />
    <glyph glyph-name="cent" unicode="&#xa2;" horiz-adv-x="430" 
d="M362 559l-25 -80q49 -4 72.5 -27.5t23.5 -60.5q0 -27 -13 -44.5t-39 -17.5q-19 0 -31 9t-12 23q0 10 3 20.5t8.5 22t6.5 15.5q-7 13 -32 17l-120 -395h7q80 0 156 110l25 -18q-34 -66 -87 -107.5t-119 -43.5l-29 -95h-42l30 98q-120 24 -120 161q0 120 82 220.5
t188 112.5l25 80h42zM117 155q0 -80 48 -104l116 382q-72 -19 -118 -105t-46 -173z" />
    <glyph glyph-name="sterling" unicode="&#xa3;" horiz-adv-x="506" 
d="M376 653q67 0 109.5 -34t42.5 -94q0 -39 -17.5 -65.5t-53.5 -26.5q-53 0 -53 46q0 16 8 26.5t17 14.5t17 12t8 20q0 23 -20.5 39.5t-54.5 16.5q-36 0 -62 -17.5t-40 -51t-21 -68t-10 -80.5q-2 -10 -3.5 -34.5t-2.5 -36.5h174l-10 -40h-168l-6 -70q-6 -62 -24 -110
q80 -30 125 -30q42 0 64 19t40 65l30 -7q-23 -83 -54 -124t-92 -41q-62 0 -143 61q-39 -57 -105 -57q-40 0 -65 18t-25 56t25.5 58t63.5 20q33 0 89 -20q5 32 5 62q0 35 -7 100h-79l11 40h64q-4 41 -4 90q0 102 65.5 172.5t161.5 70.5zM70 24q49 0 73 43q-44 30 -73 30
q-44 0 -44 -37q0 -36 44 -36z" />
    <glyph glyph-name="yen" unicode="&#xa5;" horiz-adv-x="507" 
d="M71 240h153l22 71h-153l12 39h139l-64 248l-44 4l12 39h216l-12 -39l-74 -5l55 -224l169 211l-61 18l12 39h158l-12 -39l-44 -16l-190 -236h138l-14 -39h-149l-21 -71h148l-11 -40h-150l-47 -154l72 -7l-10 -39h-245l10 39l79 8l46 153h-152z" />
    <glyph glyph-name="brokenbar" unicode="&#xa6;" horiz-adv-x="267" 
d="M133 236h53v-417h-53v417zM186 320h-53v401h53v-401z" />
    <glyph glyph-name="section" unicode="&#xa7;" horiz-adv-x="442" 
d="M121 -156q-59 0 -101 31.5t-42 86.5q0 26 17 45t45 19q42 0 42 -37q0 -17 -18.5 -33t-18.5 -26q0 -18 19 -32t57 -13q44 1 68.5 25.5t24.5 66.5q0 24 -12.5 53t-26.5 50t-42 58q-89 109 -88 176q0 52 39.5 91t98.5 56q-11 31 -11 55q0 67 45 113.5t116 46.5
q59 0 95.5 -29t36.5 -78q0 -24 -16.5 -44.5t-40.5 -20.5q-18 0 -30 10t-12 28q0 14 15 28.5t15 23.5q0 17 -16 29t-50 11q-36 -2 -56.5 -23.5t-20.5 -59.5q0 -33 13.5 -62t48.5 -79q35 -48 52 -73t33 -59t16 -58q0 -91 -140 -140q20 -43 20 -76q0 -68 -49 -114t-126 -46z
M192 210q47 -61 71 -105q73 27 73 77q0 29 -19.5 64.5t-58.5 90.5q-39 53 -64 98q-74 -27 -74 -87q0 -46 72 -138z" />
    <glyph glyph-name="dieresis" unicode="&#xa8;" horiz-adv-x="480" 
d="M264 571q-22 0 -37 14.5t-15 36.5q0 23 15 36.5t37 13.5t37 -13.5t15 -36.5q0 -22 -15 -36.5t-37 -14.5zM440 571q-21 0 -36.5 15t-15.5 36q0 23 15 36.5t37 13.5t36.5 -13.5t14.5 -36.5q0 -22 -15 -36.5t-36 -14.5z" />
    <glyph glyph-name="copyright" unicode="&#xa9;" horiz-adv-x="736" 
d="M399 -19q-132 0 -231.5 96t-99.5 247t99.5 248.5t231.5 97.5t232.5 -97.5t100.5 -248.5t-100.5 -247t-232.5 -96zM399 22q115 0 200 83t85 219q0 135 -85.5 220t-199.5 85q-113 0 -198 -85t-85 -220q0 -136 84.5 -219t198.5 -83zM398 127q-81 0 -130 53.5t-49 144.5
q0 88 54 143.5t127 55.5q65 0 103 -46l10 36h29v-123h-37q-22 91 -99 91q-46 0 -74.5 -39.5t-28.5 -116.5q0 -152 111 -152q68 0 100 72l35 -16q-43 -103 -151 -103z" />
    <glyph glyph-name="ordfeminine" unicode="&#xaa;" horiz-adv-x="479" 
d="M411 295q38 0 78 48l23 -19q-25 -34 -61 -56t-73 -22q-59 0 -59 52q0 11 6 26q-74 -78 -138 -78q-43 0 -71.5 32t-28.5 96q0 105 76 199.5t170 94.5q58 0 88 -40l9 28h76l-100 -307q-9 -27 -9 -41q0 -13 14 -13zM226 302q58 0 105 64l71 221q-25 39 -66 39
q-66 0 -114 -81t-48 -161q0 -82 52 -82z" />
    <glyph glyph-name="guillemotleft" unicode="&#xab;" horiz-adv-x="411" 
d="M238 407l15 -19l-137 -150l71 -144l-22 -16l-129 151l12 37zM394 407l15 -19l-137 -150l71 -144l-22 -16l-129 151l12 37z" />
    <glyph glyph-name="registered" unicode="&#xae;" horiz-adv-x="502" 
d="M336 223q-88 0 -154.5 63.5t-66.5 163.5q0 98 66.5 162.5t154.5 64.5q86 0 152.5 -64.5t66.5 -162.5q0 -100 -66.5 -163.5t-152.5 -63.5zM336 256q73 0 127 54t54 140t-54 140t-127 54t-128 -54t-55 -140t55 -140t128 -54zM235 338v29l21 2v169l-21 1v29h102
q40 0 64.5 -15.5t24.5 -44.5q0 -44 -57 -57v-1q22 -4 32.5 -14t16.5 -32q1 -5 3 -11t2.5 -9.5t2 -7.5t2.5 -6t3 -4t4.5 -3t5.5 -1q2 0 11 3l8 -17q-18 -14 -39 -14q-29 0 -41 15.5t-19 48.5q-4 27 -9 34.5t-22 7.5h-20v-71l24 -2v-29h-99zM331 540h-21v-76h24q20 0 27.5 8.5
t7.5 29.5q0 38 -38 38z" />
    <glyph glyph-name="overscore" unicode="&#xaf;" horiz-adv-x="480" 
d="M224 593l17 53h244l-17 -53h-244z" />
    <glyph glyph-name="degree" unicode="&#xb0;" horiz-adv-x="364" 
d="M272 428q41 0 66 28.5t25 71.5q0 42 -25 71t-66 29t-65.5 -28.5t-24.5 -71.5t24.5 -71.5t65.5 -28.5zM272 386q-60 0 -100 40t-40 102q0 59 40.5 100.5t99.5 41.5q60 0 101.5 -41.5t41.5 -100.5q0 -62 -41 -102t-102 -40z" />
    <glyph glyph-name="plusminus" unicode="&#xb1;" horiz-adv-x="458" 
d="M40 262v51h164v170h52v-170h162v-51h-162v-139h-52v139h-164zM40 0v51h378v-51h-378z" />
    <glyph glyph-name="acute" unicode="&#xb4;" horiz-adv-x="480" 
d="M311 538h-27l87 150q16 34 47 34q16 0 27.5 -11t11.5 -29q0 -24 -31 -48z" />
    <glyph glyph-name="paragraph" unicode="&#xb6;" horiz-adv-x="515" 
d="M601 618l-70 -7l-242 -792h-53l245 795h-84l-244 -795h-53l146 475q-148 16 -148 157q0 93 62 150.5t161 57.5h292z" />
    <glyph glyph-name="middot" unicode="&#xb7;" horiz-adv-x="215" 
d="M109 206q-27 0 -45 18t-18 45q0 26 18 43.5t45 17.5q26 0 43.5 -17.5t17.5 -43.5q0 -27 -17.5 -45t-43.5 -18z" />
    <glyph glyph-name="cedilla" unicode="&#xb8;" horiz-adv-x="480" 
d="M50 -200l10 31q26 -15 61 -15q25 0 41 11.5t16 34.5q0 22 -20.5 31t-51.5 4l64 118h41l-43 -81q33 2 58.5 -15.5t25.5 -51.5q0 -42 -32 -65.5t-77 -23.5q-47 0 -93 22z" />
    <glyph glyph-name="ordmasculine" unicode="&#xba;" horiz-adv-x="417" 
d="M313 668q69 0 106.5 -43.5t37.5 -121.5q0 -93 -67.5 -175.5t-154.5 -82.5q-69 0 -107 43.5t-38 121.5q0 93 68 175.5t155 82.5zM313 628q-43 0 -76.5 -44t-49.5 -101t-16 -110q0 -86 65 -86q61 0 101.5 85t40.5 170q0 41 -17 63.5t-48 22.5z" />
    <glyph glyph-name="guillemotright" unicode="&#xbb;" horiz-adv-x="411" 
d="M22 78l-14 19l138 150l-72 144l22 16l129 -151l-12 -39zM178 78l-14 19l138 150l-72 144l22 16l129 -151l-12 -39z" />
    <glyph glyph-name="onequarter" unicode="&#xbc;" horiz-adv-x="766" 
d="M46 -19l648 701l30 -28l-649 -702zM570 0h-67l31 101h-142l5 18l199 241h41l-186 -226h93l41 133l69 7l-43 -140h52l-10 -33h-52zM50 313l11 37l58 4l72 235l-72 -26l-9 33l136 69h36l-95 -311l56 -4l-11 -37h-182z" />
    <glyph glyph-name="onehalf" unicode="&#xbd;" horiz-adv-x="748" 
d="M46 -19l648 701l30 -28l-649 -702zM416 0l12 43q18 12 53 35t52 35t42 32t37 36t21 37.5t9 44.5q0 55 -50 55q-48 0 -48 -35q0 -5 6 -15t6 -18q0 -13 -10.5 -22.5t-25.5 -9.5q-16 0 -26.5 11t-10.5 31q0 38 34.5 65t87.5 27q50 0 79.5 -25t29.5 -67q0 -21 -7.5 -41
t-24 -37.5t-31.5 -31.5t-41 -29.5t-41.5 -24t-43.5 -23t-37 -19.5h90q30 0 42 5t22 19l15 20h28l-41 -98h-228zM61 313l11 37l58 4l72 235l-72 -26l-9 33l136 69h36l-95 -311l56 -4l-11 -37h-182z" />
    <glyph glyph-name="threequarters" unicode="&#xbe;" horiz-adv-x="773" 
d="M53 -22l648 701l30 -28l-649 -702zM580 -1h-67l31 101h-142l5 18l199 241h41l-186 -226h93l41 133l69 7l-43 -140h52l-10 -33h-52zM164 305q-45 0 -76 19t-31 53q0 21 12 34.5t32 13.5q30 0 30 -26q0 -12 -12 -23t-12 -15q0 -9 13.5 -16t35.5 -7q39 0 63 24.5t24 64.5
q0 49 -59 49h-34l11 33h24q34 0 59.5 22.5t25.5 57.5q0 43 -48 43q-38 0 -38 -17q0 -1 5 -9t5 -15q0 -14 -9 -22t-24 -8q-32 0 -32 32t30 52t74 20q49 0 76 -21.5t27 -55.5q0 -36 -26.5 -60t-66.5 -33v-2q33 -6 52.5 -25t19.5 -48q0 -50 -44.5 -82.5t-106.5 -32.5z" />
    <glyph glyph-name="questiondown" unicode="&#xbf;" horiz-adv-x="402" 
d="M238 282h42q2 -42 -14.5 -77.5t-42.5 -58.5t-57 -47.5t-57.5 -44.5t-44.5 -50t-18 -64q0 -38 24.5 -61t64.5 -23q28 0 51.5 13t23.5 42q0 22 -25 29q-7 26 5.5 47t42.5 21q26 0 42 -17t16 -48q0 -56 -49 -94t-114 -38q-69 0 -118 38t-49 106q0 52 28 91.5t68.5 64.5
t81 48t69.5 53.5t30 69.5zM280 499q26 0 43.5 -18t17.5 -45q0 -26 -17.5 -43.5t-43.5 -17.5q-27 0 -44.5 17.5t-17.5 43.5q0 27 17.5 45t44.5 18z" />
    <glyph glyph-name="Agrave" unicode="&#xc0;" horiz-adv-x="596" 
d="M-46 0l12 40l56 17l402 613h56l-15 -626l57 -4l-12 -40h-236l12 40l86 6l4 175h-193l-106 -164l80 -17l-11 -40h-192zM382 528l-172 -265h167l7 265h-2zM479 718h-26l-70 64q-21 20 -21 42q0 20 14.5 33t33.5 13q32 0 44 -48z" />
    <glyph glyph-name="Aacute" unicode="&#xc1;" horiz-adv-x="596" 
d="M-46 0l12 40l56 17l402 613h56l-15 -626l57 -4l-12 -40h-236l12 40l86 6l4 175h-193l-106 -164l80 -17l-11 -40h-192zM382 528l-172 -265h167l7 265h-2zM480 718h-26l65 114q18 38 48 38q16 0 29.5 -13t13.5 -33q0 -28 -30 -45z" />
    <glyph glyph-name="Acircumflex" unicode="&#xc2;" horiz-adv-x="596" 
d="M-46 0l12 40l56 17l402 613h56l-15 -626l57 -4l-12 -40h-236l12 40l86 6l4 175h-193l-106 -164l80 -17l-11 -40h-192zM382 528l-172 -265h167l7 265h-2zM352 718h-31l133 134h70l55 -134h-26l-75 72z" />
    <glyph glyph-name="Atilde" unicode="&#xc3;" horiz-adv-x="596" 
d="M-46 0l12 40l56 17l402 613h56l-15 -626l57 -4l-12 -40h-236l12 40l86 6l4 175h-193l-106 -164l80 -17l-11 -40h-192zM382 528l-172 -265h167l7 265h-2zM520 740q-20 0 -66.5 14t-61.5 14q-35 -2 -53 -41h-35q17 47 45.5 80t66.5 33q20 0 65.5 -14.5t60.5 -14.5
q33 1 51 42h36q-43 -113 -109 -113z" />
    <glyph glyph-name="Adieresis" unicode="&#xc4;" horiz-adv-x="596" 
d="M-46 0l12 40l56 17l402 613h56l-15 -626l57 -4l-12 -40h-236l12 40l86 6l4 175h-193l-106 -164l80 -17l-11 -40h-192zM382 528l-172 -265h167l7 265h-2zM369 726q-21 0 -36.5 15t-15.5 37q0 23 15 37.5t37 14.5q23 0 38 -14.5t15 -37.5q0 -22 -15 -37t-38 -15zM553 726
q-22 0 -37 15t-15 37q0 23 15 37.5t37 14.5q23 0 38 -14.5t15 -37.5q0 -22 -15 -37t-38 -15z" />
    <glyph glyph-name="Aring" unicode="&#xc5;" horiz-adv-x="596" 
d="M-46 0l12 40l56 17l402 613h56l-15 -626l57 -4l-12 -40h-236l12 40l86 6l4 175h-193l-106 -164l80 -17l-11 -40h-192zM382 528l-172 -265h167l7 265h-2zM470 752q23 0 38 16t15 40q0 23 -15 39t-38 16t-37.5 -15.5t-14.5 -39.5t14.5 -40t37.5 -16zM470 719
q-38 0 -63 25.5t-25 63.5q0 37 25 62.5t63 25.5q37 0 63 -25.5t26 -62.5q0 -38 -26 -63.5t-63 -25.5z" />
    <glyph glyph-name="AE" unicode="&#xc6;" horiz-adv-x="864" 
d="M856 479h-36l12 77q6 36 -3 46.5t-45 10.5h-183l-78 -255h83q27 0 37.5 8t20.5 32l29 70h36l-81 -266h-35l14 67q7 31 1 39.5t-32 8.5h-86l-82 -271h186q66 0 83.5 10t38.5 54l41 89h37l-60 -199h-508l12 40l74 7l80 259h-148l-200 -249l83 -17l-11 -40h-192l12 40l50 16
l450 555l-83 7l12 41h525zM498 595l-200 -247h127l76 247h-3z" />
    <glyph glyph-name="Ccedilla" unicode="&#xc7;" horiz-adv-x="579" 
d="M92 -200l10 31q26 -15 61 -15q25 0 41 11.5t16 34.5q0 22 -20.5 31t-51.5 4l52 96q-11 3 -20 7q-63 28 -100 90.5t-37 148.5q0 104 49 203.5t134.5 163.5t183.5 64q101 0 156 -83l36 63h32l-61 -199h-36q-5 172 -122 172q-64 0 -118 -41t-87 -104t-51 -132.5t-18 -131.5
q0 -86 39.5 -132t108.5 -46q63 0 109.5 27.5t91.5 92.5l29 -18q-42 -71 -106 -113.5t-142 -42.5q-13 0 -35 2l-26 -50q33 2 58.5 -15.5t25.5 -51.5q0 -42 -32 -65.5t-77 -23.5q-47 0 -93 22z" />
    <glyph glyph-name="Egrave" unicode="&#xc8;" horiz-adv-x="578" 
d="M449 718h-26l-70 64q-21 20 -21 42q0 20 14.5 33t33.5 13q32 0 44 -48zM534 479l13 77q6 36 -3.5 46.5t-45.5 10.5h-183l-79 -254h83q27 0 38 8t21 32l28 70h36l-81 -267h-35l14 68q7 30 1 38.5t-32 8.5h-86l-83 -271h190q65 0 83 10t39 54l40 89h36l-59 -199h-510l12 40
l75 7l173 566l-71 5l11 41h465l-54 -180h-36z" />
    <glyph glyph-name="Eacute" unicode="&#xc9;" horiz-adv-x="578" 
d="M409 718h-26l65 114q18 38 48 38q16 0 29.5 -13t13.5 -33q0 -28 -30 -45zM534 479l13 77q6 36 -3.5 46.5t-45.5 10.5h-183l-79 -254h83q27 0 38 8t21 32l28 70h36l-81 -267h-35l14 68q7 30 1 38.5t-32 8.5h-86l-83 -271h190q65 0 83 10t39 54l40 89h36l-59 -199h-510
l12 40l75 7l173 566l-71 5l11 41h465l-54 -180h-36z" />
    <glyph glyph-name="Ecircumflex" unicode="&#xca;" horiz-adv-x="578" 
d="M320 718h-31l133 134h70l55 -134h-26l-75 72zM534 479l13 77q6 36 -3.5 46.5t-45.5 10.5h-183l-79 -254h83q27 0 38 8t21 32l28 70h36l-81 -267h-35l14 68q7 30 1 38.5t-32 8.5h-86l-83 -271h190q65 0 83 10t39 54l40 89h36l-59 -199h-510l12 40l75 7l173 566l-71 5
l11 41h465l-54 -180h-36z" />
    <glyph glyph-name="Edieresis" unicode="&#xcb;" horiz-adv-x="578" 
d="M534 479l13 77q6 36 -3.5 46.5t-45.5 10.5h-183l-79 -254h83q27 0 38 8t21 32l28 70h36l-81 -267h-35l14 68q7 30 1 38.5t-32 8.5h-86l-83 -271h190q65 0 83 10t39 54l40 89h36l-59 -199h-510l12 40l75 7l173 566l-71 5l11 41h465l-54 -180h-36zM337 726q-21 0 -36.5 15
t-15.5 37q0 23 15 37.5t37 14.5q23 0 38 -14.5t15 -37.5q0 -22 -15 -37t-38 -15zM521 726q-22 0 -37 15t-15 37q0 23 15 37.5t37 14.5q23 0 38 -14.5t15 -37.5q0 -22 -15 -37t-38 -15z" />
    <glyph glyph-name="Igrave" unicode="&#xcc;" horiz-adv-x="315" 
d="M-41 0l12 40l81 8l174 564l-78 6l12 41h254l-12 -41l-82 -5l-172 -566l80 -7l-12 -40h-257zM317 718h-26l-70 64q-21 20 -21 42q0 20 14.5 33t33.5 13q32 0 44 -48z" />
    <glyph glyph-name="Iacute" unicode="&#xcd;" horiz-adv-x="315" 
d="M-41 0l12 40l81 8l174 564l-78 6l12 41h254l-12 -41l-82 -5l-172 -566l80 -7l-12 -40h-257zM276 718h-26l65 114q18 38 48 38q16 0 29.5 -13t13.5 -33q0 -28 -30 -45z" />
    <glyph glyph-name="Icircumflex" unicode="&#xce;" horiz-adv-x="315" 
d="M-41 0l12 40l81 8l174 564l-78 6l12 41h254l-12 -41l-82 -5l-172 -566l80 -7l-12 -40h-257zM189 718h-31l133 134h70l55 -134h-26l-75 72z" />
    <glyph glyph-name="Idieresis" unicode="&#xcf;" horiz-adv-x="315" 
d="M-41 0l12 40l81 8l174 564l-78 6l12 41h254l-12 -41l-82 -5l-172 -566l80 -7l-12 -40h-257zM207 726q-21 0 -36.5 15t-15.5 37q0 23 15 37.5t37 14.5q23 0 38 -14.5t15 -37.5q0 -22 -15 -37t-38 -15zM391 726q-22 0 -37 15t-15 37q0 23 15 37.5t37 14.5q23 0 38 -14.5
t15 -37.5q0 -22 -15 -37t-38 -15z" />
    <glyph glyph-name="Eth" unicode="&#xd0;" horiz-adv-x="632" 
d="M-41 0l12 40l74 6l82 270h-79l13 39h78l80 258l-72 5l12 41h215q110 0 183 -64.5t73 -178.5q0 -79 -29.5 -154t-80 -133t-125 -93.5t-158.5 -35.5h-278zM394 355l-13 -39h-158l-83 -270h95q91 0 159.5 57t102 146t33.5 193q0 85 -41 128t-117 43h-58l-79 -258h159z" />
    <glyph glyph-name="Ntilde" unicode="&#xd1;" horiz-adv-x="641" 
d="M565 740q-20 0 -66.5 14t-61.5 14q-35 -2 -53 -41h-35q17 47 45.5 80t66.5 33q20 0 65.5 -14.5t60.5 -14.5q33 1 51 42h36q-43 -113 -109 -113zM435 0l-180 563l-156 -509l97 -14l-10 -40h-227l12 40l77 16l170 556l-70 6l12 41h165l153 -479l132 423l-75 15l12 41h193
l-12 -41l-69 -16l-184 -602h-40z" />
    <glyph glyph-name="Ograve" unicode="&#xd2;" horiz-adv-x="638" 
d="M466 718h-26l-70 64q-21 20 -21 42q0 20 14.5 33t33.5 13q32 0 44 -48zM411 670q96 0 160.5 -68t64.5 -177q0 -102 -46 -203t-132.5 -170.5t-189.5 -69.5q-96 0 -160.5 68t-64.5 177q0 102 46 203t132.5 170.5t189.5 69.5zM268 29q66 0 120.5 44.5t85.5 112.5t47.5 140.5
t16.5 138.5q0 74 -33.5 116t-93.5 42q-66 0 -120 -44.5t-85.5 -112.5t-48 -141t-16.5 -138q0 -74 33.5 -116t93.5 -42z" />
    <glyph glyph-name="Oacute" unicode="&#xd3;" horiz-adv-x="638" 
d="M430 718h-26l65 114q18 38 48 38q16 0 29.5 -13t13.5 -33q0 -28 -30 -45zM411 670q96 0 160.5 -68t64.5 -177q0 -102 -46 -203t-132.5 -170.5t-189.5 -69.5q-96 0 -160.5 68t-64.5 177q0 102 46 203t132.5 170.5t189.5 69.5zM268 29q66 0 120.5 44.5t85.5 112.5
t47.5 140.5t16.5 138.5q0 74 -33.5 116t-93.5 42q-66 0 -120 -44.5t-85.5 -112.5t-48 -141t-16.5 -138q0 -74 33.5 -116t93.5 -42z" />
    <glyph glyph-name="Ocircumflex" unicode="&#xd4;" horiz-adv-x="638" 
d="M338 718h-31l133 134h70l55 -134h-26l-75 72zM411 670q96 0 160.5 -68t64.5 -177q0 -102 -46 -203t-132.5 -170.5t-189.5 -69.5q-96 0 -160.5 68t-64.5 177q0 102 46 203t132.5 170.5t189.5 69.5zM268 29q66 0 120.5 44.5t85.5 112.5t47.5 140.5t16.5 138.5
q0 74 -33.5 116t-93.5 42q-66 0 -120 -44.5t-85.5 -112.5t-48 -141t-16.5 -138q0 -74 33.5 -116t93.5 -42z" />
    <glyph glyph-name="Otilde" unicode="&#xd5;" horiz-adv-x="638" 
d="M509 740q-20 0 -66.5 14t-61.5 14q-35 -2 -53 -41h-35q17 47 45.5 80t66.5 33q20 0 65.5 -14.5t60.5 -14.5q33 1 51 42h36q-43 -113 -109 -113zM411 670q96 0 160.5 -68t64.5 -177q0 -102 -46 -203t-132.5 -170.5t-189.5 -69.5q-96 0 -160.5 68t-64.5 177q0 102 46 203
t132.5 170.5t189.5 69.5zM268 29q66 0 120.5 44.5t85.5 112.5t47.5 140.5t16.5 138.5q0 74 -33.5 116t-93.5 42q-66 0 -120 -44.5t-85.5 -112.5t-48 -141t-16.5 -138q0 -74 33.5 -116t93.5 -42z" />
    <glyph glyph-name="Odieresis" unicode="&#xd6;" horiz-adv-x="638" 
d="M356 726q-21 0 -36.5 15t-15.5 37q0 23 15 37.5t37 14.5q23 0 38 -14.5t15 -37.5q0 -22 -15 -37t-38 -15zM540 726q-22 0 -37 15t-15 37q0 23 15 37.5t37 14.5q23 0 38 -14.5t15 -37.5q0 -22 -15 -37t-38 -15zM411 670q96 0 160.5 -68t64.5 -177q0 -102 -46 -203
t-132.5 -170.5t-189.5 -69.5q-96 0 -160.5 68t-64.5 177q0 102 46 203t132.5 170.5t189.5 69.5zM268 29q66 0 120.5 44.5t85.5 112.5t47.5 140.5t16.5 138.5q0 74 -33.5 116t-93.5 42q-66 0 -120 -44.5t-85.5 -112.5t-48 -141t-16.5 -138q0 -74 33.5 -116t93.5 -42z" />
    <glyph glyph-name="multiply" unicode="&#xd7;" horiz-adv-x="441" 
d="M93 106l-35 35l137 137l-137 137l35 34l136 -137l137 137l35 -34l-137 -137l137 -137l-35 -35l-137 137z" />
    <glyph glyph-name="Oslash" unicode="&#xd8;" horiz-adv-x="638" 
d="M6 -4l76 86q-39 61 -39 145q0 75 28 153.5t75 143t117.5 105.5t148.5 41q87 0 147 -54l65 72l28 -28l-66 -74q50 -69 50 -162q0 -102 -46 -202.5t-132.5 -170t-189.5 -69.5q-98 0 -160 67l-72 -80zM268 28q67 0 121.5 44.5t86 113t48 141.5t16.5 139q0 36 -7 60
l-380 -426q29 -72 115 -72zM138 186q0 -15 2 -39l376 420q-34 56 -104 56q-67 0 -121.5 -44.5t-86.5 -112.5t-49 -141t-17 -139z" />
    <glyph glyph-name="Ugrave" unicode="&#xd9;" horiz-adv-x="622" 
d="M507 718h-26l-70 64q-21 20 -21 42q0 20 14.5 33t33.5 13q32 0 44 -48zM283 -13q-118 0 -172.5 68t-20.5 177l116 382l-59 4l12 41h237l-12 -41l-83 -6l-117 -378q-29 -90 -0.5 -143t111.5 -53q75 0 113.5 40.5t65.5 124.5l124 401l-74 14l12 41h188l-12 -41l-64 -14
l-126 -413q-61 -204 -239 -204z" />
    <glyph glyph-name="Uacute" unicode="&#xda;" horiz-adv-x="622" 
d="M470 718h-26l65 114q18 38 48 38q16 0 29.5 -13t13.5 -33q0 -28 -30 -45zM283 -13q-118 0 -172.5 68t-20.5 177l116 382l-59 4l12 41h237l-12 -41l-83 -6l-117 -378q-29 -90 -0.5 -143t111.5 -53q75 0 113.5 40.5t65.5 124.5l124 401l-74 14l12 41h188l-12 -41l-64 -14
l-126 -413q-61 -204 -239 -204z" />
    <glyph glyph-name="Ucircumflex" unicode="&#xdb;" horiz-adv-x="622" 
d="M378 718h-31l133 134h70l55 -134h-26l-75 72zM283 -13q-118 0 -172.5 68t-20.5 177l116 382l-59 4l12 41h237l-12 -41l-83 -6l-117 -378q-29 -90 -0.5 -143t111.5 -53q75 0 113.5 40.5t65.5 124.5l124 401l-74 14l12 41h188l-12 -41l-64 -14l-126 -413
q-61 -204 -239 -204z" />
    <glyph glyph-name="Udieresis" unicode="&#xdc;" horiz-adv-x="622" 
d="M283 -13q-118 0 -172.5 68t-20.5 177l116 382l-59 4l12 41h237l-12 -41l-83 -6l-117 -378q-29 -90 -0.5 -143t111.5 -53q75 0 113.5 40.5t65.5 124.5l124 401l-74 14l12 41h188l-12 -41l-64 -14l-126 -413q-61 -204 -239 -204zM390 726q-21 0 -36.5 15t-15.5 37
q0 23 15 37.5t37 14.5q23 0 38 -14.5t15 -37.5q0 -22 -15 -37t-38 -15zM574 726q-22 0 -37 15t-15 37q0 23 15 37.5t37 14.5q23 0 38 -14.5t15 -37.5q0 -22 -15 -37t-38 -15z" />
    <glyph glyph-name="Yacute" unicode="&#xdd;" horiz-adv-x="558" 
d="M94 0l12 40l82 8l80 258l-80 308l-46 4l11 41h214l-11 -41l-70 -5l68 -263l188 249l-66 19l12 41h178l-11 -41l-59 -18l-236 -307l-75 -246l75 -7l-11 -40h-255zM428 718h-26l65 114q18 38 48 38q16 0 29.5 -13t13.5 -33q0 -28 -30 -45z" />
    <glyph glyph-name="Thorn" unicode="&#xde;" horiz-adv-x="537" 
d="M-41 0l12 40l74 6l175 567l-72 5l12 41h242l-12 -40l-75 -5l-30 -100h53q95 0 144 -45t49 -115q0 -84 -74 -139t-180 -55q-45 0 -97 11l-39 -126l73 -5l-10 -40h-245zM331 470h-60l-80 -262q30 -6 76 -6q79 0 124 46.5t45 130.5q0 91 -105 91z" />
    <glyph glyph-name="germandbls" unicode="&#xdf;" horiz-adv-x="550" 
d="M367 390q0 -10 6.5 -23.5t14 -24.5t23.5 -32.5t24 -33.5q22 -34 31.5 -49t20.5 -43t11 -52q0 -64 -47.5 -107t-120.5 -43q-63 0 -99.5 34.5t-36.5 77.5q0 36 18 55.5t42 19.5q20 0 34 -11t14 -33q0 -19 -19 -32.5t-19 -28.5q0 -18 19 -31t45 -13q38 0 62 22t24 65
q0 36 -52 111q-4 7 -18.5 27t-20.5 29.5t-15 25t-12.5 28t-3.5 24.5q0 28 25.5 61.5t55.5 60.5t55.5 63.5t25.5 68.5q0 29 -15.5 48.5t-45.5 19.5q-59 0 -97 -57q-14 -21 -25 -44t-20 -51.5t-14 -45.5t-13.5 -52t-11.5 -46q-76 -275 -109 -362q-79 -214 -179 -254
q-26 -10 -54 -10q-38 0 -65 19.5t-27 56.5q0 24 16.5 40.5t39.5 16.5q24 0 37 -13q-12 -29 -12 -54q0 -23 21 -23q30 0 56 29q23 26 43.5 68t41.5 112.5t31.5 108.5t33.5 132.5t26 107.5q22 83 46 144t58.5 113.5t82 80t107.5 27.5q61 0 96 -29.5t35 -71.5q0 -33 -26.5 -68
t-58.5 -60t-58.5 -52.5t-26.5 -46.5z" />
    <glyph glyph-name="agrave" unicode="&#xe0;" horiz-adv-x="545" 
d="M145 -18q-50 0 -82.5 37.5t-32.5 113.5q0 80 39.5 160.5t106.5 133.5t139 53q65 0 103 -46h3l11 30h80l-118 -363q-12 -39 -12 -49q0 -18 18 -18q40 0 98 58l24 -20q-31 -40 -73 -65t-83 -25q-34 0 -51 16.5t-17 43.5q0 13 6 35q-32 -39 -75 -67t-84 -28zM186 43
q66 0 127 78l83 259q-29 56 -80 56q-53 0 -99 -50t-70.5 -117t-24.5 -125q0 -53 19 -77t45 -24zM374 538h-25l-76 93q-21 26 -21 47q0 18 13 31t33 13q36 0 42 -43z" />
    <glyph glyph-name="aacute" unicode="&#xe1;" horiz-adv-x="545" 
d="M145 -18q-50 0 -82.5 37.5t-32.5 113.5q0 80 39.5 160.5t106.5 133.5t139 53q65 0 103 -46h3l11 30h80l-118 -363q-12 -39 -12 -49q0 -18 18 -18q40 0 98 58l24 -20q-31 -40 -73 -65t-83 -25q-34 0 -51 16.5t-17 43.5q0 13 6 35q-32 -39 -75 -67t-84 -28zM186 43
q66 0 127 78l83 259q-29 56 -80 56q-53 0 -99 -50t-70.5 -117t-24.5 -125q0 -53 19 -77t45 -24zM338 538h-27l87 150q16 34 47 34q16 0 27.5 -11t11.5 -29q0 -24 -31 -48z" />
    <glyph glyph-name="acircumflex" unicode="&#xe2;" horiz-adv-x="545" 
d="M145 -18q-50 0 -82.5 37.5t-32.5 113.5q0 80 39.5 160.5t106.5 133.5t139 53q65 0 103 -46h3l11 30h80l-118 -363q-12 -39 -12 -49q0 -18 18 -18q40 0 98 58l24 -20q-31 -40 -73 -65t-83 -25q-34 0 -51 16.5t-17 43.5q0 13 6 35q-32 -39 -75 -67t-84 -28zM186 43
q66 0 127 78l83 259q-29 56 -80 56q-53 0 -99 -50t-70.5 -117t-24.5 -125q0 -53 19 -77t45 -24zM253 538h-33l130 157h63l49 -157h-25l-69 87z" />
    <glyph glyph-name="atilde" unicode="&#xe3;" horiz-adv-x="545" 
d="M145 -18q-50 0 -82.5 37.5t-32.5 113.5q0 80 39.5 160.5t106.5 133.5t139 53q65 0 103 -46h3l11 30h80l-118 -363q-12 -39 -12 -49q0 -18 18 -18q40 0 98 58l24 -20q-31 -40 -73 -65t-83 -25q-34 0 -51 16.5t-17 43.5q0 13 6 35q-32 -39 -75 -67t-84 -28zM186 43
q66 0 127 78l83 259q-29 56 -80 56q-53 0 -99 -50t-70.5 -117t-24.5 -125q0 -53 19 -77t45 -24zM404 569q-23 0 -62 15.5t-52 15.5q-17 0 -28.5 -9.5t-22.5 -33.5h-35q18 47 46 79t62 32q21 0 60.5 -15.5t50.5 -15.5q17 0 27.5 10t22.5 35h36q-19 -48 -46 -80.5t-59 -32.5z
" />
    <glyph glyph-name="adieresis" unicode="&#xe4;" horiz-adv-x="545" 
d="M145 -18q-50 0 -82.5 37.5t-32.5 113.5q0 80 39.5 160.5t106.5 133.5t139 53q65 0 103 -46h3l11 30h80l-118 -363q-12 -39 -12 -49q0 -18 18 -18q40 0 98 58l24 -20q-31 -40 -73 -65t-83 -25q-34 0 -51 16.5t-17 43.5q0 13 6 35q-32 -39 -75 -67t-84 -28zM186 43
q66 0 127 78l83 259q-29 56 -80 56q-53 0 -99 -50t-70.5 -117t-24.5 -125q0 -53 19 -77t45 -24zM267 571q-22 0 -37 14.5t-15 36.5q0 23 15 36.5t37 13.5t37 -13.5t15 -36.5q0 -22 -15 -36.5t-37 -14.5zM443 571q-21 0 -36.5 15t-15.5 36q0 23 15 36.5t37 13.5t36.5 -13.5
t14.5 -36.5q0 -22 -15 -36.5t-36 -14.5z" />
    <glyph glyph-name="aring" unicode="&#xe5;" horiz-adv-x="545" 
d="M145 -18q-50 0 -82.5 37.5t-32.5 113.5q0 80 39.5 160.5t106.5 133.5t139 53q65 0 103 -46h3l11 30h80l-118 -363q-12 -39 -12 -49q0 -18 18 -18q40 0 98 58l24 -20q-31 -40 -73 -65t-83 -25q-34 0 -51 16.5t-17 43.5q0 13 6 35q-32 -39 -75 -67t-84 -28zM186 43
q66 0 127 78l83 259q-29 56 -80 56q-53 0 -99 -50t-70.5 -117t-24.5 -125q0 -53 19 -77t45 -24zM355 568q23 1 37.5 17t14.5 39q0 24 -14.5 39.5t-37.5 15.5t-37.5 -15.5t-14.5 -39.5q0 -23 14.5 -39t37.5 -17zM355 535q-38 0 -63.5 25.5t-25.5 63.5q0 37 25.5 62.5
t63.5 25.5q37 0 63 -25.5t26 -62.5q0 -38 -26 -63.5t-63 -25.5z" />
    <glyph glyph-name="ae" unicode="&#xe6;" horiz-adv-x="687" 
d="M129 -11q-52 0 -82.5 30.5t-30.5 76.5q0 76 68 110.5t209 44.5l27 87q14 44 -4.5 71t-61.5 27q-71 0 -71 -24q0 -4 10.5 -18.5t10.5 -27.5q0 -18 -13.5 -30t-34.5 -12q-24 0 -38.5 14t-14.5 40q0 46 47 74t108 28q119 0 135 -79q86 79 178 79q53 0 82 -22.5t29 -60.5
q0 -72 -96 -123q-85 -45 -209 -57q-5 -25 -5 -56q0 -118 92 -118q89 0 155 75l24 -24q-93 -112 -213 -112q-115 0 -145 108q-66 -101 -156 -101zM559 437q-62 0 -108 -53t-66 -129q94 12 151 40q61 30 61 96q0 46 -38 46zM164 46q34 0 59.5 18t55.5 55q-2 22 -2 33
q0 30 8 67q-97 -10 -136.5 -34t-39.5 -75q0 -29 14 -46.5t41 -17.5z" />
    <glyph glyph-name="ccedilla" unicode="&#xe7;" horiz-adv-x="429" 
d="M4 -200l10 31q26 -15 61 -15q25 0 41 11.5t16 34.5q0 22 -20.5 31t-51.5 4l52 97q-27 11 -46 30q-41 43 -41 122q0 127 91 230.5t202 103.5q58 0 86 -24t28 -64q0 -28 -16 -45.5t-44 -17.5q-20 0 -33.5 9t-13.5 23t11.5 35t12.5 23q-8 18 -35 18q-56 0 -102 -47t-69 -111
t-23 -124q0 -114 91 -114q80 0 156 110l25 -18q-35 -67 -89 -109t-121 -42q-12 0 -34 2l-26 -50q33 2 58.5 -15.5t25.5 -51.5q0 -42 -32 -65.5t-77 -23.5q-47 0 -93 22z" />
    <glyph glyph-name="egrave" unicode="&#xe8;" horiz-adv-x="435" 
d="M336 275q-76 -40 -211 -53q-5 -26 -5 -61q0 -118 92 -118q89 0 155 75l24 -24q-93 -112 -213 -112q-70 0 -111.5 45t-41.5 125q0 119 91 223.5t203 104.5q53 0 82 -22.5t29 -60.5q0 -73 -94 -122zM307 437q-60 0 -105.5 -51t-66.5 -125q108 13 149 34q61 30 61 96
q0 46 -38 46zM323 538h-25l-76 93q-21 26 -21 47q0 18 13 31t33 13q36 0 42 -43z" />
    <glyph glyph-name="eacute" unicode="&#xe9;" horiz-adv-x="435" 
d="M289 538h-27l87 150q16 34 47 34q16 0 27.5 -11t11.5 -29q0 -24 -31 -48zM336 275q-76 -40 -211 -53q-5 -26 -5 -61q0 -118 92 -118q89 0 155 75l24 -24q-93 -112 -213 -112q-70 0 -111.5 45t-41.5 125q0 119 91 223.5t203 104.5q53 0 82 -22.5t29 -60.5q0 -73 -94 -122z
M307 437q-60 0 -105.5 -51t-66.5 -125q108 13 149 34q61 30 61 96q0 46 -38 46z" />
    <glyph glyph-name="ecircumflex" unicode="&#xea;" horiz-adv-x="435" 
d="M200 538h-33l130 157h63l49 -157h-25l-69 87zM336 275q-76 -40 -211 -53q-5 -26 -5 -61q0 -118 92 -118q89 0 155 75l24 -24q-93 -112 -213 -112q-70 0 -111.5 45t-41.5 125q0 119 91 223.5t203 104.5q53 0 82 -22.5t29 -60.5q0 -73 -94 -122zM307 437q-60 0 -105.5 -51
t-66.5 -125q108 13 149 34q61 30 61 96q0 46 -38 46z" />
    <glyph glyph-name="edieresis" unicode="&#xeb;" horiz-adv-x="435" 
d="M218 571q-22 0 -37 14.5t-15 36.5q0 23 15 36.5t37 13.5t37 -13.5t15 -36.5q0 -22 -15 -36.5t-37 -14.5zM394 571q-21 0 -36.5 15t-15.5 36q0 23 15 36.5t37 13.5t36.5 -13.5t14.5 -36.5q0 -22 -15 -36.5t-36 -14.5zM336 275q-76 -40 -211 -53q-5 -26 -5 -61
q0 -118 92 -118q89 0 155 75l24 -24q-93 -112 -213 -112q-70 0 -111.5 45t-41.5 125q0 119 91 223.5t203 104.5q53 0 82 -22.5t29 -60.5q0 -73 -94 -122zM307 437q-60 0 -105.5 -51t-66.5 -125q108 13 149 34q61 30 61 96q0 46 -38 46z" />
    <glyph glyph-name="igrave" unicode="&#xec;" horiz-adv-x="306" 
d="M67 133l92 286h-92l14 41h31q71 0 144 13l8 -4l-123 -379q-9 -23 -9 -38q0 -18 18 -18q40 0 98 58l23 -20q-74 -90 -157 -90q-34 0 -52.5 15.5t-18.5 40.5q0 29 24 95zM219 538h-25l-76 93q-21 26 -21 47q0 18 13 31t33 13q36 0 42 -43z" />
    <glyph glyph-name="iacute" unicode="&#xed;" horiz-adv-x="306" 
d="M185 538h-27l87 150q16 34 47 34q16 0 27.5 -11t11.5 -29q0 -24 -31 -48zM67 133l92 286h-92l14 41h31q71 0 144 13l8 -4l-123 -379q-9 -23 -9 -38q0 -18 18 -18q40 0 98 58l23 -20q-74 -90 -157 -90q-34 0 -52.5 15.5t-18.5 40.5q0 29 24 95z" />
    <glyph glyph-name="icircumflex" unicode="&#xee;" horiz-adv-x="306" 
d="M95 538h-33l130 157h63l49 -157h-25l-69 87zM67 133l92 286h-92l14 41h31q71 0 144 13l8 -4l-123 -379q-9 -23 -9 -38q0 -18 18 -18q40 0 98 58l23 -20q-74 -90 -157 -90q-34 0 -52.5 15.5t-18.5 40.5q0 29 24 95z" />
    <glyph glyph-name="idieresis" unicode="&#xef;" horiz-adv-x="306" 
d="M112 571q-22 0 -37 14.5t-15 36.5q0 23 15 36.5t37 13.5t37 -13.5t15 -36.5q0 -22 -15 -36.5t-37 -14.5zM288 571q-21 0 -36.5 15t-15.5 36q0 23 15 36.5t37 13.5t36.5 -13.5t14.5 -36.5q0 -22 -15 -36.5t-36 -14.5zM67 133l92 286h-92l14 41h31q71 0 144 13l8 -4
l-123 -379q-9 -23 -9 -38q0 -18 18 -18q40 0 98 58l23 -20q-74 -90 -157 -90q-34 0 -52.5 15.5t-18.5 40.5q0 29 24 95z" />
    <glyph glyph-name="eth" unicode="&#xf0;" horiz-adv-x="489" 
d="M133 516l-17 26l126 81q-34 31 -83 66l21 29q63 -36 106 -67l99 63l18 -26l-90 -58q147 -119 147 -307q0 -84 -35.5 -162.5t-97.5 -128.5t-132 -50q-79 0 -123 51t-44 143q0 105 76.5 203.5t167.5 98.5q49 0 83 -40q-21 89 -90 162zM366 344q0 25 -3 49q-27 44 -79 44
q-39 0 -72 -31t-53 -78.5t-31 -99.5t-11 -97q0 -51 20.5 -78.5t58.5 -27.5q52 0 92 51t59 122.5t19 145.5z" />
    <glyph glyph-name="ntilde" unicode="&#xf1;" horiz-adv-x="548" 
d="M222 366h1q34 37 84 79q42 35 92 35q47 0 68.5 -25.5t21.5 -64.5q0 -25 -14 -70l-79 -230q-10 -26 -10 -38q0 -18 18 -18q22 0 49 17t47 40l24 -19q-69 -90 -156 -90q-34 0 -52.5 15.5t-18.5 40.5t25 93l68 195q9 36 9 50q0 39 -43 39q-57 0 -140 -85l-107 -330h-88
l135 419h-92l14 41h31q63 0 139 13l7 -4zM391 569q-23 0 -62 15.5t-52 15.5q-17 0 -28.5 -9.5t-22.5 -33.5h-35q18 47 46 79t62 32q21 0 60.5 -15.5t50.5 -15.5q17 0 27.5 10t22.5 35h36q-19 -48 -46 -80.5t-59 -32.5z" />
    <glyph glyph-name="ograve" unicode="&#xf2;" horiz-adv-x="484" 
d="M291 480q78 0 121.5 -51.5t43.5 -142.5q0 -70 -35.5 -140t-97 -117t-128.5 -47q-78 0 -121.5 51t-43.5 142q0 108 79.5 206.5t181.5 98.5zM289 437q-51 0 -92 -53.5t-60.5 -122t-19.5 -130.5q0 -51 20.5 -78.5t58.5 -27.5q51 0 92 52.5t60.5 121t19.5 132.5
q0 51 -20.5 78.5t-58.5 27.5zM333 538h-25l-76 93q-21 26 -21 47q0 18 13 31t33 13q36 0 42 -43z" />
    <glyph glyph-name="oacute" unicode="&#xf3;" horiz-adv-x="484" 
d="M299 538h-27l87 150q16 34 47 34q16 0 27.5 -11t11.5 -29q0 -24 -31 -48zM291 480q78 0 121.5 -51.5t43.5 -142.5q0 -70 -35.5 -140t-97 -117t-128.5 -47q-78 0 -121.5 51t-43.5 142q0 108 79.5 206.5t181.5 98.5zM289 437q-51 0 -92 -53.5t-60.5 -122t-19.5 -130.5
q0 -51 20.5 -78.5t58.5 -27.5q51 0 92 52.5t60.5 121t19.5 132.5q0 51 -20.5 78.5t-58.5 27.5z" />
    <glyph glyph-name="ocircumflex" unicode="&#xf4;" horiz-adv-x="484" 
d="M208 538h-33l130 157h63l49 -157h-25l-69 87zM291 480q78 0 121.5 -51.5t43.5 -142.5q0 -70 -35.5 -140t-97 -117t-128.5 -47q-78 0 -121.5 51t-43.5 142q0 108 79.5 206.5t181.5 98.5zM289 437q-51 0 -92 -53.5t-60.5 -122t-19.5 -130.5q0 -51 20.5 -78.5t58.5 -27.5
q51 0 92 52.5t60.5 121t19.5 132.5q0 51 -20.5 78.5t-58.5 27.5z" />
    <glyph glyph-name="otilde" unicode="&#xf5;" horiz-adv-x="484" 
d="M291 480q78 0 121.5 -51.5t43.5 -142.5q0 -70 -35.5 -140t-97 -117t-128.5 -47q-78 0 -121.5 51t-43.5 142q0 108 79.5 206.5t181.5 98.5zM289 437q-51 0 -92 -53.5t-60.5 -122t-19.5 -130.5q0 -51 20.5 -78.5t58.5 -27.5q51 0 92 52.5t60.5 121t19.5 132.5
q0 51 -20.5 78.5t-58.5 27.5zM364 569q-23 0 -62 15.5t-52 15.5q-17 0 -28.5 -9.5t-22.5 -33.5h-35q18 47 46 79t62 32q21 0 60.5 -15.5t50.5 -15.5q17 0 27.5 10t22.5 35h36q-19 -48 -46 -80.5t-59 -32.5z" />
    <glyph glyph-name="odieresis" unicode="&#xf6;" horiz-adv-x="484" 
d="M222 571q-22 0 -37 14.5t-15 36.5q0 23 15 36.5t37 13.5t37 -13.5t15 -36.5q0 -22 -15 -36.5t-37 -14.5zM398 571q-21 0 -36.5 15t-15.5 36q0 23 15 36.5t37 13.5t36.5 -13.5t14.5 -36.5q0 -22 -15 -36.5t-36 -14.5zM291 480q78 0 121.5 -51.5t43.5 -142.5
q0 -70 -35.5 -140t-97 -117t-128.5 -47q-78 0 -121.5 51t-43.5 142q0 108 79.5 206.5t181.5 98.5zM289 437q-51 0 -92 -53.5t-60.5 -122t-19.5 -130.5q0 -51 20.5 -78.5t58.5 -27.5q51 0 92 52.5t60.5 121t19.5 132.5q0 51 -20.5 78.5t-58.5 27.5z" />
    <glyph glyph-name="divide" unicode="&#xf7;" horiz-adv-x="459" 
d="M49 262v51h379v-51h-379zM239 69q-26 0 -43.5 17.5t-17.5 43.5t17.5 43t43.5 17t43 -17t17 -43t-17 -43.5t-43 -17.5zM239 385q-26 0 -43.5 17t-17.5 43t17.5 43.5t43.5 17.5t43 -17.5t17 -43.5t-17 -43t-43 -17z" />
    <glyph glyph-name="oslash" unicode="&#xf8;" horiz-adv-x="484" 
d="M-5 -16l62 71q-27 47 -27 120q0 108 79.5 206.5t181.5 98.5q66 0 107 -37l48 55l28 -24l-52 -59q34 -49 34 -129q0 -70 -35.5 -140t-97 -117t-128.5 -47q-71 0 -115 44l-58 -66zM370 331q0 7 -2 23l-244 -278q20 -51 72 -51t93.5 52.5t61 121t19.5 132.5zM289 437
q-51 0 -92.5 -53t-61.5 -122.5t-20 -130.5v-10l242 276q-19 40 -68 40z" />
    <glyph glyph-name="ugrave" unicode="&#xf9;" horiz-adv-x="545" 
d="M256 469l-114 -332q-10 -27 -10 -49q0 -41 39 -41q31 0 71 25.5t74 64.5l107 327h88l-121 -372q-11 -36 -11 -40q0 -18 19 -18q42 0 95 57l24 -19q-30 -39 -73 -64.5t-84 -25.5q-33 0 -49.5 15.5t-16.5 40.5q0 21 16 58h-3q-32 -40 -81 -76q-51 -38 -99 -38
q-42 0 -63.5 22t-21.5 60q0 30 15 78l94 277h-91l14 41h37q65 0 138 13zM361 538h-25l-76 93q-21 26 -21 47q0 18 13 31t33 13q36 0 42 -43z" />
    <glyph glyph-name="uacute" unicode="&#xfa;" horiz-adv-x="545" 
d="M349 538h-27l87 150q16 34 47 34q16 0 27.5 -11t11.5 -29q0 -24 -31 -48zM256 469l-114 -332q-10 -27 -10 -49q0 -41 39 -41q31 0 71 25.5t74 64.5l107 327h88l-121 -372q-11 -36 -11 -40q0 -18 19 -18q42 0 95 57l24 -19q-30 -39 -73 -64.5t-84 -25.5q-33 0 -49.5 15.5
t-16.5 40.5q0 21 16 58h-3q-32 -40 -81 -76q-51 -38 -99 -38q-42 0 -63.5 22t-21.5 60q0 30 15 78l94 277h-91l14 41h37q65 0 138 13z" />
    <glyph glyph-name="ucircumflex" unicode="&#xfb;" horiz-adv-x="545" 
d="M246 538h-33l130 157h63l49 -157h-25l-69 87zM256 469l-114 -332q-10 -27 -10 -49q0 -41 39 -41q31 0 71 25.5t74 64.5l107 327h88l-121 -372q-11 -36 -11 -40q0 -18 19 -18q42 0 95 57l24 -19q-30 -39 -73 -64.5t-84 -25.5q-33 0 -49.5 15.5t-16.5 40.5q0 21 16 58h-3
q-32 -40 -81 -76q-51 -38 -99 -38q-42 0 -63.5 22t-21.5 60q0 30 15 78l94 277h-91l14 41h37q65 0 138 13z" />
    <glyph glyph-name="udieresis" unicode="&#xfc;" horiz-adv-x="545" 
d="M263 571q-22 0 -37 14.5t-15 36.5q0 23 15 36.5t37 13.5t37 -13.5t15 -36.5q0 -22 -15 -36.5t-37 -14.5zM439 571q-21 0 -36.5 15t-15.5 36q0 23 15 36.5t37 13.5t36.5 -13.5t14.5 -36.5q0 -22 -15 -36.5t-36 -14.5zM256 469l-114 -332q-10 -27 -10 -49q0 -41 39 -41
q31 0 71 25.5t74 64.5l107 327h88l-121 -372q-11 -36 -11 -40q0 -18 19 -18q42 0 95 57l24 -19q-30 -39 -73 -64.5t-84 -25.5q-33 0 -49.5 15.5t-16.5 40.5q0 21 16 58h-3q-32 -40 -81 -76q-51 -38 -99 -38q-42 0 -63.5 22t-21.5 60q0 30 15 78l94 277h-91l14 41h37
q65 0 138 13z" />
    <glyph glyph-name="yacute" unicode="&#xfd;" horiz-adv-x="508" 
d="M512 464l-144 -445q-82 -269 -286 -269q-67 0 -104 32t-37 75q0 37 18 56.5t43 19.5q19 0 33 -12t14 -34q0 -18 -18.5 -30.5t-18.5 -29.5q0 -37 68 -37q126 0 196 206l37 108h-4q-33 -41 -80 -76q-51 -38 -100 -38q-40 0 -62.5 26t-22.5 62q0 37 16 71l91 270h-93l15 41
h39q64 0 137 13l7 -4l-111 -324q-10 -34 -10 -54q0 -36 39 -36q63 0 146 90l104 319h88zM333 538h-27l87 150q16 34 47 34q16 0 27.5 -11t11.5 -29q0 -24 -31 -48z" />
    <glyph glyph-name="thorn" unicode="&#xfe;" horiz-adv-x="513" 
d="M97 11l-64 -204l91 -5l-12 -38h-244l12 38l70 4l263 850l-93 -3l13 43l176 13l7 -3l-105 -323h2q97 97 168 97q53 0 81 -39t28 -98q0 -81 -37 -163t-108.5 -140t-157.5 -58q-59 0 -90 29zM332 415q-30 0 -68 -22.5t-65 -50.5l-82 -265q21 -52 76 -52q59 0 108 51.5
t73.5 121.5t24.5 136q0 81 -67 81z" />
    <glyph glyph-name="ydieresis" unicode="&#xff;" horiz-adv-x="508" 
d="M512 464l-144 -445q-82 -269 -286 -269q-67 0 -104 32t-37 75q0 37 18 56.5t43 19.5q19 0 33 -12t14 -34q0 -18 -18.5 -30.5t-18.5 -29.5q0 -37 68 -37q126 0 196 206l37 108h-4q-33 -41 -80 -76q-51 -38 -100 -38q-40 0 -62.5 26t-22.5 62q0 37 16 71l91 270h-93l15 41
h39q64 0 137 13l7 -4l-111 -324q-10 -34 -10 -54q0 -36 39 -36q63 0 146 90l104 319h88zM262 571q-22 0 -37 14.5t-15 36.5q0 23 15 36.5t37 13.5t37 -13.5t15 -36.5q0 -22 -15 -36.5t-37 -14.5zM438 571q-21 0 -36.5 15t-15.5 36q0 23 15 36.5t37 13.5t36.5 -13.5
t14.5 -36.5q0 -22 -15 -36.5t-36 -14.5z" />
    <glyph glyph-name="Amacron" unicode="&#x100;" horiz-adv-x="596" 
d="M-46 0l12 40l56 17l402 613h56l-15 -626l57 -4l-12 -40h-236l12 40l86 6l4 175h-193l-106 -164l80 -17l-11 -40h-192zM382 528l-172 -265h167l7 265h-2zM331 748l18 54h266l-16 -54h-268z" />
    <glyph glyph-name="amacron" unicode="&#x101;" horiz-adv-x="545" 
d="M145 -18q-50 0 -82.5 37.5t-32.5 113.5q0 80 39.5 160.5t106.5 133.5t139 53q65 0 103 -46h3l11 30h80l-118 -363q-12 -39 -12 -49q0 -18 18 -18q40 0 98 58l24 -20q-31 -40 -73 -65t-83 -25q-34 0 -51 16.5t-17 43.5q0 13 6 35q-32 -39 -75 -67t-84 -28zM186 43
q66 0 127 78l83 259q-29 56 -80 56q-53 0 -99 -50t-70.5 -117t-24.5 -125q0 -53 19 -77t45 -24zM226 593l17 53h244l-17 -53h-244z" />
    <glyph glyph-name="Abreve" unicode="&#x102;" horiz-adv-x="596" 
d="M-46 0l12 40l56 17l402 613h56l-15 -626l57 -4l-12 -40h-236l12 40l86 6l4 175h-193l-106 -164l80 -17l-11 -40h-192zM382 528l-172 -265h167l7 265h-2zM472 716q-60 0 -83.5 42.5t-16.5 93.5h34q-5 -70 68 -70q42 0 67 17.5t44 52.5h32q-14 -56 -54 -96t-91 -40z" />
    <glyph glyph-name="abreve" unicode="&#x103;" horiz-adv-x="545" 
d="M145 -18q-50 0 -82.5 37.5t-32.5 113.5q0 80 39.5 160.5t106.5 133.5t139 53q65 0 103 -46h3l11 30h80l-118 -363q-12 -39 -12 -49q0 -18 18 -18q40 0 98 58l24 -20q-31 -40 -73 -65t-83 -25q-34 0 -51 16.5t-17 43.5q0 13 6 35q-32 -39 -75 -67t-84 -28zM186 43
q66 0 127 78l83 259q-29 56 -80 56q-53 0 -99 -50t-70.5 -117t-24.5 -125q0 -53 19 -77t45 -24zM355 547q-53 0 -77 47.5t-15 115.5h32q-8 -93 66 -93q39 0 63 21.5t45 71.5h33q-25 -76 -59.5 -119.5t-87.5 -43.5z" />
    <glyph glyph-name="Aogonek" unicode="&#x104;" horiz-adv-x="596" 
d="M-46 0l12 40l56 17l402 614h56l-15 -627l57 -4l-12 -40h-113q-114 -83 -114 -154q0 -19 10 -30.5t28 -11.5q27 0 55 30l21 -20q-40 -60 -107 -60q-41 0 -66 22t-25 56q0 26 12 49t40 48t50.5 41t68.5 46l6 205h-193l-106 -164l80 -17l-11 -40h-192zM382 529l-172 -266
h167l7 266h-2z" />
    <glyph glyph-name="aogonek" unicode="&#x105;" horiz-adv-x="545" 
d="M336 -246q-41 0 -66.5 22.5t-25.5 57.5q0 70 129 148h-9q-33 0 -49.5 16.5t-16.5 43.5q0 5 2 17l3 17q-9 -11 -31 -33q-65 -61 -127 -61q-50 0 -82.5 37.5t-32.5 113.5q0 80 39.5 160.5t107 133.5t139.5 53q73 0 102 -49l12 33h82l-118 -363q-12 -39 -12 -49
q0 -18 18 -18q40 0 98 58l24 -20q-18 -23 -54 -53.5t-65 -53.5t-52 -55.5t-23 -63.5q0 -19 10.5 -30.5t27.5 -11.5q28 0 56 30l20 -20q-40 -60 -106 -60zM186 43q66 0 127 78l85 264q-28 51 -82 51q-53 0 -99 -50t-70.5 -117t-24.5 -125q0 -53 19 -77t45 -24z" />
    <glyph glyph-name="Cacute" unicode="&#x106;" horiz-adv-x="579" 
d="M271 -18q-99 0 -163.5 70.5t-64.5 186.5q0 104 49 203.5t134.5 163.5t183.5 64q101 0 156 -83l36 63h32l-61 -199h-36q-5 172 -122 172q-64 0 -118 -41t-87 -104t-51 -132.5t-18 -131.5q0 -86 39.5 -132t108.5 -46q63 0 109.5 27.5t91.5 92.5l29 -18q-42 -71 -106 -113.5
t-142 -42.5zM415 718h-26l65 114q18 38 48 38q16 0 29.5 -13t13.5 -33q0 -28 -30 -45z" />
    <glyph glyph-name="cacute" unicode="&#x107;" horiz-adv-x="429" 
d="M306 538h-27l87 150q16 34 47 34q16 0 27.5 -11t11.5 -29q0 -24 -31 -48zM372 329q-20 0 -33.5 9t-13.5 23t11.5 35t12.5 23q-8 18 -35 18q-56 0 -102 -47t-69 -111t-23 -124q0 -114 91 -114q80 0 156 110l25 -18q-35 -67 -89 -109t-121 -42q-75 0 -116 42t-41 122
q0 127 91 230.5t202 103.5q58 0 86 -24t28 -64q0 -28 -16 -45.5t-44 -17.5z" />
    <glyph glyph-name="Ccircumflex" unicode="&#x108;" horiz-adv-x="579" 
d="M323 718h-31l133 134h70l55 -134h-26l-75 72zM271 -18q-99 0 -163.5 70.5t-64.5 186.5q0 104 49 203.5t134.5 163.5t183.5 64q101 0 156 -83l36 63h32l-61 -199h-36q-5 172 -122 172q-64 0 -118 -41t-87 -104t-51 -132.5t-18 -131.5q0 -86 39.5 -132t108.5 -46
q63 0 109.5 27.5t91.5 92.5l29 -18q-42 -71 -106 -113.5t-142 -42.5z" />
    <glyph glyph-name="ccircumflex" unicode="&#x109;" horiz-adv-x="429" 
d="M215 538h-33l130 157h63l49 -157h-25l-69 87zM372 329q-20 0 -33.5 9t-13.5 23t11.5 35t12.5 23q-8 18 -35 18q-56 0 -102 -47t-69 -111t-23 -124q0 -114 91 -114q80 0 156 110l25 -18q-35 -67 -89 -109t-121 -42q-75 0 -116 42t-41 122q0 127 91 230.5t202 103.5
q58 0 86 -24t28 -64q0 -28 -16 -45.5t-44 -17.5z" />
    <glyph glyph-name="Cdotaccent" unicode="&#x10a;" horiz-adv-x="579" 
d="M271 -18q-99 0 -163.5 70.5t-64.5 186.5q0 104 49 203.5t134.5 163.5t183.5 64q101 0 156 -83l36 63h32l-61 -199h-36q-5 172 -122 172q-64 0 -118 -41t-87 -104t-51 -132.5t-18 -131.5q0 -86 39.5 -132t108.5 -46q63 0 109.5 27.5t91.5 92.5l29 -18q-42 -71 -106 -113.5
t-142 -42.5zM376 781q0 23 16 39t39 16t39 -16t16 -39t-16 -38.5t-39 -15.5t-39 15.5t-16 38.5z" />
    <glyph glyph-name="cdotaccent" unicode="&#x10b;" horiz-adv-x="429" 
d="M372 329q-20 0 -33.5 9t-13.5 23t11.5 35t12.5 23q-8 18 -35 18q-56 0 -102 -47t-69 -111t-23 -124q0 -114 91 -114q80 0 156 110l25 -18q-35 -67 -89 -109t-121 -42q-75 0 -116 42t-41 122q0 127 91 230.5t202 103.5q58 0 86 -24t28 -64q0 -28 -16 -45.5t-44 -17.5z
M270 626q0 22 15.5 37t37.5 15q23 0 38.5 -15t15.5 -37q0 -23 -15.5 -37.5t-38.5 -14.5q-22 0 -37.5 14.5t-15.5 37.5z" />
    <glyph glyph-name="Ccaron" unicode="&#x10c;" horiz-adv-x="579" 
d="M323 852h28l74 -73l125 73h31l-133 -134h-68zM271 -18q-99 0 -163.5 70.5t-64.5 186.5q0 104 49 203.5t134.5 163.5t183.5 64q101 0 156 -83l36 63h32l-61 -199h-36q-5 172 -122 172q-64 0 -118 -41t-87 -104t-51 -132.5t-18 -131.5q0 -86 39.5 -132t108.5 -46
q63 0 109.5 27.5t91.5 92.5l29 -18q-42 -71 -106 -113.5t-142 -42.5z" />
    <glyph glyph-name="ccaron" unicode="&#x10d;" horiz-adv-x="429" 
d="M229 704h25l69 -88l116 88h32l-129 -157h-64zM372 329q-20 0 -33.5 9t-13.5 23t11.5 35t12.5 23q-8 18 -35 18q-56 0 -102 -47t-69 -111t-23 -124q0 -114 91 -114q80 0 156 110l25 -18q-35 -67 -89 -109t-121 -42q-75 0 -116 42t-41 122q0 127 91 230.5t202 103.5
q58 0 86 -24t28 -64q0 -28 -16 -45.5t-44 -17.5z" />
    <glyph glyph-name="Dcaron" unicode="&#x10e;" horiz-adv-x="632" 
d="M328 852h28l74 -73l125 73h31l-133 -134h-68zM-41 0l12 40l74 6l174 567l-72 5l12 41h215q110 0 183 -64.5t73 -178.5q0 -79 -29.5 -154t-80 -133t-125 -93.5t-158.5 -35.5h-278zM372 613h-58l-174 -567h95q90 0 159.5 57t103.5 146t34 193q0 85 -42 128t-118 43z" />
    <glyph glyph-name="dcaron" unicode="&#x10f;" horiz-adv-x="550" 
d="M599 510l-14 22q59 52 59 106q0 18 -12 44q14 30 41 30q42 0 42 -48t-34.5 -88t-81.5 -66zM177 43q67 0 136 83l86 268q-23 42 -74 42q-59 0 -109 -52.5t-75.5 -123t-25.5 -134.5q0 -83 62 -83zM366 -18q-34 0 -51.5 16.5t-17.5 45.5q0 15 6 33h-1q-90 -95 -164 -95
q-51 0 -83.5 35t-32.5 103q0 83 41.5 166.5t113 138.5t148.5 55q53 0 92 -30l66 206l-95 -2l14 42l176 13l6 -2l-191 -606q-11 -36 -11 -49q0 -18 17 -18q42 0 99 61l24 -19q-74 -94 -156 -94z" />
    <glyph glyph-name="Dcroat" unicode="&#x110;" horiz-adv-x="632" 
d="M-41 0l12 40l74 6l82 270h-79l13 39h78l80 258l-72 5l12 41h215q110 0 183 -64.5t73 -178.5q0 -79 -29.5 -154t-80 -133t-125 -93.5t-158.5 -35.5h-278zM394 355l-13 -39h-158l-83 -270h95q91 0 159.5 57t102 146t33.5 193q0 85 -41 128t-117 43h-58l-79 -258h159z" />
    <glyph glyph-name="dslash" unicode="&#x111;" horiz-adv-x="550" 
d="M278 556l12 39h173l35 107l80 7l6 -2l-35 -112h85l-12 -39h-86l-143 -455q-11 -36 -11 -49q0 -18 17 -18q42 0 99 61l24 -19q-74 -94 -156 -94q-34 0 -51.5 16.5t-17.5 45.5q0 15 6 33h-1q-90 -95 -164 -95q-51 0 -83.5 35t-32.5 103q0 83 41.5 166.5t113 138.5t148.5 55
q53 0 92 -30l34 106h-173zM177 43q67 0 136 83l86 268q-23 42 -74 42q-59 0 -109 -52.5t-75.5 -123t-25.5 -134.5q0 -83 62 -83z" />
    <glyph glyph-name="Emacron" unicode="&#x112;" horiz-adv-x="578" 
d="M534 479l13 77q6 36 -3.5 46.5t-45.5 10.5h-183l-79 -254h83q27 0 38 8t21 32l28 70h36l-81 -267h-35l14 68q7 30 1 38.5t-32 8.5h-86l-83 -271h190q65 0 83 10t39 54l40 89h36l-59 -199h-510l12 40l75 7l173 566l-71 5l11 41h465l-54 -180h-36zM287 748l18 54h266
l-16 -54h-268z" />
    <glyph glyph-name="emacron" unicode="&#x113;" horiz-adv-x="435" 
d="M336 275q-76 -40 -211 -53q-5 -26 -5 -61q0 -118 92 -118q89 0 155 75l24 -24q-93 -112 -213 -112q-70 0 -111.5 45t-41.5 125q0 119 91 223.5t203 104.5q53 0 82 -22.5t29 -60.5q0 -73 -94 -122zM307 437q-60 0 -105.5 -51t-66.5 -125q108 13 149 34q61 30 61 96
q0 46 -38 46zM177 593l17 53h244l-17 -53h-244z" />
    <glyph glyph-name="Ebreve" unicode="&#x114;" horiz-adv-x="578" 
d="M534 479l13 77q6 36 -3.5 46.5t-45.5 10.5h-183l-79 -254h83q27 0 38 8t21 32l28 70h36l-81 -267h-35l14 68q7 30 1 38.5t-32 8.5h-86l-83 -271h190q65 0 83 10t39 54l40 89h36l-59 -199h-510l12 40l75 7l173 566l-71 5l11 41h465l-54 -180h-36zM429 716
q-60 0 -83.5 42.5t-16.5 93.5h34q-5 -70 68 -70q42 0 67 17.5t44 52.5h32q-14 -56 -54 -96t-91 -40z" />
    <glyph glyph-name="ebreve" unicode="&#x115;" horiz-adv-x="435" 
d="M336 275q-76 -40 -211 -53q-5 -26 -5 -61q0 -118 92 -118q89 0 155 75l24 -24q-93 -112 -213 -112q-70 0 -111.5 45t-41.5 125q0 119 91 223.5t203 104.5q53 0 82 -22.5t29 -60.5q0 -73 -94 -122zM307 437q-60 0 -105.5 -51t-66.5 -125q108 13 149 34q61 30 61 96
q0 46 -38 46zM305 547q-53 0 -77 47.5t-15 115.5h32q-8 -93 66 -93q39 0 63 21.5t45 71.5h33q-25 -76 -59.5 -119.5t-87.5 -43.5z" />
    <glyph glyph-name="Edotaccent" unicode="&#x116;" horiz-adv-x="578" 
d="M373 781q0 23 16 39t39 16t39 -16t16 -39t-16 -38.5t-39 -15.5t-39 15.5t-16 38.5zM534 479l13 77q6 36 -3.5 46.5t-45.5 10.5h-183l-79 -254h83q27 0 38 8t21 32l28 70h36l-81 -267h-35l14 68q7 30 1 38.5t-32 8.5h-86l-83 -271h190q65 0 83 10t39 54l40 89h36l-59 -199
h-510l12 40l75 7l173 566l-71 5l11 41h465l-54 -180h-36z" />
    <glyph glyph-name="edotaccent" unicode="&#x117;" horiz-adv-x="435" 
d="M336 275q-76 -40 -211 -53q-5 -26 -5 -61q0 -118 92 -118q89 0 155 75l24 -24q-93 -112 -213 -112q-70 0 -111.5 45t-41.5 125q0 119 91 223.5t203 104.5q53 0 82 -22.5t29 -60.5q0 -73 -94 -122zM307 437q-60 0 -105.5 -51t-66.5 -125q108 13 149 34q61 30 61 96
q0 46 -38 46zM255 626q0 22 15.5 37t37.5 15q23 0 38.5 -15t15.5 -37q0 -23 -15.5 -37.5t-38.5 -14.5q-22 0 -37.5 14.5t-15.5 37.5z" />
    <glyph glyph-name="Eogonek" unicode="&#x118;" horiz-adv-x="578" 
d="M377 -166l21 -20q-40 -60 -107 -60q-41 0 -66 22t-25 56q0 65 103 135l52 33h-396l12 40l75 7l173 566l-71 5l11 41h465l-54 -180h-36l13 77q6 36 -3.5 46.5t-45.5 10.5h-183l-79 -254h83q27 0 38 8t21 32l28 70h36l-81 -267h-35l14 68q7 30 1 38.5t-32 8.5h-86l-83 -271
h190q65 0 83 10t39 54l40 89h36l-59 -199h-71q-57 -42 -85 -79q-29 -41 -29 -75q0 -19 10 -30.5t28 -11.5q27 0 55 30z" />
    <glyph glyph-name="eogonek" unicode="&#x119;" horiz-adv-x="435" 
d="M266 -166l20 -20q-40 -60 -106 -60q-41 0 -66.5 22.5t-25.5 55.5q0 44 35.5 79.5t98.5 74.5q-17 -4 -44 -4q-70 0 -111.5 45t-41.5 125q0 119 91 223.5t203 104.5q53 0 82 -22.5t29 -60.5q0 -73 -94 -122q-76 -40 -211 -53q-5 -26 -5 -61q0 -118 92 -118q89 0 155 75
l24 -24q-21 -26 -61.5 -61.5t-73.5 -61.5t-58.5 -60t-25.5 -65q0 -19 10 -30.5t28 -11.5q26 0 56 30zM307 437q-60 0 -105.5 -51t-66.5 -125q108 13 149 34q61 30 61 96q0 46 -38 46z" />
    <glyph glyph-name="Ecaron" unicode="&#x11a;" horiz-adv-x="578" 
d="M318 852h28l74 -73l125 73h31l-133 -134h-68zM534 479l13 77q6 36 -3.5 46.5t-45.5 10.5h-183l-79 -254h83q27 0 38 8t21 32l28 70h36l-81 -267h-35l14 68q7 30 1 38.5t-32 8.5h-86l-83 -271h190q65 0 83 10t39 54l40 89h36l-59 -199h-510l12 40l75 7l173 566l-71 5
l11 41h465l-54 -180h-36z" />
    <glyph glyph-name="ecaron" unicode="&#x11b;" horiz-adv-x="435" 
d="M214 704h25l69 -88l116 88h32l-129 -157h-64zM336 275q-76 -40 -211 -53q-5 -26 -5 -61q0 -118 92 -118q89 0 155 75l24 -24q-93 -112 -213 -112q-70 0 -111.5 45t-41.5 125q0 119 91 223.5t203 104.5q53 0 82 -22.5t29 -60.5q0 -73 -94 -122zM307 437q-60 0 -105.5 -51
t-66.5 -125q108 13 149 34q61 30 61 96q0 46 -38 46z" />
    <glyph glyph-name="Gcircumflex" unicode="&#x11c;" 
d="M328 718h-31l133 134h70l55 -134h-26l-75 72zM285 -19q-110 0 -176 72t-66 187q0 102 48.5 201t134.5 164t184 65q105 0 155 -82l35 62h33l-56 -186h-37q-7 159 -126 159q-64 0 -117.5 -41t-86.5 -104t-51 -135t-18 -139q0 -83 39 -129.5t109 -46.5q80 0 116 46
q21 26 37 87l17 58l-78 7l13 39h234l-12 -39l-62 -6l-42 -137q-96 -102 -227 -102z" />
    <glyph glyph-name="gcircumflex" unicode="&#x11d;" horiz-adv-x="501" 
d="M236 538h-33l130 157h63l49 -157h-25l-69 87zM185 52q63 0 131 85l80 243q-29 56 -81 56q-56 0 -102.5 -52t-69.5 -118.5t-23 -124.5q0 -89 65 -89zM273 -4l28 84h-3q-82 -88 -157 -88q-50 0 -82 35t-32 103q0 79 40 160t107.5 135.5t139.5 54.5q66 0 104 -46h3l11 30h76
l-141 -442q-87 -272 -287 -272q-73 0 -107.5 32t-34.5 81q0 33 18 51.5t44 18.5q19 0 32.5 -11.5t13.5 -33.5q0 -18 -18.5 -31t-18.5 -30q0 -37 69 -37q63 0 110 47t85 159z" />
    <glyph glyph-name="Gbreve" unicode="&#x11e;" 
d="M437 716q-60 0 -83.5 42.5t-16.5 93.5h34q-5 -70 68 -70q42 0 67 17.5t44 52.5h32q-14 -56 -54 -96t-91 -40zM285 -19q-110 0 -176 72t-66 187q0 102 48.5 201t134.5 164t184 65q105 0 155 -82l35 62h33l-56 -186h-37q-7 159 -126 159q-64 0 -117.5 -41t-86.5 -104
t-51 -135t-18 -139q0 -83 39 -129.5t109 -46.5q80 0 116 46q21 26 37 87l17 58l-78 7l13 39h234l-12 -39l-62 -6l-42 -137q-96 -102 -227 -102z" />
    <glyph glyph-name="gbreve" unicode="&#x11f;" horiz-adv-x="501" 
d="M185 52q63 0 131 85l80 243q-29 56 -81 56q-56 0 -102.5 -52t-69.5 -118.5t-23 -124.5q0 -89 65 -89zM273 -4l28 84h-3q-82 -88 -157 -88q-50 0 -82 35t-32 103q0 79 40 160t107.5 135.5t139.5 54.5q66 0 104 -46h3l11 30h76l-141 -442q-87 -272 -287 -272
q-73 0 -107.5 32t-34.5 81q0 33 18 51.5t44 18.5q19 0 32.5 -11.5t13.5 -33.5q0 -18 -18.5 -31t-18.5 -30q0 -37 69 -37q63 0 110 47t85 159zM340 547q-53 0 -77 47.5t-15 115.5h32q-8 -93 66 -93q39 0 63 21.5t45 71.5h33q-25 -76 -59.5 -119.5t-87.5 -43.5z" />
    <glyph glyph-name="Gdotaccent" unicode="&#x120;" 
d="M381 781q0 23 16 39t39 16t39 -16t16 -39t-16 -38.5t-39 -15.5t-39 15.5t-16 38.5zM285 -19q-110 0 -176 72t-66 187q0 102 48.5 201t134.5 164t184 65q105 0 155 -82l35 62h33l-56 -186h-37q-7 159 -126 159q-64 0 -117.5 -41t-86.5 -104t-51 -135t-18 -139
q0 -83 39 -129.5t109 -46.5q80 0 116 46q21 26 37 87l17 58l-78 7l13 39h234l-12 -39l-62 -6l-42 -137q-96 -102 -227 -102z" />
    <glyph glyph-name="gdotaccent" unicode="&#x121;" horiz-adv-x="501" 
d="M185 52q63 0 131 85l80 243q-29 56 -81 56q-56 0 -102.5 -52t-69.5 -118.5t-23 -124.5q0 -89 65 -89zM273 -4l28 84h-3q-82 -88 -157 -88q-50 0 -82 35t-32 103q0 79 40 160t107.5 135.5t139.5 54.5q66 0 104 -46h3l11 30h76l-141 -442q-87 -272 -287 -272
q-73 0 -107.5 32t-34.5 81q0 33 18 51.5t44 18.5q19 0 32.5 -11.5t13.5 -33.5q0 -18 -18.5 -31t-18.5 -30q0 -37 69 -37q63 0 110 47t85 159zM289 626q0 22 15.5 37t37.5 15q23 0 38.5 -15t15.5 -37q0 -23 -15.5 -37.5t-38.5 -14.5q-22 0 -37.5 14.5t-15.5 37.5z" />
    <glyph glyph-name="Gcommaaccent" unicode="&#x122;" 
d="M119 -266l-7 32q120 23 120 82q0 15 -12 15q-3 0 -11 -6t-19 -6q-19 0 -30 12t-11 30q0 22 17.5 36.5t43.5 14.5q35 0 56 -22t21 -56q0 -107 -168 -132zM285 -19q-110 0 -176 72t-66 187q0 102 48.5 201t134.5 164t184 65q105 0 155 -82l35 62h33l-56 -186h-37
q-7 159 -126 159q-64 0 -117.5 -41t-86.5 -104t-51 -135t-18 -139q0 -83 39 -129.5t109 -46.5q80 0 116 46q21 26 37 87l17 58l-78 7l13 39h234l-12 -39l-62 -6l-42 -137q-96 -102 -227 -102z" />
    <glyph glyph-name="gcommaaccent" unicode="&#x123;" horiz-adv-x="501" 
d="M440 748l9 -32q-124 -26 -124 -84q0 -16 12 -16q3 0 11.5 6t19.5 6q20 0 30.5 -12t10.5 -30q0 -22 -17.5 -36.5t-43.5 -14.5q-36 0 -57.5 22t-21.5 57q0 109 171 134zM185 52q63 0 131 85l80 243q-29 56 -81 56q-56 0 -102.5 -52t-69.5 -118.5t-23 -124.5q0 -89 65 -89z
M273 -4l28 84h-3q-82 -88 -157 -88q-50 0 -82 35t-32 103q0 79 40 160t107.5 135.5t139.5 54.5q66 0 104 -46h3l11 30h76l-141 -442q-87 -272 -287 -272q-73 0 -107.5 32t-34.5 81q0 33 18 51.5t44 18.5q19 0 32.5 -11.5t13.5 -33.5q0 -18 -18.5 -31t-18.5 -30q0 -37 69 -37
q63 0 110 47t85 159z" />
    <glyph glyph-name="Hcircumflex" unicode="&#x124;" horiz-adv-x="669" 
d="M326 0l11 40l76 6l85 276h-273l-84 -275l70 -7l-11 -40h-241l12 40l75 7l174 566l-72 5l12 41h242l-12 -41l-75 -5l-77 -249h273l76 249l-71 5l10 41h242l-12 -41l-74 -5l-174 -567l72 -6l-12 -40h-242zM401 718h-31l133 134h70l55 -134h-26l-75 72z" />
    <glyph glyph-name="hcircumflex" unicode="&#x125;" horiz-adv-x="549" 
d="M328 707l-105 -334h1q35 36 78 72q44 35 92 35q47 0 68.5 -25.5t21.5 -64.5q0 -25 -14 -70l-79 -230q-10 -33 -10 -38q0 -18 18 -18q43 0 96 57l24 -19q-69 -90 -156 -90q-33 0 -51 15.5t-18 40.5q0 27 24 93l67 195q9 29 9 50q0 39 -43 39q-28 0 -66.5 -23t-76.5 -63
l-104 -329h-88l212 656l-94 -3l13 43l174 13zM300 808h-31l133 134h70l55 -134h-26l-75 72z" />
    <glyph glyph-name="Hbar" unicode="&#x126;" horiz-adv-x="669" 
d="M86 473l13 38h89l32 103l-72 5l12 40h242l-12 -40l-76 -5l-31 -103h273l32 103l-72 5l10 40h242l-12 -40l-73 -5l-32 -103h90l-13 -38h-89l-131 -427l72 -6l-12 -40h-242l11 40l76 6l84 274h-272l-84 -273l70 -7l-11 -40h-241l12 40l75 7l131 426h-91zM271 473l-34 -112
h273l34 112h-273z" />
    <glyph glyph-name="hbar" unicode="&#x127;" horiz-adv-x="549" 
d="M105 556l12 39h90l35 107l79 7l7 -2l-35 -112h169l-12 -39h-170l-57 -183h1q35 36 78 72q44 35 92 35q47 0 68.5 -25.5t21.5 -64.5q0 -25 -14 -70l-79 -230q-10 -33 -10 -38q0 -18 18 -18q43 0 96 57l24 -19q-69 -90 -156 -90q-33 0 -51 15.5t-18 40.5q0 27 24 93l67 195
q9 29 9 50q0 39 -43 39q-28 0 -66.5 -23t-76.5 -63l-104 -329h-88l179 556h-90z" />
    <glyph glyph-name="Itilde" unicode="&#x128;" horiz-adv-x="315" 
d="M-41 0l12 40l81 8l174 564l-78 6l12 41h254l-12 -41l-82 -5l-172 -566l80 -7l-12 -40h-257zM357 740q-20 0 -66.5 14t-61.5 14q-35 -2 -53 -41h-35q17 47 45.5 80t66.5 33q20 0 65.5 -14.5t60.5 -14.5q33 1 51 42h36q-43 -113 -109 -113z" />
    <glyph glyph-name="itilde" unicode="&#x129;" horiz-adv-x="306" 
d="M67 133l92 286h-92l14 41h31q71 0 144 13l8 -4l-123 -379q-9 -23 -9 -38q0 -18 18 -18q40 0 98 58l23 -20q-74 -90 -157 -90q-34 0 -52.5 15.5t-18.5 40.5q0 29 24 95zM250 569q-23 0 -62 15.5t-52 15.5q-17 0 -28.5 -9.5t-22.5 -33.5h-35q18 47 46 79t62 32
q21 0 60.5 -15.5t50.5 -15.5q17 0 27.5 10t22.5 35h36q-19 -48 -46 -80.5t-59 -32.5z" />
    <glyph glyph-name="Imacron" unicode="&#x12a;" horiz-adv-x="315" 
d="M-41 0l12 40l81 8l174 564l-78 6l12 41h254l-12 -41l-82 -5l-172 -566l80 -7l-12 -40h-257zM157 748l18 54h266l-16 -54h-268z" />
    <glyph glyph-name="imacron" unicode="&#x12b;" horiz-adv-x="306" 
d="M103 593l18 53h220l-17 -53h-221zM67 133l92 286h-92l14 41h31q71 0 144 13l8 -4l-123 -379q-9 -23 -9 -38q0 -18 18 -18q40 0 98 58l23 -20q-74 -90 -157 -90q-34 0 -52.5 15.5t-18.5 40.5q0 29 24 95z" />
    <glyph glyph-name="Ibreve" unicode="&#x12c;" horiz-adv-x="315" 
d="M-41 0l12 40l81 8l174 564l-78 6l12 41h254l-12 -41l-82 -5l-172 -566l80 -7l-12 -40h-257zM298 716q-60 0 -83.5 42.5t-16.5 93.5h34q-5 -70 68 -70q42 0 67 17.5t44 52.5h32q-14 -56 -54 -96t-91 -40z" />
    <glyph glyph-name="ibreve" unicode="&#x12d;" horiz-adv-x="306" 
d="M67 133l92 286h-92l14 41h31q71 0 144 13l8 -4l-123 -379q-9 -23 -9 -38q0 -18 18 -18q40 0 98 58l23 -20q-74 -90 -157 -90q-34 0 -52.5 15.5t-18.5 40.5q0 29 24 95zM200 547q-53 0 -77 47.5t-15 115.5h32q-8 -93 66 -93q39 0 63 21.5t45 71.5h33q-25 -76 -59.5 -119.5
t-87.5 -43.5z" />
    <glyph glyph-name="Iogonek" unicode="&#x12e;" horiz-adv-x="315" 
d="M83 -166l21 -20q-40 -60 -107 -60q-41 0 -66 22t-25 56q0 65 103 135l52 33h-102l12 40l81 8l174 564l-78 6l12 41h254l-12 -41l-82 -5l-172 -566l80 -7l-12 -40h-112q-57 -42 -85 -79q-29 -41 -29 -75q0 -19 10 -30.5t28 -11.5q27 0 55 30z" />
    <glyph glyph-name="iogonek" unicode="&#x12f;" horiz-adv-x="306" 
d="M264 574q-22 0 -37.5 14.5t-15.5 37.5q0 22 15.5 37t37.5 15q23 0 38.5 -15t15.5 -37q0 -23 -15.5 -37.5t-38.5 -14.5zM169 -166l20 -20q-40 -60 -107 -60q-41 0 -66 22t-25 56q0 71 127 150h-6q-33 0 -51 15.5t-18 40.5q0 29 24 95l92 286h-92l14 41h31q71 0 144 13
l8 -4l-123 -379q-9 -23 -9 -38q0 -18 18 -18q40 0 98 58l23 -20q-18 -22 -71 -63.5t-89 -81.5t-36 -81q0 -19 10.5 -30.5t28.5 -11.5q27 0 55 30z" />
    <glyph glyph-name="Idot" unicode="&#x130;" horiz-adv-x="315" 
d="M-41 0l12 40l81 8l174 564l-78 6l12 41h254l-12 -41l-82 -5l-172 -566l80 -7l-12 -40h-257zM240 781q0 23 16 39t39 16t39 -16t16 -39t-16 -38.5t-39 -15.5t-39 15.5t-16 38.5z" />
    <glyph glyph-name="dotlessi" unicode="&#x131;" horiz-adv-x="306" 
d="M67 133l92 286h-92l14 41h31q71 0 144 13l8 -4l-123 -379q-9 -23 -9 -38q0 -18 18 -18q40 0 98 58l23 -20q-74 -90 -157 -90q-34 0 -52.5 15.5t-18.5 40.5q0 29 24 95z" />
    <glyph glyph-name="IJ" unicode="&#x132;" horiz-adv-x="677" 
d="M362 -17q-50 0 -79.5 24.5t-29.5 63.5q0 31 16 48t41 17q21 0 34.5 -12t13.5 -33q0 -19 -13.5 -32t-13.5 -17q0 -16 30 -16q68 0 107 129l138 455l-76 8l13 41h238l-12 -41l-68 -8l-129 -420q-32 -102 -87 -154.5t-123 -52.5zM-41 0l12 40l81 8l174 564l-78 6l12 41h254
l-11 -41l-83 -5l-173 -566l73 -7l-12 -40h-249z" />
    <glyph glyph-name="ij" unicode="&#x133;" horiz-adv-x="557" 
d="M211 626q0 22 15.5 37t37.5 15q23 0 38.5 -15t15.5 -37q0 -23 -15.5 -37.5t-38.5 -14.5q-22 0 -37.5 14.5t-15.5 37.5zM67 133l92 286h-92l14 41h31q71 0 144 13l8 -4l-123 -379q-9 -23 -9 -38q0 -18 18 -18q40 0 98 58l23 -20q-74 -90 -157 -90q-34 0 -52.5 15.5
t-18.5 40.5q0 29 24 95zM498 626q0 22 15 36.5t37 14.5t37 -14.5t15 -36.5q0 -21 -15 -35.5t-37 -14.5t-37 14.5t-15 35.5zM164 -205q43 0 78.5 47.5t68.5 152.5l132 424h-92l14 41h34q67 0 143 13l6 -4l-142 -431q-17 -52 -38.5 -97.5t-52 -90.5t-72.5 -71.5t-90 -26.5
q-41 0 -68.5 19t-27.5 54q0 24 16.5 41.5t40.5 17.5q25 0 40 -15q-13 -31 -13 -54q0 -20 23 -20z" />
    <glyph glyph-name="Jcircumflex" unicode="&#x134;" horiz-adv-x="402" 
d="M305 718h-31l133 134h70l55 -134h-26l-75 72zM74 -62q-50 0 -79.5 24t-29.5 63q0 30 17 47.5t40 17.5q21 0 35.5 -12t14.5 -32t-14 -33.5t-14 -16.5q0 -15 30 -15q69 0 107 128l150 501l-75 8l12 41h239l-12 -41l-67 -8l-143 -466q-31 -104 -86 -155t-125 -51z" />
    <glyph glyph-name="jcircumflex" unicode="&#x135;" horiz-adv-x="273" 
d="M-120 -205q43 0 78.5 47.5t68.5 152.5l132 424h-92l14 41h34q67 0 143 13l6 -4l-142 -431q-17 -52 -38.5 -97.5t-52 -90.5t-72.5 -71.5t-90 -26.5q-41 0 -68.5 19t-27.5 54q0 24 16.5 41.5t40.5 17.5q25 0 40 -15q-13 -31 -13 -54q0 -20 23 -20zM95 538h-33l130 157h63
l49 -157h-25l-69 87z" />
    <glyph glyph-name="Kcommaaccent" unicode="&#x136;" horiz-adv-x="614" 
d="M142 -266l-7 32q120 23 120 82q0 15 -12 15q-3 0 -11 -6t-19 -6q-19 0 -30 12t-11 30q0 22 17.5 36.5t43.5 14.5q35 0 56 -22t21 -56q0 -107 -168 -132zM-41 0l12 40l76 7l174 566l-73 5l12 41h242l-11 -41l-76 -5l-174 -566l70 -7l-11 -40h-241zM306 0l12 40l64 5
l-123 295l3 14l277 246l-65 18l13 41h189l-12 -41l-64 -18l-255 -227l136 -329l50 -4l-11 -40h-214z" />
    <glyph glyph-name="kcommaaccent" unicode="&#x137;" horiz-adv-x="518" 
d="M69 -266l-7 32q120 23 120 82q0 15 -12 15q-3 0 -11 -6t-19 -6q-19 0 -30 12t-11 30q0 22 17.5 36.5t43.5 14.5q35 0 56 -22t21 -56q0 -107 -168 -132zM328 707l-134 -421h28q40 0 63.5 19.5t52.5 73.5q28 52 55.5 76.5t66.5 24.5q31 0 50.5 -16.5t19.5 -41.5
q0 -19 -14 -31t-30 -12t-21.5 4.5t-8.5 16.5q0 1 -2.5 8t-3.5 9.5t-5 5.5t-9 3q-15 0 -28.5 -16t-33.5 -52q-23 -40 -42 -59.5t-55 -30.5l-1 -4q67 -22 67 -86q0 -14 -0.5 -37.5t-0.5 -37.5l-1 -14q0 -54 37 -54q41 0 84 65l26 -17q-61 -101 -139 -101q-44 0 -66.5 28.5
t-22.5 78.5q0 28 1 62.5t1 48.5q0 25 -10 33.5t-34 8.5h-38l-76 -242h-88l213 658l-95 -5l13 43l174 13z" />
    <glyph glyph-name="Lacute" unicode="&#x139;" horiz-adv-x="532" 
d="M271 718h-26l65 114q18 38 48 38q16 0 29.5 -13t13.5 -33q0 -28 -30 -45zM-41 0l12 40l75 6l174 567l-72 5l12 41h251l-11 -41l-86 -6l-173 -566h161q53 0 74.5 18.5t53.5 91.5l30 64h39l-67 -220h-473z" />
    <glyph glyph-name="lacute" unicode="&#x13a;" horiz-adv-x="297" 
d="M294 808h-26l65 114q18 38 48 38q16 0 29.5 -13t13.5 -33q0 -28 -30 -45zM57 133l169 523l-98 -3l13 42l180 14l6 -2l-195 -617q-10 -32 -10 -38q0 -18 18 -18q44 0 100 60l22 -21q-74 -91 -158 -91q-34 0 -52.5 15.5t-18.5 40.5q0 17 24 95z" />
    <glyph glyph-name="Lcommaaccent" unicode="&#x13b;" horiz-adv-x="532" 
d="M112 -266l-7 32q120 23 120 82q0 15 -12 15q-3 0 -11 -6t-19 -6q-19 0 -30 12t-11 30q0 22 17.5 36.5t43.5 14.5q35 0 56 -22t21 -56q0 -107 -168 -132zM-41 0l12 40l75 6l174 567l-72 5l12 41h251l-11 -41l-86 -6l-173 -566h161q53 0 74.5 18.5t53.5 91.5l30 64h39
l-67 -220h-473z" />
    <glyph glyph-name="lcommaaccent" unicode="&#x13c;" horiz-adv-x="297" 
d="M-51 -266l-7 32q120 23 120 82q0 15 -12 15q-3 0 -11 -6t-19 -6q-19 0 -30 12t-11 30q0 22 17.5 36.5t43.5 14.5q35 0 56 -22t21 -56q0 -107 -168 -132zM57 133l169 523l-98 -3l13 42l180 14l6 -2l-195 -617q-10 -32 -10 -38q0 -18 18 -18q44 0 100 60l22 -21
q-74 -91 -158 -91q-34 0 -52.5 15.5t-18.5 40.5q0 17 24 95z" />
    <glyph glyph-name="Lcaron" unicode="&#x13d;" horiz-adv-x="532" 
d="M417 499l-14 22q59 52 59 106q0 18 -12 44q14 30 41 30q42 0 42 -48t-34.5 -88t-81.5 -66zM-41 0l12 40l75 6l174 567l-72 5l12 41h251l-11 -41l-86 -6l-173 -566h161q53 0 74.5 18.5t53.5 91.5l30 64h39l-67 -220h-473z" />
    <glyph glyph-name="lcaron" unicode="&#x13e;" horiz-adv-x="297" 
d="M342 510l-14 22q59 52 59 106q0 18 -12 44q13 30 41 30q42 0 42 -48t-34.5 -88t-81.5 -66zM57 133l169 523l-98 -3l13 42l180 14l6 -2l-195 -617q-10 -32 -10 -38q0 -18 18 -18q44 0 100 60l22 -21q-74 -91 -158 -91q-34 0 -52.5 15.5t-18.5 40.5q0 17 24 95z" />
    <glyph glyph-name="Ldot" unicode="&#x13f;" horiz-adv-x="532" 
d="M-43 0l12 40l75 6l174 567l-72 5l12 41h251l-11 -41l-86 -6l-173 -566h161q51 0 72.5 18t52.5 81l25 51h38l-58 -196h-473zM492 294q-27 0 -44.5 17.5t-17.5 44.5q0 26 17.5 43t44.5 17q26 0 43 -17t17 -43q0 -27 -17 -44.5t-43 -17.5z" />
    <glyph glyph-name="ldot" unicode="&#x140;" horiz-adv-x="335" 
d="M57 133l169 523l-98 -3l13 42l180 14l6 -2l-195 -617q-10 -32 -10 -38q0 -18 18 -18q44 0 100 60l22 -21q-74 -91 -158 -91q-34 0 -52.5 15.5t-18.5 40.5q0 17 24 95zM334 285q-26 0 -44 17.5t-18 44.5q0 26 18 43t44 17t43 -17t17 -43q0 -27 -17 -44.5t-43 -17.5z" />
    <glyph glyph-name="Lslash" unicode="&#x141;" horiz-adv-x="532" 
d="M13 199l13 47l95 44l99 323l-72 5l12 41h251l-11 -41l-86 -6l-83 -271l207 95l-14 -46l-207 -96l-76 -248h161q53 0 74.5 18.5t53.5 91.5l30 64h39l-67 -220h-473l12 40l75 6l60 196z" />
    <glyph glyph-name="lslash" unicode="&#x142;" horiz-adv-x="297" 
d="M25 260l15 48l89 47l97 301l-98 -3l13 42l180 14l6 -2l-93 -295l91 49l-15 -49l-92 -49l-86 -273q-10 -32 -10 -38q0 -18 18 -18q44 0 100 60l22 -21q-74 -91 -158 -91q-34 0 -52.5 15.5t-18.5 40.5q0 17 24 95l56 174z" />
    <glyph glyph-name="Nacute" unicode="&#x143;" horiz-adv-x="641" 
d="M486 718h-26l65 114q18 38 48 38q16 0 29.5 -13t13.5 -33q0 -28 -30 -45zM435 0l-180 563l-156 -509l97 -14l-10 -40h-227l12 40l77 16l170 556l-70 6l12 41h165l153 -479l132 423l-75 15l12 41h193l-12 -41l-69 -16l-184 -602h-40z" />
    <glyph glyph-name="nacute" unicode="&#x144;" horiz-adv-x="548" 
d="M329 538h-27l87 150q16 34 47 34q16 0 27.5 -11t11.5 -29q0 -24 -31 -48zM222 366h1q34 37 84 79q42 35 92 35q47 0 68.5 -25.5t21.5 -64.5q0 -25 -14 -70l-79 -230q-10 -26 -10 -38q0 -18 18 -18q22 0 49 17t47 40l24 -19q-69 -90 -156 -90q-34 0 -52.5 15.5t-18.5 40.5
t25 93l68 195q9 36 9 50q0 39 -43 39q-57 0 -140 -85l-107 -330h-88l135 419h-92l14 41h31q63 0 139 13l7 -4z" />
    <glyph glyph-name="Ncommaaccent" unicode="&#x145;" horiz-adv-x="641" 
d="M168 -266l-7 32q120 23 120 82q0 15 -12 15q-3 0 -11 -6t-19 -6q-19 0 -30 12t-11 30q0 22 17.5 36.5t43.5 14.5q35 0 56 -22t21 -56q0 -107 -168 -132zM435 0l-180 563l-156 -509l97 -14l-10 -40h-227l12 40l77 16l170 556l-70 6l12 41h165l153 -479l132 423l-75 15
l12 41h193l-12 -41l-69 -16l-184 -602h-40z" />
    <glyph glyph-name="ncommaaccent" unicode="&#x146;" horiz-adv-x="548" 
d="M109 -266l-7 32q120 23 120 82q0 15 -12 15q-3 0 -11 -6t-19 -6q-19 0 -30 12t-11 30q0 22 17.5 36.5t43.5 14.5q35 0 56 -22t21 -56q0 -107 -168 -132zM222 366h1q34 37 84 79q42 35 92 35q47 0 68.5 -25.5t21.5 -64.5q0 -25 -14 -70l-79 -230q-10 -26 -10 -38
q0 -18 18 -18q22 0 49 17t47 40l24 -19q-69 -90 -156 -90q-34 0 -52.5 15.5t-18.5 40.5t25 93l68 195q9 36 9 50q0 39 -43 39q-57 0 -140 -85l-107 -330h-88l135 419h-92l14 41h31q63 0 139 13l7 -4z" />
    <glyph glyph-name="Ncaron" unicode="&#x147;" horiz-adv-x="641" 
d="M393 852h28l74 -73l125 73h31l-133 -134h-68zM435 0l-180 563l-156 -509l97 -14l-10 -40h-227l12 40l77 16l170 556l-70 6l12 41h165l153 -479l132 423l-75 15l12 41h193l-12 -41l-69 -16l-184 -602h-40z" />
    <glyph glyph-name="ncaron" unicode="&#x148;" horiz-adv-x="548" 
d="M256 704h25l69 -88l116 88h32l-129 -157h-64zM222 366h1q34 37 84 79q42 35 92 35q47 0 68.5 -25.5t21.5 -64.5q0 -25 -14 -70l-79 -230q-10 -26 -10 -38q0 -18 18 -18q22 0 49 17t47 40l24 -19q-69 -90 -156 -90q-34 0 -52.5 15.5t-18.5 40.5t25 93l68 195q9 36 9 50
q0 39 -43 39q-57 0 -140 -85l-107 -330h-88l135 419h-92l14 41h31q63 0 139 13l7 -4z" />
    <glyph glyph-name="napostrophe" unicode="&#x149;" horiz-adv-x="548" 
d="M-47 419l-7 31q72 16 107.5 45.5t35.5 63.5q0 27 -14 27q-3 0 -14 -9t-23 -9q-23 1 -35 14.5t-12 34.5q0 25 20 42.5t50 17.5q37 0 61.5 -25t24.5 -66q0 -67 -50.5 -109.5t-143.5 -57.5zM286 366h1q34 37 84 79q42 35 92 35q47 0 68.5 -25.5t21.5 -64.5q0 -25 -14 -70
l-79 -230q-10 -26 -10 -38q0 -18 18 -18q22 0 49 17t47 40l24 -19q-69 -90 -156 -90q-34 0 -52.5 15.5t-18.5 40.5t25 93l68 195q9 36 9 50q0 39 -43 39q-57 0 -140 -85l-107 -330h-88l135 419h-92l14 41h31q63 0 139 13l7 -4z" />
    <glyph glyph-name="Eng" unicode="&#x14a;" horiz-adv-x="641" 
d="M232 -251q-52 0 -82 24t-30 63q0 30 17 47t40 17q20 0 34 -12t14 -32t-13.5 -32.5t-13.5 -15.5q0 -16 37 -16q58 0 109 51t79 149l7 27l-175 544l-157 -509l98 -14l-10 -40h-227l12 40l77 15l170 556l-70 7l12 41h165l155 -478l129 421l-74 16l12 41h193l-12 -41l-67 -16
l-186 -608q-38 -128 -101 -186.5t-142 -58.5z" />
    <glyph glyph-name="eng" unicode="&#x14b;" horiz-adv-x="524" 
d="M222 366h1q34 37 84 79q42 35 91 35q48 0 69.5 -25.5t21.5 -64.5q0 -25 -14 -70l-90 -265q-104 -303 -262 -303q-41 0 -68.5 19t-27.5 54q0 23 16.5 40t41.5 17t39 -14q-13 -22 -13 -53q0 -20 23 -20q45 0 81.5 51t72.5 164l100 316q11 25 11 50q0 39 -43 39
q-57 0 -140 -85l-107 -330h-88l135 419h-92l14 41h31q63 0 139 13l7 -4z" />
    <glyph glyph-name="Omacron" unicode="&#x14c;" horiz-adv-x="638" 
d="M306 748l18 54h266l-16 -54h-268zM411 670q96 0 160.5 -68t64.5 -177q0 -102 -46 -203t-132.5 -170.5t-189.5 -69.5q-96 0 -160.5 68t-64.5 177q0 102 46 203t132.5 170.5t189.5 69.5zM268 29q66 0 120.5 44.5t85.5 112.5t47.5 140.5t16.5 138.5q0 74 -33.5 116t-93.5 42
q-66 0 -120 -44.5t-85.5 -112.5t-48 -141t-16.5 -138q0 -74 33.5 -116t93.5 -42z" />
    <glyph glyph-name="omacron" unicode="&#x14d;" horiz-adv-x="484" 
d="M185 593l17 53h244l-17 -53h-244zM291 480q78 0 121.5 -51.5t43.5 -142.5q0 -70 -35.5 -140t-97 -117t-128.5 -47q-78 0 -121.5 51t-43.5 142q0 108 79.5 206.5t181.5 98.5zM289 437q-51 0 -92 -53.5t-60.5 -122t-19.5 -130.5q0 -51 20.5 -78.5t58.5 -27.5q51 0 92 52.5
t60.5 121t19.5 132.5q0 51 -20.5 78.5t-58.5 27.5z" />
    <glyph glyph-name="Obreve" unicode="&#x14e;" horiz-adv-x="638" 
d="M447 716q-60 0 -83.5 42.5t-16.5 93.5h34q-5 -70 68 -70q42 0 67 17.5t44 52.5h32q-14 -56 -54 -96t-91 -40zM411 670q96 0 160.5 -68t64.5 -177q0 -102 -46 -203t-132.5 -170.5t-189.5 -69.5q-96 0 -160.5 68t-64.5 177q0 102 46 203t132.5 170.5t189.5 69.5zM268 29
q66 0 120.5 44.5t85.5 112.5t47.5 140.5t16.5 138.5q0 74 -33.5 116t-93.5 42q-66 0 -120 -44.5t-85.5 -112.5t-48 -141t-16.5 -138q0 -74 33.5 -116t93.5 -42z" />
    <glyph glyph-name="obreve" unicode="&#x14f;" horiz-adv-x="484" 
d="M291 480q78 0 121.5 -51.5t43.5 -142.5q0 -70 -35.5 -140t-97 -117t-128.5 -47q-78 0 -121.5 51t-43.5 142q0 108 79.5 206.5t181.5 98.5zM289 437q-51 0 -92 -53.5t-60.5 -122t-19.5 -130.5q0 -51 20.5 -78.5t58.5 -27.5q51 0 92 52.5t60.5 121t19.5 132.5
q0 51 -20.5 78.5t-58.5 27.5zM313 547q-53 0 -77 47.5t-15 115.5h32q-8 -93 66 -93q39 0 63 21.5t45 71.5h33q-25 -76 -59.5 -119.5t-87.5 -43.5z" />
    <glyph glyph-name="Ohungarumlaut" unicode="&#x150;" horiz-adv-x="638" 
d="M375 718h-26l41 111q15 42 48 42q15 0 25.5 -11t10.5 -25q0 -20 -27 -49zM518 718h-26l41 111q15 42 48 42q15 0 25.5 -11t10.5 -25q0 -21 -26 -49zM411 670q96 0 160.5 -68t64.5 -177q0 -102 -46 -203t-132.5 -170.5t-189.5 -69.5q-96 0 -160.5 68t-64.5 177
q0 102 46 203t132.5 170.5t189.5 69.5zM268 29q66 0 120.5 44.5t85.5 112.5t47.5 140.5t16.5 138.5q0 74 -33.5 116t-93.5 42q-66 0 -120 -44.5t-85.5 -112.5t-48 -141t-16.5 -138q0 -74 33.5 -116t93.5 -42z" />
    <glyph glyph-name="ohungarumlaut" unicode="&#x151;" horiz-adv-x="484" 
d="M246 538h-26l58 147q9 20 18 28t26 8q15 0 27 -11.5t12 -30.5t-19 -38zM394 538h-27l59 147q14 36 43 36q15 0 27.5 -11.5t12.5 -30.5t-19 -38zM291 480q78 0 121.5 -51.5t43.5 -142.5q0 -70 -35.5 -140t-97 -117t-128.5 -47q-78 0 -121.5 51t-43.5 142q0 108 79.5 206.5
t181.5 98.5zM289 437q-51 0 -92 -53.5t-60.5 -122t-19.5 -130.5q0 -51 20.5 -78.5t58.5 -27.5q51 0 92 52.5t60.5 121t19.5 132.5q0 51 -20.5 78.5t-58.5 27.5z" />
    <glyph glyph-name="OE" unicode="&#x152;" horiz-adv-x="860" 
d="M750 0h-448q-114 0 -186.5 64t-72.5 178q0 106 48.5 201.5t138 155.5t199.5 60h477l-56 -180h-34l12 77q5 36 -4 46.5t-44 10.5h-175l-79 -255h80q27 0 37.5 8t20.5 32l29 71h36l-81 -267h-35l14 68q7 30 1 38.5t-32 8.5h-82l-83 -271h178q65 0 82.5 10t38.5 54l41 89h39
zM141 217q0 -85 42 -128t121 -43h32l174 567h-78q-69 0 -125.5 -33t-92 -88.5t-54.5 -126t-19 -148.5z" />
    <glyph glyph-name="oe" unicode="&#x153;" horiz-adv-x="755" 
d="M290 480q120 0 144 -116q86 116 205 116q55 0 83.5 -22.5t28.5 -60.5q0 -73 -95 -122q-77 -42 -210 -53q-6 -32 -6 -61q0 -118 92 -118q90 0 156 75l23 -24q-90 -112 -203 -112q-57 0 -93.5 26t-49.5 72q-73 -98 -170 -98q-78 0 -121.5 51t-43.5 142q0 108 79.5 206.5
t180.5 98.5zM289 437q-51 0 -92 -53.5t-60.5 -122t-19.5 -130.5q0 -51 20.5 -78.5t58.5 -27.5q51 0 92 52.5t60.5 121t19.5 132.5q0 51 -20.5 78.5t-58.5 27.5zM628 437q-60 0 -106 -51t-67 -125q107 13 151 34q60 31 60 96q0 46 -38 46z" />
    <glyph glyph-name="Racute" unicode="&#x154;" horiz-adv-x="616" 
d="M382 718h-26l65 114q18 38 48 38q16 0 29.5 -13t13.5 -33q0 -28 -30 -45zM-41 0l12 40l75 7l174 566l-72 5l12 41h212q88 0 137 -38t49 -107t-54.5 -120t-141.5 -65v-3q60 -16 83 -52t25 -101q2 -70 14.5 -100.5t46.5 -30.5q21 0 47 12l13 -31q-34 -31 -93 -31
q-75 0 -100.5 47t-19.5 148q4 74 -18 98.5t-87 24.5h-51l-81 -263l72 -7l-11 -40h-243zM362 613h-46l-81 -261h65q77 0 121 46.5t44 129.5q0 85 -103 85z" />
    <glyph glyph-name="racute" unicode="&#x155;" horiz-adv-x="424" 
d="M280 538h-27l87 150q16 34 47 34q16 0 27.5 -11t11.5 -29q0 -24 -31 -48zM254 469l-36 -109h4q32 50 63 78q49 42 97 42q30 0 47.5 -17.5t17.5 -46.5q0 -25 -16.5 -43.5t-42.5 -18.5q-27 0 -40 18q7 19 2 32.5t-20 13.5q-47 0 -122 -111l-100 -307h-88l136 419h-92l14 41
h31q65 0 138 13z" />
    <glyph glyph-name="Rcommaaccent" unicode="&#x156;" horiz-adv-x="616" 
d="M167 -266l-7 32q120 23 120 82q0 15 -12 15q-3 0 -11 -6t-19 -6q-19 0 -30 12t-11 30q0 22 17.5 36.5t43.5 14.5q35 0 56 -22t21 -56q0 -107 -168 -132zM-41 0l12 40l75 7l174 566l-72 5l12 41h212q88 0 137 -38t49 -107t-54.5 -120t-141.5 -65v-3q60 -16 83 -52t25 -101
q2 -70 14.5 -100.5t46.5 -30.5q21 0 47 12l13 -31q-34 -31 -93 -31q-75 0 -100.5 47t-19.5 148q4 74 -18 98.5t-87 24.5h-51l-81 -263l72 -7l-11 -40h-243zM362 613h-46l-81 -261h65q77 0 121 46.5t44 129.5q0 85 -103 85z" />
    <glyph glyph-name="rcommaaccent" unicode="&#x157;" horiz-adv-x="424" 
d="M-69 -266l-7 32q120 23 120 82q0 15 -12 15q-3 0 -11 -6t-19 -6q-19 0 -30 12t-11 30q0 22 17.5 36.5t43.5 14.5q35 0 56 -22t21 -56q0 -107 -168 -132zM254 469l-36 -109h4q32 50 63 78q49 42 97 42q30 0 47.5 -17.5t17.5 -46.5q0 -25 -16.5 -43.5t-42.5 -18.5
q-27 0 -40 18q7 19 2 32.5t-20 13.5q-47 0 -122 -111l-100 -307h-88l136 419h-92l14 41h31q65 0 138 13z" />
    <glyph glyph-name="Rcaron" unicode="&#x158;" horiz-adv-x="616" 
d="M289 852h28l74 -73l125 73h31l-133 -134h-68zM-41 0l12 40l75 7l174 566l-72 5l12 41h212q88 0 137 -38t49 -107t-54.5 -120t-141.5 -65v-3q60 -16 83 -52t25 -101q2 -70 14.5 -100.5t46.5 -30.5q21 0 47 12l13 -31q-34 -31 -93 -31q-75 0 -100.5 47t-19.5 148
q4 74 -18 98.5t-87 24.5h-51l-81 -263l72 -7l-11 -40h-243zM362 613h-46l-81 -261h65q77 0 121 46.5t44 129.5q0 85 -103 85z" />
    <glyph glyph-name="rcaron" unicode="&#x159;" horiz-adv-x="424" 
d="M211 704h25l69 -88l116 88h32l-129 -157h-64zM254 469l-36 -109h4q32 50 63 78q49 42 97 42q30 0 47.5 -17.5t17.5 -46.5q0 -25 -16.5 -43.5t-42.5 -18.5q-27 0 -40 18q7 19 2 32.5t-20 13.5q-47 0 -122 -111l-100 -307h-88l136 419h-92l14 41h31q65 0 138 13z" />
    <glyph glyph-name="Sacute" unicode="&#x15a;" horiz-adv-x="509" 
d="M214 521q0 -35 20.5 -64.5t71.5 -71.5q74 -63 107.5 -107.5t33.5 -101.5q0 -82 -52.5 -135t-145.5 -53q-128 0 -184 97l-43 -71h-34l61 203h36q0 -86 45 -134.5t108 -48.5q56 0 89 29.5t33 75.5q0 42 -25.5 76.5t-92.5 89.5q-57 46 -82.5 90.5t-25.5 100.5q0 78 55 126
t129 48q53 0 92.5 -21t57.5 -56l36 53h33l-51 -168h-38q-4 64 -35 105t-92 41q-47 0 -77 -28t-30 -75zM349 718h-26l65 114q18 38 48 38q16 0 29.5 -13t13.5 -33q0 -28 -30 -45z" />
    <glyph glyph-name="sacute" unicode="&#x15b;" horiz-adv-x="407" 
d="M276 538h-27l87 150q16 34 47 34q16 0 27.5 -11t11.5 -29q0 -24 -31 -48zM262 442q-76 0 -76 -63q0 -6 2 -13t6.5 -15t9 -14.5t12 -16t12.5 -15.5t14.5 -17t13.5 -16q3 -4 21.5 -25t23 -28t15 -23.5t13.5 -31t3 -31.5q0 -66 -49 -108.5t-132 -42.5q-70 0 -109.5 34.5
t-39.5 78.5q0 36 18 55.5t43 19.5q19 0 33.5 -11t14.5 -33q0 -19 -19 -32.5t-20 -29.5q1 -18 22 -31t54 -13q43 0 71.5 22t28.5 65q0 40 -72 117q-67 74 -67 128q0 53 42 90.5t111 37.5q67 0 104 -32t37 -75q0 -61 -53 -61q-19 0 -31.5 10t-12.5 27q0 12 6 22.5t14.5 19
t9.5 11.5q0 15 -20.5 27.5t-53.5 12.5z" />
    <glyph glyph-name="Scircumflex" unicode="&#x15c;" horiz-adv-x="509" 
d="M258 718h-31l133 134h70l55 -134h-26l-75 72zM214 521q0 -35 20.5 -64.5t71.5 -71.5q74 -63 107.5 -107.5t33.5 -101.5q0 -82 -52.5 -135t-145.5 -53q-128 0 -184 97l-43 -71h-34l61 203h36q0 -86 45 -134.5t108 -48.5q56 0 89 29.5t33 75.5q0 42 -25.5 76.5t-92.5 89.5
q-57 46 -82.5 90.5t-25.5 100.5q0 78 55 126t129 48q53 0 92.5 -21t57.5 -56l36 53h33l-51 -168h-38q-4 64 -35 105t-92 41q-47 0 -77 -28t-30 -75z" />
    <glyph glyph-name="scircumflex" unicode="&#x15d;" horiz-adv-x="407" 
d="M184 538h-33l130 157h63l49 -157h-25l-69 87zM262 442q-76 0 -76 -63q0 -6 2 -13t6.5 -15t9 -14.5t12 -16t12.5 -15.5t14.5 -17t13.5 -16q3 -4 21.5 -25t23 -28t15 -23.5t13.5 -31t3 -31.5q0 -66 -49 -108.5t-132 -42.5q-70 0 -109.5 34.5t-39.5 78.5q0 36 18 55.5
t43 19.5q19 0 33.5 -11t14.5 -33q0 -19 -19 -32.5t-20 -29.5q1 -18 22 -31t54 -13q43 0 71.5 22t28.5 65q0 40 -72 117q-67 74 -67 128q0 53 42 90.5t111 37.5q67 0 104 -32t37 -75q0 -61 -53 -61q-19 0 -31.5 10t-12.5 27q0 12 6 22.5t14.5 19t9.5 11.5q0 15 -20.5 27.5
t-53.5 12.5z" />
    <glyph glyph-name="Scedilla" unicode="&#x15e;" horiz-adv-x="509" 
d="M214 521q0 -35 20.5 -64.5t71.5 -71.5q74 -63 107.5 -107.5t33.5 -101.5q0 -82 -52.5 -135t-145.5 -53q-25 0 -53 5l-32 -59q33 2 58.5 -15.5t25.5 -51.5q0 -42 -32 -65.5t-77 -23.5q-46 0 -92 22l9 31q32 -15 62 -15q25 0 40.5 11.5t15.5 34.5t-20 31.5t-52 3.5l58 107
l-22 9q-48 26 -73 72l-43 -71h-34l61 203h36q0 -86 45 -134.5t108 -48.5q56 0 89 29.5t33 75.5q0 42 -25.5 76.5t-92.5 89.5q-57 46 -82.5 90.5t-25.5 100.5q0 78 55 126t129 48q53 0 92.5 -21t57.5 -56l36 53h33l-51 -168h-38q-4 64 -35 105t-92 41q-47 0 -77 -28t-30 -75z
" />
    <glyph glyph-name="scedilla" unicode="&#x15f;" horiz-adv-x="407" 
d="M-12 -200l10 31q26 -15 61 -15q25 0 41 11.5t16 34.5q0 22 -20.5 31t-51.5 4l50 93l-9 3q-40 14 -61.5 42t-21.5 60q0 36 18 55.5t43 19.5q19 0 33.5 -11t14.5 -33q0 -19 -19 -32.5t-20 -29.5q1 -18 22 -31t54 -13q43 0 71.5 22t28.5 65q0 40 -72 117q-67 74 -67 128
q0 53 42 90.5t111 37.5q67 0 104 -32t37 -75q0 -61 -53 -61q-19 0 -31.5 10t-12.5 27q0 12 6 22.5t14.5 19t9.5 11.5q0 15 -20.5 27.5t-53.5 12.5q-76 0 -76 -63q0 -6 2 -13t6.5 -15t9 -14.5t12 -16t12.5 -15.5t14.5 -17t13.5 -16q3 -4 21.5 -25t23 -28t15 -23.5t13.5 -31
t3 -31.5q0 -66 -49 -108.5t-132 -42.5q-13 0 -19 1l-26 -49q33 2 58.5 -15.5t25.5 -51.5q0 -42 -32 -65.5t-77 -23.5q-47 0 -93 22z" />
    <glyph glyph-name="Scaron" unicode="&#x160;" horiz-adv-x="509" 
d="M255 852h28l74 -73l125 73h31l-133 -134h-68zM214 521q0 -35 20.5 -64.5t71.5 -71.5q74 -63 107.5 -107.5t33.5 -101.5q0 -82 -52.5 -135t-145.5 -53q-128 0 -184 97l-43 -71h-34l61 203h36q0 -86 45 -134.5t108 -48.5q56 0 89 29.5t33 75.5q0 42 -25.5 76.5t-92.5 89.5
q-57 46 -82.5 90.5t-25.5 100.5q0 78 55 126t129 48q53 0 92.5 -21t57.5 -56l36 53h33l-51 -168h-38q-4 64 -35 105t-92 41q-47 0 -77 -28t-30 -75z" />
    <glyph glyph-name="scaron" unicode="&#x161;" horiz-adv-x="407" 
d="M206 704h25l69 -88l116 88h32l-129 -157h-64zM262 442q-76 0 -76 -63q0 -6 2 -13t6.5 -15t9 -14.5t12 -16t12.5 -15.5t14.5 -17t13.5 -16q3 -4 21.5 -25t23 -28t15 -23.5t13.5 -31t3 -31.5q0 -66 -49 -108.5t-132 -42.5q-70 0 -109.5 34.5t-39.5 78.5q0 36 18 55.5
t43 19.5q19 0 33.5 -11t14.5 -33q0 -19 -19 -32.5t-20 -29.5q1 -18 22 -31t54 -13q43 0 71.5 22t28.5 65q0 40 -72 117q-67 74 -67 128q0 53 42 90.5t111 37.5q67 0 104 -32t37 -75q0 -61 -53 -61q-19 0 -31.5 10t-12.5 27q0 12 6 22.5t14.5 19t9.5 11.5q0 15 -20.5 27.5
t-53.5 12.5z" />
    <glyph glyph-name="Tcommaaccent" unicode="&#x162;" horiz-adv-x="560" 
d="M84 -266l-7 32q120 23 120 82q0 15 -12 15q-3 0 -11 -6t-19 -6q-19 0 -30 12t-11 30q0 22 17.5 36.5t43.5 14.5q35 0 56 -22t21 -56q0 -107 -168 -132zM80 0l11 40l83 9l174 564h-63q-50 0 -70 -14t-46 -71l-37 -84h-38l66 215h497l-66 -215h-38l16 79q12 61 0.5 75.5
t-63.5 14.5h-62l-173 -565l79 -8l-12 -40h-258z" />
    <glyph glyph-name="tcommaaccent" unicode="&#x163;" horiz-adv-x="358" 
d="M-24 -266l-7 32q120 23 120 82q0 15 -12 15q-3 0 -11 -6t-19 -6q-19 0 -30 12t-11 30q0 22 17.5 36.5t43.5 14.5q35 0 56 -22t21 -56q0 -107 -168 -132zM381 464l-14 -44h-125l-104 -330q-10 -24 -10 -36q0 -14 19 -14q59 0 135 90l24 -20q-97 -128 -197 -128
q-34 0 -52.5 15.5t-18.5 40.5t24 93l92 289h-103l16 44h101l33 104h88l-34 -104h126z" />
    <glyph glyph-name="Tcaron" unicode="&#x164;" horiz-adv-x="560" 
d="M329 852h28l74 -73l125 73h31l-133 -134h-68zM80 0l11 40l83 9l174 564h-63q-50 0 -70 -14t-46 -71l-37 -84h-38l66 215h497l-66 -215h-38l16 79q12 61 0.5 75.5t-63.5 14.5h-62l-173 -565l79 -8l-12 -40h-258z" />
    <glyph glyph-name="tcaron" unicode="&#x165;" horiz-adv-x="358" 
d="M346 536l-14 22q59 52 59 106q0 18 -12 44q13 30 41 30q42 0 42 -48t-34.5 -88t-81.5 -66zM381 464l-14 -44h-125l-104 -330q-10 -24 -10 -36q0 -14 19 -14q59 0 135 90l24 -20q-97 -128 -197 -128q-34 0 -52.5 15.5t-18.5 40.5t24 93l92 289h-103l16 44h101l33 104h88
l-34 -104h126z" />
    <glyph glyph-name="Tbar" unicode="&#x166;" horiz-adv-x="560" 
d="M121 328l12 39h376l-12 -39h-376zM80 0l11 40l83 9l174 564h-63q-50 0 -70 -14t-46 -71l-37 -84h-38l66 215h497l-66 -215h-38l16 79q12 61 0.5 75.5t-63.5 14.5h-62l-173 -565l79 -8l-12 -40h-258z" />
    <glyph glyph-name="tbar" unicode="&#x167;" horiz-adv-x="358" 
d="M10 272l13 39h315l-12 -39h-316zM381 464l-14 -44h-125l-104 -330q-10 -24 -10 -36q0 -14 19 -14q59 0 135 90l24 -20q-97 -128 -197 -128q-34 0 -52.5 15.5t-18.5 40.5t24 93l92 289h-103l16 44h101l33 104h88l-34 -104h126z" />
    <glyph glyph-name="Utilde" unicode="&#x168;" horiz-adv-x="622" 
d="M283 -13q-118 0 -172.5 68t-20.5 177l116 382l-59 4l12 41h237l-12 -41l-83 -6l-117 -378q-29 -90 -0.5 -143t111.5 -53q75 0 113.5 40.5t65.5 124.5l124 401l-74 14l12 41h188l-12 -41l-64 -14l-126 -413q-61 -204 -239 -204zM548 740q-20 0 -66.5 14t-61.5 14
q-35 -2 -53 -41h-35q17 47 45.5 80t66.5 33q20 0 65.5 -14.5t60.5 -14.5q33 1 51 42h36q-43 -113 -109 -113z" />
    <glyph glyph-name="utilde" unicode="&#x169;" horiz-adv-x="545" 
d="M256 469l-114 -332q-10 -27 -10 -49q0 -41 39 -41q31 0 71 25.5t74 64.5l107 327h88l-121 -372q-11 -36 -11 -40q0 -18 19 -18q42 0 95 57l24 -19q-30 -39 -73 -64.5t-84 -25.5q-33 0 -49.5 15.5t-16.5 40.5q0 21 16 58h-3q-32 -40 -81 -76q-51 -38 -99 -38
q-42 0 -63.5 22t-21.5 60q0 30 15 78l94 277h-91l14 41h37q65 0 138 13zM411 569q-23 0 -62 15.5t-52 15.5q-17 0 -28.5 -9.5t-22.5 -33.5h-35q18 47 46 79t62 32q21 0 60.5 -15.5t50.5 -15.5q17 0 27.5 10t22.5 35h36q-19 -48 -46 -80.5t-59 -32.5z" />
    <glyph glyph-name="Umacron" unicode="&#x16a;" horiz-adv-x="622" 
d="M283 -13q-118 0 -172.5 68t-20.5 177l116 382l-59 4l12 41h237l-12 -41l-83 -6l-117 -378q-29 -90 -0.5 -143t111.5 -53q75 0 113.5 40.5t65.5 124.5l124 401l-74 14l12 41h188l-12 -41l-64 -14l-126 -413q-61 -204 -239 -204zM342 748l18 54h266l-16 -54h-268z" />
    <glyph glyph-name="umacron" unicode="&#x16b;" horiz-adv-x="545" 
d="M256 469l-114 -332q-10 -27 -10 -49q0 -41 39 -41q31 0 71 25.5t74 64.5l107 327h88l-121 -372q-11 -36 -11 -40q0 -18 19 -18q42 0 95 57l24 -19q-30 -39 -73 -64.5t-84 -25.5q-33 0 -49.5 15.5t-16.5 40.5q0 21 16 58h-3q-32 -40 -81 -76q-51 -38 -99 -38
q-42 0 -63.5 22t-21.5 60q0 30 15 78l94 277h-91l14 41h37q65 0 138 13zM226 593l17 53h244l-17 -53h-244z" />
    <glyph glyph-name="Ubreve" unicode="&#x16c;" horiz-adv-x="622" 
d="M283 -13q-118 0 -172.5 68t-20.5 177l116 382l-59 4l12 41h237l-12 -41l-83 -6l-117 -378q-29 -90 -0.5 -143t111.5 -53q75 0 113.5 40.5t65.5 124.5l124 401l-74 14l12 41h188l-12 -41l-64 -14l-126 -413q-61 -204 -239 -204zM488 716q-60 0 -83.5 42.5t-16.5 93.5h34
q-5 -70 68 -70q42 0 67 17.5t44 52.5h32q-14 -56 -54 -96t-91 -40z" />
    <glyph glyph-name="ubreve" unicode="&#x16d;" horiz-adv-x="545" 
d="M256 469l-114 -332q-10 -27 -10 -49q0 -41 39 -41q31 0 71 25.5t74 64.5l107 327h88l-121 -372q-11 -36 -11 -40q0 -18 19 -18q42 0 95 57l24 -19q-30 -39 -73 -64.5t-84 -25.5q-33 0 -49.5 15.5t-16.5 40.5q0 21 16 58h-3q-32 -40 -81 -76q-51 -38 -99 -38
q-42 0 -63.5 22t-21.5 60q0 30 15 78l94 277h-91l14 41h37q65 0 138 13zM349 547q-53 0 -77 47.5t-15 115.5h32q-8 -93 66 -93q39 0 63 21.5t45 71.5h33q-25 -76 -59.5 -119.5t-87.5 -43.5z" />
    <glyph glyph-name="Uring" unicode="&#x16e;" horiz-adv-x="622" 
d="M283 -13q-118 0 -172.5 68t-20.5 177l116 382l-59 4l12 41h237l-12 -41l-83 -6l-117 -378q-29 -90 -0.5 -143t111.5 -53q75 0 113.5 40.5t65.5 124.5l124 401l-74 14l12 41h188l-12 -41l-64 -14l-126 -413q-61 -204 -239 -204zM490 730q23 0 38 16t15 40q0 23 -15 39
t-38 16t-37.5 -15.5t-14.5 -39.5t14.5 -40t37.5 -16zM490 697q-38 0 -63 25.5t-25 63.5q0 37 25 62.5t63 25.5q37 0 63 -25.5t26 -62.5q0 -38 -26 -63.5t-63 -25.5z" />
    <glyph glyph-name="uring" unicode="&#x16f;" horiz-adv-x="545" 
d="M348 568q23 1 37.5 17t14.5 39q0 24 -14.5 39.5t-37.5 15.5t-37.5 -15.5t-14.5 -39.5q0 -23 14.5 -39t37.5 -17zM348 535q-38 0 -63.5 25.5t-25.5 63.5q0 37 25.5 62.5t63.5 25.5q37 0 63 -25.5t26 -62.5q0 -38 -26 -63.5t-63 -25.5zM256 469l-114 -332q-10 -27 -10 -49
q0 -41 39 -41q31 0 71 25.5t74 64.5l107 327h88l-121 -372q-11 -36 -11 -40q0 -18 19 -18q42 0 95 57l24 -19q-30 -39 -73 -64.5t-84 -25.5q-33 0 -49.5 15.5t-16.5 40.5q0 21 16 58h-3q-32 -40 -81 -76q-51 -38 -99 -38q-42 0 -63.5 22t-21.5 60q0 30 15 78l94 277h-91
l14 41h37q65 0 138 13z" />
    <glyph glyph-name="Uhungarumlaut" unicode="&#x170;" horiz-adv-x="622" 
d="M416 718h-26l41 111q15 42 48 42q15 0 25.5 -11t10.5 -25q0 -20 -27 -49zM559 718h-26l41 111q15 42 48 42q15 0 25.5 -11t10.5 -25q0 -21 -26 -49zM283 -13q-118 0 -172.5 68t-20.5 177l116 382l-59 4l12 41h237l-12 -41l-83 -6l-117 -378q-29 -90 -0.5 -143t111.5 -53
q75 0 113.5 40.5t65.5 124.5l124 401l-74 14l12 41h188l-12 -41l-64 -14l-126 -413q-61 -204 -239 -204z" />
    <glyph glyph-name="uhungarumlaut" unicode="&#x171;" horiz-adv-x="545" 
d="M256 469l-114 -332q-10 -27 -10 -49q0 -41 39 -41q31 0 71 25.5t74 64.5l107 327h88l-121 -372q-11 -36 -11 -40q0 -18 19 -18q42 0 95 57l24 -19q-30 -39 -73 -64.5t-84 -25.5q-33 0 -49.5 15.5t-16.5 40.5q0 21 16 58h-3q-32 -40 -81 -76q-51 -38 -99 -38
q-42 0 -63.5 22t-21.5 60q0 30 15 78l94 277h-91l14 41h37q65 0 138 13zM290 538h-26l58 147q9 20 18 28t26 8q15 0 27 -11.5t12 -30.5t-19 -38zM438 538h-27l59 147q14 36 43 36q15 0 27.5 -11.5t12.5 -30.5t-19 -38z" />
    <glyph glyph-name="Uogonek" unicode="&#x172;" horiz-adv-x="622" 
d="M295 38q75 0 113.5 40.5t65.5 124.5l124 401l-74 14l12 41h188l-12 -41l-64 -14l-126 -413q-40 -127 -126 -178q-150 -89 -150 -167q0 -42 37 -42q27 0 55 30l20 -20q-40 -60 -105 -60q-41 0 -66 22t-25 56q0 44 34.5 79t98.5 76h-13q-118 0 -172 68t-20 177l116 382
l-59 4l12 41h237l-12 -41l-83 -6l-117 -378q-29 -90 -0.5 -143t111.5 -53z" />
    <glyph glyph-name="uogonek" unicode="&#x173;" horiz-adv-x="545" 
d="M331 -246q-41 0 -65.5 22t-24.5 56q0 71 126 150h-4q-34 0 -51.5 15.5t-17.5 40.5q0 21 16 58h-3q-32 -40 -81 -76q-51 -38 -99 -38q-40 0 -62.5 26t-22.5 62q0 38 15 72l94 277h-91l14 41h37q65 0 138 13l7 -4l-114 -332q-9 -25 -9 -54q0 -36 38 -36q31 0 71 25.5
t74 64.5l107 327h88l-121 -374q-11 -29 -11 -38q0 -18 19 -18q42 0 95 57l24 -19q-19 -26 -70.5 -66.5t-86.5 -79.5t-35 -80q0 -42 37 -42q27 0 55 30l21 -20q-40 -60 -107 -60z" />
    <glyph glyph-name="Wcircumflex" unicode="&#x174;" horiz-adv-x="830" 
d="M478 718h-31l133 134h70l55 -134h-26l-75 72zM189 -12l4 626l-53 4l11 41h207l-12 -41l-60 -5l-3 -485h1l198 352v134l-50 4l12 41h194l-12 -41l-55 -5l-2 -483h2l250 472l-69 16l9 41h171l-11 -41l-46 -15l-333 -615h-60v407l-233 -407h-60z" />
    <glyph glyph-name="wcircumflex" unicode="&#x175;" horiz-adv-x="714" 
d="M373 538h-33l130 157h63l49 -157h-25l-69 87zM212 306l-59 -172q-12 -27 -12 -58q0 -38 33 -38q56 0 97.5 53t76.5 161l66 212h87l-93 -309q-17 -48 -5.5 -83t49.5 -35q48 0 92 51.5t68.5 126t24.5 144.5q0 57 -33 90q17 30 56 30q49 0 49 -71q0 -41 -13 -95t-38.5 -112
t-59 -107t-80 -80.5t-95.5 -31.5q-55 0 -82 30.5t-22 79.5h-3q-25 -49 -71 -79.5t-97 -30.5q-48 0 -72 26t-24 63q0 33 16 72l67 200q29 78 -11 78q-28 0 -74 -50l-24 20q72 89 134 89q76 0 76 -77q0 -27 -24 -97z" />
    <glyph glyph-name="Ycircumflex" unicode="&#x176;" horiz-adv-x="558" 
d="M94 0l12 40l82 8l80 258l-80 308l-46 4l11 41h214l-11 -41l-70 -5l68 -263l188 249l-66 19l12 41h178l-11 -41l-59 -18l-236 -307l-75 -246l75 -7l-11 -40h-255zM335 718h-31l133 134h70l55 -134h-26l-75 72z" />
    <glyph glyph-name="ycircumflex" unicode="&#x177;" horiz-adv-x="508" 
d="M512 464l-144 -445q-82 -269 -286 -269q-67 0 -104 32t-37 75q0 37 18 56.5t43 19.5q19 0 33 -12t14 -34q0 -18 -18.5 -30.5t-18.5 -29.5q0 -37 68 -37q126 0 196 206l37 108h-4q-33 -41 -80 -76q-51 -38 -100 -38q-40 0 -62.5 26t-22.5 62q0 37 16 71l91 270h-93l15 41
h39q64 0 137 13l7 -4l-111 -324q-10 -34 -10 -54q0 -36 39 -36q63 0 146 90l104 319h88zM244 538h-33l130 157h63l49 -157h-25l-69 87z" />
    <glyph glyph-name="Ydieresis" unicode="&#x178;" horiz-adv-x="558" 
d="M94 0l12 40l82 8l80 258l-80 308l-46 4l11 41h214l-11 -41l-70 -5l68 -263l188 249l-66 19l12 41h178l-11 -41l-59 -18l-236 -307l-75 -246l75 -7l-11 -40h-255zM353 726q-21 0 -36.5 15t-15.5 37q0 23 15 37.5t37 14.5q23 0 38 -14.5t15 -37.5q0 -22 -15 -37t-38 -15z
M537 726q-22 0 -37 15t-15 37q0 23 15 37.5t37 14.5q23 0 38 -14.5t15 -37.5q0 -22 -15 -37t-38 -15z" />
    <glyph glyph-name="Zacute" unicode="&#x179;" horiz-adv-x="530" 
d="M384 718h-26l65 114q18 38 48 38q16 0 29.5 -13t13.5 -33q0 -28 -30 -45zM112 450l64 209h431l-9 -28l-502 -585h158q56 0 82.5 7.5t38.5 22.5t30 55l47 96h37l-68 -227h-456l7 26l501 587h-157q-61 0 -80 -13.5t-44 -64.5l-42 -85h-38z" />
    <glyph glyph-name="zacute" unicode="&#x17a;" horiz-adv-x="446" 
d="M286 538h-27l87 150q16 34 47 34q16 0 27.5 -11t11.5 -29q0 -24 -31 -48zM292 -18q-53 0 -97 29q-22 13 -32 18.5t-29 11.5t-37 6q-39 -1 -89 -51l-31 33l365 359l-3 2q-38 -20 -89 -20q-50 0 -118 17l-44 -100l-31 12l69 180l8 3q95 -37 179 -37q70 1 129 30l21 -23
l-370 -362l1 -2q36 16 62 16q44 0 105 -33q60 -37 79 -37q24 0 24 31q0 30 -40 41q0 48 45 48q22 0 35 -16t13 -38q0 -49 -38 -83.5t-87 -34.5z" />
    <glyph glyph-name="Zdotaccent" unicode="&#x17b;" horiz-adv-x="530" 
d="M112 450l64 209h431l-9 -28l-502 -585h158q56 0 82.5 7.5t38.5 22.5t30 55l47 96h37l-68 -227h-456l7 26l501 587h-157q-61 0 -80 -13.5t-44 -64.5l-42 -85h-38zM349 781q0 23 16 39t39 16t39 -16t16 -39t-16 -38.5t-39 -15.5t-39 15.5t-16 38.5z" />
    <glyph glyph-name="zdotaccent" unicode="&#x17c;" horiz-adv-x="446" 
d="M292 -18q-53 0 -97 29q-22 13 -32 18.5t-29 11.5t-37 6q-39 -1 -89 -51l-31 33l365 359l-3 2q-38 -20 -89 -20q-50 0 -118 17l-44 -100l-31 12l69 180l8 3q95 -37 179 -37q70 1 129 30l21 -23l-370 -362l1 -2q36 16 62 16q44 0 105 -33q60 -37 79 -37q24 0 24 31
q0 30 -40 41q0 48 45 48q22 0 35 -16t13 -38q0 -49 -38 -83.5t-87 -34.5zM248 626q0 22 15.5 37t37.5 15q23 0 38.5 -15t15.5 -37q0 -23 -15.5 -37.5t-38.5 -14.5q-22 0 -37.5 14.5t-15.5 37.5z" />
    <glyph glyph-name="florin" unicode="&#x192;" horiz-adv-x="449" 
d="M61 324l13 44h94l19 69q62 234 230 234q60 0 90 -25.5t30 -64.5q0 -26 -15.5 -48t-43.5 -22q-21 0 -35 10.5t-15 30.5q0 20 17 34.5t17 20.5q0 21 -41 21q-42 0 -75.5 -34.5t-57.5 -123.5l-29 -102h150l-13 -44h-149l-102 -368q-56 -198 -186 -198q-46 0 -71.5 21
t-25.5 55q0 30 15 48t43 18q18 0 30 -10t12 -27q0 -12 -14.5 -28.5t-15.5 -18.5q0 -15 27 -15q59 0 89 110l109 413h-96z" />
    <glyph glyph-name="Aringacute" unicode="&#x1fa;" horiz-adv-x="596" 
d="M495 956h-26l65 114q18 38 48 38q16 0 29.5 -13t13.5 -33q0 -28 -30 -45zM470 752q23 0 38 16t15 40q0 23 -15 39t-38 16t-37.5 -15.5t-14.5 -39.5t14.5 -40t37.5 -16zM470 719q-38 0 -63 25.5t-25 63.5q0 37 25 62.5t63 25.5q37 0 63 -25.5t26 -62.5q0 -38 -26 -63.5
t-63 -25.5zM-46 0l12 40l56 17l402 613h56l-15 -626l57 -4l-12 -40h-236l12 40l86 6l4 175h-193l-106 -164l80 -17l-11 -40h-192zM382 528l-172 -265h167l7 265h-2z" />
    <glyph glyph-name="aringacute" unicode="&#x1fb;" horiz-adv-x="545" 
d="M145 -18q-50 0 -82.5 37.5t-32.5 113.5q0 80 39.5 160.5t106.5 133.5t139 53q65 0 103 -46h3l11 30h80l-118 -363q-12 -39 -12 -49q0 -18 18 -18q40 0 98 58l24 -20q-31 -40 -73 -65t-83 -25q-34 0 -51 16.5t-17 43.5q0 13 6 35q-32 -39 -75 -67t-84 -28zM186 43
q66 0 127 78l83 259q-29 56 -80 56q-53 0 -99 -50t-70.5 -117t-24.5 -125q0 -53 19 -77t45 -24zM355 558q23 1 37.5 17t14.5 39q0 24 -14.5 39.5t-37.5 15.5t-37.5 -15.5t-14.5 -39.5q0 -23 14.5 -39t37.5 -17zM355 525q-38 0 -63.5 25.5t-25.5 63.5q0 37 25.5 62.5
t63.5 25.5q37 0 63 -25.5t26 -62.5q0 -38 -26 -63.5t-63 -25.5zM388 775h-26l65 114q18 38 48 38q16 0 29.5 -13t13.5 -33q0 -29 -30 -45z" />
    <glyph glyph-name="AEacute" unicode="&#x1fc;" horiz-adv-x="864" 
d="M722 718h-26l65 114q18 38 48 38q16 0 29.5 -13t13.5 -33q0 -28 -30 -45zM856 479h-36l12 77q6 36 -3 46.5t-45 10.5h-183l-78 -255h83q27 0 37.5 8t20.5 32l29 70h36l-81 -266h-35l14 67q7 31 1 39.5t-32 8.5h-86l-82 -271h186q66 0 83.5 10t38.5 54l41 89h37l-60 -199
h-508l12 40l74 7l80 259h-148l-200 -249l83 -17l-11 -40h-192l12 40l50 16l450 555l-83 7l12 41h525zM498 595l-200 -247h127l76 247h-3z" />
    <glyph glyph-name="aeacute" unicode="&#x1fd;" horiz-adv-x="687" 
d="M455 538h-27l87 150q16 34 47 34q16 0 27.5 -11t11.5 -29q0 -24 -31 -48zM129 -11q-52 0 -82.5 30.5t-30.5 76.5q0 76 68 110.5t209 44.5l27 87q14 44 -4.5 71t-61.5 27q-71 0 -71 -24q0 -4 10.5 -18.5t10.5 -27.5q0 -18 -13.5 -30t-34.5 -12q-24 0 -38.5 14t-14.5 40
q0 46 47 74t108 28q119 0 135 -79q86 79 178 79q53 0 82 -22.5t29 -60.5q0 -72 -96 -123q-85 -45 -209 -57q-5 -25 -5 -56q0 -118 92 -118q89 0 155 75l24 -24q-93 -112 -213 -112q-115 0 -145 108q-66 -101 -156 -101zM559 437q-62 0 -108 -53t-66 -129q94 12 151 40
q61 30 61 96q0 46 -38 46zM164 46q34 0 59.5 18t55.5 55q-2 22 -2 33q0 30 8 67q-97 -10 -136.5 -34t-39.5 -75q0 -29 14 -46.5t41 -17.5z" />
    <glyph glyph-name="Oslashacute" unicode="&#x1fe;" horiz-adv-x="638" 
d="M6 -4l76 86q-39 61 -39 145q0 75 28 153.5t75 143t117.5 105.5t148.5 41q87 0 147 -54l65 72l28 -28l-66 -74q50 -69 50 -162q0 -102 -46 -202.5t-132.5 -170t-189.5 -69.5q-98 0 -160 67l-72 -80zM268 28q67 0 121.5 44.5t86 113t48 141.5t16.5 139q0 36 -7 60
l-380 -426q29 -72 115 -72zM138 186q0 -15 2 -39l376 420q-34 56 -104 56q-67 0 -121.5 -44.5t-86.5 -112.5t-49 -141t-17 -139zM430 718h-26l65 114q18 38 48 38q16 0 29.5 -13t13.5 -33q0 -28 -30 -45z" />
    <glyph glyph-name="oslashacute" unicode="&#x1ff;" horiz-adv-x="484" 
d="M-5 -16l62 71q-27 47 -27 120q0 108 79.5 206.5t181.5 98.5q66 0 107 -37l48 55l28 -24l-52 -59q34 -49 34 -129q0 -70 -35.5 -140t-97 -117t-128.5 -47q-71 0 -115 44l-58 -66zM370 331q0 7 -2 23l-244 -278q20 -51 72 -51t93.5 52.5t61 121t19.5 132.5zM289 437
q-51 0 -92.5 -53t-61.5 -122.5t-20 -130.5v-10l242 276q-19 40 -68 40zM299 538h-27l87 150q16 34 47 34q16 0 27.5 -11t11.5 -29q0 -24 -31 -48z" />
    <glyph glyph-name="Scommaaccent" unicode="&#x218;" horiz-adv-x="509" 
d="M69 -266l-7 32q120 23 120 82q0 15 -12 15q-3 0 -11 -6t-19 -6q-19 0 -30 12t-11 30q0 22 17.5 36.5t43.5 14.5q35 0 56 -22t21 -56q0 -107 -168 -132zM214 521q0 -35 20.5 -64.5t71.5 -71.5q74 -63 107.5 -107.5t33.5 -101.5q0 -82 -52.5 -135t-145.5 -53
q-128 0 -184 97l-43 -71h-34l61 203h36q0 -86 45 -134.5t108 -48.5q56 0 89 29.5t33 75.5q0 42 -25.5 76.5t-92.5 89.5q-57 46 -82.5 90.5t-25.5 100.5q0 78 55 126t129 48q53 0 92.5 -21t57.5 -56l36 53h33l-51 -168h-38q-4 64 -35 105t-92 41q-47 0 -77 -28t-30 -75z" />
    <glyph glyph-name="scommaaccent" unicode="&#x219;" horiz-adv-x="407" 
d="M-4 -266l-7 32q120 23 120 82q0 15 -12 15q-3 0 -11 -6t-19 -6q-19 0 -30 12t-11 30q0 22 17.5 36.5t43.5 14.5q35 0 56 -22t21 -56q0 -107 -168 -132zM262 442q-76 0 -76 -63q0 -6 2 -13t6.5 -15t9 -14.5t12 -16t12.5 -15.5t14.5 -17t13.5 -16q3 -4 21.5 -25t23 -28
t15 -23.5t13.5 -31t3 -31.5q0 -66 -49 -108.5t-132 -42.5q-70 0 -109.5 34.5t-39.5 78.5q0 36 18 55.5t43 19.5q19 0 33.5 -11t14.5 -33q0 -19 -19 -32.5t-20 -29.5q1 -18 22 -31t54 -13q43 0 71.5 22t28.5 65q0 40 -72 117q-67 74 -67 128q0 53 42 90.5t111 37.5
q67 0 104 -32t37 -75q0 -61 -53 -61q-19 0 -31.5 10t-12.5 27q0 12 6 22.5t14.5 19t9.5 11.5q0 15 -20.5 27.5t-53.5 12.5z" />
    <glyph glyph-name="uni021A" unicode="&#x21a;" horiz-adv-x="560" 
d="M84 -266l-7 32q120 23 120 82q0 15 -12 15q-3 0 -11 -6t-19 -6q-19 0 -30 12t-11 30q0 22 17.5 36.5t43.5 14.5q35 0 56 -22t21 -56q0 -107 -168 -132zM80 0l11 40l83 9l174 564h-63q-50 0 -70 -14t-46 -71l-37 -84h-38l66 215h497l-66 -215h-38l16 79q12 61 0.5 75.5
t-63.5 14.5h-62l-173 -565l79 -8l-12 -40h-258z" />
    <glyph glyph-name="uni021B" unicode="&#x21b;" horiz-adv-x="358" 
d="M-24 -266l-7 32q120 23 120 82q0 15 -12 15q-3 0 -11 -6t-19 -6q-19 0 -30 12t-11 30q0 22 17.5 36.5t43.5 14.5q35 0 56 -22t21 -56q0 -107 -168 -132zM381 464l-14 -44h-125l-104 -330q-10 -24 -10 -36q0 -14 19 -14q59 0 135 90l24 -20q-97 -128 -197 -128
q-34 0 -52.5 15.5t-18.5 40.5t24 93l92 289h-103l16 44h101l33 104h88l-34 -104h126z" />
    <glyph glyph-name="uni0237" unicode="&#x237;" horiz-adv-x="273" 
d="M-120 -205q43 0 78.5 47.5t68.5 152.5l132 424h-92l14 41h34q67 0 143 13l6 -4l-142 -431q-17 -52 -38.5 -97.5t-52 -90.5t-72.5 -71.5t-90 -26.5q-41 0 -68.5 19t-27.5 54q0 24 16.5 41.5t40.5 17.5q25 0 40 -15q-13 -31 -13 -54q0 -20 23 -20z" />
    <glyph glyph-name="circumflex" unicode="&#x2c6;" horiz-adv-x="480" 
d="M295 538h-33l130 157h63l49 -157h-25l-69 87z" />
    <glyph glyph-name="caron" unicode="&#x2c7;" horiz-adv-x="480" 
d="M246 704h25l69 -88l116 88h32l-129 -157h-64z" />
    <glyph glyph-name="breve" unicode="&#x2d8;" horiz-adv-x="480" 
d="M355 547q-53 0 -77 47.5t-15 115.5h32q-8 -93 66 -93q39 0 63 21.5t45 71.5h33q-25 -76 -59.5 -119.5t-87.5 -43.5z" />
    <glyph glyph-name="dotaccent" unicode="&#x2d9;" horiz-adv-x="480" 
d="M287 626q0 22 15.5 37t37.5 15q23 0 38.5 -15t15.5 -37q0 -23 -15.5 -37.5t-38.5 -14.5q-22 0 -37.5 14.5t-15.5 37.5z" />
    <glyph glyph-name="ring" unicode="&#x2da;" horiz-adv-x="480" 
d="M348 568q23 1 37.5 17t14.5 39q0 24 -14.5 39.5t-37.5 15.5t-37.5 -15.5t-14.5 -39.5q0 -23 14.5 -39t37.5 -17zM348 535q-38 0 -63.5 25.5t-25.5 63.5q0 37 25.5 62.5t63.5 25.5q37 0 63 -25.5t26 -62.5q0 -38 -26 -63.5t-63 -25.5z" />
    <glyph glyph-name="ogonek" unicode="&#x2db;" horiz-adv-x="480" 
d="M320 -166l21 -20q-40 -60 -107 -60q-41 0 -66 22t-25 56q0 25 12.5 48.5t40 46.5t49.5 38t62 40h42q-122 -87 -122 -159q0 -19 10 -30.5t28 -11.5q27 0 55 30z" />
    <glyph glyph-name="tilde" unicode="&#x2dc;" horiz-adv-x="480" 
d="M397 569q-23 0 -62 15.5t-52 15.5q-17 0 -28.5 -9.5t-22.5 -33.5h-35q18 47 46 79t62 32q21 0 60.5 -15.5t50.5 -15.5q17 0 27.5 10t22.5 35h36q-19 -48 -46 -80.5t-59 -32.5z" />
    <glyph glyph-name="hungarumlaut" unicode="&#x2dd;" horiz-adv-x="480" 
d="M198 538h-26l58 147q9 20 18 28t26 8q15 0 27 -11.5t12 -30.5t-19 -38zM346 538h-27l59 147q14 36 43 36q15 0 27.5 -11.5t12.5 -30.5t-19 -38z" />
    <glyph glyph-name="Wgrave" unicode="&#x1e80;" horiz-adv-x="830" 
d="M606 718h-26l-70 64q-21 20 -21 42q0 20 14.5 33t33.5 13q32 0 44 -48zM189 -12l4 626l-53 4l11 41h207l-12 -41l-60 -5l-3 -485h1l198 352v134l-50 4l12 41h194l-12 -41l-55 -5l-2 -483h2l250 472l-69 16l9 41h171l-11 -41l-46 -15l-333 -615h-60v407l-233 -407h-60z
" />
    <glyph glyph-name="wgrave" unicode="&#x1e81;" horiz-adv-x="714" 
d="M212 306l-59 -172q-12 -27 -12 -58q0 -38 33 -38q56 0 97.5 53t76.5 161l66 212h87l-93 -309q-17 -48 -5.5 -83t49.5 -35q48 0 92 51.5t68.5 126t24.5 144.5q0 57 -33 90q17 30 56 30q49 0 49 -71q0 -41 -13 -95t-38.5 -112t-59 -107t-80 -80.5t-95.5 -31.5
q-55 0 -82 30.5t-22 79.5h-3q-25 -49 -71 -79.5t-97 -30.5q-48 0 -72 26t-24 63q0 33 16 72l67 200q29 78 -11 78q-28 0 -74 -50l-24 20q72 89 134 89q76 0 76 -77q0 -27 -24 -97zM509 538h-25l-76 93q-21 26 -21 47q0 18 13 31t33 13q36 0 42 -43z" />
    <glyph glyph-name="Wacute" unicode="&#x1e82;" horiz-adv-x="830" 
d="M567 718h-26l65 114q18 38 48 38q16 0 29.5 -13t13.5 -33q0 -28 -30 -45zM189 -12l4 626l-53 4l11 41h207l-12 -41l-60 -5l-3 -485h1l198 352v134l-50 4l12 41h194l-12 -41l-55 -5l-2 -483h2l250 472l-69 16l9 41h171l-11 -41l-46 -15l-333 -615h-60v407l-233 -407h-60z
" />
    <glyph glyph-name="wacute" unicode="&#x1e83;" horiz-adv-x="714" 
d="M473 538h-27l87 150q16 34 47 34q16 0 27.5 -11t11.5 -29q0 -24 -31 -48zM212 306l-59 -172q-12 -27 -12 -58q0 -38 33 -38q56 0 97.5 53t76.5 161l66 212h87l-93 -309q-17 -48 -5.5 -83t49.5 -35q48 0 92 51.5t68.5 126t24.5 144.5q0 57 -33 90q17 30 56 30q49 0 49 -71
q0 -41 -13 -95t-38.5 -112t-59 -107t-80 -80.5t-95.5 -31.5q-55 0 -82 30.5t-22 79.5h-3q-25 -49 -71 -79.5t-97 -30.5q-48 0 -72 26t-24 63q0 33 16 72l67 200q29 78 -11 78q-28 0 -74 -50l-24 20q72 89 134 89q76 0 76 -77q0 -27 -24 -97z" />
    <glyph glyph-name="Wdieresis" unicode="&#x1e84;" horiz-adv-x="830" 
d="M189 -12l4 626l-53 4l11 41h207l-12 -41l-60 -5l-3 -485h1l198 352v134l-50 4l12 41h194l-12 -41l-55 -5l-2 -483h2l250 472l-69 16l9 41h171l-11 -41l-46 -15l-333 -615h-60v407l-233 -407h-60zM495 726q-21 0 -36.5 15t-15.5 37q0 23 15 37.5t37 14.5q23 0 38 -14.5
t15 -37.5q0 -22 -15 -37t-38 -15zM679 726q-22 0 -37 15t-15 37q0 23 15 37.5t37 14.5q23 0 38 -14.5t15 -37.5q0 -22 -15 -37t-38 -15z" />
    <glyph glyph-name="wdieresis" unicode="&#x1e85;" horiz-adv-x="714" 
d="M389 571q-22 0 -37 14.5t-15 36.5q0 23 15 36.5t37 13.5t37 -13.5t15 -36.5q0 -22 -15 -36.5t-37 -14.5zM565 571q-21 0 -36.5 15t-15.5 36q0 23 15 36.5t37 13.5t36.5 -13.5t14.5 -36.5q0 -22 -15 -36.5t-36 -14.5zM212 306l-59 -172q-12 -27 -12 -58q0 -38 33 -38
q56 0 97.5 53t76.5 161l66 212h87l-93 -309q-17 -48 -5.5 -83t49.5 -35q48 0 92 51.5t68.5 126t24.5 144.5q0 57 -33 90q17 30 56 30q49 0 49 -71q0 -41 -13 -95t-38.5 -112t-59 -107t-80 -80.5t-95.5 -31.5q-55 0 -82 30.5t-22 79.5h-3q-25 -49 -71 -79.5t-97 -30.5
q-48 0 -72 26t-24 63q0 33 16 72l67 200q29 78 -11 78q-28 0 -74 -50l-24 20q72 89 134 89q76 0 76 -77q0 -27 -24 -97z" />
    <glyph glyph-name="Ygrave" unicode="&#x1ef2;" horiz-adv-x="558" 
d="M94 0l12 40l82 8l80 258l-80 308l-46 4l11 41h214l-11 -41l-70 -5l68 -263l188 249l-66 19l12 41h178l-11 -41l-59 -18l-236 -307l-75 -246l75 -7l-11 -40h-255zM466 718h-26l-70 64q-21 20 -21 42q0 20 14.5 33t33.5 13q32 0 44 -48z" />
    <glyph glyph-name="ygrave" unicode="&#x1ef3;" horiz-adv-x="508" 
d="M512 464l-144 -445q-82 -269 -286 -269q-67 0 -104 32t-37 75q0 37 18 56.5t43 19.5q19 0 33 -12t14 -34q0 -18 -18.5 -30.5t-18.5 -29.5q0 -37 68 -37q126 0 196 206l37 108h-4q-33 -41 -80 -76q-51 -38 -100 -38q-40 0 -62.5 26t-22.5 62q0 37 16 71l91 270h-93l15 41
h39q64 0 137 13l7 -4l-111 -324q-10 -34 -10 -54q0 -36 39 -36q63 0 146 90l104 319h88zM367 538h-25l-76 93q-21 26 -21 47q0 18 13 31t33 13q36 0 42 -43z" />
    <glyph glyph-name="uni2009" unicode="&#x2009;" horiz-adv-x="80" 
 />
    <glyph glyph-name="endash" unicode="&#x2013;" horiz-adv-x="473" 
d="M37 230l14 46h385l-13 -46h-386z" />
    <glyph glyph-name="emdash" unicode="&#x2014;" horiz-adv-x="858" 
d="M37 230l14 46h772l-15 -46h-771z" />
    <glyph glyph-name="quoteleft" unicode="&#x2018;" horiz-adv-x="272" 
d="M337 682l6 -32q-71 -15 -107 -44.5t-36 -64.5q0 -26 14 -26q3 0 14.5 9t23.5 9q21 0 33.5 -14t12.5 -35q0 -27 -19 -43.5t-51 -16.5q-39 0 -62.5 24.5t-23.5 66.5q0 67 51 109t144 58z" />
    <glyph glyph-name="quoteright" unicode="&#x2019;" horiz-adv-x="272" 
d="M134 419l-7 31q72 16 107.5 45.5t35.5 63.5q0 27 -14 27q-3 0 -14 -9t-23 -9q-23 1 -35 14.5t-12 34.5q0 25 20 42.5t50 17.5q37 0 61.5 -25t24.5 -66q0 -67 -50.5 -109.5t-143.5 -57.5z" />
    <glyph glyph-name="quotesinglbase" unicode="&#x201a;" horiz-adv-x="262" 
d="M-35 -106l-7 32q72 14 108 43.5t36 64.5q0 26 -15 26q-3 0 -13.5 -8.5t-23.5 -8.5q-21 0 -34 14t-13 35q0 26 19.5 42.5t51.5 17.5q37 0 61 -25.5t24 -66.5q0 -132 -194 -166z" />
    <glyph glyph-name="quotedblleft" unicode="&#x201c;" horiz-adv-x="474" 
d="M337 682l6 -32q-71 -15 -107 -44.5t-36 -64.5q0 -26 14 -26q3 0 14.5 9t23.5 9q21 0 33.5 -14t12.5 -35q0 -27 -19 -43.5t-51 -16.5q-39 0 -62.5 24.5t-23.5 66.5q0 67 51 109t144 58zM541 682l6 -32q-71 -15 -107 -44.5t-36 -64.5q0 -26 13 -26q3 0 14 9t23 9
q22 0 35 -14t13 -35q0 -26 -20 -43t-50 -17q-39 0 -63 24.5t-24 66.5q0 67 51.5 109t144.5 58z" />
    <glyph glyph-name="quotedblright" unicode="&#x201d;" horiz-adv-x="474" 
d="M337 419l-6 31q71 17 107 46t36 63q0 27 -14 27q-3 0 -14 -9t-23 -9q-23 1 -35.5 14.5t-12.5 34.5q0 25 20.5 42.5t50.5 17.5q37 0 61.5 -25t24.5 -66q0 -67 -51 -109.5t-144 -57.5zM134 419l-7 31q72 16 107.5 45.5t35.5 63.5q0 27 -14 27q-3 0 -14 -9t-23 -9
q-23 1 -35 14.5t-12 34.5q0 25 20 42.5t50 17.5q37 0 61.5 -25t24.5 -66q0 -67 -50.5 -109.5t-143.5 -57.5z" />
    <glyph glyph-name="quotedblbase" unicode="&#x201e;" horiz-adv-x="465" 
d="M169 -106l-7 32q71 14 106.5 43.5t35.5 64.5q0 26 -13 26q-3 0 -13.5 -8.5t-23.5 -8.5q-22 0 -34.5 14t-12.5 35q0 26 19.5 42.5t50.5 17.5q37 0 61.5 -25.5t24.5 -66.5q0 -132 -194 -166zM-35 -106l-7 32q72 14 108 43.5t36 64.5q0 26 -15 26q-3 0 -13.5 -8.5
t-23.5 -8.5q-21 0 -34 14t-13 35q0 26 19.5 42.5t51.5 17.5q37 0 61 -25.5t24 -66.5q0 -132 -194 -166z" />
    <glyph glyph-name="dagger" unicode="&#x2020;" horiz-adv-x="420" 
d="M285 500l-120 -20q-23 -5 -38 7t-15 33q0 28 19.5 40.5t46.5 -0.5l111 -41l9 154q4 58 54 58q30 0 40.5 -24t-7.5 -57l-72 -132l121 18q23 6 37.5 -5.5t14.5 -34.5q0 -26 -20 -39t-48 -2l-113 42q-12 -99 -9 -174q-69 -113 -136 -325l-58 -191h-44l59 192q57 184 69 337
q58 85 99 164z" />
    <glyph glyph-name="daggerdbl" unicode="&#x2021;" horiz-adv-x="420" 
d="M418 455l-112 44q-11 -68 2 -134q-77 -77 -77 -144q0 -16 2.5 -30.5t5.5 -22t5 -8.5q-29 -31 -52.5 -69t-33.5 -60l122 21q25 5 39.5 -7.5t14.5 -33.5q0 -27 -19 -40t-47 -1l-111 42l-9 -154q-4 -57 -54 -57q-29 0 -39 24t7 56l72 133l-121 -19q-23 -5 -37.5 6.5
t-14.5 33.5q0 25 20 38.5t47 2.5l111 -43q4 16 4.5 52t-7.5 82q78 78 78 147q0 22 -4.5 39.5t-8.5 20.5q29 32 53.5 70t32.5 56l-122 -20q-24 -5 -38.5 7t-14.5 33q0 28 19 40t47 0l111 -41l9 154q4 58 54 58q30 0 40.5 -24t-7.5 -57l-72 -132l121 18q23 6 36.5 -5.5
t13.5 -33.5q0 -27 -19 -40t-47 -2zM147 27v-3h2v3h-2zM296 506v-1h2v1h-2z" />
    <glyph glyph-name="bullet" unicode="&#x2022;" horiz-adv-x="268" 
d="M160 202q-44 0 -73 28.5t-29 73.5q0 44 29 72t73 28q45 0 73 -28t28 -72q0 -45 -28 -73.5t-73 -28.5z" />
    <glyph glyph-name="ellipsis" unicode="&#x2026;" horiz-adv-x="723" 
d="M88 -17q-27 0 -44.5 18t-17.5 45q0 26 17.5 43.5t44.5 17.5q26 0 44 -17.5t18 -43.5q0 -27 -18 -45t-44 -18zM340 -17q-26 0 -43.5 18t-17.5 45q0 26 17.5 43.5t43.5 17.5q27 0 45 -17.5t18 -43.5q0 -27 -18 -45t-45 -18zM594 -17q-27 0 -44.5 18t-17.5 45
q0 26 17.5 43.5t44.5 17.5q26 0 43.5 -17.5t17.5 -43.5q0 -27 -17.5 -45t-43.5 -18z" />
    <glyph glyph-name="perthousand" unicode="&#x2030;" horiz-adv-x="1019" 
d="M205 348q33 0 59.5 33t39 75t12.5 79q0 66 -47 66q-48 0 -80 -64t-32 -124q0 -65 48 -65zM74 -37l-27 26l604 658l29 -27zM204 311q-54 0 -85.5 35.5t-31.5 93.5q0 76 57.5 137.5t126.5 61.5q52 0 83 -36.5t31 -93.5q0 -75 -55.5 -136.5t-125.5 -61.5zM476 29q33 0 60 33
t39.5 75t12.5 79q0 66 -47 66q-33 0 -60 -33.5t-39.5 -75.5t-12.5 -79q0 -65 47 -65zM474 -8q-53 0 -84 35.5t-31 93.5q0 76 57 137.5t126 61.5q52 0 83 -36.5t31 -92.5q0 -75 -56 -137t-126 -62zM752 94q0 -65 48 -65q33 0 59.5 33t39 75t12.5 79q0 66 -47 66
q-48 0 -80 -64t-32 -124zM798 -8q-53 0 -84.5 35.5t-31.5 93.5q0 75 57.5 137t126.5 62q52 0 83 -36.5t31 -92.5q0 -75 -56 -137t-126 -62z" />
    <glyph glyph-name="uni2032" unicode="&#x2032;" horiz-adv-x="185" 
d="M138 431h-27l59 199q13 49 54 49q16 0 28 -11t12 -28q0 -24 -21 -52z" />
    <glyph glyph-name="uni2033" unicode="&#x2033;" horiz-adv-x="335" 
d="M138 431h-27l59 199q13 49 54 49q16 0 28 -11t12 -28q0 -24 -21 -52zM288 431h-26l59 199q13 49 53 49q17 0 29 -11t12 -28q0 -23 -22 -52z" />
    <glyph glyph-name="guilsinglleft" unicode="&#x2039;" horiz-adv-x="255" 
d="M238 407l15 -19l-137 -150l71 -144l-22 -16l-129 151l12 37z" />
    <glyph glyph-name="guilsinglright" unicode="&#x203a;" horiz-adv-x="255" 
d="M22 78l-14 19l138 150l-72 144l22 16l129 -151l-12 -39z" />
    <glyph glyph-name="fraction" unicode="&#x2044;" horiz-adv-x="228" 
d="M-185 -19l648 701l30 -28l-649 -702z" />
    <glyph glyph-name="Euro" unicode="&#x20ac;" horiz-adv-x="551" 
d="M71 394h61q51 111 137.5 185t182.5 74q62 0 102.5 -32.5t40.5 -93.5q0 -36 -18 -62.5t-54 -26.5q-21 0 -35 13.5t-14 32.5q0 20 23 40t26 26q0 58 -76 58q-66 0 -122 -60t-96 -154h184l-12 -39h-187q-5 -14 -12 -39t-9 -33h186l-12 -39h-182q-7 -38 -7 -79
q0 -129 107 -129q51 0 94.5 28t87.5 78l26 -19q-96 -141 -229 -141q-85 0 -131.5 58t-46.5 159q0 21 3 45h-64l12 39h58q7 36 21 72h-58z" />
    <glyph glyph-name="trademark" unicode="&#x2122;" horiz-adv-x="706" 
d="M531 338h-21v265l-71 -230l30 -6l-9 -29h-96l8 29l34 6l79 252l-32 4l9 30h103v-217l138 217h107l-9 -30l-35 -2l-78 -258l32 -2l-9 -29h-129l8 29l41 3l72 235zM132 338l8 29l40 4l80 260h-41q-17 0 -24.5 -7t-19.5 -30l-21 -43h-25l34 108h267l-32 -108h-26l7 42
q4 20 -3 29t-28 9h-28l-80 -260l38 -4l-8 -29h-138z" />
    <glyph glyph-name="onethird" unicode="&#x2153;" horiz-adv-x="760" 
d="M542 -8q-45 0 -76 19t-31 53q0 21 12 34.5t32 13.5q30 0 30 -26q0 -12 -12 -23t-12 -15q0 -9 13.5 -16t35.5 -7q39 0 63 24.5t24 64.5q0 49 -59 49h-34l11 33h24q34 0 59.5 22.5t25.5 57.5q0 43 -48 43q-38 0 -38 -17l5 -9q5 -9 5 -15q0 -14 -9 -22t-24 -8q-32 0 -32 32
t30 52t74 20q49 0 76 -21.5t27 -55.5q0 -36 -26.5 -60t-66.5 -33v-2q33 -6 52.5 -25t19.5 -48q0 -50 -44.5 -82.5t-106.5 -32.5zM46 -19l648 701l30 -28l-649 -702zM52 313l11 37l58 4l72 235l-72 -26l-9 33l136 69h36l-95 -311l56 -4l-11 -37h-182z" />
    <glyph glyph-name="twothirds" unicode="&#x2154;" horiz-adv-x="792" 
d="M578 -8q-45 0 -76 19t-31 53q0 21 12 34.5t32 13.5q30 0 30 -26q0 -12 -12 -23t-12 -15q0 -9 13.5 -16t35.5 -7q39 0 63 24.5t24 64.5q0 49 -59 49h-34l11 33h24q34 0 59.5 22.5t25.5 57.5q0 43 -48 43q-38 0 -38 -17l5 -9q5 -9 5 -15q0 -14 -9 -22t-24 -8q-32 0 -32 32
t30 52t74 20q49 0 76 -21.5t27 -55.5q0 -36 -26.5 -60t-66.5 -33v-2q33 -6 52.5 -25t19.5 -48q0 -50 -44.5 -82.5t-106.5 -32.5zM78 -19l648 701l30 -28l-649 -702zM36 313l12 43q18 12 53 35t52 35t42 32t37 36t21 37.5t9 44.5q0 55 -50 55q-48 0 -48 -35q0 -5 6 -15t6 -18
q0 -13 -10.5 -22.5t-25.5 -9.5q-16 0 -26.5 10.5t-10.5 31.5q0 38 34.5 65t87.5 27q50 0 79.5 -25t29.5 -67q0 -21 -7.5 -41t-24 -37.5t-31.5 -31.5t-41 -29.5t-41.5 -24t-43.5 -23t-37 -19.5h90q30 0 42 5t22 19l15 20h28l-41 -98h-228z" />
    <glyph glyph-name="oneeighth" unicode="&#x215b;" horiz-adv-x="753" 
d="M557 26q35 0 54.5 27t19.5 59q0 53 -52 53q-34 0 -53.5 -25t-19.5 -59q0 -55 51 -55zM601 193q30 0 45.5 23.5t15.5 54.5q0 49 -41 49q-30 0 -45.5 -25t-15.5 -56q0 -46 41 -46zM563 -10q-51 0 -86 23.5t-35 66.5q0 40 28 67t71 39q-45 19 -45 63q0 43 37.5 73.5
t90.5 30.5q44 0 73.5 -22.5t29.5 -63.5q0 -65 -85 -91q58 -24 58 -77q0 -44 -39 -76.5t-98 -32.5zM46 -19l648 701l30 -28l-649 -702zM48 313l11 37l58 4l72 235l-72 -26l-9 33l136 69h36l-95 -311l56 -4l-11 -37h-182z" />
    <glyph glyph-name="threeeighths" unicode="&#x215c;" horiz-adv-x="768" 
d="M572 26q35 0 54.5 27t19.5 59q0 53 -52 53q-34 0 -53.5 -25t-19.5 -59q0 -55 51 -55zM616 193q30 0 45.5 23.5t15.5 54.5q0 49 -41 49q-30 0 -45.5 -25t-15.5 -56q0 -46 41 -46zM578 -10q-51 0 -86 23.5t-35 66.5q0 40 28 67t71 39q-45 19 -45 63q0 43 37.5 73.5
t90.5 30.5q44 0 73.5 -22.5t29.5 -63.5q0 -65 -85 -91q58 -24 58 -77q0 -44 -39 -76.5t-98 -32.5zM55 -19l648 701l30 -28l-649 -702zM160 305q-45 0 -76 19t-31 53q0 21 12 34.5t32 13.5q30 0 30 -26q0 -12 -12 -23t-12 -15q0 -9 13.5 -16t35.5 -7q39 0 63 24.5t24 64.5
q0 49 -59 49h-34l11 33h24q34 0 59.5 22.5t25.5 57.5q0 43 -48 43q-38 0 -38 -17q0 -1 5 -9t5 -15q0 -14 -9 -22t-24 -8q-32 0 -32 32t30 52t74 20q49 0 76 -21.5t27 -55.5q0 -36 -26.5 -60t-66.5 -33v-2q33 -6 52.5 -25t19.5 -48q0 -50 -44.5 -82.5t-106.5 -32.5z" />
    <glyph glyph-name="fiveeighths" unicode="&#x215d;" horiz-adv-x="766" 
d="M570 26q35 0 54.5 27t19.5 59q0 53 -52 53q-34 0 -53.5 -25t-19.5 -59q0 -55 51 -55zM614 193q30 0 45.5 23.5t15.5 54.5q0 49 -41 49q-30 0 -45.5 -25t-15.5 -56q0 -46 41 -46zM576 -10q-51 0 -86 23.5t-35 66.5q0 40 28 67t71 39q-45 19 -45 63q0 43 37.5 73.5
t90.5 30.5q44 0 73.5 -22.5t29.5 -63.5q0 -65 -85 -91q58 -24 58 -77q0 -44 -39 -76.5t-98 -32.5zM56 -19l648 701l30 -28l-649 -702zM193 603l-26 -85q23 15 61 15q42 0 67.5 -23t25.5 -61q0 -61 -48.5 -102.5t-117.5 -41.5q-41 0 -64.5 17t-23.5 49q0 20 12.5 33t32.5 13
q30 0 30 -26q0 -12 -11.5 -22.5t-11.5 -14.5q0 -16 31 -16q44 0 73 30.5t29 75.5q0 24 -15 37.5t-40 13.5q-35 0 -60 -18l-16 12l53 170h146l16 26h24l-31 -82h-136z" />
    <glyph glyph-name="seveneighths" unicode="&#x215e;" horiz-adv-x="818" 
d="M622 26q35 0 54.5 27t19.5 59q0 53 -52 53q-34 0 -53.5 -25t-19.5 -59q0 -55 51 -55zM666 193q30 0 45.5 23.5t15.5 54.5q0 49 -41 49q-30 0 -45.5 -25t-15.5 -56q0 -46 41 -46zM628 -10q-51 0 -86 23.5t-35 66.5q0 40 28 67t71 39q-45 19 -45 63q0 43 37.5 73.5
t90.5 30.5q44 0 73.5 -22.5t29.5 -63.5q0 -65 -85 -91q58 -24 58 -77q0 -44 -39 -76.5t-98 -32.5zM99 -19l648 701l30 -28l-649 -702zM240 313h-47l200 288h-97q-31 0 -44 -5.5t-22 -24.5l-15 -30h-29l46 118h230l-8 -29z" />
    <glyph glyph-name="minus" unicode="&#x2212;" horiz-adv-x="459" 
d="M49 262v51h379v-51h-379z" />
    <glyph glyph-name="approxequal" unicode="&#x2248;" horiz-adv-x="468" 
d="M148 211q-23 0 -35 -9.5t-21 -32.5h-52q15 94 103 94q40 0 98.5 -16.5t82.5 -16.5t36 10t17 34h51q-10 -95 -94 -95q-36 0 -98.5 16t-87.5 16zM148 363q-24 0 -36 -9t-20 -33h-52q15 94 103 94q40 0 98.5 -15t82.5 -15q25 0 36.5 9.5t16.5 32.5h51q-9 -94 -94 -94
q-36 0 -98.5 15t-87.5 15z" />
    <glyph glyph-name="notequal" unicode="&#x2260;" horiz-adv-x="458" 
d="M40 321v50h217l69 117h54l-69 -117h107v-50h-136l-53 -90h189v-50h-218l-68 -117h-54l68 117h-106v50h135l53 90h-188z" />
    <glyph glyph-name="lessequal" unicode="&#x2264;" horiz-adv-x="427" 
d="M387 100l-347 161v42l347 161v-57l-275 -125l275 -125v-57zM40 0v51h347v-51h-347z" />
    <glyph glyph-name="greaterequal" unicode="&#x2265;" horiz-adv-x="427" 
d="M40 100v57l274 125l-274 125v57l347 -161v-42zM387 0h-347v51h347v-51z" />
    <glyph glyph-name="uni24C5" unicode="&#x24c5;" horiz-adv-x="736" 
d="M399 -19q-132 0 -231.5 96t-99.5 247t99.5 248.5t231.5 97.5t232.5 -97.5t100.5 -248.5t-100.5 -247t-232.5 -96zM399 22q115 0 200 83t85 219q0 135 -85.5 220t-199.5 85q-113 0 -198 -85t-85 -220q0 -136 84.5 -219t198.5 -83zM270 138v36l36 3v295l-36 3v36h154
q66 0 102 -28.5t36 -79.5q0 -55 -36 -83t-98 -28q-35 0 -46 3v-117l46 -4v-36h-158zM416 473h-34v-144q8 -1 32 -1q38 0 53.5 15.5t15.5 54.5t-15.5 57t-51.5 18z" />
    <glyph glyph-name="zero.tab" unicode="&#xe44f;" 
d="M262 26q62 0 114.5 61t80 148t27.5 172q0 63 -25.5 98t-75.5 36q-61 0 -113.5 -63t-80 -151t-27.5 -170q0 -131 100 -131zM260 -18q-85 0 -136.5 63.5t-51.5 157.5q0 86 39 173t113 148t162 61q86 0 137 -62t51 -162q0 -63 -24 -130t-64.5 -122.5t-100.5 -91t-125 -35.5z
" />
    <glyph glyph-name="one.tab" unicode="&#xe450;" 
d="M181 436l-11 34l269 115h38l-165 -537l140 -8l-12 -40h-375l12 40l143 8l136 446z" />
    <glyph glyph-name="two.tab" unicode="&#xe451;" 
d="M44 0l16 59q177 93 213 115q137 84 173 172q17 41 17 86q0 109 -106 109q-45 0 -83 -18.5t-38 -51.5q0 -9 13 -28.5t13 -32.5q0 -21 -15.5 -35t-39.5 -14q-25 0 -40 16.5t-15 48.5q0 68 63 113.5t155 45.5q87 0 138 -42.5t51 -119.5q0 -44 -16 -83t-49 -72t-66.5 -58
t-87 -51.5t-89.5 -42t-94 -38.5h191q56 0 75 7.5t36 31.5l33 51h35l-72 -168h-411z" />
    <glyph glyph-name="three.tab" unicode="&#xe452;" 
d="M206 -88q-82 0 -130 32t-48 88q0 34 18.5 56t48.5 22q22 0 35.5 -12.5t13.5 -31.5q0 -16 -11 -28t-22.5 -21t-11.5 -16q0 -18 29.5 -31t73.5 -13q85 0 130.5 50.5t45.5 125.5q0 112 -111 112h-78l14 46h64q66 0 113.5 45t47.5 113q0 92 -96 92q-37 0 -63.5 -12t-26.5 -25
q1 -2 11.5 -16t10.5 -28q0 -21 -13 -34.5t-36 -13.5t-37.5 14.5t-14.5 37.5q0 52 54 87t133 35q81 0 124 -38.5t43 -98.5q0 -65 -50 -112t-120 -64v-3q59 -12 93 -49.5t34 -93.5q0 -89 -78.5 -152t-189.5 -63z" />
    <glyph glyph-name="four.tab" unicode="&#xe453;" 
d="M273 -84l63 204h-310l6 22l419 459l58 1l-405 -439h245l80 265l94 9l-84 -274h116l-13 -43h-116l-63 -204h-90z" />
    <glyph glyph-name="five.tab" unicode="&#xe454;" 
d="M198 -79q-65 0 -104 31.5t-39 80.5q0 34 20 57t50 23q20 0 33 -12.5t13 -31.5q0 -16 -10.5 -28.5t-21.5 -21.5t-12 -16q0 -15 18.5 -26t49.5 -11q82 0 136 63t54 157q0 98 -93 98q-63 0 -112 -37l-18 14l95 312h195q30 0 42.5 6.5t24.5 24.5l12 21l31 -2l-21 -58
q-16 -42 -39.5 -57.5t-74.5 -15.5h-146l-56 -184q46 25 101 25q73 0 115.5 -38.5t42.5 -108.5q0 -106 -86.5 -185.5t-199.5 -79.5z" />
    <glyph glyph-name="six.tab" unicode="&#xe455;" 
d="M288 -18q-87 0 -138 58t-51 152q0 204 150.5 348.5t389.5 154.5l-13 -47q-160 -9 -264.5 -96t-145.5 -218q80 65 158 65q74 0 117.5 -41t43.5 -114q0 -102 -72 -182t-175 -80zM348 349q-70 0 -143 -56q-14 -52 -14 -125q0 -141 101 -141q65 0 107 65.5t42 148.5
q0 50 -23 79t-70 29z" />
    <glyph glyph-name="seven.tab" unicode="&#xe456;" 
d="M246 -98q-35 0 -56 18.5t-21 51.5q0 20 10.5 43.5t18.5 35t32 44.5l308 398h-223q-57 0 -75.5 -7.5t-36.5 -38.5l-34 -61h-34l73 191h428l-7 -24l-361 -479q-38 -51 -38 -76q0 -22 25 -22q15 0 36 17q24 -7 24 -34q0 -26 -19.5 -41t-49.5 -16z" />
    <glyph glyph-name="eight.tab" unicode="&#xe457;" 
d="M169 133q0 -53 27.5 -80.5t76.5 -27.5q69 0 109.5 60.5t40.5 134.5q0 51 -28 76.5t-73 25.5q-69 0 -111 -57t-42 -132zM273 449q0 -87 82 -87q60 0 94 54t34 125q0 39 -20 64t-60 25q-59 0 -94.5 -57t-35.5 -124zM76 151q0 70 52.5 126t134.5 74q-76 40 -76 117
q0 83 64.5 144.5t154.5 61.5q66 0 115 -40.5t49 -112.5q0 -64 -44.5 -116t-112.5 -70q44 -20 73 -55t29 -82q0 -87 -72.5 -151.5t-171.5 -64.5q-75 0 -135 45.5t-60 123.5z" />
    <glyph glyph-name="nine.tab" unicode="&#xe458;" 
d="M364 585q86 0 137 -58.5t51 -150.5q0 -211 -144.5 -348.5t-390.5 -143.5l13 46q168 9 270 91.5t138 213.5q-80 -67 -161 -67q-73 0 -116 41.5t-44 115.5q0 102 72 181t175 79zM303 218q73 0 144 58q12 58 12 120q0 75 -23 110t-74 35q-67 0 -109.5 -65.5t-42.5 -148.5
q0 -50 23 -79.5t70 -29.5z" />
    <glyph glyph-name="cent.tab" unicode="&#xe459;" 
d="M462 559l-25 -80q49 -4 72.5 -27.5t23.5 -60.5q0 -27 -13 -44.5t-39 -17.5q-19 0 -31 9t-12 23q0 10 3 20.5t8.5 22t6.5 15.5q-7 13 -32 17l-120 -395h7q80 0 156 110l25 -18q-34 -66 -87 -107.5t-119 -43.5l-29 -95h-42l30 98q-120 24 -120 161q0 120 82 220.5
t188 112.5l25 80h42zM217 155q0 -80 48 -104l116 382q-72 -19 -118 -105t-46 -173z" />
    <glyph glyph-name="dollar.tab" unicode="&#xe45a;" 
d="M391 652q18 0 36 -3l18 59h40l-21 -68q50 -16 80 -49.5t30 -77.5q0 -31 -15 -48t-38 -17q-21 0 -35.5 12.5t-14.5 32.5q0 19 14.5 33t14.5 17q0 37 -49 54l-70 -231q67 -54 96 -95t29 -101q0 -74 -56 -128t-151 -54q-15 0 -39 2l-30 -100h-41l33 108q-62 17 -95 57.5
t-33 94.5q0 36 18 54.5t43 18.5q23 0 36 -13t13 -35q0 -21 -20 -39t-20 -20q0 -59 71 -76l79 258q-63 50 -89 90t-26 93q0 74 56.5 122.5t135.5 48.5zM423 140q0 39 -17.5 67.5t-58.5 63.5l-73 -237q8 -1 25 -1q57 0 90.5 32.5t33.5 74.5zM278 514q0 -34 16 -60.5t54 -60.5
l66 213q-14 2 -20 2q-51 0 -83.5 -26t-32.5 -68z" />
    <glyph glyph-name="Euro.tab" unicode="&#xe45b;" 
d="M111 394h61q51 111 137.5 185t182.5 74q62 0 102.5 -32.5t40.5 -93.5q0 -36 -18 -62.5t-54 -26.5q-21 0 -35 13.5t-14 32.5q0 20 23 40t26 26q0 58 -76 58q-66 0 -122 -60t-96 -154h184l-12 -39h-187q-5 -14 -12 -39t-9 -33h186l-12 -39h-182q-7 -38 -7 -79
q0 -129 107 -129q51 0 94.5 28t87.5 78l26 -19q-96 -141 -229 -141q-85 0 -131.5 58t-46.5 159q0 21 3 45h-64l12 39h58q7 36 21 72h-58z" />
    <glyph glyph-name="g.alt" unicode="&#xe4c6;" horiz-adv-x="514" 
d="M220 143q-50 0 -85 19q-61 -21 -61 -66q0 -41 66 -41q30 0 82.5 3t60.5 3q146 0 146 -109q0 -94 -77.5 -148.5t-204.5 -54.5q-88 0 -148.5 31.5t-60.5 87.5q0 39 34.5 68.5t90.5 44.5q-55 22 -55 77q0 41 28.5 71t75.5 47q-49 38 -49 105q0 79 63 139t148 60
q53 0 92 -28.5t51 -71.5h3q9 49 32 74.5t53 25.5q22 0 34.5 -11.5t12.5 -29.5q0 -21 -15 -34.5t-35 -16.5q-6 22 -25 22q-30 0 -44 -80q-15 -83 -71.5 -135t-141.5 -52zM118 -29q-18 0 -33 3q-67 -33 -67 -99q0 -39 35 -61.5t99 -22.5q98 0 151 32.5t53 88.5q0 65 -89 65
q-17 0 -71.5 -3t-77.5 -3zM276 438q-62 0 -95 -52.5t-33 -123.5q0 -39 19 -60.5t52 -21.5q59 0 93 54.5t34 123.5q0 38 -18 59t-52 21z" />
    <glyph glyph-name="v.alt" unicode="&#xe4d5;" horiz-adv-x="468" 
d="M40 370l-22 21q66 89 132 89q76 0 76 -91q0 -82 -33 -300h2q118 105 169 189q28 48 30 102t-15 69q18 31 53 31q22 0 35.5 -14t13.5 -32q0 -49 -37.5 -115t-95 -128.5t-117.5 -116.5t-113 -91l-26 17q23 100 35 211t12 159q0 49 -25 49q-30 0 -74 -49z" />
    <glyph glyph-name="w.alt" unicode="&#xe4d6;" horiz-adv-x="696" 
d="M450 472l10 -6q-8 -252 -30 -378h3q130 130 159 186q21 35 28 72t2.5 63t-15.5 40q18 31 53 31q22 0 35.5 -13.5t13.5 -32.5q0 -49 -37 -115t-94.5 -129.5t-113.5 -115.5t-107 -91l-25 17q6 24 11.5 63t9 70.5t8.5 77t7 59.5h-4q-41 -68 -117 -158.5t-129 -128.5l-26 17
q21 99 34 213t13 158q0 48 -25 48q-32 0 -74 -49l-22 21q66 89 132 89q75 0 75 -91q0 -34 -11 -132t-22 -160h3q120 137 160 221q16 30 18.5 54.5t-5.5 78.5z" />
    <glyph glyph-name="y.alt" unicode="&#xe4d8;" horiz-adv-x="514" 
d="M501 480q22 0 37.5 -13.5t15.5 -36.5q0 -24 -14.5 -39t-38.5 -18q-7 28 -26 28q-15 0 -24 -9.5t-25 -36.5q-38 -64 -107.5 -215.5t-104.5 -215.5q-48 -90 -92 -130.5t-104 -40.5q-39 0 -60.5 17t-21.5 45q0 25 15 39t38 14q22 0 31 -14q-5 -24 3 -34.5t20 -10.5
q57 0 126 124l31 56q-30 268 -53 379q-10 52 -35 52q-31 0 -67 -64l-25 17q57 107 127 107q39 0 58.5 -22.5t30.5 -81.5q20 -115 34 -239h3q18 37 45 97t44.5 96.5t30.5 59.5q28 50 52 70t56 20z" />
    <glyph glyph-name="at.sc" unicode="&#xf60b;" horiz-adv-x="721" 
d="M328 164q41 0 78 43l53 161q-13 28 -46 28q-50 0 -86.5 -59.5t-36.5 -116.5q0 -56 38 -56zM364 -48q-137 0 -224.5 71.5t-87.5 209.5q0 154 105 255.5t263 101.5q129 0 206 -64.5t77 -183.5q0 -112 -66 -171.5t-149 -59.5q-81 0 -85 61h-2q-19 -25 -48.5 -43t-58.5 -18
q-35 0 -58 24.5t-23 74.5q0 83 59.5 154.5t133.5 71.5q48 0 71 -32l8 21h69l-77 -231q-10 -42 28 -42q51 0 98.5 50.5t47.5 140.5q0 102 -64.5 154t-172.5 52q-136 0 -219 -87t-83 -221q0 -124 71 -186t188 -62q114 0 201 61l22 -31q-92 -71 -230 -71z" />
    <glyph glyph-name="braceleft.sc" unicode="&#xf60c;" horiz-adv-x="322" 
d="M230 -11h-53q-74 0 -102 27t-5 78l47 103q15 33 -2 44.5t-81 16.5l12 41q67 4 91 16t30 45l15 102q16 106 172 106h53l-13 -40l-37 -2q-50 -2 -68.5 -14t-28.5 -53l-22 -89q-12 -45 -36 -63t-79 -27l-1 -3q49 -9 61.5 -26t-1.5 -63l-32 -90q-14 -44 -4 -55t59 -13l37 -1z
" />
    <glyph glyph-name="braceright.sc" unicode="&#xf60d;" horiz-adv-x="322" 
d="M121 568h53q74 0 102 -27t5 -78l-47 -103q-15 -33 2 -45t81 -16l-12 -41q-67 -4 -91 -16t-30 -45l-15 -102q-16 -106 -172 -106h-53l13 40l37 2q50 2 68.5 14t28.5 53l22 89q12 45 36 63t79 27l1 3q-49 8 -61.5 25.5t1.5 63.5l32 90q14 44 4 55t-59 13l-37 1z" />
    <glyph glyph-name="bracketleft.sc" unicode="&#xf60e;" horiz-adv-x="308" 
d="M10 0l171 558h194l-11 -35l-120 -4l-147 -479l118 -5l-11 -35h-194z" />
    <glyph glyph-name="bracketright.sc" unicode="&#xf60f;" horiz-adv-x="308" 
d="M315 558l-171 -558h-194l11 35l120 3l147 480l-118 5l11 35h194z" />
    <glyph glyph-name="plus.sc" unicode="&#xf615;" horiz-adv-x="419" 
d="M45 218v47h142v143h46v-143h141v-47h-141v-141h-46v141h-142z" />
    <glyph glyph-name="minus.sc" unicode="&#xf616;" horiz-adv-x="419" 
d="M45 218v46h329v-46h-329z" />
    <glyph glyph-name="equal.sc" unicode="&#xf617;" horiz-adv-x="419" 
d="M45 270v46h329v-46h-329zM45 149v46h329v-46h-329z" />
    <glyph glyph-name="parenleft.sc" unicode="&#xf618;" horiz-adv-x="322" 
d="M221 0l-46 -18q-43 31 -74.5 89.5t-31.5 138.5q0 92 44 171t107.5 127t136.5 69l35 -18q-111 -42 -180.5 -138t-69.5 -224q0 -136 79 -197z" />
    <glyph glyph-name="parenright.sc" unicode="&#xf619;" horiz-adv-x="322" 
d="M121 559l46 18q106 -84 106 -228q0 -92 -44 -171t-107.5 -127t-136.5 -69l-35 18q111 42 180.5 138t69.5 224q0 136 -79 197z" />
    <glyph glyph-name="quotedblleft.sc" unicode="&#xf61c;" horiz-adv-x="429" 
d="M286 567l5 -29q-61 -11 -92 -35t-31 -52q0 -18 12 -18q3 0 12.5 6t20.5 6q17 0 28.5 -13t11.5 -31q0 -25 -17 -40.5t-45 -15.5q-34 0 -55 21.5t-21 58.5q0 56 45 92.5t126 49.5zM464 567l5 -29q-61 -11 -92 -35t-31 -52q0 -18 11 -18q3 0 12 6t20 6q19 0 30.5 -13
t11.5 -31q0 -25 -17.5 -40.5t-44.5 -15.5q-34 0 -55 21.5t-21 58.5q0 56 45 92.5t126 49.5z" />
    <glyph glyph-name="quotedblright.sc" unicode="&#xf61d;" horiz-adv-x="429" 
d="M275 342l-5 29q61 12 92 35t31 51q0 19 -12 19q-3 0 -12 -6t-20 -6q-20 1 -31 13t-11 31q0 24 18 40t45 16q33 0 54.5 -21.5t21.5 -58.5q0 -56 -45 -93t-126 -49zM98 342l-6 29q61 12 92 35t31 51q0 19 -12 19q-3 0 -12 -6t-20 -6q-41 2 -41 44q0 24 17.5 40t44.5 16
q33 0 54.5 -21.5t21.5 -58.5q0 -57 -44.5 -93.5t-125.5 -48.5z" />
    <glyph glyph-name="quoteleft.sc" unicode="&#xf61f;" horiz-adv-x="251" 
d="M286 567l5 -29q-61 -11 -92 -35t-31 -52q0 -18 12 -18q3 0 12.5 6t20.5 6q17 0 28.5 -13t11.5 -31q0 -25 -17 -40.5t-45 -15.5q-34 0 -55 21.5t-21 58.5q0 56 45 92.5t126 49.5z" />
    <glyph glyph-name="quoteright.sc" unicode="&#xf620;" horiz-adv-x="253" 
d="M98 342l-6 29q61 12 92 35t31 51q0 19 -12 19q-3 0 -12 -6t-20 -6q-41 2 -41 44q0 24 17.5 40t44.5 16q33 0 54.5 -21.5t21.5 -58.5q0 -57 -44.5 -93.5t-125.5 -48.5z" />
    <glyph glyph-name="AEacute.sc" unicode="&#xf624;" horiz-adv-x="766" 
d="M701 391l10 65q5 30 -3.5 39t-39.5 9h-155l-63 -206h65q23 0 31.5 6.5t18.5 26.5l26 55h32l-70 -220h-32l12 53q5 25 0 32t-27 7h-68l-65 -213h152q55 0 72 9t33 44l36 77h32l-52 -175h-434l10 40l62 6l62 203h-135l-164 -193l71 -16l-10 -40h-167l10 40l38 13l385 449
l-67 5l12 42h462l-48 -158h-32zM419 493l-174 -204h113l63 204h-2zM597 618h-27l87 150q16 34 47 34q16 0 27.5 -11t11.5 -29q0 -24 -31 -48z" />
    <glyph glyph-name="Oslashacute.sc" unicode="&#xf627;" horiz-adv-x="578" 
d="M360 618h-27l87 150q16 34 47 34q16 0 27.5 -11t11.5 -29q0 -24 -31 -48zM29 -22l-26 26l62 65q-30 51 -30 123q0 87 40 170.5t116 139.5t166 56q79 0 131 -45l53 56l26 -27l-54 -57q40 -56 40 -137q0 -87 -40 -170.5t-116 -139.5t-166 -56q-91 0 -144 57zM235 28
q55 0 100.5 35.5t71 90t39.5 111t14 106.5q0 29 -6 53l-314 -330q26 -66 95 -66zM128 169q0 -21 1 -32l311 326q-28 49 -87 49q-55 0 -100.5 -35.5t-71 -90t-39.5 -111t-14 -106.5z" />
    <glyph glyph-name="Ccircumflex.sc" unicode="&#xf628;" horiz-adv-x="523" 
d="M234 -18q-88 0 -143.5 59.5t-55.5 157.5q0 86 42 168.5t116.5 136.5t159.5 54q92 0 138 -73l32 57h30l-54 -172h-33q-2 70 -28.5 106t-81.5 36q-70 0 -124.5 -57t-79 -131.5t-24.5 -144.5q0 -75 32.5 -113t90.5 -38q96 0 175 107l26 -17q-38 -62 -93.5 -99t-124.5 -37z
M278 618h-33l130 157h63l49 -157h-25l-69 87z" />
    <glyph glyph-name="Cdotaccent.sc" unicode="&#xf629;" horiz-adv-x="523" 
d="M234 -18q-88 0 -143.5 59.5t-55.5 157.5q0 86 42 168.5t116.5 136.5t159.5 54q92 0 138 -73l32 57h30l-54 -172h-33q-2 70 -28.5 106t-81.5 36q-70 0 -124.5 -57t-79 -131.5t-24.5 -144.5q0 -75 32.5 -113t90.5 -38q96 0 175 107l26 -17q-38 -62 -93.5 -99t-124.5 -37z
M333 683q0 22 15.5 37t37.5 15q23 0 38.5 -15t15.5 -37q0 -23 -15.5 -37.5t-38.5 -14.5q-22 0 -37.5 14.5t-15.5 37.5z" />
    <glyph glyph-name="Ebreve.sc" unicode="&#xf62a;" horiz-adv-x="531" 
d="M466 391l10 65q5 30 -3.5 39t-39.5 9h-155l-63 -206h65q23 0 31.5 6.5t18.5 26.5l26 55h36l-70 -220h-36l12 53q5 25 0 32t-27 7h-68l-65 -213h152q55 0 72 9t33 44l36 77h32l-52 -175h-434l10 40l62 6l140 456l-59 5l10 42h406l-48 -158h-32zM372 627q-53 0 -77 47.5
t-15 115.5h32q-8 -93 66 -93q39 0 63 21.5t45 71.5h33q-25 -76 -59.5 -119.5t-87.5 -43.5z" />
    <glyph glyph-name="Eng.sc" unicode="&#xf62b;" horiz-adv-x="581" 
d="M201 -209q-47 0 -75 22.5t-28 58.5q0 28 15 45t37 17q18 0 30.5 -11.5t12.5 -31.5q0 -19 -12 -31t-12 -15q0 -13 32 -13q49 0 92.5 37.5t65.5 107.5l12 39l-156 453l-128 -419l84 -10l-10 -40h-195l10 40l65 11l138 451l-58 5l10 42h147l136 -399l105 346l-62 11l10 42
h167l-10 -42l-60 -12l-158 -518q-29 -94 -83.5 -140t-121.5 -46z" />
    <glyph glyph-name="Gcircumflex.sc" unicode="&#xf62c;" horiz-adv-x="569" 
d="M249 -18q-98 0 -156 60.5t-58 159.5q0 84 41.5 166t115.5 136t159 54q95 0 139 -72l30 56h31l-50 -162h-34q-5 132 -111 132q-71 0 -125 -57t-78.5 -131.5t-24.5 -145.5q0 -150 124 -150q58 0 85 24t43 72l15 56l-65 6l11 40h205l-11 -40l-54 -5l-35 -115
q-84 -84 -197 -84zM285 618h-33l130 157h63l49 -157h-25l-69 87z" />
    <glyph glyph-name="Gdotaccent.sc" unicode="&#xf62d;" horiz-adv-x="569" 
d="M249 -18q-98 0 -156 60.5t-58 159.5q0 84 41.5 166t115.5 136t159 54q95 0 139 -72l30 56h31l-50 -162h-34q-5 132 -111 132q-71 0 -125 -57t-78.5 -131.5t-24.5 -145.5q0 -150 124 -150q58 0 85 24t43 72l15 56l-65 6l11 40h205l-11 -40l-54 -5l-35 -115
q-84 -84 -197 -84zM333 683q0 22 15.5 37t37.5 15q23 0 38.5 -15t15.5 -37q0 -23 -15.5 -37.5t-38.5 -14.5q-22 0 -37.5 14.5t-15.5 37.5z" />
    <glyph glyph-name="Hbar.sc" unicode="&#xf62e;" horiz-adv-x="621" 
d="M77 391l11 38h563l-11 -38h-563zM292 0l11 40l65 5l67 219h-230l-67 -219l60 -5l-10 -40h-212l10 40l63 6l140 456l-61 5l10 42h215l-11 -42l-64 -4l-61 -199h230l61 199l-61 4l11 42h211l-10 -42l-62 -4l-140 -458l60 -5l-10 -40h-215z" />
    <glyph glyph-name="Hcircumflex.sc" unicode="&#xf62f;" horiz-adv-x="621" 
d="M292 0l11 40l65 5l67 219h-230l-67 -219l60 -5l-10 -40h-212l10 40l63 6l140 456l-61 5l10 42h215l-11 -42l-64 -4l-61 -199h230l61 199l-61 4l11 42h211l-10 -42l-62 -4l-140 -458l60 -5l-10 -40h-215zM339 618h-33l130 157h63l49 -157h-25l-69 87z" />
    <glyph glyph-name="Ibreve.sc" unicode="&#xf630;" horiz-adv-x="322" 
d="M-22 0l10 40l71 7l140 455l-67 5l10 42h225l-10 -42l-69 -4l-140 -457l67 -6l-10 -40h-227zM264 627q-53 0 -77 47.5t-15 115.5h32q-8 -93 66 -93q39 0 63 21.5t45 71.5h33q-25 -76 -59.5 -119.5t-87.5 -43.5z" />
    <glyph glyph-name="IJ.sc" unicode="&#xf631;" horiz-adv-x="638" 
d="M333 -14q-44 0 -71 23t-27 60q0 28 15.5 45t36.5 17q19 0 31.5 -11.5t12.5 -31.5q0 -19 -12.5 -31.5t-12.5 -15.5q0 -14 26 -14q57 0 90 96l112 377l-64 7l11 42h211l-11 -42l-58 -6l-103 -338q-58 -177 -187 -177zM-21 0l10 40l70 7l140 455l-67 5l10 42h226l-11 -42
l-69 -4l-140 -457l62 -6l-10 -40h-221z" />
    <glyph glyph-name="Itilde.sc" unicode="&#xf632;" horiz-adv-x="322" 
d="M-22 0l10 40l71 7l140 455l-67 5l10 42h225l-10 -42l-69 -4l-140 -457l67 -6l-10 -40h-227zM315 626q-23 0 -62 15.5t-52 15.5q-17 0 -28.5 -9.5t-22.5 -33.5h-35q18 47 46 79t62 32q21 0 60.5 -15.5t50.5 -15.5q17 0 27.5 10t22.5 35h36q-19 -48 -46 -80.5t-59 -32.5z
" />
    <glyph glyph-name="Jcircumflex.sc" unicode="&#xf633;" horiz-adv-x="378" 
d="M64 -51q-46 0 -73.5 23t-27.5 60q0 28 15 45t37 17q19 0 31.5 -11.5t12.5 -31.5q0 -19 -12.5 -32t-12.5 -16q0 -13 26 -13q64 0 91 95l123 415l-64 7l11 42h211l-12 -42l-57 -6l-115 -377q-27 -88 -75.5 -131.5t-108.5 -43.5zM247 618h-33l130 157h63l49 -157h-25l-69 87
z" />
    <glyph glyph-name="Ldot.sc" unicode="&#xf634;" horiz-adv-x="493" 
d="M-24 0l10 40l63 5l141 458l-61 4l10 42h222l-10 -42l-73 -5l-140 -457h135q45 0 63.5 14t48.5 72l22 41h34l-53 -172h-412zM428 225q-27 0 -45 17.5t-18 44.5q0 26 18 43t45 17q25 0 42.5 -17t17.5 -43q0 -27 -17.5 -44.5t-42.5 -17.5z" />
    <glyph glyph-name="Obreve.sc" unicode="&#xf635;" horiz-adv-x="578" 
d="M357 558q86 0 141 -54.5t55 -155.5q0 -87 -40 -170.5t-116 -139.5t-166 -56q-86 0 -141 54.5t-55 155.5q0 87 40 170.5t116 139.5t166 56zM235 28q55 0 100.5 35.5t71 90t39.5 111t14 106.5q0 68 -28 104.5t-79 36.5q-55 0 -100.5 -35.5t-71 -90t-39.5 -111t-14 -106.5
q0 -68 28 -104.5t79 -36.5zM377 627q-53 0 -77 47.5t-15 115.5h32q-8 -93 66 -93q39 0 63 21.5t45 71.5h33q-25 -76 -59.5 -119.5t-87.5 -43.5z" />
    <glyph glyph-name="Scircumflex.sc" unicode="&#xf636;" horiz-adv-x="459" 
d="M190 431q0 -29 16 -51t58 -56q70 -56 98.5 -92.5t28.5 -91.5q1 -72 -46.5 -115t-127.5 -43q-115 0 -163 89l-37 -60h-32l53 170h33q0 -68 41.5 -111t100.5 -43q46 0 72 21t26 61q0 34 -22.5 61t-85.5 81q-49 39 -70.5 74.5t-21.5 79.5q0 71 48 112t115 41q46 0 79 -18.5
t49 -48.5l31 47h31l-45 -143h-33q-4 52 -31.5 85t-78.5 33q-42 0 -64 -22.5t-22 -59.5zM215 618h-33l130 157h63l49 -157h-25l-69 87z" />
    <glyph glyph-name="Tbar.sc" unicode="&#xf637;" horiz-adv-x="506" 
d="M92 265l12 38h332l-12 -38h-332zM65 0l10 40l72 7l140 457h-53q-42 0 -59 -11.5t-40 -58.5l-33 -70h-33l57 185h435l-57 -185h-34l12 67q10 50 0.5 61.5t-54.5 11.5h-52l-140 -457l68 -7l-10 -40h-229z" />
    <glyph glyph-name="Ubreve.sc" unicode="&#xf638;" horiz-adv-x="552" 
d="M232 -11q-102 0 -148.5 57.5t-16.5 150.5l95 306l-49 4l10 42h210l-11 -42l-72 -5l-94 -308q-26 -70 -3.5 -111.5t92.5 -41.5q64 0 97 30.5t55 95.5l105 328l-61 12l10 42h164l-11 -42l-57 -12l-107 -337q-50 -169 -208 -169zM409 627q-53 0 -77 47.5t-15 115.5h32
q-8 -93 66 -93q39 0 63 21.5t45 71.5h33q-25 -76 -59.5 -119.5t-87.5 -43.5z" />
    <glyph glyph-name="Utilde.sc" unicode="&#xf639;" horiz-adv-x="552" 
d="M232 -11q-102 0 -148.5 57.5t-16.5 150.5l95 306l-49 4l10 42h210l-11 -42l-72 -5l-94 -308q-26 -70 -3.5 -111.5t92.5 -41.5q64 0 97 30.5t55 95.5l105 328l-61 12l10 42h164l-11 -42l-57 -12l-107 -337q-50 -169 -208 -169zM462 626q-23 0 -62 15.5t-52 15.5
q-17 0 -28.5 -9.5t-22.5 -33.5h-35q18 47 46 79t62 32q21 0 60.5 -15.5t50.5 -15.5q17 0 27.5 10t22.5 35h36q-19 -48 -46 -80.5t-59 -32.5z" />
    <glyph glyph-name="Wacute.sc" unicode="&#xf63a;" horiz-adv-x="749" 
d="M150 -8l9 511l-49 4l10 42h187l-11 -42l-50 -4l-16 -396h3l158 264v132l-47 4l10 42h191l-11 -42l-60 -5l-4 -395h3l228 383l-62 17l11 42h152l-11 -42l-38 -13l-304 -502h-58v297l-183 -297h-58zM473 618h-27l87 150q16 34 47 34q16 0 27.5 -11t11.5 -29q0 -24 -31 -48z
" />
    <glyph glyph-name="Wcircumflex.sc" unicode="&#xf63b;" horiz-adv-x="749" 
d="M150 -8l9 511l-49 4l10 42h187l-11 -42l-50 -4l-16 -396h3l158 264v132l-47 4l10 42h191l-11 -42l-60 -5l-4 -395h3l228 383l-62 17l11 42h152l-11 -42l-38 -13l-304 -502h-58v297l-183 -297h-58zM402 618h-33l130 157h63l49 -157h-25l-69 87z" />
    <glyph glyph-name="Wdieresis.sc" unicode="&#xf63c;" horiz-adv-x="749" 
d="M150 -8l9 511l-49 4l10 42h187l-11 -42l-50 -4l-16 -396h3l158 264v132l-47 4l10 42h191l-11 -42l-60 -5l-4 -395h3l228 383l-62 17l11 42h152l-11 -42l-38 -13l-304 -502h-58v297l-183 -297h-58zM411 628q-22 0 -37 14.5t-15 36.5q0 23 15 36.5t37 13.5t37 -13.5
t15 -36.5q0 -22 -15 -36.5t-37 -14.5zM587 628q-21 0 -36.5 15t-15.5 36q0 23 15 36.5t37 13.5t36.5 -13.5t14.5 -36.5q0 -22 -15 -36.5t-36 -14.5z" />
    <glyph glyph-name="Wgrave.sc" unicode="&#xf63d;" horiz-adv-x="749" 
d="M150 -8l9 511l-49 4l10 42h187l-11 -42l-50 -4l-16 -396h3l158 264v132l-47 4l10 42h191l-11 -42l-60 -5l-4 -395h3l228 383l-62 17l11 42h152l-11 -42l-38 -13l-304 -502h-58v297l-183 -297h-58zM533 618h-25l-76 93q-21 26 -21 47q0 18 13 31t33 13q36 0 42 -43z" />
    <glyph glyph-name="Ycircumflex.sc" unicode="&#xf63e;" horiz-adv-x="493" 
d="M70 0l10 40l70 7l64 211l-69 246l-39 3l11 42h189l-11 -42l-58 -4l57 -206l158 193l-55 17l11 42h155l-11 -42l-51 -18l-200 -240l-62 -203l65 -6l-10 -40h-224zM263 618h-33l130 157h63l49 -157h-25l-69 87z" />
    <glyph glyph-name="Ygrave.sc" unicode="&#xf63f;" horiz-adv-x="493" 
d="M70 0l10 40l70 7l64 211l-69 246l-39 3l11 42h189l-11 -42l-58 -4l57 -206l158 193l-55 17l11 42h155l-11 -42l-51 -18l-200 -240l-62 -203l65 -6l-10 -40h-224zM394 618h-25l-76 93q-21 26 -21 47q0 18 13 31t33 13q36 0 42 -43z" />
    <glyph glyph-name="Abreve.sc" unicode="&#xf640;" horiz-adv-x="518" 
d="M213 0l10 40l73 5l4 135h-153l-80 -124l67 -16l-11 -40h-163l11 40l48 16l326 502h50l-13 -514l48 -4l-10 -40h-207zM306 427l-134 -207h129l6 207h-1zM389 627q-53 0 -77 47.5t-15 115.5h32q-8 -93 66 -93q39 0 63 21.5t45 71.5h33q-25 -76 -59.5 -119.5t-87.5 -43.5z
" />
    <glyph glyph-name="Amacron.sc" unicode="&#xf641;" horiz-adv-x="518" 
d="M213 0l10 40l73 5l4 135h-153l-80 -124l67 -16l-11 -40h-163l11 40l48 16l326 502h50l-13 -514l48 -4l-10 -40h-207zM306 427l-134 -207h129l6 207h-1zM254 633l17 53h244l-17 -53h-244z" />
    <glyph glyph-name="Aogonek.sc" unicode="&#xf642;" horiz-adv-x="518" 
d="M285 -166l21 -20q-40 -60 -107 -60q-41 0 -66 22t-25 56q0 47 43.5 87t144.5 104l4 157h-153l-80 -124l67 -16l-11 -40h-163l11 40l48 16l326 502h50l-12 -514l47 -4l-10 -40h-111q-117 -90 -117 -154q0 -19 10 -30.5t28 -11.5q27 0 55 30zM306 427l-134 -207h129l6 207
h-1z" />
    <glyph glyph-name="Cacute.sc" unicode="&#xf643;" horiz-adv-x="523" 
d="M234 -18q-88 0 -143.5 59.5t-55.5 157.5q0 86 42 168.5t116.5 136.5t159.5 54q92 0 138 -73l32 57h30l-54 -172h-33q-2 70 -28.5 106t-81.5 36q-70 0 -124.5 -57t-79 -131.5t-24.5 -144.5q0 -75 32.5 -113t90.5 -38q96 0 175 107l26 -17q-38 -62 -93.5 -99t-124.5 -37z
M377 618h-27l87 150q16 34 47 34q16 0 27.5 -11t11.5 -29q0 -24 -31 -48z" />
    <glyph glyph-name="Ccaron.sc" unicode="&#xf644;" horiz-adv-x="523" 
d="M234 -18q-88 0 -143.5 59.5t-55.5 157.5q0 86 42 168.5t116.5 136.5t159.5 54q92 0 138 -73l32 57h30l-54 -172h-33q-2 70 -28.5 106t-81.5 36q-70 0 -124.5 -57t-79 -131.5t-24.5 -144.5q0 -75 32.5 -113t90.5 -38q96 0 175 107l26 -17q-38 -62 -93.5 -99t-124.5 -37z
M285 784h25l69 -88l116 88h32l-129 -157h-64z" />
    <glyph glyph-name="Dcaron.sc" unicode="&#xf645;" horiz-adv-x="578" 
d="M-21 0l10 40l60 5l140 458l-58 4l10 42h189q99 0 161 -53.5t62 -157.5q0 -85 -42.5 -162.5t-122 -126.5t-176.5 -49h-233zM328 504h-49l-141 -459h72q77 0 135.5 47.5t86.5 117.5t28 147q0 78 -33 112.5t-99 34.5zM289 784h25l69 -88l116 88h32l-129 -157h-64z" />
    <glyph glyph-name="Dcroat.sc" unicode="&#xf646;" horiz-adv-x="578" 
d="M-21 0l10 40l60 5l66 216h-70l12 38h70l62 204l-58 4l10 42h189q99 0 161 -53.5t62 -157.5q0 -85 -42.5 -162.5t-122 -126.5t-176.5 -49h-233zM328 504h-49l-63 -205h131l-12 -38h-131l-66 -216h72q77 0 135.5 47.5t86.5 117.5t28 147q0 78 -33 112.5t-99 34.5z" />
    <glyph glyph-name="Ecaron.sc" unicode="&#xf647;" horiz-adv-x="531" 
d="M466 391l10 65q5 30 -3.5 39t-39.5 9h-155l-63 -206h65q23 0 31.5 6.5t18.5 26.5l26 55h36l-70 -220h-36l12 53q5 25 0 32t-27 7h-68l-65 -213h152q55 0 72 9t33 44l36 77h32l-52 -175h-434l10 40l62 6l140 456l-59 5l10 42h406l-48 -158h-32zM292 784h25l69 -88l116 88
h32l-129 -157h-64z" />
    <glyph glyph-name="Edotaccent.sc" unicode="&#xf648;" horiz-adv-x="531" 
d="M466 391l10 65q5 30 -3.5 39t-39.5 9h-155l-63 -206h65q23 0 31.5 6.5t18.5 26.5l26 55h36l-70 -220h-36l12 53q5 25 0 32t-27 7h-68l-65 -213h152q55 0 72 9t33 44l36 77h32l-52 -175h-434l10 40l62 6l140 456l-59 5l10 42h406l-48 -158h-32zM322 683q0 22 15.5 37
t37.5 15q23 0 38.5 -15t15.5 -37q0 -23 -15.5 -37.5t-38.5 -14.5q-22 0 -37.5 14.5t-15.5 37.5z" />
    <glyph glyph-name="Emacron.sc" unicode="&#xf649;" horiz-adv-x="531" 
d="M466 391l10 65q5 30 -3.5 39t-39.5 9h-155l-63 -206h65q23 0 31.5 6.5t18.5 26.5l26 55h36l-70 -220h-36l12 53q5 25 0 32t-27 7h-68l-65 -213h152q55 0 72 9t33 44l36 77h32l-52 -175h-434l10 40l62 6l140 456l-59 5l10 42h406l-48 -158h-32zM238 633l17 53h244l-17 -53
h-244z" />
    <glyph glyph-name="Eogonek.sc" unicode="&#xf64a;" horiz-adv-x="531" 
d="M466 391l10 65q5 30 -3.5 39t-39.5 9h-155l-63 -206h65q23 0 31.5 6.5t18.5 26.5l26 55h36l-70 -220h-36l12 53q5 25 0 32t-27 7h-68l-65 -213h152q55 0 72 9t33 44l36 77h32l-52 -175h-434l10 40l62 6l140 456l-59 5l10 42h406l-48 -158h-32zM342 -166l21 -20
q-40 -60 -107 -60q-41 0 -66 22t-25 56q0 25 12.5 48.5t40 46.5t49.5 38t62 40h42q-122 -87 -122 -159q0 -19 10 -30.5t28 -11.5q27 0 55 30z" />
    <glyph glyph-name="Gbreve.sc" unicode="&#xf64b;" horiz-adv-x="569" 
d="M249 -18q-98 0 -156 60.5t-58 159.5q0 84 41.5 166t115.5 136t159 54q95 0 139 -72l30 56h31l-50 -162h-34q-5 132 -111 132q-71 0 -125 -57t-78.5 -131.5t-24.5 -145.5q0 -150 124 -150q58 0 85 24t43 72l15 56l-65 6l11 40h205l-11 -40l-54 -5l-35 -115
q-84 -84 -197 -84zM376 627q-53 0 -77 47.5t-15 115.5h32q-8 -93 66 -93q39 0 63 21.5t45 71.5h33q-25 -76 -59.5 -119.5t-87.5 -43.5z" />
    <glyph glyph-name="Gcommaaccent.sc" unicode="&#xf64c;" horiz-adv-x="569" 
d="M249 -18q-98 0 -156 60.5t-58 159.5q0 84 41.5 166t115.5 136t159 54q95 0 139 -72l30 56h31l-50 -162h-34q-5 132 -111 132q-71 0 -125 -57t-78.5 -131.5t-24.5 -145.5q0 -150 124 -150q58 0 85 24t43 72l15 56l-65 6l11 40h205l-11 -40l-54 -5l-35 -115
q-84 -84 -197 -84zM105 -266l-7 32q120 23 120 82q0 15 -12 15q-3 0 -11 -6t-19 -6q-19 0 -30 12t-11 30q0 22 17.5 36.5t43.5 14.5q35 0 56 -22t21 -56q0 -107 -168 -132z" />
    <glyph glyph-name="Imacron.sc" unicode="&#xf64d;" horiz-adv-x="322" 
d="M-22 0l10 40l71 7l140 455l-67 5l10 42h225l-10 -42l-69 -4l-140 -457l67 -6l-10 -40h-227zM134 633l17 53h244l-17 -53h-244z" />
    <glyph glyph-name="Iogonek.sc" unicode="&#xf64e;" horiz-adv-x="322" 
d="M-22 0l10 40l71 7l140 455l-67 5l10 42h225l-10 -42l-69 -4l-140 -457l67 -6l-10 -40h-227zM82 -166l21 -20q-40 -60 -107 -60q-41 0 -66 22t-25 56q0 25 12.5 48.5t40 46.5t49.5 38t62 40h42q-122 -87 -122 -159q0 -19 10 -30.5t28 -11.5q27 0 55 30z" />
    <glyph glyph-name="Kcommaaccent.sc" unicode="&#xf64f;" horiz-adv-x="560" 
d="M-25 0l10 40l65 6l139 457l-61 4l10 42h214l-11 -42l-63 -4l-139 -457l58 -6l-10 -40h-212zM276 0l11 40l53 4l-111 234l3 16l234 201l-53 12l11 42h168l-11 -42l-60 -14l-213 -184l125 -265l43 -4l-10 -40h-190zM115 -266l-7 32q120 23 120 82q0 15 -12 15q-3 0 -11 -6
t-19 -6q-19 0 -30 12t-11 30q0 22 17.5 36.5t43.5 14.5q35 0 56 -22t21 -56q0 -107 -168 -132z" />
    <glyph glyph-name="Lacute.sc" unicode="&#xf650;" horiz-adv-x="493" 
d="M-24 0l10 40l63 5l141 458l-61 4l10 42h222l-10 -42l-73 -5l-140 -457h135q46 0 65.5 14.5t46.5 71.5l28 61h34l-59 -192h-412zM229 617h-27l87 150q16 34 47 34q16 0 27.5 -11t11.5 -29q0 -24 -31 -48z" />
    <glyph glyph-name="Lcaron.sc" unicode="&#xf651;" horiz-adv-x="493" 
d="M-24 0l10 40l63 5l141 458l-61 4l10 42h222l-10 -42l-73 -5l-140 -457h135q46 0 65.5 14.5t46.5 71.5l28 61h34l-59 -192h-412zM368 376l-14 22q59 52 59 106q0 18 -12 44q13 30 41 30q42 0 42 -48t-34.5 -88t-81.5 -66z" />
    <glyph glyph-name="Lcommaaccent.sc" unicode="&#xf652;" horiz-adv-x="493" 
d="M-24 0l10 40l63 5l141 458l-61 4l10 42h222l-10 -42l-73 -5l-140 -457h135q46 0 65.5 14.5t46.5 71.5l28 61h34l-59 -192h-412zM88 -266l-7 32q120 23 120 82q0 15 -12 15q-3 0 -11 -6t-19 -6q-19 0 -30 12t-11 30q0 22 17.5 36.5t43.5 14.5q35 0 56 -22t21 -56
q0 -107 -168 -132z" />
    <glyph glyph-name="Nacute.sc" unicode="&#xf653;" horiz-adv-x="581" 
d="M-34 0l10 40l65 11l138 451l-58 5l10 42h147l136 -399l104 346l-61 11l10 42h167l-10 -42l-60 -13l-151 -494h-37l-162 469l-127 -419l84 -10l-10 -40h-195zM415 618h-27l87 150q16 34 47 34q16 0 27.5 -11t11.5 -29q0 -24 -31 -48z" />
    <glyph glyph-name="Ncaron.sc" unicode="&#xf654;" horiz-adv-x="581" 
d="M-34 0l10 40l65 11l138 451l-58 5l10 42h147l136 -399l104 346l-61 11l10 42h167l-10 -42l-60 -13l-151 -494h-37l-162 469l-127 -419l84 -10l-10 -40h-195zM339 784h25l69 -88l116 88h32l-129 -157h-64z" />
    <glyph glyph-name="Ncommaaccent.sc" unicode="&#xf655;" horiz-adv-x="581" 
d="M-34 0l10 40l65 11l138 451l-58 5l10 42h147l136 -399l104 346l-61 11l10 42h167l-10 -42l-60 -13l-151 -494h-37l-162 469l-127 -419l84 -10l-10 -40h-195zM131 -266l-7 32q120 23 120 82q0 15 -12 15q-3 0 -11 -6t-19 -6q-19 0 -30 12t-11 30q0 22 17.5 36.5t43.5 14.5
q35 0 56 -22t21 -56q0 -107 -168 -132z" />
    <glyph glyph-name="Ohungarumlaut.sc" unicode="&#xf656;" horiz-adv-x="578" 
d="M357 558q86 0 141 -54.5t55 -155.5q0 -87 -40 -170.5t-116 -139.5t-166 -56q-86 0 -141 54.5t-55 155.5q0 87 40 170.5t116 139.5t166 56zM235 28q55 0 100.5 35.5t71 90t39.5 111t14 106.5q0 68 -28 104.5t-79 36.5q-55 0 -100.5 -35.5t-71 -90t-39.5 -111t-14 -106.5
q0 -68 28 -104.5t79 -36.5zM315 618h-26l58 147q9 20 18 28t26 8q15 0 27 -11.5t12 -30.5t-19 -38zM463 618h-27l59 147q13 36 43 36q15 0 27.5 -11.5t12.5 -30.5t-19 -38z" />
    <glyph glyph-name="Omacron.sc" unicode="&#xf657;" horiz-adv-x="578" 
d="M357 558q86 0 141 -54.5t55 -155.5q0 -87 -40 -170.5t-116 -139.5t-166 -56q-86 0 -141 54.5t-55 155.5q0 87 40 170.5t116 139.5t166 56zM235 28q55 0 100.5 35.5t71 90t39.5 111t14 106.5q0 68 -28 104.5t-79 36.5q-55 0 -100.5 -35.5t-71 -90t-39.5 -111t-14 -106.5
q0 -68 28 -104.5t79 -36.5zM241 633l17 53h244l-17 -53h-244z" />
    <glyph glyph-name="Racute.sc" unicode="&#xf658;" horiz-adv-x="565" 
d="M-34 0l10 40l63 6l140 456l-61 5l10 42h190q78 0 122 -32t44 -89q0 -61 -49.5 -101.5t-125.5 -53.5v-2q51 -14 71 -44t21 -84q3 -57 14 -78.5t38 -21.5q16 0 35 8l12 -29q-34 -30 -84 -30q-56 0 -78.5 36.5t-24.5 111.5q0 61 -15.5 88.5t-63.5 27.5h-42l-64 -211l60 -5
l-10 -40h-212zM309 504h-41l-63 -208h53q63 0 100 38t37 101q0 36 -20.5 52.5t-65.5 16.5zM343 618h-27l87 150q16 34 47 34q16 0 27.5 -11t11.5 -29q0 -24 -31 -48z" />
    <glyph glyph-name="Rcaron.sc" unicode="&#xf659;" horiz-adv-x="565" 
d="M-34 0l10 40l63 6l140 456l-61 5l10 42h190q78 0 122 -32t44 -89q0 -61 -49.5 -101.5t-125.5 -53.5v-2q51 -14 71 -44t21 -84q3 -57 14 -78.5t38 -21.5q16 0 35 8l12 -29q-34 -30 -84 -30q-56 0 -78.5 36.5t-24.5 111.5q0 61 -15.5 88.5t-63.5 27.5h-42l-64 -211l60 -5
l-10 -40h-212zM309 504h-41l-63 -208h53q63 0 100 38t37 101q0 36 -20.5 52.5t-65.5 16.5zM255 784h25l69 -88l116 88h32l-129 -157h-64z" />
    <glyph glyph-name="Rcommaaccent.sc" unicode="&#xf65a;" horiz-adv-x="565" 
d="M-34 0l10 40l63 6l140 456l-61 5l10 42h190q78 0 122 -32t44 -89q0 -61 -49.5 -101.5t-125.5 -53.5v-2q51 -14 71 -44t21 -84q3 -57 14 -78.5t38 -21.5q16 0 35 8l12 -29q-34 -30 -84 -30q-56 0 -78.5 36.5t-24.5 111.5q0 61 -15.5 88.5t-63.5 27.5h-42l-64 -211l60 -5
l-10 -40h-212zM309 504h-41l-63 -208h53q63 0 100 38t37 101q0 36 -20.5 52.5t-65.5 16.5zM117 -266l-7 32q120 23 120 82q0 15 -12 15q-3 0 -11 -6t-19 -6q-19 0 -30 12t-11 30q0 22 17.5 36.5t43.5 14.5q35 0 56 -22t21 -56q0 -107 -168 -132z" />
    <glyph glyph-name="Sacute.sc" unicode="&#xf65b;" horiz-adv-x="459" 
d="M190 431q0 -29 16 -51t58 -56q70 -56 98.5 -92.5t28.5 -91.5q1 -72 -46.5 -115t-127.5 -43q-115 0 -163 89l-37 -60h-32l53 170h33q0 -68 41.5 -111t100.5 -43q46 0 72 21t26 61q0 34 -22.5 61t-85.5 81q-49 39 -70.5 74.5t-21.5 79.5q0 71 48 112t115 41q46 0 79 -18.5
t49 -48.5l31 47h31l-45 -143h-33q-4 52 -31.5 85t-78.5 33q-42 0 -64 -22.5t-22 -59.5zM309 618h-27l87 150q16 34 47 34q16 0 27.5 -11t11.5 -29q0 -24 -31 -48z" />
    <glyph glyph-name="Scedilla.sc" unicode="&#xf65c;" horiz-adv-x="459" 
d="M190 431q0 -29 16 -51t58 -56q70 -56 98.5 -92.5t28.5 -91.5q1 -72 -46.5 -115t-127.5 -43q-115 0 -163 89l-37 -60h-32l53 170h33q0 -68 41.5 -111t100.5 -43q46 0 72 21t26 61q0 34 -22.5 61t-85.5 81q-49 39 -70.5 74.5t-21.5 79.5q0 71 48 112t115 41q46 0 79 -18.5
t49 -48.5l31 47h31l-45 -143h-33q-4 52 -31.5 85t-78.5 33q-42 0 -64 -22.5t-22 -59.5zM28 -200l10 31q26 -15 61 -15q25 0 41 11.5t16 34.5q0 22 -20.5 31t-51.5 4l64 118h41l-43 -81q33 2 58.5 -15.5t25.5 -51.5q0 -42 -32 -65.5t-77 -23.5q-47 0 -93 22z" />
    <glyph glyph-name="Scommaaccent.sc" unicode="&#xf65d;" horiz-adv-x="459" 
d="M190 431q0 -29 16 -51t58 -56q70 -56 98.5 -92.5t28.5 -91.5q1 -72 -46.5 -115t-127.5 -43q-115 0 -163 89l-37 -60h-32l53 170h33q0 -68 41.5 -111t100.5 -43q46 0 72 21t26 61q0 34 -22.5 61t-85.5 81q-49 39 -70.5 74.5t-21.5 79.5q0 71 48 112t115 41q46 0 79 -18.5
t49 -48.5l31 47h31l-45 -143h-33q-4 52 -31.5 85t-78.5 33q-42 0 -64 -22.5t-22 -59.5zM81 -266l-7 32q120 23 120 82q0 15 -12 15q-3 0 -11 -6t-19 -6q-19 0 -30 12t-11 30q0 22 17.5 36.5t43.5 14.5q35 0 56 -22t21 -56q0 -107 -168 -132z" />
    <glyph glyph-name="Tcaron.sc" unicode="&#xf65e;" horiz-adv-x="506" 
d="M65 0l10 40l72 7l140 457h-53q-42 0 -59 -11.5t-40 -58.5l-33 -70h-33l57 185h435l-57 -185h-34l12 67q10 50 0.5 61.5t-54.5 11.5h-52l-140 -457l68 -7l-10 -40h-229zM278 784h25l69 -88l116 88h32l-129 -157h-64z" />
    <glyph glyph-name="Tcommaaccent.sc" unicode="&#xf65f;" horiz-adv-x="506" 
d="M65 0l10 40l72 7l140 457h-53q-42 0 -59 -11.5t-40 -58.5l-33 -70h-33l57 185h435l-57 -185h-34l12 67q10 50 0.5 61.5t-54.5 11.5h-52l-140 -457l68 -7l-10 -40h-229zM59 -266l-7 32q120 23 120 82q0 15 -12 15q-3 0 -11 -6t-19 -6q-19 0 -30 12t-11 30q0 22 17.5 36.5
t43.5 14.5q35 0 56 -22t21 -56q0 -107 -168 -132z" />
    <glyph glyph-name="Uhungarumlaut.sc" unicode="&#xf660;" horiz-adv-x="552" 
d="M232 -11q-102 0 -148.5 57.5t-16.5 150.5l95 306l-49 4l10 42h210l-11 -42l-72 -5l-94 -308q-26 -70 -3.5 -111.5t92.5 -41.5q64 0 97 30.5t55 95.5l105 328l-61 12l10 42h164l-11 -42l-57 -12l-107 -337q-50 -169 -208 -169zM344 618h-26l58 147q9 20 18 28t26 8
q15 0 27 -11.5t12 -30.5t-19 -38zM492 618h-27l59 147q14 36 43 36q15 0 27.5 -11.5t12.5 -30.5t-19 -38z" />
    <glyph glyph-name="Umacron.sc" unicode="&#xf661;" horiz-adv-x="552" 
d="M232 -11q-102 0 -148.5 57.5t-16.5 150.5l95 306l-49 4l10 42h210l-11 -42l-72 -5l-94 -308q-26 -70 -3.5 -111.5t92.5 -41.5q64 0 97 30.5t55 95.5l105 328l-61 12l10 42h164l-11 -42l-57 -12l-107 -337q-50 -169 -208 -169zM281 633l17 53h244l-17 -53h-244z" />
    <glyph glyph-name="Uogonek.sc" unicode="&#xf662;" horiz-adv-x="552" 
d="M195 -246q-41 0 -66 22t-25 56q0 78 148 158q-9 -1 -20 -1q-102 0 -148.5 57.5t-16.5 150.5l95 306l-49 4l10 42h210l-11 -42l-72 -5l-94 -308q-47 -153 89 -153q64 0 97 30.5t55 95.5l105 328l-61 12l10 42h164l-11 -42l-57 -12l-107 -337q-34 -108 -120 -155
q-57 -33 -94.5 -76.5t-37.5 -80.5q0 -19 10 -30.5t28 -11.5q27 0 55 30l21 -20q-40 -60 -107 -60z" />
    <glyph glyph-name="Uring.sc" unicode="&#xf663;" horiz-adv-x="552" 
d="M232 -11q-102 0 -148.5 57.5t-16.5 150.5l95 306l-49 4l10 42h210l-11 -42l-72 -5l-94 -308q-26 -70 -3.5 -111.5t92.5 -41.5q64 0 97 30.5t55 95.5l105 328l-61 12l10 42h164l-11 -42l-57 -12l-107 -337q-50 -169 -208 -169zM419 648q23 1 37.5 17t14.5 39
q0 24 -14.5 39.5t-37.5 15.5t-37.5 -15.5t-14.5 -39.5q0 -23 14.5 -39t37.5 -17zM419 615q-38 0 -63.5 25.5t-25.5 63.5q0 37 25.5 62.5t63.5 25.5q37 0 63 -25.5t26 -62.5q0 -38 -26 -63.5t-63 -25.5z" />
    <glyph glyph-name="Zacute.sc" unicode="&#xf664;" horiz-adv-x="481" 
d="M93 369l56 180h377l-8 -28l-426 -476h128q67 0 86.5 11t42.5 56l42 83h33l-59 -195h-400l7 27l426 477h-126q-53 0 -69.5 -11t-38.5 -54l-38 -70h-33zM332 618h-27l87 150q16 34 47 34q16 0 27.5 -11t11.5 -29q0 -24 -31 -48z" />
    <glyph glyph-name="Zdotaccent.sc" unicode="&#xf665;" horiz-adv-x="481" 
d="M93 369l56 180h377l-8 -28l-426 -476h128q67 0 86.5 11t42.5 56l42 83h33l-59 -195h-400l7 27l426 477h-126q-53 0 -69.5 -11t-38.5 -54l-38 -70h-33zM287 683q0 22 15.5 37t37.5 15q23 0 38.5 -15t15.5 -37q0 -23 -15.5 -37.5t-38.5 -14.5q-22 0 -37.5 14.5t-15.5 37.5z
" />
    <glyph glyph-name="Idotaccent.sc" unicode="&#xf666;" horiz-adv-x="322" 
d="M-22 0l10 40l71 7l140 455l-67 5l10 42h225l-10 -42l-69 -4l-140 -457l67 -6l-10 -40h-227zM218 683q0 22 15.5 37t37.5 15q23 0 38.5 -15t15.5 -37q0 -23 -15.5 -37.5t-38.5 -14.5q-22 0 -37.5 14.5t-15.5 37.5z" />
    <glyph glyph-name="germandbls.sc" unicode="&#xf667;" horiz-adv-x="900" 
d="M631 431q0 -29 16 -51t58 -56q70 -56 98.5 -92.5t28.5 -91.5q1 -72 -46.5 -115t-127.5 -43q-115 0 -163 89l-37 -60h-32l53 170h33q0 -68 41.5 -111t100.5 -43q46 0 72 21t26 61q0 34 -22.5 61t-85.5 81q-49 39 -70.5 74.5t-21.5 79.5q0 71 48 112t115 41q46 0 79 -18.5
t49 -48.5l31 47h31l-45 -143h-33q-4 52 -31.5 85t-78.5 33q-42 0 -64 -22.5t-22 -59.5zM190 431q0 -29 16 -51t58 -56q70 -56 98.5 -92.5t28.5 -91.5q1 -72 -46.5 -115t-127.5 -43q-115 0 -163 89l-37 -60h-32l53 170h33q0 -68 41.5 -111t100.5 -43q46 0 72 21t26 61
q0 34 -22.5 61t-85.5 81q-49 39 -70.5 74.5t-21.5 79.5q0 71 48 112t115 41q46 0 79 -18.5t49 -48.5l31 47h31l-45 -143h-33q-4 52 -31.5 85t-78.5 33q-42 0 -64 -22.5t-22 -59.5z" />
    <glyph glyph-name="Lslash.sc" unicode="&#xf6f9;" horiz-adv-x="493" 
d="M21 152l15 50l344 165l-15 -50zM-24 0l10 40l63 5l141 458l-61 4l10 42h222l-10 -42l-73 -5l-140 -457h135q46 0 65.5 14.5t46.5 71.5l28 61h34l-59 -192h-412z" />
    <glyph glyph-name="OE.sc" unicode="&#xf6fa;" horiz-adv-x="773" 
d="M788 549l-48 -158h-32l10 65q5 30 -3.5 39t-39.5 9h-155l-63 -206h65q23 0 31.5 6.5t18.5 26.5l26 55h32l-70 -220h-32l12 53q5 25 0 32t-27 7h-68l-65 -213h152q55 0 72 9t33 44l36 77h32l-52 -175h-392q-100 0 -163 55.5t-63 159.5q0 133 96.5 233.5t240.5 100.5h416z
M127 201q0 -156 137 -156h27l141 460h-57q-114 0 -181 -91.5t-67 -212.5z" />
    <glyph glyph-name="Scaron.sc" unicode="&#xf6fd;" horiz-adv-x="459" 
d="M190 431q0 -29 16 -51t58 -56q70 -56 98.5 -92.5t28.5 -91.5q1 -72 -46.5 -115t-127.5 -43q-115 0 -163 89l-37 -60h-32l53 170h33q0 -68 41.5 -111t100.5 -43q46 0 72 21t26 61q0 34 -22.5 61t-85.5 81q-49 39 -70.5 74.5t-21.5 79.5q0 71 48 112t115 41q46 0 79 -18.5
t49 -48.5l31 47h31l-45 -143h-33q-4 52 -31.5 85t-78.5 33q-42 0 -64 -22.5t-22 -59.5zM222 784h25l69 -88l116 88h32l-129 -157h-64z" />
    <glyph glyph-name="Zcaron.sc" unicode="&#xf6ff;" horiz-adv-x="481" 
d="M93 369l56 180h377l-8 -28l-426 -476h128q67 0 86.5 11t42.5 56l42 83h33l-59 -195h-400l7 27l426 477h-126q-53 0 -69.5 -11t-38.5 -54l-38 -70h-33zM257 784h25l69 -88l116 88h32l-129 -157h-64z" />
    <glyph glyph-name="exclam.sc" unicode="&#xf721;" horiz-adv-x="225" 
d="M84 173h-29l71 322q10 66 60 66q33 0 43.5 -28t-4.5 -63zM42 -13q-24 0 -39.5 16.5t-15.5 42.5q0 25 15 41.5t38 16.5q26 0 41.5 -16.5t15.5 -41.5q0 -26 -15.5 -42.5t-39.5 -16.5z" />
    <glyph glyph-name="ampersand.sc" unicode="&#xf726;" horiz-adv-x="625" 
d="M431 -16q-44 0 -69 17.5t-48 61.5q-80 -80 -165 -80q-71 0 -115 43t-44 103q0 127 196 189q-33 54 -33 106q0 57 45 95.5t102 38.5q53 0 84.5 -28.5t31.5 -73.5q0 -83 -136 -133q39 -60 79 -150q14 22 30.5 53t27.5 50.5t25 38.5t30.5 28t38.5 9q23 0 39 -14t16 -39
q0 -24 -16 -40t-40 -14q-7 26 -24 26q-20 0 -40 -24t-60 -88q-9 -13 -13 -20q24 -61 42 -82t48 -21q35 0 50 15l9 -29q-42 -38 -91 -38zM182 42q63 0 116 53q-65 147 -98 200q-118 -56 -118 -155q0 -45 27.5 -71.5t72.5 -26.5zM227 445q0 -36 39 -100q88 45 88 113
q0 62 -56 62q-30 0 -50.5 -21t-20.5 -54z" />
    <glyph glyph-name="question.sc" unicode="&#xf73f;" horiz-adv-x="364" 
d="M101 -13q-24 0 -39.5 16.5t-15.5 42.5q0 25 15.5 41.5t39.5 16.5t39.5 -16.5t15.5 -41.5q0 -26 -15.5 -42.5t-39.5 -16.5zM138 173h-38q-2 42 17.5 75t49 55t59.5 42t51 46.5t21 57.5q0 33 -20.5 51t-54.5 18q-26 0 -45 -10.5t-19 -32.5q0 -19 22 -24q7 -25 -4 -44.5
t-39 -19.5q-23 0 -38.5 15t-15.5 44q0 50 42.5 82.5t103.5 32.5q62 0 105 -31.5t43 -90.5q0 -43 -24.5 -76.5t-59 -54t-70 -39t-60.5 -42.5t-26 -54z" />
    <glyph glyph-name="A.sc" unicode="&#xf761;" horiz-adv-x="518" 
d="M213 0l10 40l73 5l4 135h-153l-80 -124l67 -16l-11 -40h-163l11 40l48 16l326 502h50l-13 -514l48 -4l-10 -40h-207zM306 427l-134 -207h129l6 207h-1z" />
    <glyph glyph-name="B.sc" unicode="&#xf762;" horiz-adv-x="514" 
d="M-22 0l12 40l60 5l139 458l-58 4l13 42h186q78 0 118.5 -33.5t40.5 -87.5q0 -59 -43 -97.5t-102 -47.5v-2q48 -11 75.5 -41t27.5 -72q0 -78 -67 -123t-164 -45h-238zM274 263h-69l-67 -220h71q71 0 111 34.5t40 106.5q0 38 -23 58.5t-63 20.5zM325 504h-46l-62 -201h58
q131 0 131 134q0 67 -81 67z" />
    <glyph glyph-name="C.sc" unicode="&#xf763;" horiz-adv-x="523" 
d="M234 -18q-88 0 -143.5 59.5t-55.5 157.5q0 86 42 168.5t116.5 136.5t159.5 54q92 0 138 -73l32 57h30l-54 -172h-33q-2 70 -28.5 106t-81.5 36q-70 0 -124.5 -57t-79 -131.5t-24.5 -144.5q0 -75 32.5 -113t90.5 -38q96 0 175 107l26 -17q-38 -62 -93.5 -99t-124.5 -37z
" />
    <glyph glyph-name="D.sc" unicode="&#xf764;" horiz-adv-x="578" 
d="M-21 0l10 40l60 5l140 458l-58 4l10 42h189q99 0 161 -53.5t62 -157.5q0 -85 -42.5 -162.5t-122 -126.5t-176.5 -49h-233zM328 504h-49l-141 -459h72q77 0 135.5 47.5t86.5 117.5t28 147q0 78 -33 112.5t-99 34.5z" />
    <glyph glyph-name="E.sc" unicode="&#xf765;" horiz-adv-x="531" 
d="M466 391l10 65q5 30 -3.5 39t-39.5 9h-155l-63 -206h65q23 0 31.5 6.5t18.5 26.5l26 55h36l-70 -220h-36l12 53q5 25 0 32t-27 7h-68l-65 -213h152q55 0 72 9t33 44l36 77h32l-52 -175h-434l10 40l62 6l140 456l-59 5l10 42h406l-48 -158h-32z" />
    <glyph glyph-name="F.sc" unicode="&#xf766;" horiz-adv-x="491" 
d="M459 376l11 69q6 39 -4 49t-51 10h-137l-62 -203h69q23 0 32.5 7t19.5 31l24 50h36l-71 -221h-35l12 52q6 25 0.5 33t-28.5 8h-71l-66 -215l78 -6l-10 -40h-229l10 40l62 6l140 456l-59 5l10 42h403l-52 -173h-32z" />
    <glyph glyph-name="G.sc" unicode="&#xf767;" horiz-adv-x="569" 
d="M249 -18q-98 0 -156 60.5t-58 159.5q0 84 41.5 166t115.5 136t159 54q95 0 139 -72l30 56h31l-50 -162h-34q-5 132 -111 132q-71 0 -125 -57t-78.5 -131.5t-24.5 -145.5q0 -150 124 -150q58 0 85 24t43 72l15 56l-65 6l11 40h205l-11 -40l-54 -5l-35 -115
q-84 -84 -197 -84z" />
    <glyph glyph-name="H.sc" unicode="&#xf768;" horiz-adv-x="621" 
d="M292 0l11 40l65 5l67 219h-230l-67 -219l60 -5l-10 -40h-212l10 40l63 6l140 456l-61 5l10 42h215l-11 -42l-64 -4l-61 -199h230l61 199l-61 4l11 42h211l-10 -42l-62 -4l-140 -458l60 -5l-10 -40h-215z" />
    <glyph glyph-name="I.sc" unicode="&#xf769;" horiz-adv-x="322" 
d="M-22 0l10 40l71 7l140 455l-67 5l10 42h225l-10 -42l-69 -4l-140 -457l67 -6l-10 -40h-227z" />
    <glyph glyph-name="J.sc" unicode="&#xf76a;" horiz-adv-x="378" 
d="M64 -51q-46 0 -73.5 23t-27.5 60q0 28 15 45t37 17q19 0 31.5 -11.5t12.5 -31.5q0 -19 -12.5 -32t-12.5 -16q0 -13 26 -13q64 0 91 95l123 415l-64 7l11 42h211l-12 -42l-57 -6l-115 -377q-27 -88 -75.5 -131.5t-108.5 -43.5z" />
    <glyph glyph-name="K.sc" unicode="&#xf76b;" horiz-adv-x="560" 
d="M-25 0l10 40l65 6l139 457l-61 4l10 42h214l-11 -42l-63 -4l-139 -457l58 -6l-10 -40h-212zM276 0l11 40l53 4l-111 234l3 16l234 201l-53 12l11 42h168l-11 -42l-60 -14l-213 -184l125 -265l43 -4l-10 -40h-190z" />
    <glyph glyph-name="L.sc" unicode="&#xf76c;" horiz-adv-x="493" 
d="M-24 0l10 40l63 5l141 458l-61 4l10 42h222l-10 -42l-73 -5l-140 -457h135q46 0 65.5 14.5t46.5 71.5l28 61h34l-59 -192h-412z" />
    <glyph glyph-name="M.sc" unicode="&#xf76d;" horiz-adv-x="671" 
d="M249 0h-29l-9 466l-126 -412l63 -14l-10 -40h-170l10 40l65 14l136 446l-57 7l10 42h151l7 -410l258 410h172l-11 -42l-62 -4l-140 -458l60 -5l-10 -40h-209l10 40l64 7l135 440z" />
    <glyph glyph-name="N.sc" unicode="&#xf76e;" horiz-adv-x="581" 
d="M-34 0l10 40l65 11l138 451l-58 5l10 42h147l136 -399l104 346l-61 11l10 42h167l-10 -42l-60 -13l-151 -494h-37l-162 469l-127 -419l84 -10l-10 -40h-195z" />
    <glyph glyph-name="O.sc" unicode="&#xf76f;" horiz-adv-x="578" 
d="M357 558q86 0 141 -54.5t55 -155.5q0 -87 -40 -170.5t-116 -139.5t-166 -56q-86 0 -141 54.5t-55 155.5q0 87 40 170.5t116 139.5t166 56zM235 28q55 0 100.5 35.5t71 90t39.5 111t14 106.5q0 68 -28 104.5t-79 36.5q-55 0 -100.5 -35.5t-71 -90t-39.5 -111t-14 -106.5
q0 -68 28 -104.5t79 -36.5z" />
    <glyph glyph-name="P.sc" unicode="&#xf770;" horiz-adv-x="495" 
d="M-24 0l10 40l64 6l140 457l-62 4l10 42h192q83 0 129 -40t46 -99q0 -80 -64 -130t-162 -50q-47 0 -81 9l-59 -193l68 -6l-10 -40h-221zM325 506h-45l-71 -229q22 -5 64 -5q67 0 106 41t39 118q0 75 -93 75z" />
    <glyph glyph-name="Q.sc" unicode="&#xf771;" horiz-adv-x="578" 
d="M350 -165q-73 0 -114 36.5t-66 118.5q-63 18 -99 69t-36 133q0 87 40 170.5t116 139.5t166 56q86 0 141 -54.5t55 -155.5q0 -82 -36 -161.5t-103.5 -136t-149.5 -66.5q16 -54 45.5 -76.5t74.5 -22.5q31 0 68 13l11 -35q-63 -28 -113 -28zM235 28q55 0 100.5 35.5t71 90
t39.5 111t14 106.5q0 68 -28 104.5t-79 36.5q-55 0 -100.5 -35.5t-71 -90t-39.5 -111t-14 -106.5q0 -68 28 -104.5t79 -36.5z" />
    <glyph glyph-name="R.sc" unicode="&#xf772;" horiz-adv-x="565" 
d="M-34 0l10 40l63 6l140 456l-61 5l10 42h190q78 0 122 -32t44 -89q0 -61 -49.5 -101.5t-125.5 -53.5v-2q51 -14 71 -44t21 -84q3 -57 14 -78.5t38 -21.5q16 0 35 8l12 -29q-34 -30 -84 -30q-56 0 -78.5 36.5t-24.5 111.5q0 61 -15.5 88.5t-63.5 27.5h-42l-64 -211l60 -5
l-10 -40h-212zM309 504h-41l-63 -208h53q63 0 100 38t37 101q0 36 -20.5 52.5t-65.5 16.5z" />
    <glyph glyph-name="S.sc" unicode="&#xf773;" horiz-adv-x="459" 
d="M190 431q0 -29 16 -51t58 -56q70 -56 98.5 -92.5t28.5 -91.5q1 -72 -46.5 -115t-127.5 -43q-115 0 -163 89l-37 -60h-32l53 170h33q0 -68 41.5 -111t100.5 -43q46 0 72 21t26 61q0 34 -22.5 61t-85.5 81q-49 39 -70.5 74.5t-21.5 79.5q0 71 48 112t115 41q46 0 79 -18.5
t49 -48.5l31 47h31l-45 -143h-33q-4 52 -31.5 85t-78.5 33q-42 0 -64 -22.5t-22 -59.5z" />
    <glyph glyph-name="T.sc" unicode="&#xf774;" horiz-adv-x="506" 
d="M65 0l10 40l72 7l140 457h-53q-42 0 -59 -11.5t-40 -58.5l-33 -70h-33l57 185h435l-57 -185h-34l12 67q10 50 0.5 61.5t-54.5 11.5h-52l-140 -457l68 -7l-10 -40h-229z" />
    <glyph glyph-name="U.sc" unicode="&#xf775;" horiz-adv-x="552" 
d="M232 -11q-102 0 -148.5 57.5t-16.5 150.5l95 306l-49 4l10 42h210l-11 -42l-72 -5l-94 -308q-26 -70 -3.5 -111.5t92.5 -41.5q64 0 97 30.5t55 95.5l105 328l-61 12l10 42h164l-11 -42l-57 -12l-107 -337q-50 -169 -208 -169z" />
    <glyph glyph-name="V.sc" unicode="&#xf776;" horiz-adv-x="532" 
d="M153 -8l3 511l-51 4l10 42h203l-11 -42l-63 -4l-5 -392h1l254 381l-66 15l11 42h160l-10 -42l-46 -16l-334 -499h-56z" />
    <glyph glyph-name="W.sc" unicode="&#xf777;" horiz-adv-x="749" 
d="M150 -8l9 511l-49 4l10 42h187l-11 -42l-50 -4l-16 -396h3l158 264v132l-47 4l10 42h191l-11 -42l-60 -5l-4 -395h3l228 383l-62 17l11 42h152l-11 -42l-38 -13l-304 -502h-58v297l-183 -297h-58z" />
    <glyph glyph-name="X.sc" unicode="&#xf778;" horiz-adv-x="546" 
d="M226 0l10 40l57 6l-51 193l-166 -184l59 -15l-10 -40h-175l10 40l64 17l205 227l-59 218l-48 5l11 42h197l-11 -42l-54 -5l43 -165l143 155l-54 15l10 42h169l-11 -42l-64 -18l-181 -198l67 -246l49 -5l-10 -40h-200z" />
    <glyph glyph-name="Y.sc" unicode="&#xf779;" horiz-adv-x="493" 
d="M70 0l10 40l70 7l64 211l-69 246l-39 3l11 42h189l-11 -42l-58 -4l57 -206l158 193l-55 17l11 42h155l-11 -42l-51 -18l-200 -240l-62 -203l65 -6l-10 -40h-224z" />
    <glyph glyph-name="Z.sc" unicode="&#xf77a;" horiz-adv-x="481" 
d="M93 369l56 180h377l-8 -28l-426 -476h128q67 0 86.5 11t42.5 56l42 83h33l-59 -195h-400l7 27l426 477h-126q-53 0 -69.5 -11t-38.5 -54l-38 -70h-33z" />
    <glyph glyph-name="exclamdown.sc" unicode="&#xf7a1;" horiz-adv-x="225" 
d="M150 375h29l-71 -322q-10 -66 -60 -66q-33 0 -43.5 28t4.5 63zM192 561q24 0 39.5 -16.5t15.5 -42.5q0 -25 -15 -41.5t-38 -16.5q-26 0 -41.5 16.5t-15.5 41.5q0 26 15.5 42.5t39.5 16.5z" />
    <glyph glyph-name="questiondown.sc" unicode="&#xf7bf;" horiz-adv-x="364" 
d="M270 558q24 0 39.5 -16.5t15.5 -42.5q0 -25 -15.5 -41.5t-39.5 -16.5t-39.5 16.5t-15.5 41.5q0 26 15.5 42.5t39.5 16.5zM233 372h38q2 -42 -17.5 -75t-49 -55t-59.5 -42t-51 -46.5t-21 -57.5q0 -33 20.5 -51t54.5 -18q26 0 45 10.5t19 32.5q0 18 -22 24q-7 25 4 44.5
t39 19.5q23 0 38.5 -15t15.5 -44q0 -50 -42.5 -82.5t-103.5 -32.5q-62 0 -105 31.5t-43 90.5q0 43 24.5 76.5t59 54t70 39t60.5 42.5t26 54z" />
    <glyph glyph-name="Agrave.sc" unicode="&#xf7e0;" horiz-adv-x="518" 
d="M213 0l10 40l73 5l4 135h-153l-80 -124l67 -16l-11 -40h-163l11 40l48 16l326 502h50l-13 -514l48 -4l-10 -40h-207zM306 427l-134 -207h129l6 207h-1zM407 618h-25l-76 93q-21 26 -21 47q0 18 13 31t33 13q36 0 42 -43z" />
    <glyph glyph-name="Aacute.sc" unicode="&#xf7e1;" horiz-adv-x="518" 
d="M213 0l10 40l73 5l4 135h-153l-80 -124l67 -16l-11 -40h-163l11 40l48 16l326 502h50l-13 -514l48 -4l-10 -40h-207zM306 427l-134 -207h129l6 207h-1zM370 618h-27l87 150q16 34 47 34q16 0 27.5 -11t11.5 -29q0 -24 -31 -48z" />
    <glyph glyph-name="Acircumflex.sc" unicode="&#xf7e2;" horiz-adv-x="518" 
d="M213 0l10 40l73 5l4 135h-153l-80 -124l67 -16l-11 -40h-163l11 40l48 16l326 502h50l-13 -514l48 -4l-10 -40h-207zM306 427l-134 -207h129l6 207h-1zM285 618h-33l130 157h63l49 -157h-25l-69 87z" />
    <glyph glyph-name="Atilde.sc" unicode="&#xf7e3;" horiz-adv-x="518" 
d="M213 0l10 40l73 5l4 135h-153l-80 -124l67 -16l-11 -40h-163l11 40l48 16l326 502h50l-13 -514l48 -4l-10 -40h-207zM306 427l-134 -207h129l6 207h-1zM429 626q-23 0 -62 15.5t-52 15.5q-17 0 -28.5 -9.5t-22.5 -33.5h-35q18 47 46 79t62 32q21 0 60.5 -15.5t50.5 -15.5
q17 0 27.5 10t22.5 35h36q-19 -48 -46 -80.5t-59 -32.5z" />
    <glyph glyph-name="Adieresis.sc" unicode="&#xf7e4;" horiz-adv-x="518" 
d="M213 0l10 40l73 5l4 135h-153l-80 -124l67 -16l-11 -40h-163l11 40l48 16l326 502h50l-13 -514l48 -4l-10 -40h-207zM306 427l-134 -207h129l6 207h-1zM292 628q-22 0 -37 14.5t-15 36.5q0 23 15 36.5t37 13.5t37 -13.5t15 -36.5q0 -22 -15 -36.5t-37 -14.5zM468 628
q-21 0 -36.5 15t-15.5 36q0 23 15 36.5t37 13.5t36.5 -13.5t14.5 -36.5q0 -22 -15 -36.5t-36 -14.5z" />
    <glyph glyph-name="Aring.sc" unicode="&#xf7e5;" horiz-adv-x="518" 
d="M213 0l10 40l73 5l4 135h-153l-80 -124l67 -16l-11 -40h-163l11 40l48 16l326 502h50l-13 -514l48 -4l-10 -40h-207zM306 427l-134 -207h129l6 207h-1zM379 648q23 1 37.5 17t14.5 39q0 24 -14.5 39.5t-37.5 15.5t-37.5 -15.5t-14.5 -39.5q0 -23 14.5 -39t37.5 -17z
M379 615q-38 0 -63.5 25.5t-25.5 63.5q0 37 25.5 62.5t63.5 25.5q37 0 63 -25.5t26 -62.5q0 -38 -26 -63.5t-63 -25.5z" />
    <glyph glyph-name="AE.sc" unicode="&#xf7e6;" horiz-adv-x="766" 
d="M701 391l10 65q5 30 -3.5 39t-39.5 9h-155l-63 -206h65q23 0 31.5 6.5t18.5 26.5l26 55h32l-70 -220h-32l12 53q5 25 0 32t-27 7h-68l-65 -213h152q55 0 72 9t33 44l36 77h32l-52 -175h-434l10 40l62 6l62 203h-135l-164 -193l71 -16l-10 -40h-167l10 40l38 13l385 449
l-67 5l12 42h462l-48 -158h-32zM419 493l-174 -204h113l63 204h-2z" />
    <glyph glyph-name="Ccedilla.sc" unicode="&#xf7e7;" horiz-adv-x="523" 
d="M234 -18q-88 0 -143.5 59.5t-55.5 157.5q0 86 42 168.5t116.5 136.5t159.5 54q92 0 138 -73l32 57h30l-54 -172h-33q-2 70 -28.5 106t-81.5 36q-70 0 -124.5 -57t-79 -131.5t-24.5 -144.5q0 -75 32.5 -113t90.5 -38q96 0 175 107l26 -17q-38 -62 -93.5 -99t-124.5 -37z
M60 -200l10 31q26 -15 61 -15q25 0 41 11.5t16 34.5q0 22 -20.5 31t-51.5 4l64 118h41l-43 -81q33 2 58.5 -15.5t25.5 -51.5q0 -42 -32 -65.5t-77 -23.5q-47 0 -93 22z" />
    </font>
</defs>
</svg>
