<?xml version="1.0" encoding="utf-8"?>
<!-- Generator: Adobe Illustrator 16.0.0, SVG Export Plug-In . SVG Version: 6.00 Build 0)  -->
<!DOCTYPE svg PUBLIC "-//W3C//DTD SVG 1.1//EN" "http://www.w3.org/Graphics/SVG/1.1/DTD/svg11.dtd">
<svg version="1.1" id="Layer_1" xmlns="http://www.w3.org/2000/svg" xmlns:xlink="http://www.w3.org/1999/xlink" x="0px" y="0px"
	 width="225px" height="171px" viewBox="0 0 225 171" enable-background="new 0 0 225 171" xml:space="preserve">
<rect fill="#E1DDCD" width="225" height="171"/>
<g id="cZKaww_1_">
	
		<image overflow="visible" enable-background="new    " width="7" height="8" id="cZKaww" xlink:href="cerrar.png"  transform="matrix(1.0001 0 0 1.0001 207.502 6.9541)">
	</image>
</g>
<g>
	<line fill="none" stroke="#000000" stroke-miterlimit="10" x1="11" y1="37.771" x2="214" y2="37.771"/>
	<line fill="none" stroke="#000000" stroke-miterlimit="10" x1="11" y1="133.229" x2="214" y2="133.229"/>
</g>
<g>
	<path fill="#E63328" d="M12.752,79.406h1.26l5.333-12.976h2.604l4.935,12.976h1.301v1.722H22.81v-1.722h1.344l-1.26-3.653H17.73
		l-1.365,3.653h1.512v1.722h-5.123v-1.722H12.752z M20.836,69.748c-0.231-0.651-0.315-1.029-0.379-1.344h-0.041
		c-0.063,0.294-0.147,0.693-0.399,1.344L18.4,73.905h3.884L20.836,69.748z"/>
	<path fill="#E63328" d="M29.446,79.406h1.239l0.084-12.703h-1.575v-1.722h4.011l-0.063,5.228c0,0.735-0.126,1.491-0.272,2.415
		h0.041c0.441-1.407,1.659-2.667,3.843-2.667c2.562,0,3.8,1.617,3.8,4.22c0,1.743-0.062,3.485-0.084,5.228h1.428v1.722H36.88v-1.722
		h1.238c0.021-1.596,0.084-3.212,0.084-4.808c0-1.533-0.713-2.667-2.204-2.667c-1.616,0-2.835,1.281-2.876,3.317l-0.084,4.157h1.469
		v1.722h-5.06L29.446,79.406L29.446,79.406z"/>
	<path fill="#E63328" d="M48.85,69.958c4.031,0,5.354,3.086,5.354,5.774c0,3.107-1.89,5.648-5.627,5.648
		c-3.905,0-5.438-2.708-5.438-5.48C43.139,72.33,45.511,69.958,48.85,69.958z M48.639,79.406c2.143,0,3.087-1.785,3.087-3.926
		c0-2.457-1.28-3.548-2.919-3.548c-2.33,0-3.191,1.953-3.191,3.884C45.615,77.642,46.519,79.406,48.639,79.406z"/>
	<path fill="#E63328" d="M55.822,79.406h1.322l0.043-7.475h-1.659v-1.722h3.884c0,0.819,0,1.932-0.125,3.023l0.041,0.042
		C59.748,71.217,60.945,70,62.52,70c0.567,0,1.113,0.105,1.323,0.189l-0.252,2.079c-0.294-0.105-0.588-0.168-1.071-0.168
		c-2.078,0-2.96,1.974-2.98,3.905l-0.043,3.401h1.596v1.722h-5.27v-1.722H55.822z"/>
	<path fill="#E63328" d="M65.021,70.944c0.588-0.273,1.995-0.987,4.325-0.987c3.233,0,4.262,1.596,4.262,4.178
		c0,1.764-0.062,3.506-0.084,5.27h1.471v1.722H71.53c0-0.693,0.062-1.533,0.189-2.268h-0.043c-0.461,1.239-1.344,2.52-3.632,2.52
		c-2.624,0-3.485-1.743-3.485-3.128c0-2.876,2.918-3.254,4.703-3.338l2.246-0.126v-0.819c0-1.344-0.482-2.289-2.414-2.289
		c-0.818,0-1.617,0.231-1.974,0.378v1.596h-2.1L65.021,70.944L65.021,70.944z M68.652,79.532c1.827,0,2.814-1.386,2.814-2.771V76.32
		c-2.436,0.021-4.557,0.126-4.557,1.743C66.91,78.881,67.54,79.532,68.652,79.532z"/>
	<path fill="#E63328" d="M76.738,84.298l0.356-0.357c0.608-0.609,1.071-1.197,1.071-1.911c0-1.155-1.092-1.575-1.092-2.499
		c0-0.546,0.504-1.323,1.512-1.323c1.26,0,1.932,1.26,1.932,2.415c0,1.176-0.547,2.834-1.911,4.031l-0.798,0.693L76.738,84.298z"/>
	<path fill="#E63328" d="M97.799,80.624c-0.756,0.315-2.204,0.756-3.842,0.756c-3.611-0.021-5.753-2.247-5.753-5.669
		c0-3.233,1.827-5.753,5.354-5.753c3.275,0,4.934,2.394,4.934,5.774v0.315h-7.811c0.021,2.121,1.574,3.485,3.737,3.485
		c1.364,0,2.562-0.357,3.507-0.84L97.799,80.624z M96.015,74.451v-0.21c0-0.903-0.588-2.562-2.583-2.562
		c-1.994,0-2.666,1.449-2.75,2.771L96.015,74.451L96.015,74.451z"/>
	<path fill="#E63328" d="M100.132,79.406h1.239l0.041-7.475H99.88v-1.722h3.884c0,0.735-0.062,1.491-0.209,2.415h0.041
		c0.441-1.407,1.659-2.667,3.843-2.667c2.562,0,3.8,1.617,3.8,4.22c0,1.743-0.062,3.485-0.084,5.228h1.428v1.722h-5.018v-1.722
		h1.238c0.021-1.596,0.084-3.212,0.084-4.808c0-1.533-0.713-2.667-2.204-2.667c-1.616,0-2.835,1.281-2.876,3.317l-0.084,4.157h1.469
		v1.722h-5.06V79.406z"/>
	<path fill="#E63328" d="M119.535,69.958c4.031,0,5.354,3.086,5.354,5.774c0,3.107-1.89,5.648-5.627,5.648
		c-3.904,0-5.438-2.708-5.438-5.48C113.824,72.33,116.195,69.958,119.535,69.958z M119.324,79.406c2.143,0,3.087-1.785,3.087-3.926
		c0-2.457-1.28-3.548-2.919-3.548c-2.33,0-3.191,1.953-3.191,3.884C116.301,77.642,117.204,79.406,119.324,79.406z"/>
	<path fill="#E63328" d="M142.15,80.624c-0.756,0.315-2.205,0.756-3.842,0.756c-3.611-0.021-5.754-2.247-5.754-5.669
		c0-3.233,1.827-5.753,5.354-5.753c3.274,0,4.934,2.394,4.934,5.774v0.315h-7.811c0.021,2.121,1.573,3.485,3.737,3.485
		c1.363,0,2.562-0.357,3.506-0.84L142.15,80.624z M140.366,74.451v-0.21c0-0.903-0.589-2.562-2.583-2.562s-2.666,1.449-2.75,2.771
		L140.366,74.451L140.366,74.451z"/>
	<path fill="#E63328" d="M144.482,79.406h1.24l0.041-7.475h-1.533v-1.722h3.885c0,0.735-0.062,1.491-0.209,2.415h0.041
		c0.441-1.407,1.658-2.667,3.843-2.667c2.562,0,3.8,1.617,3.8,4.22c0,1.743-0.062,3.485-0.084,5.228h1.428v1.722h-5.018v-1.722
		h1.238c0.021-1.596,0.084-3.212,0.084-4.808c0-1.533-0.713-2.667-2.204-2.667c-1.616,0-2.835,1.281-2.876,3.317l-0.084,4.157h1.469
		v1.722h-5.061V79.406z"/>
	<path fill="#E63328" d="M171.467,71.994c-0.336-0.105-0.861-0.189-1.386-0.189c-2.163,0-3.274,1.617-3.274,3.695
		c0,1.89,0.924,3.905,3.82,3.905c1.051,0,2.246-0.315,2.793-0.63l-0.127,2.037c-0.439,0.189-1.615,0.567-2.98,0.567
		c-4.367,0-5.857-2.918-5.857-5.648c0-3.338,2.059-5.774,5.879-5.774c1.659,0,2.646,0.357,3.107,0.567v3.086h-1.975V71.994z"/>
	<path fill="#E63328" d="M175.878,70.944c0.588-0.273,1.995-0.987,4.325-0.987c3.232,0,4.262,1.596,4.262,4.178
		c0,1.764-0.062,3.506-0.084,5.27h1.471v1.722h-3.465c0-0.693,0.062-1.533,0.189-2.268h-0.043c-0.461,1.239-1.344,2.52-3.633,2.52
		c-2.623,0-3.484-1.743-3.484-3.128c0-2.876,2.918-3.254,4.703-3.338l2.246-0.126v-0.819c0-1.344-0.482-2.289-2.414-2.289
		c-0.818,0-1.617,0.231-1.975,0.378v1.596h-2.1L175.878,70.944L175.878,70.944z M179.51,79.532c1.827,0,2.814-1.386,2.814-2.771
		V76.32c-2.436,0.021-4.557,0.126-4.557,1.743C177.768,78.881,178.396,79.532,179.51,79.532z"/>
	<path fill="#E63328" d="M193.957,73.338l-0.042-1.302c-0.336-0.189-0.84-0.357-1.784-0.357c-1.092,0-2.205,0.252-2.205,1.323
		c0,0.84,0.715,1.071,1.387,1.218l2.666,0.525c1.238,0.252,2.646,0.777,2.646,3.002c0,2.876-2.478,3.632-4.892,3.632
		c-1.849,0-3.275-0.399-3.969-0.651l-0.043-2.96h2.1l0.043,1.449c0.421,0.126,1.154,0.441,2.33,0.441
		c1.113,0,2.205-0.42,2.205-1.533c0-0.924-0.692-1.218-1.574-1.386l-1.743-0.315c-1.681-0.315-3.506-0.945-3.506-3.023
		c0-2.562,2.245-3.443,4.641-3.443c1.784,0,3.148,0.504,3.8,0.714l0.043,2.667L193.957,73.338L193.957,73.338z"/>
	<path fill="#E63328" d="M199.229,70.944c0.588-0.273,1.996-0.987,4.326-0.987c3.232,0,4.262,1.596,4.262,4.178
		c0,1.764-0.062,3.506-0.084,5.27h1.471v1.722h-3.465c0-0.693,0.062-1.533,0.188-2.268h-0.043c-0.461,1.239-1.344,2.52-3.632,2.52
		c-2.624,0-3.484-1.743-3.484-3.128c0-2.876,2.918-3.254,4.703-3.338l2.245-0.126v-0.819c0-1.344-0.481-2.289-2.414-2.289
		c-0.817,0-1.616,0.231-1.974,0.378v1.596h-2.1V70.944L199.229,70.944z M202.861,79.532c1.826,0,2.813-1.386,2.813-2.771V76.32
		c-2.437,0.021-4.557,0.126-4.557,1.743C201.119,78.881,201.749,79.532,202.861,79.532z"/>
	<path d="M22.264,106.055c-0.84,0.252-1.932,0.525-3.129,0.525c-4.283,0-5.648-2.834-5.648-5.669c0-4.136,3.003-5.669,5.418-5.669
		c1.196,0,2.393,0.146,3.506,0.546v2.834h-1.554v-1.701c-0.462-0.168-1.323-0.252-1.806-0.252c-3.129,0-3.758,2.478-3.758,4.241
		c0,0.588,0.084,4.24,4.115,4.24c1.07,0,1.932-0.293,2.939-0.608L22.264,106.055z"/>
	<path d="M29.635,95.242c3.297,0,5.25,2.268,5.25,5.375c0,3.443-1.953,5.963-5.25,5.963c-3.296,0-5.248-2.268-5.248-5.375
		C24.387,97.762,26.339,95.242,29.635,95.242z M29.635,105.152c2.311,0,3.443-1.891,3.443-4.241s-1.133-4.241-3.443-4.241
		c-2.309,0-3.443,1.891-3.443,4.241S27.326,105.152,29.635,105.152z"/>
	<path d="M44.377,105.005h1.385c0-1.68,0.084-3.442,0.084-5.187c0-1.049-0.041-3.148-2.456-3.148c-1.532,0-3.212,0.924-3.212,3.863
		l-0.043,4.472h1.575v1.323h-4.703v-1.323h1.386l0.084-8.188h-1.742v-1.322h3.464c0,0.42-0.021,1.008-0.063,1.302l-0.168,1.093
		h0.043c0.461-1.639,2.204-2.646,3.842-2.646c2.981,0,3.717,2.016,3.717,4.072c0,1.849-0.084,4.011-0.084,5.69h1.596v1.323h-4.703
		v-1.323H44.377z"/>
	<path d="M61.471,92.953h-1.574c-0.021,2.059-0.043,4.094-0.043,7.538c0,1.827,0.127,2.854,0.735,3.61
		c0.588,0.735,1.659,1.051,3.171,1.051c1.469,0,2.604-0.357,3.275-1.239c0.608-0.798,0.629-2.058,0.65-4.052l0.042-6.908H65.9V91.63
		h5.082v1.323h-1.617l-0.042,7.958c0,1.68-0.188,2.897-1.155,4.073c-0.84,1.029-2.393,1.596-4.472,1.596
		c-2.562,0-3.968-0.65-4.829-1.827c-0.693-0.944-0.818-1.974-0.818-4.431c0-2.393,0.021-5.122,0.041-7.369h-1.7V91.63h5.081V92.953z
		"/>
	<path d="M73.482,91.504h-1.826v-1.322h3.569l-0.042,5.689c0,0.482-0.126,1.554-0.21,2.016h0.042
		c0.441-1.512,1.932-2.646,3.842-2.646c3.003,0,4.367,2.352,4.367,5.228c0,2.584-1.322,6.11-5.836,6.11
		c-1.807,0-2.436-0.336-3.99-0.861L73.482,91.504z M75.121,104.648c0.965,0.336,1.49,0.504,2.309,0.504
		c2.855,0,3.99-2.289,3.99-4.641c0-2.666-1.344-3.842-3.023-3.842c-1.533,0-3.129,0.924-3.191,3.863L75.121,104.648z"/>
	<path d="M86.902,101.059c0.062,2.226,1.028,4.094,4.115,4.094c1.176,0,2.352-0.357,3.254-0.819l-0.062,1.491
		c-0.799,0.398-2.479,0.756-3.57,0.756c-3.422,0-5.543-1.869-5.543-5.648c0-3.19,1.723-5.689,5.019-5.689
		c4.283,0,4.683,3.884,4.683,5.816H86.902z M92.99,99.734c0-1.7-1.07-3.17-2.876-3.17c-1.848,0-3.107,1.387-3.212,3.17H92.99z"/>
	<path d="M98.389,96.816h-1.848v-1.323h3.569v0.588c0,0.63-0.126,1.911-0.231,2.792h0.063c0.42-1.596,0.987-3.568,3.675-3.568
		c0.146,0,1.008,0.084,1.092,0.168l-0.168,1.553c-0.295-0.104-0.756-0.168-1.176-0.168c-2.227,0-3.213,2.185-3.255,4.095
		l-0.084,4.052h1.827v1.323h-5.082v-1.323h1.533L98.389,96.816z"/>
	<path d="M113.152,92.953h-1.68V91.63h9.93v3.401h-1.553v-2.079h-4.894l-0.041,5.165h4.619v1.322h-4.619l-0.043,5.564h5.103
		l0.127-2.289h1.553l-0.125,3.611h-10.057v-1.323h1.596L113.152,92.953z"/>
	<path d="M125.92,98.686h-1.555v-2.604c1.197-0.483,2.479-0.84,3.801-0.84c2.793,0,4.283,1.028,4.283,3.905
		c0,0.944-0.127,3.904-0.127,5.857h1.555v1.323h-3.107v-0.44c0-0.631,0.127-1.492,0.211-1.912h-0.043
		c-0.649,1.743-1.722,2.604-3.633,2.604c-1.238,0-3.359-0.462-3.359-3.106c0-3.023,3.234-3.318,6.867-3.318v-0.776
		c0-2.037-0.776-2.813-2.479-2.813c-0.609,0-1.639,0.105-2.414,0.441V98.686z M130.812,101.352c-2.562,0-5.145,0-5.145,2.037
		c0,1.219,0.924,1.869,2.036,1.869C128.88,105.257,130.812,104.605,130.812,101.352z"/>
	<path d="M135.475,95.494h1.742l0.084-2.646l1.723-0.104l-0.084,2.75h3.4v1.323h-3.422c-0.042,1.806-0.084,3.631-0.084,5.438
		c0,1.555,0,2.896,1.658,2.896c0.883,0,1.68-0.252,2.143-0.44l-0.062,1.365c-0.547,0.272-1.555,0.504-2.436,0.504
		c-3.023,0-3.023-2.163-3.023-3.548c0-1.323,0.062-4.641,0.084-6.215h-1.723V95.494L135.475,95.494z"/>
	<path d="M151.727,98.496h-1.553l-0.084-1.533c-0.398-0.336-1.406-0.398-1.91-0.398c-1.093,0-2.5,0.356-2.5,1.658
		c0,1.176,1.051,1.533,2.646,1.807c2.75,0.462,3.904,1.302,3.904,3.086c0,1.932-1.301,3.464-4.431,3.464
		c-1.176,0-3.045-0.294-3.717-0.651L144,103.156h1.555l0.084,1.617c0.65,0.315,1.742,0.483,2.457,0.483
		c1.133,0,2.498-0.483,2.498-1.806c0-1.071-1.113-1.449-2.289-1.701c-2.896-0.63-4.346-1.134-4.346-3.254
		c0-1.743,1.154-3.254,4.262-3.254c0.902,0,2.582,0.294,3.422,0.65L151.727,98.496z"/>
	<path d="M156.264,103.977c0.715,0,1.303,0.588,1.303,1.301c0,0.715-0.588,1.303-1.303,1.303c-0.713,0-1.301-0.588-1.301-1.303
		C154.963,104.564,155.551,103.977,156.264,103.977z"/>
</g>
</svg>
