<?xml version="1.0" encoding="utf-8"?>
<!-- Generator: Adobe Illustrator 22.1.0, SVG Export Plug-In . SVG Version: 6.00 Build 0)  -->
<svg version="1.1" id="Capa_1" xmlns="http://www.w3.org/2000/svg" xmlns:xlink="http://www.w3.org/1999/xlink" x="0px" y="0px"
	 viewBox="0 0 1440 900" style="enable-background:new 0 0 1440 900;" xml:space="preserve">
<style type="text/css">
	.st0{fill:#967714;}
	.st1{clip-path:url(#SVGID_2_);}
	.st2{fill:#583802;}
</style>
<title>comunidad-orange</title>
<g id="Capa_2_1_">
	<g id="Capa_1-2">
		<g id="Capa_2-2">
			<g id="Layer_1">
				<rect class="st0" width="1440" height="900"/>
				<g>
					<defs>
						<rect id="SVGID_1_" width="1440" height="900"/>
					</defs>
					<clipPath id="SVGID_2_">
						<use xlink:href="#SVGID_1_"  style="overflow:visible;"/>
					</clipPath>
					<g class="st1">
						<g id="OVzXKB">
							<path class="st2" d="M870.3,290.6c3.4-15.7,15.8-25,26.2-35.5c5.5-5.6,12.9-9.2,20.4-14.5c1.2,3.8,2.7,6.1,2.3,8
								C912,288.9,908.6,330.4,892,368c-12,27-11.5,51.9-2,78.2c4.6,12.9,8.9,25.9,15.2,38.9c10.1-20.2,21.2-39.7,17.8-63.2
								c-3.9-26.6-3.9-52.9,3.8-78.9c4.8-16.3,12.7-30.5,27.1-40.9c7,5.9,5.2,13.3,5.1,19.8c-0.3,15.5-1.1,31.1-2.2,46.6
								c-1.3,18.6-6.1,36.7-15.6,52.7c-6.8,11.6-11.7,23.6-15.8,36.2c-4.5,13.6-10,26.9-15.5,41.5l22.5,38.1
								c-15.5-3.6-17.3-18.5-27-28c-17-6.7-36.3-5.1-54.9-8.1c-47.5-7.6-80.6-28.6-101-78.6c5.1,0.1,9.5-0.4,13.6,0.3
								c40.5,7.5,74.2,27.5,102.6,57c8,8.3,15.4,17.5,27.5,20c2,0.4,4.2,0.1,8,0.2c-5.5-14.1-10.1-26.8-15.5-39.3
								c-1.3-2.9-4.5-5.3-7.3-7.3c-10.3-7.4-21-14.3-31.1-21.8c-26.7-19.8-46.4-44.9-55.3-77.3c-2.8-10.2-8.5-20.3-4.6-32.5
								c14.8,1.9,24.2,11.7,32.6,21.5c15.1,17.5,28,36.8,38.5,57.4c5.6,11.4,11.9,22.4,20.4,32.9c-3.4-18.9-6.4-37.8-10.3-56.5
								c-5.2-25.3-11.3-50.6-3.4-76.4c1.1-3.6,3.6-6.8,5.5-10.2l1.2,5.1l1.8-1C872.5,293.1,871.4,291.9,870.3,290.6z M833.4,474.4
								l1.1,1.2l-1.4-0.9l-3.8-3.3l-7.2-2.8l-3.8-3.3l-7.8-10c2.4-1.2,3-2.3-0.2-3.1l-3.7-3.2l-3.7-3.2l-0.7-0.8l1,0.4l3.7,3.2
								l3.7,3.2l0.3,3.8l-7.2,0.6L800,453c-2-5.1-5.9-6.5-10.9-6l-3.7-3.3c-2.4-5.6-6.8-7.5-13.2-6l13.3,5.8l3.8,3.2
								c1.3,2.3,2.7,4.6,4.1,6.8c-2.7,1.3-3,2.4,0.3,3.2l3.7,3.2l3.7,3.2l7.2,2.8l3.7,3.2l1.1,1.1l-1.4-0.7l-0.3-3.8l7.2-0.5
								l3.8,3.2l7.2,2.8L833.4,474.4z M839.7,466.9l3.7,3.2l3.8,3.2l1.1,1.2c-0.2-0.1-0.8-0.5-1.3-0.9l-3.8-3.1l-3.7-3.2l-1.2-1.2
								L839.7,466.9z M833.2,391.1l-3.9-6.6l-2.3-1.2l2.6,0.9l3.9,6.6l1,1.3L833.2,391.1z M824.2,360.3l3.9,6.7
								c0.4,5,2.6,8.6,7.8,9.7c1.3,2.3,2.7,4.5,4,6.8l4,6.6l1,1.2l-1.3-0.9c-1.3-2.2-2.6-4.4-4-6.6l-4-6.8l-7.8-9.7l-4-6.6l-3.8-3.2
								l-3.9-6.6l-1.2-1.2l1.5,0.9l3.9,6.6L824.2,360.3z M882.2,306.9l2.8-4.2l-2-0.9c-0.1,1.8-0.3,3.6-0.4,5.3l-2.9,7.1
								c-0.9,3.6-1.7,7.1-2.6,10.7c-0.7,2.6-1.5,5.3-2.2,7.9l1.7,0.3c0-2.8,0-5.6,0.1-8.5l2.6-10.7c0.9-2.4,1.8-4.8,2.8-7.2
								L882.2,306.9z M819.7,392l3.9,6.6l3.8,3.2c0.1,5.2,2.6,8.5,7.7,9.8l3.8,3.2l7.6,9.8l1.2,1.1l-1.5-0.8l-7.6-9.8
								c-1.3-1.1-2.5-2.1-3.8-3.2l-7.7-9.8l-3.8-3.2l-4-6.6c-0.1-0.5-0.4-1-0.6-1.5c-0.2-0.3-0.7-0.3-1.1-0.4L819.7,392z
								 M899.4,305.5l2.5-4.3l-1.9-0.8c-0.1,1.8-0.2,3.5-0.3,5.3l-2.6,10.6l-2.6,10.6l-6.4,11l-1.2-14.1c5.4-2.5,2.7-6.9,2.6-10.7
								c0.6-0.1,1.1-0.3,1.6-0.5c0.3-0.2,0.2-0.8,0.3-1.2l-1.5,2.1l-2.6,10.6c-5.6,9.2-6.1,19.5-7.7,30.6l6.3-6.5l0.9,10.7l-1.2,1.1
								l0.9-1.4l2.6-10.6c6.1-6,5.8-13.6,5.3-21.2c0.9-3.6,1.7-7.1,2.6-10.6C897.6,312.7,898.5,309.1,899.4,305.5L899.4,305.5z
								 M932.4,369c0.8-2.4,1.7-4.8,2.5-7.1l-2.8-0.5l0.6,7.9c-4.5,3.5-2.8,7.5,0.2,15.2C932.6,376.8,932.5,372.9,932.4,369z
								 M866,319.2l2.5,0.3l-1.2-5.7C866.8,315.5,866.4,317.4,866,319.2z M869.3,305.8c0.3-0.1,0.8-0.2,0.9-0.5
								c0.1-0.5,0.2-1,0.1-1.6l-1.6,0.6L869.3,305.8z M936.6,349.5l-0.9,0.1l0.3,3.8l0.9-0.1L936.6,349.5z M938.1,340.9
								c0.2,0.4,0.5,0.9,0.7,1.3c0.3-0.3,0.9-0.7,0.9-0.9c-0.3-0.7-0.7-1.3-1.2-1.9L938.1,340.9z"/>
							<path class="st2" d="M664.5,885.1c-2.8-3.6-5.6-7.2-8.4-10.8c-4.6-5.9-10.2-9.3-18-7.9s-13.4-2.5-18.1-7.9
								c-5.4-6.2-5.8-14.6-1.4-20.7c3.9-5.4,11.7-7.8,18.7-4.9c7.2,2.9,14.1,7.6,14.1,16c-0.1,15.9,9.3,25.7,20.6,34
								c9.2,6.8,19.4,12.2,29.2,18.2c2.3,1.4,4.7,2.8,6.3,3.7c1.7,7.5-3.5,9.3-7.2,11.5c-19.5,11.2-38.8,22.9-58.9,32.8
								c-8.5,4.2-12.7,9.8-16.7,18c-19.1,39.3-47.1,69.6-89.8,83.6c-8.6,2.8-17.4,5.6-28.3,2c9-15.6,24.2-23.9,35.2-36.1
								c11.2-12.3,23.7-23.5,38.6-38.2c-43.7,16-84.5,23.7-126.5,10.4c-8.2-2.6-16.4-5.4-22-15.2c39.9-12.8,81.1-12.8,125.1-17.8
								c-34-12.5-63.6-25.8-85.4-52.9c30.5-7.6,96,10.5,158.9,43.1c23.5-7.6,45.3-19,68-35.1l-17.3,0.3c-15,0.3-30,0-44.9,1.1
								c-8.6,0.6-17,2.5-24.9,5.8c-10.9,4.7-20.4,2.3-29.7-3.1c-8.3-4.8-10.9-13.3-7.3-20.6c4.9-9.9,13-14.3,22-11.9
								c8.6,2.3,16.8,6,21.7,13.4c6.7,10.2,15.8,12.1,26.9,11.6c11.5-0.5,23,0.2,34.5,0.2c3.2,0,6.4-0.9,12.2-1.8
								c-4-2.6-5.7-3.9-7.7-4.8c-20.9-9.8-42-19.1-62.5-29.4c-6.5-3.3-11.9-3.6-18-0.6c-6.4,3.1-12.5,1.8-18.2-1.4
								c-7.2-4.1-9.1-14.1-4.4-21.2c5-7.7,13.4-8.9,20.7-2.7c2.6,2.2,4.6,5.2,7,7.7c15.6,16.2,34.2,27,56.4,31.3l2.3,1.3
								L664.5,885.1z M563.7,1014.9c1.1-1.3,2.1-2.5,3.2-3.8l6.6-3.9l3.3-3.8l1-1.3l-0.7,1.6l-3.2,3.8l-6.6,3.9l-3.2,3.8l-3.1,3.8
								c-1.5,0.5-3,1-0.9,0.3c-1.5,1.6-0.5,0.5,0.6-0.6L563.7,1014.9z M571.4,938l-10.6-2.6c-8.2-7.1-18.2-8.2-28.5-8.1
								c-7-6-16-8.9-25.1-8.3c-0.1-0.5-0.2-1-0.5-1.4c-0.2-0.3-0.7-0.3-1.1-0.4l1.8,1.5c7.6,5.1,15.5,9,25,8.4
								c8.4,6.6,18,8.8,28.5,8.1c2.5,5,6.8,2.8,10.7,2.6l4.2,3l1.1-2.2L571.4,938z M521.5,981.3l0.1,1.4l26.8-2.2l-0.1-1.4
								L521.5,981.3z M513.7,983.4l-0.1-1.2l-22.7,1.8l0.1,1.2L513.7,983.4z M560.5,974.5l-1.3,0.7c0.3,0.3,0.7,0.8,0.8,0.7
								c0.7-0.3,1.3-0.7,1.9-1.1L560.5,974.5z"/>
							<path class="st2" d="M1282.7,354.7c-0.3-10.9-6.8-18-14.8-24.1c-6.2-4.7-11.1-9.9-8.2-18.9c9.2-2.8,15.1,2.6,16.3,9.1
								c2.9,15.3,11.9,27.5,18.8,40.6c8.4,15.8,14.3,32.7,17.5,50.3c1,5,3,9.8,5.7,14.1c2.7-17.9-4-34.4-7-51.4
								c-1.1-6.2-3.3-12.2-5.6-18.1c-4.3-11.3-9.4-22-19-30.4c-7-6.2-6.3-9-0.7-17.1c5.9,0.6,9.1,4.9,11,9.7
								c6.6,17.1,12.3,34.5,19,51.6c5.9,14.9,6,30.4,7.2,45.9c0.2,3.4,1,6.8,2.4,9.9c3.4-21.5,8.7-42.8,0.8-64.3
								c-1.7-4.2-3.6-8.2-5.8-12.1c-1.6-3-4-5.7-5.4-8.8c-2.7-5.9-1.1-11.9,3.4-13.3c6-1.9,8.5,2.7,10.3,6.9c1.5,3.6,2,7.8,2.3,11.7
								c1.8,20.1,3.3,40.2,5,61.2c12-16.1,14.3-30.5,8.2-47.4c-3.7-10.2-3.7-10.3,5.9-18c6.7,1.8,7.2,7.3,6.2,12.4
								c-3,16.3-6.1,32.7-10.2,48.8c-2,7.7-5.7,15.1-9.5,22.2c-6.6,12.1-5.9,23,3.1,33.6c12.2,14.4,24.2,29.1,36.5,43.9
								c-3.1,3.8-6.7,0.8-9.4-1.8c-11.2-10.8-22.1-21.9-33-33c-3.6-3.7-6.7-7.9-10.3-12.2c-9.9,0.8-19.6,1.5-29.3,2.4
								c-16.9,1.5-33.6,0-49.4-5.6c-7.3-2.6-13.4-1.2-19.9,1l-1-1.2l1.3,0.8c8.3,9.5,16.2,19.3,25.1,28.2c8.5,8.5,18,16,27.7,24.4
								c-5.4,4.5-8.1,0.7-10.6-1.7c-9.7-9.2-19.8-17.7-34.7-19.3c-6.7,6.8-8.8,19-21,20.8c-18.4-8-25.6-17.2-22.8-29.5
								c2.5-11,14.4-17.8,32-17.5c-5.3-3.6-10.1-6.7-14.7-10.1c-5.2-4-10.3-4.7-16-1.3c-7.8,4.7-15.6,3.3-23.1-0.5
								c-9.3-4.8-14.6-14.9-12.7-24.3s6.2-17.6,16.3-20.4c10.5-2.9,21.2,1.1,26.4,11.5c3.6,7.3,4.5,15.9,7.2,26.5
								c0.2,0.1,3,1.9,6.1,3.9c2.3-5,4.4-9.3,6.3-13.3c7.3-0.6,11.7,2.6,16.5,6.1c5.4,3.9,11.4,8.3,17.7,9.6c18,3.5,36.3,5.8,57.3,3
								c-12.6-6-23.2-10.8-33.6-16c-12.3-6.2-24.7-12.5-36.6-19.4c-5.1-3-9.6-5.8-15.9-5.3c-8.7,0.7-14.3-4.3-16.8-12.1
								c-0.9-2.8-0.1-7.4,1.8-9.3s6.9-3.2,9.2-2.1c5,2.5,10.5,5.8,13.4,10.3c6,9.2,14.3,14.8,23.6,19.5
								c12.2,6.1,24.4,12.4,37.8,19.2l-40.7-44.9c0.4-0.5,0.9-1,1.4-1.5c5.7,5.6,11.1,11.4,17,16.7c5,4.5,10.6,8.4,16,12.5l3.8,3.1
								l1,1.4l-1.3-1l-3.7-3.2c-4.6-12.4-10.5-23.7-21.2-32.2c-4.9-3.9-4.6-4.3-6.2-15.7c5.7-3.2,12.5-5.1,14.5-13.6
								c1.4-6,7.3-3.4,11.5-1.3l1.1,1.2L1282.7,354.7z M1306.2,429.3l-29.4-55.2c1.6,23,12.5,40.8,29.7,54.9l0.9,1.4L1306.2,429.3z
								 M1304.6,414.1l3.8-1.5c-3-8.5-5.8-17-9.1-25.4s-6.7-16.3-10.1-24.4C1283.9,383.7,1298.8,397.3,1304.6,414.1L1304.6,414.1z
								 M1228.3,465c0,5.1,0.6,9.8,9.7,11.7L1228.3,465z"/>
							<path class="st2" d="M699,811.9c-9.3,9.5-20.1,9.6-30.9,9c-20.3-1.2-39.8-6.5-58.7-13.6c-9.6-3.7-17-2.9-26,1.8
								c-35,18-71.9,18.8-109.4,9.4c-3.1-0.8-6-2.7-11.4-5.3c19.2-12.4,38.6-18.7,59.8-27.5c-34.4-12.2-59.8-33.1-83.4-56.1
								c2.2-6.6,6.6-7.7,11.4-7c5.7,0.8,11.4,2,16.9,3.8c30.5,10.4,60.9,21.1,91.8,31.8c-4.4-9-10-18.6-13.8-28.9
								s-4.1-21.2-2.2-33.8c3.8,2.3,7.5,3.3,9,5.7c9,13.4,17.7,26.9,25.9,40.7c3.5,5.9,5.7,12.5,9,19.7l6.7-40
								c18.1,24.9,11.5,51.3,15.6,76.3C637.4,812.1,668.1,812.3,699,811.9z"/>
							<path class="st2" d="M646.8,705.3c0,9.5,3.7,17.4,8.9,25.3c6.4,9.8,11.1,20.5,13.8,31.9l24.1,9.9
								c-12.2,3.7-18.8,1.9-42.7-11.3l0.4-0.6l3.7-0.8c-10.8-14.3-21.1-28.9-32.6-42.5c-4.2-5-11.2-7.6-16.9-11.5
								c-4.7-3.2-10-6.1-13.4-10.4c-1.7-2.2-1-7.8,0.6-10.7c1.1-2,6.6-3.6,8.6-2.5c6,3.2,11.5,7.2,16.3,12c4,4,6.6,9.3,10.4,15
								c0.6-7.8,3.5-12.7,10.9-13.8l0.5,0.8l-0.8-0.5l-20.4-30.5c-15.8-3.5-30.9-6.4-45.7-10.3c-5.2-1.4-9.7-5.4-14.5-8.2l0.3-0.4
								c14.8,2.6,28.4,10.6,44,9.5c-6.9-3.9-14.3-6.5-21.2-10c-20.9-10.3-42.2-20-57.6-38.4c4,1.9,8.2,3.5,11.9,5.8
								c12.1,7.5,23.6,16.1,36.1,22.8c8.8,4.7,18.9,7,28.5,10.4l2.4,1.3l-2.6-1.1l-18.8-19.5l-0.1,0.2c4,1.9,8.3,3.3,12,5.7
								c5.2,3.5,9.9,7.8,17.9,14.3c-4.9-11-7.7-19-11.8-26.2c-2.4-4.3-6.7-7.6-10.5-10.9c-4.2-3.7-8.8-7-13.2-10.4l-0.1,0.1
								c0.2-2.3,1.3-5.3,0.3-6.8c-2.4-3.7-5.8-6.7-8.8-10c1.1-2.4,2.1-4.8,3.2-7.3l-0.2,0.2c6.5,7,13.1,13.9,21.5,22.8
								c-3.8-15.4-7.1-28.7-10.2-41.9c-1.6-6.7-2.8-13.5-4.4-20.2c-1.3-5-2.1-10.5-4.8-14.5c-10.6-15.7-14.9-33-18.2-51.5
								c-3.2-18-2.1-36.6,3.2-54.1c2.6-8.6,6.6-16.9,11.4-28.8c8.3,20.3,8.1,38.8,13.2,55.6c5.4,17.7,1.8,35.2,5,53.1
								c4.6-10.9,8.7-22,13.9-32.6c2.9-6,7.6-11,11.4-16.5l-0.2-0.1c-1.7,6-3.5,12-5.3,18l-2.9,7.2l-1.2,1l0.9-1.3l2.7-7.2
								c3.4-2.6,6.8-5.2,10.1-7.8c-2.9,6.5-6,12.8-8.7,19.4c-2.2,5.5-3.9,11.3-5.8,16.9l-3.2,3.8l-1.2,1.1l0.8-1.4l3.3-3.7
								c2.2-2.4,4.4-4.8,6.5-7.2c6.4-7.5,12.8-15,19.1-22.5l-0.1-0.1c-4.3,14.8-16,24.9-24,37.3c-4.4,6.8-9.3,13.2-14.2,19.6
								c-4.3,5.5-5.2,11.5-3.5,18c4.8,18.1,9.8,36.1,15.7,57.9c4.9-16.9,8.4-30.2,12.7-43.2c3.6-10.7,5.4-22.4,14.6-30.5l0.2,0.1
								c-2.3,7-4.7,13.9-6.8,21c-3.5,11.9-9.9,23.1-9.4,36.1l-2.9,3.9l2,0.9l0.5-5.1c2.9-5.4,5.8-10.7,8.6-16.1
								c8.1-15.3,12.4-32.7,24.9-45.5l0,0c-1.8,5.3-3.2,10.7-5.5,15.7c-8.4,18.5-19.7,35.8-23.3,56.3l-1.3,1l0.9-1.3l19.3-18.9
								l0.2,0.2c-2.2,11.6-11.3,18.2-18.9,25.8c-10.8,10.6-11.3,11-4.9,25.3c6.3,14,13.3,27.7,21,43.4c3.9-16.9,6.7-31.2,10.5-45.2
								c3-10.9,5.7-22.2,14.6-30.3l0.1,0c-1.7,5.3-3.6,10.6-5,16.1c-3.8,14.8-7.3,29.6-10.9,44.4l-2.9,3.9l2,0.9l0.6-5.1l15.4-29.1
								c-1.2,5.4-2.3,10.9-3.6,16.3s-2.8,10.7-4.2,16l-1.3,2.5c0.3-0.9,0.7-1.8,1.1-2.7l6.8-3.8l-0.1-0.1c-2.1,4.5-4,9.2-6.5,13.6
								c-2.7,4.9-5.9,9.6-8.9,14.5c6.9,9.3,12.8,17.7,19.2,25.8c6,7.7,13.5,14.4,18.5,22.6c4.9,8,19.2,10.2,15.6,25.1
								c-10.7-4.4-17.6-12-24.5-19.4c-7.8-8.4-15.3-17-22.9-25.6c-0.2-0.5-0.5-1-0.8-1.4c-0.2-0.2-0.6-0.2-1-0.3L646.8,705.3z
								 M633.8,716.9c5,14.3,14.2,26.8,26.3,35.8c-5-18.9-10.3-25.7-26.6-35.5l-1-1.3L633.8,716.9z M565.7,500.9
								c2.1-9.9-1.7-18.9-3.5-28.4c-1.7-8.8,0.4-18.2,0.4-27.3s-2.1-18.2,4.3-27.1c0.2,16.4,0,31.8,0.8,47.2s1.6,31.2,9.4,46.3
								c9.2-37.7,1.3-72.8-9.2-111C550.8,436,554.8,468.4,565.7,500.9L565.7,500.9z"/>
							<path class="st2" d="M1091.6,397.9c0.7-4.5,0.6-9.2,2.2-13.3c10.2-27.2,24.7-51.9,42.3-74.9c6.6-8.9,15.4-15.9,25.7-20.2
								c-0.6,12.6-0.3,23.3-1.8,33.6c-6,41-15.3,81.3-26.7,121.1c-7.1,24.9-13.9,49.9-20.9,74.8c-0.6,2-1.7,4-3.3,7.7
								c-3.6-3.8-6.7-6.2-8.4-9.3c-18.6-33.7-23.1-69.3-13.9-106.7c0.2-0.9,1.5-1.5,2.3-2.3l-0.3-0.2c0.7,2.7,1.3,5.5,2,8.2l1.7-0.3
								v-8.2l-0.2,0.3l2.6-10.9c0.7-1.5,1.3-2.9,0.4-0.9c0.1-2.2,0-0.5-0.1,1.1h-3.7L1091.6,397.9z M1124.9,339.4
								c0.6-0.5,1.2-1.1,0.8-0.7c0.2-0.5-0.1,0.2-0.4,1c-0.5,0.1-1,0.3-1.5,0.6c-0.3,0.2-0.2,0.7-0.3,1.1L1124.9,339.4z
								 M1115.9,357.5l0.8-0.8c0.2-0.4-0.2,0.3-0.5,1l-1.2,1.1C1115,358.9,1115.5,358.2,1115.9,357.5L1115.9,357.5z M1146.5,306.3
								l1.3-1.1c-0.1,0.1-0.5,0.8-1,1.4l-3.2,3.7l-3.2,3.7l-6,10.9l-3.2,3.7c-0.5,0.1-1.1,0.4-1.5,0.7c-0.3,0.2-0.2,0.8-0.3,1.2
								l1.5-2.1l3.2-3.7l6-10.9l3.2-3.7L1146.5,306.3z M1126.6,356.8l-2.9,7.3c-0.9,3.5-1.8,7-2.6,10.6l-2.9,7.3l-2.6,10.7
								c-5.9,3.9-1.7,9.4-2.3,14.1c-9.1,20.6-9.9,42.2-8.1,64.1c1.6-7.2,2.8-14.5,3.6-21.9c1.5-14.1,2.8-28.3,4.2-42.5
								c5.5-3.9,1.9-9.4,2.3-14.1c0.9-3.6,1.7-7.1,2.6-10.6l2.9-7.3c0.9-3.5,1.7-7.1,2.6-10.6c1-2.4,1.9-4.9,2.9-7.3
								c1-1.3,1.9-2.6,0.5-0.6C1127.1,353.5,1126.8,355.2,1126.6,356.8L1126.6,356.8z M1123,398.8c-5.3,2.5-2.8,6.9-2.5,10.8
								c-3.7,2.2-4.7,4.7-0.1,8.4c-0.1-3.3-0.2-6-0.2-8.6l2.6-10.7c0.9-3.5,1.7-7.1,2.6-10.6s1.8-7.1,2.6-10.6
								c5.2-4.9,6.1-11.1,5.5-17.8l2.8-4.5l-2.2-0.9c-0.1,1.9-0.2,3.8-0.3,5.6c-5.5,4.8-6.9,10.8-5.6,17.8
								c-0.9,3.5-1.7,7.1-2.6,10.6C1120.4,390.7,1122.5,395,1123,398.8L1123,398.8z M1120,447.8l-2.6,10.7c-5.8,7.4-5.6,16-5,24.7
								c-0.7,2.6-1.5,5.2-2.2,7.8l2,0.3c0-2.8-0.1-5.6-0.1-8.4c5.2-7.5,6-15.9,5-24.6l2.6-10.7l2.6-10.7c5-4.3,6.6-9.5,2.7-16
								l-2.4,16.2C1121.7,440.7,1120.9,444.3,1120,447.8L1120,447.8z M1094.4,435.8c0.8-3.6,1.6-7.2,2.4-10.8l-3-0.3l0.9,11.3
								c-1,1.3-2.9,2.6-2.9,3.8c0.8,13,2,26,3,39l3-0.3L1094.4,435.8z M1104,482.7l-0.9,0.1l0.5,6l0.9-0.1L1104,482.7z
								 M1105.7,410.4l-0.9-1.4c-0.3,0.4-1,1.1-0.9,1.3c0.4,0.6,0.9,1.2,1.5,1.6L1105.7,410.4z M1137,344.2l-0.3,1.6h1.8
								c-0.1-0.5-0.2-1.1-0.4-1.5C1138,344.1,1137.4,344.3,1137,344.2L1137,344.2z"/>
							<path class="st2" d="M1417.9,347.1c0.6,0.1,1.5,0.1,1.6,0.5c7.6,20,23.7,32.8,40.6,47c-10-30.6-21.2-59.1-37.7-85.3
								c-3.5-5.6-8.5-6.7-14.5-7.3c-11-1.1-21.1-4.4-25.3-19.1l23.8,5.8l3.8,3.1l1,1.1l-1.3-0.8l-3.7-3.2c-3.1-3.3-6.3-6.4-9.1-9.9
								c-4.3-5.4-8-11.1-6.8-20c9.1,3.9,14.5,9.6,18.9,17.2c9.2,15.8,19,31.1,30.6,50.2c-1.2-19.1,0.9-34.3-8.6-48
								c-7.7-11.1-4.7-22.4,2.6-34.7c10.2,10.8,13.8,21.7,10,35c-3,10.5-4.7,21,2.1,30.9l0.8,0.6c0,6.5-6.4,12.9,0.3,20.2
								c13.3-5.8,24.5-13.3,28.5-29.2c2.8-11,9.7-19.5,22.9-22.9c0.3,3.5,1.4,6.8,0.6,9.6c-4,14-13.2,24-29.8,33
								c10.9,1.2,17.7,2,24.6,2.8c12,1.5,21.8,6,27.2,19.2c-9.7,3-15.8-3-22.6-6.3c-6.1-2.9-12-6.8-18.5-8.6
								c-12.7-3.6-23.5,1.5-33.8,10.3c8.5,23.9,17,48,26.2,73.6c8.2-6.4,13.3-12.2,11.4-23.1c-1.5-8.8-2.4-18.3,5.6-27.8l5.8,13
								c6.6-6.6,11.9-15.1,25.2-18.1l-14.2,27.8l28.7,0.4c-7.8,7.8-14.1,10.4-20.8,10.8c-17.3,1.2-30.9,8.3-39.4,24.5
								c1.6,11.7,4,24.1,4.7,36.6c0.7,11.5,4.1,23.4-3,35.2c-0.8-4.1-1.7-8.1-2.3-12.2c-2.9-20.5-5.8-41-8.3-61.5
								c-0.7-6.3-3.7-12.2-8.4-16.5c-3.8-3.5-6.8-7.9-10.7-11.2c-29.4-25.6-21.9-22.4-56.8-18.9c-16,1.6-21.4-1.8-28.7-18.8
								c10.6-3.4,19,0.8,27.3,6.4c9.5,6.4,9.6,6.2,26,4.9c-8.6-4.4-14.1-9-20.3-10.1c-20.1-3.7-30.1-17.3-38.6-35.8
								c4.5,0.1,8.3-1.1,10.6,0.3c9.1,5.8,20.1,10.8,26,19.2c7.7,10.8,18.4,16.9,29.7,27.3c-1.6-7.5-2.7-12.5-3.8-17.4L1417.9,347.1
								z"/>
							<path class="st2" d="M703.3,536.2c17.9-2.2,31.5,1.9,44.9,7.3c-2.8-14.2-2.6-14.7-15-18.5c-13.4-4.1-25.9-9.7-36-19.7
								c-1.8-1.8-3.1-4.2-5.9-8.1c16.9-0.5,30.5,1.7,41.9,13.1c1.8-7.3-0.1-10.9-5.8-13.6c-8.8-4.2-17.3-9.1-25.7-14.1
								c-4.8-2.9-4.5-3.3-7.6-13c12.4-2.5,21.7,5.7,33.8,9c1.3-12.9-2.9-27.1,8.4-39.2c12.4,21.4,5.1,43.2,5.2,68.3
								c5.7-10.1,9.3-16.7,13.2-23.1c4.1-6.9,8.3-13.8,17.3-15.5c3.5,14.8,1.3,20.6-21.5,54.9l11.9,19.7
								c11.6-17.3,18.1-36.9,41.1-42.7c0.1,4.2,1.1,7.7,0,10.3c-7.4,17.3-19.8,31.1-33.9,43c-5.5,4.7-12.8,6.5-21.1,5.3
								C731.3,557.2,717.6,549.5,703.3,536.2z"/>
							<path class="st2" d="M948.5,534.2c4-29.4,17.4-53.7,34.8-76.6c-1-6.5-2.5-13.1-3-19.9c-0.6-8.2-2.4-15-9.1-21.3
								c-9-8.4-8.9-19.7-2.1-27.8c4-4.7,8.9-7.6,15.2-5.3c5.8,2.1,10,6.2,10,12.7c0,4.5,0.3,9.9-2,13.3c-8.1,11.7-6.1,24-3.9,39.7
								c9.6-11.7,17.8-21.5,25.6-31.7c1.5-2,1.3-5.5,1.3-8.3c0-3.4-0.8-6.9-0.8-10.3c0.1-7.6,4.8-14.1,11.4-15.3
								c6.4-1.1,11,2.2,14.4,7.4c3.9,6,3.7,12-0.6,17.6c-1.4,1.8-3.1,4-5,4.6c-18.9,5.5-26.7,22.5-40.4,38
								c8.3-1.1,13.7-1.7,19.1-2.6c6.2-1.1,12.3-3,18.5-3.5c8.8-0.7,17-1.9,24.2-7.7c4.7-3.8,10.6-2.7,14.2,1.1
								c2.9,3.3,4.5,7.6,4.5,12c-0.3,7.8-12.9,14.3-18.6,8.3c-14.3-15.2-29.6-6.9-44.9-5.4c-0.6,0.1-1.2,0.1-1.7,0.2
								c-13.6,2.3-24,8-31.4,21c-10,17.5-21.4,34.1-26.5,54C951.4,530.5,949.7,532.3,948.5,534.2z"/>
							<path class="st2" d="M1420.1,443.5c-12.8,4.6-23.2,5-32.2-4c-8.6-8.5-10.9-18.6-6.1-28.2s17.5-16.2,27.4-14.3
								c8.8,1.7,17,12.2,18.1,23c0.2,2.3,0.7,5-0.2,6.8c-4.4,8.7,0.2,15.3,4.1,22.5c5.2,9.7,9.8,19.6,13.9,29.7
								c1.7,4,1.6,8.7,2.7,15c-9.3-3.1-7.4-10.8-9.9-15.5c-2.9-5.6-4.8-11.7-7.6-17.4S1424,450.1,1420.1,443.5z"/>
							<path class="st2" d="M611.8,447.4c3.7-15.4,15.9-24.7,26.1-34.9c7.1-7.1,16.6-11.9,25.3-17.4c1.5-0.9,4.1,0,8.1,0.2
								c-8.9,14.2-12.8,29.4-26,38.8l0.2,0.1l9.4-22.1l-17.1,15.8l-0.6-7.2l3.2-3.7c0.5-0.1,1-0.3,1.5-0.6c0.3-0.2,0.3-0.7,0.4-1.1
								l-1.6,1.9l-3.2,3.8c-4.4,4.3-8.8,8.6-13.1,13s-8.5,8.8-12.8,13.2L611.8,447.4z"/>
							<path class="st2" d="M658,589.7c2.7-6.2,4.6-12.9,8.3-18.4c5.2-7.6,11.6-14.4,17.6-21.4c2.6-3,5.7-5.4,9.6-9.2
								c6.2,13-0.5,23.4-3.4,33.6c-3,10.8-9,20.8-13.6,31.2l0.3,0.2c3.2-12.5,6.5-24.9,10.1-39l-12.4,14.9l2.3-14.4l3.2-3.8
								c10.1-1.1,10.1-1.1,9.5-11.2c0.5-0.1,1-0.3,1.5-0.5c0.3-0.2,0.2-0.7,0.3-1.1c-0.5,0.6-1,1.2-1.5,1.8l-9.5,11.2
								c-1.1,1.2-2.2,2.5-3.3,3.7c-3.3,3.7-6.5,7.3-9.7,11S661.2,585.9,658,589.7L658,589.7z"/>
							<path class="st2" d="M1414,340.3c-13.4-5.2-26.1-11.5-34-24.3c-2-3.2-2.8-7-4.6-11.6c8.5-1.9,14.7,0.7,19.7,5.2
								c5.4,4.8,10.3,10.3,14.3,16.4c2.6,4.1,3,9.6,4.5,14.5L1414,340.3z"/>
							<path class="st2" d="M1250.2,389.1c-6.2-3.9-10.7-10.1-19.1-10.8c-3.3-0.3-6.8-4.2-9.3-7.2c-4.8-5.9-3.9-14.9,1.2-18.5
								c4.7-3.2,12.1-0.9,16.3,5.5c1.3,1.9,2.9,4.2,2.7,6.2c-0.9,9.5,5.6,15.9,9.5,23.4C1251.1,388.1,1250.6,388.6,1250.2,389.1z"/>
							<path class="st2" d="M491.2,592.9c-8-3-10.1-9.9-12.3-17.1c13.1-3.6,48.2,10.7,65.6,26.3l-0.5,0.6c-6.7-3.1-13.2-6.4-20-9.2
								c-5.2-2.1-10.6-3.6-15.9-5.3c-0.3-0.4-0.6-0.8-1-1.2l1.3,0.8l8.1,13.5c-7.1-2.9-12.5-7.5-15.4-14.9
								c-2.6-6.7-7.9-6.3-13.9-6.1C488.8,585.4,490,589.1,491.2,592.9L491.2,592.9z"/>
							<path class="st2" d="M1449.5,306.2c2.3-9.2,5.1-18.4,6.9-27.7c1.5-7.6,5.6-13.3,11.1-21.8c2.8,5.6,5.9,8.9,5.7,11.9
								c-0.4,5.5-1.4,11.9-4.5,16.2c-5.5,7.8-12.8,14.3-19.3,21.3L1449.5,306.2z"/>
							<path class="st2" d="M650.9,761.1c-2.7-0.9-6-1-7.9-2.8c-9.6-9.1-19-18.1-32.3-22.2c-3.4-1-5.5-6.4-9.7-11.7
								c5.9-0.5,9.6-1.9,11.9-0.7c4.5,2.6,8.6,5.8,12.2,9.6c8.9,8.9,17.5,18.1,26.2,27.2L650.9,761.1z"/>
							<path class="st2" d="M628.2,522.5c9.1-24.5,19.7-48.1,40-65.8l-0.1-0.1c-0.4,2.2-0.3,4.6-1.4,6.4
								c-10.6,17.4-21.3,34.8-32.1,52.1c-1.7,2.7-4.2,5-6.3,7.5L628.2,522.5z"/>
							<path class="st2" d="M547.3,640.5c-4.6-1.9-9.8-2.9-13.6-5.8c-12.2-9.2-24.1-18.7-35.4-28.8c-3.5-3.1-4.8-8.6-7.1-13l0.1-0.1
								c1.8,1.2,4.2,2,5.4,3.6c11.7,14.8,26.1,26.5,42.1,36.3C542.1,634.6,544.6,637.8,547.3,640.5L547.3,640.5z"/>
							<path class="st2" d="M567.8,593.6c-3.1-1.2-6.7-1.8-9.2-3.8c-10.3-8.3-20.5-16.9-30.4-25.8c-2.4-2.1-3.6-5.6-5.4-8.4l0.3-0.3
								l44.8,38.2L567.8,593.6z"/>
							<path class="st2" d="M511.6,542.4c-11-8.1-21.5-22.1-29.1-39c6.1-2,9.6,1,12.3,5.7l0.1-0.2c-0.3,2.4-1.7,5.4-0.8,6.9
								c5.5,9.1,11.5,17.8,17.3,26.7L511.6,542.4z"/>
							<path class="st2" d="M688.8,454.9c-1,5.4-1.4,11-3.1,16.3c-3.5,10.7-7.4,21.2-11.6,31.6c-0.9,2.3-3.5,4-5.3,5.9l0.3,0.2
								c3.3-19,10.1-37.3,20-53.9L688.8,454.9z"/>
							<path class="st2" d="M676.7,605.5c-2.9,16.1-10.1,31.1-20.8,43.5l0.1,0.1c4.5-15.7,10.7-30.5,20.9-43.4L676.7,605.5z"/>
							<path class="st2" d="M494.9,509c12.9,3.3,21.3,12.5,29.6,22l0.1-0.2l-6.6,4.3l-23-26.3L494.9,509z"/>
							<path class="st2" d="M543.3,546.8c12,7,21.5,16.2,26.6,29.3l0.2-0.2l-7.4-2.6l-3.8-3.2c-1.6-8.7-7.7-13-15.2-16.2
								C543.5,551.5,543.4,549.2,543.3,546.8L543.3,546.8z"/>
							<path class="st2" d="M558.9,611.7c10.2,1.3,16.6,7.8,22.1,15.6l0.1-0.2C571,625.9,564.8,619,558.9,611.7L558.9,611.7z"/>
							<path class="st2" d="M665.9,515.9c1.2,10.8-4.7,18.4-11.8,25.3l0.2,0.2c0.5-10.1,5.8-17.9,11.9-25.3L665.9,515.9z"/>
							<path class="st2" d="M683.8,437.7c3-3.8,6-7.6,9-11.5c5.7,4.3,5.3,7.5,1.5,10.7l0.3,0.2l-3.8,0.3l0.3-0.3l-6.8,1L683.8,437.7
								z"/>
							<path class="st2" d="M639.3,445c-0.5,8.6-5.7,14-12.4,18.4l0.1,0.1c0.7-8.5,5.5-14.1,12.5-18.4L639.3,445z"/>
							<path class="st2" d="M648,552.2c-0.5,8.5-5.6,14-12.2,18.6l-0.2-0.2c1.1-8.3,5.7-14,12.7-18.2L648,552.2z"/>
							<path class="st2" d="M522.9,555.6c-6-2.5-10.2-6.5-11.3-13.2l-0.1,0.1c6.5,1.9,10.1,6.5,11.7,12.8L522.9,555.6z"/>
							<path class="st2" d="M544.5,602.1c6.4,0.8,11.3,3.8,14.4,9.6l0.1-0.1c-6.9,0.3-11.5-3.4-14.9-8.9L544.5,602.1z"/>
							<path class="st2" d="M694.3,437c0.9,6.8-0.3,13-5.5,17.9l0.2,0.1l2.1-17.8l-0.3,0.3l3.8-0.3L694.3,437z"/>
							<path class="st2" d="M654,541.2c0.7,5.1-1.3,8.8-6.1,11l0.2,0.2c-0.5-5.1,0.9-9,6.1-10.9L654,541.2z"/>
							<path class="st2" d="M558.1,646.8c-5,0.3-8.8-1.3-10.8-6.3l0.1-0.1l11,5.9L558.1,646.8z"/>
							<path class="st2" d="M645.3,434c0.9,5.2-1.3,8.8-6,11l0.2,0.1c-0.6-5.1,1.1-8.9,6.1-10.9L645.3,434z"/>
							<path class="st2" d="M1089,408.6c-0.1-3.8-2.6-8.2,2.6-10.7l-0.2-0.1l0.8,10.6l0.2-0.3l-3.7,0.3L1089,408.6z"/>
							<path class="st2" d="M1413.9,340.4l4,6.7l0.2-0.2l-4.1-6.6L1413.9,340.4z"/>
							<path class="st2" d="M668.8,508.7c-1,2.4-1.9,4.8-2.9,7.2l0.3,0.2c1-2.4,1.9-4.8,2.9-7.2L668.8,508.7z"/>
							<path class="st2" d="M535.9,540.3l3.8,3.1l-0.3,0.4l-3.7-3.2L535.9,540.3z"/>
							<path class="st2" d="M680.5,441.4c1.1-1.2,2.2-2.5,3.3-3.7l0.5,0.4l-3.2,3.7L680.5,441.4z"/>
							<path class="st2" d="M677.3,445.1l3.3-3.7l0.6,0.5c-1,1.3-2.1,2.5-3.1,3.8L677.3,445.1z"/>
							<path class="st2" d="M674.3,449l3-3.9l0.7,0.6c-1.1,1.2-2.2,2.4-3.3,3.6L674.3,449z"/>
							<path class="st2" d="M671.3,452.9l3-3.9l0.4,0.3C673.6,450.5,672.5,451.7,671.3,452.9L671.3,452.9z"/>
							<path class="st2" d="M668.2,456.7c1-1.3,2.1-2.5,3.1-3.8l0,0l-3.2,3.7L668.2,456.7z"/>
							<path class="st2" d="M539.7,543.4l3.6,3.3l-0.1,0.1l-3.8-3L539.7,543.4z"/>
							<path class="st2" d="M575.4,599.9l-3.9-3l0.2-0.2l3.6,3.3L575.4,599.9z"/>
							<path class="st2" d="M571.5,596.8l-3.7-3.2l0.1-0.1l3.8,3.1L571.5,596.8z"/>
							<path class="st2" d="M532.1,537.2l3.8,3.1l-0.2,0.3l-3.7-3.2L532.1,537.2z"/>
							<path class="st2" d="M524.5,531l3.8,3.1v-0.1l-3.7-3.3L524.5,531z"/>
							<path class="st2" d="M528.2,534.2l3.8,3l-0.2,0.2L528.2,534.2L528.2,534.2z"/>
							<path class="st2" d="M1445.9,309.6l3.6-3.4l-0.1-0.1l-2.7,4.1L1445.9,309.6z"/>
							<path class="st2" d="M889.2,348.3l-3.8,0.3c1-3.7,1.9-7.4,2.9-11.1L889.2,348.3z"/>
							<path class="st2" d="M793.3,457c-0.1-1.3-0.2-2.5-0.3-3.8l7.2-0.5l3.8,3.2l4.1,6.9l-7.3,0.6l-3.7-3.2L793.3,457z"/>
							<path class="st2" d="M811.8,466l-3.8,0.3l-0.3-3.8L811.8,466z"/>
							<path class="st2" d="M645.3,517.7c0.9-8.6,5.3-16.6,12.1-21.9l0,0C656.6,504.9,652.9,512.4,645.3,517.7L645.3,517.7z"/>
							<path class="st2" d="M657.4,495.8l3.5-9.4l3.2,2.1L657.4,495.8L657.4,495.8z"/>
							<path class="st2" d="M519.9,604.2l4.1,3.5L519.9,604.2z"/>
							<path class="st2" d="M516.1,601.1l4.1,3.5L516.1,601.1z"/>
							<path class="st2" d="M543.8,553.7l0.7,7.2c-10.9-6.7-21.2-13.9-26.8-26.1L543.8,553.7z"/>
							<path class="st2" d="M559.1,569.8l3.8,3.2c0.2,2.4,0.4,4.8,0.6,7.2c-8.4-4.7-16.3-9.8-19.3-19.7L559.1,569.8z"/>
							<path class="st2" d="M563.1,579.8l4.1,3.5L563.1,579.8z"/>
							<path class="st2" d="M615.9,457.6c1.9-12,10.6-19.1,19.1-26.3C632.8,443.1,624,450.1,615.9,457.6z"/>
							<path class="st2" d="M634.6,431.7l3.5-4.1L634.6,431.7z"/>
							<path class="st2" d="M662.8,606.9C662,596,668,588.4,675,581.2C673.4,590.9,670.7,600.2,662.8,606.9z"/>
							<path class="st2" d="M657,621.3c-0.6-6-0.3-11.7,6.1-14.8L657,621.3z"/>
							<path class="st2" d="M726.2,1130.7l10.5-4.6L726.2,1130.7z"/>
						</g>
					</g>
				</g>
			</g>
		</g>
	</g>
</g>
</svg>
