<?xml version="1.0" encoding="utf-8"?>
<!-- Generator: Adobe Illustrator 22.1.0, SVG Export Plug-In . SVG Version: 6.00 Build 0)  -->
<svg version="1.1" id="Capa_1" xmlns="http://www.w3.org/2000/svg" xmlns:xlink="http://www.w3.org/1999/xlink" x="0px" y="0px"
	 viewBox="0 0 1440 900" style="enable-background:new 0 0 1440 900;" xml:space="preserve">
<style type="text/css">
	.st0{fill:#375024;}
	.st1{fill:#172A08;}
</style>
<rect x="0" y="0" class="st0" width="1440" height="900"/>
<g>
	<defs>
		<rect id="SVGID_1_" x="0" y="0" width="1440" height="900"/>
	</defs>
	<clipPath id="SVGID_2_">
		<use xlink:href="#SVGID_1_"  style="overflow:visible;"/>
	</clipPath>
</g>
<g>
	<path class="st1" d="M1132,222.9c0,0.6,0,1.1,0,1.7c-1.6-4-4.6-7.1-7.6-10c-3.8-3.6-7.5-7.2-11.4-10.6c-0.5-0.4-1.4,0-1,0.7
		c4.1,7.3,7.3,15.5,9.7,23.5c2.2,7.7,1.3,16-2.5,22.9c-1,1.2-2.1,2.3-3.1,3.5c-5.3,6-8.4,11.5-9.3,19.5c-1.1,10.7-1.6,21.5-3.3,32.2
		c-1.5,10.2-4.2,20.2-5.3,30.4c-1.2,10.9-2.5,21.7-4.3,32.5c-1.8,11-4.3,21.9-7.3,32.7c-1.7,6-5.6,14.4-3.6,20.9
		c-0.5,0-1,0.1-1.4,0.3c-0.1,0-0.1,0-0.2,0c-2.3,1.1-5.4,2.5-6.8,4.8c-0.1-1.6-0.9-3-2.1-4c3,0.6,7.5-0.5,8.7-3.2
		c1.6-3.5-3.9-7.2-8-7.5c0.3-0.8,0.3-1.7,0.2-2.4c-0.6-2.3-2.6-4.3-4.9-4.6c-0.4-0.1-0.8,0-1.2,0.1c0.7-1.2,0.9-2.7,0.3-4
		c-0.9-1.8-3.1-1.9-4.9-1.3c0.6-2-1.2-4.3-3.4-5.3c1-0.6,1.6-2,1.4-3.3c-0.2-2-1.7-4-3.3-5c-0.7-0.4-1.5-0.6-2.2-0.5
		c-0.3-1.7-1.1-3.3-2.2-4c0.4-2.6-1.3-6.1-3.6-6.4c0.2-1.2-0.1-2.5-0.7-3.4c-0.6-1-1.7-1.7-2.7-1.5c0.1-1.1-0.2-2.3-0.8-3.1
		c-0.5-0.6-1.1-1-1.8-1.1c-0.1,0-0.2,0-0.3,0c0.1-0.3,0.2-0.5,0.2-0.8c0.2-0.9,0-1.9-0.6-2.6c-0.4-0.5-1-1-1.7-1
		c0.6-0.5,1.1-1.1,1.3-2c1.4,3.5,3,7,4.9,10.3c0.4,0.7,1.5,0.2,1.2-0.6c-4.4-9.2-7.3-19-11-28.5c-4.1-10.4-9.3-20.3-12-31.2
		c-2.6-10.2-2.9-20.9-5.4-31.1c-2.1-8.5-4.4-17.8-2.5-26.6c4.9-4.2,10.4-7.7,15.6-10.5c8.5-4.5,17.3-8,26.1-11.8
		c5.8-2.5,13.1-5.5,16.5-11.2c0.2-0.4-0.2-0.8-0.6-0.7c-11,4.1-22.1,7.6-33.1,11.6c-5.9,2.1-11.7,4.2-17.6,6.3
		c-5.7,2-11.6,3.2-17.4,5.1c-14.3,4.7-20.5,24-20,38.4c-2.9-8.9-7.1-18.2-5.3-27.2c2-10.3,12-20.8,21.2-25.4
		c8.2-4.1,18.3-0.3,27-2.9c0.5-0.1,0.6-0.9,0.1-1.1c-17-4.2-35.3-5.6-51.8,0.9c-16.4,6.5-27.1,21.5-30.1,38.6
		c-1,5.5-1.5,11-1.7,16.5c-0.2,6,0.6,12-0.6,18c-0.8,4-2.1,8.1-1.8,12.3c0.4,5.8,4.6,10.1,6.8,15.4c4.8,11.8,6,25.6,8.4,38.1
		c2.4,12.8,5.2,25.4,8.3,38c1.8,7.2,3.1,14.4,4.3,21.8c1.2,7.1,4,13.8,4.8,21c0,0,0,0,0,0.1c0.1,1.4,0.3,2.8,0.5,4.2
		c0,0,0,0.1,0,0.1c0,0.1,0,0.2,0.1,0.3c0.4,2.5,0.9,4.9,1.5,7.4c1.8,9.6,3.1,19.2,5.1,28.7c2.6,12.1,7.7,23.5,12,35
		c4.6,12.2,9.2,24.5,15.4,36c2.9,5.4,5.8,10.7,8.3,16.2c2.8,6.2,4.3,13,5.5,19.7c2.2,12.1,2.4,24.6,3.1,36.9
		c0.6,12.5,2.8,24.7,2.9,37.3c0,4.9,0.3,9.8,1.1,14.6c1.1,6.1,3.7,11.9,5.7,17.8c3.9,11.5,7.8,22.6,13.3,33.4
		c4.3,8.4,9.6,21.2,21.2,20.2c4.3-0.4,8-3.9,11.5-6.1c5.7-3.6,12.3-5.3,18.5-7.8c5.1,10.3,14.8,16.8,21.3,26.1
		c3.2,4.5,6.8,8.1,11.1,11.5c4.6,3.6,8.9,7.3,13.3,11.1c3.5,2.9,7.4,4.5,11.9,4.8c5.8,0.4,11.1,1.1,16.6,2.9
		c11,3.7,20.1,12.3,27.2,21.1c3.3,4.2,5.7,8.8,8.6,13.2c1.5,2.3,3.4,3.8,6.1,4.1c3.3,0.4,7.5-1.5,10.1-3.4c4-2.9,6.4-7,8.6-11.3
		c2-3.9,4.4-7.9,5.8-12.1c1.7-4.9-0.2-10.2-1.8-14.8c-4.1-11.7-5.2-23.7-5-36.1c0.1-4.6,0.2-9.3,0.8-13.9c0.6-4.5,1.2-9,1-13.5
		c-0.4-9.6-1.1-19.2-4.2-28.4c-0.3-0.9-0.6-1.8-1-2.8c0.4,0.2,1-0.2,0.8-0.7c-4.8-11.9-6.4-24.7-9.2-37.1c-1.1-4.9-1.9-9.8-1.6-14.8
		c0.5-7.3,5.4-10.4,11.4-13.3c15.9-7.8,9.8-24.9,3.8-37.5c-3.6-7.4-7.2-14.6-10.2-22.3c-4.6-11.6-9.5-23.1-17-33.2
		c-3.3-4.5-7.6-8.3-11.5-12.3c-4-4.2-6.9-9-10.2-13.7c-5.9-8.6-12.4-17.2-16.5-26.9c0.1-8.9,0.5-17.7-0.1-26.6
		c-0.5-6.3-1.1-12.6-1.1-18.9c-0.1-6.3,0.7-12.6,1.2-18.8c0.8-10.8,0.4-21.2-2.7-31.6c-3-9.9-7.6-19.3-13-28.2
		c-5.7-9.6-12.9-17.9-19.9-26.5c-5.1-6.3-8.1-13.1-11.3-20.5c-1.3-3-2.7-5.9-4.2-8.8c-0.6-1-1.5-3-2.8-3.3c-0.6-0.1-1,0.8-0.3,1
		c1.6,0.5,2.9,4.9,3.5,6.2c1.5,3.6,2.9,7.2,4.4,10.9c3.1,8,7.5,14.2,12.9,20.9c13.4,16.7,26.8,36.7,30.7,58.1
		c2.2,11.8-0.4,24.2-0.7,36.1c-0.3,12.4,2.4,24.6,2,37c-0.8,23.8,0,47.6,4,71.1c1.8,10.6,5.8,20.7,9.3,30.8
		c3.4,9.7,5.4,19.9,10,29.1c0.1,0.3,0.6,0.1,0.5-0.2c-5.1-11.6-8-24-11.8-36c-3.7-11.7-5.5-23.7-7-35.9c0-0.3-0.1-0.6-0.1-0.9
		c0.6,1.8,1.4,3.6,2,5.5c0.8,2.5,1.1,5,2.4,7.3c0.1,0.2,0.6,0.1,0.5-0.2c-0.8-2.4-1.2-4.9-1.9-7.3c-0.9-2.9-2.6-5.4-3.4-8.4
		c-0.1-1.2-0.3-2.4-0.4-3.6c0.8,1.8,1.8,3.6,2.8,5.4c2.7,4.9,4.9,10.1,7.3,15.2c0.1,0.1,0.3,0.1,0.3-0.1c-1.6-4.5-3.2-8.9-5.2-13.3
		c-1.6-3.7-4-6.9-5.6-10.6c-0.2-1.5-0.3-2.9-0.4-4.4c1,2.4,2.1,4.7,3.2,6.9c2.7,5.6,6.1,10.7,8.7,16.4c0.2,0.4,0.8,0.2,0.7-0.3
		c-1.6-5-4.1-9.6-6.7-14.2c-2.2-3.9-4.8-8.5-6.3-13c-0.1-1.1-0.2-2.3-0.3-3.4c0.8,2.2,2,4.4,3.1,6.3c2.7,4.8,4.5,10.7,8.1,14.9
		c0.3,0.3,0.8,0,0.6-0.4c-2.3-4.6-3.8-9.5-6.4-13.9c-2-3.3-4.9-7.3-5.5-11.2c0-0.2-0.1-0.3-0.2-0.3c-0.1-0.8-0.1-1.7-0.1-2.5
		c0.5,1.5,1.4,2.9,2.2,4.2c2.2,3.8,4.3,7.7,6.4,11.6c0.2,0.3,0.8,0.2,0.7-0.2c-1.8-6.9-7.4-12-9.3-18.8c0,0,0,0,0,0
		c0-0.5-0.1-1-0.1-1.5c1.4,3.4,3.5,6.7,6.1,8.9c0.2,0.2,0.6,0,0.5-0.3c-1-1.9-2.3-3.7-3.5-5.6c-1.1-1.9-2.1-3.8-3.2-5.7
		c0-2-0.1-4.1-0.1-6.1c2.9,8.5,8.3,16,13.3,23.4c2.8,4.1,5.2,8.3,8.2,12.3c3.6,4.9,8.3,8.9,12.3,13.4c8.4,9.3,13.4,21.6,18,33.1
		c3.3,8.3,6.9,16.3,10.9,24.3c3.4,7,7.2,14.7,7,22.6c-0.1,5-2.7,8.8-6.9,11.4c-3.8,2.4-8.8,3.6-11.5,7.4c-5.3,7.3-2.7,17.8-1,25.8
		c1.9,8.8,3.6,17.8,6.4,26.4c-5.8-14.3-12.4-28.2-14.6-43.6c0-0.3-0.5-0.3-0.5,0c0.6,11.3,4,22,8,32.5c4.4,11.4,10.3,22.8,12.9,34.8
		c1.2,5.9,1.3,12.2,1.3,18.2c0,2.8-0.4,5.7-0.9,8.5c-3.7,2.5-7.1,5.5-10.3,8.6c-1.3-2.2-3.3-4.2-3.5-6.8c0-0.3-0.6-0.3-0.6,0
		c0,1.4,0.7,2.8,1.3,4c0.5,1.1,1.2,2.4,2.1,3.4c-0.8,0.8-1.7,1.6-2.5,2.5c-1.7-5.6-5.3-9.7-8.1-14.8c-0.2-0.4-0.7-0.1-0.6,0.3
		c1.3,2.5,3,4.8,4.4,7.2c1.5,2.4,2.5,5.2,3.9,7.7c-0.9,0.9-1.7,1.7-2.6,2.6c-1.5-2.4-2.5-5.1-3.9-7.6c-1.8-3.1-3.6-6.1-5-9.4
		c-0.2-0.4-0.7-0.1-0.6,0.3c1.3,3.3,3.1,6.4,4.9,9.5c1.4,2.6,2.5,5.3,4.1,7.7c-1.2,1.2-2.4,2.3-3.6,3.4c-2-5.2-5.2-10.2-7.9-15.1
		c-0.1-0.2-0.5-0.1-0.4,0.1c1.6,5.5,5.2,10.3,7.8,15.5c-3.7,3.4-7.7,6.5-12.4,8.8c-8.9,4.4-18.6,0.8-28-1c0,0,0-0.1,0-0.1
		c-0.6-1.4-1.6-2.7-2.6-3.8c-0.7-0.9-1.4-1.8-2.1-2.7c-0.4-0.5-1.1,0.1-0.9,0.6c0.3,0.8,0.9,1.5,1.4,2.2c0.9,1.2,1.8,2.4,2.7,3.5
		c-2-0.3-4-0.5-6-0.5c-1-2-2-4-3-5.9c-1.4-2.5-3.5-4.7-4.9-7.3c-0.2-0.4-0.8-0.1-0.6,0.3c1,2.8,2.8,5,4.3,7.5
		c1.1,1.8,1.7,3.7,2.9,5.4c-1.5,0.1-2.9,0.4-4.4,0.8c-3-3.4-4.5-8.2-7-11.9c-3.1-4.5-6.5-8.8-10-13c-0.1-0.2-0.3,0.1-0.2,0.2
		c4,5,7.7,10.2,11,15.7c1.9,3.1,2.6,7.1,5.7,9.2c-1.3,0.4-2.5,0.8-3.8,1.3c-3-3.2-4.6-7.6-7.3-11.1c-2.5-3.3-7.3-7.5-8-11.7
		c0-0.3-0.4-0.2-0.4,0.1c0.5,3.6,3.8,7.2,5.9,10c3.1,4.2,5.4,9.3,9.1,12.9c-1.4,0.6-2.8,1.2-4.2,1.7c-0.1,0.1-0.3,0.1-0.4,0.2
		c0,0,0,0,0-0.1c-2.4-4.8-6.2-8.7-9.8-12.6c-0.1-0.1-0.2,0-0.1,0.1c2.8,4.4,6.6,8.2,9,12.9c-0.9,0.3-1.7,0.7-2.6,1
		c-2.8-2.6-4.3-6.3-6.4-9.4c-2.3-3.5-5.3-6.7-8.3-9.6c-0.1-0.1-0.3,0-0.2,0.2c3.2,4.1,6.6,7.9,9.1,12.4c1.3,2.3,2.5,4.9,4.5,6.8
		c-1.2,0.4-2.3,0.7-3.5,1c-5.6-7-10.2-15-17-20.9c-0.1-0.1-0.2,0-0.1,0.1c6,6.6,10.5,14.2,16,21.1c-2.3,0.6-4.5,1.1-6.9,1.5
		c-0.3-0.3-0.7-0.5-1-0.8c-6.1-4.9-9.6-11.8-15.1-17.2c-5.5-5.4-10.8-10.5-15.1-16.9c2.5-1.3,4.5-3.3,7.5-3.3c1.5,0,3.1,1.7,4.4,2.3
		c4,1.7,8.1,1.4,12.1-0.2c5-2,9.4-4.9,14.9-5.1c4.9-0.1,11.2,0.9,15.8,2.6c4.2,1.5,7.6,4.7,11.7,6.5c4.5,2,9,2.2,13.8,1.4
		c4.8-0.8,9.6-2.6,14-4.5c4.8-2,8.5-5.7,12.6-8.8c2.8-2.1,5.8-4.2,6.7-7.7c0.9-3.7-0.3-8-1.1-11.6c-2-8.6-1.8-17.4-2.8-26.1
		c0.1-0.1,0.1-0.2,0.2-0.3c0.2-0.2-0.1-0.5-0.3-0.4c-0.2-2-0.5-4.1-1-6.1c-2.7-12.7-5.4-25.4-7.1-38.3c-1.6-12.1-3.7-25-1.2-37.1
		c0.9-4.5,1.7-8.8,0.8-13.4c-0.1-0.6-1-0.4-0.9,0.2c0.5,5.4-1.6,10.8-2.6,16c-1.1,5.5-0.7,11.4-0.3,17c0.9,12.2,2.8,24.2,5.2,36.2
		c1.2,6.1,2.5,12.2,3.8,18.3c0.6,3,1,6,1.3,9.1c-0.2,0.2-0.4,0.5-0.6,0.8c-6.5-16.9-13.1-33.9-18.9-51.1c-3.7-10.9-7-22-10.1-33.1
		c0.2-0.4,0-0.9-0.3-1.1c-1.4-5-2.8-10-4.2-15c0.2-0.3,0-0.7-0.3-1c-0.2-0.8-0.4-1.5-0.6-2.3c-2.3-8.4-5-16.7-6.7-25.3
		c-1.8-8.6-2.2-17.4-3.6-26.1c-1.4-8.8-4.4-17.3-4.6-26.2c-0.2-7.1,0.9-13.7-2.5-20.3c-0.2-0.5-0.9-0.1-0.7,0.4
		c3.1,7.6,0.5,16.1,1.1,24c0.6,8.1,3.1,16,4.4,24c1.2,7.2,2.3,14.4,3.7,21.5c-1.9-1.4-4.4-0.5-6.7,0.7c0.7-0.7,1.4-1.4,2.1-2.2
		c2.4-3,3.3-5.7,1.5-9.3c-1.2-2.3-3.6-4.9-6.3-5.4c2.3-4.5-0.9-8.5-6-10.7c-0.6-0.3-0.9,0.6-0.4,0.9c2.5,2.1,6.6,3.8,5.4,7.9
		c-0.6,2.2-3.1,4.1-4.8,5.6c-2.9,2.5-8.8,7.2-12.9,7.1c-0.1,0-0.2,0-0.3,0.1c-1.3-1.1-2.9-1.8-4.5-1.7c0.6-1.2,0.9-2.6,0.9-4.1
		c0-1.3-0.3-2.6-0.9-3.9c2.4-0.1,4.3-2.6,6.2-3.9c3.4-2.3,7.8-3.9,10.3-7.4c3.7-5.2,0.9-11.2-5.3-12.3c0.2-0.3,0.5-0.6,0.7-0.9
		c2.5-3.7-1.7-10.2-5.9-9c0.2-0.2,0.4-0.4,0.5-0.6c2.4-3.5,1.7-6.2-1.1-9.1c-1.2-1.3-3.2-2.8-5.1-3c0.7-0.7,1.2-1.5,1.5-2.3
		c0.9-2.8,0-5.9-2.4-7.7c-2.2-1.7-4.2-2.3-6.3-1.8c0.2-0.3,0.5-0.7,0.7-1.1c1.4-2.7-0.4-5.7-2.1-7.8c-2.1-2.6-5.1-2.7-8.1-1.9
		c1.6-2.6,2.4-5.7,0.2-8.3c-2.3-2.7-5.1-2.4-8.2-1.2c-2,0.8-4.3,2.2-6.3,3.8c1.6-1.5,3.1-3.2,4.6-5c2.1-2.6,4-5.4,2.6-8.7
		c-1.3-3.3-5.6-4.7-8.7-3.5c-0.8,0.3-1.7,0.7-2.7,1.2c1.6-1.7,2.5-3.7,2-6.2c-0.7-3-3.8-4.8-6.7-4.8c0.6-1,0.9-2.1,0.7-3.4
		c-0.6-4.4-5.8-6.2-9.7-5.1c0.4-0.5,0.8-1.1,1-1.7c0.6-1.5-0.3-3.2-1.3-4.2c-0.6-0.6-1.2-0.8-1.9-0.8c-0.8-3.9,0.9-8.1,2.2-11.7
		c1.7-4.7,3.1-9.5,4.6-14.4c3.2-10.5,5.1-21.2,6.8-32c1.7-10.7,2.3-21.3,3.4-32.1c1.1-10.8,4.3-21.5,6.2-32.2c1-5.5,1.8-11,2.3-16.5
		c0.4-4.7,0.1-9.3,0.6-14c0.7-6.7,5.3-12.1,10-17.3c0.1,0,0.2-0.1,0.3-0.2c0.3-0.3,0.5-0.7,0.8-1.1c2-2.2,3.9-4.3,5.5-6.5
		c1.8-2.5,3.8-5.6,5.2-8.9c-0.8,6.6-1.9,13.2-2.4,19.8c-1,12.4-4.6,23.5-9.2,34.9c-4.6,11.4-8.2,22.7-11.5,34.5
		c-1.3,4.7-2.9,9.2-4.9,13.6c-1.2,2.8-2.5,6.3-0.7,9.1c0.2,0.3,0.8,0.1,0.6-0.3c-1.1-2.2-0.1-5,1.2-7.6c0,2.1,0.9,3.9,2,5.8
		c0.7,1.2,1.6,2.3,2.4,3.4c1.8,2.4,2.9,5,4.5,7.5c0.1,0.2,0.4,0,0.3-0.2c-1.5-3.3-2.5-6.4-4.5-9.5c-1.7-2.7-3.6-5-4.2-8.3
		c0.7-1.4,1.5-2.7,2-3.8c0.9,3.4,2.9,6.3,4.9,9.4c3,4.8,5.3,10.1,7.7,15.2c0.1,0.2,0.4,0.1,0.3-0.1c-1.6-4.5-3.3-8.9-5.1-13.2
		c-2-4.5-5.4-8.2-7.1-12.8c0.9-2.2,1.6-4.4,2.3-6.6c3.4,9.8,9.8,18.4,14.2,27.8c0.1,0.2,0.4,0.1,0.4-0.1
		c-3.1-10.4-9.2-19.8-14.1-29.4c0.5-1.9,1-3.8,1.5-5.7c2.7,6.5,5,13.2,8.2,19.5c3.1,6.3,6.5,12.6,9.6,18.9c0.2,0.3,0.7,0.1,0.6-0.2
		c-2.1-6.2-5.5-12.1-8.1-18.1c-3.1-7-6.3-14.1-9.4-21.1c-0.1-0.2-0.3-0.3-0.5-0.3c0.6-2.3,1.3-4.5,2-6.7c2.3,4.9,3,10.4,5,15.4
		c2.2,5.4,5,11.4,8.5,16.1c0.1,0.2,0.4,0,0.3-0.2c-2.9-5.2-5.3-11-7.4-16.6c-2.1-5.4-3.2-10.9-6-15.9c0.5-1.6,1.1-3.1,1.6-4.6
		c1.1,3.4,2.5,6.7,3.7,10.1c1.4,3.8,2.2,7.9,4.1,11.5c0.1,0.2,0.4,0.1,0.3-0.1c-2.5-7.6-3.9-15.6-7.6-22.8
		c2.3-6.2,4.8-12.2,7.1-18.4c4-10.4,6.2-20.4,7-31.5c0.4-5.4,0.9-10.7,1.7-16.1c0.8-5.1,1.4-10.4,0.2-15.5
		C1132.7,222.4,1132,222.4,1132,222.9z M1137.5,774.3c0.5,0,1-0.1,1.5-0.2c-0.1,0.1-0.2,0.2-0.3,0.3c-0.4,0.1-0.8,0.2-1.2,0.3
		c0-0.1,0-0.1,0-0.2C1137.5,774.3,1137.5,774.3,1137.5,774.3z M1138,776.1c-0.2-0.2-0.4-0.4-0.7-0.5c0.4-0.2,0.7-0.4,1.1-0.6
		C1138.2,775.3,1138,775.6,1138,776.1z M1204.5,813.8c-0.3-0.3-0.5-0.7-0.8-1c0,0,0,0,0.1,0c0.6-0.1,1.1-0.3,1.7-0.6
		C1204.9,812.7,1204.6,813.2,1204.5,813.8z M1204.6,811.8C1204.6,811.8,1204.6,811.8,1204.6,811.8c0,0,0.1,0,0.1,0
		C1204.6,811.8,1204.6,811.8,1204.6,811.8z M1203.2,812.2C1203.2,812.2,1203.2,812.2,1203.2,812.2c-0.3-0.4-0.7-0.7-1.1-1.1
		c0.5,0.2,1,0.4,1.5,0.5C1203.3,811.6,1203.1,811.9,1203.2,812.2z M1240.3,798c1.7,6.4-0.8,11.1-3.4,16.7c-2.3,5-4.3,9.9-8.6,13.6
		c-4.6,3.9-11.1,4.9-14.6-0.5c-2.5-4-4.7-8.1-7.5-11.8c-0.2-0.2-0.3-0.4-0.5-0.6c0-0.1,0-0.2,0-0.3c-0.7-1.6,0.9-2.6,2-3.4
		c0.1-0.1,0.2-0.2,0.3-0.2c0,0,0,0,0,0c4.6-2.1,7.9-6.1,12-9c0.2-0.1,0-0.4-0.2-0.3c-3.4,2.1-6.5,4.7-10,6.8c-3.1,2-5.6,1.2-8.8,0.9
		c-2.4-2.6-5-5.1-7.6-7.5c-3.7-3.3-7.9-5.7-12.3-7.4c7.4-6.7,17.3-11.2,26-15.7c4.2-2.2,8.5-4,13-5.7c3.5-1.3,6.8-2.6,9.6-5.1
		c1.4-0.4,2.6-1,4.1-1.1c0.4,4.8,1,9.6,1.9,14.2C1236.7,787.2,1238.8,792.5,1240.3,798z M1233.8,766.2c-0.2,0-0.4,0-0.6,0
		c0.2-0.4,0.3-0.8,0.5-1.2C1233.7,765.4,1233.8,765.8,1233.8,766.2z M1233.6,763.7c-0.1,0-0.1,0.1-0.2,0.1c0,0.1-0.1,0.1-0.1,0.2
		c0-0.5,0.1-0.9-0.1-1.3c0.1-0.2,0.2-0.5,0.3-0.7C1233.6,762.5,1233.6,763.1,1233.6,763.7z M1232.1,766.4c-0.3,0.1-0.5,0.1-0.8,0.2
		c0.3-0.5,0.7-1.1,0.9-1.7C1232.2,765.5,1232.1,765.9,1232.1,766.4z M1166.9,765.5c2-0.1,4,0,6,0.3c0.1,0.1,0.2,0.1,0.3,0
		c9.4,1.5,18.3,6.3,28,3c14.6-5,22-20.5,33.7-29.6c-0.5,2.7-0.9,5.4-1.2,8.1c-0.3,4-0.4,8.1-0.3,12.3c-1.5,2.3-2.5,5-4.4,7.1
		c-2.9,3.3-8.4,4.4-12.4,6c-4.1,1.6-7.9,4-11.7,6.1c-5.2,2.9-10.2,6-15.2,9.2c-3.1,2-6.6,4-9.2,6.7c-4.2-1.6-8.5-2.8-13-3.8
		c-2.5-0.6-5-0.6-7.5-0.8c-4.5-0.3-8.1-2.4-11.5-5.3c-3.2-2.7-6.3-5.4-9.6-8c-0.2-1.2,0.5-2.1,1.4-2.8c0.1-0.1,0.2-0.2,0.4-0.2
		c2.9-0.5,5.8-1.2,8.6-2.1C1155.2,769.7,1160.5,765.9,1166.9,765.5z M1136.6,774.3c-0.1,0.2-0.2,0.3-0.2,0.5
		c-0.2-0.1-0.4-0.3-0.5-0.4C1136.1,774.3,1136.4,774.3,1136.6,774.3z M1089.9,455.6c-0.2-0.4-0.4-0.7-0.6-1.1
		c0.6-0.1,1.2-0.2,1.9-0.4C1090.7,454.5,1090.3,455,1089.9,455.6z M1087.9,465.7c2.3,0.3,5.9,1.1,8.1,2.9c-0.2,0.5,0.3,1.1,0.9,0.9
		c0,0,0,0,0,0c0.9,1.1,1.3,2.5,0.8,4.1c-1.5,4.5-6.5,7.2-10.5,8.9c-3.2,1.4-6.7,2.3-10,3.3c-3,0.9-3.8-3-4.2-4.7
		c-0.5-2.5-0.3-5.1,1.4-7c0.2-0.2,0.2-0.4,0.2-0.5c0.9-0.2,1.7-0.5,2.5-0.9C1081.3,470.8,1085.4,469,1087.9,465.7
		C1087.9,465.7,1087.9,465.7,1087.9,465.7z M1097,479.7c3.8-0.5,5.9,0,8.7,2.6c2.2,2,3,6.2,1.6,8.8c-1.8,3.3-6.6,4.4-9.8,5.6
		c-4.6,1.7-12.7,7.3-17.2,3.4c-1.5-1.3-3.3-10.6-0.8-12.6c2.5-0.7,4.9-1.6,7.3-2.4c3.3-1.2,6.8-3.1,9.3-5.7
		C1096.4,479.5,1096.6,479.7,1097,479.7z M1112.4,505.8c-2.9,4.5-8.4,6.2-13.2,7.5c-4.4,1.2-9.7,4.1-12.5-1
		c-1.7-3.1-1.9-7.5,1.1-9.8c0.1,0,0.1-0.1,0.1-0.2c2.4-0.7,4.7-1.8,6.5-2.5c4.3-1.9,10.5-3.2,13.5-7.1
		C1114.2,493.9,1115.5,501,1112.4,505.8z M1112.8,508.6c5.9,0.2,8.7,6.6,6.2,11.6c-2.2,4.4-7.7,6.1-12.1,7.4
		c-3.8,1.2-9.4,5-13.2,2.9c-1.9-1-2.9-3.5-3.5-5.4c-1.1-3.2,0.2-5.4,2.9-7.2c0.4-0.3,0.4-0.8,0.1-1.1c1.6-0.3,3.3-0.7,5.1-1.2
		c5.4-1.6,10.8-3.1,14.4-7.1C1112.7,508.6,1112.8,508.6,1112.8,508.6z M1124.5,532.8c-0.3,0.1-0.4,0.4-0.4,0.6
		c-2.4,3.5-7,5.1-10.6,7c-3.8,1.9-6.3,4.7-10.9,4.6c-4.8-0.1-10.4-10.4-3.9-12.4c0.1,0,0.2-0.2,0.2-0.3c2-0.6,4.1-1.5,6-2.3
		c5-2.1,10.8-3.2,14.3-7.1C1124.7,523.2,1127.2,528,1124.5,532.8z M1136.5,566.6c0.1,0.2,0.4,0.3,0.7,0.2
		c5.6-2.5,13.7,4.5,10.1,10.3c-2.8,4.5-8,7-12.8,8.6c-3.4,1.2-8.2,3.2-11.8,2.3c-5.2-1.2-7-10.1-2.8-13c0.1-0.1,0.2-0.2,0.2-0.3
		c4.3-1.1,8.7-3.8,11.7-5.3C1133.3,568.6,1135,567.7,1136.5,566.6z M1142.8,564.7c1.9,0.4,3.9-0.6,5.8-1.7c-1.2,1.3-2,2.9-1.7,4.6
		C1145.7,566.3,1144.3,565.3,1142.8,564.7z M1154,578.7c-1.1,1.3-1.9,2.6-1.7,3.6c-2-1-3.9-0.9-6.1-0.6c1.2-1.1,2.2-2.3,2.9-3.6
		C1150.7,579,1152.3,579.1,1154,578.7z M1160.3,599c0.1,0.1,0.4,0,0.3-0.2c-0.1-1.1,0-2.2,0.4-3.3c0.2-0.6,0.5-1.2,0.8-1.7
		c0.2-0.3,0.5-0.6,0.7-1c4.9-1,8.5-4.1,12.8-6.6c1.3,4.9,2.6,9.7,4,14.6c-2.3,1.4-4.6,2.6-7,3.7c-2.3,1-7.3,3.6-9.3,1.2
		c-0.1-0.1-0.1-0.1-0.2-0.1c0-0.1,0-0.2,0-0.3c-0.4-3.8-3.5-8.9-7.7-9.7c0.6-1,1-2.1,1.3-3.2c0.9,0.7,2.6,0.8,3.9,0.8
		c-0.3,0.6-0.6,1.3-0.7,1.9C1159.3,596.3,1159.2,598.1,1160.3,599z M1184.5,618.8c-3.2,1.6-9.1,6.2-12.4,3.5c-0.2-0.1-0.4,0-0.4,0.1
		c-0.1-3.9-1.9-7.3-4.7-9.5c0-0.1,0.1-0.2,0.1-0.2c0.1-0.7-0.1-1.4-0.2-2c-0.1-0.9,0.8-1.4,0.9-2.3c0-0.2,0-0.4-0.1-0.6
		c4.2-1,9.7-3.8,12.1-5.3C1181.4,608,1182.9,613.4,1184.5,618.8z M1203.2,672c-0.8,0.2-1.6,0.7-2.3,1c-1.3,0.6-2.6,1.3-4.1,0.8
		c-0.1,0-0.2,0-0.2,0c-0.4-0.1-0.9-0.3-1.3-0.5c-1.7-0.9-2.5-2.5-3.9-3.8c-0.2-0.2-0.5-0.1-0.5,0.2c0,1.7,1,3.3,2.5,4.4
		c-5.5,0-9.4,7.2-10.7,12.3c-0.3-0.6-0.7-1.1-1-1.6c-1.8-2.3-4.2-3.1-6.8-3.6c7-3.4,17.2-7.3,17.2-16.3c0-1.9-1.4-4.5-3.3-6.5
		c0-0.1,0-0.1,0-0.2c-0.2-0.6-0.5-1.2-0.4-1.9c0.1-0.6,0.5-0.8,0.9-1.2c2.5-0.7,5.1-2.1,6.2-3.5
		C1197.9,658.4,1200.5,665.2,1203.2,672z M1206.3,679.7c-0.5-0.6-1.1-1.2-1.8-1.7c0.3-0.2,0.5-0.5,0.4-0.9c-0.4-1.2-0.9-2.2-1.4-3.3
		c0-0.1-0.1-0.2-0.2-0.2c0.1-0.1,0.3-0.2,0.4-0.3C1204.6,675.4,1205.4,677.5,1206.3,679.7z M1202.3,674.4c0.1,0.2,0.2,0.5,0.3,0.7
		c0,0,0,0,0,0c-0.6-0.2-1.4,0-2-0.3c-0.1,0-0.2,0-0.3,0c-0.1,0-0.1,0-0.2-0.1c0,0,0.1,0,0.1,0c0.6-0.1,1.4-0.4,2.1-0.7
		C1202.2,674.1,1202.2,674.3,1202.3,674.4z M1198.1,706.4c1.1,0.2,2.5-0.2,3.4-0.5c1.4-0.5,2.8-1.1,4.3-1.6c0,1.2-0.1,2.4-0.1,3.5
		c-0.2,5.2-0.8,10.4-1.6,15.5c-0.6,4.2-2.4,7.4-5.8,9.9c-1.1,0.9-2.3,1.6-3.4,2.4c-0.3-2.5-1.5-4.8-2.2-7.2
		c-0.9-2.8-1.4-6.3-1.1-9.3C1196,716.6,1199.4,711.6,1198.1,706.4z M1196.6,708.9c0,4.5-4,8.6-8,9.9c-5.2,1.8-15.5-0.8-18.6-5.4
		c-0.1-0.2-0.3-0.3-0.5-0.3c0.4-2.9,0.2-5.9-0.7-8.6c8.2-3.8,14.5-14.9,23.1-5C1194.3,702.3,1196.6,705,1196.6,708.9z M1144,717.4
		c-1.7-0.1-3.4-0.3-5.1-0.4c1.5-0.3,3-0.8,4.2-1.5C1143.4,716.2,1143.7,716.9,1144,717.4z M1104.3,720.4c-1-2.3-2.6-6.1-0.4-8.2
		c0,0,0,0,0,0c1.9,0,4-0.4,6.1-0.7c4.2-0.7,8.5-1.9,11.2-5.1c4.8-0.1,7.3,5.3,8,9.4c0.8,5.2-4.1,7.7-8.2,8.8c-3.2,0.9-6.8,1-10.1,1
		C1107.5,725.7,1105.6,723.2,1104.3,720.4z M1070.1,615.6c1.9-0.1,3.9-0.6,5.7-1.3c2.7-1,6.7-2.6,9.1-5.1c4.6,0.3,5.5,5,5.4,8.9
		c-0.1,5-4.4,7.2-8.6,8.6c-3.5,1.2-9.7,2.8-11.9-1.3C1068.1,622.2,1067.7,618.5,1070.1,615.6L1070.1,615.6z M1076.7,595.6
		c1.3-1.4,2.2-3.1,2.8-5c0.9-3.1,0.1-5.7-1.5-7.7c0.8,0.4,1.6,0.8,2.3,0.9c-0.4,1.1-0.6,2.2-0.4,3.4c0.7,3.8,2.9,6.6,6.5,8.1
		c1.8,0.8,3.6,0.7,5.3,0.3c-2.7,2.4-4.4,5.4-3.8,9.6c0.1,1,0.7,2.4,1.6,3.7c-0.9-0.7-1.9-1.2-3.2-1.4c0.6-1,0.9-2.2,0.7-3.5
		C1086.4,598.6,1081.9,595.2,1076.7,595.6z M1014,412.3c1.5,0.6,3.4,0.2,4.5-1c0.2-0.3,0.4-0.6,0.6-0.9c1.5,0.1,2.1,0.8,2.4,2.4
		c0.2,1.5-0.3,3.3-1.3,4.4c-1.2,1.3-3.7,1.4-5.2,0.5C1013,416.6,1013.6,414.2,1014,412.3C1014,412.4,1014,412.4,1014,412.3z
		 M1009.2,390.2c0.1,0,0.3,0.1,0.4,0.1c1.3,0.2,2.8-0.3,4-1.1c0.2,0,0.5,0.1,0.7,0.2c0.8,0.4,1.2,1.3,1.5,2.2c0.6,2,0,4.2-1.8,5.3
		c-1.7,0.9-3.5-0.3-4.4-1.7C1008.5,393.6,1008.5,391.8,1009.2,390.2z M1006.6,355.2c1.5-0.3,2.8,0.1,3.1,1.8c0.3,1.9-1.5,2.9-3.1,3
		C1004.4,360.1,1005.8,357.2,1006.6,355.2z M1010.9,356.9c0.1,0.1,0.2,0.1,0.4,0.2c-0.1,0.1-0.2,0.1-0.3,0.2
		C1011,357.1,1011,357,1010.9,356.9z M1010.4,351.8c0.1-0.1,0-0.2-0.1-0.3c0.3,0.2,0.6,0.2,0.9,0c0.7-0.8,1.1-0.8,2.2-0.3
		c1.1,0.6,2.2,1.5,2.7,2.7c0.7,1.5-1.3,2.2-2.4,2.3c-1.1,0-2.2-0.5-3-1.2C1009.7,354,1009.9,352.8,1010.4,351.8z M1012.7,344.9
		c0.5-0.2,0.9-0.3,1.6-0.1c0.6,0.2,1.5,0.8,1.5,1.5c0,0.9-1.3,1.4-2.1,1.2C1012.9,347.2,1012.5,345.8,1012.7,344.9z M1020.8,347.3
		c0.2,0.1,0.4,0.2,0.6,0.3c0.9,0.5,1.7,1.3,2.1,2.2c1.1,2.3-2.2,2.7-3.7,2.4c-2.2-0.4-3.2-2-2.9-3.9c0.1,0,0.2,0,0.4,0
		c0.5-0.2,0.8-0.7,1.2-0.9c0.6-0.3,1.3-0.2,1.9-0.1C1020.5,347.2,1020.7,347.3,1020.8,347.3z M1030.4,347.8c-0.3,1.3-1.6,2-2.8,1.7
		c-1.5-0.4-1.8-1.8-1.5-3.1c0-0.1,0-0.2-0.1-0.3c0.1-0.2,0.2-0.5,0.3-0.7C1028,345.6,1030.7,345.9,1030.4,347.8z M1043.6,369.3
		c0.6,0.6,0.7,1.6,0.6,2.4c-0.1,0.9-1,1.4-1.5,0.4c-0.4-0.8-0.5-2.1-0.3-3.1C1042.9,369,1043.3,368.9,1043.6,369.3z M1051.2,382.6
		c-0.1,0-0.3,0.1-0.4,0.1c-0.2,0.1-0.5,0.4-0.4,0.7c0,0,0,0.1,0,0.1c-0.1,0.2-0.2,0.3-0.2,0.5c-0.9,0.1-1.9-1.4-2.1-2c0,0,0,0,0,0
		c0-0.2-0.1-0.4-0.2-0.6c-0.2-1.1-0.2-2.2,0.4-3.1c1.2-0.1,1.9,0.5,2.5,1.6C1051.1,380.7,1051.3,381.7,1051.2,382.6z M1052.3,384.6
		c0.8,0.9,1.1,2.4,1.2,3.6c0,0.1-0.1,0.2-0.1,0.3c0,0.1,0,0.2,0.1,0.3c-0.1,2-1.8,1.3-2.3-0.3c-0.3-1-0.3-2.1-0.3-3.1
		c0.2-0.1,0.4-0.2,0.7-0.3C1051.8,385,1052,384.8,1052.3,384.6C1052.2,384.6,1052.2,384.6,1052.3,384.6z M1077.5,441.2
		c-1.6,2.9-5.6,4.8-8.4,6.1c-3.1,1.4-10.5,7.4-12.2,1.9c-1.2-4,2.2-7.2,5.1-9.3c0.3-0.2,0.2-0.7-0.1-0.9c1.7-0.8,3.4-1.8,4.9-2.9
		c1.1-0.7,3-1.7,4.7-2.9c0.1,0,0.1,0,0.2,0C1076.4,433.1,1080.2,436.1,1077.5,441.2z M1078,445.5c3.3,0.1,4.8,3.2,2.6,5.8
		c-1.7,2-4.3,2.7-6.3,4.1c-0.8,0.5-1.7,1.3-2.6,2.1c-1.6,0.7-3.1,1.7-4.5,2.7c-1.2,0.4-2.3,0.3-3.4-0.3c-2.9-1.7-3.3-6.9,0.2-8.1
		c0.1,0,0.2-0.1,0.2-0.2c1.1-0.7,2.2-1.4,3-1.9c2.6-1.5,5.9-2.7,8.5-4.4C1076.5,445.5,1077.2,445.5,1078,445.5z M1083.3,451.7
		c-0.2,0-0.4,0-0.7,0c0.2-0.2,0.3-0.4,0.4-0.7C1083.1,451.3,1083.2,451.5,1083.3,451.7z M1072.7,473.9c-1.7,1.7-2.1,4.2-1.8,6.6
		c-0.7-1.5-1.6-3-2.7-4.1c-1.4-1.3-3.5-1.6-5.6-1.5c1.6-2.9,1.3-6-1.7-8.2c-0.7-0.5-1.5-0.8-2.3-0.9c1.9-2.2,2.3-5.1,1.4-8
		c0,0.1,0.1,0.2,0.1,0.3c1,2.9,2.9,4.1,5.1,4.2c-1.4,1.8-2.1,3.9-1.6,6.3C1064.5,473.6,1068.7,474.5,1072.7,473.9z M1085.3,503
		c-2.1,2-1.9,6.2-1,8.7c1.7,4.5,4.4,5.5,7.8,5.2c-5,1.9-4.9,6.9-2.7,11.3c1.6,3.3,3.8,4.4,6.2,4.4c-1,1-1.3,2.8-1.2,4.6
		c-0.8-1.6-1.9-3.2-3-4.4c-1.6-1.7-3.6-2.5-5.8-2.7c3.3-3.6,3.1-10-1.3-13c-1.3-0.9-2.6-1.4-4-1.7c3.4-3.2,2.7-9.3-0.1-12.8
		c-1.1-1.3-2.4-2-4-2.2c0.5-1,0.9-2,1-3c0,0.1,0.1,0.3,0.1,0.4C1078.3,502.8,1081.6,503.6,1085.3,503z M1097.1,556.9
		c-1.5,0.3-3.1,0.8-4.4,1.3c-4.4,1.7-8.8,4.1-13,6.1c-1.2,0.6-2.2,1.2-3,1.9c-3.6-0.3-7-4.1-8-7.3c-1.5-5.4,8.3-7.8,11.6-9.5
		c3.8-2,7.4-4,11.8-3.8C1096.9,545.9,1099.4,553,1097.1,556.9z M1096.7,559.1c0.1-0.1,0.3-0.2,0.4-0.3c0.1,0,0.2,0,0.2-0.1
		c3.6-0.6,7.3,0.9,8.5,4.6c0.9,2.8-0.4,4.7-1.6,6.9c-2.4,0.4-4.9,1.4-7.1,2.5c-4.1,2-8.2,4-12.1,6.2c-1.4,0.8-2.8,2.1-3.8,3.6
		c-3.4-0.1-5.8-5.5-6.2-8c-1.1-6,5.6-8.3,9.9-10.1c3.9-1.7,7.3-4.2,11.4-5.3C1096.3,559.1,1096.5,559.2,1096.7,559.1z M1108.8,570.4
		c-0.7-0.2-1.3-0.4-2-0.4c0.5-0.8,0.9-1.5,1.1-2.3C1108.1,568.7,1108.4,569.6,1108.8,570.4z M1144.5,583c3.1-0.3,5.8-0.8,8.6,1.6
		c2.1,1.8,2.1,5.8,1.4,8.2c-1.3,4.6-9.5,6.6-13.4,8.5c-4.4,2.1-11.1,6.8-15.5,2.2c-1.7-1.8-1.5-4.3-1.9-6.6c-0.6-3.5,2.1-5.8,5-6.9
		c2.8-0.7,5.5-1.8,7.6-2.6C1138.9,586.4,1141.9,584.9,1144.5,583z M1160.4,608.3c-2.5,4.6-7.8,6-12.3,7.8
		c-4.2,1.6-10.8,7.9-15.3,3.8c-3.7-3.4-3.7-8.3-1.8-12.5c0.1-0.1,0-0.3-0.1-0.4c2.5-0.2,5.2-1,7.5-2.2c4.8-2.5,9.8-4.4,14.5-6.9
		c0.7-0.4,1.2-0.8,1.7-1.3C1159,597.6,1162.4,604.5,1160.4,608.3z M1166,608.2c-0.6,0.7-1,1.5-0.9,2.4c0.1,0.4,0.2,0.9,0.3,1.4
		c-1.2-0.7-2.5-1.2-4-1.4c0.6-0.9,1.1-2,1.3-3.1C1163.3,608.2,1164.5,608.4,1166,608.2z M1163.6,627.7c-2.5,1-4.8,2.7-7.2,4
		c-3.5,1.9-13.7,7.5-17.5,3.5c-0.3-0.7-0.7-1.4-1.2-1.9c-1.5-3.1-3.2-9.2,0.8-10.1c0.1,0,0.2-0.1,0.2-0.2c0.2,0,0.3-0.1,0.5-0.1
		c4.3-1.3,8-4.5,12.4-5.9c3-1,6.7-2.6,9-5.2c5.4,0.8,8.3,4.9,9.4,10.1C1170.7,625.8,1166.2,626.7,1163.6,627.7z M1180.4,658.2
		c3.1-2,5.5-0.2,7.6,2.3c2.3,2.7,2.5,5.9,0.8,9c-3.2,5.7-10.8,8-16,11.4c-1.5-0.2-3.1-0.4-4.5-0.8c-3.6-0.9-6.5-0.4-9,1.7
		c-0.8-2.6-3.3-5.3-5-6.7c0,0,0,0,0.1,0c0.6-0.3,0.5-1.1-0.1-1.4c0.2,0.1,0-0.1,0-0.5c0-0.7,0.3-1.3,0.5-1.9c0.5-1.2,1.1-2.4,2.3-3
		c0.1,0,0.1-0.1,0.2-0.2c3.1,0,6.4-1.4,9.2-3c3.7-2.2,9.3-4.1,13.2-7.2C1179.9,658.2,1180.2,658.3,1180.4,658.2z M1157.4,683.8
		c-3.1,4-2.5,10.3-2.6,15c0,0.1,0,0.1,0.1,0.2c-0.3,0.1-0.7,0.2-1,0.3c0.4-1.4,0.5-2.8-0.2-4c-3.5-5.6-12.7-2.4-17.6-0.7
		c-1.5,0.5-3,1.4-4.2,2.6c-3.2,0.6-5.9-1.5-6.8-4.7c-0.9-3.1,0.7-5.2,3-6.9c4.7-3.6,10.2-5.5,15.5-8.1c2.4-0.9,4.8-1.7,7.1-1.7
		c2.3,0.1,7.4,4.8,7,7.8C1157.5,683.6,1157.4,683.7,1157.4,683.8z M1130.3,713.7c-0.2-1.1-0.6-2.1-1.1-3.2c-0.5-2.5,0-5.2,0.7-7.6
		c0.5-1.9,1.4-3.3,2.7-4.4c0.3-0.2,0.7-0.4,0.9-0.7c0,0,0-0.1,0-0.1c1.2-0.8,2.5-1.4,4-1.9c3.3-1.1,12.8-4.2,14.5,0.7
		c0.8,2.3-1.8,5.6-2.8,7.4c-1.4,2.7-2.2,5.3-4.3,7.7C1141.4,715.8,1134.5,717.3,1130.3,713.7z M1101.5,649.6
		c0.8-1.2,1.4-2.6,1.6-4.2c0.4-3.9-2.8-8.8-6.8-9.3c0.3-0.4,0.6-0.8,0.8-1.3c2.3-4.8-2.9-9.2-7.1-10.9c1.2-1.5,2-3.4,2.3-5.7
		c0.3-2.6-0.1-5.2-1.2-7.2c1.1,1.1,2.4,1.8,3.6,1.8c-1.4,2.4-2,5.2-0.9,7.9c0.8,2,4,7,7,7.8c-1.7,2.6-2.3,5.6-0.4,8.4
		c1.6,2.3,5.5,5.1,8.6,5c-0.6,0.7-1.1,1.4-1.6,2.2c-1.2,2.1-2.4,5.1-1.4,7.4c1.1,2.5,4.3,6.1,7.3,6.3c-1.1,1.5-2.1,3.2-2.1,4.5
		c0,2,0.7,4,1.8,5.6c-1.5-1.5-3.4-2.4-5.5-2.6c0.5-0.6,0.9-1.2,1.3-1.9C1112.6,656.7,1104.7,654,1101.5,649.6z M1119.2,605.1
		c6.4,1.3,6.4,7.2,4.5,12.1c-5.4-0.2-10.8,1.9-15.5,4.7c-1.8,1.1-4,2.7-5.7,4.8c-4.2,0.1-7.6-7.3-6.9-10.4c1-4.7,7.7-8.6,11.8-10
		C1111.2,605,1115.3,604.3,1119.2,605.1z M1151.1,673.7c-1.2-0.1-2.5,0-3.6,0.5c-2.1,0.8-4.7,1.7-6.6,3.1c-4.1,1.2-7.9,2.2-11.7,4.7
		c-0.9,0.6-2,1.3-3.1,2.1c0,0-0.1,0-0.1,0c-3.1,0.3-4.2-1.5-5.5-4c-1.9-3.9-0.5-5.7,2.5-8.2c4.3-3.7,9.6-5.2,14.7-7.1
		c1.6-0.6,4.1-1.7,6.4-2.1c0.4,0.2,0.8,0.2,1.1-0.1c1.7-0.1,3.3,0.4,4.2,2C1151.1,667.5,1152,670.6,1151.1,673.7z M1144.1,660.5
		c-2.6,0.4-5.4,1.5-7.3,2.3c-4.4,1.6-8.6,2.9-12.6,5.5c-0.8,0.5-1.9,1.2-3,2.1c-3.2,0.6-5.1-2.3-6.5-4.7c-1.9-3.4,0.5-6.1,2.6-8.5
		c3.6-4,9.5-4.7,14.1-7c2.9-1.5,5.9-3.6,9.2-3.6c2.9,0,3.9,4.8,4.3,6.9C1145.3,655.9,1144.9,658.3,1144.1,660.5z M1137.1,645
		c-2.8,0.9-5.6,2.7-8,3.8c-4.2,2-8.5,2.9-12.3,5.7c-0.7,0.5-1.6,1.3-2.4,2.3c-2.3-0.6-4.9-4.1-5.8-5.5c-1.3-2,0.3-5.1,1.3-7
		c1.7-3.1,5.7-5,8.8-6.3c3.6-1.6,7.9-2.9,11.7-4.1c1.8-0.6,3.8-0.9,5.4,0.4c0.4,1,1,1.8,1.7,2.5
		C1138.4,639.5,1138.5,643.1,1137.1,645z M1134.8,631.6c-0.3-0.1-0.6-0.1-1-0.1c0.5-2.1,0.4-4.5,0.4-6.5c0-0.6-0.1-1.3-0.3-1.8
		c0.6,0.2,1.2,0.2,1.9,0.2C1133.9,624.9,1134.2,628.9,1134.8,631.6z M1132.2,626c0,1.2,0.1,4.1-0.3,5.5c-1.2,0.2-2.4,0.6-3.6,1
		c-3.5,1.2-7.1,2.4-10.5,3.7c-2.2,0.9-4.4,2.1-6.3,3.6c-2.3,1-4.5-0.2-6.5-1.5c-3.1-2-4.1-5.1-2.2-8.3c2.4-4.1,6.9-6.7,11.1-8.6
		c4.1-1.8,8.5-2.7,12.9-1.7C1130.1,620.4,1132.1,622.7,1132.2,626z M1116.2,674c-0.2-1.7-0.9-3.2-1.9-4.6c1.5,1.4,3.4,2.2,5.5,2
		c-1.4,1.3-2.5,2.7-2.7,4.3c-0.1,0.9,0,1.8,0.2,2.6c-0.6-0.4-1.4-0.8-2.1-1C1116,676.3,1116.4,675.2,1116.2,674z M1121.5,685
		c1,0.5,2.2,0.4,3.3,0c-1.2,1.2-2.2,2.6-2.3,4.2c-0.2,3.3,0.9,6.5,3.6,8.4c1,0.7,2.4,1.2,3.8,1.3c-1.9,2.6-3,5.8-2.4,8.9
		c-1.4-1.7-3.1-2.9-5.2-3.2c0.2-0.4,0.4-0.8,0.6-1.2c1.6-3.9,1-10.5-2.9-12.7c0.4-0.6,0.7-1.3,1-2
		C1121.5,687.6,1121.7,686.3,1121.5,685z M1153.5,670.3c-0.2-1.1-0.5-2.3-0.8-3.4c0.9,0.5,1.8,0.9,2.7,1
		C1154.6,668.5,1153.9,669.5,1153.5,670.3z M1148.3,660.8c-0.7-0.2-1.4-0.4-2.2-0.4c0.8-2.3,0.9-4.7,0.5-7.3c0-0.2-0.1-0.3-0.1-0.5
		c0.7,0.5,1.5,0.9,2.4,1.2C1147.4,655,1147.6,658.2,1148.3,660.8z M1143.1,645.5c-0.1,0-0.1-0.1-0.2-0.1c-1.2-0.7-2.4-0.9-3.6-0.8
		c0.7-1.8,0.9-4.1,0.5-6.3c0.1,0,0.2,0.1,0.3,0.1c1.2,0.3,2.6,0.3,4,0.1C1142.8,640.4,1142.8,643,1143.1,645.5z M1122.7,592.1
		c-0.4,0.5-0.7,1.2-0.9,1.8c-0.3-1.7-1-3.3-2-4.8c1.4,1,3,1.3,4.7,1.4C1123.8,590.9,1123.2,591.5,1122.7,592.1z M1130.1,607
		c-2.4,3.6-2.9,7.7-1.1,11.2c-1-0.4-2.1-0.7-3.1-0.8c2.4-5.5,2-10.9-4.1-13.8c-0.8-0.4-1.7-0.7-2.7-0.9c1.3-1.1,2.2-2.6,2.6-4.2
		c0.1,0.6,0.2,1.2,0.3,1.8C1123.1,605.3,1126.4,607,1130.1,607z M1119.9,595.6c0.7,3-0.5,5.4-2.8,6.9c-5-0.4-10.7,1.5-14.7,3.6
		c-2.2,1.1-4.4,2.9-6.2,4.9c-1.6,0.7-3.8-1.4-4.7-2.3c-1.7-1.8-2.1-4.9-1.5-7.2c1.2-4.5,8.6-7.1,12.3-9.1c3.9-2.1,9.9-5.4,14.3-3.1
		C1118.7,590.3,1119.4,593.6,1119.9,595.6z M1108.2,586.8c-0.3,0.1-0.6,0.3-0.7,0.6c-2.4,0.9-4.7,2-6.3,2.8
		c-1.8,0.8-3.7,1.7-5.6,2.8c-5.9,1.4-13.2,1.1-13.6-6.9c-0.2-5.3,10.7-8.8,14.5-10.7c2.3-1.1,5.1-2.7,7.8-3.1
		c0.3,0.1,0.6,0.1,0.8-0.1c1.2-0.1,2.4,0.1,3.5,0.7C1113.6,575.4,1114.1,585.4,1108.2,586.8z M1057.4,534.9c1.6,2.9,4,5.4,6.6,4.9
		c-0.7,0.9-1.3,1.9-1.7,2.9c-0.9-2.7-3.7-4.9-6.5-5.3C1056.5,536.6,1057.1,535.8,1057.4,534.9z M1030.8,465.6
		c0.1-0.3,0.2-0.5,0.3-0.8c0.7-2.7-0.3-5.5-1.1-8.1c-0.6-2.1-1.7-3.4-3.4-4.3c0.6-0.8,1.1-1.8,1.4-2.9c0-0.1,0.1-0.2,0.1-0.3
		c0,0,0,0.1,0,0.1c0,3.1,3.7,8,7.2,9.1c-1.5,1.3-2.6,3.3-3.4,5c-0.3,0.8-0.5,1.6-0.5,2.4C1031.2,465.6,1031,465.6,1030.8,465.6z
		 M1025.8,436.9c0.5-0.3,1-0.7,1.4-1.2c-0.3,1.5,0.2,3.3,1.2,4.4c1.2,1.3,2.4,1.3,3.9,1c-1.7,1.5-3.1,3.3-3.8,5.4
		C1028.9,443.1,1028.5,438.5,1025.8,436.9z M1046.5,379.1c0-0.1-0.1-0.1-0.1-0.2c0.1,0,0.2,0,0.2,0
		C1046.5,379,1046.5,379,1046.5,379.1z M1053,391.7c0.5-0.1,0.9-0.3,1.3-0.7c-0.1,0.9-0.1,1.8,0.2,2.5c-0.1-0.3-0.2-0.5-0.4-0.8
		C1053.9,392.3,1053.5,392,1053,391.7z M1056.7,467.5C1056.7,467.5,1056.7,467.5,1056.7,467.5c4.3-0.1,7,3.6,4.1,7.7
		c-2.7,0.5-5.5,1.6-7.2,2.5c-1.9,1.1-3.4,2.8-5.4,3.8c-1.3,0.7-2.5,1.2-3.6,2.1c-3.6,0.1-7.1-4-6.3-7.4c0.8-3.6,5.7-4.5,8.5-5.5
		c2.7-1,5.2-2.2,8-3c0.4-0.1,0.9-0.2,1.3-0.2C1056.2,467.6,1056.5,467.7,1056.7,467.5z M1074.7,500.7c-0.2,0-0.3,0-0.5,0.1
		c-2,0.4-4,1.6-6,2.1c-1.9,0.5-3.8,0.8-5.7,1.5c-3,1.1-6.5,2.7-8.8,5.1c-0.1,0-0.2-0.1-0.3-0.1c-4.4-0.7-5.7-4.5-5.4-8.4
		c0.4-5.4,6.9-6.1,11-7.5c3.2-1.1,5.8-2.9,9.3-3.1c3.5-0.2,6.1,2.9,7.1,5.9C1075.9,497.8,1075.2,499.3,1074.7,500.7z M1083.1,530.3
		c-3,0.3-6.2,1.3-8.7,2.3c-2.9,1.1-6.2,2.9-8.7,5.3c-2.7-0.3-4.9-0.3-6.6-3.4c-1-1.9-2.1-4.7-1.6-6.9c0.7-3.3,4.8-5.4,7.6-6.7
		c3.8-1.9,8.1-3.6,12.3-3.8c6.9-0.2,12.4,8.2,5.8,13.1C1083.2,530.1,1083.2,530.2,1083.1,530.3z M1064.3,519.2
		c-1.6,0.7-3.3,1.7-4.8,2.9c-3.8,1-6.2-3.1-7-6.2c-1.3-5.1,6.9-8.3,10.5-9.6c3.2-1.1,6.5-1.7,9.6-3.1c7.8-3.6,11.3,8.2,5.6,12.2
		C1073.6,515.1,1068.6,517.2,1064.3,519.2z M1067.9,488.7c-3.4,0.1-6.7,2-10.4,3.3c-3.5,1.2-6.8,2.1-9,4.3c-4.4-0.4-6.1-7-4.1-10.2
		c1.1-1.8,4-2.6,5.8-3.6c2-1,3.5-2.7,5.5-3.8c2.7-1.5,7.3-2.3,10.2-1.6c2,0.5,2.8,2.7,3.6,4.3
		C1070.9,484.5,1069.6,486.3,1067.9,488.7C1067.9,488.6,1067.9,488.7,1067.9,488.7z M1044.9,469.8c-2,0.6-4.5,1.6-6.2,3.1
		c-1.4-0.7-2.6-1.6-3.5-2.8c-0.4-0.9-0.8-1.9-1.4-2.7c-0.5-1.7-0.3-3.5,0.8-5.2c2.2-3.5,6.5-4.5,10-6.4c4.2-2.3,8-4.5,12.1-0.5
		c3,3,2.7,7.7-0.2,10.4C1052.3,466.3,1047.7,469,1044.9,469.8z M1033.3,440.1c-5.6-0.1-4.5-5-2.5-8c1.7-2.5,4.4-3.8,7.1-5.1
		c0.1,0,0.1-0.1,0.2-0.1c0,0,0,0,0,0c3-1.4,5.7-2.5,8.9-0.7c1.9,1,2.5,2.6,2.5,4.3c-0.1,0.1-0.2,0.3-0.2,0.4
		c-0.2,0.6-0.5,1.3-0.4,1.9c0,0.1,0.1,0.3,0.1,0.5c-0.3,0.8-0.6,1.6-1,2.3c-2.7-0.3-5.7,0.4-8.3,1.4c-2,0.8-4.2,1.9-6.2,3.2
		C1033.5,440.1,1033.4,440.1,1033.3,440.1z M1033.2,416.8c-0.4,0.3-0.6,0.7-0.9,1c-3.3,0.9-7.9-0.6-7.6-3.3c0.3-0.1,0.5-0.3,0.5-0.5
		c0-0.2,0-0.4-0.1-0.7c0.1-0.2,0-0.5-0.3-0.5c-0.1-0.1-0.2-0.3-0.2-0.4c1.9,0.5,4.1,0.1,5.8-0.9c0.7-0.4,1.3-0.9,1.8-1.4
		c1.1-0.5,1.9-0.5,2.7,0.7c0.8,1.3,0.9,3,0.4,4.4c-0.1,0.2-0.2,0.4-0.3,0.6C1034.4,415.9,1033.8,416.3,1033.2,416.8z M1020.4,405.4
		c0,0,0.1,0,0.1,0.1c0,0,0,0.1-0.1,0.1C1020.4,405.5,1020.4,405.4,1020.4,405.4z M1017.1,385.7c0.6-0.5,1.4-1,1.8-1.7
		c0,0,0-0.1,0-0.1c-0.8-0.2-1.5-0.2-2.1,0.1c-0.1-0.2-0.1-0.4-0.2-0.6c0.9,0.3,1.9,0.4,2.8,0.3c0.8-0.1,1.6-0.4,2.3-0.7
		c0.1,0,0.1,0.1,0.2,0.1c1.5,0.6,2.9,0.5,3.4,2.3c0.6,2.2-1.7,3.7-3.4,4.3c-1.4,0.5-2.8,0.4-3.9-0.4
		C1017.7,388.1,1017.4,386.9,1017.1,385.7z M1014.6,377.3c0.4-0.5,1-1,1.4-1.5c0.1-0.1,0-0.3-0.2-0.3c-0.2,0-0.5,0-0.7,0
		c0-0.2-0.1-0.4-0.2-0.5c0.4,0.1,0.9,0.2,1.4,0.1c0.1,0,0.2-0.1,0.2-0.1c0.1,0.1,0.2,0.3,0.4,0.3c0.9,0.2,1.8,0,2.8-0.1
		c1.4-0.2,2,0.7,2.5,1.9c1.3,2.7-0.9,5-3.7,5.1c-1.1,0-2.3-0.4-3.3-1.1C1014.8,379.8,1014.4,378.7,1014.6,377.3z M1013.9,374.4
		C1013.9,374.4,1013.9,374.4,1013.9,374.4c0.1,0.1,0.1,0.3,0.2,0.3c0.1,0,0.2,0,0.3-0.1c0,0,0,0,0,0c0,0,0.1,0,0.1,0.1
		c0,0-0.1,0-0.1,0c0,0.3,0,0.4-0.3,0.1c-0.1,0.1-0.3,0.2-0.3,0.3c0,0,0,0.1,0,0.1C1013.7,374.8,1013.8,374.5,1013.9,374.4z
		 M1037.6,370.2c0.5,0,0.9,0.2,1.4,0.6c0.3,0.2,0.5,0.5,0.7,0.8c0.1,0.2,0.2,0.5,0.3,0.7c0.1,0.5,0.1,1-0.2,1.4
		c-0.9,1.5-3.3,1.9-4.8,1.1c-0.3-0.2-0.7-0.4-0.9-0.7c-0.1-0.5-0.2-1.1-0.3-1.7c0.3-0.4,0.7-0.6,1.1-0.8c0.2-0.1,0.2-0.4,0-0.5
		C1035.8,371.1,1036.7,370.8,1037.6,370.2z M1049.7,388.4c0.1,0.4,0.1,0.7,0.3,1.1c0.1,2.2-2.3,4.4-4.3,4.7
		c-2.8,0.4-4.1-5.5-1.9-5.4c0.2,0,0.2-0.3,0-0.3c-0.7-0.1-1.3,0-1.7,0.3c0,0,0-0.1,0-0.1c-0.1-0.2-0.3-0.4-0.4-0.5
		c0.5,0,1,0,1.4-0.1c0.1,0.2,0.3,0.3,0.5,0.3c2.2,0.3,4.3-2.9,6-0.3C1049.6,388.2,1049.6,388.3,1049.7,388.4z M1053.3,394.7
		c0.4,1.6-1,3.1-2.1,4.1c-0.6,0-1.2,0.2-1.7,0.7c-0.2,0.2-0.2,0.3-0.2,0.5c-0.8,0.4-1.7,0.6-2.4,0.2c-1.4-0.7-1.1-3.7,0-4.5
		c0.1,0,0.1-0.1,0.1-0.2c1.1-0.3,2.1-1.1,2.8-2C1051.1,392.8,1052.7,392.5,1053.3,394.7z M1064.5,421.6c-1.4,0.8-3.2,0.2-4.6-0.4
		c-1.9-0.9-3.8-4-0.8-5c0.3-0.1,0.3-0.4,0-0.6c-0.7-0.3-1.3-0.2-1.9,0.2c-0.2-0.4-0.5-0.6-0.8-0.7c1.4-0.1,2.8-0.5,3.9-1.2
		c0.1-0.1,0.3-0.2,0.4-0.3c0.5,0,1,0.1,1.6,0.4c1.5,0.7,2.8,2,3.5,3.5C1066.8,419.1,1066.1,420.6,1064.5,421.6z M1055.7,424.5
		c-1,1.7-3.4,2.3-4.8,0.9c-1.6-1.4-1.1-3.6,0.6-4.7c0.3-0.2,0.2-0.9-0.3-0.7c-0.3,0.1-0.5,0.2-0.7,0.3c0.3-0.3,0.5-0.6,0.7-0.9
		c1.1-0.6,2.2-0.5,3.4,0.5C1055.9,421,1056.6,422.9,1055.7,424.5z M1054.7,440.2c0.1,0,0.3,0.1,0.4,0.1c-0.1,0.2-0.1,0.3-0.2,0.5
		C1054.8,440.6,1054.7,440.4,1054.7,440.2z M1051.6,436.7c-0.2-0.1-0.4-0.3-0.7-0.4c0.1-0.1,0.2-0.1,0.2-0.2
		c0.1-0.2,0.2-0.3,0.3-0.5C1051.5,436,1051.5,436.3,1051.6,436.7z M1041.1,418c0.2,0,0.3-0.1,0.4-0.2c0,0.4,0.2,0.8,0.3,1.2
		c-0.1,0-0.2,0.1-0.2,0.2C1041.5,418.8,1041.4,418.4,1041.1,418z M1022.7,405.8C1022.7,405.8,1022.7,405.8,1022.7,405.8
		c1.1-0.1,2.2-0.3,3.2-0.4c1.5-0.2,2.9-0.7,4-1.4c0.1,0.1,0.3,0.2,0.5,0.1c1.9-0.6,2.6,0.9,2.3,2.6c-0.4,1.7-2.4,3-3.8,3.6
		c-1.4,0.7-3.1,0.6-4.6,0.1C1022,409.8,1022.3,407.7,1022.7,405.8z M1018.6,393.9c0.3-0.7,0.8-1.4,1.4-1.9c0,0,0-0.1,0.1-0.1
		c0.6,0,1.1,0,1.7-0.1c1-0.2,2.1-0.7,2.9-1.3c-0.1,0.1-0.1,0.1-0.2,0.2c-0.3,0.5,0.2,0.9,0.7,0.7c0.8-0.3,1.8-1.1,2.7-0.6
		c0.8,0.4,1.2,1.7,1.4,2.4c0.6,2.1-1.4,3.5-3,4.2c-1.6,0.8-3.6,0.9-5.3,0.6c-1-0.2-1.7-0.6-2.1-1.1
		C1018.8,395.8,1018.7,394.8,1018.6,393.9z M1013.4,371.5c0-1,0-2.1-0.1-3c0.1-0.3,0.2-0.6,0.3-0.9c0.3,0.1,0.7,0,0.8-0.4
		c0.4-1.4,1.8-1.2,2.9-0.8c1.4,0.4,2.2,1.5,2.6,2.9c0.5,2.2-2.5,4.6-4.6,4.2C1014.4,373.4,1013.7,372.6,1013.4,371.5z M1025.8,356.4
		c-0.1,0-0.2,0.1-0.3,0.2c0-0.1-0.1-0.3-0.1-0.4C1025.5,356.3,1025.7,356.3,1025.8,356.4z M1028.5,357c-0.1-0.1-0.1-0.2-0.2-0.3
		c0.1,0,0.1,0,0.2-0.1C1028.4,356.7,1028.4,356.8,1028.5,357z M1040.3,386.1c-0.6-0.4-1.9-2-1-2.6c0.3-0.2,0.3-0.7-0.1-0.8
		c-0.1,0-0.2,0-0.3,0c1.4-0.3,2.6-1.3,3.3-2.5c1.7-0.3,3,2.2,2.6,4C1044.4,386,1041.9,387.2,1040.3,386.1z M1062.1,412
		c-0.1,0-0.1,0-0.2-0.1c0-0.1,0.1-0.2,0.1-0.3C1062,411.7,1062,411.8,1062.1,412z M1057.9,413.1c-0.7,0.2-1.4,0.3-2,0.3
		c-1.4-0.1-2.8-1-3.2-2.3c-0.1-0.4-0.1-1.1,0-1.7c0.1,0,0.3,0,0.4,0c0.5-0.2,0.9-0.6,1.5-0.8c0.8-0.3,1.8-0.3,2.6-0.2
		c1.6,0.1,4.1,1,3,3c-0.1,0.1-0.2,0.2-0.2,0.3C1059.1,411.8,1058.3,412.2,1057.9,413.1z M1056,419.4c-0.2-0.2-0.3-0.3-0.5-0.5
		c0.1-0.1,0.3-0.2,0.4-0.3C1055.9,418.9,1056,419.1,1056,419.4z M1048.6,422.3c-0.2-0.1-0.3-0.2-0.6-0.2c0,0,0,0,0,0
		c0.3-0.1,0.7-0.3,1-0.5C1048.9,421.8,1048.8,422.1,1048.6,422.3z M1027.1,385.7c0-0.7-0.3-1.4-0.8-2.1c0,0,0.1,0,0.1,0
		c0.1,0.1,0.1,0.2,0.2,0.2c0.1,0.1,0.3,0.2,0.4,0.2c-0.1,0.9,0.2,1.7,0.8,2.3c-0.3,0-0.5,0-0.8,0.1
		C1027.1,386.2,1027.1,386,1027.1,385.7z M1022.2,367.6c0.7,0.2,1.4,0.2,2.1,0c0.1,0.1,0.3,0.2,0.5,0.2c-0.8,0-1.5,0.2-2,0.7
		c0-0.1-0.1-0.2-0.1-0.3C1022.6,368.1,1022.4,367.8,1022.2,367.6z M1038.5,386.6c0.1,0.1,0.1,0.1,0.2,0.2c-0.2-0.3-0.5-0.5-0.8-0.8
		c-0.2-0.2-0.5-0.4-0.7-0.5c0.2,0,0.4-0.1,0.5-0.2C1038,385.7,1038.2,386.2,1038.5,386.6z M1052,408.6c0,0,0,0.1-0.1,0.1
		C1051.9,408.6,1051.9,408.6,1052,408.6C1051.9,408.6,1052,408.6,1052,408.6z M1044.4,411.3c0,0.1,0,0.1,0,0.2
		c-1.1,0.7-2.5,1-3.8,0.7c-2.9-0.7-1.3-3.5,0.1-5.1c0.4-0.1,0.8-0.3,1.1-0.5c0.6,0.1,1.2,0,1.8,0c0.8-0.1,1.7-0.1,2.4,0.3
		c1.2,0.6,0.8,1.9,0.2,2.9C1045.5,409.9,1044.8,410.4,1044.4,411.3z M1033.1,398c-0.6-1.7,3-4.7,3.9-2.6c0,0.1,0.2,0,0.1-0.1
		c-0.2-0.5-0.5-0.9-0.8-1.1c0.5-0.1,1-0.3,1.5-0.6c1.3,0,2.6,0.4,3.3,1.7c1,1.8-1.7,3.7-3,4.3C1036.4,400.4,1033.7,399.9,1033.1,398
		z M1034.8,384.7c0,0-0.1,0-0.1,0c0-0.1,0.1-0.1,0.1-0.2C1034.7,384.6,1034.8,384.6,1034.8,384.7z M1032.3,387.2
		c0.2,0.1,0.4,0.2,0.6,0.1c0.7-0.4,0.9-1.1,1.8-1.1c0.9,0,1.7,0.5,2.4,1.1c1.5,1.4,1.9,3.6,0,4.9c0,0-0.1,0-0.1,0.1
		c-0.5,0.1-0.9,0.2-1.3,0.4c-1.3,0.2-2.7-0.6-3.6-1.7C1030.9,389.4,1031.1,388.1,1032.3,387.2z M1030.1,387.7
		c-0.1-0.2-0.3-0.4-0.4-0.5c0.2,0,0.4,0.1,0.7,0C1030.2,387.3,1030.2,387.5,1030.1,387.7z M1042.6,398.9c-0.2,0-0.4,0-0.7,0
		c0.2-0.3,0.3-0.5,0.5-0.8C1042.4,398.3,1042.5,398.6,1042.6,398.9C1042.6,398.9,1042.6,398.9,1042.6,398.9z M1036.9,401.8
		c0.3,0,0.6-0.1,0.9-0.2c0,0,0,0.1,0.1,0.1c-0.4,0.3-0.9,0.6-1.2,1c-0.1-0.3-0.2-0.6-0.4-0.9
		C1036.4,401.8,1036.6,401.8,1036.9,401.8z M1039.7,401.3c0.8-0.4,1.5-0.8,2.4-0.8c0.4,0,0.8,0.1,1,0.2c0.2,0.6,0.4,1.3,0.6,1.9
		c-0.2,0.5-0.4,0.9-0.8,1.3c-0.5,0.4-1.1,0.8-1.7,1.1c-0.1,0-0.2,0-0.3,0c-0.3-0.1-0.5,0.2-0.6,0.4c-0.8,0.3-1.6,0.5-2.4,0.4
		C1035.8,405.5,1038.4,402.6,1039.7,401.3z M1044.6,404.6c0.2,0.2,0.4,0.4,0.6,0.5c-0.3-0.1-0.7-0.1-1-0.1
		C1044.3,404.8,1044.5,404.7,1044.6,404.6z M1039.3,392.3c0,0,0.1-0.1,0.1-0.1c0,0.1,0,0.1,0.1,0.2
		C1039.4,392.3,1039.4,392.3,1039.3,392.3z M1035.5,382.8c-0.1,0.1-0.2,0.1-0.3,0.2c0-0.3,0-0.6-0.1-0.9c0.1,0.1,0.2,0.1,0.3,0.2
		c0,0.1,0,0.2,0,0.3C1035.4,382.6,1035.4,382.7,1035.5,382.8z M1033.8,380.1c-0.1-0.1-0.3-0.2-0.4-0.3c0,0-0.1,0-0.2-0.1
		c0.2-0.3,0.4-0.6,0.5-0.9C1033.7,379.3,1033.7,379.7,1033.8,380.1z M1032.4,380.7c0.9,0.3,1.6,1.2,1.4,2.2
		c-0.3,1.4-1.6,2.4-2.9,2.7c-0.7,0.2-1.5,0.2-2.2-0.2c-0.8-0.5-0.6-1.7-0.3-2.4c0.1-0.3-0.1-0.5-0.3-0.6
		C1029.7,382.4,1031.3,381.8,1032.4,380.7z M1032.8,393.6c0.3,0.2,0.7,0.3,1,0.4c-0.4,0.2-0.8,0.4-1.1,0.7c0.1-0.2,0.1-0.4,0.1-0.6
		C1032.8,394,1032.8,393.8,1032.8,393.6z M1038.2,407.6c0.2,0,0.3,0,0.5,0c-0.1,0.1-0.2,0.2-0.3,0.3
		C1038.3,407.8,1038.3,407.6,1038.2,407.6z M1048.1,409.7c0.1,0.1,0.1,0.2,0.2,0.3c-0.1,0-0.2-0.1-0.2-0.1
		C1048,409.8,1048,409.7,1048.1,409.7z M1051.1,412.6c0.2-0.1,0.3-0.2,0.4-0.3c0,0,0,0,0,0.1c0.2,0.5,0.5,0.9,0.8,1.3
		c0,0-0.1,0-0.1,0.1c0,0,0,0,0,0c-0.2-0.1-0.5-0.1-0.6,0C1051.5,413.3,1051.3,413,1051.1,412.6z M1038.1,383c0,0,0-0.1,0-0.1
		c0.1,0,0.2,0,0.3,0C1038.3,382.9,1038.2,382.9,1038.1,383z M1025,367.8c-0.1,0-0.1,0-0.2,0c0.1,0,0.2,0,0.3-0.1
		c1-0.4,1.9-0.4,2.4,0.1c0.2,0.6,0.5,1.1,0.7,1.7c0.1,1.6-1,3.1-2.3,3.8c-1.2,0.6-2.3-0.2-2.7-1.4c-0.5-1.6,0.9-2.5,1.9-3.4
		C1025.5,368.2,1025.3,367.8,1025,367.8z M1029.3,372.1c0.1,0.2,0.1,0.4,0.2,0.6l0,0c0,0,0,0,0,0l0,0c0,0.1,0,0.2,0.1,0.2
		c-0.2,0-0.5,0-0.7,0C1029.1,372.7,1029.2,372.4,1029.3,372.1z M1026.5,375.6c0.7-0.3,1.2-0.8,2-1c0.7-0.2,1.3-0.1,2,0.1
		c0.2,0.5,0.4,1,0.5,1.4c0.2,0.7,0.8,1,1.4,1c0,0.5-0.1,0.9-0.4,1.3c-0.2,0.3-0.5,0.6-0.7,0.9c-1.1,0-2.1,0.4-2.6,1.2
		c-0.6,0-1.1,0-1.6-0.3C1025.3,379.3,1025.6,377.1,1026.5,375.6z M1029.8,390.4c0.1,0,0.2-0.1,0.2-0.1c0.1,0.5,0.3,0.9,0.5,1.3
		c0.2,0.4,0.5,0.7,0.8,1c-0.3,0-0.5,0.1-0.7,0.3c-0.1-0.5-0.2-1.1-0.4-1.6C1030.1,391,1030,390.7,1029.8,390.4z M1032.1,399.8
		c0.1,0.1,0.1,0.2,0.2,0.3c-0.1,0-0.2,0.1-0.2,0.1C1032.1,400,1032.1,399.9,1032.1,399.8z M1045.3,413c0.7-0.5,1.5-1.2,2.1-2
		c0.2,0,0.5,0,0.7,0.1c1,0.3,1.6,1.4,2,2.2c0.8,1.7,0.6,3.6-0.3,5.1c-0.1,0.1-0.1,0.2-0.2,0.2c-0.3,0.4-0.6,0.8-1,1.1
		c-3.7,3.1-7.9-3-3.8-5.4c0.3-0.2,0.2-0.7-0.2-0.7c-0.9,0.1-1.6,0.5-2.1,1.1c-0.1-0.3-0.3-0.5-0.5-0.7c0,0,0,0,0,0
		C1043.2,413.9,1044.4,413.6,1045.3,413z M1055.5,406.6c0.2-0.2,0.3-0.5,0.4-0.8c0.1,0.3,0.3,0.6,0.5,0.8
		C1056.1,406.6,1055.8,406.6,1055.5,406.6z M1053.2,399.4C1053.2,399.4,1053.1,399.4,1053.2,399.4
		C1053.1,399.4,1053.1,399.4,1053.2,399.4C1053.2,399.4,1053.2,399.4,1053.2,399.4z M1051.8,400.6c0.6,0.1,1.2,0.5,1.7,1.2
		c0.9,1.1,1.4,2.9,0.6,4.2c-0.8,1.4-2.8,1.5-4,0.6c-0.6-1-0.9-2.2-1.3-3.3c0-0.4,0.1-0.8,0.2-1.3
		C1050.1,401.7,1051.1,401.1,1051.8,400.6z M1045,395.8c0.1,0,0.3,0,0.4,0c0.1,0,0.1,0,0.1,0c-0.2,0.2-0.4,0.4-0.5,0.6
		C1045.1,396.2,1045.1,396,1045,395.8z M1039.6,388.3c-0.2-0.5-0.5-1.1-0.9-1.5c0.4,0.5,1,0.9,1.5,1.1
		C1040.1,388,1039.9,388.1,1039.6,388.3z M1041.9,375.5L1041.9,375.5C1041.9,375.5,1041.9,375.5,1041.9,375.5
		C1041.9,375.5,1041.9,375.5,1041.9,375.5z M1040.8,375c0.2,0.2,0.5,0.3,0.8,0.4c-0.3-0.1-0.7-0.2-1-0.1
		C1040.7,375.2,1040.7,375.1,1040.8,375z M1039.4,376.5c0.6,0.3,1.3,0.1,1.8,0.4c0.6,0.3,0.1,1.5-0.1,1.9c0,0.1-0.1,0.2-0.1,0.2
		c-0.3,0.2-0.6,0.4-0.8,0.8c-0.1,0.1-0.1,0.2-0.1,0.4c-0.8,0.7-2,0.9-3.1,0.8c-2.3-0.2-2.2-3.8,0.1-4.1c0.1,0,0.2-0.1,0.2-0.2
		c0.7-0.1,1.3-0.3,1.9-0.6C1039.2,376.3,1039.2,376.5,1039.4,376.5z M1034.9,376.7c-0.4,0.3-0.7,0.7-0.9,1.1c0.1-0.5,0.1-0.9,0-1.3
		c0.1-0.1,0.1-0.3,0.2-0.4c0.3,0.2,0.6,0.3,1,0.4C1035.1,376.6,1035,376.6,1034.9,376.7z M1025.6,364.7c-0.7,1.4-3.1,2.1-4,0.6
		c-1-1.6,0-3.4,1.2-4.5c0.2-0.2,0.1-0.4,0-0.5c0.6,0,1.1,0.1,1.7,0.7C1025.5,361.8,1026.3,363.4,1025.6,364.7z M1024.1,376.8
		c0-0.1,0-0.1-0.1-0.1c0.2,0,0.4,0,0.6,0c0.1,0,0.2,0,0.3,0c-0.4,0.9-0.6,1.9-0.3,2.8c-0.1,0-0.2,0-0.3,0
		C1024.4,378.6,1024.4,377.8,1024.1,376.8z M1026.2,388.9c0.1,0.1,0.2,0.2,0.3,0.3c-0.2,0.1-0.5,0.2-0.7,0.3
		C1025.9,389.2,1026,389,1026.2,388.9z M1030.2,395.9c0.3,0.5,0.7,0.8,1.2,1.1c0,0.2,0,0.3,0,0.5c-0.4-0.6-0.9-1-1.4-1
		C1030,396.2,1030.1,396.1,1030.2,395.9z M1043.6,423.4c0.2,0,0.4,0.1,0.6,0.1c-0.3,0-0.6,0-0.9,0
		C1043.5,423.5,1043.6,423.4,1043.6,423.4z M1048,424.4c0.1,0,0.2-0.1,0.3-0.1c0,0.4,0.2,0.7,0.3,1.1c-0.5-0.5-1-0.8-1.6-1.1
		C1047.4,424.3,1047.7,424.4,1048,424.4z M1050.4,427.4c0.2,0.1,0.3,0.2,0.5,0.3c-0.1,0.1-0.1,0.2-0.2,0.3
		C1050.6,427.8,1050.5,427.6,1050.4,427.4z M1057.5,421.7c0.3,0.3,0.7,0.6,1.1,0.8c-0.1,0.1-0.2,0.1-0.3,0.2c-0.3,0-0.5,0.3-0.2,0.5
		c0,0-0.1,0-0.1,0.1c-0.1,0.1-0.2,0.3-0.2,0.4C1057.9,423,1057.8,422.3,1057.5,421.7z M1055.6,402.3c-0.1-0.1-0.1-0.3-0.2-0.4
		c0.2,0,0.4-0.1,0.6-0.2c0,0,0.1,0.1,0.1,0.1C1055.9,401.9,1055.7,402.1,1055.6,402.3z M1045.6,386.1c0.3-0.4,0.5-0.8,0.6-1.2
		c0,0.1,0,0.2,0,0.3c0,0.2,0.1,0.4,0.3,0.5C1046.2,385.9,1045.9,386,1045.6,386.1z M1041.6,372.8c0-0.1,0-0.2,0-0.3
		c0,0.1,0.1,0.2,0.1,0.3C1041.6,372.9,1041.6,372.8,1041.6,372.8z M1033.4,371.5c-0.1-0.2-0.1-0.3-0.2-0.5c0.4,0.1,0.8,0.2,1.3,0.2
		C1034,371.2,1033.7,371.3,1033.4,371.5z M1030.1,364C1030.1,364,1030.1,364,1030.1,364C1030.1,364,1030.1,364.1,1030.1,364
		C1030.1,364,1030.1,364,1030.1,364z M1028.5,357.1c0.1,0.1,0.2,0.3,0.4,0.3c-0.1,0-0.2,0.1-0.3,0.2
		C1028.6,357.4,1028.6,357.2,1028.5,357.1z M1028.7,352c0.6,0.3,0.5,1.4,0.3,1.9c-0.2,0.8-0.9,1.3-1.7,1.5c-1,0.2-1.7-0.8-2.1-1.6
		c-0.2-0.5-0.2-0.9-0.2-1.3c0.1,0.3,0.4,0.5,0.8,0.4C1026.6,352.7,1028,351.6,1028.7,352z M1023.9,358.8c-0.1,0-0.1,0-0.2-0.1
		c0.1-0.1,0.1-0.2,0.2-0.3C1023.9,358.5,1023.9,358.6,1023.9,358.8z M1017.7,364.8c0,0.2,0.1,0.4,0.2,0.6c-0.2-0.1-0.5-0.2-0.7-0.3
		c0.2-0.1,0.3-0.3,0.5-0.5C1017.7,364.7,1017.7,364.7,1017.7,364.8z M1019,391.7c-0.2,0.1-0.4,0.2-0.6,0.4c0-0.2-0.1-0.3-0.1-0.5
		C1018.6,391.6,1018.8,391.7,1019,391.7z M1019.6,400.6c0.1-0.1,0.2-0.3,0.3-0.4c0.1-0.1,0.2-0.3,0-0.4c-0.2-0.1-0.4-0.2-0.6-0.3
		c0-0.2-0.1-0.3-0.1-0.5c2.5,1.2,6.2,0.4,8.4-0.7c0.3-0.2,0.7-0.4,1-0.6c0.1,0,0.1,0.1,0.2,0.1c1.4,0.1,1.8,0.7,1.8,2.1
		c0,2.4-2.4,3.2-4.3,3.6c-1.3,0.3-2.7,0.5-4.1,0.5c-0.8,0-1.5-0.3-2-0.9C1020,402.4,1019.8,401.5,1019.6,400.6z M1022.8,412.2
		c0.2,0.1,0.3,0.3,0.5,0.5c0,0-0.1,0-0.1,0.1c-0.1,0-0.3,0.1-0.4,0.1C1022.8,412.7,1022.8,412.5,1022.8,412.2z M1029.3,419.9
		c-0.1,0-0.2,0.1-0.3,0.2c-0.1-0.1-0.2-0.2-0.2-0.3c0.3,0,0.5,0.1,0.8,0.1c-0.1,0-0.1,0-0.2,0
		C1029.4,419.9,1029.4,419.9,1029.3,419.9z M1030.2,419.9c-0.1,0-0.1,0-0.2,0c0.4,0,0.8,0,1.2-0.1c-0.1,0.1-0.1,0.3-0.2,0.4
		c0,0,0,0,0,0C1030.8,419.9,1030.5,419.8,1030.2,419.9z M1037.1,414.8c0.3,0.4,0.6,0.8,1.1,1c-0.4-0.1-0.8-0.2-1.3-0.3
		C1037,415.3,1037.1,415.1,1037.1,414.8z M1040.1,416.6c0.1,0.1,0.2,0.2,0.3,0.3c0,0,0,0.1,0,0.1c-0.3-0.2-0.6-0.5-1-0.7
		C1039.6,416.4,1039.8,416.5,1040.1,416.6z M1040.9,423.3c0.2,0.1,0.4,0.1,0.6,0c0.1,0.1,0.2,0.2,0.3,0.2c0.1,0,0.1,0,0.2,0.1
		c-0.5,0.1-1,0.2-1.6,0.4C1040.6,423.8,1040.7,423.6,1040.9,423.3z M1038.1,439.9c3.9-1.9,10.5-4.5,14.1-0.8
		c3.1,3.2,1.8,8.9-0.7,12.1c-1.3,0-2.7,0.3-4.1,0.9c-3.5,1.5-7.2,3.3-10.5,5.1c-3.6-0.9-7.7-6.4-6.8-9.9
		C1031.1,443.4,1034.7,441.5,1038.1,439.9z M1053.3,451.4c0.5-0.6,0.9-1.3,1.2-2c0.1,0.3,0.2,0.7,0.3,1c0.2,0.7,0.5,1.3,0.9,1.8
		C1054.9,451.8,1054.1,451.5,1053.3,451.4z M1060,453.5c-0.5,1.2-0.5,2.6-0.2,4c-0.2-0.5-0.4-1-0.6-1.5c-0.5-1-1.1-1.8-1.8-2.5
		C1058.2,453.8,1059,453.8,1060,453.5z M1055.2,441.7c0.2,0.1,0.3,0.3,0.5,0.3c0.2,0.2,0.6,0.2,0.8,0c0.1-0.1,0.1-0.1,0.2-0.2
		c0.1,0,0.2-0.1,0.3-0.2c-0.6,0.5-1.1,1.1-1.5,1.7C1055.5,442.8,1055.4,442.3,1055.2,441.7z M1057.6,440.2c0.8-0.1,1.5-0.3,2.2-0.6
		c-0.9,0.5-1.7,1.1-2.5,1.7C1057.6,441.1,1057.7,440.7,1057.6,440.2z M1051.6,433c0-0.2,0-0.3,0-0.5c0-0.7,0.4-1.3,0.7-1.9
		c0.1-0.1,0.1-0.2,0.2-0.4c0,0.1-0.1,0.2-0.1,0.2C1052,431.3,1051.8,432.2,1051.6,433z M1052.9,429.4c0-0.1,0-0.1,0-0.1c0,0,0,0,0,0
		c0,0,0,0,0,0c0-0.1,0-0.1,0,0c0,0,0.1,0,0.1-0.1l0.1-0.1c0.3-0.3,0.4-0.7,0.3-1c0.2,0,0.4-0.1,0.7-0.1c-0.5,0.5-1,1.1-1.3,1.7
		C1052.9,429.5,1052.9,429.4,1052.9,429.4z M1057.8,423.9c0,0.1,0,0.3,0.1,0.4c0.1,0.2,0.2,0.4,0.3,0.6c-0.3,0.1-0.6,0.3-0.9,0.5
		C1057.6,424.9,1057.8,424.4,1057.8,423.9z M1060.4,423.3c0.4,0.1,0.9,0.2,1.3,0.3c-0.4,0.1-0.8,0.2-1.1,0.4
		C1060.5,423.7,1060.5,423.5,1060.4,423.3z M1050.9,391.3c0-0.1,0-0.2,0.1-0.3c0.1,0.1,0.2,0.2,0.3,0.2
		C1051.1,391.3,1051,391.3,1050.9,391.3z M1049.6,386.2c-0.5-0.4-1.1-0.6-1.7-0.7c-0.1,0-0.1,0-0.2,0c0,0,0,0,0-0.1
		c0.1-0.2,0.1-0.4,0.2-0.6c0.5,0.5,1.1,0.8,1.8,0.8C1049.6,385.9,1049.6,386,1049.6,386.2z M1041.4,371.8c0-0.1-0.1-0.2-0.1-0.3
		c0-0.1,0-0.2,0.1-0.2C1041.3,371.5,1041.4,371.7,1041.4,371.8z M1038,365.8c0,0.1-0.1,0.2-0.1,0.3c-0.3,0.9-0.3,1.4,0,2.1
		c-0.1,0.2-0.2,0.3-0.4,0.5c-0.8,0-1.5,0.3-2.1,1c-0.7,0.1-1.4,0.1-1.9-0.1c-1.1-0.4-2-1.2-2.5-2.3c-0.4-0.7-0.9-2-0.2-2.6
		c-0.3,0.6,0.5,1.1,1.1,0.7c1.4-1,2.5-1.8,4.3-1.3C1036.9,364.4,1037.6,365,1038,365.8z M1032.3,361.6c-2.7,2.8-4.7-3.4-1.9-3.6
		c0.3,0,0.4-0.5,0.2-0.6c0.8-0.1,1.6-0.2,2.2,0.8C1033.3,359.3,1033.2,360.7,1032.3,361.6z M1025.4,351.4
		C1025.4,351.4,1025.4,351.4,1025.4,351.4c0.1-0.2,0.2-0.4,0.3-0.6c0.2-0.3-0.1-0.6-0.4-0.6c0-0.3-0.1-0.6-0.2-0.9
		c0.3,0.6,0.9,1.1,1.5,1.4C1026.2,350.9,1025.8,351.2,1025.4,351.4z M1024.9,348.8c-0.2-0.4-0.5-0.8-0.9-1.2c0.4-0.1,0.7-0.3,1-0.5
		C1024.7,347.6,1024.7,348.2,1024.9,348.8z M1016.1,349.1c-0.1-0.1-0.1-0.2-0.2-0.2c0.1-0.1,0.2-0.2,0.4-0.2
		C1016.2,348.8,1016.2,348.9,1016.1,349.1z M1022.3,354.8c1.3,1.4,0.9,2.9-0.2,3.8c-0.6,0.1-1.2,0.4-1.7,0.9c0,0,0,0-0.1,0
		c-2.2,0.6-3.1-1.4-3.2-3.4c0.3-0.4,0.5-1,0.5-1.6c0,0,0,0,0,0C1019.5,354.2,1020.9,353.2,1022.3,354.8z M1016.6,357.7
		c-0.3-0.2-0.7-0.4-1-0.5c0.3-0.1,0.6-0.3,0.9-0.5C1016.5,357.1,1016.5,357.4,1016.6,357.7z M1014.3,358.5c1.5,0.3,3.1,1.4,3.2,3.1
		c0.1,2.3-2.7,3.8-4.7,3.2c-1.4-0.4-1.9-2-2-3.6c0.1-0.2,0-0.5,0-0.7c0-0.3,0-0.5,0-0.8C1011.8,358.8,1012.7,358.1,1014.3,358.5z
		 M1010.9,365c0.2,0.2,0.4,0.5,0.7,0.7c-0.3,0.1-0.6,0.3-0.8,0.6C1010.9,365.8,1010.9,365.4,1010.9,365z M1021.6,417.9
		C1021.5,417.9,1021.5,417.9,1021.6,417.9C1021.5,417.9,1021.5,417.9,1021.6,417.9C1021.5,417.9,1021.5,417.9,1021.6,417.9z
		 M1030.7,425.7c0.1-0.8-0.1-1.7-0.3-2.7c0.8-1,1.5-2.4,2.3-3.6c1.3-0.4,2.5-1.2,3.3-2.3c0,0,0.1,0,0.1,0c2.4-0.1,4.4,1.7,3.9,4
		c-0.3,1.6-1.5,3-2.6,4.1c-2.9,1.3-5.6,3-7.6,5.3C1030.4,428.9,1030.6,427.2,1030.7,425.7z M1038.1,473.5c-1.1,1.2-1.8,2.7-1.6,4.6
		c0.4,3.5,3.7,6.3,7.3,6.3c-0.7,0.7-1.3,1.7-1.6,2.8c-1.3-3.3-3.9-5.9-6.9-5.8c1.4-2.5,1.4-5.5,0.7-8.5
		C1036.6,473.1,1037.3,473.4,1038.1,473.5z M1047.5,497.5c-0.3,0.4-0.5,0.9-0.7,1.4c-0.8-1.8-2.3-3.1-4.2-3.1
		c0.3-0.7,0.4-1.4,0.5-2.1C1044.1,495.8,1045.7,497.9,1047.5,497.5z M1052.7,510.5c-0.4,0.6-0.8,1.3-1.1,2c-1.1-2.2-3.3-3.7-6.1-4.6
		c0.5-0.6,0.8-1.3,1.2-2C1047.7,508.4,1049.8,510.1,1052.7,510.5z M1057.8,523.7c-0.8,0.9-1.4,1.8-1.7,2.9c-1.3-2.3-3.3-4-5.9-4.2
		c0.8-1,1.4-2,1.7-3.2C1053.1,521.7,1055.4,524,1057.8,523.7z M1062.7,550.7c-0.7-0.4-1.3-0.8-1.9-1.3c0.3-0.4,0.6-0.9,0.8-1.3
		C1061.9,548.8,1062.2,549.7,1062.7,550.7z M1067.9,555c-0.4,0.5-0.6,1.1-0.8,1.8c-0.3-0.7-0.5-1.5-0.9-2.2
		C1066.8,554.9,1067.3,555.1,1067.9,555z M1075.2,567.6c-1,1.2-1.7,2.5-2,4c-0.7-3.4-3.7-7-7.2-7.6c0.1-0.1,0.1-0.1,0.2-0.2
		c0.6-0.8,1-1.7,1.2-2.6C1068.6,564.1,1072,567.3,1075.2,567.6z M1092.5,543.6c-4.5-0.3-9.9,2.6-13.1,4.3c-3.1,1.6-8,3.2-10.7,6
		c-1.6,0.1-3.3-2.7-3.9-3.7c-1.5-2.2-1.8-4.2-0.9-6.7c1.7-4.9,6.9-7.5,11.3-9.4c4.2-1.8,9.4-3.2,13.7-0.9
		C1091.8,534.8,1095.2,540.7,1092.5,543.6z M1074.3,491c-1.5-1.2-3-1.9-4.5-2.2c1.2-1.2,2.2-2.6,2.2-4.3c0.3,0.6,0.6,1.2,0.9,1.7
		c0.8,1.4,2.3,2.2,3.9,1.9c0.3-0.1,0.6-0.1,0.8-0.2c-1,1.6-1.1,4.1-0.9,6.4C1076.2,493.1,1075.4,491.9,1074.3,491z M1072.8,432
		c0.4-0.3,0.7-0.7,0.9-1c0.1,0.5,0.2,0.9,0.5,1.1C1073.7,432,1073.3,432,1072.8,432z M1068.3,433c-3.4,2-6.5,4.4-10.4,5.2
		c-3.8,0.7-4.6-2.5-3.8-5.8c0.6-2.6,2.8-4.1,5-5.3c2.7-1.4,5.9-2.6,8.9-3.5c2.2-0.2,3.4,1,4.7,2.9
		C1074.6,429.6,1070.4,431.7,1068.3,433z M1069.6,422.7c-0.1-0.1-0.1-0.1-0.2-0.1c-0.2,0-0.4,0-0.6,0c0.2-0.3,0.2-0.8-0.2-1.2
		c0,0,0-0.1-0.1-0.1c-0.1-0.4-0.4-0.7-0.7-0.7c0.1-0.2,0.1-0.5,0.2-0.7c0-0.2,0-0.5,0-0.7c0-0.1,0.1-0.1,0.1-0.2
		c0-0.1,0.1-0.2,0.1-0.3c0.1,0,0.2,0,0.3-0.1c-0.3,1.4,0.2,3.1,1.5,4.2C1069.8,422.7,1069.7,422.7,1069.6,422.7z M1063.4,409
		c0.3-0.1,0.5-0.1,0.7-0.2c-0.2,0.3-0.3,0.7-0.4,1.1C1063.7,409.6,1063.6,409.4,1063.4,409C1063.5,409.1,1063.5,409.1,1063.4,409z
		 M1059.4,403.9c-0.2-0.2-0.3-0.4-0.5-0.6c0.2,0,0.4,0,0.6,0C1059.4,403.5,1059.4,403.7,1059.4,403.9z M1054.8,396.2
		c0.1-0.7,0.1-1.5-0.1-2.2c0.3,0.6,0.7,1,1.3,1.4C1055.6,395.5,1055.2,395.8,1054.8,396.2z M1045.1,376.5c-0.4-0.6-0.6-1.9-0.3-2.8
		c0.3,0.1,0.6,0.1,0.8-0.1c0.3-0.2,0.5-0.3,0.6-0.3c0.2,0.1,0.5,0.4,0.7,0.7c0.5,0.8,0.7,1.8,0.4,2.6
		C1047,377.7,1045.5,377.3,1045.1,376.5z M1041.6,369.5c-0.1-0.2-0.2-0.4-0.4-0.5c0,0,0,0,0,0c0,0,0,0.1,0.1,0.1
		c0.1,0.1,0.2,0.1,0.4,0.1C1041.7,369.3,1041.6,369.4,1041.6,369.5z M1040.8,367.8c-0.2,0.1-0.5,0-0.8-0.1c-0.2-0.6-0.2-1.2-0.2-1.7
		c0.1-0.6,0.5-1.1,0.6-1.7c0.3,0.1,0.6,0.2,0.9,0.5c0.4,0.4,0.4,0.9,0.4,1.4C1041.6,366.8,1041.2,367.7,1040.8,367.8z M1035.7,362.7
		c-0.5-0.1-1.1-0.2-1.6-0.1c0.7-0.9,1-2,0.9-3.1c0.1,0.1,0.3,0,0.4,0C1035.1,360.6,1035.1,361.8,1035.7,362.7z M1034.7,356.4
		c-0.1-0.1-0.2-0.1-0.2-0.2c0.2,0,0.3,0,0.5-0.1C1034.8,356.2,1034.8,356.3,1034.7,356.4z M1032.7,353.9c-0.3-0.5-0.9-2.5,0.3-2.3
		c0.1,0,0.3-0.1,0.2-0.2c-0.4-0.8-0.9-0.7-1.3-0.3c0-0.2,0-0.3,0-0.5c1.1-0.1,2-0.5,3,0.5c0.7,0.7,1,1.8,0.6,2.7
		C1035.2,355,1033.3,354.8,1032.7,353.9z M1022.1,346.1c-0.1-0.1-0.3-0.2-0.4-0.2c-0.2-0.1-0.5-0.2-0.7-0.3
		c-0.8-0.5-1.7-1.4-2.1-2.3c1.9,0.2,3.4-1.4,5.1,0.2C1025.7,345.1,1023.7,346.4,1022.1,346.1z M1016.1,350.4c0.2,1,0.8,1.9,2,2.6
		c-0.1,0.1-0.2,0.1-0.4,0.2c0-0.1-0.2-0.2-0.3-0.1c-0.4-0.9-1.2-1.8-2-2.4C1015.7,350.6,1015.9,350.5,1016.1,350.4z M1005.4,362
		c0.1,0,0.2,0.1,0.3,0c0.7-0.1,1.1-0.7,1.9-0.4c0.7,0.3,1.2,1,1.6,1.7c0.9,1.6,0.5,3.7-1.4,4.4
		C1005.3,368.6,1003.7,363.7,1005.4,362z M1010.3,367.3c0,0.1,0,0.1,0,0.2c0,0-0.1,0-0.1-0.1
		C1010.2,367.4,1010.3,367.4,1010.3,367.3z M1012.1,374.2c-0.2-0.1-0.4-0.2-0.6-0.3c-0.1,0-0.2,0-0.3-0.1c0.1-0.2,0.3-0.4,0.4-0.7
		C1011.8,373.5,1011.9,373.8,1012.1,374.2z M1013.2,381.5c-0.2-0.1-0.3-0.2-0.5-0.3c0.1-0.1,0.2-0.2,0.3-0.3
		C1013.1,381.1,1013.1,381.3,1013.2,381.5z M1014.9,388.1c0,0-0.1-0.1-0.2-0.1c0-0.1,0.1-0.1,0.1-0.2
		C1014.9,388,1014.9,388.1,1014.9,388.1z M1016.8,395.8c0,0.2,0.1,0.5,0.2,0.7c0,0.2,0,0.5,0.1,0.7c-0.2-0.2-0.5-0.4-0.7-0.6
		C1016.5,396.4,1016.7,396.1,1016.8,395.8z M1019.7,408.8C1019.7,408.8,1019.7,408.9,1019.7,408.8
		C1019.7,408.9,1019.7,408.9,1019.7,408.8C1019.7,408.9,1019.7,408.8,1019.7,408.8z M1024.4,419.1c0.1,0,0.2-0.1,0.2-0.2
		c3.2,0.1,4.4,5.7,4.1,8.3c-0.3,2.4-1.1,4.9-2.3,7c-1.4,2.4-3.8,2.4-6.2,2.2c-2.6-0.2-6-1.1-6.1-4.4c0-1.8,0.8-3.6,0.9-5.4
		C1015.4,420.9,1019.8,420,1024.4,419.1z M1021,438.1c1.2,0.1,2.3-0.1,3.2-0.4c1.1,1.4,2,2.6,2.4,4.5c0.4,1.9,0.1,4.1-0.1,6
		c-0.2,1.4-0.7,2.6-1.5,3.5c0,0,0,0,0,0c-0.6-0.2-1,0.3-0.9,0.8c-0.5,0.4-1.1,0.7-1.9,0.9c-2.2,0.6-4.7,0.3-5.9-1.9
		c-1.7-3.4-2.9-11,0.4-14.1C1018.1,437.8,1019.6,438,1021,438.1z M1018.5,455.1c2.5,0.6,5,0,6.8-1.5c1.6,1.2,2.6,2.2,3.3,4.3
		c0.6,1.9,1.2,3.7,1.1,5.7c-0.2,4.6-5.6,6.2-9.3,6C1014.4,469.5,1015,458.2,1018.5,455.1z M1020.1,471.4c3.8,0.3,7.8-1,9.8-4.1
		c0.1,0,0.1,0,0.2,0c0.6-0.1,1.2,0.1,1.7,0.5c0.4,1.3,1.2,2.5,2.2,3.5c0.4,1.1,0.7,2.1,0.9,2.8c0.9,3.2,0.2,5.9-1.8,7.7
		c-0.1,0.1-0.2,0.1-0.2,0.2c-0.8,0.7-1.8,1.3-3,1.6c-1.9,0.6-4.2,0.5-6.1,0.1c-2.4-0.5-2.8-3.2-2.9-5.3
		C1020.6,476.4,1021,473.5,1020.1,471.4z M1023.8,486.3c3.2,0.4,7.2-0.8,9.1-2.3c0.2-0.2,0.4-0.3,0.6-0.5c0.1,0,0.2,0,0.3,0
		c3.2-0.9,5.5,2.3,6.6,4.8c2,4.6,0.8,9-4.3,10.4c-3.6,1-9.3,1-11.6-2.3C1022.6,493.7,1021.9,489,1023.8,486.3z M1037.6,500.3
		c2-0.5,3.4-1.7,4.3-3.1c3.2,0.2,4.3,5,3.4,7.5c-1,2.9-4.2,5.2-6.6,6.7c-3.2,1.9-7.6,3.5-9.8-0.5c-1-1.8-1.3-4.2-1.8-6.1
		c-0.6-2.2,1-2.9,2.5-3.7C1032.3,501.3,1035.3,500.9,1037.6,500.3z M1038,513.9c2.1-1,4.5-2.6,6.4-4.6c3.7,1.3,6.5,3.2,6.2,7.7
		c-0.2,3.5-3.5,6.2-6.2,7.8c-0.3,0.2-0.6,0.3-0.9,0.5c-0.8,0.2-1.5,0.5-2.2,0.8c-2.8,0.8-5.8,0.4-7.5-2.4c-2-3.3-0.8-6,0.9-8.7
		C1035.8,514.8,1036.9,514.4,1038,513.9z M1042.8,527.5c2-0.8,4.2-2,6-3.6c0.1,0,0.2,0.1,0.3,0.1c3,0.1,5.8,2.9,6.8,6
		c0.1,0.5,0.2,1,0.3,1.6c0.1,1.2-0.1,2.5-0.7,3.5c-1.6,2.7-7.2,4.5-10.1,5.2c-5.5,1.4-6.9-4.2-7-8.4c0-2,1.2-3.1,2.7-3.9
		C1041.6,527.9,1042.2,527.7,1042.8,527.5z M1044.6,542.4c0.3,0,0.7-0.1,1.1-0.1c2.4-0.4,5.9-1.6,8.6-3.5c0,0,0.1,0,0.1,0.1
		c3.6,0.7,7.2,3.1,6.3,7.3c-0.6,2.9-4.3,4.9-6.7,6.1c-3.2,1.6-8.2,3.3-9.6-1.2c-0.9-2.9-1.5-5.5,0.2-8.3
		C1044.6,542.5,1044.6,542.5,1044.6,542.4z M1048.4,555.8c2.1-0.2,4.2-0.9,5.7-1.6c2-0.8,4-2,5.6-3.6c0.7,0.6,1.5,1,2.4,1.5
		c3.1,1.6,4.7,7,3.3,10.1c-0.3,0.7-0.8,1.3-1.4,1.8c-0.2,0.1-0.3,0.2-0.4,0.4c-2.7,2.4-7.2,3.6-10.2,4.3c-5,1.1-9.5-10.4-5.2-12.7
		C1048.3,555.9,1048.3,555.8,1048.4,555.8z M1053.9,570.8c3.6-0.4,7.7-2.6,10.5-5.1c3.9,0,7.1,4.3,7,8.1c0,3.9-3.8,7.3-6.9,9.2
		c-3.8,2.2-7.6,2-10.2-1.8c-1.9-2.9-2.8-7.4-0.6-10.3C1053.8,570.9,1053.8,570.8,1053.9,570.8z M1073.1,575.3
		c0.2,1.6,0.8,3.2,1.6,4.9c0,0.1,0.1,0.2,0.1,0.2c-1-0.6-2.2-1.1-3.4-1.4C1072.3,577.8,1072.8,576.6,1073.1,575.3z M1058.3,586.4
		c2.1,0.3,4.3-0.2,6.4-1.2c2.1-1,4.2-2.6,5.8-4.6c5.4,1.5,9.4,6,6.4,11.7c-1.6,3.2-5.3,5.1-8.6,6.1c-3.8,1.1-6.8,0.6-8.9-2.9
		C1057.9,592.8,1057,589.2,1058.3,586.4z M1082.2,628.7c2.7-0.8,5-1.9,6.8-3.5c4.2,1.7,9.5,6.3,5.3,10.6c-2.2,2.2-5.6,3.5-8.5,4.4
		c-2.4,0.8-5.1,1.4-7.6,1.3c-3-0.1-4.7-1.5-5.5-4.3c-0.6-2-0.9-5.6,0.9-7.2C1076.5,630.3,1079.9,629.4,1082.2,628.7z M1085.3,642.5
		c3.3-0.9,7.2-2.4,9.8-4.9c0.1,0.1,0.3,0.2,0.5,0.2c4.1,0.3,6.8,6.2,5.1,9.8c-1.4,2.9-4.7,4.9-7.4,6.3c-2.6,1.4-5.6,2.4-8.6,2.2
		c-5.7-0.5-7.8-7.4-7.1-12.4C1080.4,643.7,1083.4,643,1085.3,642.5z M1083.9,658c3.5,0.5,7.5-1.1,10.4-2.5c2.1-1,4.3-2.5,6-4.3
		c2.6,3.3,7.9,4.9,7.6,9.7c-0.2,4.1-5.4,6.8-8.6,8.2c-3.1,1.4-10.5,4.1-12.5,0c-0.8-1.6-0.8-3.7-1.4-5.4
		C1085,662.8,1083.2,659.5,1083.9,658z M1090.7,673.2c1.5,0,3.2-0.2,4.9-0.7c3.7-1,7.7-2.7,10.6-5.4c0,0,0.1,0,0.1,0
		c4.1-0.4,11.1,5.6,7,9.7c-2.2,2.2-6.2,3.3-8.9,4.4c-3.7,1.6-7,2.8-10.8,0.9c-3.5-1.7-4.6-5.3-2.9-8.7
		C1090.7,673.3,1090.7,673.2,1090.7,673.2z M1094.4,684.5c3.5,1.1,7.3-0.1,10.9-1.6c2.1-0.8,6.1-2.1,8.6-4.2c0,0,0.1,0,0.1,0
		c5.8,1,7.2,7.5,4.4,11.8c-0.1,0.1-0.1,0.1-0.2,0.2c-0.1,0.2-0.3,0.4-0.4,0.6c-2.5,2.9-7,3.5-10.6,4.1c-2.9,0.5-8.1,2-10.4-0.2
		C1095.5,694,1092.7,686.3,1094.4,684.5z M1106.5,697.3c4.6-0.6,9.4-1.8,12.5-5.2c4.1,2.1,3.9,9.2,1.8,12.5c-2,3.2-6.7,3.9-10.1,4.6
		c-3.4,0.6-8.5,2.2-10.6-1.3c-1.8-2.9-3.6-7.1-1.2-10C1101.4,698.3,1104.2,697.7,1106.5,697.3z M1130.6,715.6c0-0.1,0-0.1,0-0.2
		c1,1,2.3,1.6,3.8,1.8c-1.5,0.3-2.9,0.9-4.2,1.9C1130.5,718.1,1130.7,716.9,1130.6,715.6z M1144.3,714.8c0,0,0.1-0.1,0.1-0.1
		c3.7-2.8,4.9-6.6,6.9-10.5c0.6-1.1,1.5-2.6,2.1-4.1c4,0.2,9.1-0.9,12.2,2.3c2.6,2.6,2.3,9.6,1.5,12.9
		C1164.2,727,1148.5,723.6,1144.3,714.8z M1168.2,717.6c0.4-0.9,0.7-1.8,0.9-2.8c0.6,0.9,1.4,1.7,2.4,2.4c-1.3,0.1-2.5,0.5-3.6,1
		C1168,718.1,1168.1,717.9,1168.2,717.6z M1182.6,693.7c0,0,0,0.1,0,0.1c-5.4,1.4-10,6.2-14.1,9.7c-0.2-0.5-0.4-1.1-0.7-1.6
		c-2.1-4.1-7.9-4.1-12.2-3.2c0.8-3.7,0.9-9.3,2.7-13.2c0.2,0,0.4-0.2,0.5-0.4c0.4-0.5,0.6-1,0.6-1.6c1.4-1.7,3.4-2.7,6.5-2.5
		c3.3,0.3,7.6,1.2,10.9,2.1C1180.5,684.3,1183.7,690.1,1182.6,693.7z M1187.2,655.9c-0.1,0.4,0,0.7,0.1,1.1
		c-0.8-0.6-1.5-1.1-2.3-1.4c0.7,0.1,1.5,0.1,2.4-0.1C1187.3,655.7,1187.2,655.8,1187.2,655.9z M1182.4,655.3
		c0.3-0.4,0.5-0.7,0.7-1.1c0.1,0.5,0.4,0.9,0.8,1.1C1183.4,655.2,1182.9,655.2,1182.4,655.3z M1180.8,654.6
		c-2.4,2.5-6.5,4.5-9.6,5.9c-4.3,2-8.9,5.6-13.7,5.7c-2.6,0-4.6-1.6-6.2-3.4c-1.4-1.7-3.2-7.1-0.3-8.6c3.4,0.2,6.6-2.1,9.5-3.6
		c4.1-2.2,11.7-3.9,15.4-8.1C1180.9,643.9,1185,650.4,1180.8,654.6z M1177.8,641.9c0,0.1,0,0.2,0.1,0.4c-0.5-0.2-1-0.4-1.5-0.6
		c0.6-0.9,1.1-1.9,1.3-3c0.2,0.3,0.5,0.5,0.8,0.7C1178.1,640.3,1177.7,641,1177.8,641.9z M1175.6,639.6c-2.1,3.9-8.1,6.3-11.9,7.8
		c-5.2,2-13.6,8.5-17.6,1.5c-1.7-3-2-7.9,0.1-10.8c2.1-0.6,4.2-1.5,5.8-2.2c4.8-1.9,8.9-5.1,13.6-7c1.3-0.5,2.6-1,3.6-1.7
		C1173.9,628.8,1178.1,634.9,1175.6,639.6z M1172.7,627.6c-0.8-0.6-1.6-1-2.5-1.2c0.7-0.7,1.2-1.5,1.4-2.6c0.3,0.5,0.9,0.7,1.6,0.8
		c-0.4,0.5-0.5,1.4-0.6,1.8C1172.6,626.8,1172.6,627.2,1172.7,627.6z M1118,587.2c-1.5-1-3.2-1.2-5.1-1.1c2.2-3,1.7-7.7,0.1-11.5
		c1.4,0.6,2.9,0.7,4.6,0.6C1113.8,577.9,1115.6,583.8,1118,587.2z M1106.6,560.1c0.9,0.4,1.8,0.5,2.8,0.5c-0.7,0.6-1.1,1.4-1.4,2.2
		c0,0,0,0,0,0C1107.7,561.8,1107.2,560.9,1106.6,560.1z M1102.8,555.8c0.3,0.9,0.7,1.6,1.1,2.2c-0.7-0.4-1.4-0.7-2.2-0.9
		c-0.9-0.3-1.9-0.4-2.9-0.3c1.8-3.4,0.9-8.4-1.8-11.1c-0.8-0.8-1.7-1.3-2.7-1.7c0.5-0.7,0.7-1.4,0.8-2.1c0,0.1,0,0.1,0.1,0.2
		c1.4,3.7,4.8,5,8.2,4.8C1101.5,548.6,1102.2,553.9,1102.8,555.8z M1109.4,492.1c-0.3-0.1-0.6-0.1-1-0.2c0-0.1,0.1-0.1,0.1-0.2
		C1108.8,491.9,1109.1,492,1109.4,492.1z M1086.6,464.1c0,0.1-0.1,0.1-0.1,0.2c-1.6,0.5-2.8,1.9-4.1,3c-1.8,1.5-4.3,2.5-6.5,3.5
		c-0.1,0-0.1,0.1-0.1,0.2c-4.1,1.5-10.2,2.2-10.3-4c0-1.7,1.4-3.6,3.3-5.2c0.6-0.3,1.2-0.6,1.8-1c2.7-1.8,5.1-3.8,8-5.4
		c0.7-0.4,1.4-0.9,2-1.3c3-1,6.6-0.6,7.7,2.9C1089.1,459.1,1087.8,462.1,1086.6,464.1z M1083.9,446.7c-0.9-2-3.8-2.7-6.3-2.8
		c0.8-0.8,1.4-1.6,1.9-2.7c1,3.3,3.4,3.7,6.1,2.7C1084.9,444.8,1084.3,445.7,1083.9,446.7z M1079.5,435.1c-0.5-0.9-1.3-1.5-2.3-2
		c0.7,0,1.4-0.1,2-0.2c0.7-0.1,1.4-0.4,2.1-0.6C1080.5,433,1079.9,434,1079.5,435.1z M1079.4,418.6c1.1,2-2.3,3-3.6,3.3
		c-1.6,0.3-3.3,0.3-4.7-0.5c-2.1-1.2-1.4-4.5,0.7-5.3c0.3-0.1,0.1-0.6-0.2-0.5c-1.5,0.3-2.4,1.1-2.9,2.1c-0.1-0.3-0.1-0.5-0.4-0.7
		c0.1,0,0.2-0.1,0.2-0.1c0.7-0.3,1-0.9,1.5-1.4c0.5,0,1-0.1,1.5-0.3C1074.5,414.7,1078.1,416.1,1079.4,418.6z M1071.6,411.1
		c0.2,0.5,0.2,1.2-0.1,1.7c-0.4,0.8-1.3,0.8-2,1.2c-0.4,0.3-0.5,0.7-0.3,1c-0.6,0.3-1.3,0.5-1.7,0.4c-1.6-0.4-2-2.7-2-4.1
		c0-1.8,1.4-3.8,3.3-3.2C1070,408.5,1071.1,409.8,1071.6,411.1z M1065.9,403c0.6,1-0.1,2.4-0.8,3.1c-0.6,0.6-1.5,0.9-2.2,1.4
		c-0.5-0.2-1-0.8-1.2-1c-0.6-0.7-1.1-1.9-0.5-2.7C1061.9,402.5,1065,401.7,1065.9,403z M1060.4,401.5c-2.8,2.5-6.1-4-3.6-4.4
		c0.1,0,0.1-0.2,0-0.2c-0.2,0-0.4,0-0.5,0C1058.4,395.7,1062.9,399.4,1060.4,401.5z M1056.4,388.6c1,0.6,1.7,1.7,2.2,2.8
		c0.5,1,0.8,3.4-1.2,3.1c-2.6-0.5-2.3-3.7-2.1-5.6c0-0.2-0.1-0.2-0.3-0.2c0,0,0-0.1,0-0.1C1055.5,388.3,1055.9,388.3,1056.4,388.6z
		 M1040.6,359.6c0.4,1.5-0.9,2.5-2.3,2.6c-0.9,0.1-1.8-0.3-2-1.3c-0.2-0.8,0.2-1.7,0.1-2.5c0-0.1,0-0.1-0.1-0.1c0,0,0-0.1,0-0.1
		c0.2-0.3,0.1-0.6-0.1-0.9c0.1,0,0.2-0.1,0.3-0.1c0.6-0.2,1.1-0.1,1.7,0.1C1039.3,357.6,1040.3,358.5,1040.6,359.6z M974.9,428.8
		c-1.1-4.5-1.7-9.1-2.4-13.7c1.5-9.6,2.6-19.3,3.9-29c0.7-5.1,1.1-10.1,1.1-15.2c0.1-5.5,1-10.9,0.7-16.4c0-0.4-0.6-0.4-0.6,0
		c0.2,5-0.9,9.9-1.2,14.9c-0.3,5.6-0.7,11.1-1.5,16.6c-1.1,7.6-3,15.4-3.4,23.2c-0.9-4.4-1.9-8.7-2.9-13c1-6.3,2.8-12.6,3.1-19
		c0.2-4.6,0.8-9.1,1.8-13.6c0.6-3,1.3-5.9,0.9-8.9c-0.1-0.4-0.7-0.3-0.7,0.1c-0.6,7.6-2.7,14.9-3.3,22.4c-0.4,5.1-1.9,10.2-2.6,15.3
		c-1.1-4.6-2.2-9.2-3.2-13.9c0.7-1.3,0.8-2.9,0.9-4.4c0.3-4.5,1.8-8.8,3-13.2c1.1-3.8,2-7.5,2.3-11.4c0.2-3.6,1.1-7.1,0.2-10.7
		c-0.1-0.4-0.6-0.3-0.6,0.1c0.6,7.3-1.5,14.6-3.4,21.5c-0.9,3.3-2.1,6.6-2.7,10c-0.4,1.9,0,4-0.2,6c-0.3-1.3-0.6-2.6-0.9-3.9
		c-0.4-2-0.8-4-1.2-5.9c0.1,0,0.3-0.1,0.3-0.3c0.8-5.3,2.3-10.4,3.3-15.6c0.8-4.3,0.6-8.8,1.4-13.1c0.1-0.4-0.6-0.6-0.8-0.1
		c-1.6,5-1.1,10.4-2.3,15.5c-0.9,3.9-2.3,7.8-2.3,11.9c-0.3-1.7-0.7-3.4-1-5.1c2.2-5.6,1.5-13,2.2-18.7c0.4-3.9,0.6-7.7,0.9-11.6
		c0.2-2.6,0.4-5.4-0.5-7.9c-0.1-0.4-0.6-0.1-0.6,0.2c0.8,6.1-0.5,13.1-1.3,19.2c-0.4,3.3-0.5,6.6-0.8,9.9c-0.1,1.7-0.4,3.4-0.6,5.1
		c-0.7-3.5-1.4-7-2.1-10.5c2.3-4.7,2.3-10.9,2.5-15.9c0-0.2-0.4-0.3-0.4-0.1c-1,4.7-1.5,9.4-2.5,14c-0.4-1.9-0.8-3.8-1.2-5.6
		c0.5-1.2,0.4-2.6,0.3-4c-0.2-3.1-0.1-6.2-0.3-9.2c-0.4-7.6-2.1-15-2-22.6c0-0.3-0.4-0.3-0.5,0c-0.8,6.2-0.5,12.2,0.2,18.4
		c0.4,3.4,0.4,6.9,0.9,10.3c0.2,1.5,0.6,3,0.7,4.6c0-0.1,0-0.1,0-0.2c-1.3-5.3-3-10.6-5.6-15.4c-1.8-3.2-3.7-5.6-3.9-9.4
		c-0.2-3,0.7-6.2,1.4-9.1c2.4-10.4,1-21.2,2.1-31.8c1.2-10.8,4.5-21.3,11.7-29.6c12.2-14.3,32.6-18.4,50.6-17.5
		c5.3,0.3,10.5,1.1,15.6,2.3c-7.6,1.3-15.6-1.1-23,1.5c-8.4,3-16,11.1-20.7,18.4c-5.3,8.4-4.8,16.9-1.9,26.1
		c3.7,11.8,6.2,23.6,7.8,35.8c0.8,6.2,1,12,0.6,18.2c-0.4,5.9,0.3,11.8-0.1,17.7c-0.3,5.2-1.6,10.2-2.5,15.3c-1,5.9-1.2,12-2.4,17.9
		c-2.1,10.8-5.5,21.2-7.6,32c-1.7,8.5-1.8,17.2-1.5,25.9C975.6,431.9,975.2,430.4,974.9,428.8z M1106.3,734.3
		c-1.3,0.9-2.4,1.9-3.7,2.7c-0.1,0-0.1,0.1-0.2,0.2c-4.7,1.5-9.5,2.6-14.2,4.4c-4.3,1.7-7.8,4.5-11.6,7c-11,7.2-19-6-22.8-14.7
		c-5-11.7-9.4-23.4-13.5-35.4c-1.9-5.5-4.5-10.7-6.1-16.3c-1.7-5.8-1.5-12.1-1.6-18.2c-0.1-12.6-2.5-24.9-2.8-37.5
		c-0.3-11.6-0.2-23.2-1.9-34.7c-1.8-12.5-6.7-23-13-33.8c-6.6-11.3-11.7-23.2-16.4-35.4c-4.8-12.3-10.3-24.6-13.2-37.5
		c-2.7-12-3.9-24.4-7.1-36.3c0-0.2-0.1-0.3-0.2-0.3c-0.1-1.2-0.2-2.4-0.3-3.6c0.1-0.1,0.1-0.2,0.1-0.3c0-1.1-0.1-2.1-0.3-3.1
		c-0.2-7.4,0-14.8,0.4-21.9c0.6-11.3,3.9-22.1,6.7-33c2.6-10.4,3.4-20.7,5.3-31.2c0.9-5.1,2-10.1,2.2-15.3c0.2-6-0.2-11.9,0.2-17.9
		c0.8-11.8-1.1-23.6-3.5-35.2c-0.2-0.7-0.3-1.5-0.5-2.2c0.3-0.1,0.5-0.3,0.5-0.6c0.2-8.5,1.9-16.8,5-24.7c1.6-4,3.5-7.8,6.3-11.1
		c3.8-4.5,9.8-5.6,15.3-6.7c20.3-3.9,39.5-13.7,58.8-20.9c-4.4,6-13.7,8.8-20.2,11.4c-9.8,3.9-19.9,8.3-29,13.5
		c-7.7,4.4-16.3,11.5-20.1,19.8c-3.6,7.8-3.2,16.5-3.8,24.9c-0.1,1.1,1.5,1.1,1.7,0.1c0.7-4.2,0.9-8.5,1.4-12.7c0.2,1.9,0,4,0,5.8
		c0.1,2.4,0.2,4.7,0.6,7.1c0.9,6.2,1.9,12.4,3.3,18.5c0,0.2,0.4,0.2,0.4,0c-0.4-6.3-1.3-12.6-2.2-18.8c-0.5-3.4-0.7-6.9-0.9-10.3
		c-0.1-1.4-0.1-2.5-1-3.6c0.6-4,1.5-7.9,3.6-11.5c-0.4,3.5-1.1,6.8-1.2,10.4c0,7.2,2.6,14.5,3.8,21.6c0,0.2,0.3,0.2,0.3,0
		c-0.2-8.1-2.5-16.1-2.5-24.2c0-1.5,1.4-7.4,0.5-9.2c0.8-1.3,1.8-2.6,2.8-3.8c-0.3,1.7-0.3,3.6-0.3,4.5c-0.1,7.5,0.9,15.1,2.3,22.5
		c0,0.1,0.2,0.1,0.2,0c-0.5-7-0.5-14-0.9-21c-0.2-2.7,0.8-5.6,0.7-8.2c0.8-0.8,1.6-1.6,2.4-2.4c-1.5,7.3-0.4,14.7,1.2,22
		c2.3,10.5,3.5,21.2,5.6,31.7c2.1,10.7,7,20.6,11.3,30.5c2.5,5.8,4.5,11.7,6.7,17.6c-0.3-0.3-0.7-0.5-1-0.7
		c-0.8-0.4-2.1-0.6-3.2-0.4c1.5-1.1,1.4-3.4,0.6-4.9c-0.9-1.6-3.5-2.8-5.2-1.6c0.6-1.4,0.5-2.8-0.8-3.9c-1.1-0.9-3.1-1.7-4.7-1.5
		c-1.3-3-4.7-2.9-7.3-1.8c0.1-0.2,0.4-0.4,0.8-0.6c0.2-0.1,0.2-0.3,0-0.3c-1.7-0.2-2.2,1.4-1.7,2.8c0.2,0.6,0.5,1.2,0.9,1.7
		c-0.1,0-0.1,0-0.2,0c-0.3,0.1-0.6,0.2-0.9,0.4c-0.3-3-6.1-4.6-6.7-1.4c-0.1,0.4,0.4,0.7,0.8,0.7c0,0,0.1,0,0.1,0
		c-0.2,0.3-0.4,0.6-0.4,1.1c-0.1,0.9,0.4,1.8,1,2.3c0.5,0.4,1.1,0.6,1.7,0.7c-0.1,0.1-0.1,0.2-0.1,0.3c-1.4-0.6-4.2-0.9-4,1.4
		c0,0.1,0.1,0.2,0.1,0.3c-0.1,0-0.3,0-0.4,0c-0.9,0.8-1.2,1.7-1.1,2.5c-0.5-0.2-1.1-0.2-1.6-0.2c0-0.1,0-0.3,0-0.4
		c0-0.1-0.2-0.2-0.3-0.1c-0.7,0.2-1.2,1.4-1.5,1.9c-0.6,1-1.1,2.1-1.2,3.2c-0.2,1.4,0.3,2.3,1.2,2.7c-0.1,0.1-0.1,0.2-0.1,0.3
		c0,0.1,0,0.1,0,0.2c-2.7,1.5-1.2,8.7,3.2,7.3c0,0,0,0,0.1,0c0,0,0.1,0,0.1,0c0.5,0,0.9-0.2,1.3,0.1c0.5,0.3,0.6,1,0.7,1.5
		c0.2,1.2-0.1,2.6-1.3,3.2c-2.6,1.2-4.5-2.4-3.4-4.5c0.1-0.1-0.1-0.3-0.2-0.2c-1.7,0.8-1.5,2.9-0.7,4.3c0.9,1.4,2.4,2.1,3.9,1.9
		c0.1,0.1,0.1,0.1,0.2,0.2c0.5,0.2,1.1,0,1.7,0c0.6,0,1,0.5,1.3,1c0.4,0.6,0.5,1.3,0.4,1.9c0,0,0,0,0,0.1c-0.1,0.7-0.3,1.3-0.8,1.8
		c-2.3,2.3-6.3-1.9-4.3-4.1c0.2-0.2,0.1-0.7-0.3-0.6c-2.1,0.4-1.5,3.2-0.7,4.5c1,1.7,3,2.7,4.8,2.1c1.1,1,2.4,1.7,2.7,3.4
		c0.2,0.8-0.2,1.5-0.8,2.1c-0.5,0-1,0.2-1.4,0.8c0,0,0,0,0,0.1c-0.6,0.2-1.2,0.4-1.7,0.4c-3.3,0-4.7-4.9-1.8-6.5
		c0.2-0.1,0.1-0.5-0.2-0.4c-4.4,1.4-3,6.6,0.4,8.1c-3.4,3.6,1.4,10.6,6.2,8.2c0.2-0.1,0.4-0.2,0.5-0.3c0.8,0.3,1.3,0.7,1.6,1.7
		c0.3,1,0.3,2.4-0.4,3.2c-0.9,1-2.9,1.3-4,0.6c-1-0.6-2.1-3.4-1-4.3c0.2-0.2,0-0.4-0.2-0.4c-2.2,0.3-1.4,3.8-0.6,5
		c1.4,2.1,4.2,1.8,6.1,0.8c0.3-0.2,0.6-0.4,0.8-0.7c0,0,0.1,0,0.1,0.1c0.4,0.4,0.5,1.1,0.6,1.7c0.2,1.5,0,3.3-0.8,4.5
		c-1,1.5-3.1,0.9-3.9-0.3c-0.9-1.4-0.6-2.9-1-4.4c-0.1-0.3-0.4-0.4-0.6-0.1c-1.2,1.7-0.4,4.6,0.8,6.1c0.2,0.3,0.5,0.5,0.8,0.7
		c0,0-0.1,0-0.1,0.1c-1.5,1.8-1.7,4.9,0.2,6.5c0.9,0.8,2,1.1,3.2,1.2c-2.5,1.5-3.4,3.6-3.5,6.6c-0.1,2.7-2.3,6.3-0.1,8.8
		c0.6,0.7,1.3,1.2,2.1,1.6c-4.4,3-2.7,15.8,1.6,17.8c-2.1,1.4-2.4,5.7-2.5,7.8c0,3.4,0.8,7.9,4.5,8.8c-1,4-1.2,9.9,1.2,13.2
		c0.6,0.8,1.4,1.3,2.3,1.6c-3,2-1.2,7.6,0,10.4c0.9,2.2,2.6,3.5,4.8,4.2c-3.1,1.7-1.7,6-0.6,9.9c1.1,3.7,3.6,4.9,6.5,4.8
		c-2.2,2.2-2.8,5.1-1.4,8.4c1.3,3,3.6,4.4,6.3,4.6c-1.4,1.4-1.5,3.2-1.4,5.3c0.2,4.6,2.2,8.2,6.2,8.8c-2.5,3-1,7.7,0.3,10.9
		c0.6,1.5,1.8,2.1,3.1,2.4c-3,2.6,0.1,14.6,5.3,15.2c0.1,0,0.3,0,0.4,0c-2.6,3.4-1.2,8.6,0.9,12c1.1,1.7,2.5,2.8,4.1,3.3
		c-1.9,3-0.8,7.2,0.6,10.2c2.2,4.7,6.5,5.2,11.1,4.1c2.5-0.6,4.8-1.8,6.7-3.4c0.1,0,0.2,0.1,0.3,0.1c4.4-0.7,8.5,2.1,9.5,6.4
		c0.4,1.8-0.1,3.1-1.1,4.2c-0.1,0.1-0.1,0.1-0.2,0.2c-1.7,1.8-4.6,2.9-6.6,3.8c-3.3,1.6-8.9,3.7-12,0.7c-2.3-2.2-3.6-9.1-0.7-11
		c0.2-0.1,0.1-0.5-0.1-0.4c-5,1-3.3,6.6-2,10.2c1.2,3.3,3.7,4.5,6.4,4.6c-3.7,2.2-2.1,7.2-0.8,10.7c0.8,2.1,2.3,3.1,4.2,3.5
		c-3.2,2.5-2.1,8.5-0.1,11.4c1,1.5,2.7,2.1,4.6,2.3c-2.4,3.7-0.1,10.5,3.1,13c0.8,0.6,1.6,1,2.5,1.3c-1.1,2.4,1.2,7.3,1.5,9.3
		c0.6,4,2.8,5.7,5.7,6c-2.5,3.1-1.7,6.7,1.2,9.4c0.7,0.7,1.5,1.2,2.3,1.6c-2.3,2.1,0.1,7.9,0.9,10.1c0.8,2.2,2.2,3.2,3.9,3.6
		c-3.9,2.4-1.7,6.6-0.2,10.3c1.1,2.7,3,3.7,5.1,3.9c-4.1,2.7-0.5,10,1.7,13c0.9,1.2,2.3,2,3.8,2.4c-0.2,1.6-0.3,4.3,0.6,5.7
		C1108.2,733.3,1107.2,733.7,1106.3,734.3z M1114.2,734.2c-1.1-0.7-2.3-1.1-3.6-1.2c-0.1-0.9-0.5-1.8-0.6-2.8
		c-0.1-0.9-0.1-1.8-0.2-2.7c3.9,0.6,8.6-0.7,11.7-1.5c2.4-0.7,4.5-1.7,6.2-3.1c-1.2,3.6-0.7,8.3,0.1,11.6
		C1123.2,736.6,1118.7,737.3,1114.2,734.2z M1129.6,733.7c-0.3,0.2-0.7,0.3-1,0.5c0.7-5.1-1.2-11.2,4-14.5c3.5-2.2,8.2,0.3,11.9-1.4
		c3.3,4.8,9.6,7.1,15.1,6c-2.2,2-4.2,4.3-5.6,6.7c-3.7-0.8-7.8-1.3-11.5-1.4C1137.8,729.5,1133.7,731.6,1129.6,733.7z M1168,737.3
		c-4.1-2.4-7.8-5-12.5-6.1c-0.1,0-0.1,0-0.2,0c2-3,4.9-5.9,8.1-8.4c0.7-0.4,1.3-0.8,1.9-1.4c2.4-1.6,4.9-2.8,7.3-3.5
		c4.1,2.5,9.8,3.4,13.9,2.9c1.4-0.2,2.7-0.6,4-1.3c-1.5,5.7,1.9,11.5,2.9,17c0,0,0,0.1,0,0.1c-0.3,0.3-0.5,0.5-0.7,0.8
		c-2.8,0.9-5.6,1.7-8.4,2.3C1178.4,741.2,1173.2,740.3,1168,737.3z M1211.6,696.7c0.2,4.4,0.8,8.3,2,12.6c1.4,5,3.5,11-0.6,15.2
		c-3.2,3.4-7.9,6.4-11.7,9c-1.7,1.1-3.5,2.1-5.4,2.9c3.1-2,6.5-4,7.9-7.3c2-4.7,2.5-10.3,3.1-15.3c1-8.8,0.1-17.7,3.6-25.7
		c0.1-0.1,0.2-0.3,0.2-0.4c0.1-0.1,0.1-0.3,0.2-0.4C1211.3,690.4,1211.4,693.6,1211.6,696.7z M1205.9,702.6
		c-2.6,0.6-5.4,2.6-8.1,2.4c-0.1,0-0.1,0-0.2,0c-2.1-4.9-7.5-12.2-13.5-11.4c0.6-1.9,0-4.3-1-6.3c2.2-5.3,6.4-12.7,13-11.2
		c3.3,0.7,8.2,3.3,10.3,6c0.2,0.3,0.6,0.2,0.8-0.1c0.7,1.7,1.4,3.4,2,5.1C1206.7,691.4,1206.1,697.3,1205.9,702.6z M1194.8,649.9
		c-0.5,0.3-1,0.8-1.5,1.2c-1.1,0.8-2.3,1.4-3.6,1.9c-2.2,1-4,1.3-6.2,0.6c0.2-0.4,0.3-0.7,0.5-1.1c1.1-3.5-1.1-6.9-4.1-9
		c0.1-0.5-0.1-1-0.2-1.5c-0.1-0.7,0.3-1.2,0.6-1.8c0-0.1,0-0.2,0-0.4c0.6,0,1.1,0,1.6-0.1c3-0.3,5.7-2.4,8.1-4c0,0,0,0,0,0
		c0.1,0.3,0.2,0.5,0.3,0.8C1191.6,641,1193.1,645.4,1194.8,649.9z M1189.4,634.5c-2.2,0.2-3.8,1.9-5.8,2.7c-0.9,0.4-1.8,0.6-2.8,0.8
		c-1.1,0.2-1.9-0.3-2.9-0.5c0.1-2.8-1.4-6.3-3.7-8.7c0-1-0.2-1.9,0.1-2.9c0.1-0.5,0.4-1,0.3-1.4c1.1,0,2.1-0.2,2.6-0.3
		c2.2-0.6,6-1.9,7.9-3.9C1186.4,625.2,1187.9,629.8,1189.4,634.5z M1174.8,584c0.1,0.2,0.1,0.5,0.2,0.7c-5,2.5-12.7,9.4-18.3,5.7
		c0-2.3-0.8-5.5-2.5-6.9c0-0.1,0.1-0.2,0-0.4c-1.8-2,2-4.3,4.3-6.1c0.3-0.2,0.7-0.3,1-0.5c3.8-2,8.3-3.7,11.3-6.9
		C1172.1,574.5,1173.5,579.2,1174.8,584z M1167.3,556.6C1167.3,556.6,1167.3,556.6,1167.3,556.6c0.1,0.2,0.1,0.5,0.2,0.7
		c0.8,3.7,1.8,7.4,2.9,11.1c-3,2.5-6.5,3.7-9.9,5.4c-3.7,1.8-6.7,3.9-10.9,3.3c0.6-1.5,0.8-3,0.4-4.7c-0.3-1.4-1.2-3-2.5-4.4
		c0.2,0,0.3-0.1,0.3-0.3c0.1-4,5.6-6.9,8.6-8.7C1159.4,557.1,1164.1,552.7,1167.3,556.6z M1144.8,548.3c3.9-2,7.6-4.5,10.7-7.6
		c0.5-0.5,1-1.1,1.3-1.6c0,0,0,0,0,0c2.4,0.7,4.2,3.2,5.5,5.2c2.4,3.9-0.8,7.3-3.4,9.8c-2.4,2.3-5.3,4.1-8.2,5.8
		c-2.6,1.6-5.4,3.9-8.6,3.7c-0.5,0-0.6,0.5-0.3,0.8c-0.9-0.2-1.9-0.3-2.8-0.1c2-2,3.3-4.4,3.4-7.4c0-2.2-1.2-4.8-3-6.7
		C1141.4,550.3,1143.2,549.2,1144.8,548.3z M1133.1,549.1c4.2-0.8,7.5,5.2,7.5,8.7c-0.1,4.2-5.1,7.2-8.2,9
		c-4.4,2.5-9.1,4.9-14.1,6.1c-6.6,1.6-13-8.8-6.2-12.5c2.4-0.4,4.9-1.4,6.9-2.2c4.5-2,10.9-4.7,14-9.1
		C1133,549.1,1133,549.1,1133.1,549.1z M1132.9,544.1c0,5.2-6.8,8.2-10.7,10.2c-4.2,2.3-10.5,6.1-15.3,3.5
		c-2.5-1.3-4.9-9.4-1.3-10.7c0.3-0.1,0.3-0.4,0.1-0.6c1.4-0.3,2.8-0.9,4-1.6c2-1.2,3.8-2.6,5.9-3.7c2-1,4-1.9,5.9-3.1
		c1.7-1.1,3.1-2.4,4.2-4C1130.1,535.2,1132.9,539.7,1132.9,544.1z M1144.6,516.6c3.5,1.3,6.6,4,5.5,8.1c-0.7,2.6-3.6,4.5-5.7,5.9
		c-1.8,1.2-3.7,2.2-5.4,3.4c-1.6,1.2-3.7,4-5.8,4c-1.5-2.6-4-4.8-6.7-5.3c0.3-0.5,0.5-1,0.7-1.5c0.8-2.2,0.5-4.2-0.4-5.8
		c3.3,1,5.6-0.6,8.8-2.4C1138.8,521.3,1142.2,519.3,1144.6,516.6C1144.6,516.6,1144.6,516.6,1144.6,516.6z M1139.7,506.9
		c3.4-0.6,5.9,4.7,4.6,7.1c-1.2,2.1-4,3.9-5.9,5.2c-3.3,2.3-7.9,5.8-12,5.1c-0.1,0-0.2,0-0.2,0c-1.4-1.6-3.6-2.7-6-2.7
		c0.7-1,1.2-2.1,1.5-3.4c0.3-1.2,0.4-2.3,0.2-3.4c2.2,1.3,5.1-0.5,7.1-1.8c3.2-2,7.7-3.5,10.4-6.3
		C1139.4,506.8,1139.5,506.9,1139.7,506.9z M1138.7,498.3c3.7,4-1.2,7.7-4.5,9.6c-1.8,1-3.7,1.9-5.5,3.1c-2,1.4-4.4,3.3-7,2.7
		c-0.1,0-0.1,0-0.2,0c-1-3.5-4.3-6.1-8-6.3c0.5-0.7,1-1.4,1.4-2.2c4.4-0.1,7.8-3.1,11-5.8c1.7-1.4,4.7-3,7-5
		C1135.2,494.3,1137.4,496.9,1138.7,498.3z M1133.4,486.2c2.5,3.6-1.4,6.4-4,8.1c-4.4,2.9-8.5,8.3-13.8,9.3
		c1.7-4.7-1.1-9.9-5.7-11.3c2.2,0.5,4-0.5,6.1-2.1c2.9-2.2,6.9-4.2,9.6-7C1128.7,482.6,1131.4,483.2,1133.4,486.2z M1124.1,473.9
		c1.6,1.7,2.6,4,1.3,6.5c-0.8,1.5-2.7,2.5-4,3.4c-2,1.3-3.9,2.9-5.8,4.4c-1.1,0.9-2.1,1.8-3.3,2.5c-0.5,0.3-2.2,0.1-3.2,0.1
		c0.2-0.5,0.4-1.1,0.5-1.7c0.5-3-1.2-6.5-3.3-8.6c0.1,0,0.2-0.1,0.4-0.2c1.7-1.7,3.9-2.5,5.9-3.9c1.9-1.4,3.2-2.9,4.4-4.8
		c0.1,0.1,0.1,0.1,0.3,0.1C1120,471.6,1122.1,471.8,1124.1,473.9z M1110.3,462.8c3.4-1.8,7.7,0.1,6.7,4.5c-0.7,3.4-3.8,6.4-6.6,8.2
		c-1.8,1.2-3.6,2-4.8,3.8c-0.1,0.1-0.1,0.2-0.1,0.3c-2.6-2.3-5-2.5-8.2-1.6c1.4-1.8,2.4-3.8,2.8-6.2c0.1-0.8,0-1.6-0.3-2.2
		c2.4-1.7,4.8-3.3,7.3-4.9C1108.2,464.1,1109.2,463.4,1110.3,462.8z M1099.5,468.9c-0.1-0.2-0.3-0.4-0.5-0.6c1-0.6,1.9-1.3,2.8-2
		C1100.9,467.1,1100.1,468,1099.5,468.9z M1108.8,454.6c-0.5,2.3-2.8,4.3-4.2,6.3c-1.9,2.7-4.3,4.5-6.9,6.4c-2.5-1.7-6.5-2.5-9-2.8
		c0.8-1.3,1.3-2.7,1.6-4.4c0.2-1.3,0.2-2.4-0.1-3.5c2.1-1.3,4.2-2.6,6.3-3.8c1.6-0.9,3.1-1.8,4.8-2.6
		C1104.5,448.5,1109.8,450.2,1108.8,454.6z M1099.2,444.6c0,2.8-3.9,4.8-5.8,6.1c-1,0.7-2,1.2-3.1,1.6c-3,1-5.8-1.7-4.4-4.5
		c1.2-2.4,2.7-4.6,4.6-6.5c0.8-0.5,1.6-1,2.3-1.6C1095.9,439,1099.2,441.2,1099.2,444.6z M1093.5,434.9c0.8,2.9-3.6,4.3-5.4,5.6
		c-1,0.7-2,1.3-3,1.9c-2.4,1.2-3.5-0.1-4.1-2.4c-1.1-4,0.6-6.8,3.8-9C1088.4,430.4,1092.3,430.5,1093.5,434.9z M1084.9,426.9
		c0,0.8-0.8,1.6-1.4,2.1c-1.5,1.3-3.6,2-5.5,2.3c-2.4,0.4-3.4-0.7-1.8-2.9c1.1-1.6,3-2.5,4.5-3.7c0.1,0,0.2,0,0.3,0
		c0.5-0.2,1-0.4,1.5-0.5C1084.2,423.6,1085,425.8,1084.9,426.9z M1123.2,246.1c1.6-4.6,1.6-9.8,0.4-14.7c-1.1-4.1-2.9-8.2-4.4-12.2
		c-1.4-4-3-8-4.7-11.9c2.5,2.6,5,5.1,7.7,7.5c4,3.5,8.3,7.8,8.7,13.4c0.3,4.7-2.6,9.5-4.8,13.4
		C1125.2,243.2,1124.2,244.7,1123.2,246.1z"/>
	<path class="st1" d="M1210.2,784c-0.1-0.2-0.3,0-0.2,0.1c0.7,1.8,1.6,3.1,2.7,4.5c1.6,2.1,2.7,4.7,3.8,7.1c0.3,0.6,1.1,0.1,0.9-0.5
		c-0.8-2-1.8-3.9-2.9-5.8C1213.3,787.6,1211.3,786.1,1210.2,784z"/>
	<path class="st1" d="M1213.6,783.2c1.9,3.6,3.4,7.8,6.2,10.8c0.3,0.3,0.7,0,0.5-0.4c-1.7-3.7-3.8-7.5-6.5-10.7
		C1213.8,782.8,1213.5,783,1213.6,783.2z"/>
	<path class="st1" d="M1217,782.2c-0.3-0.2-0.6,0.2-0.4,0.5c0.6,0.7,1.2,1.4,1.7,2.2c0.5,0.7,0.8,1.8,1.4,2.4
		c0.2,0.2,0.5,0.1,0.5-0.2c0.1-0.8-0.6-1.8-1-2.4C1218.5,783.7,1217.8,782.9,1217,782.2z"/>
	<path class="st1" d="M1207.9,787.5c0.8,0.7,1.5,1.4,2.2,2.3c0.6,0.8,1,1.7,1.5,2.5c0.1,0.2,0.4,0,0.4-0.1c0.1-2-2.1-4.4-3.9-5.1
		C1207.8,786.8,1207.7,787.3,1207.9,787.5z"/>
	<path class="st1" d="M1053,429.2C1053,429.2,1053,429.2,1053,429.2C1053,429.2,1053,429.2,1053,429.2
		C1053,429.2,1053,429.2,1053,429.2C1053,429.2,1053,429.2,1053,429.2z"/>
	<path class="st1" d="M1111.8,389.9c0-0.3-0.4-0.3-0.4,0c-1.8,11.5-3.6,23.9-7.8,34.8c-0.1,0.3,0.3,0.4,0.4,0.1
		c2.5-5.5,3.6-11.3,4.9-17.2C1110.3,401.8,1111.3,395.9,1111.8,389.9z"/>
	<path class="st1" d="M1118.5,426.8c0.7-2.4,1.4-4.9,1.5-7.4c0-0.2-0.3-0.3-0.4-0.1c-0.9,2.1-1.2,4.4-1.7,6.5
		c-0.6,2.4-1.4,4.7-2.1,7.1c0,0.1,0.1,0.2,0.2,0.1C1117.2,431.2,1117.9,429,1118.5,426.8z"/>
	<path class="st1" d="M1122.9,418c0.3-2.3,0.5-4.7,0.2-7c0-0.2-0.4-0.3-0.5,0c-0.4,1.8-0.3,3.8-0.5,5.6c-0.1,2.5-0.7,4.8-1.3,7.2
		c0,0.1,0.1,0.2,0.2,0.1C1122.3,422.3,1122.6,420.1,1122.9,418z"/>
	<path class="st1" d="M1155.4,422.1c-2,7.3-3.7,14.7-5.5,22.1c-1.1,4.7-2.7,10-1,14.7c0.1,0.2,0.5,0.1,0.4-0.2
		c-1.5-5.5,0.9-11.8,2.2-17.1c1.5-6.5,3.2-12.9,4.2-19.5C1155.7,421.9,1155.5,421.9,1155.4,422.1z"/>
	<path class="st1" d="M1160,386.9c1.1,6,0,12-0.6,18c-0.4,4.1-0.1,9.4-2.5,13c0,0,0,0.1,0,0c3-2.7,3-8.5,3.4-12.2
		c0.8-6.4,2.4-12.8,0.1-19C1160.3,386.5,1160,386.7,1160,386.9z"/>
	<path class="st1" d="M1163.6,398.4c-0.7,3.3-0.9,6.7-1.3,10c0,0.1,0.2,0.2,0.2,0c1-3.2,1.3-6.6,1.5-9.9
		C1164.1,398.2,1163.6,398.1,1163.6,398.4z"/>
	<path class="st1" d="M1048.1,621c7.4,12.1,6.4,27.5,11.9,40.4c0.1,0.2,0.5,0.1,0.4-0.1c-2.5-7.9-3.9-16.1-5.6-24.2
		C1053.8,631.8,1052.6,624.5,1048.1,621C1048.2,620.9,1048.1,621,1048.1,621z"/>
	<path class="st1" d="M1069.5,676.7c0.1,0.2,0.4,0.1,0.4-0.1c-3.2-9.4-6.7-18.6-8.5-28.4c0,0-0.1,0,0,0
		C1062.7,658,1065.5,667.6,1069.5,676.7z"/>
	<path class="st1" d="M1053.5,649.6c1.9,6.8,3.6,13.8,6.9,20c0.1,0.2,0.4,0.1,0.3-0.1c-2.2-6.7-3.8-13.7-7-20
		C1053.6,649.4,1053.5,649.5,1053.5,649.6z"/>
	<path class="st1" d="M960.6,253.2c2.2-5.8,6-12.1,10.9-16c0.1-0.1,0-0.3-0.2-0.2C966.1,240.9,962.2,247,960.6,253.2
		C960.5,253.3,960.6,253.3,960.6,253.2z"/>
	<path class="st1" d="M963.9,258.4c2.2-3.8,3.5-8.1,5.5-12.1c2.2-4.5,6.1-8,8.9-12.2c0.1-0.1-0.1-0.2-0.1-0.1
		c-6.6,7.4-11.7,14.6-14.8,24.1C963.3,258.4,963.7,258.7,963.9,258.4z"/>
	<path class="st1" d="M974.5,243.8c2.7-3.2,6.4-5.8,8.3-9.6c0.1-0.2-0.1-0.4-0.3-0.3c-2.8,3.2-5.9,6.1-8.3,9.6
		C974.1,243.7,974.3,244,974.5,243.8z"/>
	<path class="st1" d="M975.7,244.8c-1,1.3-1.8,2.7-2.3,4.3c0,0.1,0.2,0.2,0.2,0.1c0.7-1.5,1.8-2.7,2.4-4.2
		C976.2,244.7,975.9,244.6,975.7,244.8z"/>
	<path class="st1" d="M1106.1,503.8c-1.8,2.3-3.6,3.1-6.5,3.9c-2,0.5-3.9,0.9-5.6,2c-0.3,0.2-0.2,0.7,0.2,0.6c3.4-1,12.8-1.1,13-6.2
		C1107.2,503.5,1106.4,503.3,1106.1,503.8z"/>
	<path class="st1" d="M1084.6,541.9c-4.3,0.8-7.2,5.6-11.9,5.5c-0.4,0-0.6,0.7-0.1,0.8c2.2,0.5,4-0.3,5.9-1.3
		c2.2-1.2,4.6-2.6,6.5-4.1C1085.4,542.4,1085,541.8,1084.6,541.9z"/>
	<path class="st1" d="M1127.6,506.8c1.7,1.6,4.9-1.7,5.8-3c0.1-0.2,0.2-0.5,0-0.7c-0.1-0.2-0.2-0.3-0.4-0.4c-0.2-0.1-0.6,0-0.7,0.2
		c-0.7,0.7-1.3,1.4-2,2c-0.8,0.7-1.5,0.8-2.4,1.1C1127.5,506,1127.3,506.5,1127.6,506.8z"/>
	<path class="st1" d="M1053.1,535c0.7-0.4,0.2-1.5-0.6-1.1c-1.2,0.5-2.2,1.2-3.2,1.9c-1.1,0.7-2.2,1.1-3.3,1.7
		c-0.3,0.1-0.2,0.6,0.1,0.6C1048.6,538,1051,536.2,1053.1,535z"/>
	<path class="st1" d="M1068,495.7c-1.7,1.4-3.4,2.4-5.4,3.2c-2.3,0.9-4.9,0.8-7,2.2c-0.4,0.3-0.2,1,0.3,0.8c4.2-1.4,10.5-1,13.1-5.5
		C1069.2,495.9,1068.5,495.3,1068,495.7z"/>
	<path class="st1" d="M1095.7,462c2.1-0.4,5.1-1.6,6.2-3.5c0.4-0.7-0.5-1.4-1.1-0.9c-1.7,1.3-3.3,2.8-5.4,3.7
		C1095,461.5,1095.3,462.1,1095.7,462z"/>
	<path class="st1" d="M1125.1,545c-1.6,0.8-3,2.4-4.5,3.4c-1.7,1-3.7,1.3-5.2,2.8c-0.5,0.5,0.2,1.2,0.7,0.8c1-0.8,2.3-0.9,3.5-1.4
		c1-0.4,1.9-0.9,2.8-1.4c1.3-0.8,3.2-1.8,3.6-3.4C1126.1,545.2,1125.6,544.7,1125.1,545z"/>
	<path class="st1" d="M1060.6,578.8c2.9-0.8,5.9-2.9,7.9-5.2c0.6-0.7-0.2-1.7-1-1.1c-2.4,1.9-4.5,3.8-7.3,5.2
		C1059.6,578,1059.9,579,1060.6,578.8z"/>
	<path class="st1" d="M1118.6,531.6c-1.7,1-3.2,2.5-4.9,3.5c-1.8,1-3.7,1.8-5.5,2.9c-0.5,0.3-0.2,1.1,0.3,1c3.6-0.6,9-3.2,10.8-6.5
		C1119.5,532,1119.1,531.3,1118.6,531.6z"/>
	<path class="st1" d="M1101.7,582.8c-1.9,1.1-3.6,2.4-5.7,3.2c-2.1,0.9-4.4,1.6-6.6,1.9c-0.4,0.1-0.3,0.6,0,0.6
		c2.4,0.3,4.9-0.5,7.2-1.4c1.9-0.7,4.9-1.8,5.8-3.8C1102.6,583,1102.1,582.6,1101.7,582.8z"/>
	<path class="st1" d="M1146.8,539.8c-1.2,0.9-2.8,1.9-4.3,1.7c-0.4-0.1-0.6,0.6-0.3,0.8c1.3,0.8,2.8,0.3,4.1-0.4
		c1.1-0.5,3.5-1.8,3.7-3.1c0-0.2-0.1-0.5-0.4-0.5C1148.6,538.1,1147.6,539.2,1146.8,539.8z"/>
	<path class="st1" d="M1078.6,606.9c0.7-0.7-0.2-1.7-1-1.1c-1.6,1.1-3.4,2.9-5.6,2.7c-0.3,0-0.5,0.3-0.3,0.5
		C1073.4,610.8,1077.4,608.2,1078.6,606.9z"/>
	<path class="st1" d="M1108.4,598c-1.2,0.4-2.3,1.1-3.5,1.7c-1.2,0.6-2.5,0.9-3.8,1.3c-0.4,0.1-0.6,0.8-0.1,0.9c2.5,0.5,6.2-1.3,8-3
		C1109.5,598.4,1108.9,597.8,1108.4,598z"/>
	<path class="st1" d="M1152.5,605.3c-1.9,0.4-3.6,2-5.2,3.1c-2,1.3-4.1,2.1-6.5,2.5c-0.3,0-0.3,0.5,0,0.6c2.1,0.7,4-0.1,5.9-1
		c2.1-1,4.8-2.5,6.4-4.2C1153.4,605.9,1153.1,605.2,1152.5,605.3z"/>
	<path class="st1" d="M1157.4,571c-0.5,0.3-0.2,1.2,0.4,1c2.3-0.7,4.7-1.5,6.5-3.3c0.7-0.7-0.3-1.8-1.1-1.2
		C1161.5,569.1,1159.5,570,1157.4,571z"/>
	<path class="st1" d="M1080.9,637.3c3.1-0.6,8.1-2.1,9.5-5.2c0.2-0.4-0.3-0.8-0.7-0.6c-1.4,0.7-2.6,2-4,2.8c-1.6,0.9-3.4,1.6-5,2.6
		C1080.5,637,1080.6,637.3,1080.9,637.3z"/>
	<path class="st1" d="M1127.1,583.2c-0.7,0-0.8,1-0.1,1.1c2.7,0.4,5.2-0.7,7.7-1.9c2.4-1.2,5.5-2.7,7.4-4.6c0.3-0.3,0-0.7-0.4-0.7
		c-2.2,0.3-4.2,2-6.1,3.1C1133,581.7,1130.2,583,1127.1,583.2z"/>
	<path class="st1" d="M1122.3,626.7c-3.1,1.6-5.6,4-9,4.9c-0.2,0-0.2,0.3,0,0.3c3.8,0.1,6.5-2.1,9.7-3.8
		C1123.9,627.7,1123.2,626.3,1122.3,626.7z"/>
	<path class="st1" d="M1093.7,664.8c1.3-0.1,2.3-0.6,3.4-1.3c1.1-0.6,2.3-1.3,3-2.3c0.4-0.5-0.3-1.1-0.8-0.9c-1,0.4-1.7,1.2-2.6,1.8
		c-1.1,0.8-2.2,1.4-3.3,2.2C1093.3,664.6,1093.5,664.8,1093.7,664.8z"/>
	<path class="st1" d="M1157.6,622.5c-1.8,0.8-3.5,2.2-5.2,3.2c-1.5,0.9-3.4,1.2-4.8,2.1c-0.2,0.1-0.1,0.5,0.1,0.6
		c1.5,0.9,3.5-0.2,4.9-0.9c2.1-1,4.1-2.4,5.9-3.8C1159.2,623.2,1158.4,622.1,1157.6,622.5z"/>
	<path class="st1" d="M1133.5,656.7c-1.6,3.3-6.5,5.1-9.7,6.4c-0.3,0.1-0.1,0.6,0.2,0.5c3.7-1.4,8.7-2.1,10.7-6.1
		C1135.2,656.6,1134,655.8,1133.5,656.7z"/>
	<path class="st1" d="M1170.9,651.2c-3.5,1.9-6.5,4.5-10.2,6.1c-0.5,0.2-0.2,1,0.3,1c3.8-0.5,7.7-3.6,10.6-5.9
		C1172.4,651.9,1171.6,650.8,1170.9,651.2z"/>
	<path class="st1" d="M1148.1,680.8c-5,1.1-8.1,5.9-13.3,6.8c-0.8,0.1-0.5,1.4,0.3,1.2c5-0.7,9.3-4.3,13.4-7
		C1148.9,681.6,1148.7,680.7,1148.1,680.8z"/>
	<path class="st1" d="M1114.7,719.3c3.1-0.3,5.6-2.1,8-4c0.6-0.5-0.1-1.5-0.8-1.1c-2.6,1.5-4.4,3.7-7.5,4.1
		C1113.8,718.4,1114.1,719.4,1114.7,719.3z"/>
	<path class="st1" d="M1051.1,461.2c-1.2,0.6-2.3,1.6-3.6,2.1c-1.6,0.7-3.3,1.4-5,1.7c-0.7,0.1-0.5,1.1,0.2,1
		c1.9-0.2,3.7-0.8,5.4-1.5c1.2-0.5,3.6-1.4,3.7-2.9C1051.8,461.3,1051.5,461,1051.1,461.2z"/>
	<path class="st1" d="M1020.1,465.3c1.3,0.5,2.9-0.2,4-0.8c1.1-0.6,3.1-1.7,2.8-3.2c-0.1-0.5-0.6-0.7-1-0.5
		c-0.4,0.2-0.6,0.5-0.9,0.9c-0.5,0.5-1.1,0.9-1.6,1.3c-1,0.6-2.1,1-3.2,1.3C1019.7,464.5,1019.6,465.1,1020.1,465.3z"/>
	<path class="st1" d="M1037.1,508.9c1-0.6,3.7-2.3,3.6-3.8c0-0.4-0.4-0.9-0.9-0.8c-1.2,0.3-5.1,5.8-6.3,4.2
		c-0.2-0.2-0.5,0.1-0.3,0.3C1034.3,510.2,1035.9,509.7,1037.1,508.9z"/>
	<path class="st1" d="M1071.6,437.1c-0.9,1.1-1.6,2.2-2.7,3.1c-1.2,1-2.7,1.9-4.1,2.6c-0.2,0.1-0.1,0.5,0.2,0.5c3-0.8,7-2.3,7.8-5.6
		C1072.9,436.9,1072.1,436.6,1071.6,437.1z"/>
	<path class="st1" d="M1163.3,712c0.2-0.9-1.2-1.3-1.7-0.5c-1,1.5-1.6,3-3.2,4c-1.3,0.9-2.8,1.3-4.1,1.9c-0.5,0.3-0.4,1.3,0.3,1.2
		C1158.4,718.4,1162.7,716.1,1163.3,712z"/>
	<path class="st1" d="M1204.6,688.5c-0.4,0.5-0.4,1.2-0.6,1.8c-0.3,1.2-0.9,2.2-1.6,3.3c-1.1,1.8-2.5,3.2-4,4.7
		c-0.3,0.3-0.1,0.9,0.4,0.8c2.1-0.5,3.8-2.9,5-4.6c0.9-1.3,2.9-4.5,1.6-6C1205.1,688.2,1204.8,688.3,1204.6,688.5z"/>
	<path class="st1" d="M1185.4,728.1c-1.7,0.3-3.3,2.2-4.7,3.2c-2.2,1.6-4.6,2.8-7.3,2.4c-0.2,0-0.3,0.2-0.2,0.3c1.4,2.1,4,1.3,6,0.4
		c2.1-0.9,6.1-3.3,7-5.5C1186.3,728.4,1185.8,728,1185.4,728.1z"/>
</g>
<g>
	<path class="st1" d="M926.7,728.3c0.9-2,3.1-5.7,0.1-6.8c-5.7-2.1-11.5-0.8-17.4,0c-5.6,0.8-10.8,0.7-14.5,5.4
		c-5.8,7.3-3.9,17.8,5.8,20.3c5.5,1.4,9.7-3,13.8-5.7c4.5-3,8-6.2,10.3-11.1C925.5,730.2,926.2,729.5,926.7,728.3z M926.1,724
		c-0.4,1.1-0.3,2.7-0.7,3.7c-1,2.6-2.9-0.3-3.5-0.9c-0.7-0.7-1.7,0.3-1.1,1.1c0.8,1.1,1.8,2.1,2.7,2.4c-2.2,3.2-4.4,6.1-7.8,8.3
		c-2.6,1.7-5,3.8-7.8,5.2c-4.2,2.2-9.3,2.2-12.4-1.9c-2.5-3.2-3-7.8-0.9-11.3c2.3-3.9,5.3-5.8,9.8-6.5c3.8-0.6,7.9-1.5,11.7-1.6
		C918.1,722.4,927,721.1,926.1,724z"/>
	<path class="st1" d="M909.8,738.1c-3,1.3-7.5,3-10,0c-0.3-0.4,0.1-0.8,0.5-0.7c4.1,1.7,7.9-0.3,11.4-2.6c2.5-1.7,4.7-4.4,7.4-5.5
		c0.3-0.1,0.5,0.3,0.4,0.5C917.1,733.4,913.7,736.5,909.8,738.1z"/>
	<path class="st1" d="M982.2,730c0.7-1.2,0.9-2.8,0.7-4.2c-0.3-2-1.3-3-2.8-2.9c-0.1-0.1-0.2-0.2-0.3-0.2c-2.8,0.2-5.1,1.6-7.8,2.4
		c-3.4,1-6.5,2.2-9.8,3.5c-4.5,1.7-10.8,4.1-13.9,8c-2.7,3.3-3.3,7.9-1.6,11.9c1.1,2.6,2.9,4.3,4.9,6.3c1.5,1.4,3,3.5,5,4.1
		c11.4,3.5,17.9-12.6,21.2-20.5C979,735.3,980.6,732.8,982.2,730z M981.5,727.3c-0.1,1.4-0.7,2.6-1.8,3.6c-1.1,1.3-1.9,2.6-2.6,4.2
		c-1.6,3.7-3.3,7.4-5.1,11.1c-1.9,3.9-4.4,8.1-8.5,10.1c-2.8,1.4-6,1.8-8.4-0.6c-1.1-1.1-2.2-2.1-3.2-3.2c-3.2-3.2-6.1-8.6-3.3-13.1
		c2-3.1,5.6-4.4,8.5-6.5c4-2.7,8.1-4.2,12.7-5.4c3.1-0.7,5.6-2.5,8.4-3.6c0.1,0.3,0.5,0.5,0.8,0.4
		C981.3,723.4,981.6,726.3,981.5,727.3z"/>
	<path class="st1" d="M973,731.6c-0.7,0.4-1.5,0.6-2.3,0.9c-2.2,0.7-4.3,2.4-6,3.9c-3.1,2.7-5.5,6.2-7.1,9.9c-1.4,3.3,2,6.3,5.3,4.8
		c1.3-0.6,2.3-1.2,3.7-1.5c0.2,0,0.3,0.2,0.1,0.3c-3,1.5-5.9,3.6-9.3,2.4c-2.8-1-2.2-4.2-1.5-6.4c1.4-4.3,4.1-7.8,7.4-10.9
		c1.6-1.6,3.6-2.7,5.7-3.7c1.3-0.6,4.2-0.5,4.5-2.2c0.1-0.4,0.8-0.5,0.9,0C974.6,730.3,974.1,730.9,973,731.6z"/>
	<path class="st1" d="M890.5,759c-0.3-2.5-1.9-4.4-4.3-6.5c-4.3-3.9-9.8-7-15-9.8c-3.8-2.1-9.1-4.5-13.5-2.4
		c-3.6,1.7-5.3,5.4-6.1,9.1c-0.9,4.1,2,8.6,4.4,11.6c3.5,4.6,7.7,4.8,12.8,6.5c4.4,1.5,9.9,3.9,14.5,3.1c2.5,0.7,5.8,0.4,8.3-0.1
		c1.7-0.4,4.2-1,4.8-2.9c0.5-1.7-1.8-3.4-2.6-4.6C892.8,761.6,891.9,759.9,890.5,759z M889,758.2c0.3,1.8-0.1,3.5,0.1,5.2
		c0.1,0.5,0.7,0.6,0.8,0.1c0.3-0.8,0.4-1.6,0.5-2.3c0.7,0.9,1.3,1.7,2,2.6c0.4,0.5,3.6,3.6,2.2,4.2c-2.2,1-4.6,1.2-7,1.4
		c-0.4,0-0.8,0-1.2,0.1c1-0.6,2-1.5,2.8-2.7c0.3-0.5-0.4-1-0.8-0.6c-5,5.4-12.7,2-18.5,0c-3.8-1.3-8-1.5-10.9-4.6
		c-2.4-2.5-4.9-5.9-5.6-9.4c-0.9-4.8,2.8-11.1,8.2-10.7c4.5,0.3,8.4,2.5,12.1,4.9c3.2,2,6.4,4,9.5,6
		C885.3,753.6,888.5,755.6,889,758.2z"/>
	<path class="st1" d="M883.7,766.4c0.4,0.1,0.4,0.6,0,0.7c-4.8,0.5-9.6-0.2-13.6-3c-3.2-2.2-6.8-4.6-7.6-8.6c0-0.1,0.1-0.1,0.1,0
		C867.1,762.6,875.9,765.3,883.7,766.4z"/>
	<path class="st1" d="M886.5,759.6c-2.5-3.1-5.7-5.2-9.4-6.6c-4.1-1.5-8.1-3.5-12.6-2.5c-0.6,0.1-1-0.7-0.4-1
		c4.5-2.1,9.1,0.4,13.4,1.8c3.8,1.3,8.3,3.8,9.4,8C887,759.6,886.7,759.8,886.5,759.6z"/>
	<path class="st1" d="M956.8,784c-0.9,4.1,2,8.6,4.4,11.6c3.5,4.6,7.7,4.8,12.8,6.5c4.4,1.5,9.9,3.9,14.5,3.1
		c2.5,0.7,5.8,0.4,8.3-0.1c1.7-0.4,4.2-1,4.8-2.9c0.5-1.7-1.8-3.4-2.6-4.6c-1-1.4-1.8-3.1-3.3-4c-0.3-2.5-1.9-4.4-4.3-6.5
		c-4.3-3.9-9.8-7-15-9.8c-3.8-2.1-9.1-4.5-13.5-2.4C959.3,776.6,957.6,780.3,956.8,784z M966.8,776c4.5,0.3,8.4,2.5,12.1,4.9
		c3.2,2,6.4,4,9.5,6c2,1.3,5.2,3.2,5.7,5.8c0.3,1.8-0.1,3.5,0.1,5.2c0.1,0.5,0.7,0.6,0.8,0.1c0.3-0.8,0.4-1.6,0.5-2.3
		c0.7,0.9,1.3,1.7,2,2.6c0.4,0.5,3.5,3.6,2.2,4.2c-2.2,1-4.6,1.2-7,1.4c-0.4,0-0.8,0-1.2,0.1c1-0.6,2-1.5,2.8-2.7
		c0.3-0.5-0.4-1-0.8-0.6c-5,5.4-12.7,2-18.5,0c-3.8-1.3-8-1.5-10.9-4.6c-2.4-2.5-4.9-5.9-5.6-9.4C957.7,782,961.4,775.7,966.8,776z"
		/>
	<path class="st1" d="M967.7,790c4.5,7.1,13.3,9.9,21.1,10.9c0.4,0.1,0.4,0.6,0,0.7c-4.8,0.5-9.6-0.2-13.6-3
		c-3.2-2.2-6.8-4.6-7.6-8.6C967.6,790,967.7,790,967.7,790z"/>
	<path class="st1" d="M969.7,785.2c-0.6,0.1-1-0.7-0.4-1c4.5-2.1,9.1,0.4,13.4,1.8c3.8,1.3,8.3,3.8,9.4,8c0.1,0.2-0.3,0.5-0.4,0.3
		c-2.5-3.1-5.7-5.2-9.4-6.6C978.1,786.1,974.2,784.2,969.7,785.2z"/>
	<path class="st1" d="M935.4,767.8c-4.1-2.6-9-5.2-13.8-6.4c-2.9-0.7-6.2-1.1-8.4,1.3c-1.6,0.3-3.3,0.5-4.6,1.3
		c-1.3,0.8-0.3,3.1-0.4,4.2c-0.2,3.1-1.2,5.4-0.1,8.4c0.6,1.8,2,3.4,3.3,4.7c2.5,2.5,4.8,5.1,7,7.9c1.3,1.7,3.2,3.2,5.2,4
		c5.1,2,9,1.1,13.3-2.1C944,785.7,942.6,772.4,935.4,767.8z M933.3,791.3c-4.9,2.8-10.5,0.1-13.6-4c-2-2.7-4.6-4.8-6.9-7.2
		c-2.1-2.3-3.8-4.7-3.1-8c0.3-1.3,0.5-2.5,0.6-3.8c0.1-2-0.3-2.6,1.7-3.1c1-0.3,1.9-0.6,2.9-1.1c0.3-0.1,0.4-0.4,0.4-0.6
		c2.9-1.4,6.8-0.2,9.5,1.4c3.1,1.7,6.7,2.9,9.6,5C941.3,774.8,940.9,786.9,933.3,791.3z"/>
	<path class="st1" d="M929.6,788.3c-0.4,0-0.4-0.5-0.1-0.6c8.1-2.3,0.4-10.6-3-13.1c-1.5-1.1-2.9-2.1-4.4-3.2
		c-2.6-2.1-4.8-2.7-8-3.1c-1-0.1-1-1.5,0-1.6c3.3-0.4,6,0.5,8.6,2.6c3.1,2.5,6.7,4.7,9.2,7.8C935.1,780.9,935.7,787.6,929.6,788.3z"
		/>
	<path class="st1" d="M1008.5,750.5c1.2-6.7-1-15.9-9.6-15.9c-4.2,0-9.9,2.3-12.7,5.6c-2.7,3.1-2.6,6.9-2.6,10.8
		c0,5.2-0.5,15.2,5.3,17.2c0.1,1.4,3.1,3.7,3.8,3.9c2.5,1,4.9-1.8,6.1-4C1004.8,765,1007.4,756.8,1008.5,750.5z M1005.4,754.5
		c-1.9,5.8-3.6,11.2-9.6,13.8c-0.5,0.2-0.1,0.9,0.4,0.8c0.3-0.1,0.6-0.2,0.9-0.3c-0.8,1.1-1.7,2.2-3,2.1c-1.5-0.1-2.7-1.3-3.4-2.5
		c0.5,0,0.9,0,1.5,0c0.5,0,0.6-0.8,0.1-0.9c-7.9-1.2-6.4-11.7-6.5-17.6c-0.1-4.3,0.3-7.9,4.3-10.4c3.2-1.9,7.2-4.3,11.1-2.8
		C1008.5,739.9,1007.5,748.1,1005.4,754.5z"/>
	<path class="st1" d="M1001.2,754.5c0.6-2.5,1-4.7,1-7.3c0-3.4-2-9.9-6.6-5.8c-3.8,3.4-5.5,8.1-8.3,12.2c-0.1,0.2-0.4,0.1-0.4-0.1
		c0-3.4,2.6-7.5,4.5-10.2c1.6-2.3,3.9-5.1,6.9-4.8c7.3,0.8,5.3,12.2,3.4,16.3C1001.6,755.1,1001.1,754.9,1001.2,754.5z"/>
	<path class="st1" d="M905,814.8C905,814.8,905,814.8,905,814.8c2.1-5.3,2.3-9.6,0.2-15.1c-1.8-4.5-4.8-9.1-8.2-12.5
		c-6.3-6.4-16.9-2.6-20,5.3c-1.7,4.4-1.7,9.6,1,13.6c1.6,2.4,3.8,4,5.6,6.3c1.4,1.8,2.7,3.8,4.9,4.6c2.3,0.9,4.7,1.1,7.2,1.1
		c1.5,0,3-0.4,4.4-0.4c0.3,0,2.4,0.6,2.9,0.4C904.8,817.6,905.2,816.3,905,814.8z M904.4,812.3c-0.1-0.4-0.3-0.9-0.4-1.3
		c-0.2-0.5-0.9-0.3-0.8,0.2c0.2,0.7,0.3,1.4,0.5,2.1c0.1,0.4,1.3,5.1-1.5,3.5c-1.1-0.7-2.1-0.9-3.4-0.8c-3.7,0.3-9.2,0.6-11.8-2.6
		c-2.5-3.1-6.2-5.9-7.9-9.5c-1.8-3.9-1.8-8.7,0.5-12.4c2.2-3.3,5.7-5.8,9.8-5.8c4.7,0,6.9,3.8,9.5,7.1c2.4,3.2,4.6,6.4,5.6,10.4
		C905.3,806.7,904.9,809.4,904.4,812.3z"/>
	<path class="st1" d="M889.8,809.7c0.3,0.4-0.2,0.9-0.6,0.6c-3.2-2-5-7.4-5.9-10.9c-0.9-3.3-1.2-8.3,2.1-10.4
		c0.2-0.2,0.5,0.1,0.4,0.4C882.2,796,886.2,804,889.8,809.7z"/>
	<path class="st1" d="M901.3,801.2c-4.2-4.2-7.9-9.8-13.8-11.7c-0.3-0.1-0.3-0.6,0-0.7c2.6-0.9,5.3,1.4,7.1,3
		c2.8,2.5,5.8,5.5,7.3,9.1C902.1,801.2,901.6,801.5,901.3,801.2z"/>
</g>
</svg>
