<svg xmlns="http://www.w3.org/2000/svg" viewBox="0 0 1440 900"><defs><style>.cls-1{fill:#363b4f;}.cls-2{fill:#0b0e17;}</style></defs><title>de-aqui-purple</title><g id="Capa_2" data-name="Capa 2"><g id="Layer_1" data-name="Layer 1"><rect class="cls-1" width="1440" height="900"/><path class="cls-2" d="M838.18,194l-3,3.34-1.07-.83c-2.57-.76-.73-.22,1.1.33l11.91,6.35-.5-.06q3.74,3.24,7.48,6.47l1.57-1.27q-2.91-4.17-5.81-8.33v.43c1.32-.13,2.93-.83,3.91-.32,41,21.27,69.71,53.5,85.49,97,1.46,4,1.05,8.72,1.7,15-4.73-1.52-7.32-2-9.62-3.13-28.1-13.39-56.07-27-84.24-40.3-45-21.19-88.86-44.65-130.68-71.68-10.59-6.85-20-15.57-31.85-25,14.31-6.81,26.41-8,38.59-7.21,34.68,2.22,68.59,8.65,101.18,20.95,5,1.87,9.22,5.66,13.8,8.56ZM761.8,178.4c-.42-.22-.89-.68-1.27-.62a5.94,5.94,0,0,0-1.67.87l-1.24-.36,1.27-.17Zm22.46,6.22-1.9.25-1.34-.38,1.36-.15ZM717.7,171.57l5.88.06,14.61,3.25,5.89.05,3.08.34c-.43-.25-.9-.76-1.28-.7a6.36,6.36,0,0,0-1.81.86l-5.88-.06-14.61-3.25-5.89,0-5.88-.07-2-.27,2.05-.26Zm54.63,21.32c-2.9-.22-1-.08,1,.07l8.88,3.17,11.64,6,8.85,3.15,11.72,6.06c4.62,3.43,6.7,10.94,14.61,9.08,13.89,10,27.7,20,41.7,29.82a256.61,256.61,0,0,0,22.66,14C875,245.38,854.83,229,829,220.91c-4.76-3.19-6.43-11.38-14.61-9.06l-11.71-6.08-8.86-3.13-11.63-6-8.89-3.14C771.57,192.38,769.87,191.26,772.33,192.89Zm30.11,24.55-11.7-6.06c-5.2-6.69-11.78-10.24-20.47-9l-5.31-4.2-.93,2.7,6.29,1c5.6,5.76,11.91,9.93,20.45,9.07l11.71,6.06,11.7,6.06,11.77,6.1,7.59,7c.35-7.05-2.72-8.1-7.65-6.51-3.28-3.27-5.25-9-11.74-6.2C811.05,219.94,808.81,214.71,802.44,217.44Zm46.64,36-16.55-10.64c2.79,8.68,8.77,11.29,16.6,10.18l11.7,6.11,11.76,6.16C879.75,273,888,279,898.84,280.21l7.53,6.74,1.24-2-8.82-4.2c-7.37-7.43-15-14.39-26.25-15l-11.75-6.11Zm57,10.37,2.61-2.52C897.78,250.1,887,238.8,875.85,227.78c-1-1-3.76-.33-5.7-.44l-9.47-9.73-2.17,3,11.68,6.34Zm3.94,14,.75-.74-5-5.19-.75.73ZM839.93,218a9.17,9.17,0,0,0-.31-2.65c-.12-.28-1.22-.16-1.87-.22l.48,1.94ZM752.81,194a6.79,6.79,0,0,0,1.06,1.61l1.43-1.69-1.68-.95C753.33,193.34,752.73,193.79,752.81,194Z"/><path class="cls-2" d="M655.85,624.24l1.54.46c0-1.34,0-2.67,0-4,2,2.2,4.36,4.15,5.82,6.64,10.36,17.77,10.11,37.54,10.64,57.21.4,14.58,1.39,29.14,2.12,43.7,4.51-9.21,7.23-18.43,9.49-27.77a213.69,213.69,0,0,1,18.64-49.17c4.59-8.71,9.83-17.58,20.5-21.52,5,8.38,2.49,16.85,2.17,24.91-1,25.58-11.27,47.56-27.69,66.82-6.25,7.34-13,14.27-19.34,21.52-1.71,2-3.7,4.25-4.12,6.64-1.82,10.16-3.09,20.42-4.73,31.78,2.79-.69,4.47-.84,5.9-1.51,8.54-4,12.47-12.08,17-19.59,16-26.74,37.5-47.38,66.28-59.92,2.93-1.28,6.27-1.64,10-2.58-6.53,40.51-27.45,61.83-61.37,75.63-13.3,5.4-27.91,7.55-39.35,15.45-5.6,8.71-4.4,20.06-15.24,25.37,3.46-11,6.93-22,10.12-32.15-6.59-9.86-13-18.79-18.66-28.11a140,140,0,0,0-18-24.15c-9.77-10.24-16.43-22.78-20.62-36.38-3.49-11.3-6.77-22.69-9.62-34.16-1.2-4.8-3.84-10,.37-15.59,12.54,5.23,20.79,14.44,27.16,25.68,10.16,17.92,14.7,37.44,16.38,57.79,1.48,18,13.06,30.55,24,43.82,2.39-10.68,3.34-21.08,4.56-31.45,2.51-21.18-1.38-39.66-14.93-57.65-18.8-25-28.47-55.2-40.71-83.81-.59-1.36.14-3.28.35-6.3,6.5,2.58,12.62,4,17.63,7.22,9.47,6,20.29,10.74,25.5,21.82Zm63,123.48,4.86-3.28,2.25-3.05,5.41-.84.44,2.9-.94.8.65-1,2.25-3.06,4.81-3.32,2.22-3,2.22-3c2.26-1.16,1.87-1.93-.36-2.44l1.86-5.76,2.25-3,8.9-6.59c-5,0-7.94,2.17-8.74,6.71l-2.19,3c-3.82.49-6.5,2.24-7.08,6.35l-2.2,3.06-5.44.82-.44-2.83,2.21-3,2.2-3,.63-.48-.36.69-2.2,3-2.21,3c-2.25,1.19-1.6,1.89.39,2.36l-4,8.8L724,744.63l-4.86,3.28L716.91,751c-.38.4-.77.79-.86.88l.59-1.08C717.39,749.77,718.14,748.74,718.9,747.72Zm-7.31-2.26s-.36.56-.68,1.08l-2.21,3-2.25,3-.84.9.58-1.1c.75-1,1.5-2,2.24-3s1.47-2,2.21-3ZM701.66,690l.54-1.16q.88-2.79,1.76-5.58l1.75-1.07-1.48,1.29q-.87,2.77-1.76,5.57Zm4.51-28.43,1.77-5.56.93-.9c-.08.14-.37.62-.67,1.1l-1.77,5.56-2.29,3c-.61,1.86-1.21,3.73-1.81,5.59q-2.05,4.27-4.1,8.54l-1.77,5.73c-.61,1.85-1.21,3.71-1.82,5.56-.41.45-.83.89-.84.9l.58-1.1,1.8-5.55c.6-1.9,1.19-3.8,1.79-5.7,3.7-1.71,4.69-4.74,4.14-8.52l1.77-5.65Zm-51.06-21.73,3.79,7.44c.5,2.09,1,4.18,1.51,6.27l1.23-.54-3-5.47L654.92,640q-1.7-2.4-3.41-4.79c-.4-1.3-.8-2.6-1.21-3.89l-1.34,1,2.76,2.63Zm58.68,46c-.25.14-.62.23-.71.45a4.47,4.47,0,0,0-.22,1.23l-1.8,5.57-2.28,3-4,8.58-2.27,3-4,8.6-1,.82.72-1q2-4.3,4-8.59l2.28-3c3.5-1.86,4.81-4.74,4-8.6l2.29-3c.59-1.87,1.19-3.73,1.78-5.59Zm-71.35-41.48,3.77,7.45c.87,5.78,2,11.44,7.54,14.84l3.74,7.43.89.9-1.09-.63-1.17-8.07,5.75,3.7c-3.13-8-5.25-15.54-11-21.36l-3.75-7.44-1.5-1.28c.14.3.2.76.43.87a3.7,3.7,0,0,0,1.26.14c.58,2.83-.67,6.58,3.74,7.49l1.58,10.68L646,652c-1.25-2.49-2.51-5-3.76-7.45l-3.79-7.43c-.37-1.29-.75-2.58-1.12-3.87l-1.27.87,2.6,2.76Zm-15,56.85c.83-6.23,1.4-9.47-2.51-11.32l-.88-6-2,.86,3.08,4.86Zm36.5-63.73L664,642l1.78-.66Zm-2.78-6.71-1.27-.16a4.3,4.3,0,0,0,.37,1.15c.09.16.49.13.75.18Zm-42.06,48,.69-.11-.42-2.86-.69.1Zm-3.61-10a9.71,9.71,0,0,0-.56,1.62c0,.11.51.34.79.51.11-.37.22-.73.32-1.1Z"/><path class="cls-2" d="M1380.07,808.85c-21.68-.89-37.49,5.31-53.07,13.14,1.92-17.25,1.69-17.82,16.15-23.58,15.69-6.26,30.06-14.1,41.16-27.06,2-2.34,3.26-5.32,6.23-10.3-20.27,1.09-36.34,5-48.9,19.8-2.93-8.61-.9-13.07,5.67-16.88,10.16-5.87,19.9-12.54,29.46-19.37,5.44-3.88,5.12-4.33,7.89-16.29-15.11-1.81-25.48,9-39.55,14-2.83-15.28.86-32.75-13.92-46.14-12.72,26.8-1.88,52.27.39,82.28-7.82-11.49-12.82-19-18-26.44-5.58-7.92-11.33-15.73-22.18-16.88-2.79,18.06.51,24.83,31.16,63.61-3.59,7.18-7.46,15-12.36,24.78-15.54-19.55-25.31-42.48-53.34-47.14.35,5-.53,9.29,1,12.26,10.55,20.05,26.75,35.28,44.8,48.24,7,5.06,16,6.5,25.73,4.35C1348.67,836.8,1364.28,826.27,1380.07,808.85Z"/><path class="cls-2" d="M1184.16,402.54c34.76-7.61,62.62-26.06,88.41-49.18,7.82.57,16,1.68,24.12,1.63,9.94-.05,18.22,1.36,26.35,8.82,10.89,10,24.51,8.78,33.52-.24,5.24-5.24,8.23-11.39,4.85-18.74-3.11-6.76-8.39-11.38-16.19-10.81-5.37.4-11.92.66-15.71,3.73-13.27,10.8-28.18,9.63-47.15,8.52,13.1-12.6,24-23.46,35.44-33.75,2.21-2,6.42-2.09,9.77-2.39,4.12-.36,8.33.35,12.45,0,9.16-.84,16.47-7.09,17.24-15.17.75-7.79-3.7-12.95-10.25-16.52-7.59-4.12-14.7-3.23-21.07,2.46-2,1.81-4.48,4.07-5,6.48-4.75,23.2-24.37,34.15-41.61,52.14.52-10,.68-16.6,1.25-23.15.66-7.53,2.43-15,2.38-22.56-.06-10.58.66-20.56,6.85-29.73,4.08-6.05,2.24-12.91-2.76-16.92a21.77,21.77,0,0,0-14.84-4.19c-9.3,1.17-15.83,16.86-8.11,23,19.58,15.66,11.12,34.83,10.77,53.26,0,.69,0,1.38-.09,2.07-1.42,16.51-7.23,29.56-22,39.67-20,13.64-38.75,28.95-62,37C1188.28,398.78,1186.33,401,1184.16,402.54Z"/><path class="cls-2" d="M256.07,809.9,290.16,843c-12.78,1.89-23.41,2.47-33.47,5.15-24,6.39-47.16,7.61-70.69-2.91-7.49-3.34-17.36-2.67-26-1.91-29.63,2.61-48.33-12.48-51.6-42.58-.51-4.65-1.36-9.26-2.11-14.28,11.9-7.9,24.83-2.91,36.63-5.25l8.45,4.15c12.77,10,22.17,22.23,26,38.3,2.69,11.33,10.31,17.08,21.34,19.81,14.28,3.53,28.3,5.28,42.74.68,8.38-2.67,17.13-4.21,27.81-6.77-3.06-3.78-4.58-6.85-7-8.5-18.35-12.22-37.22-23.68-55.19-36.42-7.9-5.6-15.49-7.85-25-7.06-10.28.85-20.67.28-31,.33l-8.42-4.17c-6.56-5.95-13.71-11.38-19.56-18-9.92-11.17-7.63-19.32,6.37-25.39a39.36,39.36,0,0,1,9.83-2.89c18.2-2.74,32.09,4.06,42.66,19,6.32,8.93,12.3,18.7,20.55,25.53,14.3,11.83,30.18,21.77,45.62,32.18,1.39.94,4.39-.52,6.65-.87Zm-120.14-2.2-1.59-1.11c-.56-.72-1.12-1.44-1.18-1.53l1.56,1.16Zm-2.78-61.45,30.61,5.81,8.09,8.35,2.4-3.23-10.68-4.91C153.85,743.35,153.85,743.35,133.15,746.25Zm23.07,13.25c.32.06.82-.75,1.24-1.16a18.55,18.55,0,0,0-3.06-1.14c-.34-.06-.84.73-1.26,1.13A18,18,0,0,0,156.22,759.5Z"/><path class="cls-2" d="M176.22,735.43c3.26-1.61,3.78-3.08-.22-4.31l.37.37L171.83,727l.39.39-4.55-4.55.34.38q-2.23-4.17-4.46-8.33l-2.11-2.21c.18.46.23,1.12.56,1.33a6.47,6.47,0,0,0,1.91.51l-.39,8.67.26-.28c-13.28-11.35-20.85-30.48-20.12-50.83,26.8-6.56,54.29,9.11,61.09,35.25,2.08,8,4.31,16.34,4,24.45-.42,12.18,4.88,20.92,11.93,29.94,12.26,15.71,23.62,32.11,35.36,48.23l-1.31,1.21c-13.47-14.55-27.83-28.41-40.11-43.91-8.38-10.57-16.76-19.57-30-23.69-3.35-1-5.72-5.23-8.54-8Zm8.55-12.61,1.07,1.58-1.44-1.2-4.22-4.14c-.54-.81-1.07-1.62-1.11-1.67l1.49,1.3Z"/></g></g></svg>