<?xml version="1.0" encoding="utf-8"?>
<!-- Generator: Adobe Illustrator 22.1.0, SVG Export Plug-In . SVG Version: 6.00 Build 0)  -->
<svg version="1.1" id="Capa_1" xmlns="http://www.w3.org/2000/svg" xmlns:xlink="http://www.w3.org/1999/xlink" x="0px" y="0px"
	 viewBox="0 0 1440 900" style="enable-background:new 0 0 1440 900;" xml:space="preserve">
<style type="text/css">
	.st0{fill:#8B371D;}
	.st1{fill:#4C0C03;}
</style>
<rect y="1" class="st0" width="1440" height="900"/>
<g>
	<path class="st1" d="M282.2,690.7c-5.7,3.6-11.5,6.5-18.3,6.9c-0.3,0-0.4,0.5-0.1,0.6c6.1,2,13.5-2.1,18.7-5.1
		c5.4-3.1,12.9-7.1,16-12.8c0.5,0.1,1,0.2,1.5,0.2c0.6,0,0.8-0.8,0.3-1.1c-3-1.7-5-4-7.1-6.7c-2.6-3.3-6-6.2-9.1-8.9
		c-4.8-4.1-12.8-10.4-19.7-8.9c-6.2,1.3-9.8,5.7-13.4,10.6c-3.4,4.7-9.4,10.5-8.3,16.8c0.1,0.6,1.1,0.6,1.2,0
		c1.2-6.3,5-10.8,8.7-15.9c4.3-5.8,9.3-11.2,17.2-8.6c7.2,2.3,13.5,8.4,18.8,13.5c2.3,2.2,4.9,6.4,8.1,8.3c-2.2,2-4.3,4.1-6.7,5.9
		C287.5,687.4,284.8,689.1,282.2,690.7z"/>
	<path class="st1" d="M304.3,749c3.3,3.5,9.9,4.1,14.1,4.3c5.7,0.3,14.1-0.3,18-5.2c0.6-0.7-0.4-1.8-1.1-1.1
		c-3.7,4.1-11.1,4.5-16.2,4.4c-4.6,0-9.9-0.7-13.8-3.4c-4.4-4.7-5.4-12.5-4.5-18.6c1-7,4.6-16.1,12.2-17.9c4-0.9,8.2,1.3,11.6,3
		c3.8,2,7.5,4.2,11.3,6.4c6.2,3.7,12.4,8.5,19.9,8.4c0.7,0,0.8-1,0.2-1.2c-9.7-2.3-18.1-9.3-26.6-14.1c-6.7-3.7-14.2-7.8-21.5-3.3
		c-6.4,4-9.1,13.2-9.8,20.2C297.5,737.2,299.4,745.1,304.3,749z"/>
	<path class="st1" d="M380,791.3c-8.8,0.2-16.7-0.6-24.6-4.8c-2.9-1.5-5.4-3.5-8.1-5.5c-1.6-1.2-4.4-3.1-6.6-2.4
		c-5.9,2-5.6,12.8-4.8,17.7c1,6.6,5.7,11.4,12,13.3c0.8,0.2,1.1-0.8,0.5-1.2c-2.4-1.7-4.9-3-6.9-5.1c-2.6-2.9-3.5-7-3.6-10.8
		c-0.1-2.3,0.3-11.1,3.7-11.5c2.3-0.3,5.3,2.7,6.9,4c9.1,7.1,20.4,9.6,31.7,7.5C380.8,792.3,380.6,791.3,380,791.3z"/>
	<path class="st1" d="M279.8,783.9c-5.1-5.4-10.7-9.6-14.7-16c-3.4-5.5-8.5-10.6-8.6-17.5c0-0.6-0.8-0.6-0.9-0.1
		c-2.1,6.2,3.5,12.6,6.7,17.3c4.6,6.9,9.4,13.2,17,17C279.7,784.7,280.1,784.2,279.8,783.9z"/>
	<path class="st1" d="M256.2,768.1c-1.5-2.5-2.6-5.6-4.6-7.7c-0.3-0.3-0.7,0-0.6,0.4c0.8,3.4,2.8,6.8,4.6,9.8c1.6,2.5,3.7,5.4,6.8,6
		c0.4,0.1,0.8-0.4,0.4-0.7C260.2,773.5,258,771.2,256.2,768.1z"/>
	<path class="st1" d="M171.3,698.5c0.8,7.5,7.4,13.5,11.5,19.4c4.7,6.7,10.5,14,18.3,17.1c0.4,0.1,0.7-0.4,0.4-0.7
		c-6.6-5.4-12.4-11.1-17.3-18.2c-4.1-5.9-9.3-11.1-12.2-17.8C171.9,698,171.3,698.2,171.3,698.5z"/>
	<path class="st1" d="M196,725.8c0.3,0.2,0.5-0.2,0.4-0.5c-3-3.8-6.4-7.2-9.3-11.1c-2.4-3.2-3.9-7-6.9-9.7c-0.3-0.3-0.8,0.1-0.6,0.5
		C184.4,712.5,188.4,720.5,196,725.8z"/>
	<path class="st1" d="M249,690.8c-1.1-1.7-1.5-3.5-3.2-4.8c0,0-0.1,0-0.1,0.1c1.1,1.9,1.2,4,2.4,5.9c0.9,1.4,2.4,3,3.9,3.7
		c0.4,0.2,0.8-0.2,0.6-0.6C251.8,693.4,250.1,692.4,249,690.8z"/>
	<path class="st1" d="M117.2,592.5c2.2-8.4,2.3-17.1,3.5-25.6c1-7.1,2.8-14.2,8.3-19.2c0.3-0.3-0.1-0.9-0.5-0.6
		c-6.1,3.5-8.6,11-9.8,17.5c-1.7,9.2-1.3,18.7-2.1,27.9C116.5,592.8,117.1,592.9,117.2,592.5z"/>
	<path class="st1" d="M115.6,570.3c1.5-7.3-0.6-15.3,5-21.1c0.4-0.4-0.1-1.1-0.6-0.8c-7.8,3.9-4.6,15-5,21.9
		C114.9,570.5,115.5,570.6,115.6,570.3z"/>
	<path class="st1" d="M334.5,493.9c1.3,5.4,4,10.6,6,15.8c2.2,5.7,4,11.4,4.6,17.5c0,0.4,0.6,0.4,0.6,0c0-5.8-1.1-11.4-2.8-16.9
		c-1.8-5.6-4.3-11.7-7.4-16.8C335.2,492.9,334.4,493.3,334.5,493.9z"/>
	<path class="st1" d="M178.3,511.9c-0.5,0-0.7,0.8-0.1,0.9c4.8,1.3,8.3,4.9,11.5,8.6c3.2,3.7,7.2,6.8,10.1,10.8h0.1
		c-1.9-4.8-6.4-8.5-9.9-12.3C187.1,516.8,183,511.8,178.3,511.9z"/>
	<path class="st1" d="M211.7,500.6c-0.5-0.3-0.9,0.4-0.6,0.7c1.9,2.1,2.5,5.3,3,8c0.4,2,0.3,5.2,1.8,6.7c0.1,0.1,0.2,0,0.3-0.1
		c0.9-2.3-0.3-6.2-0.8-8.6C214.9,504.8,214,502.1,211.7,500.6z"/>
	<path class="st1" d="M202.6,496.2c-0.2-0.1-0.3,0.2-0.2,0.3c2.2,2.7,4.8,5.6,5.8,9c0.1,0.2,0.4,0.2,0.3,0c-0.1-2-1-3.8-2.1-5.5
		C205.5,498.7,204.2,496.9,202.6,496.2z"/>
	<path class="st1" d="M719.9,640.9c0-7.1-1.2-14.3-1.8-21.4c-1.3-15.2-2.5-30.5-5.1-45.6c-1.1-6.4-2.5-12.8-3.9-19.1
		c-1.1-4.9-2.8-9.6-6.3-13.4c-3.6-4-9.2-6.1-13.8-8.5c-0.9-0.5-1.8-0.9-2.7-1.4c0-0.1-0.1-0.2-0.2-0.3c-1.8-1.9-4-3.1-6.2-4.5
		c-2.7-1.7-4.8-4.5-7.1-6.7c-5.3-4.9-10.9-9.3-16.3-14c-10.3-9.1-21-18.4-32.6-25.9c-10.6-6.9-22.6-11.3-35.3-12.5
		c-13.7-1.3-27,1.5-40.7,1.8c-0.4,0-0.5,0.6-0.1,0.7c5.5,1.5,11.6,0.5,17.2-0.2c6.6-0.8,13.2-0.9,19.8-0.5
		c13.7,0.7,26.4,5.3,38,12.6c11.8,7.5,22.7,17.2,33.1,26.5c5,4.5,10.3,8.7,15.3,13.2c1.2,1.1,2.4,2.3,3.5,3.4
		c5.8,7,15.6,10.2,23.1,14.8c2.5,1.5,4.3,3.6,5.7,5.9c0.2,4-1.8,7.5-4.4,10.7c-2.6,3.1-6.5,6.6-10.8,6.5c-0.3,0-0.3,0.4-0.1,0.5
		c4.8,1.7,9.8-3.1,12.6-6.4c1.5-1.9,3.7-5.1,4.2-8.2c0.6,1.5,1.2,3.1,1.6,4.7c1.6,6,2.6,12.2,3.7,18.3c2.7,14.9,3.8,30,5.1,45
		c1.1,13.2,3.8,27.3,1.2,40.5c0,0.1,0,0.3,0,0.4c-1.7,10.2-3.7,20-9.3,28.9c-5.3,8.4-12.9,15.1-20.3,21.7
		c-7.2,6.4-13.8,13.2-18.6,21.7c-1.6,2.7-3.1,5.5-4.5,8.3c-0.3,0.6-1.6,2.8-0.9,3.5c0.1,0.1,0.3,0,0.3-0.1s1.1-1.4,1.3-1.5
		c0.8-1.3,1.7-2.7,2.5-4c1.4-2.3,2.9-4.6,4.3-6.9c5.8-9.3,14-16.3,22.1-23.6c6.7-6.1,13-12.6,17.5-20.5c4.8-8.4,7.5-19.1,7.8-28.8
		C720.5,651.4,719.9,645.7,719.9,640.9z"/>
	<path class="st1" d="M636.6,623.4c5.9-4.2,9.5-10.7,15.8-14.5c0.2-0.1,0.1-0.4-0.1-0.3C645.6,611.3,640.2,617.2,636.6,623.4
		C636.5,623.3,636.6,623.4,636.6,623.4z"/>
	<path class="st1" d="M682.6,579.9c-8.3,6.5-17.4,11-27.1,15.2c-0.1,0,0,0.1,0,0.1c9.9-3.1,20-7.5,27.4-14.9
		C683.3,580,682.9,579.7,682.6,579.9z"/>
	<path class="st1" d="M601.8,713.8c-1.7,3.5-3,7.7-5.7,10.6c-0.2,0.2,0.1,0.4,0.3,0.3c3.2-3.2,5-6.2,5.8-10.7
		C602.2,713.7,601.9,713.6,601.8,713.8z"/>
	<path class="st1" d="M655.5,711.5c0.5-7,6.4-12.9,11.3-17.3c3.3-3,11.9-10.3,16.4-5.8c2.8,2.7,2.3,7.8,1.7,11.3
		c-0.7,4.4-2.2,10.2-5.3,13.6c-0.3,0.3,0.2,0.8,0.5,0.5c5.8-5.4,8.5-17.4,5.3-24.6c-2.9-6.5-10.9-3.2-15.2-0.4
		c-6.1,4.1-12.4,10.2-15.6,17c-2.3,4.8-1.6,10.5-0.4,15.5c1.6,6.9,4,13.3,5,20.3c-0.2-0.2-0.6-0.2-0.9-0.1c-0.9,0.5-1.9,0.5-2.9,0.4
		c-0.1-0.2-0.2-0.3-0.4-0.4c-10-4.7-19.2-9.6-24.6-19.8c-3.1-5.8-4.8-12.9-6.2-19.3c-1.6-7.5-0.7-14.7,0.2-22.2
		c0.8-6.8,2.1-13.2,5.4-19.3c1.7-3,3.6-5.8,5.4-8.8c1.9-3.3,3.6-6.6,5.6-9.8c3.5-5.2,9.1-8.5,14.5-11.4c6.6-3.5,14-6.5,21.5-6.4
		c0.9,0,0.8-1.2,0-1.3c-6.9-0.8-13.4,1.5-19.5,4.3c-5.9,2.7-11.9,6.2-16.3,11.1c-2.4,2.6-4,5.9-5.8,9c-0.8,1.4-1.6,2.7-2.3,4
		c1-3.8,1.9-7.6,2.1-11.6c0.4-7-1.1-14-1-21c0.1-7.1,0.8-14.5,2.6-21.3c1.3-5,1.7-11.4,4.6-15.8c0.3-0.4-0.3-0.9-0.7-0.5
		c-3.3,3.5-4,8.4-5.3,12.9c-1.9,6.5-3,12.8-3.5,19.6c-0.5,7.5,0.5,14.7,0.9,22.2c0.4,6.9-1.1,13.4-2.5,20c-0.5,0.9-1.1,1.7-1.6,2.6
		c-3.7,5.7-5.2,12.5-6.1,19.2c-1,7.6-2,15-0.8,22.7c1.1,7.2,3.3,14.7,6.4,21.3c3.5,7.6,9.9,13.1,17.2,17.1c-1,5.5-5.7,10.1-9.9,13.5
		c-0.8,0.7-1.7,1.3-2.7,1.9c4-3.5,6.9-8.6,9.6-12.8c0.1-0.2-0.2-0.4-0.3-0.2c-2.4,2.8-4.2,6-6.7,8.7c-2.6,2.8-5.6,5.1-8.7,7.1
		c-3.6,1.2-7.4,1.9-11,2.9c-10.2,2.6-21.3,7.1-32,6.6c2.2-0.8,4.4-2,6.2-3.1c4.7-2.9,9.2-6.8,12.7-11c0.3-0.3-0.1-0.8-0.4-0.6
		c-3.9,2.2-7.1,5.6-10.7,8.3c-4.2,3.2-8.2,4.9-13.2,5.6c-1.3-0.3-2.5-0.7-3.8-1.2c0-0.6-1-1-1.5-0.6c-5.3-2.4-9.9-6-14.9-9
		c-5.8-3.5-12.2-5.6-17.7-9.6c-6.4-4.6-11-11.1-15.7-17.3c-2.1-2.7-4.3-5.2-6.7-7.6c-2-2.1-4.4-4.3-5.8-6.9c1.5-1.5,6.8,0.2,8.3,0.5
		c2.4,0.5,4.9,1.3,7.3,1.6c4.8,0.6,9.7-0.9,14.4-1.6c6.1-1,10.7,0.2,14.9,5c2.7,3.1,5.6,9.1,2.5,12.8c-2.3,2.8-7.1,2.8-10.3,2.8
		c-8.6-0.1-18.7-4.2-24.8-10.3c-0.3-0.3-0.8,0.2-0.5,0.5c7.2,8,17.4,12.7,28.2,11.9c3.2-0.3,7.4-1.2,9.3-4.1
		c2.5-3.8,0.8-8.7-1.2-12.4c-2.4-4.2-6.6-7.6-11.4-8.4c-6.9-1.2-14.1,2.5-21.1,2.1c-2-0.1-11.3-3.3-15-1.9c-0.7-4.2,0.7-10,2.4-13.9
		c2-4.6,6.1-8,10-10.8s8.3-4.9,13-5.9c5.7-1.3,12.3-0.3,18,0.7c9.2,1.5,19.7,3.2,27.7,8.2c3.9,2.5,6.6,6.1,9.2,9.8
		c2.1,3,4.2,5.9,7.6,7.6c0.3,0.1,0.6-0.2,0.3-0.4c-3.5-3.2-5.9-7.5-8.5-11.4c-0.4-0.5-0.8-1.1-1.1-1.6c4,0.1,7.9-0.2,11.9,0.4
		c5.1,0.7,9.4,2.9,14,5.1c0.3,0.1,0.6-0.2,0.4-0.5c-3.4-3.9-9-5.4-13.9-6.3c-1.1-0.2-2.2-0.3-3.4-0.4c1.7-3.3,4.6-5.7,7.6-7.7
		c2.7-1.8,5.9-2.4,8.7-4c0.4-0.3,0.4-1-0.1-1.1c-2.6-0.5-5.7,1.2-8.2,2.8c-0.3-0.3-0.5-0.6-0.8-0.9c0.2,0,0.4-0.1,0.6-0.2
		c2.4-2.8,4.2-6.1,6.2-9.3c1.7-2.6,3.5-5.5,2.9-8.7c-0.9-5.5-5.3-10.1-10-12.8c0.7-0.1,1.4-0.3,2.1-0.4c4.6-1.1,10.1-3.2,12.9-7.2
		c2.9-4.2,1.9-8.3-0.6-12.4c-2.1-3.4-5.5-7.2-9.4-8.8c-3-3.3-8.8-3.5-12.5-1.7c-3,1.5-5.7,4.1-8.3,6.1c-2.5,1.9-4.9,4-7.2,6.2
		c-3.1-4.5-4.5-9.9-10.9-9.7c-2.5,0.1-5.5,1-7.5,2.6c-0.2,0.1-0.3,0.3-0.5,0.5c-4.2-1.1-8.3-2.3-12.3-3.9c-4-1.6-8.4-4.3-12.8-4.6
		c-2.1-0.2-5.5,0.3-8.3,1.5c-0.6-1.1-0.7-2.8-1.1-3.8c-0.4-1.1-0.8-1.9-1.5-2.6c2.8,0.4,5.6,0.5,8.3,0.1c2.2-0.3,8.3-1.1,9.1-3.9
		c0.9-3-1-5.5-3.3-7.2c-2-1.5-4.3-2.6-6.3-4c-2.5-1.6-4.6-3.8-7-5.5c-1.4-1-2.8-1.8-4.2-2.6c3.4-1.6,7-6,5.4-9.5
		c-2.6-6-8.7-7.1-14.6-7.1c-2.9,0-5.8,0.3-8.8,0.1c-2.6-0.2-5.2-0.5-7.8-0.6c-3.3-0.1-8.5,0.4-9.6,3.9c-2.1-3.5-4-7.2-6.5-10.4
		c-2.6-3.3-6.7-4.6-10.7-5.1c-3.5-0.4-8-0.4-10.8,2c-2.7,2.3-3.4,5.9-3.1,9.3c-2.2-2.9-6.6-4.6-9.9-5.1c-6.3-1-12.9,0.6-19.3,0.9
		c1.1-5.3-2.4-11.7-7.1-14.9c-0.9-2.4-1.9-4.8-2.9-7.1c2-5.6,6.4-10,10-14.7c3.7-4.9,6.3-10.6,9.4-15.9c1.3-1.7,2.9-3.3,4.4-4.9
		c2.7-2.9,4.8-6.2,7.4-9.2c5.8-6.9,13.3-11.7,21.1-16.1c15.9-8.8,35.2-15,53.5-14.5c0.8,0,0.7-1.1,0-1.2
		c-18.5-2.4-38.6,4.9-54.7,13.7c-8.4,4.6-16.1,10-22.1,17.5c-2.6,3.3-5,6.8-7.7,10c-1.5,1.8-3,3.6-4.1,5.7
		c-3.7,4.7-6.2,10.5-10,15.2c-2.9,3.6-6.7,7.6-8.2,12.2c-1.9-4-4-7.7-6.9-11.1c0.2-0.2,0.2-0.5,0-0.8c-6.3-10.1-15.6-17.6-25.7-23.6
		c-5-3-10.3-5.5-15.8-7.5c-5.5-1.9-10.6-3.9-15.3-7.6c-0.3-0.3-0.8,0.2-0.6,0.6c2.6,3.6,6.4,5.5,10.5,7.1c5.8,2.3,11.5,4.3,17,7.3
		c5.7,3.1,11,6.8,15.9,10.9c4.7,3.9,7.9,9.1,12.4,13.3c1.7,3.2,4.1,6,5.8,9.1c0.9,1.6,1.5,3.2,2.1,4.9c0,0.3-0.1,0.7-0.1,1
		c0,0.4,0.3,0.6,0.7,0.6c0.5,1.3,1,2.7,1.6,3.9c-0.9-0.4-1.7-0.6-2.6-0.7c-0.2,0-0.4,0-0.5,0.1c-2.1-0.5-4.4-2.3-6.3-3.1
		c-2.5-1.1-5.1-2.3-7.9-2.7c-4.6-0.5-9.1,0.7-12.8,3.6c-3.3,2.7-5.1,7.5-3.9,11.6c0.1,0.3,0.2,0.6,0.3,0.8c-1-0.3-1.9-0.7-2.9-0.9
		c-1.9-0.4-4.1-0.2-6,0c-2.9,0.4-5.8,1.3-8.5,2.3c-3.2,1.1-10.5,3.6-10.7,7.9c-0.9,0.1-1.8,0.3-2.8,0.5c-2.2,0.6-4.4,1.6-6.4,2.6
		c-1.2,0.6-2.8,1.3-3.9,2.2c-0.3-1.5-0.8-3-1.7-4.4c-2-3.1-5.6-5.4-8.8-7.1c-6.9-3.7-13.4-1.6-18.5,4c-0.2,0.2-0.4,0.4-0.5,0.6
		c-2.8-4.9-9.1-8.9-14.6-9.2c-3.4-0.2-10.9,2.9-12.3,6.9c-1.2-1.4-2.8-2.9-4.6-3.9c1.9-0.5,3.6-1.3,5.1-2.5c3-2.5,4.6-6.2,4.1-10.1
		c-0.6-4.2-3.5-5.3-7.5-5l0,0c-4.1-1.3-8.1-1.7-12.6-1.1c-3,0.4-6,1.5-8.9,2.4c-1.7,0.5-3.9,1-5.3,2.3c-5.3,5.2,1.4,9.6,6.2,11.6
		c-7,2.4-15.2,10.3-13.3,18.1c0,0.2,0.1,0.3,0.1,0.5c-2.4-0.3-5.9,2.4-7.2,3.5c-3.4,2.8-6.6,8.6-3.7,12.7
		c-5.2,0.7-10.6,1.6-15.2,3.6c-5.2,2.2-6.6,9.3-4.1,14.1c-1.4-0.3-3-0.5-4.6-0.3c-4.2,0.4-9.2,2.2-10.4,6.6
		c-1.5,5.4,2.9,12,5.1,16.7c1.5,3.3,3.1,7,6.3,8.5c-5.9,1.8-11.9,3.6-17.9,5c-12.1,2.9-25.3,4.4-35.9,11.4c-1.1,0.7-0.1,2.5,1.1,1.8
		c8-4.7,16.9-6.8,25.8-8.8c9.3-2,18.2-4.4,27.2-7.3c0.1,0,0.1,0,0.2-0.1c-2.7,1.8-5.4,4.4-5.5,7.6c0,0.6,0.8,0.7,1.1,0.3
		c2.5-3.6,5.2-6,9-8.1c2.5-1.3,5.1-2.3,7.6-3.5c15.7-4.5,32.4-7.9,48.3-5.1c15.1,2.7,33.3,15.6,29.4,33.2
		c-1.7,7.7-8.6,13.3-14.7,17.6c-7.5,5.4-15.4,10.2-23.1,15.3c-3.7,2.4-7.2,5-10.4,8c-3.5,3.1-6.9,6.3-11,8.6c-4.6,2.6-10,4-15,5.7
		c-4.4,1.5-8.6,3.2-12.8,5.2c-8.9,4.2-17.9,8.4-27.9,6c-8.6-2-15.6-8.5-22.1-14c-6.7-5.7-13.2-11.6-18.5-18.7
		c-5.9-7.9-8.6-16.5-9.4-26.2c-0.7-9.3-0.6-18.6-1.8-27.8c-1-7.5-2.4-15.7-1.5-23.4c6.8,7,14.1,13.5,24.3,14.6
		c15.8,1.6,31-8.8,40.1-21c7.7-10.3,9-23.3,6.7-35.6c-0.7-3.8-1.8-7.5-3.1-11.2c7.4-4.5,7.9-15.3,7-23.1c-0.3-2.4-0.7-4.8-1.3-7.3
		c0.1,0,0.1,0,0.2,0c4.9-3.3,5.1-12.5,5.8-17.7c1.4-9.8,3-19.7,2.4-29.6c0-0.4-0.5-0.3-0.5,0c-0.6,4.6-0.8,9.3-1.3,13.9
		c-0.4,4.6-1.4,9.1-2.2,13.7c-1.1,6.7-1.8,13.1-4.6,19.3c-1.8-7-4.8-14.1-9-19.6c-0.5-0.6-1.4-0.1-1,0.6c3.7,7.9,7.2,15.7,8.9,24.4
		c0.9,4.8,1.1,9.7,0.2,14.5c-0.7,3.7-2.6,7-4.8,10c-1-2.8-2.1-5.6-3.2-8.4c-1.2-3.1-2.4-6.2-3.8-9.2c-1.6-3.5-4.4-6.2-5.8-9.8
		c-0.5-1.2-2.4-0.7-1.9,0.5c1.5,4,4.4,7.2,6,11.1c2,4.9,3.8,9.8,5.7,14.8c3.6,9.8,6.1,20.1,4.5,30.7c-2.6,17.6-18.9,32.4-36,36
		c-5.5,1.2-10.3,0.5-14.7-1.3c1.4,0,2.4-1,2.5-2.4c3-8.2,8.1-15.5,10.6-24c1.9-6.3,2.8-13.4,2.3-20c-0.4-6.2-2.7-12.1-7.6-16
		c-6.6-5.2-14.8-4.2-21.3,0.6c-0.8,0.6-0.1,1.7,0.8,1.3c4.4-2,8.4-4,13.3-3.1c3.4,0.6,6.4,3,8.6,5.5c4,4.7,4.3,11.6,3.9,17.4
		c-0.4,6.1-1.6,12.2-3.7,17.9c-2.6,7-6.6,13.3-8.1,20.6c-0.5,0.5-1,0.8-2.1,0.2c-1.2-0.6-2.2-1.8-3.2-2.8c-1.9-2-3.7-4.3-5.4-6.5
		c-2.6-3.3-5.1-6.5-7.1-10.2c-2.7-5.1-3.9-10.6-4.3-16.4c-0.1-0.9-1.5-1.2-1.6-0.2c-1.6,12,6,21.8,13.1,30.5
		c1.3,1.6,2.9,3.7,4.7,5.2c-6.9-4.2-12.8-10.9-18.5-16.8c-5-5.2-10.5-8.9-16.5-12.9c-6.2-4.2-8.3-9.9-9.4-17
		c-1.8-10.8-3.6-22.6-1.9-33.5c1.2-8.3,10.2-12.9,15.4-18.6c6.4-6.9,11-15.5,16.4-23.1c5.9-8.4,11.9-16.9,19.5-23.9
		c8.2-7.5,17.9-11,28.9-11.6c10.3-0.6,20.7,0.9,31,1c21.1,0.3,41.6-5.6,62.7-4.9c12.9,0.4,25.7,3.2,37.6,8c0.5,0.2,0.8-0.6,0.3-0.8
		c-17.1-9-37-10.8-56-9.2c-10.6,0.9-20.9,3.2-31.5,4s-21.2,0.3-31.8-0.3c-9.8-0.5-19.9-0.4-29.1,3.1c-8.4,3.2-15.2,9.6-20.9,16.3
		c-6.4,7.5-12.1,15.7-17.7,23.8c-5.6,8.1-10.5,15.8-18.1,22.2c-2.5,2.1-4.9,4.3-6.8,7.1c-2.3,3.4-2.7,7.4-2.9,11.3
		c-0.5,10.3,0.9,20.6,2.6,30.8c1,6.1,3,11.4,7.7,15.5c2.5,2.1,5.3,3.7,8,5.4c3.3,2,6.1,4.7,8.8,7.3c2.4,2.4,4.8,4.9,7.2,7.5
		c-1.6,7.4-0.5,15.2,0.3,22.6c1,9.5,1.2,19,1.7,28.6c0.5,9,2.5,17.4,7.3,25.1c4.6,7.4,11,13.6,17.4,19.3
		c6.1,5.5,12.5,11.2,19.7,15.1c6.2,3.4,13,4.3,19.9,3.1c-0.4,9.1-4.5,17.7-2.5,26.9c1.6,7.4,7.2,13,12.9,17.5
		c6.7,5.3,12.3,11.7,19.1,16.8c7.6,5.7,15.8,6.4,24.7,3.5c7.6-2.5,15.2-6,22.5-9.5c1.4,7,1.7,14.6,8.7,18.4c2.9,1.6,6.5,1.9,9.7,2.4
		c4.9,0.8,9.7,2.3,14.5,3.6c9.4,2.5,18.9,4,28.6,2c9.1-1.9,17.4-7.1,25-12.4c3.6-2.5,7.1-5.2,10.5-7.9l0.1-0.1
		c-0.1,4.5,2.7,8.8,5.3,12.3c3.1,4.3,6.9,8.3,11.2,11.5c6.9,5,20.2,5.9,25.2-2c1.5,0.4,3.1,0.8,4.7,1c8.7,1.2,17.8,2.3,25.7-2.4
		c3.3-2,6-4.8,8.7-7.5c3.4-3.4,6.8-6.8,10.4-10.1c7.2-6.6,14.9-11.8,23.8-15.7c1.9,0.7,3.8,1.5,5.7,2.2c-0.1,0-0.1,0-0.2,0
		c-0.2,0-0.1,0.3,0,0.3c0.3,0,0.5,0,0.8-0.1c1.6,0.6,3.2,1.2,4.8,1.7c6.4,2,12.4,1.6,18.9,0.5c7.4-1.3,14.8-3,22.2-4.5
		c6.4-1.3,12.7-3.5,17.9-7.5c4.9-3.7,6.4-8.5,8.4-13.8c0.1,0,0.2,0.1,0.3,0.2c6.6,2.8,13.6,2.1,20.4,0.9c8.6-1.5,16.8-4.5,25.2-6.5
		c6.5-1.6,12.7-3.3,18-7.7c4.1-3.4,8.5-8.2,9.4-13.6c1.9,0.9,3.7,1.8,5.7,2.5c0,0,0,0.1,0.1,0.1c1.4,1.3,5.3,2,6.7,0.3
		c0,0,0-0.1,0.1-0.1c0.1,0.3,0.6,0.4,0.7,0c1.1-4.6-0.2-9.3-1.5-13.7C657,723.2,655.1,717.6,655.5,711.5z M511.9,700.5
		c-0.5,1.6-1,3.4-1.2,5.3c-2.6-2.4-7.4-3.3-10.1-4.1c-2.4-0.7-4.8-1.4-7.2-2c5-0.4,10-1.3,14.7-2.7c1.9-0.6,4.4-1.4,6.7-2.5
		C513.5,696.2,512.5,698.3,511.9,700.5z M402.9,792.1c-0.1,0-0.2,0.1-0.3,0.2c-4.7,5-11.3,4.4-17.5,4.4c1.9-1.6,3.7-3.2,5.2-5.2
		c4.7-5.7,6.5-13.1,6.2-20.4c-0.6-11.3-7.1-23.2-16.6-30.2c8.3-1.9,15.8-1.4,22.6,4.6c6.6,5.8,9.6,14.8,9.6,23.4c0,0.1,0,0.1,0,0.2
		c-1.1,1.4-2.1,2.9-3,4.4C406,779,403.7,785.5,402.9,792.1z M312.2,667.8c1.3-1.9,3.1-3.6,4.5-5.5c0.6-0.8,1.1-1.7,1.6-2.7
		c2.4-0.5,4.3-1.8,6.5-2.9c2.7-1.5,5.8-1.9,8.8-2.4c0.4,1.4,0.8,2.7,1.2,3.8c2,5.5,4.9,11.2,10.8,12.9c-0.3,0.7-0.4,1.6-0.7,2.3
		c-0.4,1.1-0.9,2.2-1.6,3.3c-1.8-0.6-3.6-1.1-5.4-1.6c-8.5-2-19.2-3.4-27.6,0.2C311.4,672.8,312,670.4,312.2,667.8z M305.6,633.7
		c0.3-5.3,4.5-9,9-11.1c3.7-1.7,7.8-2.3,11.7-3.4c3.4-0.9,8-2.8,11.5-1.6c0.4,0.1,0.6-0.4,0.3-0.6c-0.4-0.2-0.8-0.4-1.3-0.5
		c1.7-3.9-2.7-8.1-5.3-10.4c-1.5-1.3-3.1-2.7-4.8-4c2.4-6.7,7.9-13.8,14.9-16c2.2-0.7,3.8-0.4,4.2,2c0.5,2.6,1.6,5,2.6,7.4
		c1.4,3.6,3.1,8.9,0.7,12.3c-0.1,0.1-0.1,0.3-0.1,0.4c-2.7,0.9-5.3,2-7.2,3.6c-5.1,4.2-3.8,13.3,2.2,16.1c0.9,0.4,1.8,0.7,2.7,1v0.1
		c1.1,2-2.8,5.6-3.9,6.8c-2.2,2.3-4.5,4.3-7,6.3c-2.4,2-4.9,3.8-7.7,5.2c-5.6,2.7-11.8,1.5-17-1.5
		C306.9,643.5,305.3,638.2,305.6,633.7z M283.8,611.3c-2.5,2.3-3.5,5.9-4.2,9.4c-8.2-2-15.5-5.6-23.2-9c2.6-2.6,5.5-5.2,5.8-8.4
		c2.8-1.9,4.3-5.1,6.7-7.4c3.2-3,8.3-4.4,12.6-4.4c4.4,0,7.2,2.9,8.1,7.1c0.5,2.3,1,6.8-0.3,9.1
		C287.2,608.6,285.3,609.9,283.8,611.3z M259.3,623.2c-4.1-1.3-8.4-1.7-12.4-3.5c-2-0.9-4-1.7-6-1.9c2.5-1.9,3.8-4.6,6.8-5.9
		c2-0.8,4.1-0.4,6.1,0.4c0,0.6,0.8,1.1,1.3,0.6l0,0c1.6,0.8,3.2,1.7,4.7,2.3c6.2,2.7,12.6,6.5,19.5,6.6c-0.3,1.6-0.6,3.1-1,4.5
		c-0.6,2.1-2.6,6-1.6,8.4c-2.5-0.3-5-0.4-7.5-0.4C268.4,628.1,265.3,625.2,259.3,623.2z M282.8,588.4c-0.1-0.4-0.2-0.8-0.3-1.2
		c2.2-0.1,4.2-0.6,6.3-1.5c0.4-0.2,0.9-0.3,1.3-0.4c-0.2,1.2,0.9,2.6,2.5,3.8c-0.6,0.1-1.1,0.4-1.6,0.6c-0.8,0.3-1.5,0.7-2.2,1.2
		c-0.3,0.2-0.7,0.6-1,1.1c-0.6-0.5-1.2-0.9-1.9-1.2c-0.9-0.4-1.8-0.6-2.7-0.8C283,589.3,282.9,588.8,282.8,588.4z M291.2,599.3
		c-0.3-2.6-1.1-4.9-2.8-6.6c0,0,0-0.1,0.1-0.1c0.4-0.4,0.9-0.7,1.4-1c0.6-0.3,1.2-0.5,1.8-0.8c0.5-0.2,1.1-0.3,1.5-0.6
		c0.2-0.1,0.3-0.3,0.3-0.5c2.7,1.9,6.2,3.4,7.2,3.8c4.8,1.9,9.9,0.4,14.1-2.4c0.4,0.8,0.9,1.6,1.4,2.4c0.6,0.9,0.9,2,1.4,3
		c-4.5-1.9-10.3,0.8-10.9,6c-0.3,2.8,0.4,5.4,1.2,8.1c-3.7-2.2-6.5-5.5-11.2-5.1c-1.8,0.1-3.6,0.6-5.4,1.3
		C291.8,604.3,291.4,601.3,291.2,599.3z M318.4,588c4.4,2.1,9.9,2.4,14.4,1.8c-0.3,0.3-0.7,0.6-1,1c-2.5,2.6-5.9,6.7-6.2,10.6
		c-2.1-1.5-4.2-2.9-6.4-4c0,0,0,0,0-0.1c0.1-1.3-0.8-2.7-1.4-3.8s-1.4-2.1-2.2-3C316.6,589.6,317.6,588.8,318.4,588z M308.8,607.5
		c-0.8-3-0.8-5.9,1.4-8.3c3.2-3.4,7.4-0.9,10.4,1.2c5.5,3.9,14.6,8.5,15.6,15.8c-3.3-0.7-7.3,0.5-10.3,1.3c-4.7,1.2-9.4,2-13.8,4.4
		c0-0.1,0-0.1,0-0.2C311.1,616.9,310,612.2,308.8,607.5z M369.4,604.1c1.7,2.4,5,4,7.4,5.5c2.9,1.8,4.5,4.6,8.3,4.6
		c0.8,0,0.8-1.2,0-1.2c-3.2-0.2-5-3-7.5-4.7c-1.5-1-3-1.8-4.5-2.8c-1.2-0.8-2.2-1.8-3.5-2.5c0.5-3.9-2.4-9.3-4.5-12.6
		c2.3-1.9,4.9-3.9,6.7-6.4c1.3-0.4,2.6-1,3.8-1.6c3.4-1.6,7-1.1,10.2,0.6c3.6,1.9,7.6,4.8,9.3,8.6c-0.7,1.8-1.2,3.7-1.7,5.6
		c-0.9,3.4-2,7.8-0.6,11.2c-4.9,3.7-9.6,7.8-14.4,11.7c-1.4-3.7-2.9-7.8-5.4-10.8c-1.3-1.6-3.5-2.4-5.7-2.7
		C368.4,605.9,369,605.1,369.4,604.1z M410.2,580.4c-0.6,0.1-1.1,0.2-1.7,0.3c-4.3,0.8-7.9,2.2-10.6,5.8c-0.9,1.2-1.6,2.5-2.2,3.8
		c-1.2-3.6-5.7-6.5-8.5-8.3c-0.4-0.2-0.7-0.4-1.1-0.6c1.7-0.5,3.4-1.3,5.1-1.7c2.1-0.6,4-1.3,5.7-2.7c1.8-1.5,3.5-4.4,3.1-6.9
		c3.7,2,7.6,4.1,11.6,5.4c-0.8,0.8-1.3,1.9-1.6,2.9C409.8,579,409.9,579.9,410.2,580.4z M522.2,610.5
		C522.1,610.5,522.1,610.5,522.2,610.5c-3.3-0.1-6.5-0.4-9.6-0.6c-2.7-0.2-5.4-0.5-8.1-0.8c1.3-2.5,0.1-5.8-1.1-8.1
		c-0.8-1.5-2.1-2.7-3.6-3.5c0.9-0.1,1.9-0.4,2.7-0.6c1.4-0.3,3.1-0.9,4.3-1.8C510.2,602.1,514.9,607.5,522.2,610.5z M503.1,608.9
		c-2.9-0.3-5.9-0.5-8.7-0.2c-3.5,0.3-7.2,2.5-8.8,5.7c-8.1-2-16.4-0.8-24.1,2c1.7-1.5,2.8-3.5,1.9-6.1c-0.4-1.2-1.2-2.3-2.2-3.2
		c2.8-0.5,5.4-1.6,8-2.8c4.5-2,9.3-3.8,14-5.2c4.3-1.3,8.9-2.6,13.4-1.5C500.7,598.6,505.6,604.5,503.1,608.9z M528.3,625.9
		c0.1,0.1,0.2,0.2,0.3,0.2c5.1,1,9.7,4.4,10.9,9.6c1.3,5.6-5.2,10.7-9.1,13.7c-4.4,3.4-9.4,6.1-14.3,8.6c-6.4,3.2-13.9,6.5-20.7,2.6
		c-4.9-2.8-8.5-8.9-8.3-14.6c0.2-5.4,4.5-11.5,8-15.5c4.3-4.9,11.2-4.9,17.3-5.2C517.6,625.1,523,625.4,528.3,625.9z M473.5,677.2
		c0.3-0.7,0.6-1.3,0.8-2c0.9-2.7,2.3-7.2,0.8-9.9c-1.8-3.3-5.7-2.9-8.9-2.4c-0.1-0.1-0.1-0.3-0.2-0.5c0.3-0.1,0.5-0.3,0.5-0.7
		c0.4-5,2.7-10.5,4.8-15c3.1-6.7,8.7-2.9,14-3c-0.4,1.8-0.5,3.7-0.2,5.6c0.8,5.7,6,12.1,11.4,14c4.6,1.6,9.1,0.9,13.4-0.6
		c-0.5,0.9-1,1.9-1.1,2.9C495.7,664.3,482.8,667,473.5,677.2z M413.8,727.5C413.8,727.5,413.7,727.5,413.8,727.5
		c-1.6-0.6-3.1-1.1-4.6-1.8c-0.9-0.4-1.7-0.9-2.7-1.3c1.1-0.4,2.2-0.9,3.2-1.5c2.3-1.3,6-2.8,6.6-5.6c0.1-0.3,0.1-0.6,0.1-0.9
		c1.9,1.3,7.3,0.3,8.8,0.2c0.2,0,0.4,0,0.6,0c-2.6,1.4-4.8,3.4-6.9,5.6C417.3,724,415.5,725.7,413.8,727.5z M386.8,725.8
		c-0.1-1.6-0.5-3.2-1.3-4.9c-1.7-3.9-3.8-7.7-6.3-11.2c-1.1-1.6-2.2-3.7-3.7-5.1c0.3-0.1,0.5-0.1,0.8-0.2c0.3,0.7,0.7,1.4,1.5,1.8
		c2,1.3,3.7,2.8,5.3,4.6c2.8,3.1,5.4,6.5,8.3,9.5c1,1,2,1.9,3,2.6c-2-0.4-4.2,0.7-6,1.6C387.9,724.7,387.3,725.2,386.8,725.8z
		 M389.3,715.3c-1.9-2.2-3.8-4.4-5.8-6.5c-1.8-1.9-4.3-2.9-6.2-4.6c2.1-0.5,4-1.3,5.3-1.8c5.9-2.2,11-5.4,15.4-9.5
		c2,1.2,3.1,4.1,4.1,6c1.5,2.7,3.7,5.2,5.6,7.7c2,2.6,4.1,5.1,6,7.9c2.6,3.9-4,6.6-6.7,8.1C399.7,726.5,393.8,720.6,389.3,715.3z
		 M423.7,715.2c-1.5,0.1-3,0.2-4.5,0.2c-1,0-2.1-0.4-3.1-0.2c-0.8-2.1-3-4.3-4.1-5.7c-3-3.8-6.2-7.8-8.6-12.1
		c-1.2-2.1-2.2-4.4-4.2-5.7c1.1-1.1,2.2-2.2,3.2-3.4c0.2-0.3,0.2-0.5,0.1-0.8c0.7-0.3,1.5-0.7,2.2-1c2.2-0.8,4.4-1.5,6.3-2.8
		c0.4,0.5,0.9,1,1.3,1.5c4.2,4.9,10.6,9.6,17.3,9.5c3.2,0.9,5.2,3,6.4,6.3c1.4,3.6,1.6,8.4-1.1,11.4
		C432.7,715.3,427.1,714.9,423.7,715.2z M393.8,671.9c0.2-0.3-0.3-0.7-0.5-0.4c-1,1.1-2.1,2.4-3.1,3.8c-4.7-0.2-9.3-0.9-14-1.3
		c-3.7-0.3-7.4,0.6-11,1.5c-0.4,0.1-0.9,0.2-1.4,0.4c-0.1-1.2-0.1-2.4,0.1-3.6c0.1-1.2,0.5-2.4,0.4-3.7c0.6-0.5,1.2-0.9,1.8-1.5
		c3.3-3.2,5.2-7.8,7.2-11.8c0.7-1.4,1.5-2.8,2.2-4.3l0.1,0.1c4.4,0.7,10.5-5.4,13.7-0.4c-2.2,3.7-2.8,8.6-2.3,12.5
		c0.7,5.5,4.6,8.3,9.8,8.9c2.3,0.2,4.6,0.1,7-0.3v0.1c0.1,2.4,1.9,4.7,3.2,6.6c1,1.5,2.1,2.9,3.3,4.3c-2.5,1.5-5.3,2.2-7.9,3.4
		c-3.6,1.7-7.5,3.9-11.3,1.7C384.9,684.2,391.2,675.8,393.8,671.9z M336.8,658.4c-1.7-4.3-3.7-10.4-0.7-14.5
		c0.1-0.1,0.2-0.2,0.3-0.2c2.5-2,4.9-4.1,7.1-6.4c0.9,0.3,1.6,0.3,2.5,0.1c2.5-0.4,4.9-0.5,7.5-0.4c4.8,0.3,9.4,0.5,14,1.6
		c0.8,1.7,2.1,3.3,3.6,4.7c1.4,1.3,2.7,1.9,4.1,2.2c0.4,3.3-2.6,7.3-4,10.1c-1.7,3.4-3.3,6.8-5.7,9.8c-4.4,5.7-11,5.3-17.5,4.7
		C341.7,669.3,339,663.8,336.8,658.4z M369.6,631.6c0.6-0.2,0.6-1,0.2-1.3c1.1-1.4,2.5-2.6,3.8-3.7c6.4-5.3,14.8-9.9,19.6-16.8
		c3.2-0.9,6.3-1.1,9.6-0.2c5.6,1.5,7.4,7.4,4.4,12.2c-1.5,2.3-4,3.9-6.1,5.5c-2.4,1.8-4.9,3.6-7.3,5.5c-3.9,2.9-7.7,6-11.7,8.7
		c-1.6,1.1-3.3,2.1-5.2,2.6c-3.2,0.9-6.3-2.8-7.8-5c-0.2-0.3-0.4-0.6-0.5-0.9c0.1-0.3,0-0.6-0.3-0.7c-0.7-2-0.4-3.8,0.5-5.4
		C369,631.8,369.3,631.7,369.6,631.6z M410.5,617.4c0.1-0.8,0.1-1.6,0-2.3c1.2-1,2.5-1.8,3.9-2.7c-0.1,6,4.7,10.6,10.1,13.3
		c-2.4,0.4-4.7,1.4-6.4,2.5c-2.1,1.4-3.8,3.3-5.3,5.4c-0.4-0.9-1-1.8-1.6-2.5c-1.4-1.8-3.8-3.9-6.1-4.3c-0.6-0.1-1,0.6-0.4,1
		c3,1.7,6.4,4.2,6.8,7.8c-1.5,2.6-2.5,5.5-3.3,8.3c-1.8,0.1-3.6,0.4-4.6,0.5c-4.2,0.4-9.2,0.8-12.4,3.8c-0.4,0.3-0.7,0.7-1,1.1
		c-3.3-4.6-9.9-0.2-14.4,0.9c0.6-1.6,1-3.2,0.9-4.8c2.1,0,4.3-1,6.5-2.4c5.6-3.5,10.9-8,16.1-12.1
		C403.9,627.3,409.7,623.9,410.5,617.4z M430.2,628c0.1,0,0.2,0,0.2,0.1c0.5,0.3,0.9,0.6,1.3,1c1.7,1.7,2.3,4.7,3.1,6.9
		c0.9,2.6,2,5.1,3,7.6c1.1,2.9,1.9,6,1.1,9c-1.1,4.1-5.5,6.9-9.5,7.2c-0.9,0.1-0.9,1.5,0,1.4c6.3-0.5,11.6-5.5,11.3-12
		c-0.2-3.4-1.7-6.8-3-10l0,0c0.1,0,0.1,0,0.2-0.1c0.6-1.5,0.3-3.1,1-4.7c1.3-2.9,5.7-4.2,8.5-2.7c0.7,1.2,1.6,2.3,2.3,3.1
		c0.6,0.7,1.2,1.4,1.9,2.1c1.1,1.4,2.6,3.1,2.4,4.9c0,0.1,0,0.2,0,0.2c-1,0.5-2,1-2.7,1.6c-4.8,3.5-7.6,9.3-10.5,14.3
		c-3.5,5.9-8.2,12-2.2,18.1c0.1,0.1,0.2,0.1,0.3,0.2c-0.2,0.2-0.4,0.5-0.5,0.7c-0.6-1.1-1.2-2.1-1.7-3.1c-1.9-3.5-4-12-8.8-13
		c0.2-0.2,0.5-0.5,0.7-0.7c2.6-3,3.8-8.7,0-11.5c-2.3-1.7-5.2-1.8-8.1-2c-2.4-0.2-4.6-1.1-6.8-1.6c-1-0.8-2.5-1-4.2-1.1
		c1.8-4.3,3.7-8.7,7-12.1c2.5-2.7,7.2-5.1,11.2-4.6C428.5,627.5,429.4,627.8,430.2,628z M446.5,629.7c-4.6-1.5-9.4,2.8-9.7,7.3
		c-1-2.8-1.7-5.8-3.4-8.3c3.4,0.5,6.9,0.4,10.2-0.5c1-0.3,1.9-0.6,2.8-1.1C446.2,627.9,446.2,628.8,446.5,629.7z M439.8,675.1
		L439.8,675.1c-2.5-4.1-3-7-0.6-11.3c1.2-2.2,2.7-4.2,4-6.4c2.7-4.6,5.3-9.6,9.6-12.9c2.2-1.6,4.8-2.2,7.4-2.1
		c4.5,0.2,3.8,5.1,4,8.2c0.2,2.8,0.3,5.5,0.2,8.3c-0.1,1.3-0.1,3,0.5,4.2c-5.2,1-10.1,3-14.8,5.4c-2.7,1.4-5.5,2.9-7.9,4.7
		C441.4,673.9,440.5,674.4,439.8,675.1z M465.4,643.7c-0.8-1.7-2.2-2.6-3.8-3v-0.1c1.9,0.4,3.9,0.5,5.8,1c1.5,0.4,3,1,4.6,1.1
		c-0.4,0.4-0.8,0.9-1.2,1.4c-1.9,2.9-2.7,6.2-3.9,9.4c-0.2,0.4-0.4,0.9-0.6,1.4c0-0.7,0-1.3,0-2
		C466.2,650.2,466.6,646.3,465.4,643.7z M455.1,641.5c0.2-0.7,0-1.4-0.3-2.1c0.9,0.6,1.9,1.1,2.9,1.4
		C456.9,640.9,456,641.2,455.1,641.5z M400.4,670.4c-5.3,0.5-10.3-1.1-11.5-6.7c-1-4.5,0.3-10.1,3.1-13.7c2.2-2.8,6.3-3.1,9.6-3.8
		c2.2-0.4,4.4-0.7,6.6-0.9c0.2,0.1,0.4,0.1,0.6,0.1c-0.1,0.4,0.2,0.9,0.7,0.8c3.4-0.3,6.2,1.1,9.4,1.8c2.1,0.5,4.3,0.3,6.5,0.8
		c7.2,1.5,3.4,9.2,0.1,12.2C418.9,666.7,408.7,669.5,400.4,670.4z M366.9,636.9c-3.6-1-7.3-1.2-11.1-1.3c-2.4-0.1-4.7-0.2-7.1,0
		c-1.7,0.2-3.2,1.1-4.9,1.2c0.6-0.6,1.2-1.3,1.7-1.9c1.1-1.3,2.9-3.5,2.7-5.4c2.5,0.7,5.2,1.2,7.6,1.8c3.6,0.9,7.4,1.6,11,1
		C366.5,633.9,366.5,635.5,366.9,636.9z M427.6,693c-7.2-1.1-12-6.2-16.4-11.6c-1.4-1.7-2.7-3.6-4-5.5c-0.6-0.9-2.2-3-2.3-4.4
		c3.2-0.6,6.4-1.6,9.3-2.6c4.6-1.6,9.3-3.8,12.8-7.2c2.5,0.3,4.2,4.5,5.2,6.4c1,2,1.9,4.1,2.9,6.1c0.7,1.4,1.5,2.8,2.2,4.2
		c0,0.2,0.1,0.3,0.2,0.4c1.1,2.4,1.9,4.8,1.4,7.6C438,691.8,432.2,693.7,427.6,693z M440.6,685.8c0.4-2.7-0.5-5.4-1.7-7.9
		c0.8-0.7,1.6-1.5,2.6-2.1c1.5-0.9,3.1-1.9,4.6-2.8c3.6-2.1,7.4-4.1,11.3-5.6c3.6-1.4,7.4-2.5,11.3-2.9c2.6-0.3,5,0.4,5.4,3.5
		c0.2,1.8-0.4,3.8-0.9,5.5c-0.9,3.4-2.8,6.3-4.2,9.5c-2,4.7-4.3,7.8-9,10.1c-3.2,1.6-7,2.8-10.5,3.6c-3.4,0.8-9.7-1.4-9.8-5.7
		c0-0.6-0.5-0.8-0.9-0.8C439.7,688.8,440.3,687.3,440.6,685.8z M467.6,689.5c0.8-1,1.4-2.1,1.9-3.3c0,2.2,1,4.2,3.5,4.9
		c-2.7-0.1-5.6,0.5-8.2,1C465.8,691.4,466.7,690.5,467.6,689.5z M492.6,630.2c-0.4,0.4-0.7,0.9-1.1,1.3c-2.5,3.3-4.8,7.1-5.9,11.2
		c-3.3-1.1-7.5-2.5-10.9-1.5c-0.1-0.1-0.2-0.1-0.3-0.1c-2.6,0-4.9-0.7-7.4-1.3c-2-0.5-5.9-1.3-7.7-0.5v-0.1
		c-0.3-0.2-0.2-0.2-0.5-0.2c-0.1,0-0.2,0-0.3,0.1c-2.4-0.8-4.7-2.4-6.5-4.2c-0.1-0.1-0.3-0.3-0.4-0.4c-0.9-1.3-1.7-2.6-2.9-3.5
		c-1-1.6-1.6-3.2-0.7-4.2c0.2-0.2,0.2-0.4,0.1-0.6c3.2-2,5.9-4.9,9-7c4-1.4,7.9-2.8,12.1-3.7c4.1-0.8,8.2-0.4,12.4,0
		c3.5,0.4,7.3,1,9.9,3.5C494.4,621.5,494,626.8,492.6,630.2z M460.8,609.1c4.4,4.7-2.9,7.5-6,9.6c-4,2.6-6.8,6.5-11.6,7.9
		c-3.8,1.1-8,0.7-11.8-0.2c-0.4-0.1-0.8-0.2-1.2-0.3c-0.4-0.2-0.8-0.3-1.2-0.4c-6.8-2.2-12-6.9-13.6-14.1c0.3-0.2,0.6-0.5,0.9-0.7
		c2.3-2,4.6-4.2,6.7-6.3c1.3-1.3,2.5-2.6,3.7-4c0.2,0.3,0.5,0.5,1,0.2c6.7-4,16.4-0.4,23.1,2.2C454.4,604.5,458.2,606.2,460.8,609.1
		z M441.9,598.4c-4.3-1-9.7-1.7-13.8,0.5c0.9-1.3,1.6-2.6,2.2-4c0.4-0.9,0.7-1.9,1-2.9c4.3,0.6,9-1.4,13.2-3.6
		c-0.8,1.5-1.2,3.1-1.2,4.9c0,2.3,1.5,4.5,3,6.4C444.8,599.2,443.4,598.7,441.9,598.4z M427.5,596.7c-2,3.5-5.4,6.3-8.3,9
		c-1.8,1.7-3.6,3.5-5.7,4.9c-1.2,0.9-2.4,1.7-3.5,2.7c-2.1-5.4-10.4-6.9-16-5.1c0-0.2,0-0.3-0.2-0.4c-0.4-6.2,1.6-13.6,4.6-18.9
		c4.2-7.6,16-8.1,23.7-7.5c4.3,0.3,7.9,2,8,6.7C430.3,591.2,428.9,594.2,427.5,596.7z M373.1,613c1.6,2.5,2.7,5.4,4.7,7.6
		c-0.2,0.2-0.5,0.4-0.7,0.6c-3.4,2.6-7.5,5.4-9.5,9.4c-6.6,1.6-13.7-1.7-20.1-3c-3.6-0.8-5.8-2.1-7-5.7c-1.6-4.9,1.1-8.1,5.2-10.1
		c5.2-2.6,11.8-3.5,17.6-3.5C367.5,608.2,370.7,609.5,373.1,613z M320.4,650.5c4.5-0.2,8.9-2,12.8-4.5c-0.6,2.1-0.5,4.5,0,6.8
		c-2.5,0.2-5,0.7-7.3,1.7c-2.5,1.1-4.7,2.7-7.1,3.9C319.9,655.8,320.4,653,320.4,650.5z M347.1,671.3c5.6,1.1,11.5,0.9,16.2-2
		c-1,2.1-1.1,4.9-0.9,7c-3.3,1.2-6.7,3.3-6.8,6.7c-3.5-2.7-7.5-4.7-11.7-6.2C345.3,675.3,346.9,673.3,347.1,671.3z M368.5,676.5
		c3.8-0.8,7.3-0.9,11.2-0.4c3.3,0.4,6.7,0.9,9.9,0c-2.4,3.7-3.8,8.2-0.8,11.8c2.4,2.9,6.3,2.6,9.5,1.5c0.5-0.2,0.9-0.3,1.4-0.5
		c-4.6,4.3-8.9,8.1-14.9,10.8c-5.1,2.3-11.8,5.2-17.2,2.6c-0.7-3.8-2.1-7.4-4.2-10.8c-1.7-2.8-3.9-5.2-6.3-7.3
		C358,678.6,363.5,677.6,368.5,676.5z M368,703.9c1.5,1,3.4,1.2,5.4,1c0,0,0,0,0,0.1c1.5,1.2,2.3,3.4,3.4,4.9
		c1.6,2.2,2.9,4.4,4.2,6.8c2.5,4.5,4.9,8.7,3.1,13.8c-1.2,3.4-4.5,7.9-8.5,8c-1.3-0.7-2.7-1.3-4.1-1.8c-1.1-1-2.1-2.2-3-3.1
		c-1.8-1.9-4.1-3.6-5.1-6.1c-0.1-0.3-0.3-0.4-0.5-0.5c1-1.8,2-3.6,2.8-5.6C368,715.6,368.8,709.7,368,703.9z M362.1,728.3
		c0.9,2.2,2.9,3.8,4.6,5.5c0.5,0.5,1.1,1.2,1.7,1.8c-4.1-0.9-8.3-0.5-12.2,0.8C358.3,733.9,360.4,731.2,362.1,728.3z M384.2,734.6
		c1.3-1.7,2-3.6,2.4-5.4c0.6-0.8,1-1.8,1.7-2.6c1.7-1.9,4.6-2.2,6.9-2.7c0.2,0,0.3-0.2,0.3-0.4c2.9,1.7,6.1,2.1,9.4,1.4l0,0
		c1.1,1,2.7,1.7,4,2.3c1.1,0.6,2.4,1.2,3.7,1.5c-1.7,1.8-3.4,3.6-4.8,5.6c-1.9,2.5-4.3,6.4-3.9,9.9c-0.2-0.2-0.4-0.4-0.6-0.6
		c-6.6-5.8-16.7-7.5-24.6-3.5c-0.2-0.2-0.5-0.3-0.7-0.5C380.4,738.9,382.6,736.9,384.2,734.6z M414,766.9
		c-0.3-6.6-2.4-13.1-6.3-18.4c3.9,1.3,9.7,0.2,12.6-0.2c7.8-1.1,17.3-0.6,23.6-5.9c0.9,2.9,2.2,5.6,3.8,8.2c-3,0.5-5.9,1.9-8.8,2.9
		c-3.9,1.3-7.9,2.1-11.7,3.7C422.1,759.5,417.7,762.8,414,766.9z M443.3,740.6c-5.5,5.3-14.1,4.9-21.2,5.9c-4.5,0.6-12.2,2.7-16-0.6
		c-3.2-2.8,2.4-9.8,4.2-12c2.8-3.4,6.1-6.4,9.2-9.6c3.6-3.7,7.2-7.3,12.7-7c4.4,0.2,8.9,0.9,13.2,2.1c-0.9,2.2-1.7,4.4-2.2,6.6
		C442,731.1,442.2,736,443.3,740.6z M445.9,718.2c-3.8-2-8-3-12.2-3.2c1.4-0.7,2.6-1.6,3.6-3.1c3.1-4.9,1-14.2-4.2-17.5
		c0.3-0.1,0.5-0.1,0.8-0.2c1.7-0.6,3.1-1.6,4.2-3c-0.1,2.9,3,5.3,5.3,6.7c3.7,2.3,9-0.1,12.5-1.4c2.6-0.9,5-1.9,7.2-3.2
		c3.5,0,15.8-2.8,14.6,3.1c-0.1,0.3,0.1,0.5,0.3,0.7c-1.2,0-2.4,0-3.7,0C461.6,697.6,451.2,707,445.9,718.2z M476.5,691.7
		c3.7,0.6,7.3,1.4,11.1,1.3c5-0.1,10-2.4,14.6-4.1c0.3-0.1,0.2-0.6-0.1-0.5c-3.3,0.4-6.6,1.4-9.9,2c-4.5,0.8-8.4,0.8-13,0
		c-1.1-0.2-2.3-0.4-3.4-0.6c-3.4-0.4-5.1-2.6-4.3-6c0.7-3.2,3.9-5.8,6.1-8c9.2-9,23-9.2,35.1-8.3l0,0c1.4,0.6,2.8,1,4.2,1.7
		c2.5,1.3,3.2,5.8,3.7,8.2c1,5.3,0.8,10.5-4,13.8c-3.8,2.6-8.3,4.2-12.7,5.2c-5,1.2-10.2,0.9-15.2,2h-0.1c-3.3-0.7-6.6-1.2-10.1-1.4
		c0.1-0.1,0.2-0.1,0.2-0.2C480.1,694.6,478.9,692.5,476.5,691.7z M522.2,686.8c1.2-3.8,0.6-8-0.4-11.8c-0.6-2.3-1.6-4.8-3.4-6.5
		c-0.3-0.3-0.7-0.5-1.1-0.7c0.3-0.4,0.2-1.1,0.2-1.6c0.1-0.7,0.2-1.4,0.5-2c0.2-0.3-0.1-0.7-0.5-0.6c-0.7,0.3-1,1.2-1.2,1.9
		c-0.2,0.5-0.4,1.3-0.3,1.9c-0.3-0.1-0.6-0.1-0.9-0.2c0-0.2-0.1-0.5-0.4-0.5c-1.5-0.3-3.1-0.5-4.6-0.7c0.4-0.8,0.7-1.6,1.2-2.4
		c0.4-0.7,1-1.2,1.4-1.8c1.5-0.6,2.9-1.3,4.4-2c3.6-1.8,7.2-3.7,10.6-6c0,0.2,0.1,0.4,0.3,0.5c1.4,1.1,3.2,1.6,4.6,2.6
		c-0.9,1.4-1.5,3.1-1.7,5.2c-0.4,4.9,1.8,8.5,5.9,10.9c2.5,1.5,5.1,2.6,7.5,4.3c0.8,0.6,1.7,1.1,2.5,1.6
		C537.6,678.5,529.6,681.2,522.2,686.8z M552.7,679.4c0-0.3-0.2-0.6-0.5-0.6c-4.6-0.7-7.9-4-11.9-6.1c-2.4-1.2-4.8-2.4-6.3-4.7
		c-1.4-2-1.3-5.2-0.9-7.5c1.3-8.6,16.1-7.9,23.2-10.3c0.3,1.4,0.9,2.8,1.8,4.2c2.3,3.6,7.5,6.5,12.2,6.4c-0.5,0.7-0.9,1.5-1.2,2.5
		c-1,3.2-0.7,7,1.8,9.3c1.1,1,2.7,1.6,4.4,1.9c-0.3,0.5-0.4,1-0.6,1.5c-0.5,1-1.1,2-1.8,2.9c-1.3,1.7-3,2.7-5,3.4c0,0-0.1,0-0.1,0.1
		C562.7,681.1,557.7,680,552.7,679.4z M569.6,682.6c1.5-0.5,2.8-1.6,3.8-2.6c1.2-1.2,3.2-3.6,3-5.5c1.2,0.1,2.4,0,3.5-0.1
		c-2.2,2.9-3.4,6.3-5,9.6C573.1,683.4,571.3,683,569.6,682.6z M606.2,684c-2.9,2-6.4,4.9-6.6,8.6c0,0,0,0,0,0.1
		c-3.1-0.2-6.3-0.1-9.1,0.9c-2.3-2.7-5.1-4.9-8.3-6.6c-1.8-1-3.8-1.8-5.8-2.4c1.9-3.3,2.9-6.9,5.4-9.8c3-3.6,7.4-6.3,12.2-5.6
		c7.8,1.2,7.6,10.6,13.4,14.1C607,683.4,606.6,683.7,606.2,684z M615.1,663.1c0.9,3.5-1.4,6.5-3.2,9.2c-1.8,2.8-3.4,5.6-5.3,8.3
		c0,0,0,0.1-0.1,0.1c-1.8-2.7-3-5.9-4.8-8.6c-2.1-3.1-5.7-4.7-9.3-4.9c-3.9-0.2-7.5,2.3-10.3,4.7c-0.3,0.3-0.5,0.6-0.8,0.8
		c-3.1,0.7-8.1,0.3-10.2-2.4c-1.9-2.6-0.7-7.3,1.1-9.5c0.1-0.2,0.3-0.3,0.5-0.5c0.1,0,0.3-0.1,0.4-0.1c0.3-0.1,0.5-0.4,0.5-0.6
		c1.4-1,3-1.7,4.4-2.8c1.7-1.4,3.5-3.9,5.7-4.9c1.1,0.1,2.3,0.1,3.2,0.2c6.3,0.2,12.8,0.1,19-1C609.2,655.1,613.7,657.7,615.1,663.1
		z M596,625c2.3-1.9,4.5-3.9,7.5-4.3c1.9-0.2,4.2,0.2,6.1,1.1c-0.1,0.2,0,0.5,0.4,0.6c0.5,0.1,1,0.3,1.4,0.5c0.1,0,0.1,0.1,0.2,0.1
		c0.1,0.1,0.2,0.1,0.3,0.1c3.2,1.6,5.7,5,7.6,7.7c2.6,3.8,3.7,7.9,0.5,11.7c-6.1,7.3-19.2,7.4-27.8,7.6c-4.3,0.1-9.6,0.4-13.5-1.5
		c-6.9-3.4,1.8-10.2,4.6-12.9C587.5,631.9,591.7,628.5,596,625z M567.4,626.6c2.1-1.4,4.9-1.9,7.4-1.8c4.8,0.2,4.6,6.9,8.3,8.7
		c-0.3,0.3-0.7,0.7-1,1c-3.5,3.4-9,6.9-7.2,12.5c0.9,2.8,3.6,4,6.4,4.5c-1.7,1.1-3.3,2.7-4.7,3.9c-1.7,1.4-3.4,2.3-4.9,3.5
		c-5,1-10.9-3-13.1-7.2c-3.3-6.2,1.9-13,4.4-18.5C564.1,630.8,565.1,628.1,567.4,626.6z M546.7,621.4c5.6,2.3,11.7,5.3,17.9,5.2
		c-1.7,2.1-2.7,4.9-3.8,7.3c-2.4,5-5.3,10-4.6,15.1c-5.7,1-11.6,1.5-17.1,3.3c-2.2,0.7-4,1.7-5.3,3.1c-1.5-1.1-3.3-1.8-5-2.4
		c2.4-1.7,4.7-3.5,6.8-5.4c4.1-3.8,7.3-8.5,5.4-14.2c-1.3-3.8-4.8-6.8-8.7-8.1c-0.1-0.1-0.2-0.2-0.3-0.3c-1.1-0.2-2.1-0.4-3.2-0.6
		c0.9-2.6,3.3-3.7,5.8-4.6C538.7,618.2,542.7,619.8,546.7,621.4z M527.1,624.2c-6.6-1-13.3-1.3-20-0.7c-5,0.5-8.8,1.6-12.1,4.3
		c0.4-2.2,0.3-4.6-0.2-6.6c-0.8-3.5-4.3-5.4-7.4-6.4c-0.1,0-0.3-0.1-0.4-0.1c2.9-3.9,7.3-4.8,12.1-4.5c4.9,0.4,9.8,1,14.7,1.3
		c2.4,0.2,4.9,0.4,7.3,0.5c2.4,0.2,5.9-0.1,7.4,2.3c0.8,1.3,1,3.7,2,5.1C528.6,620.6,527.2,622.1,527.1,624.2z M537,599.5
		c1.8,1.2,12.5,6.6,7.1,9.8c-6.5,3.8-15.7,2.3-22.2-0.5c-3.4-1.5-6.3-3.8-8.8-6.5c-2.6-2.9-3.8-6.2-5.8-9.4c2.8-2,5.2-3.9,9-4.2
		c4.4-0.4,8.2,1.8,11.8,4.1C531.3,594.7,533.8,597.5,537,599.5z M511.6,574.5c4.6-0.1,9.5-0.5,13.8,1.4c2.5,1.1,4.9,4,4.2,6.8
		c-0.7,2.7-3.3,4.9-5.8,5.8c-2.4-1-4.9-1.6-7.6-1.5c-4.3,0.2-6.9,2.5-9.8,5.3c-0.3,0.1-0.5,0.3-0.6,0.6l0,0
		c-0.2,0.2-0.1,0.6,0.2,0.6c0.1,0.2,0.2,0.5,0.3,0.7c-1.5,0.3-2.9,0.8-4.4,1.2c-1.5,0.3-3.1,0.4-4.5,1c-1.5-0.5-3.1-0.8-4.5-0.8
		c-5.3-0.2-10.9,2-15.8,3.9c-2.6,1-5.1,1.9-7.6,3.1c-3,1.4-5.8,3-9,3.8c-2-1.6-4.5-2.8-6.4-3.7c-1.8-0.8-3.6-1.6-5.4-2.2
		c-1.2-1.6-2.4-3.1-3.3-4.9c-2.3-4.3,1-8.7,4.9-10c3.6-1.1,7.4-1.2,11.1-0.2c2.4,0.7,4.5,1.7,7,2c5.2,4.4,11.7,7.6,17.4,8.3
		c4.5,0.5,8.4-0.3,10.7-4.5c1.8-3.2,0.8-7-2.1-9c-1.2-1.5-2.3-3.1-3.3-4.7C493.7,571,506.2,574.7,511.6,574.5z M477.9,563.4
		c4.4,1.6,5.9,5.8,8.5,9.4c2.4,3.2,4.6,6.4,7.1,9.5c-0.1,0.2-0.1,0.5,0.2,0.6c4.5,3.3,2.3,9.6-2.4,11.3c-4.2,1.5-9.8-0.8-13.5-2.7
		c-8-4-17.7-12.1-17.3-21.8C460.9,560.3,471.6,561,477.9,563.4z M460.6,577.3c1.3,3,3.4,5.9,6.1,8.5c-3.1-1.2-6.2-2.4-9.6-2.6
		c-0.7,0-1.6,0-2.4,0c1.3-0.7,2.6-1.4,3.8-2.1C459.9,580.1,460.5,578.8,460.6,577.3z M457.3,572.2c1.2,1.2,1.8,2.6,1.9,4.3
		c0.2,2.7-1.8,3.6-3.7,4.5c-2.3,1.1-4.5,2.3-6.8,3.5c-0.1,0.1-0.3,0.1-0.4,0.2c-0.1,0.1-0.3,0.1-0.4,0.2c-5.3,2.7-10.5,4.9-16.3,5.8
		c0.3-1.8,0.3-3.6-0.1-5.3c-1-3.7-4.5-4.9-7.9-5.5c-3.9-0.7-7.9-0.3-11.8,0.3c-0.2-0.3-0.4-0.6-0.5-1c-0.1-0.5,0.2-1,0.3-1.5
		c0.2-0.7,0.7-1.4,0.8-2.1c5.3,1.5,10.7,1.3,15.3-3.5c1.1-1.1,1.7-2.3,2.1-3.6C438.9,569.8,449.8,565.1,457.3,572.2z M388.4,556.3
		c0.7-4.6,5.1-7.6,9.3-8.7c4.5-1.2,8.7,0.5,12.8,2.1c2.2,0.9,4.9,2.7,7.4,2.5c4.9,1.3,8,4.5,9.7,9.2c2,5.5-0.2,10.5-5.7,12.8
		c-8.7,3.6-19.2-5.1-26.6-8.7c-1.5-0.7-3-1.5-4.2-2.5c0.2-0.1,0.2-0.6-0.2-0.6c-0.2,0-0.4-0.1-0.6-0.1
		C388.9,560.7,388,558.8,388.4,556.3z M371.5,563.6c2.9-1,5.9-1.8,9-2c2.5-0.2,5,0.5,7.4,1c2,2.8,5.9,4.4,8.8,5.8
		c0.6,0.3,1.3,0.6,1.9,1c0.7,3.1-1.4,6.1-4.2,7.7c-1.7,0.9-3.7,1.3-5.5,2c-1.5,0.5-2.8,1.2-4.3,1.8c-1.7-0.6-3.4-0.9-5.4-0.8
		c-2.5,0.2-4.5,1.4-6.5,2.5c0.3-0.6,0.6-1.2,0.8-1.9c1.2-3.6-2.6-6.4-5.2-8c-2.6-1.5-5.2-2.2-7.9-2.1
		C362.8,566.6,367.2,565,371.5,563.6z M352.2,574c4-1.8,8.5-3.2,12.8-1.6c3.8,1.4,8.9,4.4,6.9,9.2c-0.3,0.6-0.6,1.2-1,1.7
		c-0.1,0-0.2,0.1-0.3,0.1c-0.3,0.1-0.3,0.4-0.2,0.6c-1.6,2.1-4,3.7-5.9,5.4c-0.2-0.3-0.4-0.6-0.6-0.8c-2.4-3.3-5.5-6.2-8.9-8.3
		c-3.5-2.2-6.5-1.2-8.9,1.2v-0.1c0.1-1.5,0.1-3-0.1-4.5C348.1,576.6,350.4,574.9,352.2,574z M318.2,569.8c4.7-5.6,10.7-6.6,17.1-3.2
		c2.5,1.3,4.9,3.1,6.8,5.3c2.4,2.6,2.7,6.3,3,9.7c0,0.4,0.4,0.6,0.7,0.5c-0.4,0.5-0.9,1-1.3,1.6c-0.3,0.4,0.3,0.8,0.6,0.5
		c1.5-1.2,2.6-2.6,4.5-3.3c2.7-0.9,5.7,1.6,7.5,3.2c2.2,1.8,4,3.8,5.7,6.1c2.7,3.8,8.3,12.3,2.9,16c-0.1,0.1-0.2,0.2-0.3,0.3
		c-0.8,0-1.5-0.1-2.2-0.1c-3.7,0-8.2,0.4-12.5,1.4c2.1-3.3,0.3-8.7-0.8-12c-1.2-3.2-2.4-6-3-9.3c-0.3-1.5-1.6-2.2-3.2-2.3
		c-3.8-0.2-7.2,2.1-10,4.7c-0.1-0.3-0.4-0.5-0.7-0.4c-4.4,0.7-9.7-0.1-13.9-2c-0.2-0.2-0.4-0.4-0.7-0.3c-0.2-0.1-0.4-0.2-0.6-0.3
		c-2.5-1.4-5.7-4.8-5.1-7.9C313.2,575.1,316.5,571.8,318.2,569.8z M295.2,563.9c3-1.8,6-2.7,9.5-1.8c4.6,1.2,7.5,5.1,10.6,8.2
		c-1.7,2.1-3.4,4.5-4.3,7c-1.1,3,1.4,5.9,3.3,7.8c0.8,0.8,1.7,1.5,2.7,2.1c-3.9,3.6-9.6,6.9-14.8,5.2c-3.7-1.3-9.2-3.6-11.1-7.4
		c1.4-0.2,2.8-0.3,4.2-0.5c3.3-0.5,1.3-3.6,0-5.1c-1.8-1.9-0.8-4.3-1.8-6.5c-0.8-1.7-1.8-3.2-2.9-4.7
		C291.2,566.1,293.4,565,295.2,563.9z M259.7,552.7c-0.1-2.6,2.8-3.4,4.8-4c7.1-2,14.1-4.1,21.4-2.6c0.1,0.3,0.3,0.6,0.7,0.6
		c0.5,0,1,0,1.4,0c0.1,0,0.2,0.1,0.3,0.1c0.2,0.1,0.3,0,0.4,0c1.4,0.1,2.7,0.6,3.4,2.3c0.7,1.7,0.3,4-0.1,5.7
		c-0.9,3.7-4.8,5.6-8.2,6.3c-5,1.1-10.5-0.3-15.4-1.7c-2.4-0.7-4.8-1.6-6.8-3.1C260.4,555.4,259.7,554.2,259.7,552.7z M258.5,567.8
		c2.5-2.8,5.5-5.2,8.9-6.7c0.1,0,0.1-0.1,0.2-0.2c0.1,0,0.2,0.1,0.3,0.1c4.2,1.4,9.6,2.7,14.4,2.2c2.4,0.9,4.7,3.4,6.2,5.1
		c1.3,1.4,2.3,3,3.2,4.6c1,1.8,0.5,4,1.2,5.9c0.2,0.7,0.8,1.1,1.3,1.6c2.5,2.3,0,2.5-1.9,2.6c-1.4,0-2.8,0.5-4.1,0.9
		c-2.5,0.8-4.6,1.3-7.2,1.3c-4.7-0.1-9.3-1.3-13.8-2.5c-3.8-1-8.5-0.4-11.7-3.1C251.6,576.5,256.3,570.3,258.5,567.8z M243.7,588.2
		c0.6-1.5,1.6-2.7,2.8-3.9c1.2-1.1,2.5-2.1,4-2.9c1.1-0.6,2.2-0.6,3.3-0.9c1.9,2.2,5.7,2.8,8.4,3.2c6.4,0.8,12.4,3,18.8,3.4
		c0,0.2,0.1,0.4,0.1,0.6c0.1,0.5,0.1,1.1,0.2,1.6c0,0.1,0,0.2,0,0.3c-2.8,0-5.6,0.8-8.1,1.7c-5.5,2-7.3,6.6-10.9,10.5
		c-0.1-1.2-0.6-2.4-1.5-3.7c-3.2-4.6-10.5-4.1-15.3-3.6c-0.7,0.1-1.4,0.2-2.2,0.3C243,592.5,242.7,590.6,243.7,588.2z M223.4,604.6
		c0.8-3.5,4.3-4.8,7.3-5.6c4.1-1.2,8.6-1.8,12.9-2.4c4.4-0.7,9.6-1.2,13.7,0.8c2.7,1.4,4.1,4.8,2.9,7.6c-1,2.4-3.4,4.1-5.3,5.9l0,0
		c-6.3-2.8-11.6,0.6-15.1,6.1c-0.2,0.2-0.1,0.5,0.1,0.7c-0.8,0-1.5,0.1-2.3,0.2c-0.6,0.1-1.2,0.4-1.8,0.7c-4.1-1.6-7.8-4.2-11.9-5.5
		C222.8,610.5,222.8,607.3,223.4,604.6z M214.1,634.9c-2.1-4.7-5-9.4-5.1-14.8c0-6,10.4-6.4,14.1-5.3c3.9,1.1,7.4,3.5,11.3,4.7
		c-3.8,2.8-6.8,8.6-7.9,12.3c-1,3.3,2.4,7.6,5.8,8.4c-3.6,1-7.3,2.1-10.9,3.3C217.3,642.8,215.7,638.3,214.1,634.9z M235.4,639.4
		c-0.1-0.3-0.4-0.7-0.8-0.6c-3.2,0.6-6.7-3.7-6.2-6.5c0.3-2.2,2.1-4.5,3.3-6.4c1.4-2.2,3-4.2,5.2-5.6c2.9-1.8,6.5-0.2,9.3,1
		c4.1,1.8,8.5,2.4,12.8,3.6c3,0.8,6.2,2.2,7.8,4.9c0.8,1.3,1,3,1.7,4.4c-2.9,0-5.8,0.1-8.7,0.4C251.3,635.4,243.3,637.2,235.4,639.4
		z M278,634.9c-1-2.8,1.7-7.3,2.4-9.9c1.2-4.4,1.7-9.6,5.2-12.9c1-0.9,2.2-1.8,3.6-2.5c0.2,0,0.4,0,0.6-0.2c0.1-0.1,0.1-0.2,0.2-0.3
		c2.9-1.4,6.2-2.2,9-1.9c3.5,0.5,5.8,3.7,9.2,4.6c0.8,3.5,1,7.2,2.7,10.4c0.1,0.1,0.2,0.2,0.3,0.3c-7.5,4.5-9.2,14.6-4.4,21.4
		c-1.1,0.6-2.1,1.2-3.3,1.5c-0.3,0.1-0.6,0.1-1,0.2C295.7,639.2,287,636,278,634.9z M303.8,647c1.3-0.3,3-1,3.8-2
		c0.5,0.6,1.1,1.2,1.7,1.7c3.2,2.7,6.8,3.8,10.3,3.8c-0.7,4.2-1.9,8.3-4.4,11.8c-0.8,1.1-1.9,2.2-2.9,3.4
		C312.2,658.7,308.5,652,303.8,647z M265.5,799.6c-5.1,2.1-10.3,4-15.8,4c-10.2,0-17.9-9.8-24.7-16.1c-6.5-6-14.5-10.4-17.9-19
		c-3.8-9.5,1.3-19.5,1.2-29.3c0.1,0,0.3-0.1,0.4-0.1c9.8-2.4,18.6-8.2,28.2-11.4c4.5-1.5,9.1-3,13.4-5c4.1-1.9,7.5-5,10.9-8
		c13.2-11.9,30.5-18.8,43.2-31.3c1.4-1.4,2.6-2.9,3.7-4.5c0,0,0.1,0,0.1-0.1c7.1-4.4,16.6-3.6,24.4-2.4c8,1.3,15.8,3.9,22.2,9.1
		c6.3,5.1,10.2,12.6,10.8,20.7c0.6,8.1-2.6,15.9-6.9,22.5c-8.7,13.2-22.6,22.3-34.2,32.7c-6.8,6.1-12.8,12.7-20.3,18
		c-6.6,4.7-13.7,8.6-20.9,12.2c-0.3,0-0.6,0.1-0.7,0.4c-1.2,0.6-2.3,1.1-3.5,1.7C274.7,795.8,270.1,797.7,265.5,799.6z M374,802.6
		c-7.3,5.6-15,10.9-23.6,14.3c-9.5,3.8-19.3,3.4-29.1,1.3c-2.1-0.5-4.1-1-6.2-1.5c-3.1-1.9-6.3-3.5-9.1-5.9c-3.5-3-4.6-6.9-6.4-11
		c-0.2-0.4-0.8-0.1-0.7,0.3c1,4.3,1.8,8,4.9,11.2c1.2,1.2,2.5,2.4,4,3.4c-3.7-0.9-7.5-1.4-11.2-2.2c-9.8-2.1-9.7-10.8-12-18.6
		c0.7-0.4,1.4-0.7,2.1-1.1c8.4-4.2,16.4-9.1,23.8-14.8c6.7-5.2,12.3-11.6,18.7-17.2c6-5.2,12.2-10,18-15.3c1.7-1.6,3.4-3.2,5-4.8
		c8.1-4,15.9-4.2,23.9,0.5c7.3,4.4,12.7,12,15.8,19.7c2.9,7.3,3.2,15.4,0.4,22.7C389,792.2,380.8,797.3,374,802.6z M396.1,821.6
		c-6.6-5.3-13.2-13.3-14.8-21.8c0.8-0.6,1.6-1.2,2.3-1.8c6,1.2,14.6,1,19.1-3.6c-0.5,7.5,1.1,14.9,6.1,20.5
		c3.1,3.4,7.1,5.7,11.5,7.1C414.4,829,402.4,826.7,396.1,821.6z M459.4,812.1c-2.6,2.6-5.2,5.1-8.3,7.1c-4,2.6-8.7,3.2-13.4,3.1
		c-7.8-0.1-16.3-1.2-23-5.4c-13.9-8.7-10.9-27.9-4.9-40.6c3.5-7.3,9.2-13.1,16.3-16.9c3.8-2,8-3.1,12.2-4.2
		c3.5-0.9,6.7-2.6,10.2-3.4c3.6,5.4,8.4,10.3,13.5,14.4c3.3,2.6,6.8,4.8,9.8,7.8c3.1,3.2,5.3,7,9.4,9.1c3.5,1.8,7.7,2.4,11.4,3.7
		l0,0C479.4,791.8,469.2,802.5,459.4,812.1z M566.2,776.7c-3.5,3.7-8.4,6-13.1,7.5c4.3-2.4,8.2-5.6,10.5-9.7
		c0.2-0.4-0.4-0.8-0.6-0.4c-3.9,5.4-9.7,8.3-15.3,11.5c-3.1,0.7-6.3,1.2-9.4,1.8c-5.4,1.1-10.8,2.4-16.2,3.3c-5.8,1-11,0.2-16.1-1.3
		c4.1-1.2,8.1-3.4,11.5-5.7c0.7-0.4,0.1-1.4-0.6-1c-4.3,1.9-8.1,4.6-12.5,6.2c-1.8-0.6-3.6-1.2-5.4-1.9c2.5-0.4,5-1.1,6.8-1.6
		c3.8-1.1,7.5-2.5,11.1-4.3c4.2-2.1,7.4-5.4,11.5-7.6c0.2-0.1,0-0.4-0.1-0.3c-2.8,1.1-5.2,2.9-7.8,4.6c-3.7,2.4-8.2,3.9-12.4,5.3
		c-3.9,1.3-8.3,2.7-12.5,2.6c-0.8-0.3-1.7-0.6-2.5-1c-4.2-1.6-8.8-2.2-12.7-4.6c-2-1.3-3.5-3.5-5-5.3c-1.6-1.9-3.4-3.7-5.4-5.4
		c-6.4-5.2-12.9-9.8-18-16.3c4.3,1.9,11.7-0.1,15.4-1.1c8.4-2.2,16-7.9,24.6-8.9c3.9-0.5,6.2,2,6.5,5.8c0.3,3.9-1.2,7.5-4.1,10.1
		c-6.1,5.4-17.8,6.6-25.1,3.9c-0.4-0.1-0.6,0.5-0.3,0.6c7.5,3.5,17.3,2.6,24.4-1.4c5.5-3.1,9.4-11.1,6.2-17.2
		c-3.8-7.4-13.8-2.7-19.3-0.3c-5.1,2.2-10,4.5-15.5,5.9c-2.5,0.6-5.1,1-7.7,1.2c-2.2,0.1-4.2-0.6-6.3-0.9c0-0.2-0.2-0.4-0.5-0.4
		c-0.2,0-0.4,0-0.6,0c-2-3.1-3.5-6.5-4.4-10c0-0.2,0-0.4-0.2-0.6c-1-4.3-1.1-8.9-0.1-13.4c1.8-8.6,7.2-16.5,14.2-21.7
		c8.3-6.2,18-6.2,27.8-4.5c4.5,0.8,8.8,2.4,13.2,3.6c2.6,0.7,8.1,1.7,9.8,4.4c0,1.3,0.2,2.5,0.5,3.6c0,0.6,0.1,1.3,0.3,1.9v0.1
		c0,0.1,0.1,0.2,0.1,0.2c1.5,5.2,6.9,9.4,10.1,13.3c5.1,6.3,9.4,12.9,15.6,18.2c5.6,4.8,12.5,7.2,18.9,10.7c5.4,3,10.4,6.8,16,9.5
		C570.4,769.8,569.2,773.6,566.2,776.7z"/>
	<path class="st1" d="M317.5,637.1c2.8,1.2,7.5-1.4,10-2.6c2.4-1.2,7.2-3.4,7.8-6.4c0.1-0.8-0.8-1.1-1.2-0.5
		c-1.9,2.5-4.6,4.1-7.4,5.5c-1.8,0.9-3.6,1.7-5.5,2.4c-0.6,0.2-1.2,0.4-1.8,0.6c-0.5,0.1-1.8,0.8-1.1,0c0.1-0.1,0-0.2-0.1-0.1
		c-0.3,0.2-0.5,0.4-0.8,0.7C317.3,636.8,317.4,637.1,317.5,637.1z"/>
	<path class="st1" d="M361.2,613.5c-0.5,0.1-0.4,0.8,0,0.9c2,0.8,9.8,1.6,5.1,5c-2.8,2.1-8.5,2.3-11.1-0.1c-0.4-0.3-0.9,0.1-0.7,0.5
		c2.4,4.5,11,3.1,13.8-0.2C372,615.5,364.3,612.8,361.2,613.5z"/>
	<path class="st1" d="M382.8,626.5c2.7-1.8,6.2-4.3,7.4-7.4c0.2-0.6-0.7-1-1.1-0.4c-2.6,4.7-8.4,8.6-13.4,10c-0.1,0-0.1,0.1,0,0.2
		C377.5,630.3,381.4,627.4,382.8,626.5z"/>
	<path class="st1" d="M421.1,589.8c-1.9,5.9-7.9,11.5-13.5,14.1c-0.3,0.2-0.2,0.7,0.2,0.7c3.4-0.4,6.7-3.5,9.1-5.7
		c2-1.8,6.3-5.9,5.5-9C422.2,589.1,421.3,589.2,421.1,589.8z"/>
	<path class="st1" d="M427.8,607.8c-1.8,5.3,7.4,11.8,11.2,13.5c0.4,0.2,0.8-0.4,0.4-0.6c-1.9-1.4-3.7-3.1-5.4-4.8
		c-1.9-1.9-4.9-4.6-5-7.5c-0.2-4.3,10.3-1.8,12.3-1.3c3.3,0.8,7.2,2,10.5,1.1c0.7-0.2,0.6-1.3-0.2-1.3c-5.5,0-10.6-1.8-16-2.2
		C433,604.5,428.8,604.8,427.8,607.8z"/>
	<path class="st1" d="M316,617.5c0.3,0.3,0.6,0,0.7-0.3c0.2-1.3-0.8-2.6-1.5-3.6c-0.9-1.1-2-2.2-3.3-2.8c-0.1,0-0.2,0.1-0.1,0.1
		c0.7,1.1,1.5,2.1,2.3,3.1C314.7,615.1,315.1,616.6,316,617.5z"/>
	<path class="st1" d="M290.5,617.8c-0.2-0.3-0.7-0.3-0.8,0.1c-0.6,2.7-0.4,5.9-0.4,8.7c0,2.2,0.2,4.8,2,6.2c0.4,0.3,0.8-0.2,0.7-0.5
		c-0.5-2.8-0.9-5.3-0.8-8.1C291.3,622.1,291.7,619.5,290.5,617.8z"/>
	<path class="st1" d="M304.2,623.6c0.5,0.3,1-0.2,1-0.7c-0.2-1.3-1.3-2.5-1.9-3.6c-0.7-1.2-1.5-2.5-2.6-3.3c-0.5-0.4-1,0.3-0.8,0.8
		c0.6,1.3,1.5,2.4,2.2,3.7C302.6,621.6,303.1,622.9,304.2,623.6z"/>
	<path class="st1" d="M240,630.7c-1.9-0.2-3.7-0.8-5.5-1.3c-0.6-0.2-0.9,0.6-0.4,0.9c1.4,0.9,2.9,1.4,4.5,1.8
		c1.6,0.3,3.6,0.7,5.2,0.3c0.4-0.1,0.5-0.7,0.1-1C242.7,630.8,241.3,630.9,240,630.7z"/>
	<path class="st1" d="M337.3,580.3c0.2-0.1,0.4-0.4,0.3-0.6c0-1.3-4.4-0.4-5.2-0.4c-2.8-0.1-10.2-0.3-11.2-3.8
		c-0.1-0.4-0.6-0.3-0.6,0.1C320.2,581.3,333.9,582.1,337.3,580.3z"/>
	<path class="st1" d="M332.7,573.8c1.8,0.8,3.7,1.9,5.7,2.5c0.2,0.1,0.3-0.2,0.2-0.4c-1.1-1.4-3-2.3-4.6-3c-1.8-0.9-3.7-2-5.7-2.5
		c-0.4-0.1-0.7,0.4-0.4,0.7C329.2,572.4,331,573.1,332.7,573.8z"/>
	<path class="st1" d="M342.8,602.9c-0.1,0.9,1.4,0.9,1.4,0c0.2-3.6,0.4-7.3-1.3-10.6c-0.2-0.4-0.9-0.1-0.7,0.3
		C343.6,595.9,343.1,599.5,342.8,602.9z"/>
	<path class="st1" d="M387,599c0.5-0.1,0.4-0.8,0-0.9c-2.7-0.9-4.9-2.1-7.3-3.8c-2-1.4-4.3-3.3-6.7-3.9c-0.1,0-0.1,0-0.1,0.1
		c1,2.6,4.4,4.2,6.6,5.8C381.6,597.9,384.3,599.8,387,599z"/>
	<path class="st1" d="M349,657.5c4.9,1.1,10.1-2.2,14.1-4.8c1.9-1.2,6.5-5.3,2.2-6.5c-0.4-0.1-0.6,0.3-0.4,0.6
		c1.9,2.3-3.3,4.9-4.9,5.8c-3.3,2-6.9,3.7-10.8,4C348.6,656.6,348.4,657.4,349,657.5z"/>
	<path class="st1" d="M356.2,642c2.4,0.8,4.7,2.4,7.3,2.5c1,0,1-1.4,0-1.5c-2.6-0.3-4.7-2.2-7.3-1.6
		C355.9,641.4,355.9,641.9,356.2,642z"/>
	<path class="st1" d="M327.6,663.7c1.2-0.4,2.8-0.6,3.7-1.5c0.4-0.4,0.1-1-0.3-1.1c-1.1-0.4-2.4,0.5-3.4,1c-0.8,0.4-2.6,0.9-3,1.8
		c0,0.1,0,0.1,0,0.1C325.4,664.7,326.9,664,327.6,663.7z"/>
	<path class="st1" d="M406.8,652.8c-3,0-6.5,0.2-8.9,2.2c-0.3,0.2,0,0.7,0.3,0.6c3.2-0.8,6.3-1.2,9.6-1.1c2.9,0.1,6.4,1.2,9.2,0.4
		c0.4-0.1,0.4-0.6,0.1-0.8C414.3,652.5,409.9,652.8,406.8,652.8z"/>
	<path class="st1" d="M426.8,676.4c-2.2-1.8-3.5-3.9-4.7-6.4c-0.2-0.5-0.8-0.1-0.8,0.3c0.7,5.2,6.9,10.2,11.8,11.5
		c0.7,0.2,1-0.7,0.5-1.1C431.4,679.2,428.9,678.2,426.8,676.4z"/>
	<path class="st1" d="M373,685c3.4-1.4,7.3-1.3,10.5-3c0.5-0.2,0.3-1.1-0.3-1c-5.5,0.7-10.4,2.7-15.5,4.4c-0.1,0-0.2,0.3-0.1,0.4
		C369.1,687,371.4,685.6,373,685z"/>
	<path class="st1" d="M379.9,657.7c-1.9,0.9-3,3.4-3.8,5.2c-1,2.4-1.9,5-1.6,7.7c0.1,0.5,0.8,0.4,0.9,0c0.4-2.2,0.9-4.3,1.8-6.4
		c0.9-2.1,2.5-3.8,3.4-5.8C380.8,657.9,380.3,657.5,379.9,657.7z"/>
	<path class="st1" d="M431.7,641.7c1,2.8,1.1,5.5,1.2,8.5c0,0.7,1,0.8,1.2,0.2c1.7-5.3-1.9-13-5.5-16.8c-0.3-0.3-0.6,0.1-0.5,0.4
		C429.4,636.5,430.7,639,431.7,641.7z"/>
	<path class="st1" d="M373.5,728.1c0.8,1.3,2.3,3.3,4,3.2c0.4,0,0.9-0.5,0.6-1c-0.5-0.7-1.3-1-2-1.6c-0.7-0.7-1.3-1.6-1.8-2.5
		c-1-1.6-1.9-3.3-3.5-4.5c-0.6-0.4-1.3,0.5-0.8,1C371.5,724.3,372.4,726.3,373.5,728.1z"/>
	<path class="st1" d="M407.2,714c0.4-0.1,0.7-0.6,0.4-1c-0.6-0.8-1.8-1.1-2.7-1.6c-1.6-0.9-3.1-1.9-4.6-3c-2.4-1.8-6.2-4.3-6.6-7.5
		c0-0.3-0.4-0.5-0.6-0.3c-2.4,2,3.2,6.6,4.4,7.6c1.8,1.5,3.7,2.9,5.8,4.1C404.2,713,406,714.4,407.2,714z"/>
	<path class="st1" d="M429.4,699.7c-3.2-0.9-6.4-1.3-9.6-2.3c-3.5-1.1-6.8-2.6-10.1-4.2c-0.7-0.3-1.3,0.7-0.6,1
		c5.8,3.3,13.2,6.9,20.1,6.5C429.9,700.7,430,699.8,429.4,699.7z"/>
	<path class="st1" d="M439,723.5c-5.2,6.6-14.5,9.6-21.4,13.9c-0.5,0.3-0.1,0.9,0.3,0.8h0.1c0,0,0,0,0.1,0c4.4-1.2,8.5-3.9,12.4-6.1
		c3.4-1.9,8.2-4,9.5-8C440.2,723.5,439.4,723,439,723.5z"/>
	<path class="st1" d="M425.4,725.1c0.9-0.6,2-1,2.9-1.7c0.3-0.2,0-0.7-0.3-0.7c-2.3,0.1-4.5,2.2-6.1,3.6c-2.3,2-4.2,4.5-5.7,7.2
		c-0.2,0.3,0.3,0.7,0.5,0.4c1.6-2,3.2-3.9,5-5.7C422.8,727,424,726,425.4,725.1z"/>
	<path class="st1" d="M391.7,733.8c1.2,0.5,2.5,0.7,3.8,1c1.4,0.3,3,0.7,4.4,0.3c0.6-0.1,0.6-1,0-1.1c-1.5-0.3-3-0.4-4.5-0.6
		c-1.2-0.2-2.4-0.5-3.6-0.2C391.5,733.2,391.4,733.7,391.7,733.8z"/>
	<path class="st1" d="M516.2,644.4c-3,1.6-6.3,2.5-9.5,3.6c-2.4,0.8-5.5,1.5-7.6,2.8c-0.2,0.1-0.2,0.5,0,0.6
		c2.1,1.4,5.1-0.3,7.3-1.1c3.3-1.2,6.7-2.1,9.9-3.7c3.4-1.7,6.8-3.7,10.1-5.6c1.9-1.1,4.5-2.6,5.2-4.8c0.1-0.4-0.5-0.8-0.8-0.5
		C527.3,640.1,520.9,641.9,516.2,644.4z"/>
	<path class="st1" d="M501.9,634.4c3.9,0.1,7.8-1.3,11.6-1.9c5.4-0.9,10.7-0.7,16,0.4c0.6,0.1,1-0.7,0.4-1
		c-8.3-4.4-19.9-1.1-28.2,1.7C501.4,633.8,501.5,634.4,501.9,634.4z"/>
	<path class="st1" d="M446.2,686.8c3.4-0.2,6.6-1.8,9.6-3.4c2.8-1.5,6.5-3.2,8-6.3c0.3-0.7-0.5-1.4-1.1-0.8
		c-4.2,4.4-10.6,8.1-16.6,9.4C445.4,685.9,445.6,686.9,446.2,686.8z"/>
	<path class="st1" d="M507.8,682.7c0.2,0,0.3,0.1,0.5,0.1c0.2,0.1,0.3-0.1,0.2-0.2c-0.1-0.1,3.4-3.6,3.8-4c1.2-1.4,2.4-3,2.7-4.8
		c0.1-0.6-0.8-0.7-1-0.3c-1,1.5-1.7,3.1-3,4.6c-1.1,1.3-2.4,2.5-3.5,3.9C507.1,682.3,507.4,682.8,507.8,682.7z"/>
	<path class="st1" d="M478.3,659.1c-0.1-2-1.4-7.2,0.6-8.5c0.7-0.4,0-1.5-0.6-1c-2.2,1.7-1.6,5.5-1.4,7.9c0.1,1.5-0.1,3.1,0.6,4.4
		c0.9,1.8,2.3,3.2,3.4,4.8c0.4,0.5,1.3,0.2,1.1-0.5C481.1,663.5,478.4,662.1,478.3,659.1z"/>
	<path class="st1" d="M484.2,626.3c-4.1,1.7-8.5,1.9-12.9,2.6c-4.7,0.7-10,2.2-14.7,0.8c-0.3-0.1-0.6,0.3-0.3,0.6
		c3.1,2.5,8.4,1.3,12.1,0.8c5.3-0.7,11.7-0.7,16.5-3.2C485.7,627.4,485.1,625.9,484.2,626.3z"/>
	<path class="st1" d="M420.7,565.3c0.6-0.1,0.5-0.9,0-1.1c-4.3-1.5-8.6-1.9-12.7-4.2c-3.4-1.9-5.9-4.9-9.5-6.5
		c-0.3-0.1-0.5,0.2-0.3,0.4C403.1,560.1,412.4,566.5,420.7,565.3z"/>
	<path class="st1" d="M377.5,572.7c2.2-0.7,4.5-1.4,6.7-2.1c1.9-0.6,4.2-0.9,5.9-1.9c0.4-0.3,0.2-0.9-0.2-0.9c-2-0.2-4.1,0.8-6,1.5
		c-2.2,0.8-4.4,1.7-6.6,2.5C376.7,571.9,376.9,572.9,377.5,572.7z"/>
	<path class="st1" d="M432.7,579.9c2.7-0.1,5.2-0.9,7.7-1.7c2-0.6,4.8-0.9,6.2-2.6c0.4-0.5-0.1-1-0.6-0.8c-4.3,1.9-8.8,3.2-13.4,4.4
		C432.3,579.3,432.3,579.9,432.7,579.9z"/>
	<path class="st1" d="M476.3,577.7c3.7,3.9,9,8.4,14.6,8.4c0.5,0,0.6-0.7,0.1-0.8c-5-1.7-8.9-4.3-12.8-7.9c-2.3-2.2-6.6-5.9-7.6-9
		c-0.1-0.3-0.5-0.2-0.5,0.1C469.8,571.8,474.2,575.6,476.3,577.7z"/>
	<path class="st1" d="M536.4,605c0.4,0,0.6-0.6,0.2-0.7c-3-1.6-6.4-2.3-9.3-4c-2.7-1.6-4.7-4-7.6-5.2c-0.4-0.2-0.6,0.4-0.3,0.7
		C524.6,599.3,529.5,605.1,536.4,605z"/>
	<path class="st1" d="M587.7,642.3c4.5,0.7,8.9-0.5,13.2-1.7c2.3-0.7,4.6-1.2,6.8-2.3c1.8-0.8,3.3-2.6,4.7-3.9
		c0.5-0.5-0.2-1.4-0.8-1c-1.4,0.9-2.5,2.1-3.8,3.1c-1.7,1.3-4.2,1.8-6.2,2.3c-4.6,1.3-9,2.5-13.8,2.9
		C587.4,641.8,587.3,642.3,587.7,642.3z"/>
	<path class="st1" d="M588.1,674.8c-1.7,2.5-3.5,7-2.7,10c0.2,0.6,1,0.6,1.2,0c0.5-1.6,0.4-3.3,0.8-4.9c0.4-1.6,1.2-3.1,1.5-4.8
		C589.1,674.6,588.5,674.3,588.1,674.8z"/>
	<path class="st1" d="M582.2,665.1c5.2-0.9,10.6-0.1,15.8-0.6c2.8-0.2,6.5-0.4,8.5-2.5c0.5-0.5-0.1-1.4-0.8-1
		c-7,3.9-16.1,1.6-23.7,3.5C581.6,664.6,581.8,665.2,582.2,665.1z"/>
	<path class="st1" d="M565.7,648.1c1.5-2.4,1.4-5.5,2-8.3c0.4-1.8,0.3-6.6,2.4-7.3c0.6-0.2,0.4-1.2-0.3-1c-2,0.6-2.6,3-3.1,4.8
		c-1,3.7-1.3,7.5-2.4,11.2C564.1,648.3,565.3,648.7,565.7,648.1z"/>
	<path class="st1" d="M566.4,666c-3.7,0.7-7.2,1.7-11,1.9c-3.3,0.2-6-1.5-9.1-1.5c-0.5,0-0.5,0.7-0.1,0.8c3.3,1.2,5.7,2.3,9.2,2.4
		c3.8,0,7.9-0.8,11.4-2.2C567.7,667,567.4,665.8,566.4,666z"/>
	<path class="st1" d="M553.7,633.6c0.6-0.1,0.5-0.9,0-1.1c-2-0.6-4-0.8-6-1.4c-2.4-0.8-4.5-2.2-6.5-3.6c-0.4-0.3-0.8,0.3-0.5,0.6
		C543.4,631.4,549.3,634.3,553.7,633.6z"/>
	<path class="st1" d="M516.5,617.3c-5.8,0.3-11.6,0.6-17.4,0.7c-0.3,0-0.4,0.4-0.1,0.5c5.6,1,12.1,1.5,17.6-0.1
		C517.2,618.2,517.1,617.3,516.5,617.3z"/>
	<path class="st1" d="M494.7,604c-5.8,2.3-12,3.2-17.7,5.7c-0.5,0.2-0.1,1.1,0.4,0.9c3.5-1.3,7.2-2.4,10.9-3.1
		c2.3-0.4,5.3-0.5,7.1-2.3C495.9,604.7,495.4,603.7,494.7,604z"/>
	<path class="st1" d="M466.2,596.3c-4.5-1.1-8.6-2.2-12.7-4.4c-0.6-0.3-1,0.5-0.5,0.8c3.8,2.3,8.5,4.7,13.1,4.5
		C466.6,597.3,466.8,596.5,466.2,596.3z"/>
	<path class="st1" d="M501,584.9c5.6,0.1,11.1-1.9,16.6-2.6c0.8-0.1,0.8-1.2,0-1.3c-5.6-0.2-11,2.6-16.6,3
		C500.5,584.1,500.5,584.9,501,584.9z"/>
	<path class="st1" d="M225.3,626.1c-3.8-1-8.4-2.7-10.3-6.4c-0.2-0.4-0.8-0.3-0.9,0.1c-0.7,2.1,2.2,4,3.6,4.9c2,1.3,4.9,2.9,7.4,3
		C226,627.7,226.2,626.3,225.3,626.1z"/>
	<path class="st1" d="M237.8,606.8c2-0.6,4.5-1.3,6.2-2.5c0.6-0.4,0.2-1.2-0.5-1.1c-2.1,0.4-4.1,1.6-6.1,2.3
		c-2.1,0.8-4.2,1.3-6.3,1.9c-0.5,0.1-0.4,0.9,0.1,0.8C233.5,608,235.7,607.5,237.8,606.8z"/>
	<path class="st1" d="M281.7,597.6c-1.1,3.2-2,5.6-4.1,8.3c-1.7,2.2-3.9,3.9-5.7,6c-0.3,0.4,0.1,0.9,0.5,0.6
		c2.9-1.5,5.5-4.2,7.5-6.8c1.7-2.1,3.9-5.4,3.2-8.2C282.9,596.9,282,596.9,281.7,597.6z"/>
	<path class="st1" d="M269.4,554.5c3.3,1.1,8.6,3,11.8,0.8c0.5-0.4,0.2-1-0.4-1c-1.8,0.2-3.4,0.6-5.2,0.5c-2-0.1-4-0.6-6-1.1
		C269.1,553.6,268.9,554.4,269.4,554.5z"/>
	<path class="st1" d="M273.1,576.9c4.1,0.6,8.6,1.9,12.7,0.8c0.8-0.2,0.5-1.3-0.2-1.3c-1.6-0.1-22.7-1.7-21.9-4.3
		c0-0.1-0.1-0.2-0.2-0.1c-0.2,0.2-0.4,0.4-0.6,0.6c-0.1,0.1-0.1,0.4,0,0.5C265.5,575.9,269.5,576.3,273.1,576.9z"/>
	<path class="st1" d="M253.7,591.8c1.6,0.5,3.7,0.3,5.3,0.3c1.5,0,3.8,0,4.7-1.3c0.2-0.3-0.1-0.7-0.4-0.8c-0.8-0.1-1.5,0.3-2.2,0.4
		c-1,0.2-2.1,0.2-3.2,0.3c-1.4,0-3-0.3-4.3,0.3C253.3,591.2,253.4,591.7,253.7,591.8z"/>
	<path class="st1" d="M304.6,582.6c0.4,0.1,0.6-0.4,0.4-0.7c-0.7-0.9-1.7-1.4-2.6-2.2s-1.4-1.8-1.9-2.8c-0.8-1.8-2.1-3.9-1.9-6
		c0-0.3-0.4-0.3-0.5-0.1c-0.6,2.2,0.5,4.5,1.3,6.5C300.3,579.8,302,581.9,304.6,582.6z"/>
	<path class="st1" d="M532.6,477.1c-8.8,6.8-13.6,16.7-17.6,26.8c-2.3,5.9-4.9,11.3-6.6,17.4c-1.1,4.3-3.4,10.5-1.1,14.7
		c0.1,0.1,0.2,0.1,0.2-0.1c0.6-5.3,1.6-10,3.1-15.1c1.6-5.3,3.8-10.2,5.7-15.4c3.9-10.5,7.9-20.5,16.4-28.2
		C533,477.3,532.8,477,532.6,477.1z"/>
	<path class="st1" d="M576.2,494.5c-3.8,2.4-7.1,5.5-10.6,8.3c-2.7,2.3-5.9,4.3-7.1,7.8c-0.1,0.3,0.3,0.4,0.4,0.2
		c1.6-3,4.9-5,7.5-7.1c3.5-2.7,6.7-6,9.9-9C576.6,494.7,576.4,494.5,576.2,494.5z"/>
	<path class="st1" d="M572,502.5c0,0.2,0.2,0.3,0.3,0.1c2.5-3.8,7-5.7,10.3-8.7c0.1-0.1,0-0.4-0.2-0.3c-2.1,1.4-4.4,2.5-6.4,4
		C574.4,498.9,572.5,500.4,572,502.5z"/>
	<path class="st1" d="M308,484.6c0.6,2.4,1.9,4.5,3.2,6.6c1.8,3.2,2.1,7.2,3,10.7c0.1,0.3,0.4,0.1,0.4-0.1c-0.5-3.1-0.7-6.1-1.6-9.1
		c-1-3-3.3-5.4-4.5-8.3C308.3,484.2,307.9,484.3,308,484.6z"/>
	<path class="st1" d="M288.3,485.5c2.1,2.7,3.1,5.9,4.8,8.8c0.1,0.2,0.4,0.1,0.3-0.1c-0.5-3.2-2.3-7-4.7-9.2
		C288.4,484.8,288,485.2,288.3,485.5z"/>
	<path class="st1" d="M294.2,488.2c-0.6-2.2-1.9-4.4-3.3-6.2c-0.1-0.1-0.2,0-0.2,0.1c0.4,2.2,2.3,4.1,3.3,6.2
		C294.1,488.4,294.3,488.3,294.2,488.2z"/>
</g>
</svg>
