<svg xmlns="http://www.w3.org/2000/svg" viewBox="0 0 614.39 361.13"><defs><style>.cls-1{fill:#0d1905;}</style></defs><title>eno-hands</title><g id="Capa_2" data-name="Capa 2"><g id="Layer_1" data-name="Layer 1"><path class="cls-1" d="M176.56,223.52c-5.68,3.58-11.52,6.48-18.3,6.95a.3.3,0,0,0-.07.58c6.13,2,13.52-2.13,18.68-5.14,5.39-3.14,12.86-7.06,16-12.82a5.55,5.55,0,0,0,1.52.18.6.6,0,0,0,.3-1.11c-3-1.72-5-4-7.11-6.7a72.15,72.15,0,0,0-9.14-8.94c-4.83-4.15-12.78-10.36-19.65-8.94-6.25,1.28-9.8,5.72-13.35,10.64-3.39,4.69-9.4,10.46-8.28,16.79a.61.61,0,0,0,1.18,0c1.21-6.29,5-10.84,8.7-15.85,4.28-5.78,9.26-11.15,17.2-8.59,7.19,2.31,13.53,8.37,18.78,13.53,2.29,2.24,4.86,6.42,8.06,8.26-2.2,2-4.26,4.1-6.67,5.91S179.23,221.85,176.56,223.52Z"/><path class="cls-1" d="M198.69,281.83c3.27,3.47,9.88,4.11,14.09,4.33,5.72.29,14.12-.33,18-5.17.61-.74-.4-1.81-1.06-1.07-3.74,4.13-11.06,4.5-16.21,4.45-4.56-.05-9.92-.73-13.83-3.43-4.39-4.71-5.39-12.52-4.54-18.61,1-7,4.64-16.15,12.22-17.91,4-.94,8.21,1.26,11.65,3,3.83,2,7.54,4.19,11.25,6.39,6.2,3.67,12.43,8.48,19.92,8.44a.6.6,0,0,0,.16-1.17c-9.67-2.32-18-9.26-26.6-14.06-6.66-3.73-14.23-7.83-21.51-3.27-6.36,4-9.14,13.25-9.8,20.24C191.9,270,193.78,277.93,198.69,281.83Z"/><path class="cls-1" d="M274.37,324.11c-8.81.22-16.67-.65-24.6-4.77a59.56,59.56,0,0,1-8.06-5.48c-1.64-1.23-4.38-3.12-6.6-2.38-5.9,2-5.56,12.85-4.83,17.67a16.38,16.38,0,0,0,12,13.25.69.69,0,0,0,.53-1.25c-2.41-1.65-4.86-3-6.87-5.14-2.63-2.85-3.47-7-3.63-10.75-.1-2.29.33-11.06,3.69-11.47,2.28-.27,5.26,2.73,6.86,4a38.93,38.93,0,0,0,31.67,7.46C275.17,325.11,275,324.09,274.37,324.11Z"/><path class="cls-1" d="M174.17,316.65c-5.11-5.4-10.73-9.57-14.67-16-3.37-5.54-8.52-10.64-8.62-17.51A.48.48,0,0,0,150,283c-2.08,6.23,3.52,12.59,6.74,17.35,4.64,6.85,9.36,13.18,17,17A.4.4,0,0,0,174.17,316.65Z"/><path class="cls-1" d="M150.62,300.92c-1.52-2.54-2.58-5.56-4.63-7.74a.37.37,0,0,0-.62.36c.79,3.43,2.79,6.79,4.61,9.76,1.56,2.54,3.73,5.39,6.8,6,.39.08.76-.41.42-.72A31.15,31.15,0,0,1,150.62,300.92Z"/><path class="cls-1" d="M65.73,231.34c.81,7.53,7.39,13.46,11.5,19.4,4.67,6.74,10.46,13.95,18.28,17.07.37.15.7-.43.39-.68a88.25,88.25,0,0,1-17.28-18.2c-4.1-5.93-9.29-11.09-12.22-17.77A.36.36,0,0,0,65.73,231.34Z"/><path class="cls-1" d="M90.34,258.58c.3.21.55-.22.36-.46-3-3.78-6.4-7.19-9.27-11.1-2.38-3.24-3.93-7-6.94-9.72-.31-.28-.83.08-.59.45C78.74,245.27,82.74,253.33,90.34,258.58Z"/><path class="cls-1" d="M143.42,223.62c-1.13-1.71-1.46-3.55-3.18-4.81-.05,0-.1,0-.08.08,1.06,1.87,1.23,4,2.42,5.85a10.31,10.31,0,0,0,3.91,3.71.45.45,0,0,0,.61-.61C146.22,226.22,144.46,225.19,143.42,223.62Z"/><path class="cls-1" d="M11.57,125.34C13.82,117,13.86,108.25,15,99.69c1-7.09,2.84-14.2,8.26-19.23.34-.32-.1-.85-.49-.63-6.08,3.46-8.58,11-9.77,17.48-1.69,9.19-1.33,18.66-2.1,27.94C10.91,125.62,11.48,125.68,11.57,125.34Z"/><path class="cls-1" d="M10,103c1.46-7.29-.64-15.25,5-21.12a.53.53,0,0,0-.64-.83c-7.82,3.91-4.6,15-5,21.86A.34.34,0,0,0,10,103Z"/><path class="cls-1" d="M228.92,26.65c1.26,5.44,4,10.58,6,15.79a67.23,67.23,0,0,1,4.56,17.49.32.32,0,0,0,.64,0,53.63,53.63,0,0,0-2.84-16.88,83.19,83.19,0,0,0-7.37-16.82A.54.54,0,0,0,228.92,26.65Z"/><path class="cls-1" d="M72.71,44.73a.48.48,0,0,0-.13.94c4.83,1.35,8.3,4.94,11.5,8.62S91.25,61.13,94.22,65c0,0,.07,0,.06,0-2-4.82-6.37-8.54-9.86-12.28C81.53,49.64,77.42,44.58,72.71,44.73Z"/><path class="cls-1" d="M106.11,33.4c-.45-.31-.9.35-.56.72,1.93,2.12,2.48,5.29,3,8,.39,2,.34,5.21,1.84,6.7a.16.16,0,0,0,.26-.07c.86-2.35-.33-6.22-.82-8.6C109.32,37.63,108.36,34.89,106.11,33.4Z"/><path class="cls-1" d="M97,29c-.21-.08-.32.2-.2.35,2.24,2.73,4.8,5.55,5.79,9,0,.19.36.16.35,0a11.3,11.3,0,0,0-2.1-5.5C99.88,31.45,98.62,29.65,97,29Z"/><path class="cls-1" d="M614.28,173.65c0-7.14-1.16-14.33-1.79-21.43-1.35-15.24-2.53-30.49-5.08-45.59-1.08-6.39-2.46-12.75-3.86-19.08-1.09-4.94-2.85-9.56-6.27-13.35-3.6-4-9.16-6.1-13.84-8.52-.9-.47-1.8-1-2.69-1.44a1,1,0,0,0-.21-.32,33.37,33.37,0,0,0-6.21-4.46c-2.7-1.75-4.79-4.5-7.14-6.67-5.26-4.86-10.91-9.3-16.26-14-10.3-9.14-21-18.42-32.58-25.93A78.08,78.08,0,0,0,483.09.34c-13.71-1.29-27,1.5-40.7,1.76a.37.37,0,0,0-.1.73c5.55,1.47,11.59.45,17.18-.21a116.13,116.13,0,0,1,19.82-.53c13.71.72,26.42,5.27,38,12.58,11.82,7.48,22.66,17.21,33.1,26.49,5,4.47,10.25,8.7,15.28,13.16,1.22,1.09,2.36,2.27,3.51,3.43,5.84,7,15.56,10.18,23.14,14.83A17.14,17.14,0,0,1,598,78.51c.17,4-1.75,7.49-4.42,10.72s-6.51,6.59-10.82,6.51a.26.26,0,0,0-.07.51c4.81,1.7,9.84-3.07,12.6-6.42a20.71,20.71,0,0,0,4.24-8.25,35.81,35.81,0,0,1,1.58,4.72c1.56,6,2.61,12.19,3.72,18.26,2.7,14.85,3.81,30,5.09,45,1.13,13.2,3.81,27.32,1.22,40.48a.77.77,0,0,0,0,.4c-1.7,10.17-3.67,20-9.26,28.93-5.28,8.41-12.95,15.11-20.29,21.68-7.19,6.44-13.8,13.23-18.64,21.67q-2.34,4.1-4.52,8.3c-.31.6-1.57,2.78-.85,3.48a.19.19,0,0,0,.32-.13c0-.12,1.14-1.38,1.25-1.55.85-1.33,1.67-2.68,2.5-4,1.42-2.32,2.86-4.63,4.3-6.95,5.8-9.33,14-16.26,22.06-23.57,6.67-6.09,13-12.64,17.47-20.52a63.31,63.31,0,0,0,7.78-28.83C614.88,184.19,614.27,178.46,614.28,173.65Z"/><path class="cls-1" d="M531,156.16c5.91-4.15,9.53-10.67,15.81-14.54.17-.1.06-.4-.13-.32C540,144,534.61,149.94,530.89,156,530.84,156.11,531,156.22,531,156.16Z"/><path class="cls-1" d="M577,112.66c-8.33,6.54-17.41,11-27.08,15.17-.07,0,0,.14,0,.11,9.86-3.08,20-7.47,27.41-14.9C577.66,112.79,577.29,112.45,577,112.66Z"/><path class="cls-1" d="M496.18,246.58c-1.7,3.46-3,7.73-5.69,10.58a.18.18,0,0,0,.26.25,18.64,18.64,0,0,0,5.8-10.67C496.59,246.52,496.29,246.36,496.18,246.58Z"/><path class="cls-1" d="M549.89,244.31c.47-7,6.39-12.87,11.28-17.3,3.32-3,11.93-10.32,16.44-5.85,2.77,2.74,2.28,7.85,1.71,11.28-.75,4.44-2.16,10.19-5.26,13.6a.37.37,0,0,0,.52.52c5.82-5.35,8.51-17.38,5.26-24.65-2.9-6.49-10.91-3.21-15.18-.38-6.15,4.06-12.38,10.2-15.55,16.95-2.28,4.83-1.58,10.49-.41,15.51,1.61,6.89,4,13.33,5,20.34a.87.87,0,0,0-.92-.06,4.7,4.7,0,0,1-2.9.36.68.68,0,0,0-.37-.4c-10-4.72-19.17-9.63-24.55-19.79-3.1-5.83-4.83-12.86-6.16-19.3-1.55-7.51-.68-14.7.21-22.22.8-6.75,2.08-13.25,5.41-19.26,1.65-3,3.64-5.79,5.35-8.75,1.87-3.25,3.57-6.63,5.65-9.76,3.45-5.23,9.11-8.52,14.5-11.41,6.55-3.52,14-6.46,21.54-6.39.86,0,.81-1.21,0-1.3-6.89-.76-13.35,1.46-19.54,4.31-5.95,2.73-11.9,6.2-16.34,11.08-2.4,2.64-4,5.88-5.78,9-.76,1.36-1.55,2.7-2.34,4a58.39,58.39,0,0,0,2.14-11.56c.44-7-1.09-14-1-21a89.63,89.63,0,0,1,2.62-21.34c1.33-5,1.67-11.42,4.64-15.79a.42.42,0,0,0-.66-.51c-3.28,3.54-4,8.38-5.33,12.88a92.77,92.77,0,0,0-3.5,19.58c-.55,7.51.5,14.72.9,22.19.37,6.94-1.09,13.36-2.55,20-.54.87-1.07,1.75-1.62,2.62-3.7,5.75-5.21,12.52-6.08,19.2-1,7.63-2,15-.84,22.68a78.69,78.69,0,0,0,6.39,21.31c3.53,7.58,9.93,13.13,17.19,17.1-1,5.53-5.74,10.09-9.88,13.55a20.92,20.92,0,0,1-2.66,1.87c4-3.52,6.94-8.6,9.58-12.83.13-.19-.17-.42-.32-.24-2.36,2.81-4.18,6-6.72,8.69A48.47,48.47,0,0,1,521,290c-3.6,1.19-7.4,1.94-11,2.86-10.2,2.63-21.32,7.12-32.05,6.62a31.23,31.23,0,0,0,6.17-3.11,54,54,0,0,0,12.68-11,.37.37,0,0,0-.45-.58c-3.91,2.23-7.11,5.64-10.68,8.35a26.14,26.14,0,0,1-13.2,5.57,26.94,26.94,0,0,1-3.8-1.2.92.92,0,0,0-1.47-.58c-5.27-2.4-9.93-6-14.88-9-5.79-3.45-12.19-5.63-17.71-9.57-6.45-4.6-11-11.15-15.72-17.33a88,88,0,0,0-6.66-7.64c-2-2.1-4.44-4.26-5.8-6.92,1.52-1.47,6.78.17,8.3.51,2.42.53,4.85,1.26,7.32,1.56,4.76.58,9.69-.86,14.35-1.63,6.13-1,10.75.24,14.87,5,2.67,3.07,5.56,9.13,2.53,12.8-2.28,2.75-7.06,2.84-10.29,2.8-8.65-.09-18.69-4.16-24.76-10.33-.31-.31-.77.16-.48.48,7.22,8,17.36,12.7,28.17,11.86,3.22-.25,7.39-1.18,9.3-4.08,2.55-3.84.85-8.74-1.24-12.38-2.39-4.16-6.61-7.61-11.39-8.41-6.93-1.16-14.06,2.49-21.06,2.13-2-.1-11.35-3.25-15-1.92-.74-4.21.72-10,2.39-13.87,2-4.57,6.05-8,10-10.84a36.05,36.05,0,0,1,13-5.91c5.74-1.3,12.25-.27,18,.69,9.23,1.54,19.69,3.19,27.74,8.24,3.92,2.46,6.62,6.09,9.24,9.81,2.08,2.95,4.24,5.94,7.57,7.56.27.13.58-.21.33-.44-3.45-3.25-5.88-7.47-8.52-11.38-.37-.54-.75-1.06-1.15-1.57,4,.06,7.91-.2,11.92.39,5.08.74,9.41,2.94,14,5a.29.29,0,0,0,.35-.45c-3.39-3.91-9-5.42-13.9-6.26-1.09-.19-2.24-.34-3.41-.45a21.67,21.67,0,0,1,7.59-7.66c2.73-1.81,5.91-2.45,8.66-4a.62.62,0,0,0-.14-1.13c-2.58-.51-5.75,1.23-8.23,2.84-.27-.29-.54-.59-.78-.9a.68.68,0,0,0,.55-.24c2.43-2.84,4.16-6.14,6.15-9.28,1.68-2.63,3.48-5.45,2.93-8.72-.92-5.45-5.29-10-10-12.78.71-.13,1.42-.27,2.12-.43,4.58-1,10.12-3.19,12.91-7.2,2.91-4.19,1.94-8.32-.58-12.39-2.11-3.43-5.48-7.23-9.42-8.81-3-3.26-8.76-3.49-12.47-1.67-2.95,1.45-5.67,4.09-8.25,6.08s-4.88,4-7.19,6.22c-3.05-4.49-4.54-9.91-10.88-9.69a13.27,13.27,0,0,0-7.53,2.6c-.17.14-.32.3-.48.45a111.56,111.56,0,0,1-12.32-3.92c-4-1.59-8.4-4.26-12.79-4.62a19.63,19.63,0,0,0-8.35,1.48,29.89,29.89,0,0,1-1.1-3.81,6.25,6.25,0,0,0-1.54-2.56,28.28,28.28,0,0,0,8.31.14c2.25-.32,8.33-1.07,9.15-3.9.88-3-1-5.45-3.34-7.17-2-1.48-4.28-2.6-6.34-4-2.49-1.65-4.58-3.82-7-5.54a35.88,35.88,0,0,0-4.23-2.6c3.45-1.62,7-6,5.45-9.51-2.6-6-8.68-7.08-14.61-7.15-2.92,0-5.84.26-8.76.07-2.6-.18-5.17-.55-7.78-.63-3.33-.09-8.45.36-9.62,3.89a94.85,94.85,0,0,0-6.45-10.41c-2.57-3.3-6.7-4.64-10.74-5.14-3.52-.43-8-.41-10.84,2.05-2.68,2.32-3.4,5.88-3.05,9.32-2.23-3-6.61-4.56-9.87-5.08-6.34-1-12.93.62-19.3.91,1.09-5.3-2.39-11.66-7.08-14.89-.93-2.4-1.88-4.79-2.91-7.13,2-5.64,6.39-10,10-14.69s6.28-10.6,9.35-15.93c1.35-1.71,2.93-3.27,4.39-4.86,2.66-2.9,4.85-6.22,7.37-9.24,5.77-6.91,13.3-11.75,21.1-16.08,15.88-8.82,35.21-15,53.53-14.47.79,0,.73-1.1,0-1.2C401.68-.31,381.57,7,365.53,15.78c-8.43,4.6-16.06,10-22.11,17.49-2.65,3.29-5,6.82-7.74,10A26.94,26.94,0,0,0,331.62,49c-3.71,4.74-6.18,10.46-9.95,15.17-2.88,3.6-6.7,7.57-8.23,12.15a48.34,48.34,0,0,0-6.91-11.07.67.67,0,0,0,0-.81C300.24,54.34,291,46.84,280.9,40.8a85.64,85.64,0,0,0-15.81-7.49c-5.52-1.93-10.64-3.94-15.31-7.56-.33-.25-.81.25-.57.58,2.63,3.64,6.38,5.47,10.48,7.09,5.79,2.3,11.46,4.31,16.95,7.32a100.51,100.51,0,0,1,15.95,10.93c4.72,3.92,8,9.11,12.35,13.27,1.66,3.16,4.07,6,5.79,9.07a35.22,35.22,0,0,1,2.11,4.88c0,.33-.07.67-.08,1a.58.58,0,0,0,.67.58c.49,1.34,1,2.66,1.62,3.92a10.23,10.23,0,0,0-2.6-.74.69.69,0,0,0-.5.11c-2.15-.51-4.39-2.27-6.27-3.08-2.54-1.09-5.08-2.34-7.86-2.66a16.91,16.91,0,0,0-12.77,3.64c-3.31,2.66-5.15,7.48-3.86,11.58a5.81,5.81,0,0,0,.32.82,28.64,28.64,0,0,0-2.95-.91,17.72,17.72,0,0,0-6,0A42.83,42.83,0,0,0,264,95.45c-3.22,1.11-10.46,3.57-10.67,7.87a20.49,20.49,0,0,0-2.78.52,33.41,33.41,0,0,0-6.44,2.64,18.19,18.19,0,0,0-3.89,2.24,12.86,12.86,0,0,0-1.7-4.38c-2-3.15-5.65-5.45-8.83-7.14-6.95-3.69-13.42-1.62-18.46,4l-.54.62c-2.79-4.88-9.15-8.9-14.59-9.18-3.4-.18-10.94,2.89-12.29,6.91a20.51,20.51,0,0,0-4.64-3.92,12.56,12.56,0,0,0,5.14-2.52A10.93,10.93,0,0,0,188.41,83c-.62-4.2-3.51-5.32-7.46-5h0a28.54,28.54,0,0,0-12.6-1.11,55.53,55.53,0,0,0-8.92,2.43c-1.69.53-3.92,1-5.25,2.26-5.25,5.16,1.36,9.59,6.22,11.64-7,2.45-15.21,10.27-13.35,18.1,0,.17.1.31.15.47-2.37-.29-5.91,2.41-7.2,3.46-3.4,2.76-6.55,8.6-3.73,12.69-5.17.66-10.64,1.61-15.21,3.59-5.15,2.24-6.63,9.32-4.11,14.1a14.36,14.36,0,0,0-4.57-.34c-4.17.38-9.19,2.18-10.42,6.58-1.5,5.4,2.93,12,5.07,16.69,1.51,3.29,3.09,7,6.31,8.53-5.93,1.8-11.87,3.56-17.93,5-12.1,2.86-25.29,4.44-35.89,11.44a1.05,1.05,0,0,0,1.06,1.82c7.95-4.67,16.91-6.81,25.84-8.77,9.25-2,18.19-4.44,27.23-7.31l.21-.06c-2.74,1.8-5.42,4.35-5.47,7.64a.58.58,0,0,0,1.08.29,24.78,24.78,0,0,1,9-8.15c2.45-1.34,5.06-2.34,7.58-3.53,15.69-4.54,32.37-7.94,48.26-5.07,15.12,2.74,33.32,15.56,29.42,33.2-1.7,7.69-8.63,13.26-14.69,17.62-7.49,5.39-15.41,10.17-23.1,15.26a90.92,90.92,0,0,0-10.45,8c-3.49,3.13-6.88,6.3-11,8.59-4.65,2.57-10,4-15,5.66a116.23,116.23,0,0,0-12.79,5.22c-8.87,4.19-17.9,8.36-27.9,6-8.56-2-15.57-8.51-22.08-14-6.69-5.67-13.23-11.63-18.53-18.65-5.94-7.86-8.6-16.5-9.36-26.24-.72-9.3-.56-18.56-1.75-27.83-1-7.51-2.4-15.73-1.47-23.38,6.78,7,14.12,13.54,24.27,14.59,15.79,1.62,31-8.8,40.11-20.95,7.69-10.3,9-23.32,6.67-35.65a79.21,79.21,0,0,0-3.08-11.16c7.41-4.51,7.91-15.32,7-23.06a63.57,63.57,0,0,0-1.34-7.27.22.22,0,0,0,.23,0c4.94-3.32,5.06-12.46,5.8-17.72,1.39-9.79,3-19.72,2.43-29.65a.27.27,0,0,0-.53,0c-.61,4.61-.82,9.28-1.27,13.91s-1.38,9.13-2.16,13.7c-1.12,6.67-1.83,13.06-4.64,19.28a54.59,54.59,0,0,0-9-19.55.6.6,0,0,0-1,.6c3.74,8,7.22,15.73,8.89,24.42a37.73,37.73,0,0,1,.16,14.48,25.89,25.89,0,0,1-4.81,10c-1-2.82-2.1-5.62-3.21-8.38-1.23-3.07-2.41-6.17-3.78-9.18-1.57-3.48-4.38-6.19-5.83-9.76-.48-1.17-2.41-.68-1.94.54,1.54,4,4.43,7.17,6,11.1,2,4.87,3.84,9.82,5.65,14.76,3.62,9.83,6.09,20.14,4.55,30.65-2.58,17.64-18.92,32.42-36,36A24.88,24.88,0,0,1,54,170.19a2.51,2.51,0,0,0,2.52-2.4c3-8.23,8.1-15.54,10.62-24a58.72,58.72,0,0,0,2.34-20c-.4-6.17-2.68-12.09-7.62-16-6.55-5.17-14.84-4.16-21.31.59a.77.77,0,0,0,.78,1.33c4.38-2,8.38-4,13.33-3.07,3.35.6,6.42,2.95,8.57,5.48,4,4.69,4.34,11.57,4,17.41a63.17,63.17,0,0,1-3.72,17.89c-2.59,6.95-6.6,13.26-8.14,20.58-.46.54-1,.75-2,.21a13.36,13.36,0,0,1-3.19-2.76c-1.95-2-3.67-4.28-5.41-6.49a70.34,70.34,0,0,1-7.1-10.19,41.08,41.08,0,0,1-4.35-16.36c-.06-.86-1.47-1.18-1.6-.22-1.61,12,6,21.76,13.1,30.46a41.38,41.38,0,0,0,4.7,5.23c-7-4.18-12.83-10.86-18.54-16.79-5-5.23-10.54-8.9-16.49-12.95-6.19-4.2-8.25-9.86-9.42-17C3.2,110.35,1.41,98.56,3,87.64c1.23-8.34,10.2-12.89,15.45-18.57,6.36-6.89,11-15.46,16.4-23.11,5.88-8.39,11.9-16.9,19.48-23.86,8.19-7.52,17.94-11,28.93-11.6,10.33-.59,20.67.91,31,1,21.12.26,41.58-5.63,62.71-4.9a111.17,111.17,0,0,1,37.63,8c.46.18.76-.57.33-.8-17.08-9-37-10.82-56-9.19-10.57.91-20.94,3.16-31.53,4S106.25,9,95.61,8.37c-9.81-.54-19.85-.44-29.14,3.13-8.36,3.21-15.19,9.59-20.94,16.26-6.44,7.46-12.07,15.65-17.66,23.75S17.35,67.27,9.78,73.67A36.12,36.12,0,0,0,3,80.76C.66,84.12.28,88.13.1,92.07c-.48,10.3.89,20.63,2.55,30.77,1,6.07,3,11.45,7.74,15.5a65,65,0,0,0,8,5.41,52.17,52.17,0,0,1,8.85,7.33c2.4,2.36,4.75,4.92,7.16,7.45-1.55,7.39-.48,15.24.32,22.64,1,9.54,1.21,19,1.73,28.57.49,9,2.5,17.37,7.3,25.1,4.58,7.38,11,13.56,17.41,19.29,6.14,5.46,12.45,11.15,19.68,15.13a29.85,29.85,0,0,0,19.9,3.11c-.43,9.09-4.49,17.67-2.53,26.89,1.56,7.38,7.23,13,12.93,17.5,6.68,5.26,12.34,11.67,19.12,16.77,7.64,5.75,15.76,6.39,24.68,3.47a177.88,177.88,0,0,0,22.46-9.52c1.41,7,1.68,14.56,8.68,18.38,2.92,1.6,6.45,1.92,9.67,2.44,4.93.79,9.72,2.31,14.54,3.57,9.43,2.47,18.91,4,28.57,2,9.11-1.91,17.44-7.12,25-12.36,3.6-2.5,7.07-5.19,10.53-7.89l.14-.1c-.08,4.53,2.73,8.77,5.25,12.32A49.57,49.57,0,0,0,291,357.28c6.86,5,20.18,6,25.23-2a36.75,36.75,0,0,0,4.68,1c8.71,1.25,17.84,2.33,25.72-2.36,3.29-2,6-4.8,8.7-7.5,3.39-3.43,6.83-6.8,10.39-10.06a84.24,84.24,0,0,1,23.84-15.66c1.89.72,3.77,1.46,5.65,2.19l-.15,0c-.17,0-.13.29,0,.29s.52-.05.78-.07c1.57.6,3.16,1.19,4.77,1.69,6.39,2,12.39,1.63,18.89.47,7.43-1.33,14.81-3,22.22-4.51,6.42-1.28,12.66-3.47,17.89-7.48,4.85-3.72,6.41-8.49,8.44-13.77l.33.15c6.57,2.76,13.6,2.09,20.44.87C497.36,299,505.6,296,514,294c6.51-1.57,12.73-3.33,18-7.69,4.07-3.4,8.49-8.18,9.41-13.62,1.85.93,3.75,1.78,5.65,2.52a1,1,0,0,0,.08.11c1.38,1.34,5.32,2,6.67.29,0,0,0-.08.07-.12.09.32.58.44.67,0,1.07-4.58-.25-9.32-1.51-13.74C551.4,256,549.49,250.38,549.89,244.31Zm-143.64-11a34.49,34.49,0,0,0-1.21,5.3c-2.59-2.35-7.37-3.35-10.08-4.15-2.41-.71-4.8-1.4-7.19-2a68,68,0,0,0,14.69-2.73,51.5,51.5,0,0,0,6.69-2.51A24,24,0,0,0,406.25,233.29Zm-109,91.65a.52.52,0,0,0-.26.16c-4.7,5-11.3,4.36-17.55,4.44a38,38,0,0,0,5.22-5.16A29.79,29.79,0,0,0,290.86,304c-.57-11.35-7.13-23.19-16.59-30.17,8.31-1.93,15.84-1.39,22.62,4.59,6.57,5.79,9.65,14.85,9.59,23.42a1.49,1.49,0,0,0,0,.18,42.11,42.11,0,0,0-3,4.44A49.62,49.62,0,0,0,297.28,324.94ZM206.61,200.55c1.34-1.94,3.11-3.62,4.49-5.51a18.25,18.25,0,0,0,1.6-2.71c2.38-.46,4.34-1.75,6.46-2.89,2.75-1.47,5.77-1.93,8.79-2.45.37,1.4.83,2.72,1.24,3.85,2.05,5.51,4.89,11.21,10.83,12.91-.27.74-.4,1.57-.67,2.3a17,17,0,0,1-1.61,3.26,53.71,53.71,0,0,0-5.4-1.57c-8.48-2-19.2-3.36-27.63.2A21.9,21.9,0,0,0,206.61,200.55ZM200,166.47c.34-5.32,4.5-9,9-11.1,3.7-1.74,7.81-2.3,11.73-3.36,3.44-.93,8-2.82,11.5-1.61.36.12.58-.44.26-.62a6.77,6.77,0,0,0-1.27-.55c1.75-3.92-2.72-8-5.28-10.36-1.47-1.35-3.1-2.7-4.82-4,2.4-6.69,7.92-13.82,14.86-16,2.18-.68,3.76-.4,4.17,2a36.07,36.07,0,0,0,2.63,7.45c1.45,3.56,3.09,8.86.7,12.29a.6.6,0,0,0-.1.4,20.89,20.89,0,0,0-7.19,3.63c-5.06,4.21-3.81,13.3,2.18,16.08a25.55,25.55,0,0,0,2.7,1,1,1,0,0,0,0,.1c1.14,2-2.8,5.58-4,6.79a76.81,76.81,0,0,1-6.95,6.31,39.11,39.11,0,0,1-7.75,5.18c-5.55,2.71-11.82,1.47-17-1.49C201.28,176.28,199.69,171,200,166.47Zm-21.81-22.38c-2.47,2.32-3.47,5.87-4.24,9.38-8.15-2-15.53-5.64-23.16-9,2.6-2.58,5.45-5.23,5.82-8.41,2.76-1.94,4.27-5.09,6.7-7.41,3.16-3,8.29-4.44,12.56-4.44,4.44,0,7.25,2.9,8.07,7.07.46,2.31,1,6.77-.33,9.12A23.07,23.07,0,0,0,178.17,144.09ZM153.7,156c-4.13-1.32-8.4-1.68-12.39-3.47a20.63,20.63,0,0,0-6-1.92c2.47-1.88,3.79-4.63,6.84-5.86a8.18,8.18,0,0,1,6.11.38.75.75,0,0,0,1.28.55h0c1.65.75,3.24,1.65,4.68,2.28,6.21,2.66,12.56,6.53,19.5,6.6-.33,1.58-.64,3.12-1.05,4.51-.6,2.06-2.62,6-1.56,8.39a72.57,72.57,0,0,0-7.51-.44C162.79,160.91,159.71,158,153.7,156Zm23.48-34.89c-.09-.41-.2-.82-.32-1.23a18.22,18.22,0,0,0,6.28-1.45,11.57,11.57,0,0,1,1.34-.43c-.25,1.22.86,2.57,2.45,3.81a7,7,0,0,0-1.63.57,14.4,14.4,0,0,0-2.23,1.18,5.07,5.07,0,0,0-1,1.07,9.39,9.39,0,0,0-1.93-1.24,9.49,9.49,0,0,0-2.7-.78A7.33,7.33,0,0,0,177.18,121.15Zm8.4,10.9a11,11,0,0,0-2.77-6.64.61.61,0,0,1,.07-.1,4.88,4.88,0,0,1,1.4-1,15.88,15.88,0,0,1,1.75-.75,7.61,7.61,0,0,0,1.51-.58.64.64,0,0,0,.29-.5,42.36,42.36,0,0,0,7.17,3.8c4.76,1.91,9.9.42,14.08-2.43.42.81.91,1.58,1.4,2.35s.94,2,1.43,3c-4.55-2-10.29.81-10.87,6-.32,2.84.41,5.45,1.15,8.15-3.68-2.19-6.52-5.46-11.23-5.15a18.34,18.34,0,0,0-5.38,1.29C186.17,137.07,185.78,134.06,185.58,132.05Zm27.21-11.3a26.17,26.17,0,0,0,14.4,1.76l-1,1c-2.52,2.6-5.91,6.69-6.17,10.64a53.62,53.62,0,0,0-6.37-4l0-.07c.1-1.33-.79-2.7-1.45-3.8a21.77,21.77,0,0,0-2.22-3A23.76,23.76,0,0,0,212.79,120.75Zm-9.63,19.51c-.8-3-.82-5.92,1.41-8.29,3.23-3.43,7.4-.85,10.39,1.25,5.51,3.87,14.62,8.5,15.59,15.84-3.29-.73-7.31.54-10.3,1.29-4.74,1.18-9.45,2-13.76,4.36a.6.6,0,0,0,0-.23C205.44,149.73,204.41,145,203.16,140.26Zm60.6-3.38c1.72,2.42,5,4,7.38,5.46,2.95,1.8,4.5,4.65,8.29,4.59a.61.61,0,0,0,0-1.21c-3.24-.22-5-3.05-7.5-4.72-1.45-1-3-1.79-4.46-2.76-1.2-.8-2.24-1.77-3.45-2.49.51-3.92-2.37-9.25-4.54-12.58a35.57,35.57,0,0,0,6.65-6.38A25.93,25.93,0,0,0,270,115.2c3.44-1.63,7-1.13,10.22.6,3.62,1.93,7.62,4.81,9.34,8.63a51.92,51.92,0,0,0-1.67,5.6c-.87,3.41-2,7.76-.56,11.17-4.9,3.72-9.57,7.83-14.42,11.66-1.38-3.68-2.91-7.77-5.37-10.77-1.33-1.63-3.51-2.36-5.72-2.7A4.75,4.75,0,0,0,263.76,136.88Zm40.87-23.67-1.7.32c-4.3.84-7.85,2.23-10.61,5.75a17.57,17.57,0,0,0-2.24,3.81c-1.22-3.63-5.65-6.53-8.55-8.31-.35-.22-.7-.41-1.06-.59,1.72-.48,3.41-1.26,5.06-1.75a15.05,15.05,0,0,0,5.73-2.7c1.77-1.5,3.54-4.41,3.14-6.87A71.34,71.34,0,0,0,306,108.23a7.16,7.16,0,0,0-1.6,2.93A2.67,2.67,0,0,0,304.63,113.21Zm111.93,30.12h-.09c-3.19-.13-6.37-.43-9.55-.63-2.65-.17-5.36-.52-8.08-.82,1.3-2.49.12-5.78-1.13-8.1a8.78,8.78,0,0,0-3.62-3.5c.93-.14,1.87-.42,2.71-.63a11.57,11.57,0,0,0,4.31-1.83C404.64,134.92,409.3,140.29,416.56,143.33Zm-19.06-1.6a48.28,48.28,0,0,0-8.73-.24,11.23,11.23,0,0,0-8.78,5.69c-8.1-2-16.35-.84-24.07,2,1.74-1.54,2.82-3.51,1.91-6.13a8.24,8.24,0,0,0-2.18-3.18,37.55,37.55,0,0,0,8-2.76,135.45,135.45,0,0,1,14-5.22c4.28-1.33,8.93-2.59,13.37-1.46C395.07,131.43,400,137.34,397.5,141.73Zm25.17,16.92a.56.56,0,0,0,.34.2c5.08,1,9.66,4.36,10.9,9.55,1.34,5.63-5.22,10.75-9.08,13.73a85.37,85.37,0,0,1-14.32,8.58c-6.45,3.2-13.86,6.47-20.74,2.59-4.95-2.8-8.54-8.92-8.33-14.56.19-5.42,4.5-11.52,8-15.45,4.3-4.87,11.22-4.93,17.25-5.2A120.54,120.54,0,0,1,422.67,158.65ZM367.92,210c.3-.67.57-1.35.81-2.05.94-2.73,2.26-7.15.76-9.91-1.8-3.31-5.66-2.9-8.89-2.35a2.43,2.43,0,0,1-.19-.47.7.7,0,0,0,.53-.66c.41-5,2.72-10.51,4.81-15,3.1-6.67,8.72-2.88,14-2.95a16,16,0,0,0-.2,5.57c.82,5.71,6,12.12,11.43,14,4.61,1.63,9.1.92,13.44-.62a6.77,6.77,0,0,0-1.11,2.94C390.13,197.06,377.15,199.81,367.92,210Zm-59.76,50.3,0,0c-1.55-.54-3.05-1-4.54-1.73-.87-.4-1.75-.94-2.66-1.32a18.15,18.15,0,0,0,3.23-1.48c2.31-1.32,6-2.76,6.59-5.65a3.36,3.36,0,0,0,.05-.9c1.89,1.28,7.25.3,8.79.17l.62,0a27.15,27.15,0,0,0-6.85,5.62C311.65,256.76,309.89,258.52,308.16,260.3Zm-27-1.73a14.89,14.89,0,0,0-1.27-4.88,64.53,64.53,0,0,0-6.27-11.18,41.79,41.79,0,0,0-3.67-5.14l.79-.17a3.81,3.81,0,0,0,1.47,1.85,27,27,0,0,1,5.28,4.56c2.79,3.12,5.37,6.45,8.28,9.47a19.41,19.41,0,0,0,3,2.55c-2-.42-4.24.66-6,1.58A6.25,6.25,0,0,0,281.19,258.57Zm2.5-10.52c-1.88-2.21-3.77-4.41-5.76-6.52-1.79-1.92-4.27-2.89-6.16-4.58a54.28,54.28,0,0,0,5.32-1.76,46.83,46.83,0,0,0,15.45-9.54c2,1.17,3,4.13,4.14,6a69.39,69.39,0,0,0,5.56,7.65c2,2.61,4.13,5.14,6,7.86,2.62,3.91-4,6.58-6.71,8.07C294.06,259.34,288.19,253.37,283.69,248.05Zm34.44-.1c-1.51.12-3,.2-4.55.22-1,0-2.1-.39-3.06-.18-.78-2.13-3-4.26-4.11-5.68a102.24,102.24,0,0,1-8.55-12.05c-1.19-2.09-2.23-4.38-4.22-5.7,1.09-1.08,2.17-2.2,3.19-3.4a.71.71,0,0,0,.13-.77c.74-.35,1.48-.68,2.25-1a31.36,31.36,0,0,0,6.31-2.81l1.31,1.54c4.22,4.93,10.59,9.59,17.32,9.46,3.18.93,5.15,3,6.44,6.32,1.41,3.57,1.57,8.4-1.08,11.43C327.14,248.07,321.5,247.67,318.13,248ZM288.18,204.7c.22-.33-.27-.7-.54-.42a32.57,32.57,0,0,0-3.09,3.8c-4.7-.15-9.28-.92-14-1.29-3.74-.3-7.39.6-11,1.47-.43.11-.89.23-1.36.37a17,17,0,0,1,.09-3.56,19.78,19.78,0,0,0,.44-3.66,15.65,15.65,0,0,0,1.78-1.51c3.25-3.22,5.18-7.8,7.17-11.84.67-1.36,1.5-2.79,2.17-4.27,0,0,.06.06.11.06,4.43.72,10.54-5.44,13.74-.44a20.6,20.6,0,0,0-2.29,12.53c.68,5.46,4.58,8.34,9.85,8.87a26.67,26.67,0,0,0,7-.33.65.65,0,0,0,0,.13c.09,2.4,1.92,4.73,3.19,6.64a52.72,52.72,0,0,0,3.25,4.34c-2.51,1.5-5.3,2.16-7.95,3.37-3.62,1.65-7.46,3.94-11.33,1.65C279.26,217,285.61,208.57,288.18,204.7Zm-57-13.53c-1.73-4.27-3.68-10.36-.74-14.47l.32-.25a79.06,79.06,0,0,0,7.15-6.43,4.82,4.82,0,0,0,2.54.11,32.65,32.65,0,0,1,7.45-.41,85.84,85.84,0,0,1,14,1.57,16,16,0,0,0,3.63,4.66,8.22,8.22,0,0,0,4.13,2.18c.38,3.35-2.59,7.32-4,10.15a55.27,55.27,0,0,1-5.67,9.77c-4.44,5.69-11,5.33-17.47,4.69S233.36,196.56,231.18,191.17ZM264,164.39a.8.8,0,0,0,.25-1.32,26.32,26.32,0,0,1,3.81-3.73c6.37-5.31,14.8-9.89,19.62-16.83a17,17,0,0,1,9.6-.23c5.65,1.54,7.44,7.36,4.41,12.17-1.46,2.32-3.95,3.91-6.1,5.5-2.44,1.81-4.87,3.64-7.31,5.46-3.91,2.9-7.72,6-11.73,8.73a17.74,17.74,0,0,1-5.23,2.63c-3.21.92-6.26-2.77-7.81-5a10,10,0,0,1-.55-.91.64.64,0,0,0-.32-.74,6.19,6.19,0,0,1,.54-5.43C263.4,164.57,263.68,164.5,264,164.39Zm40.92-14.18a9,9,0,0,0,0-2.26,41,41,0,0,1,3.85-2.71c-.13,6,4.74,10.55,10.1,13.29a17.82,17.82,0,0,0-6.41,2.49,18.67,18.67,0,0,0-5.27,5.39,12.14,12.14,0,0,0-1.58-2.53c-1.42-1.81-3.75-3.87-6.1-4.25-.57-.09-1,.65-.41,1,3,1.75,6.38,4.22,6.84,7.84a42.51,42.51,0,0,0-3.34,8.27c-1.82.08-3.57.35-4.6.46-4.17.43-9.21.79-12.37,3.83a10.79,10.79,0,0,0-1,1.14c-3.34-4.57-9.92-.23-14.38.89a9.8,9.8,0,0,0,.86-4.8,12.85,12.85,0,0,0,6.45-2.35c5.63-3.54,10.86-7.95,16.08-12C298.3,160.12,304.06,156.66,304.87,150.21Zm19.69,10.57a1.55,1.55,0,0,1,.23.06,6.08,6.08,0,0,1,1.34,1c1.75,1.74,2.3,4.65,3.05,6.92.86,2.58,2,5.06,3,7.61,1.09,2.9,1.91,5.95,1.1,9-1.07,4.08-5.5,6.89-9.48,7.23-.88.08-.89,1.45,0,1.39,6.28-.48,11.63-5.55,11.33-12-.16-3.44-1.7-6.82-3-10h0c.08,0,.14,0,.17-.1.59-1.46.31-3.14,1-4.71,1.29-2.94,5.71-4.23,8.5-2.72a26.45,26.45,0,0,0,2.27,3.14,20.37,20.37,0,0,0,1.94,2.06c1.06,1.39,2.62,3.08,2.39,4.86a.42.42,0,0,0,0,.23,15.87,15.87,0,0,0-2.7,1.56c-4.75,3.54-7.57,9.34-10.52,14.32-3.51,5.94-8.21,12-2.22,18.12a.75.75,0,0,0,.28.17l-.52.72c-.56-1.08-1.16-2.13-1.7-3.1-1.94-3.47-4-12-8.81-12.95.24-.25.48-.48.7-.74,2.61-3,3.78-8.71.05-11.49-2.35-1.75-5.25-1.76-8.05-2-2.4-.21-4.59-1.13-6.83-1.64a7.39,7.39,0,0,0-4.18-1.05c1.82-4.33,3.73-8.66,7-12.15,2.47-2.66,7.19-5,11.19-4.59C322.91,160.27,323.75,160.55,324.56,160.78Zm16.33,1.72c-4.63-1.48-9.41,2.76-9.67,7.26-1-2.81-1.73-5.79-3.39-8.28A25.22,25.22,0,0,0,338,161a15,15,0,0,0,2.82-1.1A4.14,4.14,0,0,0,340.89,162.5Zm-6.72,45.41a.06.06,0,0,0,0,0c-2.5-4.05-3-7-.6-11.24,1.22-2.19,2.75-4.21,4-6.38,2.68-4.62,5.26-9.62,9.64-12.86a11.49,11.49,0,0,1,7.44-2.12c4.51.17,3.82,5.05,4,8.22a69.16,69.16,0,0,1,.2,8.27,8.16,8.16,0,0,0,.55,4.17,57.14,57.14,0,0,0-14.84,5.44,57.8,57.8,0,0,0-7.94,4.74C335.83,206.7,334.92,207.24,334.17,207.91Zm25.63-31.4a5.27,5.27,0,0,0-3.81-3l.05-.12c1.9.36,3.87.46,5.75,1a25.81,25.81,0,0,0,4.59,1.11,7.54,7.54,0,0,0-1.21,1.43c-1.85,2.91-2.69,6.24-3.91,9.43-.17.44-.37.92-.58,1.4,0-.67,0-1.33,0-2C360.63,183,361,179.07,359.8,176.51Zm-10.31-2.18a3.38,3.38,0,0,0-.26-2.15,14.29,14.29,0,0,0,2.94,1.39A14.86,14.86,0,0,0,349.49,174.33Zm-54.75,28.82c-5.29.52-10.28-1.1-11.55-6.72a17.37,17.37,0,0,1,3.11-13.73c2.2-2.81,6.29-3.15,9.55-3.76a61.52,61.52,0,0,1,6.64-.87.65.65,0,0,0,.55.09.68.68,0,0,0,.68.84c3.36-.26,6.2,1.08,9.4,1.82,2.12.48,4.34.34,6.48.77,7.21,1.45,3.41,9.24.07,12.21C313.27,199.5,303.09,202.33,294.74,203.15Zm-33.41-33.46a46.16,46.16,0,0,0-11.07-1.29,57.18,57.18,0,0,0-7,0c-1.73.18-3.19,1.06-4.92,1.17.6-.63,1.19-1.26,1.75-1.92,1.11-1.31,2.88-3.45,2.67-5.38,2.54.69,5.2,1.19,7.61,1.83,3.59.95,7.36,1.65,11,1A8.37,8.37,0,0,0,261.33,169.69ZM322,225.76c-7.24-1.13-12-6.22-16.42-11.64-1.41-1.75-2.72-3.59-4-5.46-.63-.94-2.25-3-2.32-4.36a71.56,71.56,0,0,0,9.28-2.59,35.24,35.24,0,0,0,12.83-7.22c2.53.35,4.16,4.47,5.2,6.45s1.9,4.08,2.9,6.09c.71,1.4,1.48,2.77,2.16,4.16a.43.43,0,0,0,.2.42,12.71,12.71,0,0,1,1.43,7.61C332.39,224.58,326.56,226.48,322,225.76Zm13-7.17c.43-2.65-.46-5.36-1.67-7.88a17.62,17.62,0,0,1,2.55-2.14q2.3-1.42,4.62-2.79a84.26,84.26,0,0,1,11.34-5.63A43.86,43.86,0,0,1,363,197.24c2.64-.29,5.05.37,5.36,3.49a15.69,15.69,0,0,1-.9,5.49c-.93,3.37-2.84,6.31-4.17,9.53-2,4.7-4.34,7.78-9,10.08a48.91,48.91,0,0,1-10.46,3.63c-3.37.77-9.7-1.37-9.83-5.74a.75.75,0,0,0-.87-.75A11.43,11.43,0,0,0,334.94,218.59ZM362,222.26a13.58,13.58,0,0,0,1.92-3.28,4.75,4.75,0,0,0,3.49,4.91,35.65,35.65,0,0,0-8.25,1A17.71,17.71,0,0,0,362,222.26ZM387,163c-.36.42-.72.85-1.07,1.33A33.4,33.4,0,0,0,380,175.52c-3.32-1.14-7.49-2.46-10.86-1.53a.52.52,0,0,0-.32-.11,31.45,31.45,0,0,1-7.4-1.29c-2-.5-5.89-1.32-7.66-.53a.05.05,0,0,0,0-.09c-.29-.21-.23-.2-.54-.24a.45.45,0,0,0-.33.1,17.61,17.61,0,0,1-6.51-4.2l-.4-.41a15,15,0,0,0-2.87-3.51c-1-1.57-1.6-3.2-.65-4.2a.54.54,0,0,0,.12-.59c3.17-2,5.9-4.91,9.05-7a91.31,91.31,0,0,1,12.11-3.67c4.1-.83,8.25-.41,12.37,0,3.48.36,7.3,1,9.95,3.49S388.42,159.58,387,163Zm-31.74-21.16c4.37,4.65-2.86,7.55-6.05,9.59-4,2.58-6.81,6.48-11.6,7.89-3.79,1.1-8,.71-11.78-.16q-.59-.13-1.17-.3a8.42,8.42,0,0,0-1.21-.36c-6.79-2.2-12-6.89-13.59-14.09.32-.23.64-.45.94-.7,2.34-2,4.55-4.17,6.74-6.34a48.23,48.23,0,0,0,3.66-4,.67.67,0,0,0,1,.23c6.67-4,16.43-.41,23.08,2.22C348.78,137.27,352.54,139,355.22,141.88Zm-19-10.68c-4.28-1-9.73-1.73-13.79.46a21.5,21.5,0,0,0,2.18-4,23.18,23.18,0,0,0,1-2.92c4.29.6,9-1.44,13.23-3.6a10.52,10.52,0,0,0-1.19,4.92c0,2.32,1.47,4.49,3,6.39C339.22,132,337.75,131.54,336.26,131.2Zm-14.42-1.67c-2,3.46-5.36,6.31-8.26,9a54.59,54.59,0,0,1-5.69,4.94,27,27,0,0,0-3.46,2.71c-2.12-5.43-10.41-6.93-16-5.07a.4.4,0,0,0-.19-.43c-.38-6.15,1.64-13.57,4.57-18.88,4.21-7.64,16-8.12,23.71-7.5,4.26.35,7.88,2,8,6.68C324.7,124,323.31,127,321.84,129.53Zm-54.36,16.31c1.64,2.47,2.65,5.4,4.66,7.61l-.71.56c-3.41,2.63-7.52,5.39-9.45,9.42-6.56,1.58-13.73-1.68-20.08-3-3.59-.76-5.84-2.12-7-5.74-1.61-4.91,1.14-8.08,5.21-10.1,5.18-2.58,11.83-3.51,17.56-3.53C261.89,141,265.1,142.26,267.48,145.84Zm-52.72,37.44a25.66,25.66,0,0,0,12.81-4.52,14.06,14.06,0,0,0,0,6.79,24.09,24.09,0,0,0-7.26,1.69c-2.5,1.08-4.72,2.66-7.14,3.9A19.83,19.83,0,0,0,214.76,183.28Zm26.71,20.81c5.57,1.13,11.5.94,16.25-2a13.59,13.59,0,0,0-.85,7c-3.29,1.2-6.67,3.3-6.79,6.67a43.47,43.47,0,0,0-11.71-6.23C239.65,208.08,241.31,206.13,241.47,204.09Zm21.44,5.23a33.57,33.57,0,0,1,11.22-.44c3.28.38,6.67.86,9.89,0-2.39,3.75-3.76,8.19-.77,11.79,2.41,2.9,6.31,2.58,9.5,1.53.47-.15.92-.34,1.38-.53-4.61,4.28-8.9,8.13-14.85,10.83-5.12,2.31-11.78,5.15-17.18,2.58A31.34,31.34,0,0,0,251.57,217C252.44,211.42,257.91,210.38,262.91,209.32Zm-.55,27.37a8.63,8.63,0,0,0,5.43,1s0,0,0,.05c1.48,1.16,2.3,3.35,3.39,4.87a72.19,72.19,0,0,1,4.17,6.76c2.52,4.47,4.9,8.72,3.14,13.82-1.18,3.43-4.49,7.94-8.49,7.95a32.39,32.39,0,0,0-4.09-1.81c-1.13-1-2.15-2.21-3-3.15-1.79-1.91-4.11-3.61-5.06-6.12a.91.91,0,0,0-.48-.5,49,49,0,0,0,2.76-5.58A33.47,33.47,0,0,0,262.36,236.69Zm-5.86,24.43c.9,2.23,2.86,3.81,4.56,5.48.54.54,1.1,1.16,1.68,1.78a22.57,22.57,0,0,0-12.21.85A64.59,64.59,0,0,0,256.5,261.12Zm22.08,6.31A14,14,0,0,0,281,262c.64-.79,1-1.85,1.68-2.63,1.67-1.91,4.62-2.17,6.9-2.68a.44.44,0,0,0,.31-.43,12.84,12.84,0,0,0,9.38,1.42h0a17,17,0,0,0,4,2.33,17.63,17.63,0,0,0,3.7,1.51,69.46,69.46,0,0,0-4.85,5.58c-1.9,2.51-4.34,6.44-3.9,9.89a7.68,7.68,0,0,0-.59-.55C291,270.64,281,269,273,272.93c-.23-.15-.45-.32-.69-.47A12.86,12.86,0,0,0,278.58,267.43Zm29.82,32.3a34,34,0,0,0-6.31-18.36c3.9,1.26,9.71.19,12.58-.2,7.78-1.07,17.27-.63,23.63-5.86a38.69,38.69,0,0,0,3.83,8.2c-3,.5-5.91,1.88-8.81,2.88-3.88,1.33-7.85,2.06-11.66,3.67A37.2,37.2,0,0,0,308.4,299.73Zm29.34-26.36c-5.46,5.28-14.11,4.9-21.19,5.87-4.48.62-12.16,2.74-16-.63-3.2-2.83,2.4-9.84,4.19-12,2.79-3.41,6.11-6.41,9.18-9.57,3.6-3.71,7.22-7.26,12.74-7a56.6,56.6,0,0,1,13.16,2.14,39.92,39.92,0,0,0-2.24,6.64A30.06,30.06,0,0,0,337.74,273.37ZM340.33,251a28.73,28.73,0,0,0-12.22-3.18,8.28,8.28,0,0,0,3.59-3.14c3.08-4.89,1-14.23-4.24-17.53.27-.08.53-.13.8-.22a9.34,9.34,0,0,0,4.2-3c0,2.89,3.05,5.32,5.25,6.67,3.66,2.26,9-.06,12.53-1.36a42.71,42.71,0,0,0,7.19-3.17c3.54,0,15.84-2.8,14.56,3.07a.65.65,0,0,0,.26.67c-1.21,0-2.44,0-3.67,0C356,230.44,345.57,239.82,340.33,251Zm30.56-26.52c3.67.61,7.29,1.44,11.05,1.33,5.05-.14,10-2.37,14.65-4.06.25-.1.24-.56-.07-.52-3.35.44-6.59,1.39-9.9,2a33.69,33.69,0,0,1-13,0c-1.14-.21-2.28-.44-3.44-.58-3.38-.43-5.1-2.58-4.31-6,.72-3.21,3.88-5.84,6.14-8,9.22-9,23-9.2,35.08-8.28l0,0c1.36.64,2.84,1,4.18,1.72,2.48,1.28,3.18,5.76,3.66,8.23,1,5.31.82,10.46-4,13.76a37.47,37.47,0,0,1-12.71,5.22c-5,1.17-10.23.87-15.23,2l-.09,0a61.62,61.62,0,0,0-10.07-1.38.66.66,0,0,0,.22-.22C374.47,227.41,373.29,225.26,370.89,224.48Zm45.67-4.93c1.17-3.79.57-8-.39-11.83a13.33,13.33,0,0,0-3.36-6.5,3.87,3.87,0,0,0-1.14-.72,3.75,3.75,0,0,0,.23-1.6,5.25,5.25,0,0,1,.49-2,.4.4,0,0,0-.45-.59c-.74.26-1,1.17-1.24,1.85a4.78,4.78,0,0,0-.31,1.93c-.29-.06-.59-.12-.88-.16a.47.47,0,0,0-.36-.52c-1.54-.31-3.08-.54-4.63-.74.41-.79.74-1.6,1.22-2.36s1-1.2,1.42-1.82c1.48-.63,2.94-1.33,4.38-2a88.69,88.69,0,0,0,10.6-6,.66.66,0,0,0,.26.47c1.42,1.08,3.18,1.56,4.64,2.59a10.92,10.92,0,0,0-1.72,5.24c-.45,4.9,1.76,8.49,5.85,10.95,2.48,1.49,5.09,2.6,7.48,4.25a29.72,29.72,0,0,0,2.53,1.6A37.28,37.28,0,0,0,416.56,219.55Zm30.5-7.39a.6.6,0,0,0-.54-.63c-4.57-.68-7.86-4.05-11.89-6.06-2.38-1.19-4.79-2.41-6.33-4.67-1.37-2-1.28-5.22-.92-7.5,1.35-8.57,16.09-7.93,23.23-10.34a12.48,12.48,0,0,0,1.77,4.16,15.3,15.3,0,0,0,12.16,6.36,8.56,8.56,0,0,0-1.21,2.46c-1,3.19-.72,7,1.81,9.33a8.39,8.39,0,0,0,4.4,1.85,13.52,13.52,0,0,0-.64,1.5,14.29,14.29,0,0,1-1.79,2.88,10,10,0,0,1-5,3.41s-.05,0-.08.06C457.06,213.87,452.09,212.84,447.06,212.16ZM464,215.41a10.38,10.38,0,0,0,3.79-2.61c1.19-1.21,3.2-3.65,3-5.53a17.39,17.39,0,0,0,3.48-.1c-2.15,2.9-3.4,6.28-5,9.58C467.5,216.24,465.73,215.81,464,215.41Zm36.66,1.35c-2.9,2-6.43,4.85-6.62,8.63,0,0,0,0,0,.05a24,24,0,0,0-9.09.86,28.25,28.25,0,0,0-8.26-6.62,34.3,34.3,0,0,0-5.8-2.42c1.86-3.28,2.86-6.86,5.36-9.85,3-3.58,7.44-6.3,12.23-5.55,7.82,1.22,7.58,10.65,13.36,14.09Zm8.83-20.89c.9,3.46-1.43,6.47-3.17,9.2s-3.43,5.57-5.27,8.29a.47.47,0,0,0-.06.15c-1.83-2.74-3-5.92-4.84-8.65a12,12,0,0,0-9.34-4.92c-3.9-.19-7.54,2.26-10.29,4.75-.29.26-.55.55-.82.83-3.14.7-8.11.32-10.18-2.42-1.92-2.56-.71-7.32,1.14-9.55.14-.17.3-.32.46-.48l.39-.11a.76.76,0,0,0,.5-.64c1.38-1,3-1.75,4.36-2.82,1.72-1.42,3.48-3.86,5.67-4.91,1.14.1,2.25.13,3.2.16a97.15,97.15,0,0,0,19.05-1C503.58,187.84,508.05,190.45,509.46,195.87Zm-19-38c2.31-1.86,4.45-3.93,7.53-4.34a11.78,11.78,0,0,1,6.14,1.13.47.47,0,0,0,.36.6,8.58,8.58,0,0,1,1.45.5,1.67,1.67,0,0,1,.16.12.53.53,0,0,0,.25.1c3.17,1.6,5.7,5,7.59,7.74,2.59,3.77,3.72,7.87.54,11.7-6.12,7.34-19.2,7.44-27.76,7.56-4.27.06-9.55.45-13.48-1.5-6.86-3.38,1.84-10.21,4.62-12.85C481.86,164.74,486.07,161.33,490.42,157.83Zm-28.62,1.52a12.67,12.67,0,0,1,7.41-1.78c4.83.2,4.63,6.92,8.34,8.7-.35.34-.7.66-1,1-3.49,3.4-9,6.9-7.2,12.53.89,2.8,3.58,4,6.44,4.5a42.67,42.67,0,0,0-4.69,3.92c-1.7,1.44-3.42,2.33-4.87,3.52-5,1-10.9-3-13.13-7.19-3.29-6.18,1.91-13,4.36-18.48C458.51,163.64,459.5,160.88,461.8,159.35ZM441,154.22c5.6,2.29,11.66,5.3,17.85,5.25-1.75,2.07-2.7,4.86-3.83,7.26-2.38,5-5.28,10-4.65,15.14-5.68,1-11.56,1.51-17.05,3.34a13,13,0,0,0-5.31,3.08,20.32,20.32,0,0,0-5-2.44,61.11,61.11,0,0,0,6.85-5.45c4.08-3.78,7.3-8.53,5.39-14.22-1.3-3.84-4.83-6.78-8.7-8.07a.52.52,0,0,0-.35-.27c-1.07-.22-2.13-.42-3.2-.61.89-2.57,3.34-3.69,5.78-4.6C433.13,151,437.08,152.6,441,154.22ZM421.51,157a79.46,79.46,0,0,0-20-.68c-5,.49-8.81,1.6-12.12,4.35a16.23,16.23,0,0,0-.15-6.63c-.81-3.52-4.26-5.37-7.41-6.36l-.43-.11c2.87-3.95,7.32-4.84,12.09-4.48,4.92.36,9.82,1,14.74,1.27,2.44.15,4.87.36,7.3.52s5.92-.09,7.38,2.33c.77,1.27,1,3.71,2,5.08C423,153.37,421.58,154.91,421.51,157Zm9.85-24.65c1.8,1.18,12.51,6.58,7.12,9.77-6.47,3.82-15.74,2.29-22.24-.5a26.37,26.37,0,0,1-8.79-6.48c-2.64-2.86-3.78-6.21-5.76-9.42,2.81-2,5.22-3.88,8.95-4.23,4.43-.42,8.22,1.84,11.83,4.08C425.65,127.54,428.24,130.28,431.36,132.34Zm-25.37-25c4.59-.1,9.48-.54,13.78,1.42,2.51,1.13,4.93,3.95,4.23,6.83-.66,2.71-3.26,4.9-5.79,5.81a17.73,17.73,0,0,0-7.57-1.5c-4.29.15-6.92,2.54-9.75,5.31a.74.74,0,0,0-.57.55l0,0a.4.4,0,0,0,.18.65c.11.24.22.47.34.71-1.46.31-2.91.81-4.36,1.15a27.49,27.49,0,0,0-4.51,1,16,16,0,0,0-4.52-.79c-5.34-.17-10.94,2-15.83,3.87-2.55,1-5.12,1.92-7.61,3.06-3,1.37-5.84,3-9,3.76a31.25,31.25,0,0,0-6.43-3.75c-1.75-.84-3.55-1.57-5.39-2.24a42.84,42.84,0,0,1-3.33-4.88c-2.3-4.28.95-8.72,4.95-10a19.15,19.15,0,0,1,11.07-.21c2.35.68,4.54,1.75,7,2,5.16,4.43,11.7,7.61,17.41,8.27,4.46.52,8.37-.32,10.68-4.46a6.67,6.67,0,0,0-2.14-9,43,43,0,0,1-3.25-4.73C388.12,103.77,400.57,107.46,406,107.34ZM372.27,96.16c4.41,1.63,5.89,5.83,8.46,9.36,2.36,3.25,4.56,6.43,7.13,9.47a.5.5,0,0,0,.16.62c4.47,3.25,2.28,9.56-2.38,11.27-4.19,1.55-9.76-.84-13.46-2.68-8-4-17.68-12.07-17.29-21.83C355.26,93.09,366,93.83,372.27,96.16ZM355,110.07a26.81,26.81,0,0,0,6.09,8.51c-3.13-1.16-6.19-2.41-9.59-2.64a19.36,19.36,0,0,0-2.41,0c1.32-.67,2.63-1.37,3.84-2.14A4.71,4.71,0,0,0,355,110.07Zm-3.35-5a6.3,6.3,0,0,1,1.89,4.26c.2,2.71-1.83,3.58-3.74,4.46-2.32,1.06-4.52,2.34-6.79,3.5l-.45.22c-.13.06-.26.12-.38.19-5.3,2.67-10.46,4.89-16.32,5.82a12.3,12.3,0,0,0-.13-5.33c-1-3.66-4.53-4.94-7.88-5.53a35.26,35.26,0,0,0-11.81.34,2.77,2.77,0,0,1-.47-1,3.48,3.48,0,0,1,.32-1.45,16.29,16.29,0,0,0,.84-2.09c5.35,1.53,10.69,1.29,15.35-3.46a8.76,8.76,0,0,0,2.15-3.59C333.29,102.6,344.19,97.91,351.66,105Zm-68.86-16c.72-4.65,5.1-7.58,9.3-8.7,4.5-1.2,8.69.47,12.83,2.09,2.21.87,4.89,2.66,7.41,2.55,4.87,1.33,8,4.48,9.67,9.23,2,5.47-.23,10.54-5.69,12.75-8.74,3.56-19.21-5.07-26.59-8.71a22.19,22.19,0,0,1-4.19-2.55.36.36,0,0,0-.18-.64l-.63-.11A6.54,6.54,0,0,1,282.8,89.08Zm-16.95,7.29a38.15,38.15,0,0,1,9-2c2.54-.2,4.95.47,7.4,1,2,2.78,5.91,4.38,8.75,5.79.63.31,1.27.64,1.92,1,.67,3.13-1.4,6.15-4.15,7.66a33.22,33.22,0,0,1-5.55,2c-1.46.5-2.81,1.22-4.25,1.8a12.53,12.53,0,0,0-5.35-.78c-2.46.17-4.45,1.38-6.53,2.49a11.28,11.28,0,0,0,.84-1.91c1.19-3.63-2.55-6.39-5.22-8a14.43,14.43,0,0,0-7.9-2.12C257.21,99.36,261.6,97.78,265.85,96.37Zm-19.3,10.47c4-1.81,8.49-3.2,12.78-1.57,3.8,1.45,8.93,4.42,6.9,9.16a9.83,9.83,0,0,1-1,1.72l-.31.14a.39.39,0,0,0-.2.56,43.91,43.91,0,0,1-5.87,5.4l-.56-.79a32.22,32.22,0,0,0-8.85-8.29c-3.51-2.21-6.51-1.22-8.9,1.2a.3.3,0,0,0,0-.1,24.37,24.37,0,0,0-.13-4.46C242.51,109.41,244.77,107.65,246.55,106.84Zm-34-4.27c4.73-5.65,10.66-6.62,17.07-3.23a25.72,25.72,0,0,1,6.82,5.26c2.4,2.62,2.67,6.33,3,9.67a.55.55,0,0,0,.68.49,14.84,14.84,0,0,0-1.28,1.61c-.28.4.3.77.63.49,1.47-1.24,2.63-2.64,4.53-3.28,2.71-.92,5.67,1.61,7.53,3.18a33.68,33.68,0,0,1,5.67,6.08c2.74,3.82,8.27,12.29,2.86,16a.7.7,0,0,0-.26.35c-.78-.05-1.53-.07-2.22-.07a52,52,0,0,0-12.45,1.41c2.1-3.31.33-8.73-.85-12a64.11,64.11,0,0,1-3-9.31c-.3-1.54-1.64-2.19-3.16-2.26-3.76-.17-7.22,2.11-10,4.65a.7.7,0,0,0-.75-.44,25.63,25.63,0,0,1-13.86-2,.71.71,0,0,0-.7-.34c-.2-.11-.41-.2-.6-.3-2.54-1.41-5.67-4.82-5.08-7.92C207.64,107.94,210.92,104.58,212.6,102.57Zm-23.06-5.89c3-1.83,6-2.68,9.48-1.8,4.6,1.16,7.45,5.09,10.64,8.23a26,26,0,0,0-4.3,7c-1.11,3,1.42,5.87,3.33,7.8A13.83,13.83,0,0,0,211.4,120c-3.9,3.57-9.6,7-14.82,5.18-3.73-1.26-9.19-3.64-11.07-7.36,1.39-.25,2.79-.32,4.25-.53,3.33-.5,1.3-3.63,0-5.05-1.78-1.95-.75-4.32-1.76-6.54a23.29,23.29,0,0,0-3-4.69C185.59,98.92,187.82,97.75,189.54,96.68ZM154.07,85.49c-.07-2.64,2.77-3.43,4.76-4,7.13-2,14.09-4.14,21.41-2.58a.66.66,0,0,0,.71.57c.46,0,1,0,1.44,0l.29.08a.41.41,0,0,0,.38,0,3.55,3.55,0,0,1,3.38,2.27c.67,1.75.3,4-.14,5.75-.92,3.65-4.82,5.61-8.17,6.35-5,1.11-10.52-.29-15.36-1.66A19.52,19.52,0,0,1,156,89.11,4.63,4.63,0,0,1,154.07,85.49Zm-1.2,15.15a27.47,27.47,0,0,1,8.91-6.7.51.51,0,0,0,.19-.16l.33.12c4.19,1.36,9.56,2.66,14.44,2.18,2.42.93,4.74,3.39,6.23,5.08a24.31,24.31,0,0,1,3.2,4.65c1,1.82.52,4,1.18,5.93a4.46,4.46,0,0,0,1.31,1.59c2.47,2.31,0,2.54-1.89,2.58a14.08,14.08,0,0,0-4.09.9,20.62,20.62,0,0,1-7.22,1.25,56,56,0,0,1-13.81-2.48c-3.83-1-8.5-.43-11.74-3.09C146,109.31,150.65,103.12,152.87,100.64ZM138.1,121a11.72,11.72,0,0,1,2.79-3.86,18.59,18.59,0,0,1,4-2.85,12.72,12.72,0,0,1,3.26-.87c1.93,2.25,5.7,2.79,8.41,3.15,6.36.85,12.37,3,18.83,3.39,0,.21,0,.43.08.62.08.55.15,1.09.18,1.64a1.71,1.71,0,0,1,0,.32,24.47,24.47,0,0,0-8.11,1.71c-5.54,2-7.31,6.59-10.91,10.53a7.7,7.7,0,0,0-1.47-3.69c-3.19-4.59-10.46-4.12-15.26-3.59l-2.19.26C137.35,125.27,137.08,123.39,138.1,121Zm-20.3,16.47c.78-3.46,4.26-4.76,7.3-5.62A109.54,109.54,0,0,1,138,129.38c4.42-.7,9.61-1.24,13.73.85a6,6,0,0,1,2.9,7.63c-1,2.37-3.41,4.12-5.32,5.92h0c-6.33-2.77-11.63.61-15.06,6.06a.66.66,0,0,0,.07.75,10.43,10.43,0,0,0-2.32.23,7.66,7.66,0,0,0-1.79.68c-4.12-1.58-7.77-4.24-11.88-5.53A14.26,14.26,0,0,1,117.8,137.44Zm-9.29,30.2c-2.15-4.74-5-9.38-5.05-14.76,0-6,10.4-6.36,14.14-5.28,3.93,1.13,7.4,3.55,11.32,4.65-3.84,2.79-6.79,8.63-7.93,12.34-1,3.25,2.37,7.63,5.84,8.39-3.63,1.05-7.25,2.15-10.87,3.26C111.72,175.57,110.09,171.13,108.51,167.64Zm21.24,4.53a.77.77,0,0,0-.84-.59c-3.15.56-6.65-3.73-6.23-6.52.33-2.15,2.13-4.54,3.26-6.37a17,17,0,0,1,5.19-5.6c2.91-1.83,6.51-.21,9.28,1,4.11,1.85,8.51,2.42,12.84,3.56,3,.79,6.19,2.25,7.85,5,.82,1.35,1,3,1.66,4.42-2.92,0-5.83.15-8.67.4A135,135,0,0,0,129.75,172.17Zm42.64-4.51c-1-2.83,1.67-7.34,2.4-9.93,1.24-4.42,1.67-9.61,5.19-12.92a17.33,17.33,0,0,1,3.55-2.5.69.69,0,0,0,.63-.19,2.88,2.88,0,0,0,.22-.27,16.35,16.35,0,0,1,9-1.85c3.46.5,5.83,3.73,9.2,4.65.8,3.48,1,7.17,2.72,10.35a.53.53,0,0,0,.25.26,15.12,15.12,0,0,0-4.42,21.42,16.55,16.55,0,0,1-3.32,1.55,6.14,6.14,0,0,1-1,.17C190.08,172,181.42,168.84,172.39,167.66Zm25.78,12.09A7.15,7.15,0,0,0,202,177.8a14.16,14.16,0,0,0,1.74,1.72A16,16,0,0,0,214,183.31a27.36,27.36,0,0,1-4.41,11.81c-.76,1.06-1.92,2.19-2.93,3.39C206.56,191.53,202.84,184.75,198.17,179.75ZM159.93,332.41c-5.08,2.12-10.27,4-15.85,4-10.15,0-17.91-9.83-24.68-16.14-6.49-6-14.49-10.36-17.94-19-3.79-9.52,1.26-19.53,1.24-29.29l.42-.08c9.79-2.4,18.63-8.16,28.19-11.36a132.32,132.32,0,0,0,13.41-5c4.1-1.88,7.55-5,10.86-8,13.25-12,30.53-18.79,43.24-31.34a30,30,0,0,0,3.7-4.45.88.88,0,0,0,.15,0c7.05-4.4,16.55-3.65,24.41-2.4,8,1.27,15.84,3.92,22.21,9.12a29.53,29.53,0,0,1,10.81,20.7c.59,8.06-2.59,15.88-6.94,22.49-8.7,13.21-22.55,22.26-34.16,32.66-6.8,6.1-12.84,12.67-20.33,18a146,146,0,0,1-20.93,12.18.72.72,0,0,0-.72.36l-3.5,1.66C169.05,328.61,164.49,330.51,159.93,332.41Zm108.47,2.93c-7.31,5.61-15,10.9-23.61,14.35-9.49,3.81-19.32,3.41-29.15,1.25-2.07-.45-4.12-1-6.17-1.51-3.08-1.93-6.27-3.47-9.1-5.87-3.48-2.95-4.63-6.91-6.36-10.95-.17-.42-.78-.11-.69.29,1,4.26,1.76,8,4.9,11.18a30.26,30.26,0,0,0,4,3.42c-3.72-.94-7.48-1.42-11.22-2.21-9.77-2.05-9.75-10.77-12-18.56.71-.35,1.43-.7,2.13-1.06a140.52,140.52,0,0,0,23.77-14.8c6.7-5.2,12.3-11.6,18.69-17.15,5.95-5.17,12.16-10,18-15.32q2.58-2.34,5-4.83c8.07-4,15.95-4.18,23.86.55,7.28,4.35,12.68,12,15.75,19.75a31.47,31.47,0,0,1,.4,22.72C283.38,325,275.2,330.14,268.4,335.34Zm22.05,19.05c-6.58-5.29-13.17-13.31-14.82-21.79.78-.6,1.56-1.21,2.33-1.83,6,1.16,14.63,1,19.1-3.61-.5,7.5,1.13,14.91,6.15,20.51a26.12,26.12,0,0,0,11.47,7.13C308.8,361.78,296.78,359.47,290.45,354.39Zm63.38-9.46a53.65,53.65,0,0,1-8.33,7.1c-4,2.61-8.67,3.19-13.36,3.15-7.84-.06-16.3-1.21-23-5.41-13.91-8.67-10.93-27.87-4.93-40.56a37.3,37.3,0,0,1,16.33-16.9c3.84-2,8-3.09,12.2-4.2,3.49-.93,6.69-2.62,10.2-3.4a64.17,64.17,0,0,0,13.46,14.37c3.26,2.63,6.84,4.83,9.79,7.83,3.12,3.19,5.32,7,9.37,9.07,3.52,1.84,7.69,2.43,11.42,3.73h0C373.83,324.59,363.58,335.29,353.83,344.93Zm106.76-35.4c-3.47,3.69-8.37,6-13.13,7.54,4.31-2.42,8.24-5.57,10.54-9.72.24-.42-.37-.75-.64-.37-3.86,5.44-9.71,8.33-15.32,11.53-3.12.67-6.29,1.17-9.4,1.83-5.4,1.14-10.78,2.36-16.23,3.3a34.38,34.38,0,0,1-16.07-1.34,43.22,43.22,0,0,0,11.52-5.67.61.61,0,0,0-.61-1.05c-4.33,1.9-8.1,4.61-12.45,6.24-1.79-.58-3.57-1.23-5.37-1.91a53.32,53.32,0,0,0,6.79-1.59,62.88,62.88,0,0,0,11.12-4.27c4.18-2.08,7.42-5.44,11.51-7.6.15-.08,0-.35-.12-.29a48.3,48.3,0,0,0-7.78,4.59c-3.69,2.37-8.24,3.91-12.39,5.27-3.88,1.27-8.3,2.73-12.51,2.6l-2.54-1c-4.21-1.55-8.8-2.17-12.66-4.57-2-1.26-3.51-3.53-5-5.33a39.85,39.85,0,0,0-5.36-5.35c-6.44-5.23-12.9-9.78-18-16.32,4.34,1.93,11.72-.08,15.39-1.06,8.38-2.22,16-7.88,24.61-8.93,3.93-.47,6.23,2,6.55,5.75A12,12,0,0,1,388.86,292c-6.06,5.44-17.79,6.64-25.07,3.86-.35-.13-.6.46-.26.62,7.52,3.47,17.26,2.65,24.41-1.39,5.49-3.1,9.4-11.12,6.24-17.18-3.84-7.37-13.77-2.69-19.28-.29-5.1,2.22-10,4.51-15.46,5.89a41.46,41.46,0,0,1-7.67,1.17c-2.22.13-4.2-.6-6.29-.87a.47.47,0,0,0-.48-.44,5.42,5.42,0,0,0-.57,0,32.87,32.87,0,0,1-4.38-9.95.93.93,0,0,0-.17-.63,31.28,31.28,0,0,1-.11-13.42A37.22,37.22,0,0,1,354,237.61c8.3-6.16,18-6.22,27.84-4.48,4.53.8,8.81,2.42,13.23,3.63,2.57.71,8.11,1.7,9.79,4.38a11.53,11.53,0,0,0,.53,3.56,9.93,9.93,0,0,0,.3,1.89.5.5,0,0,0,0,.12.25.25,0,0,0,.13.24c1.55,5.18,6.92,9.36,10.15,13.33,5.14,6.33,9.39,12.86,15.65,18.24,5.57,4.79,12.54,7.18,18.88,10.7,5.44,3,10.36,6.84,16,9.54C464.83,302.6,463.54,306.4,460.59,309.53Z"/><path class="cls-1" d="M211.93,169.92c2.83,1.19,7.49-1.38,10-2.58s7.19-3.38,7.77-6.4a.66.66,0,0,0-1.2-.51c-1.92,2.5-4.61,4.09-7.37,5.53a42.26,42.26,0,0,1-5.48,2.39c-.61.22-1.21.42-1.82.59s-1.82.79-1.08,0a.1.1,0,0,0-.14-.14,4.34,4.34,0,0,0-.76.66A.28.28,0,0,0,211.93,169.92Z"/><path class="cls-1" d="M255.57,146.25c-.5.1-.39.75,0,.9,2,.76,9.81,1.6,5.13,5-2.8,2.06-8.49,2.32-11.1-.12a.44.44,0,0,0-.69.52c2.37,4.5,11,3.08,13.83-.15C266.41,148.25,258.74,145.61,255.57,146.25Z"/><path class="cls-1" d="M277.16,159.28c2.67-1.8,6.18-4.29,7.41-7.38.25-.62-.74-1-1.05-.45-2.6,4.65-8.36,8.56-13.4,10a.12.12,0,0,0-.05.19C271.91,163.09,275.74,160.23,277.16,159.28Z"/><path class="cls-1" d="M315.46,122.55c-1.95,5.92-7.88,11.48-13.5,14.09-.33.16-.18.75.19.7,3.42-.42,6.66-3.49,9.06-5.74,2-1.85,6.33-5.91,5.51-9A.66.66,0,0,0,315.46,122.55Z"/><path class="cls-1" d="M322.19,140.62c-1.76,5.26,7.36,11.81,11.25,13.54a.38.38,0,0,0,.38-.65,41.7,41.7,0,0,1-5.36-4.84c-1.87-1.91-4.86-4.6-5-7.46-.25-4.29,10.3-1.76,12.26-1.3,3.27.77,7.16,2.05,10.5,1.1a.68.68,0,0,0-.18-1.33c-5.46-.05-10.56-1.8-16-2.17C327.38,137.33,323.2,137.63,322.19,140.62Z"/><path class="cls-1" d="M210.39,150.3a.39.39,0,0,0,.66-.27c.17-1.26-.8-2.63-1.54-3.57a9.88,9.88,0,0,0-3.3-2.83c-.09,0-.21.05-.15.15.7,1.07,1.54,2.05,2.28,3.09S209.48,149.39,210.39,150.3Z"/><path class="cls-1" d="M184.88,150.59a.42.42,0,0,0-.76.1c-.59,2.68-.4,5.95-.41,8.69,0,2.16.2,4.78,2,6.18.36.27.75-.18.69-.54a38.21,38.21,0,0,1-.82-8.13C185.67,154.91,186.06,152.32,184.88,150.59Z"/><path class="cls-1" d="M198.58,156.43c.54.35,1-.22,1-.74-.2-1.28-1.27-2.54-1.92-3.64a10.25,10.25,0,0,0-2.61-3.26c-.51-.37-1,.31-.79.79.64,1.26,1.49,2.44,2.18,3.69C197,154.36,197.5,155.73,198.58,156.43Z"/><path class="cls-1" d="M134.34,163.52a30.85,30.85,0,0,1-5.51-1.3c-.57-.18-.86.62-.39.93a12.83,12.83,0,0,0,4.55,1.76c1.62.32,3.56.74,5.16.27a.52.52,0,0,0,.13-1A11.84,11.84,0,0,0,134.34,163.52Z"/><path class="cls-1" d="M231.68,113.09a.7.7,0,0,0,.35-.6c0-1.34-4.35-.42-5.21-.44-2.76,0-10.23-.34-11.15-3.79a.33.33,0,0,0-.65.08C214.56,114.09,228.3,114.9,231.68,113.09Z"/><path class="cls-1" d="M227.07,106.61a44.59,44.59,0,0,0,5.66,2.52c.23.07.34-.21.21-.37a12.64,12.64,0,0,0-4.55-3,30.12,30.12,0,0,0-5.71-2.51.42.42,0,0,0-.41.7C223.54,105.23,225.43,105.87,227.07,106.61Z"/><path class="cls-1" d="M237.24,135.73c-.07.91,1.36.9,1.41,0,.23-3.64.4-7.3-1.26-10.65-.2-.4-.9-.11-.73.3C238,128.66,237.49,132.3,237.24,135.73Z"/><path class="cls-1" d="M281.41,131.81a.47.47,0,0,0,0-.9,26.57,26.57,0,0,1-7.27-3.76c-1.95-1.4-4.34-3.25-6.68-3.86-.07,0-.15,0-.12.12,1,2.61,4.4,4.23,6.56,5.8S278.74,132.61,281.41,131.81Z"/><path class="cls-1" d="M243.36,190.27c4.87,1.09,10.13-2.19,14.06-4.77,1.87-1.23,6.48-5.28,2.15-6.53a.37.37,0,0,0-.35.61c1.89,2.32-3.32,4.88-4.92,5.83-3.33,2-6.9,3.73-10.82,4C243,189.4,242.83,190.16,243.36,190.27Z"/><path class="cls-1" d="M250.61,174.75c2.44.76,4.72,2.44,7.32,2.53,1,0,1-1.42,0-1.52-2.55-.27-4.68-2.16-7.32-1.64C250.28,174.18,250.32,174.66,250.61,174.75Z"/><path class="cls-1" d="M222,196.46c1.15-.43,2.82-.64,3.74-1.46a.67.67,0,0,0-.29-1.11c-1.09-.39-2.42.49-3.37,1s-2.6.9-3,1.77a.12.12,0,0,0,0,.15C219.79,197.54,221.25,196.75,222,196.46Z"/><path class="cls-1" d="M301.2,185.59c-3,0-6.5.24-8.91,2.19-.28.22,0,.65.33.57a33.89,33.89,0,0,1,9.57-1.12c2.88.05,6.39,1.15,9.19.41a.44.44,0,0,0,.1-.79C308.68,185.34,304.3,185.63,301.2,185.59Z"/><path class="cls-1" d="M321.18,209.24a16.3,16.3,0,0,1-4.65-6.41c-.22-.48-.84-.1-.78.33.73,5.2,6.91,10.25,11.77,11.51a.6.6,0,0,0,.46-1.1C325.81,212,323.3,211,321.18,209.24Z"/><path class="cls-1" d="M267.36,217.77c3.36-1.42,7.31-1.26,10.5-3,.45-.24.27-1.09-.28-1-5.46.67-10.37,2.72-15.52,4.37a.24.24,0,0,0-.1.39C263.49,219.75,265.82,218.42,267.36,217.77Z"/><path class="cls-1" d="M274.24,190.51c-1.9.91-3.05,3.38-3.83,5.23-1,2.39-1.91,5-1.56,7.65.07.47.85.45.93,0a30.58,30.58,0,0,1,1.81-6.36c.89-2.08,2.47-3.78,3.36-5.82A.52.52,0,0,0,274.24,190.51Z"/><path class="cls-1" d="M326.08,174.51a27.69,27.69,0,0,1,1.24,8.48.6.6,0,0,0,1.18.16c1.66-5.32-1.86-13-5.5-16.81a.31.31,0,0,0-.48.37A85.63,85.63,0,0,1,326.08,174.51Z"/><path class="cls-1" d="M267.87,260.88c.78,1.26,2.35,3.35,4,3.19.43-.05.89-.55.56-1-.53-.71-1.33-1-2-1.64a11.89,11.89,0,0,1-1.81-2.47,14.53,14.53,0,0,0-3.5-4.46c-.62-.45-1.27.5-.79,1A32.19,32.19,0,0,1,267.87,260.88Z"/><path class="cls-1" d="M301.58,246.83a.67.67,0,0,0,.4-1c-.58-.77-1.85-1.09-2.68-1.56a53.06,53.06,0,0,1-4.57-3c-2.41-1.76-6.17-4.33-6.56-7.54a.38.38,0,0,0-.65-.27c-2.4,2,3.16,6.55,4.37,7.58a47,47,0,0,0,5.76,4.15C298.56,245.76,300.43,247.22,301.58,246.83Z"/><path class="cls-1" d="M323.82,232.46c-3.17-.87-6.41-1.27-9.56-2.27A74.46,74.46,0,0,1,304.2,226a.6.6,0,0,0-.6,1c5.8,3.28,13.24,6.91,20.08,6.49A.54.54,0,0,0,323.82,232.46Z"/><path class="cls-1" d="M333.42,256.25c-5.2,6.58-14.45,9.63-21.44,13.93a.45.45,0,0,0,.35.82l.13,0,.07,0c4.38-1.23,8.47-3.86,12.4-6.12,3.35-1.94,8.23-4,9.49-8C334.59,256.29,333.8,255.77,333.42,256.25Z"/><path class="cls-1" d="M319.77,257.89c.94-.63,2-1,2.89-1.7a.39.39,0,0,0-.28-.66c-2.29.14-4.45,2.17-6.11,3.63a27.15,27.15,0,0,0-5.72,7.16c-.16.29.25.65.48.37a71.17,71.17,0,0,1,5-5.71A25.17,25.17,0,0,1,319.77,257.89Z"/><path class="cls-1" d="M286.12,266.62a18.23,18.23,0,0,0,3.79,1,10.42,10.42,0,0,0,4.43.34.6.6,0,0,0,0-1.14c-1.48-.32-3-.36-4.54-.62a9.67,9.67,0,0,0-3.59-.25A.38.38,0,0,0,286.12,266.62Z"/><path class="cls-1" d="M410.56,177.2a65.77,65.77,0,0,1-9.51,3.62c-2.38.81-5.51,1.54-7.64,2.81a.37.37,0,0,0,0,.63c2.12,1.4,5.14-.26,7.26-1,3.3-1.24,6.7-2.1,9.87-3.68,3.43-1.71,6.82-3.68,10.13-5.61,1.88-1.1,4.48-2.61,5.22-4.77.14-.43-.49-.82-.78-.46C421.65,172.9,415.24,174.74,410.56,177.2Z"/><path class="cls-1" d="M396.29,167.16c3.88.1,7.83-1.28,11.65-1.89a44.64,44.64,0,0,1,16,.38c.56.11,1-.67.4-1-8.28-4.42-19.91-1.07-28.16,1.74A.38.38,0,0,0,396.29,167.16Z"/><path class="cls-1" d="M340.56,219.64c3.43-.16,6.59-1.81,9.56-3.41s6.49-3.23,8-6.26c.33-.67-.51-1.43-1.07-.83a34.47,34.47,0,0,1-16.59,9.44A.54.54,0,0,0,340.56,219.64Z"/><path class="cls-1" d="M402.15,215.54l.45.1a.15.15,0,0,0,.18-.23c-.1-.12,3.44-3.57,3.78-4,1.17-1.36,2.44-3,2.66-4.84.06-.59-.76-.69-1-.28a49.89,49.89,0,0,1-3,4.6c-1.13,1.34-2.43,2.52-3.5,3.91A.49.49,0,0,0,402.15,215.54Z"/><path class="cls-1" d="M372.66,191.86c-.1-2-1.37-7.22.58-8.5.65-.43,0-1.49-.6-1-2.24,1.73-1.56,5.49-1.41,7.94.1,1.46-.13,3,.55,4.41a43,43,0,0,0,3.45,4.84c.38.54,1.34.23,1.11-.47C375.45,196.32,372.82,194.94,372.66,191.86Z"/><path class="cls-1" d="M378.63,159.06c-4.14,1.68-8.52,1.92-12.89,2.55-4.72.68-10,2.24-14.7.83-.31-.09-.6.35-.33.57,3.09,2.48,8.45,1.35,12.05.84,5.27-.73,11.72-.73,16.52-3.25C380.12,160.16,379.52,158.69,378.63,159.06Z"/><path class="cls-1" d="M315.09,98.05c.59-.09.45-.91,0-1.07-4.33-1.54-8.56-1.88-12.66-4.24-3.38-1.94-5.92-4.92-9.47-6.54a.28.28,0,0,0-.34.43C297.52,92.85,306.76,99.24,315.09,98.05Z"/><path class="cls-1" d="M271.91,105.47c2.22-.73,4.47-1.41,6.71-2.1,1.91-.59,4.19-.9,5.89-1.93a.49.49,0,0,0-.25-.91c-2-.21-4.15.82-6,1.45-2.23.76-4.38,1.74-6.59,2.54C271.06,104.74,271.3,105.66,271.91,105.47Z"/><path class="cls-1" d="M327.1,112.7a30.49,30.49,0,0,0,7.71-1.7c2-.64,4.8-.91,6.21-2.59a.51.51,0,0,0-.61-.79A84.78,84.78,0,0,1,327,112,.34.34,0,0,0,327.1,112.7Z"/><path class="cls-1" d="M370.65,110.54c3.66,3.85,9,8.42,14.61,8.38a.42.42,0,0,0,.11-.82,34.3,34.3,0,0,1-12.8-7.91c-2.34-2.16-6.63-5.87-7.62-9a.25.25,0,0,0-.5.06C364.14,104.62,368.61,108.39,370.65,110.54Z"/><path class="cls-1" d="M430.81,137.82a.41.41,0,0,0,.21-.75c-3-1.58-6.37-2.25-9.35-4-2.7-1.57-4.66-4-7.59-5.19-.4-.16-.6.45-.28.66C419,132.07,423.92,137.87,430.81,137.82Z"/><path class="cls-1" d="M482.07,175.14c4.48.73,8.89-.55,13.18-1.74a43.22,43.22,0,0,0,6.84-2.28c1.76-.83,3.27-2.55,4.65-3.87.51-.5-.16-1.38-.76-1-1.38.88-2.47,2.06-3.77,3.06-1.74,1.33-4.16,1.76-6.24,2.33a76.6,76.6,0,0,1-13.82,2.87C481.82,174.54,481.69,175.08,482.07,175.14Z"/><path class="cls-1" d="M482.53,207.55c-1.74,2.49-3.46,7-2.67,10a.63.63,0,0,0,1.2,0c.47-1.58.44-3.3.84-4.92s1.16-3.13,1.51-4.76A.48.48,0,0,0,482.53,207.55Z"/><path class="cls-1" d="M476.55,197.92c5.2-.87,10.57-.11,15.82-.56,2.76-.23,6.46-.42,8.52-2.5a.67.67,0,0,0-.81-1.05c-7,3.91-16.08,1.61-23.7,3.5C476,197.41,476.16,198,476.55,197.92Z"/><path class="cls-1" d="M460.11,180.84c1.54-2.42,1.36-5.54,1.95-8.28.39-1.79.35-6.58,2.43-7.32.61-.22.36-1.18-.28-1-2,.61-2.6,3-3.08,4.8-1,3.71-1.3,7.53-2.38,11.21A.75.75,0,0,0,460.11,180.84Z"/><path class="cls-1" d="M460.82,198.76c-3.71.69-7.22,1.69-11,1.94-3.28.21-6-1.46-9.11-1.48a.42.42,0,0,0-.11.82c3.26,1.22,5.65,2.35,9.22,2.37a29.77,29.77,0,0,0,11.42-2.25A.73.73,0,0,0,460.82,198.76Z"/><path class="cls-1" d="M448.06,166.41c.57-.09.47-.91,0-1.06-2-.6-4-.75-6-1.43a25.53,25.53,0,0,1-6.51-3.63c-.39-.28-.76.3-.48.63C437.84,164.2,443.71,167.08,448.06,166.41Z"/><path class="cls-1" d="M410.85,150.07c-5.83.28-11.58.64-17.43.72-.27,0-.35.44-.07.49,5.62,1,12.11,1.53,17.64-.14C411.56,151,411.48,150,410.85,150.07Z"/><path class="cls-1" d="M389.13,136.8c-5.78,2.27-12,3.17-17.71,5.69-.52.23-.14,1.13.4.93a66.59,66.59,0,0,1,10.92-3.08c2.33-.43,5.34-.54,7.09-2.33C390.3,137.52,389.84,136.52,389.13,136.8Z"/><path class="cls-1" d="M360.57,129.13a54.52,54.52,0,0,1-12.72-4.36.49.49,0,0,0-.49.84c3.85,2.28,8.48,4.69,13.08,4.51A.51.51,0,0,0,360.57,129.13Z"/><path class="cls-1" d="M395.42,117.7c5.58,0,11.07-1.89,16.58-2.61a.63.63,0,0,0,0-1.25c-5.62-.17-11,2.57-16.58,3A.44.44,0,0,0,395.42,117.7Z"/><path class="cls-1" d="M119.69,158.87c-3.83-1-8.39-2.71-10.32-6.4a.5.5,0,0,0-.91.11c-.69,2.08,2.23,4,3.64,4.92,2,1.33,4.88,2.94,7.36,3A.84.84,0,0,0,119.69,158.87Z"/><path class="cls-1" d="M132.23,139.58c2.05-.63,4.51-1.25,6.24-2.54a.6.6,0,0,0-.46-1.1c-2.11.36-4.13,1.57-6.15,2.3a64.81,64.81,0,0,1-6.29,1.85.43.43,0,0,0,.11.84A26.69,26.69,0,0,0,132.23,139.58Z"/><path class="cls-1" d="M176.13,130.36a24.67,24.67,0,0,1-4.15,8.31c-1.73,2.17-3.88,3.93-5.69,6a.42.42,0,0,0,.5.65c2.93-1.46,5.45-4.23,7.45-6.76,1.68-2.11,3.92-5.36,3.25-8.22A.71.71,0,0,0,176.13,130.36Z"/><path class="cls-1" d="M163.81,87.32c3.29,1.06,8.61,3,11.83.82a.53.53,0,0,0-.4-1,27.66,27.66,0,0,1-5.23.49,26.62,26.62,0,0,1-6-1.13C163.52,86.39,163.31,87.16,163.81,87.32Z"/><path class="cls-1" d="M167.45,109.66c4.14.61,8.6,1.94,12.74.85a.67.67,0,0,0-.18-1.32c-1.6-.15-22.7-1.66-21.86-4.28a.14.14,0,0,0-.24-.14c-.21.2-.41.41-.61.61a.36.36,0,0,0,0,.5C159.84,108.69,163.89,109.14,167.45,109.66Z"/><path class="cls-1" d="M148.11,124.57a19.35,19.35,0,0,0,5.33.3c1.53,0,3.76,0,4.72-1.33.25-.34-.1-.73-.44-.76a6.74,6.74,0,0,0-2.24.43,16.13,16.13,0,0,1-3.18.26c-1.36,0-3-.27-4.29.33A.42.42,0,0,0,148.11,124.57Z"/><path class="cls-1" d="M199,115.42a.41.41,0,0,0,.39-.68,15.73,15.73,0,0,0-2.57-2.16,7.38,7.38,0,0,1-1.92-2.82c-.85-1.81-2.06-3.89-2-6a.24.24,0,0,0-.46-.06c-.59,2.18.49,4.49,1.29,6.49A8.38,8.38,0,0,0,199,115.42Z"/><path class="cls-1" d="M427,9.92c-8.82,6.76-13.63,16.71-17.61,26.82-2.31,5.89-4.94,11.29-6.55,17.45-1.12,4.26-3.42,10.5-1.1,14.7.07.13.23,0,.25-.07a78.92,78.92,0,0,1,3.12-15c1.61-5.27,3.78-10.22,5.72-15.37,3.94-10.48,7.86-20.47,16.37-28.23C427.36,10.05,427.18,9.8,427,9.92Z"/><path class="cls-1" d="M470.63,27.34c-3.84,2.43-7.08,5.46-10.56,8.35C457.35,38,454.22,40,453,43.48a.24.24,0,0,0,.44.19c1.62-3,4.9-5.05,7.53-7.12,3.47-2.71,6.67-6,9.89-9C471,27.46,470.78,27.25,470.63,27.34Z"/><path class="cls-1" d="M466.43,35.34a.18.18,0,0,0,.33.14c2.53-3.84,7-5.67,10.33-8.73.15-.14,0-.38-.2-.27-2.15,1.37-4.38,2.52-6.45,4C468.78,31.72,466.88,33.23,466.43,35.34Z"/><path class="cls-1" d="M202.36,17.4c.57,2.45,1.93,4.47,3.15,6.64,1.79,3.17,2.11,7.23,3,10.73.06.25.42.14.38-.11-.48-3.07-.65-6.13-1.62-9.1s-3.27-5.39-4.46-8.27A.22.22,0,0,0,202.36,17.4Z"/><path class="cls-1" d="M182.66,18.34c2.15,2.68,3.11,5.94,4.84,8.85a.18.18,0,0,0,.32-.14,17.22,17.22,0,0,0-4.68-9.19C182.82,17.56,182.4,18,182.66,18.34Z"/><path class="cls-1" d="M188.62,21a17.8,17.8,0,0,0-3.3-6.17c-.08-.1-.21,0-.19.11.41,2.24,2.29,4.14,3.28,6.15C188.47,21.16,188.66,21.07,188.62,21Z"/></g></g></svg>