<svg xmlns="http://www.w3.org/2000/svg" viewBox="0 0 26.36 16.78"><defs><style>.cls-1{fill:#f4f0e6;}</style></defs><title>Eno</title><g id="Capa_2" data-name="Capa 2"><g id="Layer_1" data-name="Layer 1"><g id="hNLhEu"><path class="cls-1" d="M0,7.38l5.33,0c.54,0,1.19.17,1.58-.08s.31-.92.49-1.39A8.46,8.46,0,0,1,12.86.71a11.08,11.08,0,0,1,8.81.43c2.72,1.35,4.55,3.45,4.69,6.64a7.57,7.57,0,0,1-4.95,8,11.44,11.44,0,0,1-9.9-.18A7.75,7.75,0,0,1,7,9H0ZM12.6,9H9.1c0,.27,0,.51.08.75a5.1,5.1,0,0,0,2.65,3.59,10,10,0,0,0,8.74.52A5.48,5.48,0,0,0,24.36,8.7a6,6,0,0,0-4-6,10.27,10.27,0,0,0-4.65-.57A7.12,7.12,0,0,0,9.93,5.37,16.78,16.78,0,0,0,9,7.3h3.6V4.42h7.83V6H14.38V7.36h4.19V9H14.39v1.56h6.38v1.63H12.6Z"/></g></g></g></svg>
