<?xml version="1.0" encoding="utf-8"?>
<!-- Generator: Adobe Illustrator 16.0.0, SVG Export Plug-In . SVG Version: 6.00 Build 0)  -->
<!DOCTYPE svg PUBLIC "-//W3C//DTD SVG 1.1//EN" "http://www.w3.org/Graphics/SVG/1.1/DTD/svg11.dtd">
<svg version="1.1" id="Layer_1" xmlns="http://www.w3.org/2000/svg" xmlns:xlink="http://www.w3.org/1999/xlink" x="0px" y="0px"
	 width="196.576px" height="60.833px" viewBox="214.812 388.901 196.576 60.833"
	 enable-background="new 214.812 388.901 196.576 60.833" xml:space="preserve">
<g>
	<g>
		<g>
			<g>
				<path fill="#F42534" d="M227.664,406.894c0,0.856,0,1.224,3.06,1.224c0.612,0,8.812-0.244,16.769-1.346
					c4.284-0.612,4.774-1.347,4.774-2.693c0-2.692-3.06-8.69-10.649-8.69C233.172,395.388,227.664,402.12,227.664,406.894
					 M231.826,413.014c-1.958,0-5.875,0-6.365,0.856c-0.979,1.592-0.979,6.487-0.979,6.854c0,13.709,7.467,20.441,18.605,20.441
					c5.753,0,9.547-1.592,13.219-3.795c0.489-0.367,2.815-1.958,3.305-1.958c0.734,0,0.734,0.979,0.734,1.224
					c0,0.122-0.49,6.487-1.591,7.711c-1.346,1.469-9.302,5.509-17.993,5.509c-12.485,0-25.949-8.446-25.949-27.907
					c0-13.709,6.487-32.559,27.417-32.559c8.568,0,12.362,3.305,14.321,5.875c3.55,4.406,4.284,9.792,4.284,12.852
					c0,5.019-1.836,4.896-6.365,4.896H231.826L231.826,413.014z"/>
				<path fill="#F42534" d="M291.067,389.268c0.245,0,1.591-0.367,1.958-0.367c2.081,0,2.081,3.427,2.081,3.672v5.508
					c0.123,2.938,0.123,3.305,1.102,3.305c0.734,0,2.815-2.325,3.794-3.428c4.406-4.773,5.263-5.263,6.487-5.997
					c2.693-1.591,7.1-2.693,11.261-2.693c5.019,0,11.873,1.958,15.301,6.487c2.692,3.794,2.692,7.099,2.447,17.993v10.037
					c0,3.182,0,14.198,0.49,16.156c0.489,1.592,1.102,2.57,5.997,3.428c0.734,0.122,2.081,0.367,2.081,1.713v1.592
					c0,0.734-0.367,1.714-2.081,1.714c-0.856,0-3.06-0.49-11.628-0.49c-9.058,0-10.037,0.49-11.016,0.49
					c-1.592,0-1.592-0.857-1.592-1.714v-1.592c0-1.224,0.367-1.469,3.428-2.203c2.448-0.611,4.039-1.102,4.528-3.305
					c0.612-2.203,0.612-12.975,0.612-16.034v-6.242c0-7.345-0.245-11.139-1.714-13.831c-1.469-2.938-4.896-5.631-10.526-5.631
					c-6.609,0-11.628,3.795-14.198,7.222c-3.06,4.039-3.06,8.568-3.06,13.953v11.017c0,1.714,0,8.445,0.245,9.792
					c0.489,2.203,3.182,2.938,5.385,3.305c1.469,0.122,2.938,0.489,2.938,2.081v1.591c0,0.612-0.245,1.714-1.714,1.714
					c-1.346,0-4.406-0.49-11.75-0.49c-7.222,0-9.914,0.49-11.016,0.49c-0.49,0-1.836,0-1.836-1.714v-1.591
					c0-1.102,0.49-1.225,4.896-2.57c3.183-0.979,3.672-1.469,3.672-13.954v-12.24c0-4.161-0.123-15.789-2.693-18.115
					c-0.979-0.856-4.162-1.346-5.386-1.346c-0.734,0-1.836-0.123-1.836-1.714v-1.958c0-1.102,0.612-1.224,2.081-1.469
					L291.067,389.268z"/>
				<path fill="#F42534" d="M382.011,396.734c-8.936,0-15.668,9.058-15.668,21.176c0,16.034,10.771,24.234,19.217,24.234
					c7.1,0,16.402-5.263,16.402-20.318C401.962,409.831,395.475,396.734,382.011,396.734 M382.989,449.733
					c-9.302,0-26.561-5.997-26.561-29.009c0-15.789,9.67-31.457,29.865-31.457c10.771,0,25.093,8.446,25.093,28.275
					C411.509,439.452,395.719,449.733,382.989,449.733"/>
			</g>
		</g>
	</g>
</g>
</svg>
