<?xml version="1.0" encoding="utf-8"?>
<!-- Generator: Adobe Illustrator 18.0.0, SVG Export Plug-In . SVG Version: 6.00 Build 0)  -->
<!DOCTYPE svg PUBLIC "-//W3C//DTD SVG 1.1//EN" "http://www.w3.org/Graphics/SVG/1.1/DTD/svg11.dtd">
<svg version="1.1" id="Layer_1" xmlns="http://www.w3.org/2000/svg" xmlns:xlink="http://www.w3.org/1999/xlink" x="0px" y="0px"
	 viewBox="0 0 500 418.8" enable-background="new 0 0 500 418.8" xml:space="preserve">
<g>
	<g>
		<path fill="#FFFFFF" d="M276.2,217.3h-40.9c-0.7,0-1.2-0.6-1.2-1.2c0-0.7,0.6-1.2,1.2-1.2h40.9c0.7,0,1.2,0.6,1.2,1.2
			C277.4,216.7,276.9,217.3,276.2,217.3z"/>
	</g>
	<g>
		<path fill="#FFFFFF" d="M276.2,230.3h-40.9c-0.7,0-1.2-0.6-1.2-1.2c0-0.7,0.6-1.2,1.2-1.2h40.9c0.7,0,1.2,0.6,1.2,1.2
			C277.4,229.8,276.9,230.3,276.2,230.3z"/>
	</g>
	<g>
		<path fill="#FFFFFF" d="M276.2,243.4h-40.9c-0.7,0-1.2-0.6-1.2-1.2c0-0.7,0.6-1.2,1.2-1.2h40.9c0.7,0,1.2,0.6,1.2,1.2
			C277.4,242.8,276.9,243.4,276.2,243.4z"/>
	</g>
</g>
</svg>
