<?xml version="1.0" encoding="utf-8"?>
<!-- Generator: Adobe Illustrator 16.0.0, SVG Export Plug-In . SVG Version: 6.00 Build 0)  -->
<!DOCTYPE svg PUBLIC "-//W3C//DTD SVG 1.1//EN" "http://www.w3.org/Graphics/SVG/1.1/DTD/svg11.dtd">
<svg version="1.1" id="Layer_1" xmlns="http://www.w3.org/2000/svg" xmlns:xlink="http://www.w3.org/1999/xlink" x="0px" y="0px"
	 width="110.399px" height="159.135px" viewBox="261.816 340.261 110.399 159.135"
	 enable-background="new 261.816 340.261 110.399 159.135" xml:space="preserve">
<g>
	<g>
		<path fill="#FFFFFF" d="M338.068,405.67h-50.061c-0.857,0-1.469-0.734-1.469-1.469c0-0.857,0.734-1.469,1.469-1.469h50.061
			c0.857,0,1.47,0.734,1.47,1.469C339.537,404.936,338.926,405.67,338.068,405.67z"/>
	</g>
	<g>
		<path fill="#FFFFFF" d="M338.068,421.582h-50.061c-0.857,0-1.469-0.734-1.469-1.469c0-0.857,0.734-1.469,1.469-1.469h50.061
			c0.857,0,1.47,0.734,1.47,1.469C339.537,420.97,338.926,421.582,338.068,421.582z"/>
	</g>
	<g>
		<path fill="#FFFFFF" d="M338.068,437.616h-50.061c-0.857,0-1.469-0.734-1.469-1.469c0-0.857,0.734-1.469,1.469-1.469h50.061
			c0.857,0,1.47,0.734,1.47,1.469C339.537,436.882,338.926,437.616,338.068,437.616z"/>
	</g>
</g>
<image overflow="visible" enable-background="new    " width="2016" height="2902" xlink:href="D70200FAEC4156FA.jpeg"  transform="matrix(0.0548 0 0 0.0548 261.8164 340.2607)">
</image>
</svg>
