<?xml version="1.0" encoding="utf-8"?>
<!-- Generator: Adobe Illustrator 16.0.0, SVG Export Plug-In . SVG Version: 6.00 Build 0)  -->
<!DOCTYPE svg PUBLIC "-//W3C//DTD SVG 1.1//EN" "http://www.w3.org/Graphics/SVG/1.1/DTD/svg11.dtd">
<svg version="1.1" id="Layer_1" xmlns="http://www.w3.org/2000/svg" xmlns:xlink="http://www.w3.org/1999/xlink" x="0px" y="0px"
	 width="218.495px" height="141.782px" viewBox="208.447 307.095 218.495 141.782"
	 enable-background="new 208.447 307.095 218.495 141.782" xml:space="preserve">
<g>
	<g>
		<path fill="#FFFFFF" d="M338.068,405.67h-50.061c-0.857,0-1.469-0.734-1.469-1.469c0-0.857,0.734-1.469,1.469-1.469h50.061
			c0.857,0,1.47,0.734,1.47,1.469C339.537,404.936,338.926,405.67,338.068,405.67z"/>
	</g>
	<g>
		<path fill="#FFFFFF" d="M338.068,421.582h-50.061c-0.857,0-1.469-0.734-1.469-1.469c0-0.857,0.734-1.469,1.469-1.469h50.061
			c0.857,0,1.47,0.734,1.47,1.469C339.537,420.97,338.926,421.582,338.068,421.582z"/>
	</g>
	<g>
		<path fill="#FFFFFF" d="M338.068,437.616h-50.061c-0.857,0-1.469-0.734-1.469-1.469c0-0.857,0.734-1.469,1.469-1.469h50.061
			c0.857,0,1.47,0.734,1.47,1.469C339.537,436.882,338.926,437.616,338.068,437.616z"/>
	</g>
</g>
<g>
	<g>
		<g>
			<defs>
				<rect id="SVGID_1_" x="208.447" y="308.117" width="217.138" height="139.292"/>
			</defs>
			<clipPath id="SVGID_2_">
				<use xlink:href="#SVGID_1_"  overflow="visible"/>
			</clipPath>
			<g clip-path="url(#SVGID_2_)">
				<g>
					<g>
						<defs>
							<rect id="SVGID_3_" x="142.596" y="240.43" width="348.839" height="358.999"/>
						</defs>
						<clipPath id="SVGID_4_">
							<use xlink:href="#SVGID_3_"  overflow="visible"/>
						</clipPath>
						<g clip-path="url(#SVGID_4_)">
							<g>
								<defs>
									<rect id="SVGID_5_" x="206.856" y="306.526" width="220.076" height="142.351"/>
								</defs>
								<clipPath id="SVGID_6_">
									<use xlink:href="#SVGID_5_"  overflow="visible"/>
								</clipPath>
								<g clip-path="url(#SVGID_6_)">
									
										<image overflow="visible" enable-background="new    " width="701" height="457" xlink:href="EFCB2804F5CC77CF.jpeg"  transform="matrix(0.314 0 0 0.3114 206.8105 306.4971)">
									</image>
								</g>
							</g>
						</g>
					</g>
				</g>
			</g>
		</g>
	</g>
</g>
</svg>
